G04 #@! TF.GenerationSoftware,KiCad,Pcbnew,5.1.5+dfsg1-2build2*
G04 #@! TF.CreationDate,2020-11-07T01:55:29-05:00*
G04 #@! TF.ProjectId,atari-keyboard,61746172-692d-46b6-9579-626f6172642e,rev?*
G04 #@! TF.SameCoordinates,Original*
G04 #@! TF.FileFunction,Copper,L2,Bot*
G04 #@! TF.FilePolarity,Positive*
%FSLAX46Y46*%
G04 Gerber Fmt 4.6, Leading zero omitted, Abs format (unit mm)*
G04 Created by KiCad (PCBNEW 5.1.5+dfsg1-2build2) date 2020-11-07 01:55:29*
%MOMM*%
%LPD*%
G04 APERTURE LIST*
%ADD10C,2.200000*%
%ADD11O,1.800000X1.800000*%
%ADD12R,1.800000X1.800000*%
%ADD13R,1.600000X1.600000*%
%ADD14C,1.600000*%
%ADD15C,0.800000*%
%ADD16C,0.304800*%
G04 APERTURE END LIST*
D10*
X123600000Y-107240000D03*
X129950000Y-104700000D03*
X238918750Y-88265000D03*
X245268750Y-85725000D03*
X10318750Y-88190000D03*
X16668750Y-85650000D03*
X262750000Y-69190000D03*
X269100000Y-66650000D03*
X3175000Y-69190000D03*
X9525000Y-66650000D03*
X260350000Y-50165000D03*
X266700000Y-47625000D03*
X793750Y-50165000D03*
X7143750Y-47625000D03*
X-3968750Y-31115000D03*
X2381250Y-28575000D03*
X117475000Y-88190000D03*
X123825000Y-85650000D03*
X222250000Y-69190000D03*
X228600000Y-66650000D03*
X69850000Y-69190000D03*
X76200000Y-66650000D03*
X179387000Y-50165000D03*
X185737000Y-47625000D03*
X26987500Y-50165000D03*
X33337500Y-47625000D03*
X150812500Y-31115000D03*
X157162500Y-28575000D03*
X265112500Y-88190000D03*
X271462500Y-85650000D03*
X98425000Y-88190000D03*
X104775000Y-85650000D03*
X203200000Y-69190000D03*
X209550000Y-66650000D03*
X50800000Y-69190000D03*
X57150000Y-66650000D03*
X160337500Y-50165000D03*
X166687500Y-47625000D03*
X131762500Y-31115000D03*
X138112500Y-28575000D03*
X260350000Y-2540000D03*
X266700000Y0D03*
X79375000Y-88190000D03*
X85725000Y-85650000D03*
X184150000Y-69190000D03*
X190500000Y-66650000D03*
X31750000Y-69190000D03*
X38100000Y-66650000D03*
X141287500Y-50165000D03*
X147637500Y-47625000D03*
X265112500Y-31115000D03*
X271462500Y-28575000D03*
X112712500Y-31115000D03*
X119062500Y-28575000D03*
X236537500Y-2540000D03*
X242887500Y0D03*
X212725000Y-88190000D03*
X219075000Y-85650000D03*
X60325000Y-88190000D03*
X66675000Y-85650000D03*
X165100000Y-69190000D03*
X171450000Y-66650000D03*
X122237500Y-50165000D03*
X128587500Y-47625000D03*
X246062500Y-31115000D03*
X252412500Y-28575000D03*
X93662500Y-31115000D03*
X100012500Y-28575000D03*
X212725000Y-2540000D03*
X219075000Y0D03*
X193675000Y-88190000D03*
X200025000Y-85650000D03*
X41275000Y-88190000D03*
X47625000Y-85650000D03*
X146050000Y-69190000D03*
X152400000Y-66650000D03*
X103187500Y-50165000D03*
X109537500Y-47625000D03*
X227012500Y-31115000D03*
X233362500Y-28575000D03*
X74612500Y-31115000D03*
X80962500Y-28575000D03*
X188912500Y-2540000D03*
X195262500Y0D03*
X174625000Y-88190000D03*
X180975000Y-85650000D03*
X127000000Y-69190000D03*
X133350000Y-66650000D03*
X236537500Y-50165000D03*
X242887500Y-47625000D03*
X84137500Y-50165000D03*
X90487500Y-47625000D03*
X207962500Y-31115000D03*
X214312500Y-28575000D03*
X55562500Y-31115000D03*
X61912500Y-28575000D03*
X165100000Y-2540000D03*
X171450000Y0D03*
X155575000Y-88190000D03*
X161925000Y-85650000D03*
X107950000Y-69190000D03*
X114300000Y-66650000D03*
X217487500Y-50165000D03*
X223837500Y-47625000D03*
X65087500Y-50165000D03*
X71437500Y-47625000D03*
X188912500Y-31115000D03*
X195262500Y-28575000D03*
X36512500Y-31115000D03*
X42862500Y-28575000D03*
X79375000Y-2540000D03*
X85725000Y0D03*
X136525000Y-88190000D03*
X142875000Y-85650000D03*
X241300000Y-69190000D03*
X247650000Y-66650000D03*
X88900000Y-69190000D03*
X95250000Y-66650000D03*
X198437500Y-50165000D03*
X204787500Y-47625000D03*
X46037500Y-50165000D03*
X52387500Y-47625000D03*
X169862500Y-31115000D03*
X176212500Y-28575000D03*
X17462500Y-31115000D03*
X23812500Y-28575000D03*
X55562500Y-2540000D03*
X61912500Y0D03*
D11*
X113275000Y-106680000D03*
D12*
X113275000Y-114300000D03*
D11*
X130968750Y-87630000D03*
D12*
X130968750Y-95250000D03*
D11*
X235743750Y-68580000D03*
D12*
X235743750Y-76200000D03*
D11*
X83343750Y-68580000D03*
D12*
X83343750Y-76200000D03*
D11*
X192881250Y-49530000D03*
D12*
X192881250Y-57150000D03*
D11*
X40481250Y-49530000D03*
D12*
X40481250Y-57150000D03*
D11*
X164306250Y-30480000D03*
D12*
X164306250Y-38100000D03*
D11*
X11906250Y-30480000D03*
D12*
X11906250Y-38100000D03*
D11*
X278606250Y-87630000D03*
D12*
X278606250Y-95250000D03*
D11*
X111918750Y-87630000D03*
D12*
X111918750Y-95250000D03*
D11*
X216693750Y-68580000D03*
D12*
X216693750Y-76200000D03*
D11*
X64293750Y-68580000D03*
D12*
X64293750Y-76200000D03*
D11*
X173831250Y-49530000D03*
D12*
X173831250Y-57150000D03*
D11*
X21431250Y-49530000D03*
D12*
X21431250Y-57150000D03*
D11*
X145256250Y-30480000D03*
D12*
X145256250Y-38100000D03*
D11*
X147681250Y-2017500D03*
D12*
X147681250Y-9637500D03*
D11*
X259556250Y-87630000D03*
D12*
X259556250Y-95250000D03*
D11*
X92868750Y-87630000D03*
D12*
X92868750Y-95250000D03*
D11*
X197643750Y-68580000D03*
D12*
X197643750Y-76200000D03*
D11*
X45243750Y-68580000D03*
D12*
X45243750Y-76200000D03*
D11*
X154781250Y-49530000D03*
D12*
X154781250Y-57150000D03*
D11*
X278606250Y-30480000D03*
D12*
X278606250Y-38100000D03*
D11*
X126206250Y-30480000D03*
D12*
X126206250Y-38100000D03*
D11*
X140989580Y-2017500D03*
D12*
X140989580Y-9637500D03*
D11*
X226218750Y-87630000D03*
D12*
X226218750Y-95250000D03*
D11*
X73818750Y-87630000D03*
D12*
X73818750Y-95250000D03*
D11*
X178593750Y-68580000D03*
D12*
X178593750Y-76200000D03*
D11*
X26193750Y-68580000D03*
D12*
X26193750Y-76200000D03*
D11*
X135731250Y-49530000D03*
D12*
X135731250Y-57150000D03*
D11*
X259556250Y-30480000D03*
D12*
X259556250Y-38100000D03*
D11*
X107156250Y-30480000D03*
D12*
X107156250Y-38100000D03*
D11*
X134297914Y-2017500D03*
D12*
X134297914Y-9637500D03*
D11*
X207168750Y-87630000D03*
D12*
X207168750Y-95250000D03*
D11*
X54768750Y-87630000D03*
D12*
X54768750Y-95250000D03*
D11*
X159543750Y-68580000D03*
D12*
X159543750Y-76200000D03*
D11*
X278606250Y-49530000D03*
D12*
X278606250Y-57150000D03*
D11*
X116681250Y-49530000D03*
D12*
X116681250Y-57150000D03*
D11*
X240506250Y-30480000D03*
D12*
X240506250Y-38100000D03*
D11*
X88106250Y-30480000D03*
D12*
X88106250Y-38100000D03*
D11*
X127606248Y-2017500D03*
D12*
X127606248Y-9637500D03*
D11*
X188118750Y-87630000D03*
D12*
X188118750Y-95250000D03*
D11*
X35718750Y-87630000D03*
D12*
X35718750Y-95250000D03*
D11*
X140493750Y-68580000D03*
D12*
X140493750Y-76200000D03*
D11*
X250031250Y-49530000D03*
D12*
X250031250Y-57150000D03*
D11*
X97631250Y-49530000D03*
D12*
X97631250Y-57150000D03*
D11*
X221456250Y-30480000D03*
D12*
X221456250Y-38100000D03*
D11*
X69056250Y-30480000D03*
D12*
X69056250Y-38100000D03*
D11*
X120914582Y-2017500D03*
D12*
X120914582Y-9637500D03*
D11*
X169068750Y-87630000D03*
D12*
X169068750Y-95250000D03*
D11*
X278606250Y-68580000D03*
D12*
X278606250Y-76200000D03*
D11*
X121443750Y-68580000D03*
D12*
X121443750Y-76200000D03*
D11*
X230981250Y-49530000D03*
D12*
X230981250Y-57150000D03*
D11*
X78581250Y-49530000D03*
D12*
X78581250Y-57150000D03*
D11*
X202406250Y-30480000D03*
D12*
X202406250Y-38100000D03*
D11*
X50006250Y-30480000D03*
D12*
X50006250Y-38100000D03*
D11*
X114222916Y-2017500D03*
D12*
X114222916Y-9637500D03*
D11*
X150018750Y-87630000D03*
D12*
X150018750Y-95250000D03*
D11*
X254793750Y-68580000D03*
D12*
X254793750Y-76200000D03*
D11*
X102393750Y-68580000D03*
D12*
X102393750Y-76200000D03*
D11*
X211931250Y-49530000D03*
D12*
X211931250Y-57150000D03*
D11*
X59531250Y-49530000D03*
D12*
X59531250Y-57150000D03*
D11*
X183356250Y-30480000D03*
D12*
X183356250Y-38100000D03*
D11*
X30956250Y-30480000D03*
D12*
X30956250Y-38100000D03*
D11*
X107531250Y-2017500D03*
D12*
X107531250Y-9637500D03*
D13*
X-10920000Y-12795000D03*
D14*
X-8380000Y-12795000D03*
X-5840000Y-12795000D03*
X-3300000Y-12795000D03*
X-760000Y-12795000D03*
X1780000Y-12795000D03*
X4320000Y-12795000D03*
X6860000Y-12795000D03*
X9400000Y-12795000D03*
X11940000Y-12795000D03*
X14480000Y-12795000D03*
X17020000Y-12795000D03*
X17020000Y2445000D03*
X14480000Y2445000D03*
X11940000Y2445000D03*
X9400000Y2445000D03*
X6860000Y2445000D03*
X4320000Y2445000D03*
X1780000Y2445000D03*
X-760000Y2445000D03*
X-3300000Y2445000D03*
X-5840000Y2445000D03*
X-8380000Y2445000D03*
X-10920000Y2445000D03*
D15*
X14274800Y-38366700D03*
X183019700Y-44043600D03*
X42252900Y-43980100D03*
X23787100Y-59194700D03*
X215150027Y-78698790D03*
X89090500Y-19329400D03*
X255358900Y-98488500D03*
X146596100Y-14465300D03*
X149885400Y-115506500D03*
X69430900Y-63741300D03*
X27406600Y-62100189D03*
X71132700Y-82600800D03*
X150837900Y-42976721D03*
X179285900Y-61455300D03*
X221564200Y-60807600D03*
X-13639800Y-3492500D03*
X118643398Y-43103800D03*
X179374800Y-43189590D03*
X50596800Y-61290200D03*
X131965700Y-41732200D03*
X137350500Y-82524600D03*
X98640900Y-82257900D03*
X51930300Y-79032100D03*
X98691700Y-78828900D03*
X203136500Y-78422500D03*
X203415900Y-62128400D03*
X-15062200Y-4127500D03*
X812800Y-61252100D03*
X161061400Y-61366400D03*
X160375600Y-41643300D03*
X31216600Y-64147700D03*
X32029400Y-80264000D03*
X141693900Y-39687500D03*
X78901609Y-80413290D03*
X117754400Y-80695800D03*
X141706600Y-60426600D03*
X184289700Y-79273400D03*
X184594500Y-60055190D03*
X252793500Y-89293700D03*
X-18144930Y-62694889D03*
X-20199211Y-9906000D03*
X112877600Y-39725600D03*
X93433900Y-39738300D03*
X122059700Y-40792400D03*
X104174103Y-81448210D03*
X164960300Y-64084200D03*
X165214300Y-80289400D03*
X251460000Y-93649800D03*
X122529600Y-62334710D03*
X-18144930Y-68215725D03*
X-20449386Y-7028217D03*
X74701400Y-40843200D03*
X79540100Y-93408500D03*
X146113500Y-62382400D03*
X146304000Y-82537300D03*
X228422200Y-63144400D03*
X198907400Y-63080900D03*
X103479600Y-61582300D03*
X-16827498Y-2400300D03*
X-17392520Y-21577300D03*
X103162100Y-41455910D03*
X226949000Y-40995600D03*
X261023100Y-43091100D03*
X55676800Y-41757600D03*
X83743800Y-42062400D03*
X207975200Y-42265600D03*
X84569300Y-62496700D03*
X127330200Y-81267300D03*
X174637700Y-81483200D03*
X176339500Y-64300100D03*
X208610200Y-63896810D03*
X-17392520Y-22577301D03*
X-17589498Y-965200D03*
X126733300Y-63754000D03*
X236423200Y-42303700D03*
X36626800Y-45046900D03*
X188836300Y-43268900D03*
X217690700Y-43434000D03*
X107365800Y-60629800D03*
X108064300Y-79794100D03*
X157683200Y-79921100D03*
X189776100Y-62880810D03*
X263677400Y-59905900D03*
X217627514Y-59255090D03*
X-18186455Y-65179D03*
X-18681700Y-26212800D03*
X65138300Y-60490100D03*
X157632400Y-62877700D03*
X45770800Y-42329100D03*
X46062900Y-63106300D03*
X87985600Y-64897000D03*
X88684100Y-83362800D03*
X136410700Y-83426300D03*
X198348600Y-60007500D03*
X241833400Y-60185300D03*
X-18846800Y685800D03*
X-19237625Y-27128086D03*
X17475200Y-42265600D03*
X138734800Y-40919400D03*
X169951400Y-40805100D03*
X198437500Y-40881300D03*
D16*
X57061100Y-3657600D02*
X56680100Y-3657600D01*
X56680100Y-3657600D02*
X56637277Y-3614777D01*
X11906250Y-36895200D02*
X11906250Y-38100000D01*
X11906250Y-35363150D02*
X11906250Y-36895200D01*
X-760000Y-22696900D02*
X11906250Y-35363150D01*
X-760000Y-12795000D02*
X-760000Y-22696900D01*
X13957300Y-38049200D02*
X14274800Y-38366700D01*
X13957300Y-24972300D02*
X13957300Y-38049200D01*
X1780000Y-12795000D02*
X13957300Y-24972300D01*
X183019700Y-38436550D02*
X183356250Y-38100000D01*
X183019700Y-44043600D02*
X183019700Y-38436550D01*
X20178849Y-57102399D02*
X20226450Y-57150000D01*
X20178849Y-46635659D02*
X20178849Y-57102399D01*
X15027202Y-41484012D02*
X20178849Y-46635659D01*
X15027202Y-34269256D02*
X15027202Y-41484012D01*
X14990099Y-34232153D02*
X15027202Y-34269256D01*
X20226450Y-57150000D02*
X21431250Y-57150000D01*
X14990099Y-33077847D02*
X14990099Y-34232153D01*
X15027202Y-33040744D02*
X14990099Y-33077847D01*
X15027202Y-23502202D02*
X15027202Y-33040744D01*
X4320000Y-12795000D02*
X15027202Y-23502202D01*
X42252900Y-44545785D02*
X42252900Y-43980100D01*
X41686050Y-57150000D02*
X42252900Y-56583150D01*
X40481250Y-57150000D02*
X41686050Y-57150000D01*
X42252900Y-56583150D02*
X42252900Y-44545785D01*
X6860000Y-12795000D02*
X6860000Y-13926370D01*
X6860000Y-13926370D02*
X23787100Y-30853470D01*
X23787100Y-30853470D02*
X23787100Y-58629015D01*
X23787100Y-58629015D02*
X23787100Y-59194700D01*
X213136050Y-57150000D02*
X215150027Y-59163977D01*
X215150027Y-59163977D02*
X215150027Y-78133105D01*
X211931250Y-57150000D02*
X213136050Y-57150000D01*
X215150027Y-78133105D02*
X215150027Y-78698790D01*
X23300400Y-26695400D02*
X24765000Y-26695400D01*
X27554901Y-29485301D02*
X27554901Y-47448045D01*
X9400000Y-12795000D02*
X23300400Y-26695400D01*
X24988950Y-76200000D02*
X26193750Y-76200000D01*
X24515099Y-50487847D02*
X24515099Y-58821843D01*
X24539502Y-58846246D02*
X24539502Y-59630849D01*
X24765000Y-26695400D02*
X27554901Y-29485301D01*
X24515099Y-75726149D02*
X24988950Y-76200000D01*
X24515099Y-59655252D02*
X24515099Y-75726149D01*
X24515099Y-58821843D02*
X24539502Y-58846246D01*
X24539502Y-59630849D02*
X24515099Y-59655252D01*
X27554901Y-47448045D02*
X24515099Y-50487847D01*
X102393750Y-70433554D02*
X102393750Y-74995200D01*
X94399100Y-62438904D02*
X102393750Y-70433554D01*
X102393750Y-74995200D02*
X102393750Y-76200000D01*
X94399100Y-44615100D02*
X94399100Y-62438904D01*
X89490499Y-39706499D02*
X94399100Y-44615100D01*
X89490499Y-19729399D02*
X89490499Y-39706499D01*
X89090500Y-19329400D02*
X89490499Y-19729399D01*
X14480000Y-12795000D02*
X14675100Y-12795000D01*
X34513950Y-95250000D02*
X35718750Y-95250000D01*
X28439901Y-89175951D02*
X34513950Y-95250000D01*
X28439901Y-26559801D02*
X28439901Y-89175951D01*
X14675100Y-12795000D02*
X28439901Y-26559801D01*
X255358900Y-76765150D02*
X254793750Y-76200000D01*
X255358900Y-98488500D02*
X255358900Y-76765150D01*
X147891500Y-59991946D02*
X156142401Y-68242847D01*
X150018750Y-91596696D02*
X150018750Y-94045200D01*
X156142401Y-85473045D02*
X150018750Y-91596696D01*
X146596100Y-14465300D02*
X146596100Y-29048154D01*
X146596100Y-29048154D02*
X147256500Y-29708554D01*
X156142401Y-68242847D02*
X156142401Y-85473045D01*
X149089901Y-48322153D02*
X148334653Y-49077401D01*
X147256500Y-31994248D02*
X147662900Y-32400648D01*
X147662900Y-32400648D02*
X147662900Y-34452152D01*
X149089901Y-46927847D02*
X149089901Y-48322153D01*
X150018750Y-94045200D02*
X150018750Y-95250000D01*
X147662900Y-34452152D02*
X147891500Y-34680752D01*
X147891500Y-34680752D02*
X147891500Y-46172599D01*
X147891500Y-46172599D02*
X148334653Y-46172599D01*
X148334653Y-46172599D02*
X149089901Y-46927847D01*
X148334653Y-49077401D02*
X147891500Y-49077401D01*
X147256500Y-29708554D02*
X147256500Y-31994248D01*
X147891500Y-49077401D02*
X147891500Y-59991946D01*
X150018750Y-115373150D02*
X149885400Y-115506500D01*
X150018750Y-95250000D02*
X150018750Y-115373150D01*
X69430900Y-68770900D02*
X69850000Y-69190000D01*
X69430900Y-63741300D02*
X69430900Y-68770900D01*
X26987500Y-50165000D02*
X26987500Y-61681089D01*
X26987500Y-61681089D02*
X27406600Y-62100189D01*
X69850000Y-69190000D02*
X69850000Y-72644000D01*
X69850000Y-72644000D02*
X70739000Y-73533000D01*
X70739000Y-73533000D02*
X70739000Y-78727300D01*
X70739000Y-78727300D02*
X71247000Y-79235300D01*
X71247000Y-82486500D02*
X71132700Y-82600800D01*
X71247000Y-79235300D02*
X71247000Y-82486500D01*
X117475000Y-101115000D02*
X123600000Y-107240000D01*
X117475000Y-88190000D02*
X117475000Y-101115000D01*
X150812500Y-31115000D02*
X150812500Y-42951321D01*
X150812500Y-42951321D02*
X150837900Y-42976721D01*
X179387000Y-61354200D02*
X179285900Y-61455300D01*
X179387000Y-50165000D02*
X179387000Y-61354200D01*
X221564200Y-60807600D02*
X221564200Y-68504200D01*
X221564200Y-68504200D02*
X222250000Y-69190000D01*
X-11430000Y-31115000D02*
X-3968750Y-31115000D01*
X-13639800Y-28905200D02*
X-11430000Y-31115000D01*
X-13639800Y-3492500D02*
X-13639800Y-28905200D01*
X118643398Y-43669485D02*
X118643398Y-43103800D01*
X118643398Y-87021602D02*
X118643398Y-43669485D01*
X117475000Y-88190000D02*
X118643398Y-87021602D01*
X179387000Y-50165000D02*
X179387000Y-43201790D01*
X179387000Y-43201790D02*
X179374800Y-43189590D01*
X50596800Y-68986800D02*
X50800000Y-69190000D01*
X50596800Y-61290200D02*
X50596800Y-68986800D01*
X131762500Y-41529000D02*
X131965700Y-41732200D01*
X131762500Y-31115000D02*
X131762500Y-41529000D01*
X98640900Y-87974100D02*
X98425000Y-88190000D01*
X98640900Y-82257900D02*
X98640900Y-87974100D01*
X51345700Y-69190000D02*
X51473100Y-69062600D01*
X50800000Y-69190000D02*
X51345700Y-69190000D01*
X50800000Y-77901800D02*
X51930300Y-79032100D01*
X50800000Y-69190000D02*
X50800000Y-77901800D01*
X98691700Y-82207100D02*
X98640900Y-82257900D01*
X98691700Y-78828900D02*
X98691700Y-82207100D01*
X137350500Y-81958915D02*
X137350500Y-82524600D01*
X131965700Y-41732200D02*
X137350500Y-47117000D01*
X137350500Y-47117000D02*
X137350500Y-81958915D01*
X203200000Y-78359000D02*
X203136500Y-78422500D01*
X203200000Y-69190000D02*
X203200000Y-78359000D01*
X203415900Y-68974100D02*
X203200000Y-69190000D01*
X203415900Y-62128400D02*
X203415900Y-68974100D01*
X257200400Y-80277900D02*
X265112500Y-88190000D01*
X257200400Y-44843700D02*
X257200400Y-80277900D01*
X266570099Y-35474001D02*
X257200400Y-44843700D01*
X266570099Y-17408799D02*
X266570099Y-35474001D01*
X260794500Y-11633200D02*
X266570099Y-17408799D01*
X260794500Y-3009900D02*
X260794500Y-11633200D01*
X260350000Y-2565400D02*
X260794500Y-3009900D01*
X260350000Y-2540000D02*
X260350000Y-2565400D01*
X793750Y-50165000D02*
X-15062200Y-34309050D01*
X-15062200Y-34309050D02*
X-15062200Y-4127500D01*
X793750Y-50165000D02*
X793750Y-61233050D01*
X793750Y-61233050D02*
X812800Y-61252100D01*
X160337500Y-50165000D02*
X160337500Y-60642500D01*
X160337500Y-60642500D02*
X161061400Y-61366400D01*
X160337500Y-41681400D02*
X160375600Y-41643300D01*
X160337500Y-50165000D02*
X160337500Y-41681400D01*
X236537500Y-4751554D02*
X248880146Y-17094200D01*
X236537500Y-2540000D02*
X236537500Y-4751554D01*
X251091700Y-17094200D02*
X265112500Y-31115000D01*
X248880146Y-17094200D02*
X251091700Y-17094200D01*
X31750000Y-64681100D02*
X31750000Y-69190000D01*
X31216600Y-64147700D02*
X31750000Y-64681100D01*
X31750000Y-79984600D02*
X32029400Y-80264000D01*
X31750000Y-69190000D02*
X31750000Y-79984600D01*
X141287500Y-40093900D02*
X141287500Y-50165000D01*
X141693900Y-39687500D02*
X141287500Y-40093900D01*
X79375000Y-88190000D02*
X79375000Y-80886681D01*
X79375000Y-80886681D02*
X79301608Y-80813289D01*
X79301608Y-80813289D02*
X78901609Y-80413290D01*
X141287500Y-60007500D02*
X141706600Y-60426600D01*
X141287500Y-50165000D02*
X141287500Y-60007500D01*
X184150000Y-79133700D02*
X184289700Y-79273400D01*
X184150000Y-69190000D02*
X184150000Y-79133700D01*
X184150000Y-60499690D02*
X184194501Y-60455189D01*
X184150000Y-69190000D02*
X184150000Y-60499690D01*
X184194501Y-60455189D02*
X184594500Y-60055190D01*
X265112500Y-34978072D02*
X253555500Y-46535072D01*
X265112500Y-31115000D02*
X265112500Y-34978072D01*
X252793500Y-47297072D02*
X252793500Y-89293700D01*
X253555500Y-46535072D02*
X252793500Y-47297072D01*
X-20199211Y-60640608D02*
X-20199211Y-10471685D01*
X-18144930Y-62694889D02*
X-20199211Y-60640608D01*
X-20199211Y-10471685D02*
X-20199211Y-9906000D01*
X113328399Y-60661499D02*
X113328399Y-40176399D01*
X113277599Y-40125599D02*
X112877600Y-39725600D01*
X113328399Y-40176399D02*
X113277599Y-40125599D01*
X118070188Y-65403288D02*
X113328399Y-60661499D01*
X117754400Y-80130115D02*
X118070188Y-79814327D01*
X118070188Y-79814327D02*
X118070188Y-65403288D01*
X117754400Y-80695800D02*
X117754400Y-80130115D01*
X112712500Y-31115000D02*
X112712500Y-39560500D01*
X112712500Y-39560500D02*
X112877600Y-39725600D01*
X212725000Y-4751554D02*
X226096346Y-18122900D01*
X212725000Y-2540000D02*
X212725000Y-4751554D01*
X233070400Y-18122900D02*
X246062500Y-31115000D01*
X226096346Y-18122900D02*
X233070400Y-18122900D01*
X93662500Y-39509700D02*
X93433900Y-39738300D01*
X93662500Y-31115000D02*
X93662500Y-39509700D01*
X122059700Y-49987200D02*
X122237500Y-50165000D01*
X122059700Y-40792400D02*
X122059700Y-49987200D01*
X164960300Y-69050300D02*
X165100000Y-69190000D01*
X164960300Y-64084200D02*
X164960300Y-69050300D01*
X165100000Y-80175100D02*
X165214300Y-80289400D01*
X165100000Y-69190000D02*
X165100000Y-80175100D01*
X251460000Y-38724054D02*
X251460000Y-93084115D01*
X246062500Y-33326554D02*
X251460000Y-38724054D01*
X246062500Y-31115000D02*
X246062500Y-33326554D01*
X251460000Y-93084115D02*
X251460000Y-93649800D01*
X122237500Y-50165000D02*
X122237500Y-62042610D01*
X122237500Y-62042610D02*
X122529600Y-62334710D01*
X-20849385Y-7428216D02*
X-20449386Y-7028217D01*
X-18144930Y-68215725D02*
X-20951612Y-65409043D01*
X-20951612Y-7530443D02*
X-20849385Y-7428216D01*
X-20951612Y-65409043D02*
X-20951612Y-7530443D01*
X104174103Y-80882525D02*
X104174103Y-81448210D01*
X104174103Y-68207703D02*
X104174103Y-80882525D01*
X95872300Y-59905900D02*
X104174103Y-68207703D01*
X95872300Y-42176700D02*
X95872300Y-59905900D01*
X93433900Y-39738300D02*
X95872300Y-42176700D01*
X188912500Y-4751554D02*
X202182246Y-18021300D01*
X188912500Y-2540000D02*
X188912500Y-4751554D01*
X202182246Y-18021300D02*
X216928700Y-18021300D01*
X227012500Y-28105100D02*
X227012500Y-31115000D01*
X216928700Y-18021300D02*
X227012500Y-28105100D01*
X74612500Y-40754300D02*
X74701400Y-40843200D01*
X74612500Y-31115000D02*
X74612500Y-40754300D01*
X227012500Y-31318200D02*
X226720400Y-31610300D01*
X227012500Y-31115000D02*
X227012500Y-31318200D01*
X227012500Y-40932100D02*
X226949000Y-40995600D01*
X227012500Y-31115000D02*
X227012500Y-40932100D01*
X79540100Y-91014015D02*
X79540100Y-92842815D01*
X74701400Y-40843200D02*
X81224651Y-47366451D01*
X81224651Y-47366451D02*
X81224651Y-89329464D01*
X81224651Y-89329464D02*
X79540100Y-91014015D01*
X79540100Y-92842815D02*
X79540100Y-93408500D01*
X146113500Y-69126500D02*
X146050000Y-69190000D01*
X146113500Y-62382400D02*
X146113500Y-69126500D01*
X146050000Y-82283300D02*
X146304000Y-82537300D01*
X146050000Y-69190000D02*
X146050000Y-82283300D01*
X226949000Y-40995600D02*
X226949000Y-49974500D01*
X228422200Y-51447700D02*
X228422200Y-63144400D01*
X226949000Y-49974500D02*
X228422200Y-51447700D01*
X198907400Y-82957600D02*
X193675000Y-88190000D01*
X198907400Y-63080900D02*
X198907400Y-82957600D01*
X103187500Y-61290200D02*
X103479600Y-61582300D01*
X103187500Y-50165000D02*
X103187500Y-61290200D01*
X-17392520Y-2965322D02*
X-17392520Y-21577300D01*
X-16827498Y-2400300D02*
X-17392520Y-2965322D01*
X103187500Y-50165000D02*
X103187500Y-41481310D01*
X103187500Y-41481310D02*
X103162100Y-41455910D01*
X261023100Y-49491900D02*
X260350000Y-50165000D01*
X55562500Y-31115000D02*
X55562500Y-40690800D01*
X55562500Y-41643300D02*
X55676800Y-41757600D01*
X55562500Y-40690800D02*
X55562500Y-41643300D01*
X236423200Y-50050700D02*
X236537500Y-50165000D01*
X83743800Y-49771300D02*
X83743800Y-42062400D01*
X84137500Y-50165000D02*
X83743800Y-49771300D01*
X84137500Y-62064900D02*
X84569300Y-62496700D01*
X84137500Y-50165000D02*
X84137500Y-62064900D01*
X127000000Y-80937100D02*
X127330200Y-81267300D01*
X127000000Y-69190000D02*
X127000000Y-80937100D01*
X174637700Y-88177300D02*
X174625000Y-88190000D01*
X174637700Y-81483200D02*
X174637700Y-88177300D01*
X207975200Y-41948100D02*
X207962500Y-41935400D01*
X207975200Y-42265600D02*
X207975200Y-41948100D01*
X207962500Y-31115000D02*
X207962500Y-41935400D01*
X176339500Y-79781400D02*
X174637700Y-81483200D01*
X176339500Y-64300100D02*
X176339500Y-79781400D01*
X207975200Y-42265600D02*
X208610200Y-42900600D01*
X208610200Y-42900600D02*
X208610200Y-63331125D01*
X208610200Y-63331125D02*
X208610200Y-63896810D01*
X-17958205Y-22577301D02*
X-18144922Y-22390584D01*
X-18144922Y-1520624D02*
X-17989497Y-1365199D01*
X-17989497Y-1365199D02*
X-17589498Y-965200D01*
X-17392520Y-22577301D02*
X-17958205Y-22577301D01*
X-18144922Y-22390584D02*
X-18144922Y-1520624D01*
X195376800Y-18529300D02*
X207962500Y-31115000D01*
X176517300Y-18529300D02*
X195376800Y-18529300D01*
X165100000Y-7112000D02*
X176517300Y-18529300D01*
X165100000Y-2540000D02*
X165100000Y-7112000D01*
X-17392520Y-23142986D02*
X-17392520Y-22577301D01*
X-12076500Y-88190000D02*
X-17392520Y-82873980D01*
X-17392520Y-82873980D02*
X-17392520Y-23142986D01*
X10318750Y-88190000D02*
X-12076500Y-88190000D01*
X127000000Y-69190000D02*
X127000000Y-64020700D01*
X127000000Y-64020700D02*
X126733300Y-63754000D01*
X236423200Y-42303700D02*
X236423200Y-50050700D01*
X36512500Y-44932600D02*
X36626800Y-45046900D01*
X36512500Y-31115000D02*
X36512500Y-44932600D01*
X188912500Y-43192700D02*
X188836300Y-43268900D01*
X188912500Y-31115000D02*
X188912500Y-43192700D01*
X217690700Y-49961800D02*
X217487500Y-50165000D01*
X217690700Y-43434000D02*
X217690700Y-49961800D01*
X107365800Y-68605800D02*
X107950000Y-69190000D01*
X107365800Y-60629800D02*
X107365800Y-68605800D01*
X107950000Y-69190000D02*
X107721000Y-69190000D01*
X108064300Y-69533300D02*
X108064300Y-79794100D01*
X107721000Y-69190000D02*
X108064300Y-69533300D01*
X157683200Y-86081800D02*
X155575000Y-88190000D01*
X157683200Y-79921100D02*
X157683200Y-86081800D01*
X188836300Y-43268900D02*
X189776100Y-44208700D01*
X189776100Y-44208700D02*
X189776100Y-62880810D01*
X263677400Y-68262600D02*
X262750000Y-69190000D01*
X263677400Y-59905900D02*
X263677400Y-68262600D01*
X217487500Y-50165000D02*
X217487500Y-59115076D01*
X217487500Y-59115076D02*
X217627514Y-59255090D01*
X-18681700Y-25647115D02*
X-18681700Y-26212800D01*
X-18681700Y-560424D02*
X-18681700Y-25647115D01*
X-18186455Y-65179D02*
X-18681700Y-560424D01*
X65087500Y-50165000D02*
X65087500Y-60439300D01*
X65087500Y-60439300D02*
X65138300Y-60490100D01*
X157683200Y-62928500D02*
X157632400Y-62877700D01*
X157683200Y-79921100D02*
X157683200Y-62928500D01*
X45770800Y-49898300D02*
X46037500Y-50165000D01*
X45770800Y-42329100D02*
X45770800Y-49898300D01*
X46037500Y-63080900D02*
X46062900Y-63106300D01*
X46037500Y-50165000D02*
X46037500Y-63080900D01*
X87985600Y-68275600D02*
X88900000Y-69190000D01*
X87985600Y-64897000D02*
X87985600Y-68275600D01*
X88900000Y-83146900D02*
X88684100Y-83362800D01*
X88900000Y-69190000D02*
X88900000Y-83146900D01*
X136410700Y-88075700D02*
X136525000Y-88190000D01*
X136410700Y-83426300D02*
X136410700Y-88075700D01*
X198437500Y-59918600D02*
X198348600Y-60007500D01*
X198437500Y-50165000D02*
X198437500Y-59918600D01*
X241833400Y-68656600D02*
X241300000Y-69190000D01*
X241833400Y-60185300D02*
X241833400Y-68656600D01*
X-19446801Y-26918910D02*
X-19237625Y-27128086D01*
X-19446801Y85799D02*
X-19446801Y-26918910D01*
X-18846800Y685800D02*
X-19446801Y85799D01*
X17462500Y-31115000D02*
X17462500Y-42252900D01*
X17462500Y-42252900D02*
X17475200Y-42265600D01*
X136525000Y-88190000D02*
X138734800Y-85980200D01*
X138734800Y-85980200D02*
X138734800Y-41485085D01*
X138734800Y-41485085D02*
X138734800Y-40919400D01*
X169862500Y-31115000D02*
X169862500Y-40716200D01*
X169862500Y-40716200D02*
X169951400Y-40805100D01*
X198437500Y-50165000D02*
X198437500Y-40881300D01*
X241787501Y1099999D02*
X242887500Y0D01*
X238175800Y4711700D02*
X241787501Y1099999D01*
X148018500Y4711700D02*
X238175800Y4711700D01*
X142189299Y-1117501D02*
X148018500Y4711700D01*
X141889579Y-1117501D02*
X142189299Y-1117501D01*
X140989580Y-2017500D02*
X141889579Y-1117501D01*
X147681250Y-2017500D02*
X147347200Y-2017500D01*
X147347200Y-2017500D02*
X152565100Y3200400D01*
X152565100Y3200400D02*
X235762800Y3200400D01*
X235762800Y3200400D02*
X241147600Y-2184400D01*
X241147600Y-2184400D02*
X255130300Y-2184400D01*
X257314700Y0D02*
X266700000Y0D01*
X255130300Y-2184400D02*
X257314700Y0D01*
X129950000Y-104700000D02*
X129551500Y-104700000D01*
M02*
