<?xml version="1.0" standalone="no"?>
<!DOCTYPE svg PUBLIC "-//W3C//DTD SVG 1.0//EN" "http://www.w3.org/TR/2001/REC-SVG-20010904/DTD/svg10.dtd">
<svg xmlns="http://www.w3.org/2000/svg" xmlns:xlink="http://www.w3.org/1999/xlink" id="body_1" width="10" height="8">

<g transform="matrix(0.20000002 0 0 0.20000002 1 -0)">
	<g>
        <path d="M20 0C 15.269 0 11.429 4.032 11.429 9C 11.47 12.125999 13.083 14.768 14.762 17.281C 12.891 15.865 10.811 15.009 8.5714 15C 3.8399997 15 0 19.032 0 24C 0 28.968 3.84 33 8.5714 33C 12.403999 32.936 15.469999 30.254 18.481998 28C 17.942999 34.733 16.846998 38.514 10.475999 40L10.475999 40L29.523998 40C 23.152998 38.514 22.057 34.733 21.517998 28C 24.494997 30.552 27.617998 32.717 31.428997 33C 36.159996 33 39.999996 28.968 39.999996 24C 39.999996 19.032 36.159996 15 31.428997 15C 29.131996 15 27.147997 16.057 25.237997 17.281C 27.137997 14.794001 28.388996 12.111 28.570997 9C 28.570997 4.032 24.730997 0 19.999996 0L19.999996 0L20 0z" stroke="none" fill="#000000" fill-rule="nonzero" />
	</g>
</g>
</svg>