<?xml version="1.0" standalone="no"?>
<!DOCTYPE svg PUBLIC "-//W3C//DTD SVG 1.0//EN" "http://www.w3.org/TR/2001/REC-SVG-20010904/DTD/svg10.dtd">
<svg xmlns="http://www.w3.org/2000/svg" xmlns:xlink="http://www.w3.org/1999/xlink" id="body_1" width="10" height="10">

<defs>
    <linearGradient transform="matrix(1 0 0 1 0 0)"  id="1" x1="-0.09375" y1="0.066667" x2="0.48125" y2="0.57436">
        <stop stop-color="#FFFFFF" offset="0%"/>
        <stop stop-color="#FFFFFF" offset="100%"/>
    </linearGradient>
</defs>

<g transform="matrix(0.09345795 0 0 0.09345795 0 0)">
	<g transform="matrix(1 0 0 1 -296.25 7.5)">
		<g transform="matrix(1 0 0 1 62.596 -152.93)">
            <path d="M283.41 149.59C 272.46 168.20999 230.03 201.59999 255.53 211.72C 271.01 216.38 278.38 206.84 281.5 200.53L281.5 200.53L282.12 200.53C 282.1 201.72 281.55 229.91 279.91 231.28C 276.31 234.29 271.75 234.06 271.75 234.06L271.75 234.06L271.84 237.34L295.66 237.25L295.75 234C 295.75 234 291.22 234.2 287.62 231.19C 285.97998 229.81 285.4 201.67 285.38 200.5L285.38 200.5L285.62 200.5C 288.15 205.66 297.71 216.33 308.22998 212.27C 338.99 200.87001 292.75998 170.3 283.40997 149.59L283.40997 149.59L283.41 149.59z" stroke="#000000" stroke-width="1.25" fill="#000000" fill-rule="nonzero" />
		</g>
        <path d="M345.98 -3.1575C 335.03 15.462501 292.6 48.8505 318.1 58.9685C 333.58002 63.6255 340.95 54.0915 344.07 47.7805L344.07 47.7805L344.7 47.7805C 344.67 48.9675 344.12003 77.156494 342.48 78.5305C 338.88 81.5445 334.32 81.3115 334.32 81.3115L334.32 81.3115L334.42 84.5935L358.23 84.4995L358.32 81.2495C 358.32 81.2495 353.79 81.45049 350.2 78.43649C 348.56 77.06249 347.97 48.920494 347.95 47.749493L347.95 47.749493L348.2 47.749493C 350.72 52.906494 360.28 63.582493 370.80002 59.516495C 401.56003 48.119495 355.33002 17.551495 345.98 -3.157505L345.98 -3.157505L345.98 -3.1575z" stroke="none" fill="url(#1)" />
	</g>
</g>
</svg>