M48
; DRILL file {KiCad 5.1.5+dfsg1-2build2} date Sat 07 Nov 2020 01:55:26 AM EST
; FORMAT={-:-/ absolute / inch / decimal}
; #@! TF.CreationDate,2020-11-07T01:55:26-05:00
; #@! TF.GenerationSoftware,Kicad,Pcbnew,5.1.5+dfsg1-2build2
; #@! TF.FileFunction,NonPlated,1,2,NPTH
FMAT,2
INCH
T1C0.0669
T2C0.1201
T3C0.1260
T4C0.1575
%
G90
G05
T1
X9.45Y-2.824
X9.85Y-2.824
X9.3562Y-3.575
X9.7562Y-3.575
X10.3875Y-3.572
X10.7875Y-3.572
X8.1375Y-1.325
X8.5375Y-1.325
X5.7Y-2.824
X6.1Y-2.824
X7.0125Y-2.075
X7.4125Y-2.075
X3.075Y-0.2
X3.475Y-0.2
X1.3875Y-1.325
X1.7875Y-1.325
X2.7Y-2.824
X3.1Y-2.824
X6.2625Y-2.075
X6.6625Y-2.075
X2.1375Y-0.2
X2.5375Y-0.2
X3.45Y-2.824
X3.85Y-2.824
X4.575Y-3.572
X4.975Y-3.572
X10.2Y-2.075
X10.6Y-2.075
X1.7625Y-2.075
X2.1625Y-2.075
X0.075Y-2.824
X0.475Y-2.824
X6.45Y-2.824
X6.85Y-2.824
X6.45Y-0.2
X6.85Y-0.2
X10.2Y-0.2
X10.6Y-0.2
X4.95Y-2.824
X5.35Y-2.824
X3.6375Y-1.325
X4.0375Y-1.325
X5.5125Y-2.075
X5.9125Y-2.075
X7.575Y-3.572
X7.975Y-3.572
X5.8875Y-1.325
X6.2875Y-1.325
X5.1375Y-1.325
X5.5375Y-1.325
X3.075Y-3.572
X3.475Y-3.572
X7.7625Y-2.075
X8.1625Y-2.075
X6.6375Y-1.325
X7.0375Y-1.325
X2.1375Y-1.325
X2.5375Y-1.325
X7.95Y-2.824
X8.35Y-2.824
X9.6375Y-1.325
X10.0375Y-1.325
X6.825Y-3.572
X7.225Y-3.572
X2.8875Y-1.325
X3.2875Y-1.325
X8.5125Y-2.075
X8.9125Y-2.075
X6.075Y-3.572
X6.475Y-3.572
X4.2Y-2.824
X4.6Y-2.824
X8.325Y-3.572
X8.725Y-3.572
X10.2945Y-2.824
X10.6945Y-2.824
X7.3875Y-0.2
X7.7875Y-0.2
X8.8875Y-1.325
X9.2875Y-1.325
X1.95Y-2.824
X2.35Y-2.824
X4.0125Y-2.075
X4.4125Y-2.075
X5.325Y-3.572
X5.725Y-3.572
X10.3875Y-1.325
X10.7875Y-1.325
X4.7625Y-2.075
X5.1625Y-2.075
X9.2625Y-2.075
X9.6625Y-2.075
X4.8161Y-4.322
X5.2161Y-4.322
X7.2Y-2.824
X7.6Y-2.824
X3.825Y-3.572
X4.225Y-3.572
X2.325Y-3.572
X2.725Y-3.572
X0.6375Y-1.325
X1.0375Y-1.325
X7.3875Y-1.325
X7.7875Y-1.325
X2.5125Y-2.075
X2.9125Y-2.075
X-0.2062Y-1.325
X0.1938Y-1.325
X1.0125Y-2.075
X1.4125Y-2.075
X8.7Y-2.824
X9.1Y-2.824
X1.2Y-2.824
X1.6Y-2.824
X9.2625Y-0.2
X9.6625Y-0.2
X3.2625Y-2.075
X3.6625Y-2.075
X-0.0187Y-2.075
X0.3812Y-2.075
X8.325Y-0.2
X8.725Y-0.2
X1.575Y-3.572
X1.975Y-3.572
X0.3563Y-3.572
X0.7562Y-3.572
X4.3875Y-1.325
X4.7875Y-1.325
T2
X3.0476Y-4.0465
X6.9846Y-4.0465
X0.0877Y-3.2965
X1.0248Y-3.2965
X-0.1935Y-2.5484
X0.7435Y-2.5484
T3
X-0.7087Y0.1969
X11.2205Y-4.7244
X11.1811Y0.1969
X-0.7087Y-4.7244
T4
X1.9625Y-2.075
X-0.1935Y-3.1484
X0.275Y-2.824
X0.7435Y-3.1484
X6.65Y-2.824
X6.65Y-0.2
X10.4Y-0.2
X5.15Y-2.824
X3.8375Y-1.325
X5.7125Y-2.075
X7.775Y-3.572
X6.0875Y-1.325
X5.3375Y-1.325
X3.275Y-3.572
X7.9625Y-2.075
X6.8375Y-1.325
X2.3375Y-1.325
X8.15Y-2.824
X9.8375Y-1.325
X7.025Y-3.572
X3.0875Y-1.325
X8.7125Y-2.075
X6.275Y-3.572
X4.4Y-2.824
X8.525Y-3.572
X10.4945Y-2.824
X7.5875Y-0.2
X9.0875Y-1.325
X2.15Y-2.824
X4.2125Y-2.075
X5.525Y-3.572
X10.5875Y-1.325
X4.9625Y-2.075
X9.4625Y-2.075
X3.0476Y-4.6465
X5.0161Y-4.322
X6.9846Y-4.6465
X7.4Y-2.824
X4.025Y-3.572
X2.525Y-3.572
X0.8375Y-1.325
X7.5875Y-1.325
X2.7125Y-2.075
X-0.0062Y-1.325
X1.2125Y-2.075
X8.9Y-2.824
X1.4Y-2.824
X9.4625Y-0.2
X3.4625Y-2.075
X0.1812Y-2.075
X8.525Y-0.2
X1.775Y-3.572
X0.0877Y-3.8965
X0.5563Y-3.572
X1.0248Y-3.8965
X4.5875Y-1.325
X9.65Y-2.824
X9.5563Y-3.575
X10.5875Y-3.572
X8.3375Y-1.325
X5.9Y-2.824
X7.2125Y-2.075
X3.275Y-0.2
X1.5875Y-1.325
X2.9Y-2.824
X6.4625Y-2.075
X2.3375Y-0.2
X3.65Y-2.824
X4.775Y-3.572
X10.4Y-2.075
T0
M30
