G04 #@! TF.GenerationSoftware,KiCad,Pcbnew,5.1.5+dfsg1-2build2*
G04 #@! TF.CreationDate,2020-11-07T01:55:29-05:00*
G04 #@! TF.ProjectId,atari-keyboard,61746172-692d-46b6-9579-626f6172642e,rev?*
G04 #@! TF.SameCoordinates,Original*
G04 #@! TF.FileFunction,Copper,L1,Top*
G04 #@! TF.FilePolarity,Positive*
%FSLAX46Y46*%
G04 Gerber Fmt 4.6, Leading zero omitted, Abs format (unit mm)*
G04 Created by KiCad (PCBNEW 5.1.5+dfsg1-2build2) date 2020-11-07 01:55:29*
%MOMM*%
%LPD*%
G04 APERTURE LIST*
%ADD10C,2.200000*%
%ADD11O,1.800000X1.800000*%
%ADD12R,1.800000X1.800000*%
%ADD13R,1.600000X1.600000*%
%ADD14C,1.600000*%
%ADD15C,0.800000*%
%ADD16C,0.304800*%
G04 APERTURE END LIST*
D10*
X123600000Y-107240000D03*
X129950000Y-104700000D03*
X238918750Y-88265000D03*
X245268750Y-85725000D03*
X10318750Y-88190000D03*
X16668750Y-85650000D03*
X262750000Y-69190000D03*
X269100000Y-66650000D03*
X3175000Y-69190000D03*
X9525000Y-66650000D03*
X260350000Y-50165000D03*
X266700000Y-47625000D03*
X793750Y-50165000D03*
X7143750Y-47625000D03*
X-3968750Y-31115000D03*
X2381250Y-28575000D03*
X117475000Y-88190000D03*
X123825000Y-85650000D03*
X222250000Y-69190000D03*
X228600000Y-66650000D03*
X69850000Y-69190000D03*
X76200000Y-66650000D03*
X179387000Y-50165000D03*
X185737000Y-47625000D03*
X26987500Y-50165000D03*
X33337500Y-47625000D03*
X150812500Y-31115000D03*
X157162500Y-28575000D03*
X265112500Y-88190000D03*
X271462500Y-85650000D03*
X98425000Y-88190000D03*
X104775000Y-85650000D03*
X203200000Y-69190000D03*
X209550000Y-66650000D03*
X50800000Y-69190000D03*
X57150000Y-66650000D03*
X160337500Y-50165000D03*
X166687500Y-47625000D03*
X131762500Y-31115000D03*
X138112500Y-28575000D03*
X260350000Y-2540000D03*
X266700000Y0D03*
X79375000Y-88190000D03*
X85725000Y-85650000D03*
X184150000Y-69190000D03*
X190500000Y-66650000D03*
X31750000Y-69190000D03*
X38100000Y-66650000D03*
X141287500Y-50165000D03*
X147637500Y-47625000D03*
X265112500Y-31115000D03*
X271462500Y-28575000D03*
X112712500Y-31115000D03*
X119062500Y-28575000D03*
X236537500Y-2540000D03*
X242887500Y0D03*
X212725000Y-88190000D03*
X219075000Y-85650000D03*
X60325000Y-88190000D03*
X66675000Y-85650000D03*
X165100000Y-69190000D03*
X171450000Y-66650000D03*
X122237500Y-50165000D03*
X128587500Y-47625000D03*
X246062500Y-31115000D03*
X252412500Y-28575000D03*
X93662500Y-31115000D03*
X100012500Y-28575000D03*
X212725000Y-2540000D03*
X219075000Y0D03*
X193675000Y-88190000D03*
X200025000Y-85650000D03*
X41275000Y-88190000D03*
X47625000Y-85650000D03*
X146050000Y-69190000D03*
X152400000Y-66650000D03*
X103187500Y-50165000D03*
X109537500Y-47625000D03*
X227012500Y-31115000D03*
X233362500Y-28575000D03*
X74612500Y-31115000D03*
X80962500Y-28575000D03*
X188912500Y-2540000D03*
X195262500Y0D03*
X174625000Y-88190000D03*
X180975000Y-85650000D03*
X127000000Y-69190000D03*
X133350000Y-66650000D03*
X236537500Y-50165000D03*
X242887500Y-47625000D03*
X84137500Y-50165000D03*
X90487500Y-47625000D03*
X207962500Y-31115000D03*
X214312500Y-28575000D03*
X55562500Y-31115000D03*
X61912500Y-28575000D03*
X165100000Y-2540000D03*
X171450000Y0D03*
X155575000Y-88190000D03*
X161925000Y-85650000D03*
X107950000Y-69190000D03*
X114300000Y-66650000D03*
X217487500Y-50165000D03*
X223837500Y-47625000D03*
X65087500Y-50165000D03*
X71437500Y-47625000D03*
X188912500Y-31115000D03*
X195262500Y-28575000D03*
X36512500Y-31115000D03*
X42862500Y-28575000D03*
X79375000Y-2540000D03*
X85725000Y0D03*
X136525000Y-88190000D03*
X142875000Y-85650000D03*
X241300000Y-69190000D03*
X247650000Y-66650000D03*
X88900000Y-69190000D03*
X95250000Y-66650000D03*
X198437500Y-50165000D03*
X204787500Y-47625000D03*
X46037500Y-50165000D03*
X52387500Y-47625000D03*
X169862500Y-31115000D03*
X176212500Y-28575000D03*
X17462500Y-31115000D03*
X23812500Y-28575000D03*
X55562500Y-2540000D03*
X61912500Y0D03*
D11*
X113275000Y-106680000D03*
D12*
X113275000Y-114300000D03*
D11*
X130968750Y-87630000D03*
D12*
X130968750Y-95250000D03*
D11*
X235743750Y-68580000D03*
D12*
X235743750Y-76200000D03*
D11*
X83343750Y-68580000D03*
D12*
X83343750Y-76200000D03*
D11*
X192881250Y-49530000D03*
D12*
X192881250Y-57150000D03*
D11*
X40481250Y-49530000D03*
D12*
X40481250Y-57150000D03*
D11*
X164306250Y-30480000D03*
D12*
X164306250Y-38100000D03*
D11*
X11906250Y-30480000D03*
D12*
X11906250Y-38100000D03*
D11*
X278606250Y-87630000D03*
D12*
X278606250Y-95250000D03*
D11*
X111918750Y-87630000D03*
D12*
X111918750Y-95250000D03*
D11*
X216693750Y-68580000D03*
D12*
X216693750Y-76200000D03*
D11*
X64293750Y-68580000D03*
D12*
X64293750Y-76200000D03*
D11*
X173831250Y-49530000D03*
D12*
X173831250Y-57150000D03*
D11*
X21431250Y-49530000D03*
D12*
X21431250Y-57150000D03*
D11*
X145256250Y-30480000D03*
D12*
X145256250Y-38100000D03*
D11*
X147681250Y-2017500D03*
D12*
X147681250Y-9637500D03*
D11*
X259556250Y-87630000D03*
D12*
X259556250Y-95250000D03*
D11*
X92868750Y-87630000D03*
D12*
X92868750Y-95250000D03*
D11*
X197643750Y-68580000D03*
D12*
X197643750Y-76200000D03*
D11*
X45243750Y-68580000D03*
D12*
X45243750Y-76200000D03*
D11*
X154781250Y-49530000D03*
D12*
X154781250Y-57150000D03*
D11*
X278606250Y-30480000D03*
D12*
X278606250Y-38100000D03*
D11*
X126206250Y-30480000D03*
D12*
X126206250Y-38100000D03*
D11*
X140989580Y-2017500D03*
D12*
X140989580Y-9637500D03*
D11*
X226218750Y-87630000D03*
D12*
X226218750Y-95250000D03*
D11*
X73818750Y-87630000D03*
D12*
X73818750Y-95250000D03*
D11*
X178593750Y-68580000D03*
D12*
X178593750Y-76200000D03*
D11*
X26193750Y-68580000D03*
D12*
X26193750Y-76200000D03*
D11*
X135731250Y-49530000D03*
D12*
X135731250Y-57150000D03*
D11*
X259556250Y-30480000D03*
D12*
X259556250Y-38100000D03*
D11*
X107156250Y-30480000D03*
D12*
X107156250Y-38100000D03*
D11*
X134297914Y-2017500D03*
D12*
X134297914Y-9637500D03*
D11*
X207168750Y-87630000D03*
D12*
X207168750Y-95250000D03*
D11*
X54768750Y-87630000D03*
D12*
X54768750Y-95250000D03*
D11*
X159543750Y-68580000D03*
D12*
X159543750Y-76200000D03*
D11*
X278606250Y-49530000D03*
D12*
X278606250Y-57150000D03*
D11*
X116681250Y-49530000D03*
D12*
X116681250Y-57150000D03*
D11*
X240506250Y-30480000D03*
D12*
X240506250Y-38100000D03*
D11*
X88106250Y-30480000D03*
D12*
X88106250Y-38100000D03*
D11*
X127606248Y-2017500D03*
D12*
X127606248Y-9637500D03*
D11*
X188118750Y-87630000D03*
D12*
X188118750Y-95250000D03*
D11*
X35718750Y-87630000D03*
D12*
X35718750Y-95250000D03*
D11*
X140493750Y-68580000D03*
D12*
X140493750Y-76200000D03*
D11*
X250031250Y-49530000D03*
D12*
X250031250Y-57150000D03*
D11*
X97631250Y-49530000D03*
D12*
X97631250Y-57150000D03*
D11*
X221456250Y-30480000D03*
D12*
X221456250Y-38100000D03*
D11*
X69056250Y-30480000D03*
D12*
X69056250Y-38100000D03*
D11*
X120914582Y-2017500D03*
D12*
X120914582Y-9637500D03*
D11*
X169068750Y-87630000D03*
D12*
X169068750Y-95250000D03*
D11*
X278606250Y-68580000D03*
D12*
X278606250Y-76200000D03*
D11*
X121443750Y-68580000D03*
D12*
X121443750Y-76200000D03*
D11*
X230981250Y-49530000D03*
D12*
X230981250Y-57150000D03*
D11*
X78581250Y-49530000D03*
D12*
X78581250Y-57150000D03*
D11*
X202406250Y-30480000D03*
D12*
X202406250Y-38100000D03*
D11*
X50006250Y-30480000D03*
D12*
X50006250Y-38100000D03*
D11*
X114222916Y-2017500D03*
D12*
X114222916Y-9637500D03*
D11*
X150018750Y-87630000D03*
D12*
X150018750Y-95250000D03*
D11*
X254793750Y-68580000D03*
D12*
X254793750Y-76200000D03*
D11*
X102393750Y-68580000D03*
D12*
X102393750Y-76200000D03*
D11*
X211931250Y-49530000D03*
D12*
X211931250Y-57150000D03*
D11*
X59531250Y-49530000D03*
D12*
X59531250Y-57150000D03*
D11*
X183356250Y-30480000D03*
D12*
X183356250Y-38100000D03*
D11*
X30956250Y-30480000D03*
D12*
X30956250Y-38100000D03*
D11*
X107531250Y-2017500D03*
D12*
X107531250Y-9637500D03*
D13*
X-10920000Y-12795000D03*
D14*
X-8380000Y-12795000D03*
X-5840000Y-12795000D03*
X-3300000Y-12795000D03*
X-760000Y-12795000D03*
X1780000Y-12795000D03*
X4320000Y-12795000D03*
X6860000Y-12795000D03*
X9400000Y-12795000D03*
X11940000Y-12795000D03*
X14480000Y-12795000D03*
X17020000Y-12795000D03*
X17020000Y2445000D03*
X14480000Y2445000D03*
X11940000Y2445000D03*
X9400000Y2445000D03*
X6860000Y2445000D03*
X4320000Y2445000D03*
X1780000Y2445000D03*
X-760000Y2445000D03*
X-3300000Y2445000D03*
X-5840000Y2445000D03*
X-8380000Y2445000D03*
X-10920000Y2445000D03*
D15*
X14274800Y-38366700D03*
X183019700Y-44043600D03*
X42252900Y-43980100D03*
X23787100Y-59194700D03*
X215150027Y-78698790D03*
X89090500Y-19329400D03*
X255358900Y-98488500D03*
X146596100Y-14465300D03*
X149885400Y-115506500D03*
X69430900Y-63741300D03*
X27406600Y-62100189D03*
X71132700Y-82600800D03*
X150837900Y-42976721D03*
X179285900Y-61455300D03*
X221564200Y-60807600D03*
X-13639800Y-3492500D03*
X118643398Y-43103800D03*
X179374800Y-43189590D03*
X50596800Y-61290200D03*
X131965700Y-41732200D03*
X137350500Y-82524600D03*
X98640900Y-82257900D03*
X51930300Y-79032100D03*
X98691700Y-78828900D03*
X203136500Y-78422500D03*
X203415900Y-62128400D03*
X-15062200Y-4127500D03*
X812800Y-61252100D03*
X161061400Y-61366400D03*
X160375600Y-41643300D03*
X31216600Y-64147700D03*
X32029400Y-80264000D03*
X141693900Y-39687500D03*
X78901609Y-80413290D03*
X117754400Y-80695800D03*
X141706600Y-60426600D03*
X184289700Y-79273400D03*
X184594500Y-60055190D03*
X252793500Y-89293700D03*
X-18144930Y-62694889D03*
X-20199211Y-9906000D03*
X112877600Y-39725600D03*
X93433900Y-39738300D03*
X122059700Y-40792400D03*
X104174103Y-81448210D03*
X164960300Y-64084200D03*
X165214300Y-80289400D03*
X251460000Y-93649800D03*
X122529600Y-62334710D03*
X-18144930Y-68215725D03*
X-20449386Y-7028217D03*
X74701400Y-40843200D03*
X79540100Y-93408500D03*
X146113500Y-62382400D03*
X146304000Y-82537300D03*
X228422200Y-63144400D03*
X198907400Y-63080900D03*
X103479600Y-61582300D03*
X-16827498Y-2400300D03*
X-17392520Y-21577300D03*
X103162100Y-41455910D03*
X226949000Y-40995600D03*
X261023100Y-43091100D03*
X55676800Y-41757600D03*
X83743800Y-42062400D03*
X207975200Y-42265600D03*
X84569300Y-62496700D03*
X127330200Y-81267300D03*
X174637700Y-81483200D03*
X176339500Y-64300100D03*
X208610200Y-63896810D03*
X-17392520Y-22577301D03*
X-17589498Y-965200D03*
X126733300Y-63754000D03*
X236423200Y-42303700D03*
X36626800Y-45046900D03*
X188836300Y-43268900D03*
X217690700Y-43434000D03*
X107365800Y-60629800D03*
X108064300Y-79794100D03*
X157683200Y-79921100D03*
X189776100Y-62880810D03*
X263677400Y-59905900D03*
X217627514Y-59255090D03*
X-18186455Y-65179D03*
X-18681700Y-26212800D03*
X65138300Y-60490100D03*
X157632400Y-62877700D03*
X45770800Y-42329100D03*
X46062900Y-63106300D03*
X87985600Y-64897000D03*
X88684100Y-83362800D03*
X136410700Y-83426300D03*
X198348600Y-60007500D03*
X241833400Y-60185300D03*
X-18846800Y685800D03*
X-19237625Y-27128086D03*
X17475200Y-42265600D03*
X138734800Y-40919400D03*
X169951400Y-40805100D03*
X198437500Y-40881300D03*
D16*
X107531250Y-9637500D02*
X107531250Y-10211150D01*
X39999Y-11995001D02*
X-760000Y-12795000D01*
X392401Y-11642599D02*
X39999Y-11995001D01*
X106099801Y-11642599D02*
X392401Y-11642599D01*
X107531250Y-10211150D02*
X106099801Y-11642599D01*
X107531250Y-9637500D02*
X107531250Y-9817450D01*
X107711200Y-9637500D02*
X114222916Y-9637500D01*
X107531250Y-9817450D02*
X107711200Y-9637500D01*
X114222916Y-9637500D02*
X114450600Y-9637500D01*
X114450600Y-9637500D02*
X120914582Y-9637500D01*
X120914582Y-9637500D02*
X127606248Y-9637500D01*
X127606248Y-9637500D02*
X134297914Y-9637500D01*
X134297914Y-9637500D02*
X140989580Y-9637500D01*
X140989580Y-9637500D02*
X147681250Y-9637500D01*
X30956250Y-38100000D02*
X50006250Y-38100000D01*
X50006250Y-38100000D02*
X69056250Y-38100000D01*
X70261050Y-38100000D02*
X88106250Y-38100000D01*
X69056250Y-38100000D02*
X70261050Y-38100000D01*
X88106250Y-38100000D02*
X107156250Y-38100000D01*
X126206250Y-38100000D02*
X145256250Y-38100000D01*
X145256250Y-38100000D02*
X164306250Y-38100000D01*
X30956250Y-38100000D02*
X14541500Y-38100000D01*
X14541500Y-38100000D02*
X14274800Y-38366700D01*
X107156250Y-38100000D02*
X112348246Y-38100000D01*
X112859347Y-37588899D02*
X124490349Y-37588899D01*
X112348246Y-38100000D02*
X112859347Y-37588899D01*
X124490349Y-37588899D02*
X125001450Y-38100000D01*
X125001450Y-38100000D02*
X126206250Y-38100000D01*
X4320000Y-12930600D02*
X4320000Y-12795000D01*
X21431250Y-57150000D02*
X40481250Y-57150000D01*
X183356250Y-38100000D02*
X202406250Y-38100000D01*
X202406250Y-38100000D02*
X221456250Y-38100000D01*
X222661050Y-38100000D02*
X240506250Y-38100000D01*
X221456250Y-38100000D02*
X222661050Y-38100000D01*
X240506250Y-38100000D02*
X259556250Y-38100000D01*
X259556250Y-38100000D02*
X278606250Y-38100000D01*
X42291000Y-43942000D02*
X42252900Y-43980100D01*
X182918100Y-43942000D02*
X42291000Y-43942000D01*
X183019700Y-44043600D02*
X182918100Y-43942000D01*
X60736050Y-57150000D02*
X78581250Y-57150000D01*
X59531250Y-57150000D02*
X60736050Y-57150000D01*
X78581250Y-57150000D02*
X97631250Y-57150000D01*
X97631250Y-57150000D02*
X116681250Y-57150000D01*
X116681250Y-57150000D02*
X135731250Y-57150000D01*
X135731250Y-57150000D02*
X154781250Y-57150000D01*
X154781250Y-57150000D02*
X173831250Y-57150000D01*
X173831250Y-57150000D02*
X192881250Y-57150000D01*
X23825200Y-59232800D02*
X23787100Y-59194700D01*
X26276300Y-59232800D02*
X23825200Y-59232800D01*
X26314400Y-59270900D02*
X26276300Y-59232800D01*
X58615150Y-59270900D02*
X26314400Y-59270900D01*
X59531250Y-58354800D02*
X58615150Y-59270900D01*
X59531250Y-57150000D02*
X59531250Y-58354800D01*
X9400000Y-12795000D02*
X9569700Y-12795000D01*
X278606250Y-57150000D02*
X250031250Y-57150000D01*
X250031250Y-57150000D02*
X230981250Y-57150000D01*
X230981250Y-57150000D02*
X230981250Y-56534050D01*
X230365300Y-57150000D02*
X211931250Y-57150000D01*
X230981250Y-56534050D02*
X230365300Y-57150000D01*
X26193750Y-76200000D02*
X45243750Y-76200000D01*
X46012100Y-76200000D02*
X45243750Y-76200000D01*
X46448550Y-76200000D02*
X64293750Y-76200000D01*
X45243750Y-76200000D02*
X46448550Y-76200000D01*
X65498550Y-76200000D02*
X83343750Y-76200000D01*
X64293750Y-76200000D02*
X65498550Y-76200000D01*
X83343750Y-76200000D02*
X83343750Y-77404800D01*
X83343750Y-77404800D02*
X83391351Y-77452401D01*
X214750028Y-78298791D02*
X215150027Y-78698790D01*
X83391351Y-77452401D02*
X213903638Y-77452401D01*
X213903638Y-77452401D02*
X214750028Y-78298791D01*
X11940000Y-12795000D02*
X11906000Y-12795000D01*
X11906000Y-12795000D02*
X14693900Y-15582900D01*
X85344000Y-15582900D02*
X89090500Y-19329400D01*
X14693900Y-15582900D02*
X85344000Y-15582900D01*
X235743750Y-76200000D02*
X216693750Y-76200000D01*
X216693750Y-76200000D02*
X197643750Y-76200000D01*
X197643750Y-76200000D02*
X178593750Y-76200000D01*
X178593750Y-76200000D02*
X159543750Y-76200000D01*
X158338950Y-76200000D02*
X140493750Y-76200000D01*
X159543750Y-76200000D02*
X158338950Y-76200000D01*
X140493750Y-76200000D02*
X121443750Y-76200000D01*
X121443750Y-76200000D02*
X102393750Y-76200000D01*
X36923550Y-95250000D02*
X54768750Y-95250000D01*
X35718750Y-95250000D02*
X36923550Y-95250000D01*
X54768750Y-95250000D02*
X73818750Y-95250000D01*
X73818750Y-95250000D02*
X92868750Y-95250000D01*
X92868750Y-95250000D02*
X111918750Y-95250000D01*
X111918750Y-95250000D02*
X130968750Y-95250000D01*
X135412050Y-98488500D02*
X255358900Y-98488500D01*
X132173550Y-95250000D02*
X135412050Y-98488500D01*
X130968750Y-95250000D02*
X132173550Y-95250000D01*
X254793750Y-76200000D02*
X278606250Y-76200000D01*
X144925800Y-12795000D02*
X146596100Y-14465300D01*
X17020000Y-12795000D02*
X144925800Y-12795000D01*
X278606250Y-95250000D02*
X259556250Y-95250000D01*
X258351450Y-95250000D02*
X226218750Y-95250000D01*
X259556250Y-95250000D02*
X258351450Y-95250000D01*
X226218750Y-95250000D02*
X207168750Y-95250000D01*
X205963950Y-95250000D02*
X188118750Y-95250000D01*
X207168750Y-95250000D02*
X205963950Y-95250000D01*
X186913950Y-95250000D02*
X169068750Y-95250000D01*
X188118750Y-95250000D02*
X186913950Y-95250000D01*
X148678900Y-114300000D02*
X113275000Y-114300000D01*
X149885400Y-115506500D02*
X148678900Y-114300000D01*
X151223550Y-95250000D02*
X169068750Y-95250000D01*
X150018750Y-95250000D02*
X151223550Y-95250000D01*
X27972285Y-62100189D02*
X27406600Y-62100189D01*
X69430900Y-63741300D02*
X67789789Y-62100189D01*
X67789789Y-62100189D02*
X27972285Y-62100189D01*
X116375001Y-87090001D02*
X117475000Y-88190000D01*
X113482599Y-84197599D02*
X116375001Y-87090001D01*
X72729499Y-84197599D02*
X113482599Y-84197599D01*
X71132700Y-82600800D02*
X72729499Y-84197599D01*
X179285900Y-61455300D02*
X179685899Y-61055301D01*
X220750814Y-61055301D02*
X220998515Y-60807600D01*
X220998515Y-60807600D02*
X221564200Y-60807600D01*
X179685899Y-61055301D02*
X220750814Y-61055301D01*
X17020000Y2445000D02*
X11082500Y-3492500D01*
X-13074115Y-3492500D02*
X-13639800Y-3492500D01*
X11082500Y-3492500D02*
X-13074115Y-3492500D01*
X21399500Y-44577000D02*
X26987500Y-50165000D01*
X6245304Y-44577000D02*
X21399500Y-44577000D01*
X-3225800Y-35105896D02*
X6245304Y-44577000D01*
X-3225800Y-31857950D02*
X-3225800Y-35105896D01*
X-3968750Y-31115000D02*
X-3225800Y-31857950D01*
X150837900Y-42976721D02*
X118770477Y-42976721D01*
X118770477Y-42976721D02*
X118643398Y-43103800D01*
X150837900Y-42976721D02*
X179161931Y-42976721D01*
X179161931Y-42976721D02*
X179374800Y-43189590D01*
X793750Y-50165000D02*
X793750Y-50171350D01*
X98907600Y-82524600D02*
X98640900Y-82257900D01*
X137350500Y-82524600D02*
X98907600Y-82524600D01*
X98488500Y-79032100D02*
X98691700Y-78828900D01*
X51930300Y-79032100D02*
X98488500Y-79032100D01*
X203136500Y-78422500D02*
X203702185Y-78422500D01*
X203702185Y-78422500D02*
X207258185Y-81978500D01*
X258901000Y-81978500D02*
X265112500Y-88190000D01*
X207258185Y-81978500D02*
X258901000Y-81978500D01*
X9510802Y-2524198D02*
X-14024583Y-2524198D01*
X14480000Y2445000D02*
X9510802Y-2524198D01*
X-14024583Y-2524198D02*
X-15062200Y-3561815D01*
X-15062200Y-3561815D02*
X-15062200Y-4127500D01*
X850900Y-61290200D02*
X812800Y-61252100D01*
X50596800Y-61290200D02*
X850900Y-61290200D01*
X203415900Y-62128400D02*
X179726354Y-62128400D01*
X179726354Y-62128400D02*
X179554955Y-62299799D01*
X179554955Y-62299799D02*
X161994799Y-62299799D01*
X161994799Y-62299799D02*
X161461399Y-61766399D01*
X161461399Y-61766399D02*
X161061400Y-61366400D01*
X131965700Y-41732200D02*
X160286700Y-41732200D01*
X160286700Y-41732200D02*
X160375600Y-41643300D01*
X29921499Y-62852599D02*
X31216600Y-64147700D01*
X25412599Y-62852599D02*
X25095499Y-62852599D01*
X25095499Y-62852599D02*
X29921499Y-62852599D01*
X78752319Y-80264000D02*
X78901609Y-80413290D01*
X32029400Y-80264000D02*
X78752319Y-80264000D01*
X117754400Y-80695800D02*
X79184119Y-80695800D01*
X79184119Y-80695800D02*
X78901609Y-80413290D01*
X208763374Y-84197599D02*
X234851349Y-84197599D01*
X234851349Y-84197599D02*
X237818751Y-87165001D01*
X203839175Y-79273400D02*
X208763374Y-84197599D01*
X184289700Y-79273400D02*
X203839175Y-79273400D01*
X237818751Y-87165001D02*
X238918750Y-88265000D01*
X184028815Y-60055190D02*
X184594500Y-60055190D01*
X179972100Y-60055190D02*
X184028815Y-60055190D01*
X141706600Y-60426600D02*
X167830500Y-60426600D01*
X167843200Y-60439300D02*
X179587990Y-60439300D01*
X167830500Y-60426600D02*
X167843200Y-60439300D01*
X179587990Y-60439300D02*
X179972100Y-60055190D01*
X251764800Y-88265000D02*
X238918750Y-88265000D01*
X252793500Y-89293700D02*
X251764800Y-88265000D01*
X-17579245Y-62694889D02*
X-18144930Y-62694889D01*
X25095499Y-62852599D02*
X24937789Y-62694889D01*
X24937789Y-62694889D02*
X-17579245Y-62694889D01*
X-14376488Y-2019388D02*
X-20199211Y-7842111D01*
X-20199211Y-9340315D02*
X-20199211Y-9906000D01*
X-20199211Y-7842111D02*
X-20199211Y-9340315D01*
X7475612Y-2019388D02*
X-14376488Y-2019388D01*
X11940000Y2445000D02*
X7475612Y-2019388D01*
X141693900Y-39687500D02*
X112915700Y-39687500D01*
X112915700Y-39687500D02*
X112877600Y-39725600D01*
X54088100Y-81953100D02*
X60325000Y-88190000D01*
X27030404Y-81953100D02*
X54088100Y-81953100D01*
X20921704Y-75844400D02*
X27030404Y-81953100D01*
X7617846Y-75844400D02*
X20921704Y-75844400D01*
X4274999Y-72501553D02*
X7617846Y-75844400D01*
X4274999Y-70289999D02*
X4274999Y-72501553D01*
X3175000Y-69190000D02*
X4274999Y-70289999D01*
X103608418Y-81448210D02*
X104174103Y-81448210D01*
X60325000Y-88190000D02*
X67066790Y-81448210D01*
X67066790Y-81448210D02*
X103608418Y-81448210D01*
X210941866Y-87090001D02*
X211625001Y-87090001D01*
X211625001Y-87090001D02*
X212725000Y-88190000D01*
X204141265Y-80289400D02*
X210941866Y-87090001D01*
X165214300Y-80289400D02*
X204141265Y-80289400D01*
X212725000Y-89745634D02*
X212725000Y-88190000D01*
X212725000Y-90401554D02*
X212725000Y-89745634D01*
X215973246Y-93649800D02*
X212725000Y-90401554D01*
X251460000Y-93649800D02*
X215973246Y-93649800D01*
X-17170655Y-69190000D02*
X-17744931Y-68615724D01*
X-17744931Y-68615724D02*
X-18144930Y-68215725D01*
X3175000Y-69190000D02*
X-17170655Y-69190000D01*
X-19989799Y-6628218D02*
X-20049387Y-6628218D01*
X-14876159Y-1514578D02*
X-19989799Y-6628218D01*
X5440422Y-1514578D02*
X-14876159Y-1514578D01*
X9400000Y2445000D02*
X5440422Y-1514578D01*
X-20049387Y-6628218D02*
X-20449386Y-7028217D01*
X122501090Y-62306200D02*
X122529600Y-62334710D01*
X126910164Y-62306200D02*
X122501090Y-62306200D01*
X128688164Y-64084200D02*
X126910164Y-62306200D01*
X164960300Y-64084200D02*
X128688164Y-64084200D01*
X121970800Y-40703500D02*
X122059700Y-40792400D01*
X94399100Y-40703500D02*
X121970800Y-40703500D01*
X93433900Y-39738300D02*
X94399100Y-40703500D01*
X79540100Y-93408500D02*
X60820300Y-93408500D01*
X60820300Y-93408500D02*
X60502800Y-93726000D01*
X60502800Y-93726000D02*
X42811700Y-93726000D01*
X41275000Y-92189300D02*
X41275000Y-88190000D01*
X42811700Y-93726000D02*
X41275000Y-92189300D01*
X188022300Y-82537300D02*
X193675000Y-88190000D01*
X146304000Y-82537300D02*
X188022300Y-82537300D01*
X228422200Y-63144400D02*
X198970900Y-63144400D01*
X198970900Y-63144400D02*
X198907400Y-63080900D01*
X126974600Y-61582300D02*
X103479600Y-61582300D01*
X145313400Y-61582300D02*
X126974600Y-61582300D01*
X146113500Y-62382400D02*
X145313400Y-61582300D01*
X6860000Y2445000D02*
X3405233Y-1009767D01*
X-16427499Y-2000301D02*
X-16827498Y-2400300D01*
X3405233Y-1009767D02*
X-15436965Y-1009767D01*
X-15436965Y-1009767D02*
X-16427499Y-2000301D01*
X65074800Y-21577300D02*
X-17392520Y-21577300D01*
X74612500Y-31115000D02*
X65074800Y-21577300D01*
X102949389Y-41243199D02*
X103162100Y-41455910D01*
X74701400Y-40843200D02*
X75101399Y-41243199D01*
X75101399Y-41243199D02*
X102949389Y-41243199D01*
X226949000Y-40995600D02*
X236600064Y-40995600D01*
X236600064Y-40995600D02*
X238695564Y-43091100D01*
X238695564Y-43091100D02*
X261023100Y-43091100D01*
X83439000Y-41757600D02*
X83743800Y-42062400D01*
X55676800Y-41757600D02*
X83439000Y-41757600D01*
X236385100Y-42265600D02*
X236423200Y-42303700D01*
X207975200Y-42265600D02*
X236385100Y-42265600D01*
X174421800Y-81267300D02*
X174637700Y-81483200D01*
X127330200Y-81267300D02*
X174421800Y-81267300D01*
X176339500Y-64300100D02*
X208206910Y-64300100D01*
X208206910Y-64300100D02*
X208610200Y-63896810D01*
X55562500Y-31115000D02*
X47024801Y-22577301D01*
X47024801Y-22577301D02*
X-17392520Y-22577301D01*
X1370043Y-504957D02*
X-17129255Y-504957D01*
X4320000Y2445000D02*
X1370043Y-504957D01*
X-17129255Y-504957D02*
X-17189499Y-565201D01*
X-17189499Y-565201D02*
X-17589498Y-965200D01*
X84569300Y-62496700D02*
X85826600Y-63754000D01*
X85826600Y-63754000D02*
X126167615Y-63754000D01*
X126167615Y-63754000D02*
X126733300Y-63754000D01*
X79375000Y-2540000D02*
X79375000Y-2667000D01*
X2579999Y3244999D02*
X1780000Y2445000D01*
X2932401Y3597401D02*
X2579999Y3244999D01*
X17573153Y3597401D02*
X2932401Y3597401D01*
X28602955Y-7432401D02*
X17573153Y3597401D01*
X73973045Y-7432401D02*
X28602955Y-7432401D01*
X78738446Y-2667000D02*
X73973045Y-7432401D01*
X79375000Y-2667000D02*
X78738446Y-2667000D01*
X36626800Y-45046900D02*
X37109400Y-45529500D01*
X60452000Y-45529500D02*
X65087500Y-50165000D01*
X37109400Y-45529500D02*
X60452000Y-45529500D01*
X217525600Y-43268900D02*
X217690700Y-43434000D01*
X188836300Y-43268900D02*
X217525600Y-43268900D01*
X157556200Y-79794100D02*
X157683200Y-79921100D01*
X108064300Y-79794100D02*
X157556200Y-79794100D01*
X188595000Y-43268900D02*
X188468000Y-43395900D01*
X188836300Y-43268900D02*
X188595000Y-43268900D01*
X218193199Y-59255090D02*
X217627514Y-59255090D01*
X263026590Y-59255090D02*
X218193199Y-59255090D01*
X263677400Y-59905900D02*
X263026590Y-59255090D01*
X-17620770Y-65179D02*
X-18186455Y-65179D01*
X-17555591Y0D02*
X-17620770Y-65179D01*
X-665000Y0D02*
X-17555591Y0D01*
X1780000Y2445000D02*
X-665000Y0D01*
X-18116015Y-26212800D02*
X-18681700Y-26212800D01*
X31610300Y-26212800D02*
X-18116015Y-26212800D01*
X36512500Y-31115000D02*
X31610300Y-26212800D01*
X65151000Y-60477400D02*
X65138300Y-60490100D01*
X107213400Y-60477400D02*
X65151000Y-60477400D01*
X107365800Y-60629800D02*
X107213400Y-60477400D01*
X157657800Y-62903100D02*
X157632400Y-62877700D01*
X189753810Y-62903100D02*
X157657800Y-62903100D01*
X189776100Y-62880810D02*
X189753810Y-62903100D01*
X48796590Y4225910D02*
X1020910Y4225910D01*
X55562500Y-2540000D02*
X48796590Y4225910D01*
X1020910Y4225910D02*
X39999Y3244999D01*
X39999Y3244999D02*
X-760000Y2445000D01*
X57521154Y-64871600D02*
X87985600Y-64871600D01*
X55755854Y-63106300D02*
X57521154Y-64871600D01*
X46062900Y-63106300D02*
X55755854Y-63106300D01*
X87985600Y-64871600D02*
X87985600Y-64897000D01*
X136347200Y-83362800D02*
X136410700Y-83426300D01*
X88684100Y-83362800D02*
X136347200Y-83362800D01*
X198348600Y-60007500D02*
X240068100Y-60007500D01*
X240245900Y-60185300D02*
X241833400Y-60185300D01*
X240068100Y-60007500D02*
X240245900Y-60185300D01*
X-18255715Y711200D02*
X-18281115Y685800D01*
X-2493800Y711200D02*
X-18255715Y711200D01*
X-760000Y2445000D02*
X-2493800Y711200D01*
X-18281115Y685800D02*
X-18846800Y685800D01*
X-18665889Y-27122035D02*
X-18671940Y-27128086D01*
X17462500Y-31115000D02*
X13469535Y-27122035D01*
X-18671940Y-27128086D02*
X-19237625Y-27128086D01*
X13469535Y-27122035D02*
X-18665889Y-27122035D01*
X45770800Y-42329100D02*
X17538700Y-42329100D01*
X17538700Y-42329100D02*
X17475200Y-42265600D01*
X169951400Y-40805100D02*
X198361300Y-40805100D01*
X198361300Y-40805100D02*
X198437500Y-40881300D01*
X138734800Y-40919400D02*
X139134799Y-40519401D01*
X169385715Y-40805100D02*
X169951400Y-40805100D01*
X139134799Y-40519401D02*
X169100016Y-40519401D01*
X169100016Y-40519401D02*
X169385715Y-40805100D01*
X78984554Y0D02*
X63468134Y0D01*
X63468134Y0D02*
X61912500Y0D01*
X81002054Y-2017500D02*
X78984554Y0D01*
X107531250Y-2017500D02*
X81002054Y-2017500D01*
X29051250Y-28575000D02*
X30956250Y-30480000D01*
X23812500Y-28575000D02*
X29051250Y-28575000D01*
X181451250Y-28575000D02*
X183356250Y-30480000D01*
X176212500Y-28575000D02*
X181451250Y-28575000D01*
X57626250Y-47625000D02*
X59531250Y-49530000D01*
X52387500Y-47625000D02*
X57626250Y-47625000D01*
X210026250Y-47625000D02*
X211931250Y-49530000D01*
X204787500Y-47625000D02*
X210026250Y-47625000D01*
X100463750Y-66650000D02*
X102393750Y-68580000D01*
X95250000Y-66650000D02*
X100463750Y-66650000D01*
X252863750Y-66650000D02*
X254793750Y-68580000D01*
X247650000Y-66650000D02*
X252863750Y-66650000D01*
X148038750Y-85650000D02*
X150018750Y-87630000D01*
X142875000Y-85650000D02*
X148038750Y-85650000D01*
X112205416Y0D02*
X85725000Y0D01*
X114222916Y-2017500D02*
X112205416Y0D01*
X48101250Y-28575000D02*
X50222150Y-30695900D01*
X42862500Y-28575000D02*
X48101250Y-28575000D01*
X50222150Y-30695900D02*
X51295300Y-30695900D01*
X51279042Y-30480000D02*
X50006250Y-30480000D01*
X51295300Y-30496258D02*
X51279042Y-30480000D01*
X51295300Y-30695900D02*
X51295300Y-30496258D01*
X200501250Y-28575000D02*
X202190350Y-30264100D01*
X195262500Y-28575000D02*
X200501250Y-28575000D01*
X202190350Y-30264100D02*
X202406250Y-30480000D01*
X76676250Y-47625000D02*
X78784450Y-49733200D01*
X71437500Y-47625000D02*
X76676250Y-47625000D01*
X78784450Y-49733200D02*
X78581250Y-49530000D01*
X229076250Y-47625000D02*
X230981250Y-49530000D01*
X223837500Y-47625000D02*
X229076250Y-47625000D01*
X119513750Y-66650000D02*
X121443750Y-68580000D01*
X114300000Y-66650000D02*
X119513750Y-66650000D01*
X276676250Y-66650000D02*
X278606250Y-68580000D01*
X269100000Y-66650000D02*
X276676250Y-66650000D01*
X163905000Y-87630000D02*
X169068750Y-87630000D01*
X161925000Y-85650000D02*
X163905000Y-87630000D01*
X170350001Y1099999D02*
X171450000Y0D01*
X124032081Y1099999D02*
X170350001Y1099999D01*
X120914582Y-2017500D02*
X124032081Y1099999D01*
X67151250Y-28575000D02*
X69056250Y-30480000D01*
X61912500Y-28575000D02*
X67151250Y-28575000D01*
X219551250Y-28575000D02*
X221456250Y-30480000D01*
X214312500Y-28575000D02*
X219551250Y-28575000D01*
X95726250Y-47625000D02*
X97631250Y-49530000D01*
X90487500Y-47625000D02*
X95726250Y-47625000D01*
X250031250Y-49530000D02*
X250031250Y-49968150D01*
X247688100Y-47625000D02*
X242887500Y-47625000D01*
X250031250Y-49968150D02*
X247688100Y-47625000D01*
X138563750Y-66650000D02*
X140493750Y-68580000D01*
X133350000Y-66650000D02*
X138563750Y-66650000D01*
X33738750Y-85650000D02*
X36029900Y-87941150D01*
X16668750Y-85650000D02*
X33738750Y-85650000D01*
X36029900Y-87941150D02*
X35718750Y-87630000D01*
X186138750Y-85650000D02*
X188118750Y-87630000D01*
X180975000Y-85650000D02*
X186138750Y-85650000D01*
X186588400Y0D02*
X193706866Y0D01*
X178565189Y-8023211D02*
X186588400Y0D01*
X133611959Y-8023211D02*
X178565189Y-8023211D01*
X193706866Y0D02*
X195262500Y0D01*
X127606248Y-2017500D02*
X133611959Y-8023211D01*
X86201250Y-28575000D02*
X88106250Y-30480000D01*
X80962500Y-28575000D02*
X86201250Y-28575000D01*
X238601250Y-28575000D02*
X240506250Y-30480000D01*
X233362500Y-28575000D02*
X238601250Y-28575000D01*
X114776250Y-47625000D02*
X116681250Y-49530000D01*
X109537500Y-47625000D02*
X114776250Y-47625000D01*
X276701250Y-47625000D02*
X278606250Y-49530000D01*
X266700000Y-47625000D02*
X276701250Y-47625000D01*
X152400000Y-66650000D02*
X151904300Y-66650000D01*
X153834300Y-68580000D02*
X159543750Y-68580000D01*
X151904300Y-66650000D02*
X153834300Y-68580000D01*
X52788750Y-85650000D02*
X54768750Y-87630000D01*
X47625000Y-85650000D02*
X52788750Y-85650000D01*
X205188750Y-85650000D02*
X207168750Y-87630000D01*
X200025000Y-85650000D02*
X205188750Y-85650000D01*
X217975001Y1099999D02*
X219075000Y0D01*
X217017600Y2057400D02*
X217975001Y1099999D01*
X187883800Y2057400D02*
X217017600Y2057400D01*
X178308000Y-7518400D02*
X187883800Y2057400D01*
X139798814Y-7518400D02*
X178308000Y-7518400D01*
X134297914Y-2017500D02*
X139798814Y-7518400D01*
X101917500Y-30480000D02*
X107156250Y-30480000D01*
X100012500Y-28575000D02*
X101917500Y-30480000D01*
X257651250Y-28575000D02*
X260146800Y-31070550D01*
X252412500Y-28575000D02*
X257651250Y-28575000D01*
X133826250Y-47625000D02*
X135731250Y-49530000D01*
X128587500Y-47625000D02*
X133826250Y-47625000D01*
X24263750Y-66650000D02*
X26193750Y-68580000D01*
X9525000Y-66650000D02*
X24263750Y-66650000D01*
X176663750Y-66650000D02*
X178593750Y-68580000D01*
X171450000Y-66650000D02*
X176663750Y-66650000D01*
X71838750Y-85650000D02*
X73818750Y-87630000D01*
X66675000Y-85650000D02*
X71838750Y-85650000D01*
X224238750Y-85650000D02*
X226218750Y-87630000D01*
X219075000Y-85650000D02*
X224238750Y-85650000D01*
X124301250Y-28575000D02*
X126206250Y-30480000D01*
X119062500Y-28575000D02*
X124301250Y-28575000D01*
X276701250Y-28575000D02*
X278606250Y-30480000D01*
X271462500Y-28575000D02*
X276701250Y-28575000D01*
X149542500Y-49530000D02*
X154781250Y-49530000D01*
X147637500Y-47625000D02*
X149542500Y-49530000D01*
X43313750Y-66650000D02*
X45243750Y-68580000D01*
X38100000Y-66650000D02*
X43313750Y-66650000D01*
X192430000Y-68580000D02*
X197643750Y-68580000D01*
X190500000Y-66650000D02*
X192430000Y-68580000D01*
X90888750Y-85650000D02*
X92868750Y-87630000D01*
X85725000Y-85650000D02*
X90888750Y-85650000D01*
X245268750Y-85725000D02*
X250909854Y-85725000D01*
X250909854Y-85725000D02*
X252814854Y-87630000D01*
X252814854Y-87630000D02*
X258283458Y-87630000D01*
X258283458Y-87630000D02*
X259556250Y-87630000D01*
X140017500Y-30480000D02*
X145256250Y-30480000D01*
X138112500Y-28575000D02*
X140017500Y-30480000D01*
X9048750Y-49530000D02*
X21431250Y-49530000D01*
X7143750Y-47625000D02*
X9048750Y-49530000D01*
X171926250Y-47625000D02*
X174015400Y-49714150D01*
X166687500Y-47625000D02*
X171926250Y-47625000D01*
X174015400Y-49714150D02*
X173831250Y-49530000D01*
X62363750Y-66650000D02*
X64293750Y-68580000D01*
X57150000Y-66650000D02*
X62363750Y-66650000D01*
X209550000Y-66650000D02*
X209550000Y-67246500D01*
X210883500Y-68580000D02*
X216693750Y-68580000D01*
X209550000Y-67246500D02*
X210883500Y-68580000D01*
X109938750Y-85650000D02*
X111918750Y-87630000D01*
X104775000Y-85650000D02*
X109938750Y-85650000D01*
X273442500Y-87630000D02*
X278606250Y-87630000D01*
X271462500Y-85650000D02*
X273442500Y-87630000D01*
X162401250Y-28575000D02*
X164306250Y-30480000D01*
X157162500Y-28575000D02*
X162401250Y-28575000D01*
X35242500Y-49530000D02*
X40481250Y-49530000D01*
X33337500Y-47625000D02*
X35242500Y-49530000D01*
X191981251Y-48630001D02*
X192881250Y-49530000D01*
X190976250Y-47625000D02*
X191981251Y-48630001D01*
X185737000Y-47625000D02*
X190976250Y-47625000D01*
X81413750Y-66650000D02*
X83343750Y-68580000D01*
X76200000Y-66650000D02*
X81413750Y-66650000D01*
X233813750Y-66650000D02*
X235743750Y-68580000D01*
X228600000Y-66650000D02*
X233813750Y-66650000D01*
X123825000Y-85650000D02*
X123825000Y-86029800D01*
X125425200Y-87630000D02*
X130968750Y-87630000D01*
X123825000Y-86029800D02*
X125425200Y-87630000D01*
X115255000Y-104700000D02*
X113275000Y-106680000D01*
X129950000Y-104700000D02*
X115255000Y-104700000D01*
M02*
