%TF.GenerationSoftware,KiCad,Pcbnew,6.0.7-f9a2dced07~116~ubuntu22.04.1*%
%TF.CreationDate,2022-08-13T16:20:35-04:00*%
%TF.ProjectId,atari-keyboard,61746172-692d-46b6-9579-626f6172642e,rev?*%
%TF.SameCoordinates,Original*%
%TF.FileFunction,Drillmap*%
%TF.FilePolarity,Positive*%
%FSLAX45Y45*%
G04 Gerber Fmt 4.5, Leading zero omitted, Abs format (unit mm)*
G04 Created by KiCad (PCBNEW 6.0.7-f9a2dced07~116~ubuntu22.04.1) date 2022-08-13 16:20:35*
%MOMM*%
%LPD*%
G01*
G04 APERTURE LIST*
%ADD10C,0.050000*%
%ADD11C,0.200000*%
%ADD12C,0.040000*%
%ADD13C,0.070000*%
%ADD14C,0.090000*%
%ADD15C,0.100000*%
%ADD16C,0.109220*%
%ADD17C,0.150000*%
%ADD18C,0.320000*%
G04 APERTURE END LIST*
D10*
X6100000Y-17775000D02*
X6100000Y-31075000D01*
X38700000Y-17775000D02*
X38700000Y-31075000D01*
X6100000Y-17775000D02*
X38700000Y-17775000D01*
X38700000Y-31075000D02*
X6100000Y-31075000D01*
D11*
D12*
X9192180Y-21124670D02*
X9232180Y-21164670D01*
X9232180Y-21124670D02*
X9192180Y-21164670D01*
X9842970Y-19634940D02*
X9882970Y-19674940D01*
X9882970Y-19634940D02*
X9842970Y-19674940D01*
X11190060Y-22275350D02*
X11230060Y-22315350D01*
X11230060Y-22275350D02*
X11190060Y-22315350D01*
X16487460Y-23530100D02*
X16527460Y-23570100D01*
X16527460Y-23530100D02*
X16487460Y-23570100D01*
X17879760Y-27070640D02*
X17919760Y-27110640D01*
X17919760Y-27070640D02*
X17879760Y-27110640D01*
X18804400Y-23501760D02*
X18844400Y-23541760D01*
X18844400Y-23501760D02*
X18804400Y-23541760D01*
X23992320Y-24431540D02*
X24032320Y-24471540D01*
X24032320Y-24431540D02*
X23992320Y-24471540D01*
X24160300Y-22369960D02*
X24200300Y-22409960D01*
X24200300Y-22369960D02*
X24160300Y-22409960D01*
X24539940Y-22419410D02*
X24579940Y-22459410D01*
X24579940Y-22419410D02*
X24539940Y-22459410D01*
X25347480Y-24281610D02*
X25387480Y-24321610D01*
X25387480Y-24281610D02*
X25347480Y-24321610D01*
X36470160Y-21466630D02*
X36510160Y-21506630D01*
X36510160Y-21466630D02*
X36470160Y-21506630D01*
X37905460Y-22398500D02*
X37945460Y-22438500D01*
X37945460Y-22398500D02*
X37905460Y-22438500D01*
D13*
X7716000Y-18281000D02*
G75*
G03*
X7716000Y-18281000I-35000J0D01*
G01*
X8224000Y-18281000D02*
G75*
G03*
X8224000Y-18281000I-35000J0D01*
G01*
D14*
X7112000Y-18116000D02*
X7112000Y-18206000D01*
X7067000Y-18161000D02*
X7157000Y-18161000D01*
X7366000Y-18116000D02*
X7366000Y-18206000D01*
X7321000Y-18161000D02*
X7411000Y-18161000D01*
X9513750Y-21678000D02*
X9513750Y-21768000D01*
X9468750Y-21723000D02*
X9558750Y-21723000D01*
X9513750Y-22440000D02*
X9513750Y-22530000D01*
X9468750Y-22485000D02*
X9558750Y-22485000D01*
X10466250Y-23583000D02*
X10466250Y-23673000D01*
X10421250Y-23628000D02*
X10511250Y-23628000D01*
X10466250Y-24345000D02*
X10466250Y-24435000D01*
X10421250Y-24390000D02*
X10511250Y-24390000D01*
X10942500Y-25488000D02*
X10942500Y-25578000D01*
X10897500Y-25533000D02*
X10987500Y-25533000D01*
X10942500Y-26250000D02*
X10942500Y-26340000D01*
X10897500Y-26295000D02*
X10987500Y-26295000D01*
X11418750Y-21678000D02*
X11418750Y-21768000D01*
X11373750Y-21723000D02*
X11463750Y-21723000D01*
X11418750Y-22440000D02*
X11418750Y-22530000D01*
X11373750Y-22485000D02*
X11463750Y-22485000D01*
X11895000Y-27393000D02*
X11895000Y-27483000D01*
X11850000Y-27438000D02*
X11940000Y-27438000D01*
X11895000Y-28155000D02*
X11895000Y-28245000D01*
X11850000Y-28200000D02*
X11940000Y-28200000D01*
X12371250Y-23583000D02*
X12371250Y-23673000D01*
X12326250Y-23628000D02*
X12416250Y-23628000D01*
X12371250Y-24345000D02*
X12371250Y-24435000D01*
X12326250Y-24390000D02*
X12416250Y-24390000D01*
X12847500Y-25488000D02*
X12847500Y-25578000D01*
X12802500Y-25533000D02*
X12892500Y-25533000D01*
X12847500Y-26250000D02*
X12847500Y-26340000D01*
X12802500Y-26295000D02*
X12892500Y-26295000D01*
X13323750Y-21678000D02*
X13323750Y-21768000D01*
X13278750Y-21723000D02*
X13368750Y-21723000D01*
X13323750Y-22440000D02*
X13323750Y-22530000D01*
X13278750Y-22485000D02*
X13368750Y-22485000D01*
X13561880Y-29223070D02*
X13561880Y-29313070D01*
X13516880Y-29268070D02*
X13606880Y-29268070D01*
X13561880Y-29985070D02*
X13561880Y-30075070D01*
X13516880Y-30030070D02*
X13606880Y-30030070D01*
X13800000Y-27393000D02*
X13800000Y-27483000D01*
X13755000Y-27438000D02*
X13845000Y-27438000D01*
X13800000Y-28155000D02*
X13800000Y-28245000D01*
X13755000Y-28200000D02*
X13845000Y-28200000D01*
X14276250Y-23583000D02*
X14276250Y-23673000D01*
X14231250Y-23628000D02*
X14321250Y-23628000D01*
X14276250Y-24345000D02*
X14276250Y-24435000D01*
X14231250Y-24390000D02*
X14321250Y-24390000D01*
X14752500Y-25488000D02*
X14752500Y-25578000D01*
X14707500Y-25533000D02*
X14797500Y-25533000D01*
X14752500Y-26250000D02*
X14752500Y-26340000D01*
X14707500Y-26295000D02*
X14797500Y-26295000D01*
X15228750Y-21678000D02*
X15228750Y-21768000D01*
X15183750Y-21723000D02*
X15273750Y-21723000D01*
X15228750Y-22440000D02*
X15228750Y-22530000D01*
X15183750Y-22485000D02*
X15273750Y-22485000D01*
X15705000Y-27393000D02*
X15705000Y-27483000D01*
X15660000Y-27438000D02*
X15750000Y-27438000D01*
X15705000Y-28155000D02*
X15705000Y-28245000D01*
X15660000Y-28200000D02*
X15750000Y-28200000D01*
X16181250Y-23583000D02*
X16181250Y-23673000D01*
X16136250Y-23628000D02*
X16226250Y-23628000D01*
X16181250Y-24345000D02*
X16181250Y-24435000D01*
X16136250Y-24390000D02*
X16226250Y-24390000D01*
X16334870Y-18813000D02*
X16334870Y-18903000D01*
X16289870Y-18858000D02*
X16379870Y-18858000D01*
X16334870Y-19575000D02*
X16334870Y-19665000D01*
X16289870Y-19620000D02*
X16379870Y-19620000D01*
X16657500Y-25488000D02*
X16657500Y-25578000D01*
X16612500Y-25533000D02*
X16702500Y-25533000D01*
X16657500Y-26250000D02*
X16657500Y-26340000D01*
X16612500Y-26295000D02*
X16702500Y-26295000D01*
X17133750Y-21678000D02*
X17133750Y-21768000D01*
X17088750Y-21723000D02*
X17178750Y-21723000D01*
X17133750Y-22440000D02*
X17133750Y-22530000D01*
X17088750Y-22485000D02*
X17178750Y-22485000D01*
X17610000Y-27393000D02*
X17610000Y-27483000D01*
X17565000Y-27438000D02*
X17655000Y-27438000D01*
X17610000Y-28155000D02*
X17610000Y-28245000D01*
X17565000Y-28200000D02*
X17655000Y-28200000D01*
X18086250Y-23583000D02*
X18086250Y-23673000D01*
X18041250Y-23628000D02*
X18131250Y-23628000D01*
X18086250Y-24345000D02*
X18086250Y-24435000D01*
X18041250Y-24390000D02*
X18131250Y-24390000D01*
X18562500Y-25488000D02*
X18562500Y-25578000D01*
X18517500Y-25533000D02*
X18607500Y-25533000D01*
X18562500Y-26250000D02*
X18562500Y-26340000D01*
X18517500Y-26295000D02*
X18607500Y-26295000D01*
X18952870Y-18813000D02*
X18952870Y-18903000D01*
X18907870Y-18858000D02*
X18997870Y-18858000D01*
X18952870Y-19575000D02*
X18952870Y-19665000D01*
X18907870Y-19620000D02*
X18997870Y-19620000D01*
X19038750Y-21678000D02*
X19038750Y-21768000D01*
X18993750Y-21723000D02*
X19083750Y-21723000D01*
X19038750Y-22440000D02*
X19038750Y-22530000D01*
X18993750Y-22485000D02*
X19083750Y-22485000D01*
X19515000Y-27393000D02*
X19515000Y-27483000D01*
X19470000Y-27438000D02*
X19560000Y-27438000D01*
X19515000Y-28155000D02*
X19515000Y-28245000D01*
X19470000Y-28200000D02*
X19560000Y-28200000D01*
X19650630Y-29298000D02*
X19650630Y-29388000D01*
X19605630Y-29343000D02*
X19695630Y-29343000D01*
X19650630Y-30060000D02*
X19650630Y-30150000D01*
X19605630Y-30105000D02*
X19695630Y-30105000D01*
X19991250Y-23583000D02*
X19991250Y-23673000D01*
X19946250Y-23628000D02*
X20036250Y-23628000D01*
X19991250Y-24345000D02*
X19991250Y-24435000D01*
X19946250Y-24390000D02*
X20036250Y-24390000D01*
X20467500Y-25488000D02*
X20467500Y-25578000D01*
X20422500Y-25533000D02*
X20512500Y-25533000D01*
X20467500Y-26250000D02*
X20467500Y-26340000D01*
X20422500Y-26295000D02*
X20512500Y-26295000D01*
X20943750Y-21678000D02*
X20943750Y-21768000D01*
X20898750Y-21723000D02*
X20988750Y-21723000D01*
X20943750Y-22440000D02*
X20943750Y-22530000D01*
X20898750Y-22485000D02*
X20988750Y-22485000D01*
X21332870Y-18813000D02*
X21332870Y-18903000D01*
X21287870Y-18858000D02*
X21377870Y-18858000D01*
X21332870Y-19575000D02*
X21332870Y-19665000D01*
X21287870Y-19620000D02*
X21377870Y-19620000D01*
X21420000Y-27393000D02*
X21420000Y-27483000D01*
X21375000Y-27438000D02*
X21465000Y-27438000D01*
X21420000Y-28155000D02*
X21420000Y-28245000D01*
X21375000Y-28200000D02*
X21465000Y-28200000D01*
X21896250Y-23583000D02*
X21896250Y-23673000D01*
X21851250Y-23628000D02*
X21941250Y-23628000D01*
X21896250Y-24345000D02*
X21896250Y-24435000D01*
X21851250Y-24390000D02*
X21941250Y-24390000D01*
X22372500Y-25488000D02*
X22372500Y-25578000D01*
X22327500Y-25533000D02*
X22417500Y-25533000D01*
X22372500Y-26250000D02*
X22372500Y-26340000D01*
X22327500Y-26295000D02*
X22417500Y-26295000D01*
X22848750Y-21678000D02*
X22848750Y-21768000D01*
X22803750Y-21723000D02*
X22893750Y-21723000D01*
X22848750Y-22440000D02*
X22848750Y-22530000D01*
X22803750Y-22485000D02*
X22893750Y-22485000D01*
X23325000Y-27393000D02*
X23325000Y-27483000D01*
X23280000Y-27438000D02*
X23370000Y-27438000D01*
X23325000Y-28155000D02*
X23325000Y-28245000D01*
X23280000Y-28200000D02*
X23370000Y-28200000D01*
X23801250Y-23583000D02*
X23801250Y-23673000D01*
X23756250Y-23628000D02*
X23846250Y-23628000D01*
X23801250Y-24345000D02*
X23801250Y-24435000D01*
X23756250Y-24390000D02*
X23846250Y-24390000D01*
X23807750Y-18820000D02*
X23807750Y-18910000D01*
X23762750Y-18865000D02*
X23852750Y-18865000D01*
X23807750Y-19582000D02*
X23807750Y-19672000D01*
X23762750Y-19627000D02*
X23852750Y-19627000D01*
X24277500Y-25488000D02*
X24277500Y-25578000D01*
X24232500Y-25533000D02*
X24322500Y-25533000D01*
X24277500Y-26250000D02*
X24277500Y-26340000D01*
X24232500Y-26295000D02*
X24322500Y-26295000D01*
X24753750Y-21678000D02*
X24753750Y-21768000D01*
X24708750Y-21723000D02*
X24798750Y-21723000D01*
X24753750Y-22440000D02*
X24753750Y-22530000D01*
X24708750Y-22485000D02*
X24798750Y-22485000D01*
X25230000Y-27393000D02*
X25230000Y-27483000D01*
X25185000Y-27438000D02*
X25275000Y-27438000D01*
X25230000Y-28155000D02*
X25230000Y-28245000D01*
X25185000Y-28200000D02*
X25275000Y-28200000D01*
X25706250Y-23583000D02*
X25706250Y-23673000D01*
X25661250Y-23628000D02*
X25751250Y-23628000D01*
X25706250Y-24345000D02*
X25706250Y-24435000D01*
X25661250Y-24390000D02*
X25751250Y-24390000D01*
X26182500Y-25488000D02*
X26182500Y-25578000D01*
X26137500Y-25533000D02*
X26227500Y-25533000D01*
X26182500Y-26250000D02*
X26182500Y-26340000D01*
X26137500Y-26295000D02*
X26227500Y-26295000D01*
X26187750Y-18820000D02*
X26187750Y-18910000D01*
X26142750Y-18865000D02*
X26232750Y-18865000D01*
X26187750Y-19582000D02*
X26187750Y-19672000D01*
X26142750Y-19627000D02*
X26232750Y-19627000D01*
X26658750Y-21678000D02*
X26658750Y-21768000D01*
X26613750Y-21723000D02*
X26703750Y-21723000D01*
X26658750Y-22440000D02*
X26658750Y-22530000D01*
X26613750Y-22485000D02*
X26703750Y-22485000D01*
X27135000Y-27393000D02*
X27135000Y-27483000D01*
X27090000Y-27438000D02*
X27180000Y-27438000D01*
X27135000Y-28155000D02*
X27135000Y-28245000D01*
X27090000Y-28200000D02*
X27180000Y-28200000D01*
X27611250Y-23583000D02*
X27611250Y-23673000D01*
X27566250Y-23628000D02*
X27656250Y-23628000D01*
X27611250Y-24345000D02*
X27611250Y-24435000D01*
X27566250Y-24390000D02*
X27656250Y-24390000D01*
X28087500Y-25488000D02*
X28087500Y-25578000D01*
X28042500Y-25533000D02*
X28132500Y-25533000D01*
X28087500Y-26250000D02*
X28087500Y-26340000D01*
X28042500Y-26295000D02*
X28132500Y-26295000D01*
X28563750Y-21678000D02*
X28563750Y-21768000D01*
X28518750Y-21723000D02*
X28608750Y-21723000D01*
X28563750Y-22440000D02*
X28563750Y-22530000D01*
X28518750Y-22485000D02*
X28608750Y-22485000D01*
X28567750Y-18820000D02*
X28567750Y-18910000D01*
X28522750Y-18865000D02*
X28612750Y-18865000D01*
X28567750Y-19582000D02*
X28567750Y-19672000D01*
X28522750Y-19627000D02*
X28612750Y-19627000D01*
X29040000Y-27393000D02*
X29040000Y-27483000D01*
X28995000Y-27438000D02*
X29085000Y-27438000D01*
X29040000Y-28155000D02*
X29040000Y-28245000D01*
X28995000Y-28200000D02*
X29085000Y-28200000D01*
X29516250Y-23583000D02*
X29516250Y-23673000D01*
X29471250Y-23628000D02*
X29561250Y-23628000D01*
X29516250Y-24345000D02*
X29516250Y-24435000D01*
X29471250Y-24390000D02*
X29561250Y-24390000D01*
X29992500Y-25488000D02*
X29992500Y-25578000D01*
X29947500Y-25533000D02*
X30037500Y-25533000D01*
X29992500Y-26250000D02*
X29992500Y-26340000D01*
X29947500Y-26295000D02*
X30037500Y-26295000D01*
X30468750Y-21678000D02*
X30468750Y-21768000D01*
X30423750Y-21723000D02*
X30513750Y-21723000D01*
X30468750Y-22440000D02*
X30468750Y-22530000D01*
X30423750Y-22485000D02*
X30513750Y-22485000D01*
X30945000Y-27393000D02*
X30945000Y-27483000D01*
X30900000Y-27438000D02*
X30990000Y-27438000D01*
X30945000Y-28155000D02*
X30945000Y-28245000D01*
X30900000Y-28200000D02*
X30990000Y-28200000D01*
X30947750Y-18820000D02*
X30947750Y-18910000D01*
X30902750Y-18865000D02*
X30992750Y-18865000D01*
X30947750Y-19582000D02*
X30947750Y-19672000D01*
X30902750Y-19627000D02*
X30992750Y-19627000D01*
X31421250Y-23583000D02*
X31421250Y-23673000D01*
X31376250Y-23628000D02*
X31466250Y-23628000D01*
X31421250Y-24345000D02*
X31421250Y-24435000D01*
X31376250Y-24390000D02*
X31466250Y-24390000D01*
X31897500Y-25488000D02*
X31897500Y-25578000D01*
X31852500Y-25533000D02*
X31942500Y-25533000D01*
X31897500Y-26250000D02*
X31897500Y-26340000D01*
X31852500Y-26295000D02*
X31942500Y-26295000D01*
X32373750Y-21678000D02*
X32373750Y-21768000D01*
X32328750Y-21723000D02*
X32418750Y-21723000D01*
X32373750Y-22440000D02*
X32373750Y-22530000D01*
X32328750Y-22485000D02*
X32418750Y-22485000D01*
X33326250Y-23583000D02*
X33326250Y-23673000D01*
X33281250Y-23628000D02*
X33371250Y-23628000D01*
X33326250Y-24345000D02*
X33326250Y-24435000D01*
X33281250Y-24390000D02*
X33371250Y-24390000D01*
X33327750Y-18825000D02*
X33327750Y-18915000D01*
X33282750Y-18870000D02*
X33372750Y-18870000D01*
X33327750Y-19587000D02*
X33327750Y-19677000D01*
X33282750Y-19632000D02*
X33372750Y-19632000D01*
X33802500Y-25488000D02*
X33802500Y-25578000D01*
X33757500Y-25533000D02*
X33847500Y-25533000D01*
X33802500Y-26250000D02*
X33802500Y-26340000D01*
X33757500Y-26295000D02*
X33847500Y-26295000D01*
X34265130Y-29248470D02*
X34265130Y-29338470D01*
X34220130Y-29293470D02*
X34310130Y-29293470D01*
X34265130Y-30010470D02*
X34265130Y-30100470D01*
X34220130Y-30055470D02*
X34310130Y-30055470D01*
X34278750Y-27393000D02*
X34278750Y-27483000D01*
X34233750Y-27438000D02*
X34323750Y-27438000D01*
X34278750Y-28155000D02*
X34278750Y-28245000D01*
X34233750Y-28200000D02*
X34323750Y-28200000D01*
X35707750Y-18822000D02*
X35707750Y-18912000D01*
X35662750Y-18867000D02*
X35752750Y-18867000D01*
X35707750Y-19584000D02*
X35707750Y-19674000D01*
X35662750Y-19629000D02*
X35752750Y-19629000D01*
X36169130Y-27393000D02*
X36169130Y-27483000D01*
X36124130Y-27438000D02*
X36214130Y-27438000D01*
X36169130Y-28155000D02*
X36169130Y-28245000D01*
X36124130Y-28200000D02*
X36214130Y-28200000D01*
X36169130Y-29248470D02*
X36169130Y-29338470D01*
X36124130Y-29293470D02*
X36214130Y-29293470D01*
X36169130Y-30010470D02*
X36169130Y-30100470D01*
X36124130Y-30055470D02*
X36214130Y-30055470D01*
X36183750Y-21676000D02*
X36183750Y-21766000D01*
X36138750Y-21721000D02*
X36228750Y-21721000D01*
X36183750Y-22438000D02*
X36183750Y-22528000D01*
X36138750Y-22483000D02*
X36228750Y-22483000D01*
X36183750Y-23583000D02*
X36183750Y-23673000D01*
X36138750Y-23628000D02*
X36228750Y-23628000D01*
X36183750Y-24345000D02*
X36183750Y-24435000D01*
X36138750Y-24390000D02*
X36228750Y-24390000D01*
X36183750Y-25488000D02*
X36183750Y-25578000D01*
X36138750Y-25533000D02*
X36228750Y-25533000D01*
X36183750Y-26250000D02*
X36183750Y-26340000D01*
X36138750Y-26295000D02*
X36228750Y-26295000D01*
X36322000Y-19894000D02*
X36322000Y-19984000D01*
X36277000Y-19939000D02*
X36367000Y-19939000D01*
X36322000Y-20656000D02*
X36322000Y-20746000D01*
X36277000Y-20701000D02*
X36367000Y-20701000D01*
X36327600Y-18420800D02*
X36327600Y-18510800D01*
X36282600Y-18465800D02*
X36372600Y-18465800D01*
X36327600Y-19182800D02*
X36327600Y-19272800D01*
X36282600Y-19227800D02*
X36372600Y-19227800D01*
X36672000Y-19894000D02*
X36672000Y-19984000D01*
X36627000Y-19939000D02*
X36717000Y-19939000D01*
X36672000Y-20656000D02*
X36672000Y-20746000D01*
X36627000Y-20701000D02*
X36717000Y-20701000D01*
X36677600Y-18420800D02*
X36677600Y-18510800D01*
X36632600Y-18465800D02*
X36722600Y-18465800D01*
X36677600Y-19182800D02*
X36677600Y-19272800D01*
X36632600Y-19227800D02*
X36722600Y-19227800D01*
X37022000Y-19894000D02*
X37022000Y-19984000D01*
X36977000Y-19939000D02*
X37067000Y-19939000D01*
X37022000Y-20656000D02*
X37022000Y-20746000D01*
X36977000Y-20701000D02*
X37067000Y-20701000D01*
X37027600Y-18420800D02*
X37027600Y-18510800D01*
X36982600Y-18465800D02*
X37072600Y-18465800D01*
X37027600Y-19182800D02*
X37027600Y-19272800D01*
X36982600Y-19227800D02*
X37072600Y-19227800D01*
X37372000Y-19894000D02*
X37372000Y-19984000D01*
X37327000Y-19939000D02*
X37417000Y-19939000D01*
X37372000Y-20656000D02*
X37372000Y-20746000D01*
X37327000Y-20701000D02*
X37417000Y-20701000D01*
X37377600Y-18420800D02*
X37377600Y-18510800D01*
X37332600Y-18465800D02*
X37422600Y-18465800D01*
X37377600Y-19182800D02*
X37377600Y-19272800D01*
X37332600Y-19227800D02*
X37422600Y-19227800D01*
X37722000Y-19894000D02*
X37722000Y-19984000D01*
X37677000Y-19939000D02*
X37767000Y-19939000D01*
X37722000Y-20656000D02*
X37722000Y-20746000D01*
X37677000Y-20701000D02*
X37767000Y-20701000D01*
X37727600Y-18420800D02*
X37727600Y-18510800D01*
X37682600Y-18465800D02*
X37772600Y-18465800D01*
X37727600Y-19182800D02*
X37727600Y-19272800D01*
X37682600Y-19227800D02*
X37772600Y-19227800D01*
X38073130Y-29248470D02*
X38073130Y-29338470D01*
X38028130Y-29293470D02*
X38118130Y-29293470D01*
X38073130Y-30010470D02*
X38073130Y-30100470D01*
X38028130Y-30055470D02*
X38118130Y-30055470D01*
D15*
X10265856Y-18323856D02*
X10265856Y-18253144D01*
X10195144Y-18253144D01*
X10195144Y-18323856D01*
X10265856Y-18323856D01*
X10265856Y-18577856D02*
X10265856Y-18507144D01*
X10195144Y-18507144D01*
X10195144Y-18577856D01*
X10265856Y-18577856D01*
X10265856Y-18831856D02*
X10265856Y-18761144D01*
X10195144Y-18761144D01*
X10195144Y-18831856D01*
X10265856Y-18831856D01*
X10265856Y-19085856D02*
X10265856Y-19015144D01*
X10195144Y-19015144D01*
X10195144Y-19085856D01*
X10265856Y-19085856D01*
X37394486Y-26170356D02*
X37394486Y-26099644D01*
X37323774Y-26099644D01*
X37323774Y-26170356D01*
X37394486Y-26170356D01*
X37394486Y-26447356D02*
X37394486Y-26376644D01*
X37323774Y-26376644D01*
X37323774Y-26447356D01*
X37394486Y-26447356D01*
X37394486Y-26724356D02*
X37394486Y-26653644D01*
X37323774Y-26653644D01*
X37323774Y-26724356D01*
X37394486Y-26724356D01*
X37394486Y-27001356D02*
X37394486Y-26930644D01*
X37323774Y-26930644D01*
X37323774Y-27001356D01*
X37394486Y-27001356D01*
X37394486Y-27278356D02*
X37394486Y-27207644D01*
X37323774Y-27207644D01*
X37323774Y-27278356D01*
X37394486Y-27278356D01*
X37435356Y-22627356D02*
X37435356Y-22556644D01*
X37364644Y-22556644D01*
X37364644Y-22627356D01*
X37435356Y-22627356D01*
X37435356Y-22904356D02*
X37435356Y-22833644D01*
X37364644Y-22833644D01*
X37364644Y-22904356D01*
X37435356Y-22904356D01*
X37435356Y-23181356D02*
X37435356Y-23110644D01*
X37364644Y-23110644D01*
X37364644Y-23181356D01*
X37435356Y-23181356D01*
X37435356Y-23458356D02*
X37435356Y-23387644D01*
X37364644Y-23387644D01*
X37364644Y-23458356D01*
X37435356Y-23458356D01*
X37435356Y-23735356D02*
X37435356Y-23664644D01*
X37364644Y-23664644D01*
X37364644Y-23735356D01*
X37435356Y-23735356D01*
X37678486Y-26308856D02*
X37678486Y-26238144D01*
X37607774Y-26238144D01*
X37607774Y-26308856D01*
X37678486Y-26308856D01*
X37678486Y-26585856D02*
X37678486Y-26515144D01*
X37607774Y-26515144D01*
X37607774Y-26585856D01*
X37678486Y-26585856D01*
X37678486Y-26862856D02*
X37678486Y-26792144D01*
X37607774Y-26792144D01*
X37607774Y-26862856D01*
X37678486Y-26862856D01*
X37678486Y-27139856D02*
X37678486Y-27069144D01*
X37607774Y-27069144D01*
X37607774Y-27139856D01*
X37678486Y-27139856D01*
X37719356Y-22765856D02*
X37719356Y-22695144D01*
X37648644Y-22695144D01*
X37648644Y-22765856D01*
X37719356Y-22765856D01*
X37719356Y-23042856D02*
X37719356Y-22972144D01*
X37648644Y-22972144D01*
X37648644Y-23042856D01*
X37719356Y-23042856D01*
X37719356Y-23319856D02*
X37719356Y-23249144D01*
X37648644Y-23249144D01*
X37648644Y-23319856D01*
X37719356Y-23319856D01*
X37719356Y-23596856D02*
X37719356Y-23526144D01*
X37648644Y-23526144D01*
X37648644Y-23596856D01*
X37719356Y-23596856D01*
D16*
X6638200Y-19012610D02*
X6692810Y-18958000D01*
X6638200Y-18903390D01*
X6583590Y-18958000D01*
X6638200Y-19012610D01*
X6638200Y-20536610D02*
X6692810Y-20482000D01*
X6638200Y-20427390D01*
X6583590Y-20482000D01*
X6638200Y-20536610D01*
X6892200Y-19012610D02*
X6946810Y-18958000D01*
X6892200Y-18903390D01*
X6837590Y-18958000D01*
X6892200Y-19012610D01*
X6892200Y-20536610D02*
X6946810Y-20482000D01*
X6892200Y-20427390D01*
X6837590Y-20482000D01*
X6892200Y-20536610D01*
X7146200Y-19012610D02*
X7200810Y-18958000D01*
X7146200Y-18903390D01*
X7091590Y-18958000D01*
X7146200Y-19012610D01*
X7146200Y-20536610D02*
X7200810Y-20482000D01*
X7146200Y-20427390D01*
X7091590Y-20482000D01*
X7146200Y-20536610D01*
X7400200Y-19012610D02*
X7454810Y-18958000D01*
X7400200Y-18903390D01*
X7345590Y-18958000D01*
X7400200Y-19012610D01*
X7400200Y-20536610D02*
X7454810Y-20482000D01*
X7400200Y-20427390D01*
X7345590Y-20482000D01*
X7400200Y-20536610D01*
X7654200Y-19012610D02*
X7708810Y-18958000D01*
X7654200Y-18903390D01*
X7599590Y-18958000D01*
X7654200Y-19012610D01*
X7654200Y-20536610D02*
X7708810Y-20482000D01*
X7654200Y-20427390D01*
X7599590Y-20482000D01*
X7654200Y-20536610D01*
X7908200Y-19012610D02*
X7962810Y-18958000D01*
X7908200Y-18903390D01*
X7853590Y-18958000D01*
X7908200Y-19012610D01*
X7908200Y-20536610D02*
X7962810Y-20482000D01*
X7908200Y-20427390D01*
X7853590Y-20482000D01*
X7908200Y-20536610D01*
X8162200Y-19012610D02*
X8216810Y-18958000D01*
X8162200Y-18903390D01*
X8107590Y-18958000D01*
X8162200Y-19012610D01*
X8162200Y-20536610D02*
X8216810Y-20482000D01*
X8162200Y-20427390D01*
X8107590Y-20482000D01*
X8162200Y-20536610D01*
X8416200Y-19012610D02*
X8470810Y-18958000D01*
X8416200Y-18903390D01*
X8361590Y-18958000D01*
X8416200Y-19012610D01*
X8416200Y-20536610D02*
X8470810Y-20482000D01*
X8416200Y-20427390D01*
X8361590Y-20482000D01*
X8416200Y-20536610D01*
X8670200Y-19012610D02*
X8724810Y-18958000D01*
X8670200Y-18903390D01*
X8615590Y-18958000D01*
X8670200Y-19012610D01*
X8670200Y-20536610D02*
X8724810Y-20482000D01*
X8670200Y-20427390D01*
X8615590Y-20482000D01*
X8670200Y-20536610D01*
X8924200Y-19012610D02*
X8978810Y-18958000D01*
X8924200Y-18903390D01*
X8869590Y-18958000D01*
X8924200Y-19012610D01*
X8924200Y-20536610D02*
X8978810Y-20482000D01*
X8924200Y-20427390D01*
X8869590Y-20482000D01*
X8924200Y-20536610D01*
X9178200Y-19012610D02*
X9232810Y-18958000D01*
X9178200Y-18903390D01*
X9123590Y-18958000D01*
X9178200Y-19012610D01*
X9178200Y-20536610D02*
X9232810Y-20482000D01*
X9178200Y-20427390D01*
X9123590Y-20482000D01*
X9178200Y-20536610D01*
X9432200Y-19012610D02*
X9486810Y-18958000D01*
X9432200Y-18903390D01*
X9377590Y-18958000D01*
X9432200Y-19012610D01*
X9432200Y-19266610D02*
X9486810Y-19212000D01*
X9432200Y-19157390D01*
X9377590Y-19212000D01*
X9432200Y-19266610D01*
X9432200Y-19520610D02*
X9486810Y-19466000D01*
X9432200Y-19411390D01*
X9377590Y-19466000D01*
X9432200Y-19520610D01*
X9432200Y-19774610D02*
X9486810Y-19720000D01*
X9432200Y-19665390D01*
X9377590Y-19720000D01*
X9432200Y-19774610D01*
X9432200Y-20028610D02*
X9486810Y-19974000D01*
X9432200Y-19919390D01*
X9377590Y-19974000D01*
X9432200Y-20028610D01*
X9432200Y-20282610D02*
X9486810Y-20228000D01*
X9432200Y-20173390D01*
X9377590Y-20228000D01*
X9432200Y-20282610D01*
X9432200Y-20513750D02*
X9486810Y-20459140D01*
X9432200Y-20404530D01*
X9377590Y-20459140D01*
X9432200Y-20513750D01*
D17*
X7851250Y-21711500D02*
X8001250Y-21861500D01*
X8001250Y-21711500D02*
X7851250Y-21861500D01*
X8001250Y-21786500D02*
G75*
G03*
X8001250Y-21786500I-75000J0D01*
G01*
X8327500Y-23616500D02*
X8477500Y-23766500D01*
X8477500Y-23616500D02*
X8327500Y-23766500D01*
X8477500Y-23691500D02*
G75*
G03*
X8477500Y-23691500I-75000J0D01*
G01*
X8486250Y-21457500D02*
X8636250Y-21607500D01*
X8636250Y-21457500D02*
X8486250Y-21607500D01*
X8636250Y-21532500D02*
G75*
G03*
X8636250Y-21532500I-75000J0D01*
G01*
X8565630Y-25519000D02*
X8715630Y-25669000D01*
X8715630Y-25519000D02*
X8565630Y-25669000D01*
X8715630Y-25594000D02*
G75*
G03*
X8715630Y-25594000I-75000J0D01*
G01*
X8962500Y-23362500D02*
X9112500Y-23512500D01*
X9112500Y-23362500D02*
X8962500Y-23512500D01*
X9112500Y-23437500D02*
G75*
G03*
X9112500Y-23437500I-75000J0D01*
G01*
X9200630Y-25265000D02*
X9350630Y-25415000D01*
X9350630Y-25265000D02*
X9200630Y-25415000D01*
X9350630Y-25340000D02*
G75*
G03*
X9350630Y-25340000I-75000J0D01*
G01*
X9280000Y-27419000D02*
X9430000Y-27569000D01*
X9430000Y-27419000D02*
X9280000Y-27569000D01*
X9430000Y-27494000D02*
G75*
G03*
X9430000Y-27494000I-75000J0D01*
G01*
X9915000Y-27165000D02*
X10065000Y-27315000D01*
X10065000Y-27165000D02*
X9915000Y-27315000D01*
X10065000Y-27240000D02*
G75*
G03*
X10065000Y-27240000I-75000J0D01*
G01*
X9994380Y-21711500D02*
X10144380Y-21861500D01*
X10144380Y-21711500D02*
X9994380Y-21861500D01*
X10144380Y-21786500D02*
G75*
G03*
X10144380Y-21786500I-75000J0D01*
G01*
X10629380Y-21457500D02*
X10779380Y-21607500D01*
X10779380Y-21457500D02*
X10629380Y-21607500D01*
X10779380Y-21532500D02*
G75*
G03*
X10779380Y-21532500I-75000J0D01*
G01*
X10946880Y-23616500D02*
X11096880Y-23766500D01*
X11096880Y-23616500D02*
X10946880Y-23766500D01*
X11096880Y-23691500D02*
G75*
G03*
X11096880Y-23691500I-75000J0D01*
G01*
X11423130Y-25519000D02*
X11573130Y-25669000D01*
X11573130Y-25519000D02*
X11423130Y-25669000D01*
X11573130Y-25594000D02*
G75*
G03*
X11573130Y-25594000I-75000J0D01*
G01*
X11423130Y-29324000D02*
X11573130Y-29474000D01*
X11573130Y-29324000D02*
X11423130Y-29474000D01*
X11573130Y-29399000D02*
G75*
G03*
X11573130Y-29399000I-75000J0D01*
G01*
X11581880Y-23362500D02*
X11731880Y-23512500D01*
X11731880Y-23362500D02*
X11581880Y-23512500D01*
X11731880Y-23437500D02*
G75*
G03*
X11731880Y-23437500I-75000J0D01*
G01*
X11899380Y-21711500D02*
X12049380Y-21861500D01*
X12049380Y-21711500D02*
X11899380Y-21861500D01*
X12049380Y-21786500D02*
G75*
G03*
X12049380Y-21786500I-75000J0D01*
G01*
X12058130Y-25265000D02*
X12208130Y-25415000D01*
X12208130Y-25265000D02*
X12058130Y-25415000D01*
X12208130Y-25340000D02*
G75*
G03*
X12208130Y-25340000I-75000J0D01*
G01*
X12058130Y-29070000D02*
X12208130Y-29220000D01*
X12208130Y-29070000D02*
X12058130Y-29220000D01*
X12208130Y-29145000D02*
G75*
G03*
X12208130Y-29145000I-75000J0D01*
G01*
X12375630Y-27419000D02*
X12525630Y-27569000D01*
X12525630Y-27419000D02*
X12375630Y-27569000D01*
X12525630Y-27494000D02*
G75*
G03*
X12525630Y-27494000I-75000J0D01*
G01*
X12534380Y-21457500D02*
X12684380Y-21607500D01*
X12684380Y-21457500D02*
X12534380Y-21607500D01*
X12684380Y-21532500D02*
G75*
G03*
X12684380Y-21532500I-75000J0D01*
G01*
X12851880Y-23616500D02*
X13001880Y-23766500D01*
X13001880Y-23616500D02*
X12851880Y-23766500D01*
X13001880Y-23691500D02*
G75*
G03*
X13001880Y-23691500I-75000J0D01*
G01*
X13010630Y-27165000D02*
X13160630Y-27315000D01*
X13160630Y-27165000D02*
X13010630Y-27315000D01*
X13160630Y-27240000D02*
G75*
G03*
X13160630Y-27240000I-75000J0D01*
G01*
X13328130Y-25519000D02*
X13478130Y-25669000D01*
X13478130Y-25519000D02*
X13328130Y-25669000D01*
X13478130Y-25594000D02*
G75*
G03*
X13478130Y-25594000I-75000J0D01*
G01*
X13486880Y-23362500D02*
X13636880Y-23512500D01*
X13636880Y-23362500D02*
X13486880Y-23512500D01*
X13636880Y-23437500D02*
G75*
G03*
X13636880Y-23437500I-75000J0D01*
G01*
X13804380Y-21711500D02*
X13954380Y-21861500D01*
X13954380Y-21711500D02*
X13804380Y-21861500D01*
X13954380Y-21786500D02*
G75*
G03*
X13954380Y-21786500I-75000J0D01*
G01*
X13963130Y-25265000D02*
X14113130Y-25415000D01*
X14113130Y-25265000D02*
X13963130Y-25415000D01*
X14113130Y-25340000D02*
G75*
G03*
X14113130Y-25340000I-75000J0D01*
G01*
X14280630Y-27419000D02*
X14430630Y-27569000D01*
X14430630Y-27419000D02*
X14280630Y-27569000D01*
X14430630Y-27494000D02*
G75*
G03*
X14430630Y-27494000I-75000J0D01*
G01*
X14439380Y-21457500D02*
X14589380Y-21607500D01*
X14589380Y-21457500D02*
X14439380Y-21607500D01*
X14589380Y-21532500D02*
G75*
G03*
X14589380Y-21532500I-75000J0D01*
G01*
X14756880Y-23616500D02*
X14906880Y-23766500D01*
X14906880Y-23616500D02*
X14756880Y-23766500D01*
X14906880Y-23691500D02*
G75*
G03*
X14906880Y-23691500I-75000J0D01*
G01*
X14911000Y-18847000D02*
X15061000Y-18997000D01*
X15061000Y-18847000D02*
X14911000Y-18997000D01*
X15061000Y-18922000D02*
G75*
G03*
X15061000Y-18922000I-75000J0D01*
G01*
X14915630Y-27165000D02*
X15065630Y-27315000D01*
X15065630Y-27165000D02*
X14915630Y-27315000D01*
X15065630Y-27240000D02*
G75*
G03*
X15065630Y-27240000I-75000J0D01*
G01*
X15233130Y-25519000D02*
X15383130Y-25669000D01*
X15383130Y-25519000D02*
X15233130Y-25669000D01*
X15383130Y-25594000D02*
G75*
G03*
X15383130Y-25594000I-75000J0D01*
G01*
X15391880Y-23362500D02*
X15541880Y-23512500D01*
X15541880Y-23362500D02*
X15391880Y-23512500D01*
X15541880Y-23437500D02*
G75*
G03*
X15541880Y-23437500I-75000J0D01*
G01*
X15546000Y-18593000D02*
X15696000Y-18743000D01*
X15696000Y-18593000D02*
X15546000Y-18743000D01*
X15696000Y-18668000D02*
G75*
G03*
X15696000Y-18668000I-75000J0D01*
G01*
X15709380Y-21711500D02*
X15859380Y-21861500D01*
X15859380Y-21711500D02*
X15709380Y-21861500D01*
X15859380Y-21786500D02*
G75*
G03*
X15859380Y-21786500I-75000J0D01*
G01*
X15868130Y-25265000D02*
X16018130Y-25415000D01*
X16018130Y-25265000D02*
X15868130Y-25415000D01*
X16018130Y-25340000D02*
G75*
G03*
X16018130Y-25340000I-75000J0D01*
G01*
X16185630Y-27419000D02*
X16335630Y-27569000D01*
X16335630Y-27419000D02*
X16185630Y-27569000D01*
X16335630Y-27494000D02*
G75*
G03*
X16335630Y-27494000I-75000J0D01*
G01*
X16344380Y-21457500D02*
X16494380Y-21607500D01*
X16494380Y-21457500D02*
X16344380Y-21607500D01*
X16494380Y-21532500D02*
G75*
G03*
X16494380Y-21532500I-75000J0D01*
G01*
X16661880Y-23616500D02*
X16811880Y-23766500D01*
X16811880Y-23616500D02*
X16661880Y-23766500D01*
X16811880Y-23691500D02*
G75*
G03*
X16811880Y-23691500I-75000J0D01*
G01*
X16820630Y-27165000D02*
X16970630Y-27315000D01*
X16970630Y-27165000D02*
X16820630Y-27315000D01*
X16970630Y-27240000D02*
G75*
G03*
X16970630Y-27240000I-75000J0D01*
G01*
X17138130Y-25519000D02*
X17288130Y-25669000D01*
X17288130Y-25519000D02*
X17138130Y-25669000D01*
X17288130Y-25594000D02*
G75*
G03*
X17288130Y-25594000I-75000J0D01*
G01*
X17296880Y-23362500D02*
X17446880Y-23512500D01*
X17446880Y-23362500D02*
X17296880Y-23512500D01*
X17446880Y-23437500D02*
G75*
G03*
X17446880Y-23437500I-75000J0D01*
G01*
X17528870Y-18847000D02*
X17678870Y-18997000D01*
X17678870Y-18847000D02*
X17528870Y-18997000D01*
X17678870Y-18922000D02*
G75*
G03*
X17678870Y-18922000I-75000J0D01*
G01*
X17614380Y-21711500D02*
X17764380Y-21861500D01*
X17764380Y-21711500D02*
X17614380Y-21861500D01*
X17764380Y-21786500D02*
G75*
G03*
X17764380Y-21786500I-75000J0D01*
G01*
X17773130Y-25265000D02*
X17923130Y-25415000D01*
X17923130Y-25265000D02*
X17773130Y-25415000D01*
X17923130Y-25340000D02*
G75*
G03*
X17923130Y-25340000I-75000J0D01*
G01*
X18090630Y-27419000D02*
X18240630Y-27569000D01*
X18240630Y-27419000D02*
X18090630Y-27569000D01*
X18240630Y-27494000D02*
G75*
G03*
X18240630Y-27494000I-75000J0D01*
G01*
X18163870Y-18593000D02*
X18313870Y-18743000D01*
X18313870Y-18593000D02*
X18163870Y-18743000D01*
X18313870Y-18668000D02*
G75*
G03*
X18313870Y-18668000I-75000J0D01*
G01*
X18249380Y-21457500D02*
X18399380Y-21607500D01*
X18399380Y-21457500D02*
X18249380Y-21607500D01*
X18399380Y-21532500D02*
G75*
G03*
X18399380Y-21532500I-75000J0D01*
G01*
X18566880Y-23616500D02*
X18716880Y-23766500D01*
X18716880Y-23616500D02*
X18566880Y-23766500D01*
X18716880Y-23691500D02*
G75*
G03*
X18716880Y-23691500I-75000J0D01*
G01*
X18725630Y-27165000D02*
X18875630Y-27315000D01*
X18875630Y-27165000D02*
X18725630Y-27315000D01*
X18875630Y-27240000D02*
G75*
G03*
X18875630Y-27240000I-75000J0D01*
G01*
X19043130Y-25519000D02*
X19193130Y-25669000D01*
X19193130Y-25519000D02*
X19043130Y-25669000D01*
X19193130Y-25594000D02*
G75*
G03*
X19193130Y-25594000I-75000J0D01*
G01*
X19201880Y-23362500D02*
X19351880Y-23512500D01*
X19351880Y-23362500D02*
X19201880Y-23512500D01*
X19351880Y-23437500D02*
G75*
G03*
X19351880Y-23437500I-75000J0D01*
G01*
X19519380Y-21711500D02*
X19669380Y-21861500D01*
X19669380Y-21711500D02*
X19519380Y-21861500D01*
X19669380Y-21786500D02*
G75*
G03*
X19669380Y-21786500I-75000J0D01*
G01*
X19678130Y-25265000D02*
X19828130Y-25415000D01*
X19828130Y-25265000D02*
X19678130Y-25415000D01*
X19828130Y-25340000D02*
G75*
G03*
X19828130Y-25340000I-75000J0D01*
G01*
X19908870Y-18847000D02*
X20058870Y-18997000D01*
X20058870Y-18847000D02*
X19908870Y-18997000D01*
X20058870Y-18922000D02*
G75*
G03*
X20058870Y-18922000I-75000J0D01*
G01*
X19995630Y-27419000D02*
X20145630Y-27569000D01*
X20145630Y-27419000D02*
X19995630Y-27569000D01*
X20145630Y-27494000D02*
G75*
G03*
X20145630Y-27494000I-75000J0D01*
G01*
X20154380Y-21457500D02*
X20304380Y-21607500D01*
X20304380Y-21457500D02*
X20154380Y-21607500D01*
X20304380Y-21532500D02*
G75*
G03*
X20304380Y-21532500I-75000J0D01*
G01*
X20471880Y-23616500D02*
X20621880Y-23766500D01*
X20621880Y-23616500D02*
X20471880Y-23766500D01*
X20621880Y-23691500D02*
G75*
G03*
X20621880Y-23691500I-75000J0D01*
G01*
X20543870Y-18593000D02*
X20693870Y-18743000D01*
X20693870Y-18593000D02*
X20543870Y-18743000D01*
X20693870Y-18668000D02*
G75*
G03*
X20693870Y-18668000I-75000J0D01*
G01*
X20608130Y-29324000D02*
X20758130Y-29474000D01*
X20758130Y-29324000D02*
X20608130Y-29474000D01*
X20758130Y-29399000D02*
G75*
G03*
X20758130Y-29399000I-75000J0D01*
G01*
X20630630Y-27165000D02*
X20780630Y-27315000D01*
X20780630Y-27165000D02*
X20630630Y-27315000D01*
X20780630Y-27240000D02*
G75*
G03*
X20780630Y-27240000I-75000J0D01*
G01*
X20948130Y-25519000D02*
X21098130Y-25669000D01*
X21098130Y-25519000D02*
X20948130Y-25669000D01*
X21098130Y-25594000D02*
G75*
G03*
X21098130Y-25594000I-75000J0D01*
G01*
X21106880Y-23362500D02*
X21256880Y-23512500D01*
X21256880Y-23362500D02*
X21106880Y-23512500D01*
X21256880Y-23437500D02*
G75*
G03*
X21256880Y-23437500I-75000J0D01*
G01*
X21243130Y-29070000D02*
X21393130Y-29220000D01*
X21393130Y-29070000D02*
X21243130Y-29220000D01*
X21393130Y-29145000D02*
G75*
G03*
X21393130Y-29145000I-75000J0D01*
G01*
X21424380Y-21711500D02*
X21574380Y-21861500D01*
X21574380Y-21711500D02*
X21424380Y-21861500D01*
X21574380Y-21786500D02*
G75*
G03*
X21574380Y-21786500I-75000J0D01*
G01*
X21583130Y-25265000D02*
X21733130Y-25415000D01*
X21733130Y-25265000D02*
X21583130Y-25415000D01*
X21733130Y-25340000D02*
G75*
G03*
X21733130Y-25340000I-75000J0D01*
G01*
X21900630Y-27419000D02*
X22050630Y-27569000D01*
X22050630Y-27419000D02*
X21900630Y-27569000D01*
X22050630Y-27494000D02*
G75*
G03*
X22050630Y-27494000I-75000J0D01*
G01*
X22059380Y-21457500D02*
X22209380Y-21607500D01*
X22209380Y-21457500D02*
X22059380Y-21607500D01*
X22209380Y-21532500D02*
G75*
G03*
X22209380Y-21532500I-75000J0D01*
G01*
X22369130Y-18854000D02*
X22519130Y-19004000D01*
X22519130Y-18854000D02*
X22369130Y-19004000D01*
X22519130Y-18929000D02*
G75*
G03*
X22519130Y-18929000I-75000J0D01*
G01*
X22376880Y-23616500D02*
X22526880Y-23766500D01*
X22526880Y-23616500D02*
X22376880Y-23766500D01*
X22526880Y-23691500D02*
G75*
G03*
X22526880Y-23691500I-75000J0D01*
G01*
X22535630Y-27165000D02*
X22685630Y-27315000D01*
X22685630Y-27165000D02*
X22535630Y-27315000D01*
X22685630Y-27240000D02*
G75*
G03*
X22685630Y-27240000I-75000J0D01*
G01*
X22853130Y-25519000D02*
X23003130Y-25669000D01*
X23003130Y-25519000D02*
X22853130Y-25669000D01*
X23003130Y-25594000D02*
G75*
G03*
X23003130Y-25594000I-75000J0D01*
G01*
X23004130Y-18600000D02*
X23154130Y-18750000D01*
X23154130Y-18600000D02*
X23004130Y-18750000D01*
X23154130Y-18675000D02*
G75*
G03*
X23154130Y-18675000I-75000J0D01*
G01*
X23011880Y-23362500D02*
X23161880Y-23512500D01*
X23161880Y-23362500D02*
X23011880Y-23512500D01*
X23161880Y-23437500D02*
G75*
G03*
X23161880Y-23437500I-75000J0D01*
G01*
X23329380Y-21711500D02*
X23479380Y-21861500D01*
X23479380Y-21711500D02*
X23329380Y-21861500D01*
X23479380Y-21786500D02*
G75*
G03*
X23479380Y-21786500I-75000J0D01*
G01*
X23488130Y-25265000D02*
X23638130Y-25415000D01*
X23638130Y-25265000D02*
X23488130Y-25415000D01*
X23638130Y-25340000D02*
G75*
G03*
X23638130Y-25340000I-75000J0D01*
G01*
X23805630Y-27419000D02*
X23955630Y-27569000D01*
X23955630Y-27419000D02*
X23805630Y-27569000D01*
X23955630Y-27494000D02*
G75*
G03*
X23955630Y-27494000I-75000J0D01*
G01*
X23964380Y-21457500D02*
X24114380Y-21607500D01*
X24114380Y-21457500D02*
X23964380Y-21607500D01*
X24114380Y-21532500D02*
G75*
G03*
X24114380Y-21532500I-75000J0D01*
G01*
X24281880Y-23616500D02*
X24431880Y-23766500D01*
X24431880Y-23616500D02*
X24281880Y-23766500D01*
X24431880Y-23691500D02*
G75*
G03*
X24431880Y-23691500I-75000J0D01*
G01*
X24440630Y-27165000D02*
X24590630Y-27315000D01*
X24590630Y-27165000D02*
X24440630Y-27315000D01*
X24590630Y-27240000D02*
G75*
G03*
X24590630Y-27240000I-75000J0D01*
G01*
X24749130Y-18854000D02*
X24899130Y-19004000D01*
X24899130Y-18854000D02*
X24749130Y-19004000D01*
X24899130Y-18929000D02*
G75*
G03*
X24899130Y-18929000I-75000J0D01*
G01*
X24758130Y-25519000D02*
X24908130Y-25669000D01*
X24908130Y-25519000D02*
X24758130Y-25669000D01*
X24908130Y-25594000D02*
G75*
G03*
X24908130Y-25594000I-75000J0D01*
G01*
X24916880Y-23362500D02*
X25066880Y-23512500D01*
X25066880Y-23362500D02*
X24916880Y-23512500D01*
X25066880Y-23437500D02*
G75*
G03*
X25066880Y-23437500I-75000J0D01*
G01*
X25234380Y-21711500D02*
X25384380Y-21861500D01*
X25384380Y-21711500D02*
X25234380Y-21861500D01*
X25384380Y-21786500D02*
G75*
G03*
X25384380Y-21786500I-75000J0D01*
G01*
X25384130Y-18600000D02*
X25534130Y-18750000D01*
X25534130Y-18600000D02*
X25384130Y-18750000D01*
X25534130Y-18675000D02*
G75*
G03*
X25534130Y-18675000I-75000J0D01*
G01*
X25393130Y-25265000D02*
X25543130Y-25415000D01*
X25543130Y-25265000D02*
X25393130Y-25415000D01*
X25543130Y-25340000D02*
G75*
G03*
X25543130Y-25340000I-75000J0D01*
G01*
X25710630Y-27419000D02*
X25860630Y-27569000D01*
X25860630Y-27419000D02*
X25710630Y-27569000D01*
X25860630Y-27494000D02*
G75*
G03*
X25860630Y-27494000I-75000J0D01*
G01*
X25869380Y-21457500D02*
X26019380Y-21607500D01*
X26019380Y-21457500D02*
X25869380Y-21607500D01*
X26019380Y-21532500D02*
G75*
G03*
X26019380Y-21532500I-75000J0D01*
G01*
X26186830Y-23616500D02*
X26336830Y-23766500D01*
X26336830Y-23616500D02*
X26186830Y-23766500D01*
X26336830Y-23691500D02*
G75*
G03*
X26336830Y-23691500I-75000J0D01*
G01*
X26345630Y-27165000D02*
X26495630Y-27315000D01*
X26495630Y-27165000D02*
X26345630Y-27315000D01*
X26495630Y-27240000D02*
G75*
G03*
X26495630Y-27240000I-75000J0D01*
G01*
X26663130Y-25519000D02*
X26813130Y-25669000D01*
X26813130Y-25519000D02*
X26663130Y-25669000D01*
X26813130Y-25594000D02*
G75*
G03*
X26813130Y-25594000I-75000J0D01*
G01*
X26821830Y-23362500D02*
X26971830Y-23512500D01*
X26971830Y-23362500D02*
X26821830Y-23512500D01*
X26971830Y-23437500D02*
G75*
G03*
X26971830Y-23437500I-75000J0D01*
G01*
X27129130Y-18854000D02*
X27279130Y-19004000D01*
X27279130Y-18854000D02*
X27129130Y-19004000D01*
X27279130Y-18929000D02*
G75*
G03*
X27279130Y-18929000I-75000J0D01*
G01*
X27139380Y-21711500D02*
X27289380Y-21861500D01*
X27289380Y-21711500D02*
X27139380Y-21861500D01*
X27289380Y-21786500D02*
G75*
G03*
X27289380Y-21786500I-75000J0D01*
G01*
X27298130Y-25265000D02*
X27448130Y-25415000D01*
X27448130Y-25265000D02*
X27298130Y-25415000D01*
X27448130Y-25340000D02*
G75*
G03*
X27448130Y-25340000I-75000J0D01*
G01*
X27615630Y-27419000D02*
X27765630Y-27569000D01*
X27765630Y-27419000D02*
X27615630Y-27569000D01*
X27765630Y-27494000D02*
G75*
G03*
X27765630Y-27494000I-75000J0D01*
G01*
X27764130Y-18600000D02*
X27914130Y-18750000D01*
X27914130Y-18600000D02*
X27764130Y-18750000D01*
X27914130Y-18675000D02*
G75*
G03*
X27914130Y-18675000I-75000J0D01*
G01*
X27774380Y-21457500D02*
X27924380Y-21607500D01*
X27924380Y-21457500D02*
X27774380Y-21607500D01*
X27924380Y-21532500D02*
G75*
G03*
X27924380Y-21532500I-75000J0D01*
G01*
X28091880Y-23616500D02*
X28241880Y-23766500D01*
X28241880Y-23616500D02*
X28091880Y-23766500D01*
X28241880Y-23691500D02*
G75*
G03*
X28241880Y-23691500I-75000J0D01*
G01*
X28250630Y-27165000D02*
X28400630Y-27315000D01*
X28400630Y-27165000D02*
X28250630Y-27315000D01*
X28400630Y-27240000D02*
G75*
G03*
X28400630Y-27240000I-75000J0D01*
G01*
X28568130Y-25519000D02*
X28718130Y-25669000D01*
X28718130Y-25519000D02*
X28568130Y-25669000D01*
X28718130Y-25594000D02*
G75*
G03*
X28718130Y-25594000I-75000J0D01*
G01*
X28726880Y-23362500D02*
X28876880Y-23512500D01*
X28876880Y-23362500D02*
X28726880Y-23512500D01*
X28876880Y-23437500D02*
G75*
G03*
X28876880Y-23437500I-75000J0D01*
G01*
X29044380Y-21711500D02*
X29194380Y-21861500D01*
X29194380Y-21711500D02*
X29044380Y-21861500D01*
X29194380Y-21786500D02*
G75*
G03*
X29194380Y-21786500I-75000J0D01*
G01*
X29203130Y-25265000D02*
X29353130Y-25415000D01*
X29353130Y-25265000D02*
X29203130Y-25415000D01*
X29353130Y-25340000D02*
G75*
G03*
X29353130Y-25340000I-75000J0D01*
G01*
X29509130Y-18854000D02*
X29659130Y-19004000D01*
X29659130Y-18854000D02*
X29509130Y-19004000D01*
X29659130Y-18929000D02*
G75*
G03*
X29659130Y-18929000I-75000J0D01*
G01*
X29520630Y-27419000D02*
X29670630Y-27569000D01*
X29670630Y-27419000D02*
X29520630Y-27569000D01*
X29670630Y-27494000D02*
G75*
G03*
X29670630Y-27494000I-75000J0D01*
G01*
X29679380Y-21457500D02*
X29829380Y-21607500D01*
X29829380Y-21457500D02*
X29679380Y-21607500D01*
X29829380Y-21532500D02*
G75*
G03*
X29829380Y-21532500I-75000J0D01*
G01*
X29996880Y-23616500D02*
X30146880Y-23766500D01*
X30146880Y-23616500D02*
X29996880Y-23766500D01*
X30146880Y-23691500D02*
G75*
G03*
X30146880Y-23691500I-75000J0D01*
G01*
X30144130Y-18600000D02*
X30294130Y-18750000D01*
X30294130Y-18600000D02*
X30144130Y-18750000D01*
X30294130Y-18675000D02*
G75*
G03*
X30294130Y-18675000I-75000J0D01*
G01*
X30155630Y-27165000D02*
X30305630Y-27315000D01*
X30305630Y-27165000D02*
X30155630Y-27315000D01*
X30305630Y-27240000D02*
G75*
G03*
X30305630Y-27240000I-75000J0D01*
G01*
X30473130Y-25519000D02*
X30623130Y-25669000D01*
X30623130Y-25519000D02*
X30473130Y-25669000D01*
X30623130Y-25594000D02*
G75*
G03*
X30623130Y-25594000I-75000J0D01*
G01*
X30631880Y-23362500D02*
X30781880Y-23512500D01*
X30781880Y-23362500D02*
X30631880Y-23512500D01*
X30781880Y-23437500D02*
G75*
G03*
X30781880Y-23437500I-75000J0D01*
G01*
X30949380Y-21711500D02*
X31099380Y-21861500D01*
X31099380Y-21711500D02*
X30949380Y-21861500D01*
X31099380Y-21786500D02*
G75*
G03*
X31099380Y-21786500I-75000J0D01*
G01*
X31108130Y-25265000D02*
X31258130Y-25415000D01*
X31258130Y-25265000D02*
X31108130Y-25415000D01*
X31258130Y-25340000D02*
G75*
G03*
X31258130Y-25340000I-75000J0D01*
G01*
X31584380Y-21457500D02*
X31734380Y-21607500D01*
X31734380Y-21457500D02*
X31584380Y-21607500D01*
X31734380Y-21532500D02*
G75*
G03*
X31734380Y-21532500I-75000J0D01*
G01*
X31889130Y-18851000D02*
X32039130Y-19001000D01*
X32039130Y-18851000D02*
X31889130Y-19001000D01*
X32039130Y-18926000D02*
G75*
G03*
X32039130Y-18926000I-75000J0D01*
G01*
X31901880Y-23616500D02*
X32051880Y-23766500D01*
X32051880Y-23616500D02*
X31901880Y-23766500D01*
X32051880Y-23691500D02*
G75*
G03*
X32051880Y-23691500I-75000J0D01*
G01*
X32140000Y-27419000D02*
X32290000Y-27569000D01*
X32290000Y-27419000D02*
X32140000Y-27569000D01*
X32290000Y-27494000D02*
G75*
G03*
X32290000Y-27494000I-75000J0D01*
G01*
X32378130Y-25519000D02*
X32528130Y-25669000D01*
X32528130Y-25519000D02*
X32378130Y-25669000D01*
X32528130Y-25594000D02*
G75*
G03*
X32528130Y-25594000I-75000J0D01*
G01*
X32524130Y-18597000D02*
X32674130Y-18747000D01*
X32674130Y-18597000D02*
X32524130Y-18747000D01*
X32674130Y-18672000D02*
G75*
G03*
X32674130Y-18672000I-75000J0D01*
G01*
X32536880Y-23362500D02*
X32686880Y-23512500D01*
X32686880Y-23362500D02*
X32536880Y-23512500D01*
X32686880Y-23437500D02*
G75*
G03*
X32686880Y-23437500I-75000J0D01*
G01*
X32775000Y-27165000D02*
X32925000Y-27315000D01*
X32925000Y-27165000D02*
X32775000Y-27315000D01*
X32925000Y-27240000D02*
G75*
G03*
X32925000Y-27240000I-75000J0D01*
G01*
X32841130Y-29326000D02*
X32991130Y-29476000D01*
X32991130Y-29326000D02*
X32841130Y-29476000D01*
X32991130Y-29401000D02*
G75*
G03*
X32991130Y-29401000I-75000J0D01*
G01*
X33013130Y-25265000D02*
X33163130Y-25415000D01*
X33163130Y-25265000D02*
X33013130Y-25415000D01*
X33163130Y-25340000D02*
G75*
G03*
X33163130Y-25340000I-75000J0D01*
G01*
X33476130Y-29072000D02*
X33626130Y-29222000D01*
X33626130Y-29072000D02*
X33476130Y-29222000D01*
X33626130Y-29147000D02*
G75*
G03*
X33626130Y-29147000I-75000J0D01*
G01*
X33793130Y-21710000D02*
X33943130Y-21860000D01*
X33943130Y-21710000D02*
X33793130Y-21860000D01*
X33943130Y-21785000D02*
G75*
G03*
X33943130Y-21785000I-75000J0D01*
G01*
X34269130Y-18854000D02*
X34419130Y-19004000D01*
X34419130Y-18854000D02*
X34269130Y-19004000D01*
X34419130Y-18929000D02*
G75*
G03*
X34419130Y-18929000I-75000J0D01*
G01*
X34283130Y-23616500D02*
X34433130Y-23766500D01*
X34433130Y-23616500D02*
X34283130Y-23766500D01*
X34433130Y-23691500D02*
G75*
G03*
X34433130Y-23691500I-75000J0D01*
G01*
X34428130Y-21456000D02*
X34578130Y-21606000D01*
X34578130Y-21456000D02*
X34428130Y-21606000D01*
X34578130Y-21531000D02*
G75*
G03*
X34578130Y-21531000I-75000J0D01*
G01*
X34523130Y-25519000D02*
X34673130Y-25669000D01*
X34673130Y-25519000D02*
X34523130Y-25669000D01*
X34673130Y-25594000D02*
G75*
G03*
X34673130Y-25594000I-75000J0D01*
G01*
X34745130Y-27422000D02*
X34895130Y-27572000D01*
X34895130Y-27422000D02*
X34745130Y-27572000D01*
X34895130Y-27497000D02*
G75*
G03*
X34895130Y-27497000I-75000J0D01*
G01*
X34745130Y-29326000D02*
X34895130Y-29476000D01*
X34895130Y-29326000D02*
X34745130Y-29476000D01*
X34895130Y-29401000D02*
G75*
G03*
X34895130Y-29401000I-75000J0D01*
G01*
X34904130Y-18600000D02*
X35054130Y-18750000D01*
X35054130Y-18600000D02*
X34904130Y-18750000D01*
X35054130Y-18675000D02*
G75*
G03*
X35054130Y-18675000I-75000J0D01*
G01*
X34918130Y-23362500D02*
X35068130Y-23512500D01*
X35068130Y-23362500D02*
X34918130Y-23512500D01*
X35068130Y-23437500D02*
G75*
G03*
X35068130Y-23437500I-75000J0D01*
G01*
X35158130Y-25265000D02*
X35308130Y-25415000D01*
X35308130Y-25265000D02*
X35158130Y-25415000D01*
X35308130Y-25340000D02*
G75*
G03*
X35308130Y-25340000I-75000J0D01*
G01*
X35380130Y-27168000D02*
X35530130Y-27318000D01*
X35530130Y-27168000D02*
X35380130Y-27318000D01*
X35530130Y-27243000D02*
G75*
G03*
X35530130Y-27243000I-75000J0D01*
G01*
X35380130Y-29072000D02*
X35530130Y-29222000D01*
X35530130Y-29072000D02*
X35380130Y-29222000D01*
X35530130Y-29147000D02*
G75*
G03*
X35530130Y-29147000I-75000J0D01*
G01*
X36649130Y-29326000D02*
X36799130Y-29476000D01*
X36799130Y-29326000D02*
X36649130Y-29476000D01*
X36799130Y-29401000D02*
G75*
G03*
X36799130Y-29401000I-75000J0D01*
G01*
X37284130Y-29072000D02*
X37434130Y-29222000D01*
X37434130Y-29072000D02*
X37284130Y-29222000D01*
X37434130Y-29147000D02*
G75*
G03*
X37434130Y-29147000I-75000J0D01*
G01*
D18*
X37341130Y-25279000D02*
X37661130Y-25599000D01*
X37661130Y-25279000D02*
X37341130Y-25599000D01*
X37501130Y-25279000D02*
X37501130Y-25599000D01*
X37341130Y-25439000D02*
X37661130Y-25439000D01*
X37341130Y-27779000D02*
X37661130Y-28099000D01*
X37661130Y-27779000D02*
X37341130Y-28099000D01*
X37501130Y-27779000D02*
X37501130Y-28099000D01*
X37341130Y-27939000D02*
X37661130Y-27939000D01*
X37382000Y-21736000D02*
X37702000Y-22056000D01*
X37702000Y-21736000D02*
X37382000Y-22056000D01*
X37542000Y-21736000D02*
X37542000Y-22056000D01*
X37382000Y-21896000D02*
X37702000Y-21896000D01*
X37382000Y-24236000D02*
X37702000Y-24556000D01*
X37702000Y-24236000D02*
X37382000Y-24556000D01*
X37542000Y-24236000D02*
X37542000Y-24556000D01*
X37382000Y-24396000D02*
X37702000Y-24396000D01*
D11*
X6355119Y-31387976D02*
X6355119Y-31187976D01*
X6402738Y-31187976D01*
X6431309Y-31197500D01*
X6450357Y-31216548D01*
X6459881Y-31235595D01*
X6469405Y-31273690D01*
X6469405Y-31302262D01*
X6459881Y-31340357D01*
X6450357Y-31359405D01*
X6431309Y-31378452D01*
X6402738Y-31387976D01*
X6355119Y-31387976D01*
X6555119Y-31387976D02*
X6555119Y-31254643D01*
X6555119Y-31292738D02*
X6564643Y-31273690D01*
X6574167Y-31264167D01*
X6593214Y-31254643D01*
X6612262Y-31254643D01*
X6678928Y-31387976D02*
X6678928Y-31254643D01*
X6678928Y-31187976D02*
X6669405Y-31197500D01*
X6678928Y-31207024D01*
X6688452Y-31197500D01*
X6678928Y-31187976D01*
X6678928Y-31207024D01*
X6802738Y-31387976D02*
X6783690Y-31378452D01*
X6774167Y-31359405D01*
X6774167Y-31187976D01*
X6907500Y-31387976D02*
X6888452Y-31378452D01*
X6878928Y-31359405D01*
X6878928Y-31187976D01*
X7136071Y-31387976D02*
X7136071Y-31187976D01*
X7202738Y-31330833D01*
X7269405Y-31187976D01*
X7269405Y-31387976D01*
X7450357Y-31387976D02*
X7450357Y-31283214D01*
X7440833Y-31264167D01*
X7421786Y-31254643D01*
X7383690Y-31254643D01*
X7364643Y-31264167D01*
X7450357Y-31378452D02*
X7431309Y-31387976D01*
X7383690Y-31387976D01*
X7364643Y-31378452D01*
X7355119Y-31359405D01*
X7355119Y-31340357D01*
X7364643Y-31321309D01*
X7383690Y-31311786D01*
X7431309Y-31311786D01*
X7450357Y-31302262D01*
X7545595Y-31254643D02*
X7545595Y-31454643D01*
X7545595Y-31264167D02*
X7564643Y-31254643D01*
X7602738Y-31254643D01*
X7621786Y-31264167D01*
X7631309Y-31273690D01*
X7640833Y-31292738D01*
X7640833Y-31349881D01*
X7631309Y-31368928D01*
X7621786Y-31378452D01*
X7602738Y-31387976D01*
X7564643Y-31387976D01*
X7545595Y-31378452D01*
X7726548Y-31368928D02*
X7736071Y-31378452D01*
X7726548Y-31387976D01*
X7717024Y-31378452D01*
X7726548Y-31368928D01*
X7726548Y-31387976D01*
X7726548Y-31264167D02*
X7736071Y-31273690D01*
X7726548Y-31283214D01*
X7717024Y-31273690D01*
X7726548Y-31264167D01*
X7726548Y-31283214D01*
D12*
X6057500Y-31697500D02*
X6097500Y-31737500D01*
X6097500Y-31697500D02*
X6057500Y-31737500D01*
D11*
X6393214Y-31607976D02*
X6412262Y-31607976D01*
X6431309Y-31617500D01*
X6440833Y-31627024D01*
X6450357Y-31646071D01*
X6459881Y-31684167D01*
X6459881Y-31731786D01*
X6450357Y-31769881D01*
X6440833Y-31788928D01*
X6431309Y-31798452D01*
X6412262Y-31807976D01*
X6393214Y-31807976D01*
X6374167Y-31798452D01*
X6364643Y-31788928D01*
X6355119Y-31769881D01*
X6345595Y-31731786D01*
X6345595Y-31684167D01*
X6355119Y-31646071D01*
X6364643Y-31627024D01*
X6374167Y-31617500D01*
X6393214Y-31607976D01*
X6545595Y-31788928D02*
X6555119Y-31798452D01*
X6545595Y-31807976D01*
X6536071Y-31798452D01*
X6545595Y-31788928D01*
X6545595Y-31807976D01*
X6726548Y-31674643D02*
X6726548Y-31807976D01*
X6678928Y-31598452D02*
X6631309Y-31741309D01*
X6755119Y-31741309D01*
X6869405Y-31607976D02*
X6888452Y-31607976D01*
X6907500Y-31617500D01*
X6917024Y-31627024D01*
X6926548Y-31646071D01*
X6936071Y-31684167D01*
X6936071Y-31731786D01*
X6926548Y-31769881D01*
X6917024Y-31788928D01*
X6907500Y-31798452D01*
X6888452Y-31807976D01*
X6869405Y-31807976D01*
X6850357Y-31798452D01*
X6840833Y-31788928D01*
X6831309Y-31769881D01*
X6821786Y-31731786D01*
X6821786Y-31684167D01*
X6831309Y-31646071D01*
X6840833Y-31627024D01*
X6850357Y-31617500D01*
X6869405Y-31607976D01*
X7059881Y-31607976D02*
X7078928Y-31607976D01*
X7097976Y-31617500D01*
X7107500Y-31627024D01*
X7117024Y-31646071D01*
X7126548Y-31684167D01*
X7126548Y-31731786D01*
X7117024Y-31769881D01*
X7107500Y-31788928D01*
X7097976Y-31798452D01*
X7078928Y-31807976D01*
X7059881Y-31807976D01*
X7040833Y-31798452D01*
X7031309Y-31788928D01*
X7021786Y-31769881D01*
X7012262Y-31731786D01*
X7012262Y-31684167D01*
X7021786Y-31646071D01*
X7031309Y-31627024D01*
X7040833Y-31617500D01*
X7059881Y-31607976D01*
X7212262Y-31807976D02*
X7212262Y-31674643D01*
X7212262Y-31693690D02*
X7221786Y-31684167D01*
X7240833Y-31674643D01*
X7269405Y-31674643D01*
X7288452Y-31684167D01*
X7297976Y-31703214D01*
X7297976Y-31807976D01*
X7297976Y-31703214D02*
X7307500Y-31684167D01*
X7326548Y-31674643D01*
X7355119Y-31674643D01*
X7374167Y-31684167D01*
X7383690Y-31703214D01*
X7383690Y-31807976D01*
X7478928Y-31807976D02*
X7478928Y-31674643D01*
X7478928Y-31693690D02*
X7488452Y-31684167D01*
X7507500Y-31674643D01*
X7536071Y-31674643D01*
X7555119Y-31684167D01*
X7564643Y-31703214D01*
X7564643Y-31807976D01*
X7564643Y-31703214D02*
X7574167Y-31684167D01*
X7593214Y-31674643D01*
X7621786Y-31674643D01*
X7640833Y-31684167D01*
X7650357Y-31703214D01*
X7650357Y-31807976D01*
X8040833Y-31598452D02*
X7869405Y-31855595D01*
X8297976Y-31607976D02*
X8317024Y-31607976D01*
X8336071Y-31617500D01*
X8345595Y-31627024D01*
X8355119Y-31646071D01*
X8364643Y-31684167D01*
X8364643Y-31731786D01*
X8355119Y-31769881D01*
X8345595Y-31788928D01*
X8336071Y-31798452D01*
X8317024Y-31807976D01*
X8297976Y-31807976D01*
X8278928Y-31798452D01*
X8269405Y-31788928D01*
X8259881Y-31769881D01*
X8250357Y-31731786D01*
X8250357Y-31684167D01*
X8259881Y-31646071D01*
X8269405Y-31627024D01*
X8278928Y-31617500D01*
X8297976Y-31607976D01*
X8450357Y-31788928D02*
X8459881Y-31798452D01*
X8450357Y-31807976D01*
X8440833Y-31798452D01*
X8450357Y-31788928D01*
X8450357Y-31807976D01*
X8583690Y-31607976D02*
X8602738Y-31607976D01*
X8621786Y-31617500D01*
X8631310Y-31627024D01*
X8640833Y-31646071D01*
X8650357Y-31684167D01*
X8650357Y-31731786D01*
X8640833Y-31769881D01*
X8631310Y-31788928D01*
X8621786Y-31798452D01*
X8602738Y-31807976D01*
X8583690Y-31807976D01*
X8564643Y-31798452D01*
X8555119Y-31788928D01*
X8545595Y-31769881D01*
X8536071Y-31731786D01*
X8536071Y-31684167D01*
X8545595Y-31646071D01*
X8555119Y-31627024D01*
X8564643Y-31617500D01*
X8583690Y-31607976D01*
X8840833Y-31807976D02*
X8726548Y-31807976D01*
X8783690Y-31807976D02*
X8783690Y-31607976D01*
X8764643Y-31636548D01*
X8745595Y-31655595D01*
X8726548Y-31665119D01*
X9021786Y-31607976D02*
X8926548Y-31607976D01*
X8917024Y-31703214D01*
X8926548Y-31693690D01*
X8945595Y-31684167D01*
X8993214Y-31684167D01*
X9012262Y-31693690D01*
X9021786Y-31703214D01*
X9031310Y-31722262D01*
X9031310Y-31769881D01*
X9021786Y-31788928D01*
X9012262Y-31798452D01*
X8993214Y-31807976D01*
X8945595Y-31807976D01*
X8926548Y-31798452D01*
X8917024Y-31788928D01*
X9097976Y-31607976D02*
X9231310Y-31607976D01*
X9145595Y-31807976D01*
X9297976Y-31607976D02*
X9297976Y-31646071D01*
X9374167Y-31607976D02*
X9374167Y-31646071D01*
X9669405Y-31884167D02*
X9659881Y-31874643D01*
X9640833Y-31846071D01*
X9631310Y-31827024D01*
X9621786Y-31798452D01*
X9612262Y-31750833D01*
X9612262Y-31712738D01*
X9621786Y-31665119D01*
X9631310Y-31636548D01*
X9640833Y-31617500D01*
X9659881Y-31588928D01*
X9669405Y-31579405D01*
X9850357Y-31807976D02*
X9736071Y-31807976D01*
X9793214Y-31807976D02*
X9793214Y-31607976D01*
X9774167Y-31636548D01*
X9755119Y-31655595D01*
X9736071Y-31665119D01*
X9926548Y-31627024D02*
X9936071Y-31617500D01*
X9955119Y-31607976D01*
X10002738Y-31607976D01*
X10021786Y-31617500D01*
X10031310Y-31627024D01*
X10040833Y-31646071D01*
X10040833Y-31665119D01*
X10031310Y-31693690D01*
X9917024Y-31807976D01*
X10040833Y-31807976D01*
X10278929Y-31807976D02*
X10278929Y-31607976D01*
X10364643Y-31807976D02*
X10364643Y-31703214D01*
X10355119Y-31684167D01*
X10336071Y-31674643D01*
X10307500Y-31674643D01*
X10288452Y-31684167D01*
X10278929Y-31693690D01*
X10488452Y-31807976D02*
X10469405Y-31798452D01*
X10459881Y-31788928D01*
X10450357Y-31769881D01*
X10450357Y-31712738D01*
X10459881Y-31693690D01*
X10469405Y-31684167D01*
X10488452Y-31674643D01*
X10517024Y-31674643D01*
X10536071Y-31684167D01*
X10545595Y-31693690D01*
X10555119Y-31712738D01*
X10555119Y-31769881D01*
X10545595Y-31788928D01*
X10536071Y-31798452D01*
X10517024Y-31807976D01*
X10488452Y-31807976D01*
X10669405Y-31807976D02*
X10650357Y-31798452D01*
X10640833Y-31779405D01*
X10640833Y-31607976D01*
X10821786Y-31798452D02*
X10802738Y-31807976D01*
X10764643Y-31807976D01*
X10745595Y-31798452D01*
X10736071Y-31779405D01*
X10736071Y-31703214D01*
X10745595Y-31684167D01*
X10764643Y-31674643D01*
X10802738Y-31674643D01*
X10821786Y-31684167D01*
X10831310Y-31703214D01*
X10831310Y-31722262D01*
X10736071Y-31741309D01*
X10907500Y-31798452D02*
X10926548Y-31807976D01*
X10964643Y-31807976D01*
X10983690Y-31798452D01*
X10993214Y-31779405D01*
X10993214Y-31769881D01*
X10983690Y-31750833D01*
X10964643Y-31741309D01*
X10936071Y-31741309D01*
X10917024Y-31731786D01*
X10907500Y-31712738D01*
X10907500Y-31703214D01*
X10917024Y-31684167D01*
X10936071Y-31674643D01*
X10964643Y-31674643D01*
X10983690Y-31684167D01*
X11059881Y-31884167D02*
X11069405Y-31874643D01*
X11088452Y-31846071D01*
X11097976Y-31827024D01*
X11107500Y-31798452D01*
X11117024Y-31750833D01*
X11117024Y-31712738D01*
X11107500Y-31665119D01*
X11097976Y-31636548D01*
X11088452Y-31617500D01*
X11069405Y-31588928D01*
X11059881Y-31579405D01*
D13*
X6097500Y-31981500D02*
G75*
G03*
X6097500Y-31981500I-35000J0D01*
G01*
D11*
X6393214Y-31871976D02*
X6412262Y-31871976D01*
X6431309Y-31881500D01*
X6440833Y-31891024D01*
X6450357Y-31910071D01*
X6459881Y-31948167D01*
X6459881Y-31995786D01*
X6450357Y-32033881D01*
X6440833Y-32052928D01*
X6431309Y-32062452D01*
X6412262Y-32071976D01*
X6393214Y-32071976D01*
X6374167Y-32062452D01*
X6364643Y-32052928D01*
X6355119Y-32033881D01*
X6345595Y-31995786D01*
X6345595Y-31948167D01*
X6355119Y-31910071D01*
X6364643Y-31891024D01*
X6374167Y-31881500D01*
X6393214Y-31871976D01*
X6545595Y-32052928D02*
X6555119Y-32062452D01*
X6545595Y-32071976D01*
X6536071Y-32062452D01*
X6545595Y-32052928D01*
X6545595Y-32071976D01*
X6621786Y-31871976D02*
X6755119Y-31871976D01*
X6669405Y-32071976D01*
X6869405Y-31871976D02*
X6888452Y-31871976D01*
X6907500Y-31881500D01*
X6917024Y-31891024D01*
X6926548Y-31910071D01*
X6936071Y-31948167D01*
X6936071Y-31995786D01*
X6926548Y-32033881D01*
X6917024Y-32052928D01*
X6907500Y-32062452D01*
X6888452Y-32071976D01*
X6869405Y-32071976D01*
X6850357Y-32062452D01*
X6840833Y-32052928D01*
X6831309Y-32033881D01*
X6821786Y-31995786D01*
X6821786Y-31948167D01*
X6831309Y-31910071D01*
X6840833Y-31891024D01*
X6850357Y-31881500D01*
X6869405Y-31871976D01*
X7059881Y-31871976D02*
X7078928Y-31871976D01*
X7097976Y-31881500D01*
X7107500Y-31891024D01*
X7117024Y-31910071D01*
X7126548Y-31948167D01*
X7126548Y-31995786D01*
X7117024Y-32033881D01*
X7107500Y-32052928D01*
X7097976Y-32062452D01*
X7078928Y-32071976D01*
X7059881Y-32071976D01*
X7040833Y-32062452D01*
X7031309Y-32052928D01*
X7021786Y-32033881D01*
X7012262Y-31995786D01*
X7012262Y-31948167D01*
X7021786Y-31910071D01*
X7031309Y-31891024D01*
X7040833Y-31881500D01*
X7059881Y-31871976D01*
X7212262Y-32071976D02*
X7212262Y-31938643D01*
X7212262Y-31957690D02*
X7221786Y-31948167D01*
X7240833Y-31938643D01*
X7269405Y-31938643D01*
X7288452Y-31948167D01*
X7297976Y-31967214D01*
X7297976Y-32071976D01*
X7297976Y-31967214D02*
X7307500Y-31948167D01*
X7326548Y-31938643D01*
X7355119Y-31938643D01*
X7374167Y-31948167D01*
X7383690Y-31967214D01*
X7383690Y-32071976D01*
X7478928Y-32071976D02*
X7478928Y-31938643D01*
X7478928Y-31957690D02*
X7488452Y-31948167D01*
X7507500Y-31938643D01*
X7536071Y-31938643D01*
X7555119Y-31948167D01*
X7564643Y-31967214D01*
X7564643Y-32071976D01*
X7564643Y-31967214D02*
X7574167Y-31948167D01*
X7593214Y-31938643D01*
X7621786Y-31938643D01*
X7640833Y-31948167D01*
X7650357Y-31967214D01*
X7650357Y-32071976D01*
X8040833Y-31862452D02*
X7869405Y-32119595D01*
X8297976Y-31871976D02*
X8317024Y-31871976D01*
X8336071Y-31881500D01*
X8345595Y-31891024D01*
X8355119Y-31910071D01*
X8364643Y-31948167D01*
X8364643Y-31995786D01*
X8355119Y-32033881D01*
X8345595Y-32052928D01*
X8336071Y-32062452D01*
X8317024Y-32071976D01*
X8297976Y-32071976D01*
X8278928Y-32062452D01*
X8269405Y-32052928D01*
X8259881Y-32033881D01*
X8250357Y-31995786D01*
X8250357Y-31948167D01*
X8259881Y-31910071D01*
X8269405Y-31891024D01*
X8278928Y-31881500D01*
X8297976Y-31871976D01*
X8450357Y-32052928D02*
X8459881Y-32062452D01*
X8450357Y-32071976D01*
X8440833Y-32062452D01*
X8450357Y-32052928D01*
X8450357Y-32071976D01*
X8583690Y-31871976D02*
X8602738Y-31871976D01*
X8621786Y-31881500D01*
X8631310Y-31891024D01*
X8640833Y-31910071D01*
X8650357Y-31948167D01*
X8650357Y-31995786D01*
X8640833Y-32033881D01*
X8631310Y-32052928D01*
X8621786Y-32062452D01*
X8602738Y-32071976D01*
X8583690Y-32071976D01*
X8564643Y-32062452D01*
X8555119Y-32052928D01*
X8545595Y-32033881D01*
X8536071Y-31995786D01*
X8536071Y-31948167D01*
X8545595Y-31910071D01*
X8555119Y-31891024D01*
X8564643Y-31881500D01*
X8583690Y-31871976D01*
X8726548Y-31891024D02*
X8736071Y-31881500D01*
X8755119Y-31871976D01*
X8802738Y-31871976D01*
X8821786Y-31881500D01*
X8831310Y-31891024D01*
X8840833Y-31910071D01*
X8840833Y-31929119D01*
X8831310Y-31957690D01*
X8717024Y-32071976D01*
X8840833Y-32071976D01*
X8907500Y-31871976D02*
X9040833Y-31871976D01*
X8955119Y-32071976D01*
X9202738Y-31871976D02*
X9164643Y-31871976D01*
X9145595Y-31881500D01*
X9136071Y-31891024D01*
X9117024Y-31919595D01*
X9107500Y-31957690D01*
X9107500Y-32033881D01*
X9117024Y-32052928D01*
X9126548Y-32062452D01*
X9145595Y-32071976D01*
X9183690Y-32071976D01*
X9202738Y-32062452D01*
X9212262Y-32052928D01*
X9221786Y-32033881D01*
X9221786Y-31986262D01*
X9212262Y-31967214D01*
X9202738Y-31957690D01*
X9183690Y-31948167D01*
X9145595Y-31948167D01*
X9126548Y-31957690D01*
X9117024Y-31967214D01*
X9107500Y-31986262D01*
X9297976Y-31871976D02*
X9297976Y-31910071D01*
X9374167Y-31871976D02*
X9374167Y-31910071D01*
X9669405Y-32148167D02*
X9659881Y-32138643D01*
X9640833Y-32110071D01*
X9631310Y-32091024D01*
X9621786Y-32062452D01*
X9612262Y-32014833D01*
X9612262Y-31976738D01*
X9621786Y-31929119D01*
X9631310Y-31900548D01*
X9640833Y-31881500D01*
X9659881Y-31852928D01*
X9669405Y-31843405D01*
X9736071Y-31891024D02*
X9745595Y-31881500D01*
X9764643Y-31871976D01*
X9812262Y-31871976D01*
X9831310Y-31881500D01*
X9840833Y-31891024D01*
X9850357Y-31910071D01*
X9850357Y-31929119D01*
X9840833Y-31957690D01*
X9726548Y-32071976D01*
X9850357Y-32071976D01*
X10088452Y-32071976D02*
X10088452Y-31871976D01*
X10174167Y-32071976D02*
X10174167Y-31967214D01*
X10164643Y-31948167D01*
X10145595Y-31938643D01*
X10117024Y-31938643D01*
X10097976Y-31948167D01*
X10088452Y-31957690D01*
X10297976Y-32071976D02*
X10278929Y-32062452D01*
X10269405Y-32052928D01*
X10259881Y-32033881D01*
X10259881Y-31976738D01*
X10269405Y-31957690D01*
X10278929Y-31948167D01*
X10297976Y-31938643D01*
X10326548Y-31938643D01*
X10345595Y-31948167D01*
X10355119Y-31957690D01*
X10364643Y-31976738D01*
X10364643Y-32033881D01*
X10355119Y-32052928D01*
X10345595Y-32062452D01*
X10326548Y-32071976D01*
X10297976Y-32071976D01*
X10478929Y-32071976D02*
X10459881Y-32062452D01*
X10450357Y-32043405D01*
X10450357Y-31871976D01*
X10631310Y-32062452D02*
X10612262Y-32071976D01*
X10574167Y-32071976D01*
X10555119Y-32062452D01*
X10545595Y-32043405D01*
X10545595Y-31967214D01*
X10555119Y-31948167D01*
X10574167Y-31938643D01*
X10612262Y-31938643D01*
X10631310Y-31948167D01*
X10640833Y-31967214D01*
X10640833Y-31986262D01*
X10545595Y-32005309D01*
X10717024Y-32062452D02*
X10736071Y-32071976D01*
X10774167Y-32071976D01*
X10793214Y-32062452D01*
X10802738Y-32043405D01*
X10802738Y-32033881D01*
X10793214Y-32014833D01*
X10774167Y-32005309D01*
X10745595Y-32005309D01*
X10726548Y-31995786D01*
X10717024Y-31976738D01*
X10717024Y-31967214D01*
X10726548Y-31948167D01*
X10745595Y-31938643D01*
X10774167Y-31938643D01*
X10793214Y-31948167D01*
X10869405Y-32148167D02*
X10878929Y-32138643D01*
X10897976Y-32110071D01*
X10907500Y-32091024D01*
X10917024Y-32062452D01*
X10926548Y-32014833D01*
X10926548Y-31976738D01*
X10917024Y-31929119D01*
X10907500Y-31900548D01*
X10897976Y-31881500D01*
X10878929Y-31852928D01*
X10869405Y-31843405D01*
D14*
X6052500Y-32200500D02*
X6052500Y-32290500D01*
X6007500Y-32245500D02*
X6097500Y-32245500D01*
D11*
X6393214Y-32135976D02*
X6412262Y-32135976D01*
X6431309Y-32145500D01*
X6440833Y-32155024D01*
X6450357Y-32174071D01*
X6459881Y-32212167D01*
X6459881Y-32259786D01*
X6450357Y-32297881D01*
X6440833Y-32316928D01*
X6431309Y-32326452D01*
X6412262Y-32335976D01*
X6393214Y-32335976D01*
X6374167Y-32326452D01*
X6364643Y-32316928D01*
X6355119Y-32297881D01*
X6345595Y-32259786D01*
X6345595Y-32212167D01*
X6355119Y-32174071D01*
X6364643Y-32155024D01*
X6374167Y-32145500D01*
X6393214Y-32135976D01*
X6545595Y-32316928D02*
X6555119Y-32326452D01*
X6545595Y-32335976D01*
X6536071Y-32326452D01*
X6545595Y-32316928D01*
X6545595Y-32335976D01*
X6650357Y-32335976D02*
X6688452Y-32335976D01*
X6707500Y-32326452D01*
X6717024Y-32316928D01*
X6736071Y-32288357D01*
X6745595Y-32250262D01*
X6745595Y-32174071D01*
X6736071Y-32155024D01*
X6726548Y-32145500D01*
X6707500Y-32135976D01*
X6669405Y-32135976D01*
X6650357Y-32145500D01*
X6640833Y-32155024D01*
X6631309Y-32174071D01*
X6631309Y-32221690D01*
X6640833Y-32240738D01*
X6650357Y-32250262D01*
X6669405Y-32259786D01*
X6707500Y-32259786D01*
X6726548Y-32250262D01*
X6736071Y-32240738D01*
X6745595Y-32221690D01*
X6869405Y-32135976D02*
X6888452Y-32135976D01*
X6907500Y-32145500D01*
X6917024Y-32155024D01*
X6926548Y-32174071D01*
X6936071Y-32212167D01*
X6936071Y-32259786D01*
X6926548Y-32297881D01*
X6917024Y-32316928D01*
X6907500Y-32326452D01*
X6888452Y-32335976D01*
X6869405Y-32335976D01*
X6850357Y-32326452D01*
X6840833Y-32316928D01*
X6831309Y-32297881D01*
X6821786Y-32259786D01*
X6821786Y-32212167D01*
X6831309Y-32174071D01*
X6840833Y-32155024D01*
X6850357Y-32145500D01*
X6869405Y-32135976D01*
X7059881Y-32135976D02*
X7078928Y-32135976D01*
X7097976Y-32145500D01*
X7107500Y-32155024D01*
X7117024Y-32174071D01*
X7126548Y-32212167D01*
X7126548Y-32259786D01*
X7117024Y-32297881D01*
X7107500Y-32316928D01*
X7097976Y-32326452D01*
X7078928Y-32335976D01*
X7059881Y-32335976D01*
X7040833Y-32326452D01*
X7031309Y-32316928D01*
X7021786Y-32297881D01*
X7012262Y-32259786D01*
X7012262Y-32212167D01*
X7021786Y-32174071D01*
X7031309Y-32155024D01*
X7040833Y-32145500D01*
X7059881Y-32135976D01*
X7212262Y-32335976D02*
X7212262Y-32202643D01*
X7212262Y-32221690D02*
X7221786Y-32212167D01*
X7240833Y-32202643D01*
X7269405Y-32202643D01*
X7288452Y-32212167D01*
X7297976Y-32231214D01*
X7297976Y-32335976D01*
X7297976Y-32231214D02*
X7307500Y-32212167D01*
X7326548Y-32202643D01*
X7355119Y-32202643D01*
X7374167Y-32212167D01*
X7383690Y-32231214D01*
X7383690Y-32335976D01*
X7478928Y-32335976D02*
X7478928Y-32202643D01*
X7478928Y-32221690D02*
X7488452Y-32212167D01*
X7507500Y-32202643D01*
X7536071Y-32202643D01*
X7555119Y-32212167D01*
X7564643Y-32231214D01*
X7564643Y-32335976D01*
X7564643Y-32231214D02*
X7574167Y-32212167D01*
X7593214Y-32202643D01*
X7621786Y-32202643D01*
X7640833Y-32212167D01*
X7650357Y-32231214D01*
X7650357Y-32335976D01*
X8040833Y-32126452D02*
X7869405Y-32383595D01*
X8297976Y-32135976D02*
X8317024Y-32135976D01*
X8336071Y-32145500D01*
X8345595Y-32155024D01*
X8355119Y-32174071D01*
X8364643Y-32212167D01*
X8364643Y-32259786D01*
X8355119Y-32297881D01*
X8345595Y-32316928D01*
X8336071Y-32326452D01*
X8317024Y-32335976D01*
X8297976Y-32335976D01*
X8278928Y-32326452D01*
X8269405Y-32316928D01*
X8259881Y-32297881D01*
X8250357Y-32259786D01*
X8250357Y-32212167D01*
X8259881Y-32174071D01*
X8269405Y-32155024D01*
X8278928Y-32145500D01*
X8297976Y-32135976D01*
X8450357Y-32316928D02*
X8459881Y-32326452D01*
X8450357Y-32335976D01*
X8440833Y-32326452D01*
X8450357Y-32316928D01*
X8450357Y-32335976D01*
X8583690Y-32135976D02*
X8602738Y-32135976D01*
X8621786Y-32145500D01*
X8631310Y-32155024D01*
X8640833Y-32174071D01*
X8650357Y-32212167D01*
X8650357Y-32259786D01*
X8640833Y-32297881D01*
X8631310Y-32316928D01*
X8621786Y-32326452D01*
X8602738Y-32335976D01*
X8583690Y-32335976D01*
X8564643Y-32326452D01*
X8555119Y-32316928D01*
X8545595Y-32297881D01*
X8536071Y-32259786D01*
X8536071Y-32212167D01*
X8545595Y-32174071D01*
X8555119Y-32155024D01*
X8564643Y-32145500D01*
X8583690Y-32135976D01*
X8717024Y-32135976D02*
X8840833Y-32135976D01*
X8774167Y-32212167D01*
X8802738Y-32212167D01*
X8821786Y-32221690D01*
X8831310Y-32231214D01*
X8840833Y-32250262D01*
X8840833Y-32297881D01*
X8831310Y-32316928D01*
X8821786Y-32326452D01*
X8802738Y-32335976D01*
X8745595Y-32335976D01*
X8726548Y-32326452D01*
X8717024Y-32316928D01*
X9021786Y-32135976D02*
X8926548Y-32135976D01*
X8917024Y-32231214D01*
X8926548Y-32221690D01*
X8945595Y-32212167D01*
X8993214Y-32212167D01*
X9012262Y-32221690D01*
X9021786Y-32231214D01*
X9031310Y-32250262D01*
X9031310Y-32297881D01*
X9021786Y-32316928D01*
X9012262Y-32326452D01*
X8993214Y-32335976D01*
X8945595Y-32335976D01*
X8926548Y-32326452D01*
X8917024Y-32316928D01*
X9202738Y-32202643D02*
X9202738Y-32335976D01*
X9155119Y-32126452D02*
X9107500Y-32269309D01*
X9231310Y-32269309D01*
X9297976Y-32135976D02*
X9297976Y-32174071D01*
X9374167Y-32135976D02*
X9374167Y-32174071D01*
X9669405Y-32412167D02*
X9659881Y-32402643D01*
X9640833Y-32374071D01*
X9631310Y-32355024D01*
X9621786Y-32326452D01*
X9612262Y-32278833D01*
X9612262Y-32240738D01*
X9621786Y-32193119D01*
X9631310Y-32164548D01*
X9640833Y-32145500D01*
X9659881Y-32116928D01*
X9669405Y-32107405D01*
X9850357Y-32335976D02*
X9736071Y-32335976D01*
X9793214Y-32335976D02*
X9793214Y-32135976D01*
X9774167Y-32164548D01*
X9755119Y-32183595D01*
X9736071Y-32193119D01*
X10021786Y-32135976D02*
X9983690Y-32135976D01*
X9964643Y-32145500D01*
X9955119Y-32155024D01*
X9936071Y-32183595D01*
X9926548Y-32221690D01*
X9926548Y-32297881D01*
X9936071Y-32316928D01*
X9945595Y-32326452D01*
X9964643Y-32335976D01*
X10002738Y-32335976D01*
X10021786Y-32326452D01*
X10031310Y-32316928D01*
X10040833Y-32297881D01*
X10040833Y-32250262D01*
X10031310Y-32231214D01*
X10021786Y-32221690D01*
X10002738Y-32212167D01*
X9964643Y-32212167D01*
X9945595Y-32221690D01*
X9936071Y-32231214D01*
X9926548Y-32250262D01*
X10164643Y-32135976D02*
X10183690Y-32135976D01*
X10202738Y-32145500D01*
X10212262Y-32155024D01*
X10221786Y-32174071D01*
X10231310Y-32212167D01*
X10231310Y-32259786D01*
X10221786Y-32297881D01*
X10212262Y-32316928D01*
X10202738Y-32326452D01*
X10183690Y-32335976D01*
X10164643Y-32335976D01*
X10145595Y-32326452D01*
X10136071Y-32316928D01*
X10126548Y-32297881D01*
X10117024Y-32259786D01*
X10117024Y-32212167D01*
X10126548Y-32174071D01*
X10136071Y-32155024D01*
X10145595Y-32145500D01*
X10164643Y-32135976D01*
X10469405Y-32335976D02*
X10469405Y-32135976D01*
X10555119Y-32335976D02*
X10555119Y-32231214D01*
X10545595Y-32212167D01*
X10526548Y-32202643D01*
X10497976Y-32202643D01*
X10478929Y-32212167D01*
X10469405Y-32221690D01*
X10678929Y-32335976D02*
X10659881Y-32326452D01*
X10650357Y-32316928D01*
X10640833Y-32297881D01*
X10640833Y-32240738D01*
X10650357Y-32221690D01*
X10659881Y-32212167D01*
X10678929Y-32202643D01*
X10707500Y-32202643D01*
X10726548Y-32212167D01*
X10736071Y-32221690D01*
X10745595Y-32240738D01*
X10745595Y-32297881D01*
X10736071Y-32316928D01*
X10726548Y-32326452D01*
X10707500Y-32335976D01*
X10678929Y-32335976D01*
X10859881Y-32335976D02*
X10840833Y-32326452D01*
X10831310Y-32307405D01*
X10831310Y-32135976D01*
X11012262Y-32326452D02*
X10993214Y-32335976D01*
X10955119Y-32335976D01*
X10936071Y-32326452D01*
X10926548Y-32307405D01*
X10926548Y-32231214D01*
X10936071Y-32212167D01*
X10955119Y-32202643D01*
X10993214Y-32202643D01*
X11012262Y-32212167D01*
X11021786Y-32231214D01*
X11021786Y-32250262D01*
X10926548Y-32269309D01*
X11097976Y-32326452D02*
X11117024Y-32335976D01*
X11155119Y-32335976D01*
X11174167Y-32326452D01*
X11183690Y-32307405D01*
X11183690Y-32297881D01*
X11174167Y-32278833D01*
X11155119Y-32269309D01*
X11126548Y-32269309D01*
X11107500Y-32259786D01*
X11097976Y-32240738D01*
X11097976Y-32231214D01*
X11107500Y-32212167D01*
X11126548Y-32202643D01*
X11155119Y-32202643D01*
X11174167Y-32212167D01*
X11250357Y-32412167D02*
X11259881Y-32402643D01*
X11278928Y-32374071D01*
X11288452Y-32355024D01*
X11297976Y-32326452D01*
X11307500Y-32278833D01*
X11307500Y-32240738D01*
X11297976Y-32193119D01*
X11288452Y-32164548D01*
X11278928Y-32145500D01*
X11259881Y-32116928D01*
X11250357Y-32107405D01*
D15*
X6082856Y-32544856D02*
X6082856Y-32474144D01*
X6012144Y-32474144D01*
X6012144Y-32544856D01*
X6082856Y-32544856D01*
D11*
X6459881Y-32599976D02*
X6345595Y-32599976D01*
X6402738Y-32599976D02*
X6402738Y-32399976D01*
X6383690Y-32428548D01*
X6364643Y-32447595D01*
X6345595Y-32457119D01*
X6545595Y-32580928D02*
X6555119Y-32590452D01*
X6545595Y-32599976D01*
X6536071Y-32590452D01*
X6545595Y-32580928D01*
X6545595Y-32599976D01*
X6678928Y-32399976D02*
X6697976Y-32399976D01*
X6717024Y-32409500D01*
X6726548Y-32419024D01*
X6736071Y-32438071D01*
X6745595Y-32476167D01*
X6745595Y-32523786D01*
X6736071Y-32561881D01*
X6726548Y-32580928D01*
X6717024Y-32590452D01*
X6697976Y-32599976D01*
X6678928Y-32599976D01*
X6659881Y-32590452D01*
X6650357Y-32580928D01*
X6640833Y-32561881D01*
X6631309Y-32523786D01*
X6631309Y-32476167D01*
X6640833Y-32438071D01*
X6650357Y-32419024D01*
X6659881Y-32409500D01*
X6678928Y-32399976D01*
X6869405Y-32399976D02*
X6888452Y-32399976D01*
X6907500Y-32409500D01*
X6917024Y-32419024D01*
X6926548Y-32438071D01*
X6936071Y-32476167D01*
X6936071Y-32523786D01*
X6926548Y-32561881D01*
X6917024Y-32580928D01*
X6907500Y-32590452D01*
X6888452Y-32599976D01*
X6869405Y-32599976D01*
X6850357Y-32590452D01*
X6840833Y-32580928D01*
X6831309Y-32561881D01*
X6821786Y-32523786D01*
X6821786Y-32476167D01*
X6831309Y-32438071D01*
X6840833Y-32419024D01*
X6850357Y-32409500D01*
X6869405Y-32399976D01*
X7059881Y-32399976D02*
X7078928Y-32399976D01*
X7097976Y-32409500D01*
X7107500Y-32419024D01*
X7117024Y-32438071D01*
X7126548Y-32476167D01*
X7126548Y-32523786D01*
X7117024Y-32561881D01*
X7107500Y-32580928D01*
X7097976Y-32590452D01*
X7078928Y-32599976D01*
X7059881Y-32599976D01*
X7040833Y-32590452D01*
X7031309Y-32580928D01*
X7021786Y-32561881D01*
X7012262Y-32523786D01*
X7012262Y-32476167D01*
X7021786Y-32438071D01*
X7031309Y-32419024D01*
X7040833Y-32409500D01*
X7059881Y-32399976D01*
X7212262Y-32599976D02*
X7212262Y-32466643D01*
X7212262Y-32485690D02*
X7221786Y-32476167D01*
X7240833Y-32466643D01*
X7269405Y-32466643D01*
X7288452Y-32476167D01*
X7297976Y-32495214D01*
X7297976Y-32599976D01*
X7297976Y-32495214D02*
X7307500Y-32476167D01*
X7326548Y-32466643D01*
X7355119Y-32466643D01*
X7374167Y-32476167D01*
X7383690Y-32495214D01*
X7383690Y-32599976D01*
X7478928Y-32599976D02*
X7478928Y-32466643D01*
X7478928Y-32485690D02*
X7488452Y-32476167D01*
X7507500Y-32466643D01*
X7536071Y-32466643D01*
X7555119Y-32476167D01*
X7564643Y-32495214D01*
X7564643Y-32599976D01*
X7564643Y-32495214D02*
X7574167Y-32476167D01*
X7593214Y-32466643D01*
X7621786Y-32466643D01*
X7640833Y-32476167D01*
X7650357Y-32495214D01*
X7650357Y-32599976D01*
X8040833Y-32390452D02*
X7869405Y-32647595D01*
X8297976Y-32399976D02*
X8317024Y-32399976D01*
X8336071Y-32409500D01*
X8345595Y-32419024D01*
X8355119Y-32438071D01*
X8364643Y-32476167D01*
X8364643Y-32523786D01*
X8355119Y-32561881D01*
X8345595Y-32580928D01*
X8336071Y-32590452D01*
X8317024Y-32599976D01*
X8297976Y-32599976D01*
X8278928Y-32590452D01*
X8269405Y-32580928D01*
X8259881Y-32561881D01*
X8250357Y-32523786D01*
X8250357Y-32476167D01*
X8259881Y-32438071D01*
X8269405Y-32419024D01*
X8278928Y-32409500D01*
X8297976Y-32399976D01*
X8450357Y-32580928D02*
X8459881Y-32590452D01*
X8450357Y-32599976D01*
X8440833Y-32590452D01*
X8450357Y-32580928D01*
X8450357Y-32599976D01*
X8583690Y-32399976D02*
X8602738Y-32399976D01*
X8621786Y-32409500D01*
X8631310Y-32419024D01*
X8640833Y-32438071D01*
X8650357Y-32476167D01*
X8650357Y-32523786D01*
X8640833Y-32561881D01*
X8631310Y-32580928D01*
X8621786Y-32590452D01*
X8602738Y-32599976D01*
X8583690Y-32599976D01*
X8564643Y-32590452D01*
X8555119Y-32580928D01*
X8545595Y-32561881D01*
X8536071Y-32523786D01*
X8536071Y-32476167D01*
X8545595Y-32438071D01*
X8555119Y-32419024D01*
X8564643Y-32409500D01*
X8583690Y-32399976D01*
X8717024Y-32399976D02*
X8840833Y-32399976D01*
X8774167Y-32476167D01*
X8802738Y-32476167D01*
X8821786Y-32485690D01*
X8831310Y-32495214D01*
X8840833Y-32514262D01*
X8840833Y-32561881D01*
X8831310Y-32580928D01*
X8821786Y-32590452D01*
X8802738Y-32599976D01*
X8745595Y-32599976D01*
X8726548Y-32590452D01*
X8717024Y-32580928D01*
X8936071Y-32599976D02*
X8974167Y-32599976D01*
X8993214Y-32590452D01*
X9002738Y-32580928D01*
X9021786Y-32552357D01*
X9031310Y-32514262D01*
X9031310Y-32438071D01*
X9021786Y-32419024D01*
X9012262Y-32409500D01*
X8993214Y-32399976D01*
X8955119Y-32399976D01*
X8936071Y-32409500D01*
X8926548Y-32419024D01*
X8917024Y-32438071D01*
X8917024Y-32485690D01*
X8926548Y-32504738D01*
X8936071Y-32514262D01*
X8955119Y-32523786D01*
X8993214Y-32523786D01*
X9012262Y-32514262D01*
X9021786Y-32504738D01*
X9031310Y-32485690D01*
X9202738Y-32466643D02*
X9202738Y-32599976D01*
X9155119Y-32390452D02*
X9107500Y-32533309D01*
X9231310Y-32533309D01*
X9297976Y-32399976D02*
X9297976Y-32438071D01*
X9374167Y-32399976D02*
X9374167Y-32438071D01*
X9669405Y-32676167D02*
X9659881Y-32666643D01*
X9640833Y-32638071D01*
X9631310Y-32619024D01*
X9621786Y-32590452D01*
X9612262Y-32542833D01*
X9612262Y-32504738D01*
X9621786Y-32457119D01*
X9631310Y-32428548D01*
X9640833Y-32409500D01*
X9659881Y-32380928D01*
X9669405Y-32371405D01*
X9736071Y-32419024D02*
X9745595Y-32409500D01*
X9764643Y-32399976D01*
X9812262Y-32399976D01*
X9831310Y-32409500D01*
X9840833Y-32419024D01*
X9850357Y-32438071D01*
X9850357Y-32457119D01*
X9840833Y-32485690D01*
X9726548Y-32599976D01*
X9850357Y-32599976D01*
X9926548Y-32419024D02*
X9936071Y-32409500D01*
X9955119Y-32399976D01*
X10002738Y-32399976D01*
X10021786Y-32409500D01*
X10031310Y-32419024D01*
X10040833Y-32438071D01*
X10040833Y-32457119D01*
X10031310Y-32485690D01*
X9917024Y-32599976D01*
X10040833Y-32599976D01*
X10278929Y-32599976D02*
X10278929Y-32399976D01*
X10364643Y-32599976D02*
X10364643Y-32495214D01*
X10355119Y-32476167D01*
X10336071Y-32466643D01*
X10307500Y-32466643D01*
X10288452Y-32476167D01*
X10278929Y-32485690D01*
X10488452Y-32599976D02*
X10469405Y-32590452D01*
X10459881Y-32580928D01*
X10450357Y-32561881D01*
X10450357Y-32504738D01*
X10459881Y-32485690D01*
X10469405Y-32476167D01*
X10488452Y-32466643D01*
X10517024Y-32466643D01*
X10536071Y-32476167D01*
X10545595Y-32485690D01*
X10555119Y-32504738D01*
X10555119Y-32561881D01*
X10545595Y-32580928D01*
X10536071Y-32590452D01*
X10517024Y-32599976D01*
X10488452Y-32599976D01*
X10669405Y-32599976D02*
X10650357Y-32590452D01*
X10640833Y-32571405D01*
X10640833Y-32399976D01*
X10821786Y-32590452D02*
X10802738Y-32599976D01*
X10764643Y-32599976D01*
X10745595Y-32590452D01*
X10736071Y-32571405D01*
X10736071Y-32495214D01*
X10745595Y-32476167D01*
X10764643Y-32466643D01*
X10802738Y-32466643D01*
X10821786Y-32476167D01*
X10831310Y-32495214D01*
X10831310Y-32514262D01*
X10736071Y-32533309D01*
X10907500Y-32590452D02*
X10926548Y-32599976D01*
X10964643Y-32599976D01*
X10983690Y-32590452D01*
X10993214Y-32571405D01*
X10993214Y-32561881D01*
X10983690Y-32542833D01*
X10964643Y-32533309D01*
X10936071Y-32533309D01*
X10917024Y-32523786D01*
X10907500Y-32504738D01*
X10907500Y-32495214D01*
X10917024Y-32476167D01*
X10936071Y-32466643D01*
X10964643Y-32466643D01*
X10983690Y-32476167D01*
X11059881Y-32676167D02*
X11069405Y-32666643D01*
X11088452Y-32638071D01*
X11097976Y-32619024D01*
X11107500Y-32590452D01*
X11117024Y-32542833D01*
X11117024Y-32504738D01*
X11107500Y-32457119D01*
X11097976Y-32428548D01*
X11088452Y-32409500D01*
X11069405Y-32380928D01*
X11059881Y-32371405D01*
D16*
X6042890Y-32828110D02*
X6097500Y-32773500D01*
X6042890Y-32718890D01*
X5988280Y-32773500D01*
X6042890Y-32828110D01*
D11*
X6459881Y-32863976D02*
X6345595Y-32863976D01*
X6402738Y-32863976D02*
X6402738Y-32663976D01*
X6383690Y-32692548D01*
X6364643Y-32711595D01*
X6345595Y-32721119D01*
X6545595Y-32844928D02*
X6555119Y-32854452D01*
X6545595Y-32863976D01*
X6536071Y-32854452D01*
X6545595Y-32844928D01*
X6545595Y-32863976D01*
X6678928Y-32663976D02*
X6697976Y-32663976D01*
X6717024Y-32673500D01*
X6726548Y-32683024D01*
X6736071Y-32702071D01*
X6745595Y-32740167D01*
X6745595Y-32787786D01*
X6736071Y-32825881D01*
X6726548Y-32844928D01*
X6717024Y-32854452D01*
X6697976Y-32863976D01*
X6678928Y-32863976D01*
X6659881Y-32854452D01*
X6650357Y-32844928D01*
X6640833Y-32825881D01*
X6631309Y-32787786D01*
X6631309Y-32740167D01*
X6640833Y-32702071D01*
X6650357Y-32683024D01*
X6659881Y-32673500D01*
X6678928Y-32663976D01*
X6840833Y-32863976D02*
X6878928Y-32863976D01*
X6897976Y-32854452D01*
X6907500Y-32844928D01*
X6926548Y-32816357D01*
X6936071Y-32778262D01*
X6936071Y-32702071D01*
X6926548Y-32683024D01*
X6917024Y-32673500D01*
X6897976Y-32663976D01*
X6859881Y-32663976D01*
X6840833Y-32673500D01*
X6831309Y-32683024D01*
X6821786Y-32702071D01*
X6821786Y-32749690D01*
X6831309Y-32768738D01*
X6840833Y-32778262D01*
X6859881Y-32787786D01*
X6897976Y-32787786D01*
X6917024Y-32778262D01*
X6926548Y-32768738D01*
X6936071Y-32749690D01*
X7012262Y-32683024D02*
X7021786Y-32673500D01*
X7040833Y-32663976D01*
X7088452Y-32663976D01*
X7107500Y-32673500D01*
X7117024Y-32683024D01*
X7126548Y-32702071D01*
X7126548Y-32721119D01*
X7117024Y-32749690D01*
X7002738Y-32863976D01*
X7126548Y-32863976D01*
X7212262Y-32863976D02*
X7212262Y-32730643D01*
X7212262Y-32749690D02*
X7221786Y-32740167D01*
X7240833Y-32730643D01*
X7269405Y-32730643D01*
X7288452Y-32740167D01*
X7297976Y-32759214D01*
X7297976Y-32863976D01*
X7297976Y-32759214D02*
X7307500Y-32740167D01*
X7326548Y-32730643D01*
X7355119Y-32730643D01*
X7374167Y-32740167D01*
X7383690Y-32759214D01*
X7383690Y-32863976D01*
X7478928Y-32863976D02*
X7478928Y-32730643D01*
X7478928Y-32749690D02*
X7488452Y-32740167D01*
X7507500Y-32730643D01*
X7536071Y-32730643D01*
X7555119Y-32740167D01*
X7564643Y-32759214D01*
X7564643Y-32863976D01*
X7564643Y-32759214D02*
X7574167Y-32740167D01*
X7593214Y-32730643D01*
X7621786Y-32730643D01*
X7640833Y-32740167D01*
X7650357Y-32759214D01*
X7650357Y-32863976D01*
X8040833Y-32654452D02*
X7869405Y-32911595D01*
X8297976Y-32663976D02*
X8317024Y-32663976D01*
X8336071Y-32673500D01*
X8345595Y-32683024D01*
X8355119Y-32702071D01*
X8364643Y-32740167D01*
X8364643Y-32787786D01*
X8355119Y-32825881D01*
X8345595Y-32844928D01*
X8336071Y-32854452D01*
X8317024Y-32863976D01*
X8297976Y-32863976D01*
X8278928Y-32854452D01*
X8269405Y-32844928D01*
X8259881Y-32825881D01*
X8250357Y-32787786D01*
X8250357Y-32740167D01*
X8259881Y-32702071D01*
X8269405Y-32683024D01*
X8278928Y-32673500D01*
X8297976Y-32663976D01*
X8450357Y-32844928D02*
X8459881Y-32854452D01*
X8450357Y-32863976D01*
X8440833Y-32854452D01*
X8450357Y-32844928D01*
X8450357Y-32863976D01*
X8583690Y-32663976D02*
X8602738Y-32663976D01*
X8621786Y-32673500D01*
X8631310Y-32683024D01*
X8640833Y-32702071D01*
X8650357Y-32740167D01*
X8650357Y-32787786D01*
X8640833Y-32825881D01*
X8631310Y-32844928D01*
X8621786Y-32854452D01*
X8602738Y-32863976D01*
X8583690Y-32863976D01*
X8564643Y-32854452D01*
X8555119Y-32844928D01*
X8545595Y-32825881D01*
X8536071Y-32787786D01*
X8536071Y-32740167D01*
X8545595Y-32702071D01*
X8555119Y-32683024D01*
X8564643Y-32673500D01*
X8583690Y-32663976D01*
X8821786Y-32730643D02*
X8821786Y-32863976D01*
X8774167Y-32654452D02*
X8726548Y-32797309D01*
X8850357Y-32797309D01*
X8907500Y-32663976D02*
X9031310Y-32663976D01*
X8964643Y-32740167D01*
X8993214Y-32740167D01*
X9012262Y-32749690D01*
X9021786Y-32759214D01*
X9031310Y-32778262D01*
X9031310Y-32825881D01*
X9021786Y-32844928D01*
X9012262Y-32854452D01*
X8993214Y-32863976D01*
X8936071Y-32863976D01*
X8917024Y-32854452D01*
X8907500Y-32844928D01*
X9155119Y-32663976D02*
X9174167Y-32663976D01*
X9193214Y-32673500D01*
X9202738Y-32683024D01*
X9212262Y-32702071D01*
X9221786Y-32740167D01*
X9221786Y-32787786D01*
X9212262Y-32825881D01*
X9202738Y-32844928D01*
X9193214Y-32854452D01*
X9174167Y-32863976D01*
X9155119Y-32863976D01*
X9136071Y-32854452D01*
X9126548Y-32844928D01*
X9117024Y-32825881D01*
X9107500Y-32787786D01*
X9107500Y-32740167D01*
X9117024Y-32702071D01*
X9126548Y-32683024D01*
X9136071Y-32673500D01*
X9155119Y-32663976D01*
X9297976Y-32663976D02*
X9297976Y-32702071D01*
X9374167Y-32663976D02*
X9374167Y-32702071D01*
X9669405Y-32940167D02*
X9659881Y-32930643D01*
X9640833Y-32902071D01*
X9631310Y-32883024D01*
X9621786Y-32854452D01*
X9612262Y-32806833D01*
X9612262Y-32768738D01*
X9621786Y-32721119D01*
X9631310Y-32692548D01*
X9640833Y-32673500D01*
X9659881Y-32644928D01*
X9669405Y-32635405D01*
X9736071Y-32683024D02*
X9745595Y-32673500D01*
X9764643Y-32663976D01*
X9812262Y-32663976D01*
X9831310Y-32673500D01*
X9840833Y-32683024D01*
X9850357Y-32702071D01*
X9850357Y-32721119D01*
X9840833Y-32749690D01*
X9726548Y-32863976D01*
X9850357Y-32863976D01*
X9945595Y-32863976D02*
X9983690Y-32863976D01*
X10002738Y-32854452D01*
X10012262Y-32844928D01*
X10031310Y-32816357D01*
X10040833Y-32778262D01*
X10040833Y-32702071D01*
X10031310Y-32683024D01*
X10021786Y-32673500D01*
X10002738Y-32663976D01*
X9964643Y-32663976D01*
X9945595Y-32673500D01*
X9936071Y-32683024D01*
X9926548Y-32702071D01*
X9926548Y-32749690D01*
X9936071Y-32768738D01*
X9945595Y-32778262D01*
X9964643Y-32787786D01*
X10002738Y-32787786D01*
X10021786Y-32778262D01*
X10031310Y-32768738D01*
X10040833Y-32749690D01*
X10278929Y-32863976D02*
X10278929Y-32663976D01*
X10364643Y-32863976D02*
X10364643Y-32759214D01*
X10355119Y-32740167D01*
X10336071Y-32730643D01*
X10307500Y-32730643D01*
X10288452Y-32740167D01*
X10278929Y-32749690D01*
X10488452Y-32863976D02*
X10469405Y-32854452D01*
X10459881Y-32844928D01*
X10450357Y-32825881D01*
X10450357Y-32768738D01*
X10459881Y-32749690D01*
X10469405Y-32740167D01*
X10488452Y-32730643D01*
X10517024Y-32730643D01*
X10536071Y-32740167D01*
X10545595Y-32749690D01*
X10555119Y-32768738D01*
X10555119Y-32825881D01*
X10545595Y-32844928D01*
X10536071Y-32854452D01*
X10517024Y-32863976D01*
X10488452Y-32863976D01*
X10669405Y-32863976D02*
X10650357Y-32854452D01*
X10640833Y-32835405D01*
X10640833Y-32663976D01*
X10821786Y-32854452D02*
X10802738Y-32863976D01*
X10764643Y-32863976D01*
X10745595Y-32854452D01*
X10736071Y-32835405D01*
X10736071Y-32759214D01*
X10745595Y-32740167D01*
X10764643Y-32730643D01*
X10802738Y-32730643D01*
X10821786Y-32740167D01*
X10831310Y-32759214D01*
X10831310Y-32778262D01*
X10736071Y-32797309D01*
X10907500Y-32854452D02*
X10926548Y-32863976D01*
X10964643Y-32863976D01*
X10983690Y-32854452D01*
X10993214Y-32835405D01*
X10993214Y-32825881D01*
X10983690Y-32806833D01*
X10964643Y-32797309D01*
X10936071Y-32797309D01*
X10917024Y-32787786D01*
X10907500Y-32768738D01*
X10907500Y-32759214D01*
X10917024Y-32740167D01*
X10936071Y-32730643D01*
X10964643Y-32730643D01*
X10983690Y-32740167D01*
X11059881Y-32940167D02*
X11069405Y-32930643D01*
X11088452Y-32902071D01*
X11097976Y-32883024D01*
X11107500Y-32854452D01*
X11117024Y-32806833D01*
X11117024Y-32768738D01*
X11107500Y-32721119D01*
X11097976Y-32692548D01*
X11088452Y-32673500D01*
X11069405Y-32644928D01*
X11059881Y-32635405D01*
D17*
X5947500Y-32962500D02*
X6097500Y-33112500D01*
X6097500Y-32962500D02*
X5947500Y-33112500D01*
X6097500Y-33037500D02*
G75*
G03*
X6097500Y-33037500I-75000J0D01*
G01*
D11*
X6459881Y-33127976D02*
X6345595Y-33127976D01*
X6402738Y-33127976D02*
X6402738Y-32927976D01*
X6383690Y-32956548D01*
X6364643Y-32975595D01*
X6345595Y-32985119D01*
X6545595Y-33108928D02*
X6555119Y-33118452D01*
X6545595Y-33127976D01*
X6536071Y-33118452D01*
X6545595Y-33108928D01*
X6545595Y-33127976D01*
X6736071Y-32927976D02*
X6640833Y-32927976D01*
X6631309Y-33023214D01*
X6640833Y-33013690D01*
X6659881Y-33004167D01*
X6707500Y-33004167D01*
X6726548Y-33013690D01*
X6736071Y-33023214D01*
X6745595Y-33042262D01*
X6745595Y-33089881D01*
X6736071Y-33108928D01*
X6726548Y-33118452D01*
X6707500Y-33127976D01*
X6659881Y-33127976D01*
X6640833Y-33118452D01*
X6631309Y-33108928D01*
X6869405Y-32927976D02*
X6888452Y-32927976D01*
X6907500Y-32937500D01*
X6917024Y-32947024D01*
X6926548Y-32966071D01*
X6936071Y-33004167D01*
X6936071Y-33051786D01*
X6926548Y-33089881D01*
X6917024Y-33108928D01*
X6907500Y-33118452D01*
X6888452Y-33127976D01*
X6869405Y-33127976D01*
X6850357Y-33118452D01*
X6840833Y-33108928D01*
X6831309Y-33089881D01*
X6821786Y-33051786D01*
X6821786Y-33004167D01*
X6831309Y-32966071D01*
X6840833Y-32947024D01*
X6850357Y-32937500D01*
X6869405Y-32927976D01*
X7059881Y-32927976D02*
X7078928Y-32927976D01*
X7097976Y-32937500D01*
X7107500Y-32947024D01*
X7117024Y-32966071D01*
X7126548Y-33004167D01*
X7126548Y-33051786D01*
X7117024Y-33089881D01*
X7107500Y-33108928D01*
X7097976Y-33118452D01*
X7078928Y-33127976D01*
X7059881Y-33127976D01*
X7040833Y-33118452D01*
X7031309Y-33108928D01*
X7021786Y-33089881D01*
X7012262Y-33051786D01*
X7012262Y-33004167D01*
X7021786Y-32966071D01*
X7031309Y-32947024D01*
X7040833Y-32937500D01*
X7059881Y-32927976D01*
X7212262Y-33127976D02*
X7212262Y-32994643D01*
X7212262Y-33013690D02*
X7221786Y-33004167D01*
X7240833Y-32994643D01*
X7269405Y-32994643D01*
X7288452Y-33004167D01*
X7297976Y-33023214D01*
X7297976Y-33127976D01*
X7297976Y-33023214D02*
X7307500Y-33004167D01*
X7326548Y-32994643D01*
X7355119Y-32994643D01*
X7374167Y-33004167D01*
X7383690Y-33023214D01*
X7383690Y-33127976D01*
X7478928Y-33127976D02*
X7478928Y-32994643D01*
X7478928Y-33013690D02*
X7488452Y-33004167D01*
X7507500Y-32994643D01*
X7536071Y-32994643D01*
X7555119Y-33004167D01*
X7564643Y-33023214D01*
X7564643Y-33127976D01*
X7564643Y-33023214D02*
X7574167Y-33004167D01*
X7593214Y-32994643D01*
X7621786Y-32994643D01*
X7640833Y-33004167D01*
X7650357Y-33023214D01*
X7650357Y-33127976D01*
X8040833Y-32918452D02*
X7869405Y-33175595D01*
X8297976Y-32927976D02*
X8317024Y-32927976D01*
X8336071Y-32937500D01*
X8345595Y-32947024D01*
X8355119Y-32966071D01*
X8364643Y-33004167D01*
X8364643Y-33051786D01*
X8355119Y-33089881D01*
X8345595Y-33108928D01*
X8336071Y-33118452D01*
X8317024Y-33127976D01*
X8297976Y-33127976D01*
X8278928Y-33118452D01*
X8269405Y-33108928D01*
X8259881Y-33089881D01*
X8250357Y-33051786D01*
X8250357Y-33004167D01*
X8259881Y-32966071D01*
X8269405Y-32947024D01*
X8278928Y-32937500D01*
X8297976Y-32927976D01*
X8450357Y-33108928D02*
X8459881Y-33118452D01*
X8450357Y-33127976D01*
X8440833Y-33118452D01*
X8450357Y-33108928D01*
X8450357Y-33127976D01*
X8583690Y-32927976D02*
X8602738Y-32927976D01*
X8621786Y-32937500D01*
X8631310Y-32947024D01*
X8640833Y-32966071D01*
X8650357Y-33004167D01*
X8650357Y-33051786D01*
X8640833Y-33089881D01*
X8631310Y-33108928D01*
X8621786Y-33118452D01*
X8602738Y-33127976D01*
X8583690Y-33127976D01*
X8564643Y-33118452D01*
X8555119Y-33108928D01*
X8545595Y-33089881D01*
X8536071Y-33051786D01*
X8536071Y-33004167D01*
X8545595Y-32966071D01*
X8555119Y-32947024D01*
X8564643Y-32937500D01*
X8583690Y-32927976D01*
X8831310Y-32927976D02*
X8736071Y-32927976D01*
X8726548Y-33023214D01*
X8736071Y-33013690D01*
X8755119Y-33004167D01*
X8802738Y-33004167D01*
X8821786Y-33013690D01*
X8831310Y-33023214D01*
X8840833Y-33042262D01*
X8840833Y-33089881D01*
X8831310Y-33108928D01*
X8821786Y-33118452D01*
X8802738Y-33127976D01*
X8755119Y-33127976D01*
X8736071Y-33118452D01*
X8726548Y-33108928D01*
X8936071Y-33127976D02*
X8974167Y-33127976D01*
X8993214Y-33118452D01*
X9002738Y-33108928D01*
X9021786Y-33080357D01*
X9031310Y-33042262D01*
X9031310Y-32966071D01*
X9021786Y-32947024D01*
X9012262Y-32937500D01*
X8993214Y-32927976D01*
X8955119Y-32927976D01*
X8936071Y-32937500D01*
X8926548Y-32947024D01*
X8917024Y-32966071D01*
X8917024Y-33013690D01*
X8926548Y-33032738D01*
X8936071Y-33042262D01*
X8955119Y-33051786D01*
X8993214Y-33051786D01*
X9012262Y-33042262D01*
X9021786Y-33032738D01*
X9031310Y-33013690D01*
X9221786Y-33127976D02*
X9107500Y-33127976D01*
X9164643Y-33127976D02*
X9164643Y-32927976D01*
X9145595Y-32956548D01*
X9126548Y-32975595D01*
X9107500Y-32985119D01*
X9297976Y-32927976D02*
X9297976Y-32966071D01*
X9374167Y-32927976D02*
X9374167Y-32966071D01*
X9669405Y-33204167D02*
X9659881Y-33194643D01*
X9640833Y-33166071D01*
X9631310Y-33147024D01*
X9621786Y-33118452D01*
X9612262Y-33070833D01*
X9612262Y-33032738D01*
X9621786Y-32985119D01*
X9631310Y-32956548D01*
X9640833Y-32937500D01*
X9659881Y-32908928D01*
X9669405Y-32899405D01*
X9850357Y-33127976D02*
X9736071Y-33127976D01*
X9793214Y-33127976D02*
X9793214Y-32927976D01*
X9774167Y-32956548D01*
X9755119Y-32975595D01*
X9736071Y-32985119D01*
X9917024Y-32927976D02*
X10040833Y-32927976D01*
X9974167Y-33004167D01*
X10002738Y-33004167D01*
X10021786Y-33013690D01*
X10031310Y-33023214D01*
X10040833Y-33042262D01*
X10040833Y-33089881D01*
X10031310Y-33108928D01*
X10021786Y-33118452D01*
X10002738Y-33127976D01*
X9945595Y-33127976D01*
X9926548Y-33118452D01*
X9917024Y-33108928D01*
X10155119Y-33013690D02*
X10136071Y-33004167D01*
X10126548Y-32994643D01*
X10117024Y-32975595D01*
X10117024Y-32966071D01*
X10126548Y-32947024D01*
X10136071Y-32937500D01*
X10155119Y-32927976D01*
X10193214Y-32927976D01*
X10212262Y-32937500D01*
X10221786Y-32947024D01*
X10231310Y-32966071D01*
X10231310Y-32975595D01*
X10221786Y-32994643D01*
X10212262Y-33004167D01*
X10193214Y-33013690D01*
X10155119Y-33013690D01*
X10136071Y-33023214D01*
X10126548Y-33032738D01*
X10117024Y-33051786D01*
X10117024Y-33089881D01*
X10126548Y-33108928D01*
X10136071Y-33118452D01*
X10155119Y-33127976D01*
X10193214Y-33127976D01*
X10212262Y-33118452D01*
X10221786Y-33108928D01*
X10231310Y-33089881D01*
X10231310Y-33051786D01*
X10221786Y-33032738D01*
X10212262Y-33023214D01*
X10193214Y-33013690D01*
X10469405Y-33127976D02*
X10469405Y-32927976D01*
X10555119Y-33127976D02*
X10555119Y-33023214D01*
X10545595Y-33004167D01*
X10526548Y-32994643D01*
X10497976Y-32994643D01*
X10478929Y-33004167D01*
X10469405Y-33013690D01*
X10678929Y-33127976D02*
X10659881Y-33118452D01*
X10650357Y-33108928D01*
X10640833Y-33089881D01*
X10640833Y-33032738D01*
X10650357Y-33013690D01*
X10659881Y-33004167D01*
X10678929Y-32994643D01*
X10707500Y-32994643D01*
X10726548Y-33004167D01*
X10736071Y-33013690D01*
X10745595Y-33032738D01*
X10745595Y-33089881D01*
X10736071Y-33108928D01*
X10726548Y-33118452D01*
X10707500Y-33127976D01*
X10678929Y-33127976D01*
X10859881Y-33127976D02*
X10840833Y-33118452D01*
X10831310Y-33099405D01*
X10831310Y-32927976D01*
X11012262Y-33118452D02*
X10993214Y-33127976D01*
X10955119Y-33127976D01*
X10936071Y-33118452D01*
X10926548Y-33099405D01*
X10926548Y-33023214D01*
X10936071Y-33004167D01*
X10955119Y-32994643D01*
X10993214Y-32994643D01*
X11012262Y-33004167D01*
X11021786Y-33023214D01*
X11021786Y-33042262D01*
X10926548Y-33061309D01*
X11097976Y-33118452D02*
X11117024Y-33127976D01*
X11155119Y-33127976D01*
X11174167Y-33118452D01*
X11183690Y-33099405D01*
X11183690Y-33089881D01*
X11174167Y-33070833D01*
X11155119Y-33061309D01*
X11126548Y-33061309D01*
X11107500Y-33051786D01*
X11097976Y-33032738D01*
X11097976Y-33023214D01*
X11107500Y-33004167D01*
X11126548Y-32994643D01*
X11155119Y-32994643D01*
X11174167Y-33004167D01*
X11250357Y-33204167D02*
X11259881Y-33194643D01*
X11278928Y-33166071D01*
X11288452Y-33147024D01*
X11297976Y-33118452D01*
X11307500Y-33070833D01*
X11307500Y-33032738D01*
X11297976Y-32985119D01*
X11288452Y-32956548D01*
X11278928Y-32937500D01*
X11259881Y-32908928D01*
X11250357Y-32899405D01*
X5897500Y-33207500D02*
X6097500Y-33407500D01*
X6097500Y-33207500D02*
X5897500Y-33407500D01*
X5997500Y-33207500D02*
X5997500Y-33407500D01*
X5897500Y-33307500D02*
X6097500Y-33307500D01*
X6336071Y-33197976D02*
X6459881Y-33197976D01*
X6393214Y-33274167D01*
X6421786Y-33274167D01*
X6440833Y-33283690D01*
X6450357Y-33293214D01*
X6459881Y-33312262D01*
X6459881Y-33359881D01*
X6450357Y-33378928D01*
X6440833Y-33388452D01*
X6421786Y-33397976D01*
X6364643Y-33397976D01*
X6345595Y-33388452D01*
X6336071Y-33378928D01*
X6545595Y-33378928D02*
X6555119Y-33388452D01*
X6545595Y-33397976D01*
X6536071Y-33388452D01*
X6545595Y-33378928D01*
X6545595Y-33397976D01*
X6631309Y-33217024D02*
X6640833Y-33207500D01*
X6659881Y-33197976D01*
X6707500Y-33197976D01*
X6726548Y-33207500D01*
X6736071Y-33217024D01*
X6745595Y-33236071D01*
X6745595Y-33255119D01*
X6736071Y-33283690D01*
X6621786Y-33397976D01*
X6745595Y-33397976D01*
X6869405Y-33197976D02*
X6888452Y-33197976D01*
X6907500Y-33207500D01*
X6917024Y-33217024D01*
X6926548Y-33236071D01*
X6936071Y-33274167D01*
X6936071Y-33321786D01*
X6926548Y-33359881D01*
X6917024Y-33378928D01*
X6907500Y-33388452D01*
X6888452Y-33397976D01*
X6869405Y-33397976D01*
X6850357Y-33388452D01*
X6840833Y-33378928D01*
X6831309Y-33359881D01*
X6821786Y-33321786D01*
X6821786Y-33274167D01*
X6831309Y-33236071D01*
X6840833Y-33217024D01*
X6850357Y-33207500D01*
X6869405Y-33197976D01*
X7059881Y-33197976D02*
X7078928Y-33197976D01*
X7097976Y-33207500D01*
X7107500Y-33217024D01*
X7117024Y-33236071D01*
X7126548Y-33274167D01*
X7126548Y-33321786D01*
X7117024Y-33359881D01*
X7107500Y-33378928D01*
X7097976Y-33388452D01*
X7078928Y-33397976D01*
X7059881Y-33397976D01*
X7040833Y-33388452D01*
X7031309Y-33378928D01*
X7021786Y-33359881D01*
X7012262Y-33321786D01*
X7012262Y-33274167D01*
X7021786Y-33236071D01*
X7031309Y-33217024D01*
X7040833Y-33207500D01*
X7059881Y-33197976D01*
X7212262Y-33397976D02*
X7212262Y-33264643D01*
X7212262Y-33283690D02*
X7221786Y-33274167D01*
X7240833Y-33264643D01*
X7269405Y-33264643D01*
X7288452Y-33274167D01*
X7297976Y-33293214D01*
X7297976Y-33397976D01*
X7297976Y-33293214D02*
X7307500Y-33274167D01*
X7326548Y-33264643D01*
X7355119Y-33264643D01*
X7374167Y-33274167D01*
X7383690Y-33293214D01*
X7383690Y-33397976D01*
X7478928Y-33397976D02*
X7478928Y-33264643D01*
X7478928Y-33283690D02*
X7488452Y-33274167D01*
X7507500Y-33264643D01*
X7536071Y-33264643D01*
X7555119Y-33274167D01*
X7564643Y-33293214D01*
X7564643Y-33397976D01*
X7564643Y-33293214D02*
X7574167Y-33274167D01*
X7593214Y-33264643D01*
X7621786Y-33264643D01*
X7640833Y-33274167D01*
X7650357Y-33293214D01*
X7650357Y-33397976D01*
X8040833Y-33188452D02*
X7869405Y-33445595D01*
X8297976Y-33197976D02*
X8317024Y-33197976D01*
X8336071Y-33207500D01*
X8345595Y-33217024D01*
X8355119Y-33236071D01*
X8364643Y-33274167D01*
X8364643Y-33321786D01*
X8355119Y-33359881D01*
X8345595Y-33378928D01*
X8336071Y-33388452D01*
X8317024Y-33397976D01*
X8297976Y-33397976D01*
X8278928Y-33388452D01*
X8269405Y-33378928D01*
X8259881Y-33359881D01*
X8250357Y-33321786D01*
X8250357Y-33274167D01*
X8259881Y-33236071D01*
X8269405Y-33217024D01*
X8278928Y-33207500D01*
X8297976Y-33197976D01*
X8450357Y-33378928D02*
X8459881Y-33388452D01*
X8450357Y-33397976D01*
X8440833Y-33388452D01*
X8450357Y-33378928D01*
X8450357Y-33397976D01*
X8650357Y-33397976D02*
X8536071Y-33397976D01*
X8593214Y-33397976D02*
X8593214Y-33197976D01*
X8574167Y-33226548D01*
X8555119Y-33245595D01*
X8536071Y-33255119D01*
X8726548Y-33217024D02*
X8736071Y-33207500D01*
X8755119Y-33197976D01*
X8802738Y-33197976D01*
X8821786Y-33207500D01*
X8831310Y-33217024D01*
X8840833Y-33236071D01*
X8840833Y-33255119D01*
X8831310Y-33283690D01*
X8717024Y-33397976D01*
X8840833Y-33397976D01*
X9012262Y-33197976D02*
X8974167Y-33197976D01*
X8955119Y-33207500D01*
X8945595Y-33217024D01*
X8926548Y-33245595D01*
X8917024Y-33283690D01*
X8917024Y-33359881D01*
X8926548Y-33378928D01*
X8936071Y-33388452D01*
X8955119Y-33397976D01*
X8993214Y-33397976D01*
X9012262Y-33388452D01*
X9021786Y-33378928D01*
X9031310Y-33359881D01*
X9031310Y-33312262D01*
X9021786Y-33293214D01*
X9012262Y-33283690D01*
X8993214Y-33274167D01*
X8955119Y-33274167D01*
X8936071Y-33283690D01*
X8926548Y-33293214D01*
X8917024Y-33312262D01*
X9155119Y-33197976D02*
X9174167Y-33197976D01*
X9193214Y-33207500D01*
X9202738Y-33217024D01*
X9212262Y-33236071D01*
X9221786Y-33274167D01*
X9221786Y-33321786D01*
X9212262Y-33359881D01*
X9202738Y-33378928D01*
X9193214Y-33388452D01*
X9174167Y-33397976D01*
X9155119Y-33397976D01*
X9136071Y-33388452D01*
X9126548Y-33378928D01*
X9117024Y-33359881D01*
X9107500Y-33321786D01*
X9107500Y-33274167D01*
X9117024Y-33236071D01*
X9126548Y-33217024D01*
X9136071Y-33207500D01*
X9155119Y-33197976D01*
X9297976Y-33197976D02*
X9297976Y-33236071D01*
X9374167Y-33197976D02*
X9374167Y-33236071D01*
X9669405Y-33474167D02*
X9659881Y-33464643D01*
X9640833Y-33436071D01*
X9631310Y-33417024D01*
X9621786Y-33388452D01*
X9612262Y-33340833D01*
X9612262Y-33302738D01*
X9621786Y-33255119D01*
X9631310Y-33226548D01*
X9640833Y-33207500D01*
X9659881Y-33178928D01*
X9669405Y-33169405D01*
X9831310Y-33264643D02*
X9831310Y-33397976D01*
X9783690Y-33188452D02*
X9736071Y-33331309D01*
X9859881Y-33331309D01*
X10088452Y-33397976D02*
X10088452Y-33197976D01*
X10174167Y-33397976D02*
X10174167Y-33293214D01*
X10164643Y-33274167D01*
X10145595Y-33264643D01*
X10117024Y-33264643D01*
X10097976Y-33274167D01*
X10088452Y-33283690D01*
X10297976Y-33397976D02*
X10278929Y-33388452D01*
X10269405Y-33378928D01*
X10259881Y-33359881D01*
X10259881Y-33302738D01*
X10269405Y-33283690D01*
X10278929Y-33274167D01*
X10297976Y-33264643D01*
X10326548Y-33264643D01*
X10345595Y-33274167D01*
X10355119Y-33283690D01*
X10364643Y-33302738D01*
X10364643Y-33359881D01*
X10355119Y-33378928D01*
X10345595Y-33388452D01*
X10326548Y-33397976D01*
X10297976Y-33397976D01*
X10478929Y-33397976D02*
X10459881Y-33388452D01*
X10450357Y-33369405D01*
X10450357Y-33197976D01*
X10631310Y-33388452D02*
X10612262Y-33397976D01*
X10574167Y-33397976D01*
X10555119Y-33388452D01*
X10545595Y-33369405D01*
X10545595Y-33293214D01*
X10555119Y-33274167D01*
X10574167Y-33264643D01*
X10612262Y-33264643D01*
X10631310Y-33274167D01*
X10640833Y-33293214D01*
X10640833Y-33312262D01*
X10545595Y-33331309D01*
X10717024Y-33388452D02*
X10736071Y-33397976D01*
X10774167Y-33397976D01*
X10793214Y-33388452D01*
X10802738Y-33369405D01*
X10802738Y-33359881D01*
X10793214Y-33340833D01*
X10774167Y-33331309D01*
X10745595Y-33331309D01*
X10726548Y-33321786D01*
X10717024Y-33302738D01*
X10717024Y-33293214D01*
X10726548Y-33274167D01*
X10745595Y-33264643D01*
X10774167Y-33264643D01*
X10793214Y-33274167D01*
X10869405Y-33474167D02*
X10878929Y-33464643D01*
X10897976Y-33436071D01*
X10907500Y-33417024D01*
X10917024Y-33388452D01*
X10926548Y-33340833D01*
X10926548Y-33302738D01*
X10917024Y-33255119D01*
X10907500Y-33226548D01*
X10897976Y-33207500D01*
X10878929Y-33178928D01*
X10869405Y-33169405D01*
M02*
