G04 #@! TF.GenerationSoftware,KiCad,Pcbnew,6.0.7-f9a2dced07~116~ubuntu22.04.1*
G04 #@! TF.CreationDate,2022-08-13T16:20:41-04:00*
G04 #@! TF.ProjectId,atari-keyboard,61746172-692d-46b6-9579-626f6172642e,rev?*
G04 #@! TF.SameCoordinates,Original*
G04 #@! TF.FileFunction,Legend,Bot*
G04 #@! TF.FilePolarity,Positive*
%FSLAX46Y46*%
G04 Gerber Fmt 4.6, Leading zero omitted, Abs format (unit mm)*
G04 Created by KiCad (PCBNEW 6.0.7-f9a2dced07~116~ubuntu22.04.1) date 2022-08-13 16:20:41*
%MOMM*%
%LPD*%
G01*
G04 APERTURE LIST*
%ADD10C,0.150000*%
%ADD11C,0.381000*%
%ADD12C,0.120000*%
%ADD13R,1.752600X1.752600*%
%ADD14C,1.752600*%
G04 APERTURE END LIST*
D10*
X68522000Y-191129476D02*
X68483904Y-191053285D01*
X68483904Y-190939000D01*
X68522000Y-190824714D01*
X68598190Y-190748523D01*
X68674380Y-190710428D01*
X68826761Y-190672333D01*
X68941047Y-190672333D01*
X69093428Y-190710428D01*
X69169619Y-190748523D01*
X69245809Y-190824714D01*
X69283904Y-190939000D01*
X69283904Y-191015190D01*
X69245809Y-191129476D01*
X69207714Y-191167571D01*
X68941047Y-191167571D01*
X68941047Y-191015190D01*
X69283904Y-191510428D02*
X68483904Y-191510428D01*
X69283904Y-191967571D01*
X68483904Y-191967571D01*
X69283904Y-192348523D02*
X68483904Y-192348523D01*
X68483904Y-192539000D01*
X68522000Y-192653285D01*
X68598190Y-192729476D01*
X68674380Y-192767571D01*
X68826761Y-192805666D01*
X68941047Y-192805666D01*
X69093428Y-192767571D01*
X69169619Y-192729476D01*
X69245809Y-192653285D01*
X69283904Y-192539000D01*
X69283904Y-192348523D01*
X93113904Y-199149523D02*
X92313904Y-199149523D01*
X92313904Y-199340000D01*
X92352000Y-199454285D01*
X92428190Y-199530476D01*
X92504380Y-199568571D01*
X92656761Y-199606666D01*
X92771047Y-199606666D01*
X92923428Y-199568571D01*
X92999619Y-199530476D01*
X93075809Y-199454285D01*
X93113904Y-199340000D01*
X93113904Y-199149523D01*
X92313904Y-200330476D02*
X92313904Y-199949523D01*
X92694857Y-199911428D01*
X92656761Y-199949523D01*
X92618666Y-200025714D01*
X92618666Y-200216190D01*
X92656761Y-200292380D01*
X92694857Y-200330476D01*
X92771047Y-200368571D01*
X92961523Y-200368571D01*
X93037714Y-200330476D01*
X93075809Y-200292380D01*
X93113904Y-200216190D01*
X93113904Y-200025714D01*
X93075809Y-199949523D01*
X93037714Y-199911428D01*
X89184857Y-191415190D02*
X89222952Y-191529476D01*
X89261047Y-191567571D01*
X89337238Y-191605666D01*
X89451523Y-191605666D01*
X89527714Y-191567571D01*
X89565809Y-191529476D01*
X89603904Y-191453285D01*
X89603904Y-191148523D01*
X88803904Y-191148523D01*
X88803904Y-191415190D01*
X88842000Y-191491380D01*
X88880095Y-191529476D01*
X88956285Y-191567571D01*
X89032476Y-191567571D01*
X89108666Y-191529476D01*
X89146761Y-191491380D01*
X89184857Y-191415190D01*
X89184857Y-191148523D01*
X88803904Y-191872333D02*
X88803904Y-192367571D01*
X89108666Y-192100904D01*
X89108666Y-192215190D01*
X89146761Y-192291380D01*
X89184857Y-192329476D01*
X89261047Y-192367571D01*
X89451523Y-192367571D01*
X89527714Y-192329476D01*
X89565809Y-192291380D01*
X89603904Y-192215190D01*
X89603904Y-191986619D01*
X89565809Y-191910428D01*
X89527714Y-191872333D01*
X76484857Y-191472333D02*
X76484857Y-191205666D01*
X76903904Y-191205666D02*
X76103904Y-191205666D01*
X76103904Y-191586619D01*
X76370571Y-192234238D02*
X76903904Y-192234238D01*
X76065809Y-192043761D02*
X76637238Y-191853285D01*
X76637238Y-192348523D01*
X65943904Y-198581395D02*
X65943904Y-199038538D01*
X66743904Y-198809967D02*
X65943904Y-198809967D01*
X65943904Y-199229014D02*
X66743904Y-199762348D01*
X65943904Y-199762348D02*
X66743904Y-199229014D01*
X65943904Y-200219491D02*
X65943904Y-200295681D01*
X65982000Y-200371872D01*
X66020095Y-200409967D01*
X66096285Y-200448062D01*
X66248666Y-200486157D01*
X66439142Y-200486157D01*
X66591523Y-200448062D01*
X66667714Y-200409967D01*
X66705809Y-200371872D01*
X66743904Y-200295681D01*
X66743904Y-200219491D01*
X66705809Y-200143300D01*
X66667714Y-200105205D01*
X66591523Y-200067110D01*
X66439142Y-200029014D01*
X66248666Y-200029014D01*
X66096285Y-200067110D01*
X66020095Y-200105205D01*
X65982000Y-200143300D01*
X65943904Y-200219491D01*
X65905809Y-201400443D02*
X66934380Y-200714729D01*
X66743904Y-201667110D02*
X65943904Y-201667110D01*
X65943904Y-201857586D01*
X65982000Y-201971872D01*
X66058190Y-202048062D01*
X66134380Y-202086157D01*
X66286761Y-202124252D01*
X66401047Y-202124252D01*
X66553428Y-202086157D01*
X66629619Y-202048062D01*
X66705809Y-201971872D01*
X66743904Y-201857586D01*
X66743904Y-201667110D01*
X65943904Y-202390919D02*
X65943904Y-202886157D01*
X66248666Y-202619491D01*
X66248666Y-202733776D01*
X66286761Y-202809967D01*
X66324857Y-202848062D01*
X66401047Y-202886157D01*
X66591523Y-202886157D01*
X66667714Y-202848062D01*
X66705809Y-202809967D01*
X66743904Y-202733776D01*
X66743904Y-202505205D01*
X66705809Y-202429014D01*
X66667714Y-202390919D01*
X73563904Y-190672333D02*
X74363904Y-190939000D01*
X73563904Y-191205666D01*
X74287714Y-191929476D02*
X74325809Y-191891380D01*
X74363904Y-191777095D01*
X74363904Y-191700904D01*
X74325809Y-191586619D01*
X74249619Y-191510428D01*
X74173428Y-191472333D01*
X74021047Y-191434238D01*
X73906761Y-191434238D01*
X73754380Y-191472333D01*
X73678190Y-191510428D01*
X73602000Y-191586619D01*
X73563904Y-191700904D01*
X73563904Y-191777095D01*
X73602000Y-191891380D01*
X73640095Y-191929476D01*
X74287714Y-192729476D02*
X74325809Y-192691380D01*
X74363904Y-192577095D01*
X74363904Y-192500904D01*
X74325809Y-192386619D01*
X74249619Y-192310428D01*
X74173428Y-192272333D01*
X74021047Y-192234238D01*
X73906761Y-192234238D01*
X73754380Y-192272333D01*
X73678190Y-192310428D01*
X73602000Y-192386619D01*
X73563904Y-192500904D01*
X73563904Y-192577095D01*
X73602000Y-192691380D01*
X73640095Y-192729476D01*
X66324857Y-191415190D02*
X66362952Y-191529476D01*
X66401047Y-191567571D01*
X66477238Y-191605666D01*
X66591523Y-191605666D01*
X66667714Y-191567571D01*
X66705809Y-191529476D01*
X66743904Y-191453285D01*
X66743904Y-191148523D01*
X65943904Y-191148523D01*
X65943904Y-191415190D01*
X65982000Y-191491380D01*
X66020095Y-191529476D01*
X66096285Y-191567571D01*
X66172476Y-191567571D01*
X66248666Y-191529476D01*
X66286761Y-191491380D01*
X66324857Y-191415190D01*
X66324857Y-191148523D01*
X65943904Y-192100904D02*
X65943904Y-192177095D01*
X65982000Y-192253285D01*
X66020095Y-192291380D01*
X66096285Y-192329476D01*
X66248666Y-192367571D01*
X66439142Y-192367571D01*
X66591523Y-192329476D01*
X66667714Y-192291380D01*
X66705809Y-192253285D01*
X66743904Y-192177095D01*
X66743904Y-192100904D01*
X66705809Y-192024714D01*
X66667714Y-191986619D01*
X66591523Y-191948523D01*
X66439142Y-191910428D01*
X66248666Y-191910428D01*
X66096285Y-191948523D01*
X66020095Y-191986619D01*
X65982000Y-192024714D01*
X65943904Y-192100904D01*
X69283904Y-202070523D02*
X68483904Y-202070523D01*
X68483904Y-202261000D01*
X68522000Y-202375285D01*
X68598190Y-202451476D01*
X68674380Y-202489571D01*
X68826761Y-202527666D01*
X68941047Y-202527666D01*
X69093428Y-202489571D01*
X69169619Y-202451476D01*
X69245809Y-202375285D01*
X69283904Y-202261000D01*
X69283904Y-202070523D01*
X68560095Y-202832428D02*
X68522000Y-202870523D01*
X68483904Y-202946714D01*
X68483904Y-203137190D01*
X68522000Y-203213380D01*
X68560095Y-203251476D01*
X68636285Y-203289571D01*
X68712476Y-203289571D01*
X68826761Y-203251476D01*
X69283904Y-202794333D01*
X69283904Y-203289571D01*
X86644857Y-191415190D02*
X86682952Y-191529476D01*
X86721047Y-191567571D01*
X86797238Y-191605666D01*
X86911523Y-191605666D01*
X86987714Y-191567571D01*
X87025809Y-191529476D01*
X87063904Y-191453285D01*
X87063904Y-191148523D01*
X86263904Y-191148523D01*
X86263904Y-191415190D01*
X86302000Y-191491380D01*
X86340095Y-191529476D01*
X86416285Y-191567571D01*
X86492476Y-191567571D01*
X86568666Y-191529476D01*
X86606761Y-191491380D01*
X86644857Y-191415190D01*
X86644857Y-191148523D01*
X87063904Y-192367571D02*
X87063904Y-191910428D01*
X87063904Y-192139000D02*
X86263904Y-192139000D01*
X86378190Y-192062809D01*
X86454380Y-191986619D01*
X86492476Y-191910428D01*
X73602000Y-202051476D02*
X73563904Y-201975285D01*
X73563904Y-201861000D01*
X73602000Y-201746714D01*
X73678190Y-201670523D01*
X73754380Y-201632428D01*
X73906761Y-201594333D01*
X74021047Y-201594333D01*
X74173428Y-201632428D01*
X74249619Y-201670523D01*
X74325809Y-201746714D01*
X74363904Y-201861000D01*
X74363904Y-201937190D01*
X74325809Y-202051476D01*
X74287714Y-202089571D01*
X74021047Y-202089571D01*
X74021047Y-201937190D01*
X74363904Y-202432428D02*
X73563904Y-202432428D01*
X74363904Y-202889571D01*
X73563904Y-202889571D01*
X74363904Y-203270523D02*
X73563904Y-203270523D01*
X73563904Y-203461000D01*
X73602000Y-203575285D01*
X73678190Y-203651476D01*
X73754380Y-203689571D01*
X73906761Y-203727666D01*
X74021047Y-203727666D01*
X74173428Y-203689571D01*
X74249619Y-203651476D01*
X74325809Y-203575285D01*
X74363904Y-203461000D01*
X74363904Y-203270523D01*
X92694857Y-194393333D02*
X92694857Y-194126666D01*
X93113904Y-194126666D02*
X92313904Y-194126666D01*
X92313904Y-194507619D01*
X93113904Y-195231428D02*
X93113904Y-194774285D01*
X93113904Y-195002857D02*
X92313904Y-195002857D01*
X92428190Y-194926666D01*
X92504380Y-194850476D01*
X92542476Y-194774285D01*
X91724857Y-191415190D02*
X91762952Y-191529476D01*
X91801047Y-191567571D01*
X91877238Y-191605666D01*
X91991523Y-191605666D01*
X92067714Y-191567571D01*
X92105809Y-191529476D01*
X92143904Y-191453285D01*
X92143904Y-191148523D01*
X91343904Y-191148523D01*
X91343904Y-191415190D01*
X91382000Y-191491380D01*
X91420095Y-191529476D01*
X91496285Y-191567571D01*
X91572476Y-191567571D01*
X91648666Y-191529476D01*
X91686761Y-191491380D01*
X91724857Y-191415190D01*
X91724857Y-191148523D01*
X91420095Y-191910428D02*
X91382000Y-191948523D01*
X91343904Y-192024714D01*
X91343904Y-192215190D01*
X91382000Y-192291380D01*
X91420095Y-192329476D01*
X91496285Y-192367571D01*
X91572476Y-192367571D01*
X91686761Y-192329476D01*
X92143904Y-191872333D01*
X92143904Y-192367571D01*
X92902000Y-192466666D02*
X92902000Y-192233333D01*
X93268666Y-192233333D02*
X92568666Y-192233333D01*
X92568666Y-192566666D01*
X92568666Y-192966666D02*
X92568666Y-193033333D01*
X92602000Y-193100000D01*
X92635333Y-193133333D01*
X92702000Y-193166666D01*
X92835333Y-193200000D01*
X93002000Y-193200000D01*
X93135333Y-193166666D01*
X93202000Y-193133333D01*
X93235333Y-193100000D01*
X93268666Y-193033333D01*
X93268666Y-192966666D01*
X93235333Y-192900000D01*
X93202000Y-192866666D01*
X93135333Y-192833333D01*
X93002000Y-192800000D01*
X92835333Y-192800000D01*
X92702000Y-192833333D01*
X92635333Y-192866666D01*
X92602000Y-192900000D01*
X92568666Y-192966666D01*
X81983904Y-202070523D02*
X81183904Y-202070523D01*
X81183904Y-202261000D01*
X81222000Y-202375285D01*
X81298190Y-202451476D01*
X81374380Y-202489571D01*
X81526761Y-202527666D01*
X81641047Y-202527666D01*
X81793428Y-202489571D01*
X81869619Y-202451476D01*
X81945809Y-202375285D01*
X81983904Y-202261000D01*
X81983904Y-202070523D01*
X81450571Y-203213380D02*
X81983904Y-203213380D01*
X81145809Y-203022904D02*
X81717238Y-202832428D01*
X81717238Y-203327666D01*
X93216991Y-203364297D02*
X93169851Y-203458578D01*
X93169851Y-203505719D01*
X93193421Y-203576429D01*
X93264132Y-203647140D01*
X93334842Y-203670710D01*
X93381983Y-203670710D01*
X93452693Y-203647140D01*
X93641255Y-203458578D01*
X93146280Y-202963603D01*
X92981289Y-203128595D01*
X92957719Y-203199306D01*
X92957719Y-203246446D01*
X92981289Y-203317157D01*
X93028429Y-203364297D01*
X93099140Y-203387867D01*
X93146280Y-203387867D01*
X93216991Y-203364297D01*
X93381983Y-203199306D01*
X92415603Y-203694280D02*
X92651306Y-203458578D01*
X92910578Y-203670710D01*
X92863438Y-203670710D01*
X92792727Y-203694280D01*
X92674876Y-203812132D01*
X92651306Y-203882842D01*
X92651306Y-203929983D01*
X92674876Y-204000693D01*
X92792727Y-204118544D01*
X92863438Y-204142115D01*
X92910578Y-204142115D01*
X92981289Y-204118544D01*
X93099140Y-204000693D01*
X93122710Y-203929983D01*
X93122710Y-203882842D01*
X79024857Y-191472333D02*
X79024857Y-191205666D01*
X79443904Y-191205666D02*
X78643904Y-191205666D01*
X78643904Y-191586619D01*
X78643904Y-192272333D02*
X78643904Y-191891380D01*
X79024857Y-191853285D01*
X78986761Y-191891380D01*
X78948666Y-191967571D01*
X78948666Y-192158047D01*
X78986761Y-192234238D01*
X79024857Y-192272333D01*
X79101047Y-192310428D01*
X79291523Y-192310428D01*
X79367714Y-192272333D01*
X79405809Y-192234238D01*
X79443904Y-192158047D01*
X79443904Y-191967571D01*
X79405809Y-191891380D01*
X79367714Y-191853285D01*
X71062000Y-202051476D02*
X71023904Y-201975285D01*
X71023904Y-201861000D01*
X71062000Y-201746714D01*
X71138190Y-201670523D01*
X71214380Y-201632428D01*
X71366761Y-201594333D01*
X71481047Y-201594333D01*
X71633428Y-201632428D01*
X71709619Y-201670523D01*
X71785809Y-201746714D01*
X71823904Y-201861000D01*
X71823904Y-201937190D01*
X71785809Y-202051476D01*
X71747714Y-202089571D01*
X71481047Y-202089571D01*
X71481047Y-201937190D01*
X71823904Y-202432428D02*
X71023904Y-202432428D01*
X71823904Y-202889571D01*
X71023904Y-202889571D01*
X71823904Y-203270523D02*
X71023904Y-203270523D01*
X71023904Y-203461000D01*
X71062000Y-203575285D01*
X71138190Y-203651476D01*
X71214380Y-203689571D01*
X71366761Y-203727666D01*
X71481047Y-203727666D01*
X71633428Y-203689571D01*
X71709619Y-203651476D01*
X71785809Y-203575285D01*
X71823904Y-203461000D01*
X71823904Y-203270523D01*
X93037714Y-197066666D02*
X93075809Y-197028571D01*
X93113904Y-196914285D01*
X93113904Y-196838095D01*
X93075809Y-196723809D01*
X92999619Y-196647619D01*
X92923428Y-196609523D01*
X92771047Y-196571428D01*
X92656761Y-196571428D01*
X92504380Y-196609523D01*
X92428190Y-196647619D01*
X92352000Y-196723809D01*
X92313904Y-196838095D01*
X92313904Y-196914285D01*
X92352000Y-197028571D01*
X92390095Y-197066666D01*
X92313904Y-197333333D02*
X92313904Y-197866666D01*
X93113904Y-197523809D01*
X71765809Y-191626666D02*
X71803904Y-191740952D01*
X71803904Y-191931428D01*
X71765809Y-192007619D01*
X71727714Y-192045714D01*
X71651523Y-192083809D01*
X71575333Y-192083809D01*
X71499142Y-192045714D01*
X71461047Y-192007619D01*
X71422952Y-191931428D01*
X71384857Y-191779047D01*
X71346761Y-191702857D01*
X71308666Y-191664761D01*
X71232476Y-191626666D01*
X71156285Y-191626666D01*
X71080095Y-191664761D01*
X71042000Y-191702857D01*
X71003904Y-191779047D01*
X71003904Y-191969523D01*
X71042000Y-192083809D01*
X71003904Y-192312380D02*
X71003904Y-192769523D01*
X71803904Y-192540952D02*
X71003904Y-192540952D01*
X89184857Y-202108619D02*
X89184857Y-202375285D01*
X89603904Y-202489571D02*
X89603904Y-202108619D01*
X88803904Y-202108619D01*
X88803904Y-202489571D01*
X88803904Y-203175285D02*
X88803904Y-203022904D01*
X88842000Y-202946714D01*
X88880095Y-202908619D01*
X88994380Y-202832428D01*
X89146761Y-202794333D01*
X89451523Y-202794333D01*
X89527714Y-202832428D01*
X89565809Y-202870523D01*
X89603904Y-202946714D01*
X89603904Y-203099095D01*
X89565809Y-203175285D01*
X89527714Y-203213380D01*
X89451523Y-203251476D01*
X89261047Y-203251476D01*
X89184857Y-203213380D01*
X89146761Y-203175285D01*
X89108666Y-203099095D01*
X89108666Y-202946714D01*
X89146761Y-202870523D01*
X89184857Y-202832428D01*
X89261047Y-202794333D01*
X84104857Y-191472333D02*
X84104857Y-191205666D01*
X84523904Y-191205666D02*
X83723904Y-191205666D01*
X83723904Y-191586619D01*
X83723904Y-191815190D02*
X83723904Y-192348523D01*
X84523904Y-192005666D01*
X91724857Y-202337190D02*
X91762952Y-202451476D01*
X91801047Y-202489571D01*
X91877238Y-202527666D01*
X91991523Y-202527666D01*
X92067714Y-202489571D01*
X92105809Y-202451476D01*
X92143904Y-202375285D01*
X92143904Y-202070523D01*
X91343904Y-202070523D01*
X91343904Y-202337190D01*
X91382000Y-202413380D01*
X91420095Y-202451476D01*
X91496285Y-202489571D01*
X91572476Y-202489571D01*
X91648666Y-202451476D01*
X91686761Y-202413380D01*
X91724857Y-202337190D01*
X91724857Y-202070523D01*
X91610571Y-203213380D02*
X92143904Y-203213380D01*
X91305809Y-203022904D02*
X91877238Y-202832428D01*
X91877238Y-203327666D01*
X84447714Y-202527666D02*
X84485809Y-202489571D01*
X84523904Y-202375285D01*
X84523904Y-202299095D01*
X84485809Y-202184809D01*
X84409619Y-202108619D01*
X84333428Y-202070523D01*
X84181047Y-202032428D01*
X84066761Y-202032428D01*
X83914380Y-202070523D01*
X83838190Y-202108619D01*
X83762000Y-202184809D01*
X83723904Y-202299095D01*
X83723904Y-202375285D01*
X83762000Y-202489571D01*
X83800095Y-202527666D01*
X83723904Y-203213380D02*
X83723904Y-203061000D01*
X83762000Y-202984809D01*
X83800095Y-202946714D01*
X83914380Y-202870523D01*
X84066761Y-202832428D01*
X84371523Y-202832428D01*
X84447714Y-202870523D01*
X84485809Y-202908619D01*
X84523904Y-202984809D01*
X84523904Y-203137190D01*
X84485809Y-203213380D01*
X84447714Y-203251476D01*
X84371523Y-203289571D01*
X84181047Y-203289571D01*
X84104857Y-203251476D01*
X84066761Y-203213380D01*
X84028666Y-203137190D01*
X84028666Y-202984809D01*
X84066761Y-202908619D01*
X84104857Y-202870523D01*
X84181047Y-202832428D01*
X92816297Y-190635008D02*
X92910578Y-190682148D01*
X92957719Y-190682148D01*
X93028429Y-190658578D01*
X93099140Y-190587867D01*
X93122710Y-190517157D01*
X93122710Y-190470016D01*
X93099140Y-190399306D01*
X92910578Y-190210744D01*
X92415603Y-190705719D01*
X92580595Y-190870710D01*
X92651306Y-190894280D01*
X92698446Y-190894280D01*
X92769157Y-190870710D01*
X92816297Y-190823570D01*
X92839867Y-190752859D01*
X92839867Y-190705719D01*
X92816297Y-190635008D01*
X92651306Y-190470016D01*
X93122710Y-191412825D02*
X93028429Y-191318544D01*
X93004859Y-191247834D01*
X93004859Y-191200693D01*
X93028429Y-191082842D01*
X93099140Y-190964991D01*
X93287702Y-190776429D01*
X93358412Y-190752859D01*
X93405553Y-190752859D01*
X93476264Y-190776429D01*
X93570544Y-190870710D01*
X93594115Y-190941421D01*
X93594115Y-190988561D01*
X93570544Y-191059272D01*
X93452693Y-191177123D01*
X93381983Y-191200693D01*
X93334842Y-191200693D01*
X93264132Y-191177123D01*
X93169851Y-191082842D01*
X93146280Y-191012132D01*
X93146280Y-190964991D01*
X93169851Y-190894280D01*
X76903904Y-202070523D02*
X76103904Y-202070523D01*
X76103904Y-202261000D01*
X76142000Y-202375285D01*
X76218190Y-202451476D01*
X76294380Y-202489571D01*
X76446761Y-202527666D01*
X76561047Y-202527666D01*
X76713428Y-202489571D01*
X76789619Y-202451476D01*
X76865809Y-202375285D01*
X76903904Y-202261000D01*
X76903904Y-202070523D01*
X76903904Y-203289571D02*
X76903904Y-202832428D01*
X76903904Y-203061000D02*
X76103904Y-203061000D01*
X76218190Y-202984809D01*
X76294380Y-202908619D01*
X76332476Y-202832428D01*
X87063904Y-202070523D02*
X86263904Y-202070523D01*
X86263904Y-202261000D01*
X86302000Y-202375285D01*
X86378190Y-202451476D01*
X86454380Y-202489571D01*
X86606761Y-202527666D01*
X86721047Y-202527666D01*
X86873428Y-202489571D01*
X86949619Y-202451476D01*
X87025809Y-202375285D01*
X87063904Y-202261000D01*
X87063904Y-202070523D01*
X86263904Y-202794333D02*
X86263904Y-203327666D01*
X87063904Y-202984809D01*
X79443904Y-202070523D02*
X78643904Y-202070523D01*
X78643904Y-202261000D01*
X78682000Y-202375285D01*
X78758190Y-202451476D01*
X78834380Y-202489571D01*
X78986761Y-202527666D01*
X79101047Y-202527666D01*
X79253428Y-202489571D01*
X79329619Y-202451476D01*
X79405809Y-202375285D01*
X79443904Y-202261000D01*
X79443904Y-202070523D01*
X78643904Y-203022904D02*
X78643904Y-203099095D01*
X78682000Y-203175285D01*
X78720095Y-203213380D01*
X78796285Y-203251476D01*
X78948666Y-203289571D01*
X79139142Y-203289571D01*
X79291523Y-203251476D01*
X79367714Y-203213380D01*
X79405809Y-203175285D01*
X79443904Y-203099095D01*
X79443904Y-203022904D01*
X79405809Y-202946714D01*
X79367714Y-202908619D01*
X79291523Y-202870523D01*
X79139142Y-202832428D01*
X78948666Y-202832428D01*
X78796285Y-202870523D01*
X78720095Y-202908619D01*
X78682000Y-202946714D01*
X78643904Y-203022904D01*
X92902000Y-201416666D02*
X92935333Y-201516666D01*
X92968666Y-201550000D01*
X93035333Y-201583333D01*
X93135333Y-201583333D01*
X93202000Y-201550000D01*
X93235333Y-201516666D01*
X93268666Y-201450000D01*
X93268666Y-201183333D01*
X92568666Y-201183333D01*
X92568666Y-201416666D01*
X92602000Y-201483333D01*
X92635333Y-201516666D01*
X92702000Y-201550000D01*
X92768666Y-201550000D01*
X92835333Y-201516666D01*
X92868666Y-201483333D01*
X92902000Y-201416666D01*
X92902000Y-201183333D01*
X92568666Y-201816666D02*
X92568666Y-202283333D01*
X93268666Y-201983333D01*
X81564857Y-191472333D02*
X81564857Y-191205666D01*
X81983904Y-191205666D02*
X81183904Y-191205666D01*
X81183904Y-191586619D01*
X81183904Y-192234238D02*
X81183904Y-192081857D01*
X81222000Y-192005666D01*
X81260095Y-191967571D01*
X81374380Y-191891380D01*
X81526761Y-191853285D01*
X81831523Y-191853285D01*
X81907714Y-191891380D01*
X81945809Y-191929476D01*
X81983904Y-192005666D01*
X81983904Y-192158047D01*
X81945809Y-192234238D01*
X81907714Y-192272333D01*
X81831523Y-192310428D01*
X81641047Y-192310428D01*
X81564857Y-192272333D01*
X81526761Y-192234238D01*
X81488666Y-192158047D01*
X81488666Y-192005666D01*
X81526761Y-191929476D01*
X81564857Y-191891380D01*
X81641047Y-191853285D01*
X117109880Y-219825714D02*
X116109880Y-219825714D01*
X116109880Y-220063809D01*
X116157500Y-220206666D01*
X116252738Y-220301904D01*
X116347976Y-220349523D01*
X116538452Y-220397142D01*
X116681309Y-220397142D01*
X116871785Y-220349523D01*
X116967023Y-220301904D01*
X117062261Y-220206666D01*
X117109880Y-220063809D01*
X117109880Y-219825714D01*
X117109880Y-221349523D02*
X117109880Y-220778095D01*
X117109880Y-221063809D02*
X116109880Y-221063809D01*
X116252738Y-220968571D01*
X116347976Y-220873333D01*
X116395595Y-220778095D01*
X116109880Y-221968571D02*
X116109880Y-222063809D01*
X116157500Y-222159047D01*
X116205119Y-222206666D01*
X116300357Y-222254285D01*
X116490833Y-222301904D01*
X116728928Y-222301904D01*
X116919404Y-222254285D01*
X117014642Y-222206666D01*
X117062261Y-222159047D01*
X117109880Y-222063809D01*
X117109880Y-221968571D01*
X117062261Y-221873333D01*
X117014642Y-221825714D01*
X116919404Y-221778095D01*
X116728928Y-221730476D01*
X116490833Y-221730476D01*
X116300357Y-221778095D01*
X116205119Y-221825714D01*
X116157500Y-221873333D01*
X116109880Y-221968571D01*
X112169880Y-221325714D02*
X112169880Y-220754285D01*
X112169880Y-221040000D02*
X111169880Y-221040000D01*
X111312738Y-220944761D01*
X111407976Y-220849523D01*
X111455595Y-220754285D01*
X116539880Y-224588095D02*
X115539880Y-224588095D01*
X116539880Y-225159523D02*
X115968452Y-224730952D01*
X115539880Y-225159523D02*
X116111309Y-224588095D01*
X269509880Y-219825714D02*
X268509880Y-219825714D01*
X268509880Y-220063809D01*
X268557500Y-220206666D01*
X268652738Y-220301904D01*
X268747976Y-220349523D01*
X268938452Y-220397142D01*
X269081309Y-220397142D01*
X269271785Y-220349523D01*
X269367023Y-220301904D01*
X269462261Y-220206666D01*
X269509880Y-220063809D01*
X269509880Y-219825714D01*
X269509880Y-221349523D02*
X269509880Y-220778095D01*
X269509880Y-221063809D02*
X268509880Y-221063809D01*
X268652738Y-220968571D01*
X268747976Y-220873333D01*
X268795595Y-220778095D01*
X269509880Y-221825714D02*
X269509880Y-222016190D01*
X269462261Y-222111428D01*
X269414642Y-222159047D01*
X269271785Y-222254285D01*
X269081309Y-222301904D01*
X268700357Y-222301904D01*
X268605119Y-222254285D01*
X268557500Y-222206666D01*
X268509880Y-222111428D01*
X268509880Y-221920952D01*
X268557500Y-221825714D01*
X268605119Y-221778095D01*
X268700357Y-221730476D01*
X268938452Y-221730476D01*
X269033690Y-221778095D01*
X269081309Y-221825714D01*
X269128928Y-221920952D01*
X269128928Y-222111428D01*
X269081309Y-222206666D01*
X269033690Y-222254285D01*
X268938452Y-222301904D01*
X264569880Y-220849523D02*
X264569880Y-221040000D01*
X264522261Y-221135238D01*
X264474642Y-221182857D01*
X264331785Y-221278095D01*
X264141309Y-221325714D01*
X263760357Y-221325714D01*
X263665119Y-221278095D01*
X263617500Y-221230476D01*
X263569880Y-221135238D01*
X263569880Y-220944761D01*
X263617500Y-220849523D01*
X263665119Y-220801904D01*
X263760357Y-220754285D01*
X263998452Y-220754285D01*
X264093690Y-220801904D01*
X264141309Y-220849523D01*
X264188928Y-220944761D01*
X264188928Y-221135238D01*
X264141309Y-221230476D01*
X264093690Y-221278095D01*
X263998452Y-221325714D01*
X268939880Y-224588095D02*
X267939880Y-224588095D01*
X268939880Y-225159523D02*
X268368452Y-224730952D01*
X267939880Y-225159523D02*
X268511309Y-224588095D01*
X145684880Y-238875714D02*
X144684880Y-238875714D01*
X144684880Y-239113809D01*
X144732500Y-239256666D01*
X144827738Y-239351904D01*
X144922976Y-239399523D01*
X145113452Y-239447142D01*
X145256309Y-239447142D01*
X145446785Y-239399523D01*
X145542023Y-239351904D01*
X145637261Y-239256666D01*
X145684880Y-239113809D01*
X145684880Y-238875714D01*
X144780119Y-239828095D02*
X144732500Y-239875714D01*
X144684880Y-239970952D01*
X144684880Y-240209047D01*
X144732500Y-240304285D01*
X144780119Y-240351904D01*
X144875357Y-240399523D01*
X144970595Y-240399523D01*
X145113452Y-240351904D01*
X145684880Y-239780476D01*
X145684880Y-240399523D01*
X145113452Y-240970952D02*
X145065833Y-240875714D01*
X145018214Y-240828095D01*
X144922976Y-240780476D01*
X144875357Y-240780476D01*
X144780119Y-240828095D01*
X144732500Y-240875714D01*
X144684880Y-240970952D01*
X144684880Y-241161428D01*
X144732500Y-241256666D01*
X144780119Y-241304285D01*
X144875357Y-241351904D01*
X144922976Y-241351904D01*
X145018214Y-241304285D01*
X145065833Y-241256666D01*
X145113452Y-241161428D01*
X145113452Y-240970952D01*
X145161071Y-240875714D01*
X145208690Y-240828095D01*
X145303928Y-240780476D01*
X145494404Y-240780476D01*
X145589642Y-240828095D01*
X145637261Y-240875714D01*
X145684880Y-240970952D01*
X145684880Y-241161428D01*
X145637261Y-241256666D01*
X145589642Y-241304285D01*
X145494404Y-241351904D01*
X145303928Y-241351904D01*
X145208690Y-241304285D01*
X145161071Y-241256666D01*
X145113452Y-241161428D01*
X139744880Y-239661428D02*
X140744880Y-239899523D01*
X140030595Y-240090000D01*
X140744880Y-240280476D01*
X139744880Y-240518571D01*
X145114880Y-243638095D02*
X144114880Y-243638095D01*
X145114880Y-244209523D02*
X144543452Y-243780952D01*
X144114880Y-244209523D02*
X144686309Y-243638095D01*
X188547380Y-257925714D02*
X187547380Y-257925714D01*
X187547380Y-258163809D01*
X187595000Y-258306666D01*
X187690238Y-258401904D01*
X187785476Y-258449523D01*
X187975952Y-258497142D01*
X188118809Y-258497142D01*
X188309285Y-258449523D01*
X188404523Y-258401904D01*
X188499761Y-258306666D01*
X188547380Y-258163809D01*
X188547380Y-257925714D01*
X187880714Y-259354285D02*
X188547380Y-259354285D01*
X187499761Y-259116190D02*
X188214047Y-258878095D01*
X188214047Y-259497142D01*
X187547380Y-260306666D02*
X187547380Y-260116190D01*
X187595000Y-260020952D01*
X187642619Y-259973333D01*
X187785476Y-259878095D01*
X187975952Y-259830476D01*
X188356904Y-259830476D01*
X188452142Y-259878095D01*
X188499761Y-259925714D01*
X188547380Y-260020952D01*
X188547380Y-260211428D01*
X188499761Y-260306666D01*
X188452142Y-260354285D01*
X188356904Y-260401904D01*
X188118809Y-260401904D01*
X188023571Y-260354285D01*
X187975952Y-260306666D01*
X187928333Y-260211428D01*
X187928333Y-260020952D01*
X187975952Y-259925714D01*
X188023571Y-259878095D01*
X188118809Y-259830476D01*
X183083571Y-259282857D02*
X183083571Y-258949523D01*
X183607380Y-258949523D02*
X182607380Y-258949523D01*
X182607380Y-259425714D01*
X187977380Y-262688095D02*
X186977380Y-262688095D01*
X187977380Y-263259523D02*
X187405952Y-262830952D01*
X186977380Y-263259523D02*
X187548809Y-262688095D01*
X340947380Y-257925714D02*
X339947380Y-257925714D01*
X339947380Y-258163809D01*
X339995000Y-258306666D01*
X340090238Y-258401904D01*
X340185476Y-258449523D01*
X340375952Y-258497142D01*
X340518809Y-258497142D01*
X340709285Y-258449523D01*
X340804523Y-258401904D01*
X340899761Y-258306666D01*
X340947380Y-258163809D01*
X340947380Y-257925714D01*
X339947380Y-259401904D02*
X339947380Y-258925714D01*
X340423571Y-258878095D01*
X340375952Y-258925714D01*
X340328333Y-259020952D01*
X340328333Y-259259047D01*
X340375952Y-259354285D01*
X340423571Y-259401904D01*
X340518809Y-259449523D01*
X340756904Y-259449523D01*
X340852142Y-259401904D01*
X340899761Y-259354285D01*
X340947380Y-259259047D01*
X340947380Y-259020952D01*
X340899761Y-258925714D01*
X340852142Y-258878095D01*
X339947380Y-260354285D02*
X339947380Y-259878095D01*
X340423571Y-259830476D01*
X340375952Y-259878095D01*
X340328333Y-259973333D01*
X340328333Y-260211428D01*
X340375952Y-260306666D01*
X340423571Y-260354285D01*
X340518809Y-260401904D01*
X340756904Y-260401904D01*
X340852142Y-260354285D01*
X340899761Y-260306666D01*
X340947380Y-260211428D01*
X340947380Y-259973333D01*
X340899761Y-259878095D01*
X340852142Y-259830476D01*
X336007380Y-257497142D02*
X335007380Y-257497142D01*
X335721666Y-257830476D01*
X335007380Y-258163809D01*
X336007380Y-258163809D01*
X335007380Y-258640000D02*
X335816904Y-258640000D01*
X335912142Y-258687619D01*
X335959761Y-258735238D01*
X336007380Y-258830476D01*
X336007380Y-259020952D01*
X335959761Y-259116190D01*
X335912142Y-259163809D01*
X335816904Y-259211428D01*
X335007380Y-259211428D01*
X336007380Y-260163809D02*
X336007380Y-259687619D01*
X335007380Y-259687619D01*
X335007380Y-260354285D02*
X335007380Y-260925714D01*
X336007380Y-260640000D02*
X335007380Y-260640000D01*
X340377380Y-262688095D02*
X339377380Y-262688095D01*
X340377380Y-263259523D02*
X339805952Y-262830952D01*
X339377380Y-263259523D02*
X339948809Y-262688095D01*
X236172380Y-276975714D02*
X235172380Y-276975714D01*
X235172380Y-277213809D01*
X235220000Y-277356666D01*
X235315238Y-277451904D01*
X235410476Y-277499523D01*
X235600952Y-277547142D01*
X235743809Y-277547142D01*
X235934285Y-277499523D01*
X236029523Y-277451904D01*
X236124761Y-277356666D01*
X236172380Y-277213809D01*
X236172380Y-276975714D01*
X235172380Y-278451904D02*
X235172380Y-277975714D01*
X235648571Y-277928095D01*
X235600952Y-277975714D01*
X235553333Y-278070952D01*
X235553333Y-278309047D01*
X235600952Y-278404285D01*
X235648571Y-278451904D01*
X235743809Y-278499523D01*
X235981904Y-278499523D01*
X236077142Y-278451904D01*
X236124761Y-278404285D01*
X236172380Y-278309047D01*
X236172380Y-278070952D01*
X236124761Y-277975714D01*
X236077142Y-277928095D01*
X235505714Y-279356666D02*
X236172380Y-279356666D01*
X235124761Y-279118571D02*
X235839047Y-278880476D01*
X235839047Y-279499523D01*
X231232380Y-277904285D02*
X230232380Y-277904285D01*
X231232380Y-278475714D01*
X230232380Y-278475714D01*
X235602380Y-281738095D02*
X234602380Y-281738095D01*
X235602380Y-282309523D02*
X235030952Y-281880952D01*
X234602380Y-282309523D02*
X235173809Y-281738095D01*
X136159880Y-219825714D02*
X135159880Y-219825714D01*
X135159880Y-220063809D01*
X135207500Y-220206666D01*
X135302738Y-220301904D01*
X135397976Y-220349523D01*
X135588452Y-220397142D01*
X135731309Y-220397142D01*
X135921785Y-220349523D01*
X136017023Y-220301904D01*
X136112261Y-220206666D01*
X136159880Y-220063809D01*
X136159880Y-219825714D01*
X136159880Y-221349523D02*
X136159880Y-220778095D01*
X136159880Y-221063809D02*
X135159880Y-221063809D01*
X135302738Y-220968571D01*
X135397976Y-220873333D01*
X135445595Y-220778095D01*
X136159880Y-222301904D02*
X136159880Y-221730476D01*
X136159880Y-222016190D02*
X135159880Y-222016190D01*
X135302738Y-221920952D01*
X135397976Y-221825714D01*
X135445595Y-221730476D01*
X130315119Y-220754285D02*
X130267500Y-220801904D01*
X130219880Y-220897142D01*
X130219880Y-221135238D01*
X130267500Y-221230476D01*
X130315119Y-221278095D01*
X130410357Y-221325714D01*
X130505595Y-221325714D01*
X130648452Y-221278095D01*
X131219880Y-220706666D01*
X131219880Y-221325714D01*
X135589880Y-224588095D02*
X134589880Y-224588095D01*
X135589880Y-225159523D02*
X135018452Y-224730952D01*
X134589880Y-225159523D02*
X135161309Y-224588095D01*
X288559880Y-219825714D02*
X287559880Y-219825714D01*
X287559880Y-220063809D01*
X287607500Y-220206666D01*
X287702738Y-220301904D01*
X287797976Y-220349523D01*
X287988452Y-220397142D01*
X288131309Y-220397142D01*
X288321785Y-220349523D01*
X288417023Y-220301904D01*
X288512261Y-220206666D01*
X288559880Y-220063809D01*
X288559880Y-219825714D01*
X287655119Y-220778095D02*
X287607500Y-220825714D01*
X287559880Y-220920952D01*
X287559880Y-221159047D01*
X287607500Y-221254285D01*
X287655119Y-221301904D01*
X287750357Y-221349523D01*
X287845595Y-221349523D01*
X287988452Y-221301904D01*
X288559880Y-220730476D01*
X288559880Y-221349523D01*
X287559880Y-221968571D02*
X287559880Y-222063809D01*
X287607500Y-222159047D01*
X287655119Y-222206666D01*
X287750357Y-222254285D01*
X287940833Y-222301904D01*
X288178928Y-222301904D01*
X288369404Y-222254285D01*
X288464642Y-222206666D01*
X288512261Y-222159047D01*
X288559880Y-222063809D01*
X288559880Y-221968571D01*
X288512261Y-221873333D01*
X288464642Y-221825714D01*
X288369404Y-221778095D01*
X288178928Y-221730476D01*
X287940833Y-221730476D01*
X287750357Y-221778095D01*
X287655119Y-221825714D01*
X287607500Y-221873333D01*
X287559880Y-221968571D01*
X282619880Y-220992380D02*
X282619880Y-221087619D01*
X282667500Y-221182857D01*
X282715119Y-221230476D01*
X282810357Y-221278095D01*
X283000833Y-221325714D01*
X283238928Y-221325714D01*
X283429404Y-221278095D01*
X283524642Y-221230476D01*
X283572261Y-221182857D01*
X283619880Y-221087619D01*
X283619880Y-220992380D01*
X283572261Y-220897142D01*
X283524642Y-220849523D01*
X283429404Y-220801904D01*
X283238928Y-220754285D01*
X283000833Y-220754285D01*
X282810357Y-220801904D01*
X282715119Y-220849523D01*
X282667500Y-220897142D01*
X282619880Y-220992380D01*
X287989880Y-224588095D02*
X286989880Y-224588095D01*
X287989880Y-225159523D02*
X287418452Y-224730952D01*
X286989880Y-225159523D02*
X287561309Y-224588095D01*
X164734880Y-238875714D02*
X163734880Y-238875714D01*
X163734880Y-239113809D01*
X163782500Y-239256666D01*
X163877738Y-239351904D01*
X163972976Y-239399523D01*
X164163452Y-239447142D01*
X164306309Y-239447142D01*
X164496785Y-239399523D01*
X164592023Y-239351904D01*
X164687261Y-239256666D01*
X164734880Y-239113809D01*
X164734880Y-238875714D01*
X163830119Y-239828095D02*
X163782500Y-239875714D01*
X163734880Y-239970952D01*
X163734880Y-240209047D01*
X163782500Y-240304285D01*
X163830119Y-240351904D01*
X163925357Y-240399523D01*
X164020595Y-240399523D01*
X164163452Y-240351904D01*
X164734880Y-239780476D01*
X164734880Y-240399523D01*
X164734880Y-240875714D02*
X164734880Y-241066190D01*
X164687261Y-241161428D01*
X164639642Y-241209047D01*
X164496785Y-241304285D01*
X164306309Y-241351904D01*
X163925357Y-241351904D01*
X163830119Y-241304285D01*
X163782500Y-241256666D01*
X163734880Y-241161428D01*
X163734880Y-240970952D01*
X163782500Y-240875714D01*
X163830119Y-240828095D01*
X163925357Y-240780476D01*
X164163452Y-240780476D01*
X164258690Y-240828095D01*
X164306309Y-240875714D01*
X164353928Y-240970952D01*
X164353928Y-241161428D01*
X164306309Y-241256666D01*
X164258690Y-241304285D01*
X164163452Y-241351904D01*
X159271071Y-239875714D02*
X159271071Y-240209047D01*
X159794880Y-240351904D02*
X159794880Y-239875714D01*
X158794880Y-239875714D01*
X158794880Y-240351904D01*
X164164880Y-243638095D02*
X163164880Y-243638095D01*
X164164880Y-244209523D02*
X163593452Y-243780952D01*
X163164880Y-244209523D02*
X163736309Y-243638095D01*
X317134880Y-238875714D02*
X316134880Y-238875714D01*
X316134880Y-239113809D01*
X316182500Y-239256666D01*
X316277738Y-239351904D01*
X316372976Y-239399523D01*
X316563452Y-239447142D01*
X316706309Y-239447142D01*
X316896785Y-239399523D01*
X316992023Y-239351904D01*
X317087261Y-239256666D01*
X317134880Y-239113809D01*
X317134880Y-238875714D01*
X316134880Y-239780476D02*
X316134880Y-240399523D01*
X316515833Y-240066190D01*
X316515833Y-240209047D01*
X316563452Y-240304285D01*
X316611071Y-240351904D01*
X316706309Y-240399523D01*
X316944404Y-240399523D01*
X317039642Y-240351904D01*
X317087261Y-240304285D01*
X317134880Y-240209047D01*
X317134880Y-239923333D01*
X317087261Y-239828095D01*
X317039642Y-239780476D01*
X316563452Y-240970952D02*
X316515833Y-240875714D01*
X316468214Y-240828095D01*
X316372976Y-240780476D01*
X316325357Y-240780476D01*
X316230119Y-240828095D01*
X316182500Y-240875714D01*
X316134880Y-240970952D01*
X316134880Y-241161428D01*
X316182500Y-241256666D01*
X316230119Y-241304285D01*
X316325357Y-241351904D01*
X316372976Y-241351904D01*
X316468214Y-241304285D01*
X316515833Y-241256666D01*
X316563452Y-241161428D01*
X316563452Y-240970952D01*
X316611071Y-240875714D01*
X316658690Y-240828095D01*
X316753928Y-240780476D01*
X316944404Y-240780476D01*
X317039642Y-240828095D01*
X317087261Y-240875714D01*
X317134880Y-240970952D01*
X317134880Y-241161428D01*
X317087261Y-241256666D01*
X317039642Y-241304285D01*
X316944404Y-241351904D01*
X316753928Y-241351904D01*
X316658690Y-241304285D01*
X316611071Y-241256666D01*
X316563452Y-241161428D01*
X312528214Y-239328095D02*
X312528214Y-239090000D01*
X311099642Y-239090000D01*
X311099642Y-239328095D01*
X311813928Y-239709047D02*
X311813928Y-240470952D01*
X312528214Y-240851904D02*
X312528214Y-241090000D01*
X311099642Y-241090000D01*
X311099642Y-240851904D01*
X316564880Y-243638095D02*
X315564880Y-243638095D01*
X316564880Y-244209523D02*
X315993452Y-243780952D01*
X315564880Y-244209523D02*
X316136309Y-243638095D01*
X207597380Y-257925714D02*
X206597380Y-257925714D01*
X206597380Y-258163809D01*
X206645000Y-258306666D01*
X206740238Y-258401904D01*
X206835476Y-258449523D01*
X207025952Y-258497142D01*
X207168809Y-258497142D01*
X207359285Y-258449523D01*
X207454523Y-258401904D01*
X207549761Y-258306666D01*
X207597380Y-258163809D01*
X207597380Y-257925714D01*
X206930714Y-259354285D02*
X207597380Y-259354285D01*
X206549761Y-259116190D02*
X207264047Y-258878095D01*
X207264047Y-259497142D01*
X206597380Y-259782857D02*
X206597380Y-260449523D01*
X207597380Y-260020952D01*
X201705000Y-259401904D02*
X201657380Y-259306666D01*
X201657380Y-259163809D01*
X201705000Y-259020952D01*
X201800238Y-258925714D01*
X201895476Y-258878095D01*
X202085952Y-258830476D01*
X202228809Y-258830476D01*
X202419285Y-258878095D01*
X202514523Y-258925714D01*
X202609761Y-259020952D01*
X202657380Y-259163809D01*
X202657380Y-259259047D01*
X202609761Y-259401904D01*
X202562142Y-259449523D01*
X202228809Y-259449523D01*
X202228809Y-259259047D01*
X207027380Y-262688095D02*
X206027380Y-262688095D01*
X207027380Y-263259523D02*
X206455952Y-262830952D01*
X206027380Y-263259523D02*
X206598809Y-262688095D01*
X364759880Y-257925714D02*
X363759880Y-257925714D01*
X363759880Y-258163809D01*
X363807500Y-258306666D01*
X363902738Y-258401904D01*
X363997976Y-258449523D01*
X364188452Y-258497142D01*
X364331309Y-258497142D01*
X364521785Y-258449523D01*
X364617023Y-258401904D01*
X364712261Y-258306666D01*
X364759880Y-258163809D01*
X364759880Y-257925714D01*
X363759880Y-259401904D02*
X363759880Y-258925714D01*
X364236071Y-258878095D01*
X364188452Y-258925714D01*
X364140833Y-259020952D01*
X364140833Y-259259047D01*
X364188452Y-259354285D01*
X364236071Y-259401904D01*
X364331309Y-259449523D01*
X364569404Y-259449523D01*
X364664642Y-259401904D01*
X364712261Y-259354285D01*
X364759880Y-259259047D01*
X364759880Y-259020952D01*
X364712261Y-258925714D01*
X364664642Y-258878095D01*
X363759880Y-260306666D02*
X363759880Y-260116190D01*
X363807500Y-260020952D01*
X363855119Y-259973333D01*
X363997976Y-259878095D01*
X364188452Y-259830476D01*
X364569404Y-259830476D01*
X364664642Y-259878095D01*
X364712261Y-259925714D01*
X364759880Y-260020952D01*
X364759880Y-260211428D01*
X364712261Y-260306666D01*
X364664642Y-260354285D01*
X364569404Y-260401904D01*
X364331309Y-260401904D01*
X364236071Y-260354285D01*
X364188452Y-260306666D01*
X364140833Y-260211428D01*
X364140833Y-260020952D01*
X364188452Y-259925714D01*
X364236071Y-259878095D01*
X364331309Y-259830476D01*
X359724642Y-258044761D02*
X359772261Y-257997142D01*
X359819880Y-257854285D01*
X359819880Y-257759047D01*
X359772261Y-257616190D01*
X359677023Y-257520952D01*
X359581785Y-257473333D01*
X359391309Y-257425714D01*
X359248452Y-257425714D01*
X359057976Y-257473333D01*
X358962738Y-257520952D01*
X358867500Y-257616190D01*
X358819880Y-257759047D01*
X358819880Y-257854285D01*
X358867500Y-257997142D01*
X358915119Y-258044761D01*
X359534166Y-258425714D02*
X359534166Y-258901904D01*
X359819880Y-258330476D02*
X358819880Y-258663809D01*
X359819880Y-258997142D01*
X359819880Y-259330476D02*
X358819880Y-259330476D01*
X358819880Y-259711428D01*
X358867500Y-259806666D01*
X358915119Y-259854285D01*
X359010357Y-259901904D01*
X359153214Y-259901904D01*
X359248452Y-259854285D01*
X359296071Y-259806666D01*
X359343690Y-259711428D01*
X359343690Y-259330476D01*
X359772261Y-260282857D02*
X359819880Y-260425714D01*
X359819880Y-260663809D01*
X359772261Y-260759047D01*
X359724642Y-260806666D01*
X359629404Y-260854285D01*
X359534166Y-260854285D01*
X359438928Y-260806666D01*
X359391309Y-260759047D01*
X359343690Y-260663809D01*
X359296071Y-260473333D01*
X359248452Y-260378095D01*
X359200833Y-260330476D01*
X359105595Y-260282857D01*
X359010357Y-260282857D01*
X358915119Y-260330476D01*
X358867500Y-260378095D01*
X358819880Y-260473333D01*
X358819880Y-260711428D01*
X358867500Y-260854285D01*
X364189880Y-262688095D02*
X363189880Y-262688095D01*
X364189880Y-263259523D02*
X363618452Y-262830952D01*
X363189880Y-263259523D02*
X363761309Y-262688095D01*
X255222380Y-276975714D02*
X254222380Y-276975714D01*
X254222380Y-277213809D01*
X254270000Y-277356666D01*
X254365238Y-277451904D01*
X254460476Y-277499523D01*
X254650952Y-277547142D01*
X254793809Y-277547142D01*
X254984285Y-277499523D01*
X255079523Y-277451904D01*
X255174761Y-277356666D01*
X255222380Y-277213809D01*
X255222380Y-276975714D01*
X254222380Y-278404285D02*
X254222380Y-278213809D01*
X254270000Y-278118571D01*
X254317619Y-278070952D01*
X254460476Y-277975714D01*
X254650952Y-277928095D01*
X255031904Y-277928095D01*
X255127142Y-277975714D01*
X255174761Y-278023333D01*
X255222380Y-278118571D01*
X255222380Y-278309047D01*
X255174761Y-278404285D01*
X255127142Y-278451904D01*
X255031904Y-278499523D01*
X254793809Y-278499523D01*
X254698571Y-278451904D01*
X254650952Y-278404285D01*
X254603333Y-278309047D01*
X254603333Y-278118571D01*
X254650952Y-278023333D01*
X254698571Y-277975714D01*
X254793809Y-277928095D01*
X254222380Y-278832857D02*
X254222380Y-279451904D01*
X254603333Y-279118571D01*
X254603333Y-279261428D01*
X254650952Y-279356666D01*
X254698571Y-279404285D01*
X254793809Y-279451904D01*
X255031904Y-279451904D01*
X255127142Y-279404285D01*
X255174761Y-279356666D01*
X255222380Y-279261428D01*
X255222380Y-278975714D01*
X255174761Y-278880476D01*
X255127142Y-278832857D01*
X250282380Y-277856666D02*
X249282380Y-277856666D01*
X249996666Y-278190000D01*
X249282380Y-278523333D01*
X250282380Y-278523333D01*
X254652380Y-281738095D02*
X253652380Y-281738095D01*
X254652380Y-282309523D02*
X254080952Y-281880952D01*
X253652380Y-282309523D02*
X254223809Y-281738095D01*
X155209880Y-219825714D02*
X154209880Y-219825714D01*
X154209880Y-220063809D01*
X154257500Y-220206666D01*
X154352738Y-220301904D01*
X154447976Y-220349523D01*
X154638452Y-220397142D01*
X154781309Y-220397142D01*
X154971785Y-220349523D01*
X155067023Y-220301904D01*
X155162261Y-220206666D01*
X155209880Y-220063809D01*
X155209880Y-219825714D01*
X155209880Y-221349523D02*
X155209880Y-220778095D01*
X155209880Y-221063809D02*
X154209880Y-221063809D01*
X154352738Y-220968571D01*
X154447976Y-220873333D01*
X154495595Y-220778095D01*
X154305119Y-221730476D02*
X154257500Y-221778095D01*
X154209880Y-221873333D01*
X154209880Y-222111428D01*
X154257500Y-222206666D01*
X154305119Y-222254285D01*
X154400357Y-222301904D01*
X154495595Y-222301904D01*
X154638452Y-222254285D01*
X155209880Y-221682857D01*
X155209880Y-222301904D01*
X149269880Y-220706666D02*
X149269880Y-221325714D01*
X149650833Y-220992380D01*
X149650833Y-221135238D01*
X149698452Y-221230476D01*
X149746071Y-221278095D01*
X149841309Y-221325714D01*
X150079404Y-221325714D01*
X150174642Y-221278095D01*
X150222261Y-221230476D01*
X150269880Y-221135238D01*
X150269880Y-220849523D01*
X150222261Y-220754285D01*
X150174642Y-220706666D01*
X154639880Y-224588095D02*
X153639880Y-224588095D01*
X154639880Y-225159523D02*
X154068452Y-224730952D01*
X153639880Y-225159523D02*
X154211309Y-224588095D01*
X307609880Y-219825714D02*
X306609880Y-219825714D01*
X306609880Y-220063809D01*
X306657500Y-220206666D01*
X306752738Y-220301904D01*
X306847976Y-220349523D01*
X307038452Y-220397142D01*
X307181309Y-220397142D01*
X307371785Y-220349523D01*
X307467023Y-220301904D01*
X307562261Y-220206666D01*
X307609880Y-220063809D01*
X307609880Y-219825714D01*
X306705119Y-220778095D02*
X306657500Y-220825714D01*
X306609880Y-220920952D01*
X306609880Y-221159047D01*
X306657500Y-221254285D01*
X306705119Y-221301904D01*
X306800357Y-221349523D01*
X306895595Y-221349523D01*
X307038452Y-221301904D01*
X307609880Y-220730476D01*
X307609880Y-221349523D01*
X307609880Y-222301904D02*
X307609880Y-221730476D01*
X307609880Y-222016190D02*
X306609880Y-222016190D01*
X306752738Y-221920952D01*
X306847976Y-221825714D01*
X306895595Y-221730476D01*
X302003214Y-221420952D02*
X302288928Y-220659047D01*
X302574642Y-221420952D01*
X307039880Y-224588095D02*
X306039880Y-224588095D01*
X307039880Y-225159523D02*
X306468452Y-224730952D01*
X306039880Y-225159523D02*
X306611309Y-224588095D01*
X183784880Y-238875714D02*
X182784880Y-238875714D01*
X182784880Y-239113809D01*
X182832500Y-239256666D01*
X182927738Y-239351904D01*
X183022976Y-239399523D01*
X183213452Y-239447142D01*
X183356309Y-239447142D01*
X183546785Y-239399523D01*
X183642023Y-239351904D01*
X183737261Y-239256666D01*
X183784880Y-239113809D01*
X183784880Y-238875714D01*
X182784880Y-239780476D02*
X182784880Y-240399523D01*
X183165833Y-240066190D01*
X183165833Y-240209047D01*
X183213452Y-240304285D01*
X183261071Y-240351904D01*
X183356309Y-240399523D01*
X183594404Y-240399523D01*
X183689642Y-240351904D01*
X183737261Y-240304285D01*
X183784880Y-240209047D01*
X183784880Y-239923333D01*
X183737261Y-239828095D01*
X183689642Y-239780476D01*
X182784880Y-241018571D02*
X182784880Y-241113809D01*
X182832500Y-241209047D01*
X182880119Y-241256666D01*
X182975357Y-241304285D01*
X183165833Y-241351904D01*
X183403928Y-241351904D01*
X183594404Y-241304285D01*
X183689642Y-241256666D01*
X183737261Y-241209047D01*
X183784880Y-241113809D01*
X183784880Y-241018571D01*
X183737261Y-240923333D01*
X183689642Y-240875714D01*
X183594404Y-240828095D01*
X183403928Y-240780476D01*
X183165833Y-240780476D01*
X182975357Y-240828095D01*
X182880119Y-240875714D01*
X182832500Y-240923333D01*
X182784880Y-241018571D01*
X178844880Y-240399523D02*
X178368690Y-240066190D01*
X178844880Y-239828095D02*
X177844880Y-239828095D01*
X177844880Y-240209047D01*
X177892500Y-240304285D01*
X177940119Y-240351904D01*
X178035357Y-240399523D01*
X178178214Y-240399523D01*
X178273452Y-240351904D01*
X178321071Y-240304285D01*
X178368690Y-240209047D01*
X178368690Y-239828095D01*
X183214880Y-243638095D02*
X182214880Y-243638095D01*
X183214880Y-244209523D02*
X182643452Y-243780952D01*
X182214880Y-244209523D02*
X182786309Y-243638095D01*
X336184880Y-238875714D02*
X335184880Y-238875714D01*
X335184880Y-239113809D01*
X335232500Y-239256666D01*
X335327738Y-239351904D01*
X335422976Y-239399523D01*
X335613452Y-239447142D01*
X335756309Y-239447142D01*
X335946785Y-239399523D01*
X336042023Y-239351904D01*
X336137261Y-239256666D01*
X336184880Y-239113809D01*
X336184880Y-238875714D01*
X335184880Y-239780476D02*
X335184880Y-240399523D01*
X335565833Y-240066190D01*
X335565833Y-240209047D01*
X335613452Y-240304285D01*
X335661071Y-240351904D01*
X335756309Y-240399523D01*
X335994404Y-240399523D01*
X336089642Y-240351904D01*
X336137261Y-240304285D01*
X336184880Y-240209047D01*
X336184880Y-239923333D01*
X336137261Y-239828095D01*
X336089642Y-239780476D01*
X336184880Y-240875714D02*
X336184880Y-241066190D01*
X336137261Y-241161428D01*
X336089642Y-241209047D01*
X335946785Y-241304285D01*
X335756309Y-241351904D01*
X335375357Y-241351904D01*
X335280119Y-241304285D01*
X335232500Y-241256666D01*
X335184880Y-241161428D01*
X335184880Y-240970952D01*
X335232500Y-240875714D01*
X335280119Y-240828095D01*
X335375357Y-240780476D01*
X335613452Y-240780476D01*
X335708690Y-240828095D01*
X335756309Y-240875714D01*
X335803928Y-240970952D01*
X335803928Y-241161428D01*
X335756309Y-241256666D01*
X335708690Y-241304285D01*
X335613452Y-241351904D01*
X331578214Y-239328095D02*
X331578214Y-239090000D01*
X330149642Y-239090000D01*
X330149642Y-239328095D01*
X330721071Y-239709047D02*
X330721071Y-240470952D01*
X331006785Y-240470952D02*
X331006785Y-239709047D01*
X331578214Y-240851904D02*
X331578214Y-241090000D01*
X330149642Y-241090000D01*
X330149642Y-240851904D01*
X335614880Y-243638095D02*
X334614880Y-243638095D01*
X335614880Y-244209523D02*
X335043452Y-243780952D01*
X334614880Y-244209523D02*
X335186309Y-243638095D01*
X226647380Y-257925714D02*
X225647380Y-257925714D01*
X225647380Y-258163809D01*
X225695000Y-258306666D01*
X225790238Y-258401904D01*
X225885476Y-258449523D01*
X226075952Y-258497142D01*
X226218809Y-258497142D01*
X226409285Y-258449523D01*
X226504523Y-258401904D01*
X226599761Y-258306666D01*
X226647380Y-258163809D01*
X226647380Y-257925714D01*
X225980714Y-259354285D02*
X226647380Y-259354285D01*
X225599761Y-259116190D02*
X226314047Y-258878095D01*
X226314047Y-259497142D01*
X226075952Y-260020952D02*
X226028333Y-259925714D01*
X225980714Y-259878095D01*
X225885476Y-259830476D01*
X225837857Y-259830476D01*
X225742619Y-259878095D01*
X225695000Y-259925714D01*
X225647380Y-260020952D01*
X225647380Y-260211428D01*
X225695000Y-260306666D01*
X225742619Y-260354285D01*
X225837857Y-260401904D01*
X225885476Y-260401904D01*
X225980714Y-260354285D01*
X226028333Y-260306666D01*
X226075952Y-260211428D01*
X226075952Y-260020952D01*
X226123571Y-259925714D01*
X226171190Y-259878095D01*
X226266428Y-259830476D01*
X226456904Y-259830476D01*
X226552142Y-259878095D01*
X226599761Y-259925714D01*
X226647380Y-260020952D01*
X226647380Y-260211428D01*
X226599761Y-260306666D01*
X226552142Y-260354285D01*
X226456904Y-260401904D01*
X226266428Y-260401904D01*
X226171190Y-260354285D01*
X226123571Y-260306666D01*
X226075952Y-260211428D01*
X221707380Y-258854285D02*
X220707380Y-258854285D01*
X221183571Y-258854285D02*
X221183571Y-259425714D01*
X221707380Y-259425714D02*
X220707380Y-259425714D01*
X226077380Y-262688095D02*
X225077380Y-262688095D01*
X226077380Y-263259523D02*
X225505952Y-262830952D01*
X225077380Y-263259523D02*
X225648809Y-262688095D01*
X274272380Y-276975714D02*
X273272380Y-276975714D01*
X273272380Y-277213809D01*
X273320000Y-277356666D01*
X273415238Y-277451904D01*
X273510476Y-277499523D01*
X273700952Y-277547142D01*
X273843809Y-277547142D01*
X274034285Y-277499523D01*
X274129523Y-277451904D01*
X274224761Y-277356666D01*
X274272380Y-277213809D01*
X274272380Y-276975714D01*
X273272380Y-277880476D02*
X273272380Y-278547142D01*
X274272380Y-278118571D01*
X273367619Y-278880476D02*
X273320000Y-278928095D01*
X273272380Y-279023333D01*
X273272380Y-279261428D01*
X273320000Y-279356666D01*
X273367619Y-279404285D01*
X273462857Y-279451904D01*
X273558095Y-279451904D01*
X273700952Y-279404285D01*
X274272380Y-278832857D01*
X274272380Y-279451904D01*
X269665714Y-277809047D02*
X269665714Y-277570952D01*
X268237142Y-277570952D01*
X268237142Y-277809047D01*
X269284761Y-278237619D02*
X269332380Y-278237619D01*
X269427619Y-278190000D01*
X269475238Y-278142380D01*
X269665714Y-278570952D02*
X269665714Y-278809047D01*
X268237142Y-278809047D01*
X268237142Y-278570952D01*
X273702380Y-281738095D02*
X272702380Y-281738095D01*
X273702380Y-282309523D02*
X273130952Y-281880952D01*
X272702380Y-282309523D02*
X273273809Y-281738095D01*
X174259880Y-219825714D02*
X173259880Y-219825714D01*
X173259880Y-220063809D01*
X173307500Y-220206666D01*
X173402738Y-220301904D01*
X173497976Y-220349523D01*
X173688452Y-220397142D01*
X173831309Y-220397142D01*
X174021785Y-220349523D01*
X174117023Y-220301904D01*
X174212261Y-220206666D01*
X174259880Y-220063809D01*
X174259880Y-219825714D01*
X174259880Y-221349523D02*
X174259880Y-220778095D01*
X174259880Y-221063809D02*
X173259880Y-221063809D01*
X173402738Y-220968571D01*
X173497976Y-220873333D01*
X173545595Y-220778095D01*
X173259880Y-221682857D02*
X173259880Y-222301904D01*
X173640833Y-221968571D01*
X173640833Y-222111428D01*
X173688452Y-222206666D01*
X173736071Y-222254285D01*
X173831309Y-222301904D01*
X174069404Y-222301904D01*
X174164642Y-222254285D01*
X174212261Y-222206666D01*
X174259880Y-222111428D01*
X174259880Y-221825714D01*
X174212261Y-221730476D01*
X174164642Y-221682857D01*
X168653214Y-221230476D02*
X169319880Y-221230476D01*
X168272261Y-220992380D02*
X168986547Y-220754285D01*
X168986547Y-221373333D01*
X173689880Y-224588095D02*
X172689880Y-224588095D01*
X173689880Y-225159523D02*
X173118452Y-224730952D01*
X172689880Y-225159523D02*
X173261309Y-224588095D01*
X326659880Y-219825714D02*
X325659880Y-219825714D01*
X325659880Y-220063809D01*
X325707500Y-220206666D01*
X325802738Y-220301904D01*
X325897976Y-220349523D01*
X326088452Y-220397142D01*
X326231309Y-220397142D01*
X326421785Y-220349523D01*
X326517023Y-220301904D01*
X326612261Y-220206666D01*
X326659880Y-220063809D01*
X326659880Y-219825714D01*
X325755119Y-220778095D02*
X325707500Y-220825714D01*
X325659880Y-220920952D01*
X325659880Y-221159047D01*
X325707500Y-221254285D01*
X325755119Y-221301904D01*
X325850357Y-221349523D01*
X325945595Y-221349523D01*
X326088452Y-221301904D01*
X326659880Y-220730476D01*
X326659880Y-221349523D01*
X325755119Y-221730476D02*
X325707500Y-221778095D01*
X325659880Y-221873333D01*
X325659880Y-222111428D01*
X325707500Y-222206666D01*
X325755119Y-222254285D01*
X325850357Y-222301904D01*
X325945595Y-222301904D01*
X326088452Y-222254285D01*
X326659880Y-221682857D01*
X326659880Y-222301904D01*
X321053214Y-220659047D02*
X321338928Y-221420952D01*
X321624642Y-220659047D01*
X326089880Y-224588095D02*
X325089880Y-224588095D01*
X326089880Y-225159523D02*
X325518452Y-224730952D01*
X325089880Y-225159523D02*
X325661309Y-224588095D01*
X202834880Y-238875714D02*
X201834880Y-238875714D01*
X201834880Y-239113809D01*
X201882500Y-239256666D01*
X201977738Y-239351904D01*
X202072976Y-239399523D01*
X202263452Y-239447142D01*
X202406309Y-239447142D01*
X202596785Y-239399523D01*
X202692023Y-239351904D01*
X202787261Y-239256666D01*
X202834880Y-239113809D01*
X202834880Y-238875714D01*
X201834880Y-239780476D02*
X201834880Y-240399523D01*
X202215833Y-240066190D01*
X202215833Y-240209047D01*
X202263452Y-240304285D01*
X202311071Y-240351904D01*
X202406309Y-240399523D01*
X202644404Y-240399523D01*
X202739642Y-240351904D01*
X202787261Y-240304285D01*
X202834880Y-240209047D01*
X202834880Y-239923333D01*
X202787261Y-239828095D01*
X202739642Y-239780476D01*
X202834880Y-241351904D02*
X202834880Y-240780476D01*
X202834880Y-241066190D02*
X201834880Y-241066190D01*
X201977738Y-240970952D01*
X202072976Y-240875714D01*
X202120595Y-240780476D01*
X196894880Y-239804285D02*
X196894880Y-240375714D01*
X197894880Y-240090000D02*
X196894880Y-240090000D01*
X202264880Y-243638095D02*
X201264880Y-243638095D01*
X202264880Y-244209523D02*
X201693452Y-243780952D01*
X201264880Y-244209523D02*
X201836309Y-243638095D01*
X364759880Y-238875714D02*
X363759880Y-238875714D01*
X363759880Y-239113809D01*
X363807500Y-239256666D01*
X363902738Y-239351904D01*
X363997976Y-239399523D01*
X364188452Y-239447142D01*
X364331309Y-239447142D01*
X364521785Y-239399523D01*
X364617023Y-239351904D01*
X364712261Y-239256666D01*
X364759880Y-239113809D01*
X364759880Y-238875714D01*
X364093214Y-240304285D02*
X364759880Y-240304285D01*
X363712261Y-240066190D02*
X364426547Y-239828095D01*
X364426547Y-240447142D01*
X363759880Y-241018571D02*
X363759880Y-241113809D01*
X363807500Y-241209047D01*
X363855119Y-241256666D01*
X363950357Y-241304285D01*
X364140833Y-241351904D01*
X364378928Y-241351904D01*
X364569404Y-241304285D01*
X364664642Y-241256666D01*
X364712261Y-241209047D01*
X364759880Y-241113809D01*
X364759880Y-241018571D01*
X364712261Y-240923333D01*
X364664642Y-240875714D01*
X364569404Y-240828095D01*
X364378928Y-240780476D01*
X364140833Y-240780476D01*
X363950357Y-240828095D01*
X363855119Y-240875714D01*
X363807500Y-240923333D01*
X363759880Y-241018571D01*
X359819880Y-239566190D02*
X359343690Y-239232857D01*
X359819880Y-238994761D02*
X358819880Y-238994761D01*
X358819880Y-239375714D01*
X358867500Y-239470952D01*
X358915119Y-239518571D01*
X359010357Y-239566190D01*
X359153214Y-239566190D01*
X359248452Y-239518571D01*
X359296071Y-239470952D01*
X359343690Y-239375714D01*
X359343690Y-238994761D01*
X359296071Y-239994761D02*
X359296071Y-240328095D01*
X359819880Y-240470952D02*
X359819880Y-239994761D01*
X358819880Y-239994761D01*
X358819880Y-240470952D01*
X358819880Y-240756666D02*
X358819880Y-241328095D01*
X359819880Y-241042380D02*
X358819880Y-241042380D01*
X364189880Y-243638095D02*
X363189880Y-243638095D01*
X364189880Y-244209523D02*
X363618452Y-243780952D01*
X363189880Y-244209523D02*
X363761309Y-243638095D01*
X245697380Y-257925714D02*
X244697380Y-257925714D01*
X244697380Y-258163809D01*
X244745000Y-258306666D01*
X244840238Y-258401904D01*
X244935476Y-258449523D01*
X245125952Y-258497142D01*
X245268809Y-258497142D01*
X245459285Y-258449523D01*
X245554523Y-258401904D01*
X245649761Y-258306666D01*
X245697380Y-258163809D01*
X245697380Y-257925714D01*
X245030714Y-259354285D02*
X245697380Y-259354285D01*
X244649761Y-259116190D02*
X245364047Y-258878095D01*
X245364047Y-259497142D01*
X245697380Y-259925714D02*
X245697380Y-260116190D01*
X245649761Y-260211428D01*
X245602142Y-260259047D01*
X245459285Y-260354285D01*
X245268809Y-260401904D01*
X244887857Y-260401904D01*
X244792619Y-260354285D01*
X244745000Y-260306666D01*
X244697380Y-260211428D01*
X244697380Y-260020952D01*
X244745000Y-259925714D01*
X244792619Y-259878095D01*
X244887857Y-259830476D01*
X245125952Y-259830476D01*
X245221190Y-259878095D01*
X245268809Y-259925714D01*
X245316428Y-260020952D01*
X245316428Y-260211428D01*
X245268809Y-260306666D01*
X245221190Y-260354285D01*
X245125952Y-260401904D01*
X239757380Y-259282857D02*
X240471666Y-259282857D01*
X240614523Y-259235238D01*
X240709761Y-259140000D01*
X240757380Y-258997142D01*
X240757380Y-258901904D01*
X245127380Y-262688095D02*
X244127380Y-262688095D01*
X245127380Y-263259523D02*
X244555952Y-262830952D01*
X244127380Y-263259523D02*
X244698809Y-262688095D01*
X140922380Y-276975714D02*
X139922380Y-276975714D01*
X139922380Y-277213809D01*
X139970000Y-277356666D01*
X140065238Y-277451904D01*
X140160476Y-277499523D01*
X140350952Y-277547142D01*
X140493809Y-277547142D01*
X140684285Y-277499523D01*
X140779523Y-277451904D01*
X140874761Y-277356666D01*
X140922380Y-277213809D01*
X140922380Y-276975714D01*
X139922380Y-278451904D02*
X139922380Y-277975714D01*
X140398571Y-277928095D01*
X140350952Y-277975714D01*
X140303333Y-278070952D01*
X140303333Y-278309047D01*
X140350952Y-278404285D01*
X140398571Y-278451904D01*
X140493809Y-278499523D01*
X140731904Y-278499523D01*
X140827142Y-278451904D01*
X140874761Y-278404285D01*
X140922380Y-278309047D01*
X140922380Y-278070952D01*
X140874761Y-277975714D01*
X140827142Y-277928095D01*
X140350952Y-279070952D02*
X140303333Y-278975714D01*
X140255714Y-278928095D01*
X140160476Y-278880476D01*
X140112857Y-278880476D01*
X140017619Y-278928095D01*
X139970000Y-278975714D01*
X139922380Y-279070952D01*
X139922380Y-279261428D01*
X139970000Y-279356666D01*
X140017619Y-279404285D01*
X140112857Y-279451904D01*
X140160476Y-279451904D01*
X140255714Y-279404285D01*
X140303333Y-279356666D01*
X140350952Y-279261428D01*
X140350952Y-279070952D01*
X140398571Y-278975714D01*
X140446190Y-278928095D01*
X140541428Y-278880476D01*
X140731904Y-278880476D01*
X140827142Y-278928095D01*
X140874761Y-278975714D01*
X140922380Y-279070952D01*
X140922380Y-279261428D01*
X140874761Y-279356666D01*
X140827142Y-279404285D01*
X140731904Y-279451904D01*
X140541428Y-279451904D01*
X140446190Y-279404285D01*
X140398571Y-279356666D01*
X140350952Y-279261428D01*
X134982380Y-277856666D02*
X134982380Y-278523333D01*
X135982380Y-277856666D01*
X135982380Y-278523333D01*
X140352380Y-281738095D02*
X139352380Y-281738095D01*
X140352380Y-282309523D02*
X139780952Y-281880952D01*
X139352380Y-282309523D02*
X139923809Y-281738095D01*
X293322380Y-276975714D02*
X292322380Y-276975714D01*
X292322380Y-277213809D01*
X292370000Y-277356666D01*
X292465238Y-277451904D01*
X292560476Y-277499523D01*
X292750952Y-277547142D01*
X292893809Y-277547142D01*
X293084285Y-277499523D01*
X293179523Y-277451904D01*
X293274761Y-277356666D01*
X293322380Y-277213809D01*
X293322380Y-276975714D01*
X292322380Y-277880476D02*
X292322380Y-278547142D01*
X293322380Y-278118571D01*
X292750952Y-279070952D02*
X292703333Y-278975714D01*
X292655714Y-278928095D01*
X292560476Y-278880476D01*
X292512857Y-278880476D01*
X292417619Y-278928095D01*
X292370000Y-278975714D01*
X292322380Y-279070952D01*
X292322380Y-279261428D01*
X292370000Y-279356666D01*
X292417619Y-279404285D01*
X292512857Y-279451904D01*
X292560476Y-279451904D01*
X292655714Y-279404285D01*
X292703333Y-279356666D01*
X292750952Y-279261428D01*
X292750952Y-279070952D01*
X292798571Y-278975714D01*
X292846190Y-278928095D01*
X292941428Y-278880476D01*
X293131904Y-278880476D01*
X293227142Y-278928095D01*
X293274761Y-278975714D01*
X293322380Y-279070952D01*
X293322380Y-279261428D01*
X293274761Y-279356666D01*
X293227142Y-279404285D01*
X293131904Y-279451904D01*
X292941428Y-279451904D01*
X292846190Y-279404285D01*
X292798571Y-279356666D01*
X292750952Y-279261428D01*
X288715714Y-277809047D02*
X288715714Y-277570952D01*
X287287142Y-277570952D01*
X287287142Y-277809047D01*
X288287142Y-278190000D02*
X288334761Y-278237619D01*
X288382380Y-278190000D01*
X288334761Y-278142380D01*
X288287142Y-278190000D01*
X288382380Y-278190000D01*
X288715714Y-278570952D02*
X288715714Y-278809047D01*
X287287142Y-278809047D01*
X287287142Y-278570952D01*
X292752380Y-281738095D02*
X291752380Y-281738095D01*
X292752380Y-282309523D02*
X292180952Y-281880952D01*
X291752380Y-282309523D02*
X292323809Y-281738095D01*
X193309880Y-219825714D02*
X192309880Y-219825714D01*
X192309880Y-220063809D01*
X192357500Y-220206666D01*
X192452738Y-220301904D01*
X192547976Y-220349523D01*
X192738452Y-220397142D01*
X192881309Y-220397142D01*
X193071785Y-220349523D01*
X193167023Y-220301904D01*
X193262261Y-220206666D01*
X193309880Y-220063809D01*
X193309880Y-219825714D01*
X193309880Y-221349523D02*
X193309880Y-220778095D01*
X193309880Y-221063809D02*
X192309880Y-221063809D01*
X192452738Y-220968571D01*
X192547976Y-220873333D01*
X192595595Y-220778095D01*
X192643214Y-222206666D02*
X193309880Y-222206666D01*
X192262261Y-221968571D02*
X192976547Y-221730476D01*
X192976547Y-222349523D01*
X187369880Y-221278095D02*
X187369880Y-220801904D01*
X187846071Y-220754285D01*
X187798452Y-220801904D01*
X187750833Y-220897142D01*
X187750833Y-221135238D01*
X187798452Y-221230476D01*
X187846071Y-221278095D01*
X187941309Y-221325714D01*
X188179404Y-221325714D01*
X188274642Y-221278095D01*
X188322261Y-221230476D01*
X188369880Y-221135238D01*
X188369880Y-220897142D01*
X188322261Y-220801904D01*
X188274642Y-220754285D01*
X192739880Y-224588095D02*
X191739880Y-224588095D01*
X192739880Y-225159523D02*
X192168452Y-224730952D01*
X191739880Y-225159523D02*
X192311309Y-224588095D01*
X364759880Y-219805714D02*
X363759880Y-219805714D01*
X363759880Y-220043809D01*
X363807500Y-220186666D01*
X363902738Y-220281904D01*
X363997976Y-220329523D01*
X364188452Y-220377142D01*
X364331309Y-220377142D01*
X364521785Y-220329523D01*
X364617023Y-220281904D01*
X364712261Y-220186666D01*
X364759880Y-220043809D01*
X364759880Y-219805714D01*
X363855119Y-220758095D02*
X363807500Y-220805714D01*
X363759880Y-220900952D01*
X363759880Y-221139047D01*
X363807500Y-221234285D01*
X363855119Y-221281904D01*
X363950357Y-221329523D01*
X364045595Y-221329523D01*
X364188452Y-221281904D01*
X364759880Y-220710476D01*
X364759880Y-221329523D01*
X363759880Y-221662857D02*
X363759880Y-222281904D01*
X364140833Y-221948571D01*
X364140833Y-222091428D01*
X364188452Y-222186666D01*
X364236071Y-222234285D01*
X364331309Y-222281904D01*
X364569404Y-222281904D01*
X364664642Y-222234285D01*
X364712261Y-222186666D01*
X364759880Y-222091428D01*
X364759880Y-221805714D01*
X364712261Y-221710476D01*
X364664642Y-221662857D01*
X359296071Y-220615238D02*
X359343690Y-220758095D01*
X359391309Y-220805714D01*
X359486547Y-220853333D01*
X359629404Y-220853333D01*
X359724642Y-220805714D01*
X359772261Y-220758095D01*
X359819880Y-220662857D01*
X359819880Y-220281904D01*
X358819880Y-220281904D01*
X358819880Y-220615238D01*
X358867500Y-220710476D01*
X358915119Y-220758095D01*
X359010357Y-220805714D01*
X359105595Y-220805714D01*
X359200833Y-220758095D01*
X359248452Y-220710476D01*
X359296071Y-220615238D01*
X359296071Y-220281904D01*
X359772261Y-221234285D02*
X359819880Y-221377142D01*
X359819880Y-221615238D01*
X359772261Y-221710476D01*
X359724642Y-221758095D01*
X359629404Y-221805714D01*
X359534166Y-221805714D01*
X359438928Y-221758095D01*
X359391309Y-221710476D01*
X359343690Y-221615238D01*
X359296071Y-221424761D01*
X359248452Y-221329523D01*
X359200833Y-221281904D01*
X359105595Y-221234285D01*
X359010357Y-221234285D01*
X358915119Y-221281904D01*
X358867500Y-221329523D01*
X358819880Y-221424761D01*
X358819880Y-221662857D01*
X358867500Y-221805714D01*
X364189880Y-224568095D02*
X363189880Y-224568095D01*
X364189880Y-225139523D02*
X363618452Y-224710952D01*
X363189880Y-225139523D02*
X363761309Y-224568095D01*
X221884880Y-238875714D02*
X220884880Y-238875714D01*
X220884880Y-239113809D01*
X220932500Y-239256666D01*
X221027738Y-239351904D01*
X221122976Y-239399523D01*
X221313452Y-239447142D01*
X221456309Y-239447142D01*
X221646785Y-239399523D01*
X221742023Y-239351904D01*
X221837261Y-239256666D01*
X221884880Y-239113809D01*
X221884880Y-238875714D01*
X220884880Y-239780476D02*
X220884880Y-240399523D01*
X221265833Y-240066190D01*
X221265833Y-240209047D01*
X221313452Y-240304285D01*
X221361071Y-240351904D01*
X221456309Y-240399523D01*
X221694404Y-240399523D01*
X221789642Y-240351904D01*
X221837261Y-240304285D01*
X221884880Y-240209047D01*
X221884880Y-239923333D01*
X221837261Y-239828095D01*
X221789642Y-239780476D01*
X220980119Y-240780476D02*
X220932500Y-240828095D01*
X220884880Y-240923333D01*
X220884880Y-241161428D01*
X220932500Y-241256666D01*
X220980119Y-241304285D01*
X221075357Y-241351904D01*
X221170595Y-241351904D01*
X221313452Y-241304285D01*
X221884880Y-240732857D01*
X221884880Y-241351904D01*
X216468690Y-240090000D02*
X216944880Y-240090000D01*
X215944880Y-239756666D02*
X216468690Y-240090000D01*
X215944880Y-240423333D01*
X221314880Y-243638095D02*
X220314880Y-243638095D01*
X221314880Y-244209523D02*
X220743452Y-243780952D01*
X220314880Y-244209523D02*
X220886309Y-243638095D01*
X264747380Y-257925714D02*
X263747380Y-257925714D01*
X263747380Y-258163809D01*
X263795000Y-258306666D01*
X263890238Y-258401904D01*
X263985476Y-258449523D01*
X264175952Y-258497142D01*
X264318809Y-258497142D01*
X264509285Y-258449523D01*
X264604523Y-258401904D01*
X264699761Y-258306666D01*
X264747380Y-258163809D01*
X264747380Y-257925714D01*
X263747380Y-259401904D02*
X263747380Y-258925714D01*
X264223571Y-258878095D01*
X264175952Y-258925714D01*
X264128333Y-259020952D01*
X264128333Y-259259047D01*
X264175952Y-259354285D01*
X264223571Y-259401904D01*
X264318809Y-259449523D01*
X264556904Y-259449523D01*
X264652142Y-259401904D01*
X264699761Y-259354285D01*
X264747380Y-259259047D01*
X264747380Y-259020952D01*
X264699761Y-258925714D01*
X264652142Y-258878095D01*
X263747380Y-260068571D02*
X263747380Y-260163809D01*
X263795000Y-260259047D01*
X263842619Y-260306666D01*
X263937857Y-260354285D01*
X264128333Y-260401904D01*
X264366428Y-260401904D01*
X264556904Y-260354285D01*
X264652142Y-260306666D01*
X264699761Y-260259047D01*
X264747380Y-260163809D01*
X264747380Y-260068571D01*
X264699761Y-259973333D01*
X264652142Y-259925714D01*
X264556904Y-259878095D01*
X264366428Y-259830476D01*
X264128333Y-259830476D01*
X263937857Y-259878095D01*
X263842619Y-259925714D01*
X263795000Y-259973333D01*
X263747380Y-260068571D01*
X259807380Y-258878095D02*
X258807380Y-258878095D01*
X259807380Y-259449523D02*
X259235952Y-259020952D01*
X258807380Y-259449523D02*
X259378809Y-258878095D01*
X264177380Y-262688095D02*
X263177380Y-262688095D01*
X264177380Y-263259523D02*
X263605952Y-262830952D01*
X263177380Y-263259523D02*
X263748809Y-262688095D01*
X159972380Y-276975714D02*
X158972380Y-276975714D01*
X158972380Y-277213809D01*
X159020000Y-277356666D01*
X159115238Y-277451904D01*
X159210476Y-277499523D01*
X159400952Y-277547142D01*
X159543809Y-277547142D01*
X159734285Y-277499523D01*
X159829523Y-277451904D01*
X159924761Y-277356666D01*
X159972380Y-277213809D01*
X159972380Y-276975714D01*
X158972380Y-278451904D02*
X158972380Y-277975714D01*
X159448571Y-277928095D01*
X159400952Y-277975714D01*
X159353333Y-278070952D01*
X159353333Y-278309047D01*
X159400952Y-278404285D01*
X159448571Y-278451904D01*
X159543809Y-278499523D01*
X159781904Y-278499523D01*
X159877142Y-278451904D01*
X159924761Y-278404285D01*
X159972380Y-278309047D01*
X159972380Y-278070952D01*
X159924761Y-277975714D01*
X159877142Y-277928095D01*
X159972380Y-278975714D02*
X159972380Y-279166190D01*
X159924761Y-279261428D01*
X159877142Y-279309047D01*
X159734285Y-279404285D01*
X159543809Y-279451904D01*
X159162857Y-279451904D01*
X159067619Y-279404285D01*
X159020000Y-279356666D01*
X158972380Y-279261428D01*
X158972380Y-279070952D01*
X159020000Y-278975714D01*
X159067619Y-278928095D01*
X159162857Y-278880476D01*
X159400952Y-278880476D01*
X159496190Y-278928095D01*
X159543809Y-278975714D01*
X159591428Y-279070952D01*
X159591428Y-279261428D01*
X159543809Y-279356666D01*
X159496190Y-279404285D01*
X159400952Y-279451904D01*
X154032380Y-277856666D02*
X155032380Y-278523333D01*
X154032380Y-278523333D02*
X155032380Y-277856666D01*
X159402380Y-281738095D02*
X158402380Y-281738095D01*
X159402380Y-282309523D02*
X158830952Y-281880952D01*
X158402380Y-282309523D02*
X158973809Y-281738095D01*
X312372380Y-276975714D02*
X311372380Y-276975714D01*
X311372380Y-277213809D01*
X311420000Y-277356666D01*
X311515238Y-277451904D01*
X311610476Y-277499523D01*
X311800952Y-277547142D01*
X311943809Y-277547142D01*
X312134285Y-277499523D01*
X312229523Y-277451904D01*
X312324761Y-277356666D01*
X312372380Y-277213809D01*
X312372380Y-276975714D01*
X311372380Y-277880476D02*
X311372380Y-278547142D01*
X312372380Y-278118571D01*
X312372380Y-278975714D02*
X312372380Y-279166190D01*
X312324761Y-279261428D01*
X312277142Y-279309047D01*
X312134285Y-279404285D01*
X311943809Y-279451904D01*
X311562857Y-279451904D01*
X311467619Y-279404285D01*
X311420000Y-279356666D01*
X311372380Y-279261428D01*
X311372380Y-279070952D01*
X311420000Y-278975714D01*
X311467619Y-278928095D01*
X311562857Y-278880476D01*
X311800952Y-278880476D01*
X311896190Y-278928095D01*
X311943809Y-278975714D01*
X311991428Y-279070952D01*
X311991428Y-279261428D01*
X311943809Y-279356666D01*
X311896190Y-279404285D01*
X311800952Y-279451904D01*
X307765714Y-277523333D02*
X307765714Y-277285238D01*
X306337142Y-277285238D01*
X306337142Y-277523333D01*
X306384761Y-278618571D02*
X307670476Y-277761428D01*
X307765714Y-278856666D02*
X307765714Y-279094761D01*
X306337142Y-279094761D01*
X306337142Y-278856666D01*
X311802380Y-281738095D02*
X310802380Y-281738095D01*
X311802380Y-282309523D02*
X311230952Y-281880952D01*
X310802380Y-282309523D02*
X311373809Y-281738095D01*
X212359880Y-219825714D02*
X211359880Y-219825714D01*
X211359880Y-220063809D01*
X211407500Y-220206666D01*
X211502738Y-220301904D01*
X211597976Y-220349523D01*
X211788452Y-220397142D01*
X211931309Y-220397142D01*
X212121785Y-220349523D01*
X212217023Y-220301904D01*
X212312261Y-220206666D01*
X212359880Y-220063809D01*
X212359880Y-219825714D01*
X212359880Y-221349523D02*
X212359880Y-220778095D01*
X212359880Y-221063809D02*
X211359880Y-221063809D01*
X211502738Y-220968571D01*
X211597976Y-220873333D01*
X211645595Y-220778095D01*
X211359880Y-222254285D02*
X211359880Y-221778095D01*
X211836071Y-221730476D01*
X211788452Y-221778095D01*
X211740833Y-221873333D01*
X211740833Y-222111428D01*
X211788452Y-222206666D01*
X211836071Y-222254285D01*
X211931309Y-222301904D01*
X212169404Y-222301904D01*
X212264642Y-222254285D01*
X212312261Y-222206666D01*
X212359880Y-222111428D01*
X212359880Y-221873333D01*
X212312261Y-221778095D01*
X212264642Y-221730476D01*
X206419880Y-221230476D02*
X206419880Y-221040000D01*
X206467500Y-220944761D01*
X206515119Y-220897142D01*
X206657976Y-220801904D01*
X206848452Y-220754285D01*
X207229404Y-220754285D01*
X207324642Y-220801904D01*
X207372261Y-220849523D01*
X207419880Y-220944761D01*
X207419880Y-221135238D01*
X207372261Y-221230476D01*
X207324642Y-221278095D01*
X207229404Y-221325714D01*
X206991309Y-221325714D01*
X206896071Y-221278095D01*
X206848452Y-221230476D01*
X206800833Y-221135238D01*
X206800833Y-220944761D01*
X206848452Y-220849523D01*
X206896071Y-220801904D01*
X206991309Y-220754285D01*
X211789880Y-224588095D02*
X210789880Y-224588095D01*
X211789880Y-225159523D02*
X211218452Y-224730952D01*
X210789880Y-225159523D02*
X211361309Y-224588095D01*
X240934880Y-238875714D02*
X239934880Y-238875714D01*
X239934880Y-239113809D01*
X239982500Y-239256666D01*
X240077738Y-239351904D01*
X240172976Y-239399523D01*
X240363452Y-239447142D01*
X240506309Y-239447142D01*
X240696785Y-239399523D01*
X240792023Y-239351904D01*
X240887261Y-239256666D01*
X240934880Y-239113809D01*
X240934880Y-238875714D01*
X239934880Y-239780476D02*
X239934880Y-240399523D01*
X240315833Y-240066190D01*
X240315833Y-240209047D01*
X240363452Y-240304285D01*
X240411071Y-240351904D01*
X240506309Y-240399523D01*
X240744404Y-240399523D01*
X240839642Y-240351904D01*
X240887261Y-240304285D01*
X240934880Y-240209047D01*
X240934880Y-239923333D01*
X240887261Y-239828095D01*
X240839642Y-239780476D01*
X239934880Y-240732857D02*
X239934880Y-241351904D01*
X240315833Y-241018571D01*
X240315833Y-241161428D01*
X240363452Y-241256666D01*
X240411071Y-241304285D01*
X240506309Y-241351904D01*
X240744404Y-241351904D01*
X240839642Y-241304285D01*
X240887261Y-241256666D01*
X240934880Y-241161428D01*
X240934880Y-240875714D01*
X240887261Y-240780476D01*
X240839642Y-240732857D01*
X234994880Y-239804285D02*
X235804404Y-239804285D01*
X235899642Y-239851904D01*
X235947261Y-239899523D01*
X235994880Y-239994761D01*
X235994880Y-240185238D01*
X235947261Y-240280476D01*
X235899642Y-240328095D01*
X235804404Y-240375714D01*
X234994880Y-240375714D01*
X240364880Y-243638095D02*
X239364880Y-243638095D01*
X240364880Y-244209523D02*
X239793452Y-243780952D01*
X239364880Y-244209523D02*
X239936309Y-243638095D01*
X131397380Y-257925714D02*
X130397380Y-257925714D01*
X130397380Y-258163809D01*
X130445000Y-258306666D01*
X130540238Y-258401904D01*
X130635476Y-258449523D01*
X130825952Y-258497142D01*
X130968809Y-258497142D01*
X131159285Y-258449523D01*
X131254523Y-258401904D01*
X131349761Y-258306666D01*
X131397380Y-258163809D01*
X131397380Y-257925714D01*
X130730714Y-259354285D02*
X131397380Y-259354285D01*
X130349761Y-259116190D02*
X131064047Y-258878095D01*
X131064047Y-259497142D01*
X130492619Y-259830476D02*
X130445000Y-259878095D01*
X130397380Y-259973333D01*
X130397380Y-260211428D01*
X130445000Y-260306666D01*
X130492619Y-260354285D01*
X130587857Y-260401904D01*
X130683095Y-260401904D01*
X130825952Y-260354285D01*
X131397380Y-259782857D01*
X131397380Y-260401904D01*
X126171666Y-258901904D02*
X126171666Y-259378095D01*
X126457380Y-258806666D02*
X125457380Y-259140000D01*
X126457380Y-259473333D01*
X130827380Y-262688095D02*
X129827380Y-262688095D01*
X130827380Y-263259523D02*
X130255952Y-262830952D01*
X129827380Y-263259523D02*
X130398809Y-262688095D01*
X283797380Y-257925714D02*
X282797380Y-257925714D01*
X282797380Y-258163809D01*
X282845000Y-258306666D01*
X282940238Y-258401904D01*
X283035476Y-258449523D01*
X283225952Y-258497142D01*
X283368809Y-258497142D01*
X283559285Y-258449523D01*
X283654523Y-258401904D01*
X283749761Y-258306666D01*
X283797380Y-258163809D01*
X283797380Y-257925714D01*
X282797380Y-259401904D02*
X282797380Y-258925714D01*
X283273571Y-258878095D01*
X283225952Y-258925714D01*
X283178333Y-259020952D01*
X283178333Y-259259047D01*
X283225952Y-259354285D01*
X283273571Y-259401904D01*
X283368809Y-259449523D01*
X283606904Y-259449523D01*
X283702142Y-259401904D01*
X283749761Y-259354285D01*
X283797380Y-259259047D01*
X283797380Y-259020952D01*
X283749761Y-258925714D01*
X283702142Y-258878095D01*
X283797380Y-260401904D02*
X283797380Y-259830476D01*
X283797380Y-260116190D02*
X282797380Y-260116190D01*
X282940238Y-260020952D01*
X283035476Y-259925714D01*
X283083095Y-259830476D01*
X278857380Y-259449523D02*
X278857380Y-258973333D01*
X277857380Y-258973333D01*
X283227380Y-262688095D02*
X282227380Y-262688095D01*
X283227380Y-263259523D02*
X282655952Y-262830952D01*
X282227380Y-263259523D02*
X282798809Y-262688095D01*
X179022380Y-276975714D02*
X178022380Y-276975714D01*
X178022380Y-277213809D01*
X178070000Y-277356666D01*
X178165238Y-277451904D01*
X178260476Y-277499523D01*
X178450952Y-277547142D01*
X178593809Y-277547142D01*
X178784285Y-277499523D01*
X178879523Y-277451904D01*
X178974761Y-277356666D01*
X179022380Y-277213809D01*
X179022380Y-276975714D01*
X178022380Y-278404285D02*
X178022380Y-278213809D01*
X178070000Y-278118571D01*
X178117619Y-278070952D01*
X178260476Y-277975714D01*
X178450952Y-277928095D01*
X178831904Y-277928095D01*
X178927142Y-277975714D01*
X178974761Y-278023333D01*
X179022380Y-278118571D01*
X179022380Y-278309047D01*
X178974761Y-278404285D01*
X178927142Y-278451904D01*
X178831904Y-278499523D01*
X178593809Y-278499523D01*
X178498571Y-278451904D01*
X178450952Y-278404285D01*
X178403333Y-278309047D01*
X178403333Y-278118571D01*
X178450952Y-278023333D01*
X178498571Y-277975714D01*
X178593809Y-277928095D01*
X178022380Y-279118571D02*
X178022380Y-279213809D01*
X178070000Y-279309047D01*
X178117619Y-279356666D01*
X178212857Y-279404285D01*
X178403333Y-279451904D01*
X178641428Y-279451904D01*
X178831904Y-279404285D01*
X178927142Y-279356666D01*
X178974761Y-279309047D01*
X179022380Y-279213809D01*
X179022380Y-279118571D01*
X178974761Y-279023333D01*
X178927142Y-278975714D01*
X178831904Y-278928095D01*
X178641428Y-278880476D01*
X178403333Y-278880476D01*
X178212857Y-278928095D01*
X178117619Y-278975714D01*
X178070000Y-279023333D01*
X178022380Y-279118571D01*
X173987142Y-278499523D02*
X174034761Y-278451904D01*
X174082380Y-278309047D01*
X174082380Y-278213809D01*
X174034761Y-278070952D01*
X173939523Y-277975714D01*
X173844285Y-277928095D01*
X173653809Y-277880476D01*
X173510952Y-277880476D01*
X173320476Y-277928095D01*
X173225238Y-277975714D01*
X173130000Y-278070952D01*
X173082380Y-278213809D01*
X173082380Y-278309047D01*
X173130000Y-278451904D01*
X173177619Y-278499523D01*
X178452380Y-281738095D02*
X177452380Y-281738095D01*
X178452380Y-282309523D02*
X177880952Y-281880952D01*
X177452380Y-282309523D02*
X178023809Y-281738095D01*
X138541180Y-295276414D02*
X137541180Y-295276414D01*
X137541180Y-295514509D01*
X137588800Y-295657366D01*
X137684038Y-295752604D01*
X137779276Y-295800223D01*
X137969752Y-295847842D01*
X138112609Y-295847842D01*
X138303085Y-295800223D01*
X138398323Y-295752604D01*
X138493561Y-295657366D01*
X138541180Y-295514509D01*
X138541180Y-295276414D01*
X137541180Y-296704985D02*
X137541180Y-296514509D01*
X137588800Y-296419271D01*
X137636419Y-296371652D01*
X137779276Y-296276414D01*
X137969752Y-296228795D01*
X138350704Y-296228795D01*
X138445942Y-296276414D01*
X138493561Y-296324033D01*
X138541180Y-296419271D01*
X138541180Y-296609747D01*
X138493561Y-296704985D01*
X138445942Y-296752604D01*
X138350704Y-296800223D01*
X138112609Y-296800223D01*
X138017371Y-296752604D01*
X137969752Y-296704985D01*
X137922133Y-296609747D01*
X137922133Y-296419271D01*
X137969752Y-296324033D01*
X138017371Y-296276414D01*
X138112609Y-296228795D01*
X138541180Y-297276414D02*
X138541180Y-297466890D01*
X138493561Y-297562128D01*
X138445942Y-297609747D01*
X138303085Y-297704985D01*
X138112609Y-297752604D01*
X137731657Y-297752604D01*
X137636419Y-297704985D01*
X137588800Y-297657366D01*
X137541180Y-297562128D01*
X137541180Y-297371652D01*
X137588800Y-297276414D01*
X137636419Y-297228795D01*
X137731657Y-297181176D01*
X137969752Y-297181176D01*
X138064990Y-297228795D01*
X138112609Y-297276414D01*
X138160228Y-297371652D01*
X138160228Y-297562128D01*
X138112609Y-297657366D01*
X138064990Y-297704985D01*
X137969752Y-297752604D01*
X133077371Y-296109747D02*
X133077371Y-295776414D01*
X133601180Y-295776414D02*
X132601180Y-295776414D01*
X132601180Y-296252604D01*
X133601180Y-296633557D02*
X132601180Y-296633557D01*
X133601180Y-297204985D01*
X132601180Y-297204985D01*
X137971180Y-300038795D02*
X136971180Y-300038795D01*
X137971180Y-300610223D02*
X137399752Y-300181652D01*
X136971180Y-300610223D02*
X137542609Y-300038795D01*
X231409880Y-219825714D02*
X230409880Y-219825714D01*
X230409880Y-220063809D01*
X230457500Y-220206666D01*
X230552738Y-220301904D01*
X230647976Y-220349523D01*
X230838452Y-220397142D01*
X230981309Y-220397142D01*
X231171785Y-220349523D01*
X231267023Y-220301904D01*
X231362261Y-220206666D01*
X231409880Y-220063809D01*
X231409880Y-219825714D01*
X231409880Y-221349523D02*
X231409880Y-220778095D01*
X231409880Y-221063809D02*
X230409880Y-221063809D01*
X230552738Y-220968571D01*
X230647976Y-220873333D01*
X230695595Y-220778095D01*
X230409880Y-222206666D02*
X230409880Y-222016190D01*
X230457500Y-221920952D01*
X230505119Y-221873333D01*
X230647976Y-221778095D01*
X230838452Y-221730476D01*
X231219404Y-221730476D01*
X231314642Y-221778095D01*
X231362261Y-221825714D01*
X231409880Y-221920952D01*
X231409880Y-222111428D01*
X231362261Y-222206666D01*
X231314642Y-222254285D01*
X231219404Y-222301904D01*
X230981309Y-222301904D01*
X230886071Y-222254285D01*
X230838452Y-222206666D01*
X230790833Y-222111428D01*
X230790833Y-221920952D01*
X230838452Y-221825714D01*
X230886071Y-221778095D01*
X230981309Y-221730476D01*
X225469880Y-220706666D02*
X225469880Y-221373333D01*
X226469880Y-220944761D01*
X230839880Y-224588095D02*
X229839880Y-224588095D01*
X230839880Y-225159523D02*
X230268452Y-224730952D01*
X229839880Y-225159523D02*
X230411309Y-224588095D01*
X107584880Y-238875714D02*
X106584880Y-238875714D01*
X106584880Y-239113809D01*
X106632500Y-239256666D01*
X106727738Y-239351904D01*
X106822976Y-239399523D01*
X107013452Y-239447142D01*
X107156309Y-239447142D01*
X107346785Y-239399523D01*
X107442023Y-239351904D01*
X107537261Y-239256666D01*
X107584880Y-239113809D01*
X107584880Y-238875714D01*
X106680119Y-239828095D02*
X106632500Y-239875714D01*
X106584880Y-239970952D01*
X106584880Y-240209047D01*
X106632500Y-240304285D01*
X106680119Y-240351904D01*
X106775357Y-240399523D01*
X106870595Y-240399523D01*
X107013452Y-240351904D01*
X107584880Y-239780476D01*
X107584880Y-240399523D01*
X106584880Y-241304285D02*
X106584880Y-240828095D01*
X107061071Y-240780476D01*
X107013452Y-240828095D01*
X106965833Y-240923333D01*
X106965833Y-241161428D01*
X107013452Y-241256666D01*
X107061071Y-241304285D01*
X107156309Y-241351904D01*
X107394404Y-241351904D01*
X107489642Y-241304285D01*
X107537261Y-241256666D01*
X107584880Y-241161428D01*
X107584880Y-240923333D01*
X107537261Y-240828095D01*
X107489642Y-240780476D01*
X101644880Y-238875714D02*
X101644880Y-239447142D01*
X102644880Y-239161428D02*
X101644880Y-239161428D01*
X102359166Y-239732857D02*
X102359166Y-240209047D01*
X102644880Y-239637619D02*
X101644880Y-239970952D01*
X102644880Y-240304285D01*
X102121071Y-240970952D02*
X102168690Y-241113809D01*
X102216309Y-241161428D01*
X102311547Y-241209047D01*
X102454404Y-241209047D01*
X102549642Y-241161428D01*
X102597261Y-241113809D01*
X102644880Y-241018571D01*
X102644880Y-240637619D01*
X101644880Y-240637619D01*
X101644880Y-240970952D01*
X101692500Y-241066190D01*
X101740119Y-241113809D01*
X101835357Y-241161428D01*
X101930595Y-241161428D01*
X102025833Y-241113809D01*
X102073452Y-241066190D01*
X102121071Y-240970952D01*
X102121071Y-240637619D01*
X107014880Y-243638095D02*
X106014880Y-243638095D01*
X107014880Y-244209523D02*
X106443452Y-243780952D01*
X106014880Y-244209523D02*
X106586309Y-243638095D01*
X259984880Y-238875714D02*
X258984880Y-238875714D01*
X258984880Y-239113809D01*
X259032500Y-239256666D01*
X259127738Y-239351904D01*
X259222976Y-239399523D01*
X259413452Y-239447142D01*
X259556309Y-239447142D01*
X259746785Y-239399523D01*
X259842023Y-239351904D01*
X259937261Y-239256666D01*
X259984880Y-239113809D01*
X259984880Y-238875714D01*
X258984880Y-239780476D02*
X258984880Y-240399523D01*
X259365833Y-240066190D01*
X259365833Y-240209047D01*
X259413452Y-240304285D01*
X259461071Y-240351904D01*
X259556309Y-240399523D01*
X259794404Y-240399523D01*
X259889642Y-240351904D01*
X259937261Y-240304285D01*
X259984880Y-240209047D01*
X259984880Y-239923333D01*
X259937261Y-239828095D01*
X259889642Y-239780476D01*
X259318214Y-241256666D02*
X259984880Y-241256666D01*
X258937261Y-241018571D02*
X259651547Y-240780476D01*
X259651547Y-241399523D01*
X255044880Y-240090000D02*
X254044880Y-240090000D01*
X259414880Y-243638095D02*
X258414880Y-243638095D01*
X259414880Y-244209523D02*
X258843452Y-243780952D01*
X258414880Y-244209523D02*
X258986309Y-243638095D01*
X150447380Y-257925714D02*
X149447380Y-257925714D01*
X149447380Y-258163809D01*
X149495000Y-258306666D01*
X149590238Y-258401904D01*
X149685476Y-258449523D01*
X149875952Y-258497142D01*
X150018809Y-258497142D01*
X150209285Y-258449523D01*
X150304523Y-258401904D01*
X150399761Y-258306666D01*
X150447380Y-258163809D01*
X150447380Y-257925714D01*
X149780714Y-259354285D02*
X150447380Y-259354285D01*
X149399761Y-259116190D02*
X150114047Y-258878095D01*
X150114047Y-259497142D01*
X149447380Y-259782857D02*
X149447380Y-260401904D01*
X149828333Y-260068571D01*
X149828333Y-260211428D01*
X149875952Y-260306666D01*
X149923571Y-260354285D01*
X150018809Y-260401904D01*
X150256904Y-260401904D01*
X150352142Y-260354285D01*
X150399761Y-260306666D01*
X150447380Y-260211428D01*
X150447380Y-259925714D01*
X150399761Y-259830476D01*
X150352142Y-259782857D01*
X145459761Y-258854285D02*
X145507380Y-258997142D01*
X145507380Y-259235238D01*
X145459761Y-259330476D01*
X145412142Y-259378095D01*
X145316904Y-259425714D01*
X145221666Y-259425714D01*
X145126428Y-259378095D01*
X145078809Y-259330476D01*
X145031190Y-259235238D01*
X144983571Y-259044761D01*
X144935952Y-258949523D01*
X144888333Y-258901904D01*
X144793095Y-258854285D01*
X144697857Y-258854285D01*
X144602619Y-258901904D01*
X144555000Y-258949523D01*
X144507380Y-259044761D01*
X144507380Y-259282857D01*
X144555000Y-259425714D01*
X149877380Y-262688095D02*
X148877380Y-262688095D01*
X149877380Y-263259523D02*
X149305952Y-262830952D01*
X148877380Y-263259523D02*
X149448809Y-262688095D01*
X302847380Y-257925714D02*
X301847380Y-257925714D01*
X301847380Y-258163809D01*
X301895000Y-258306666D01*
X301990238Y-258401904D01*
X302085476Y-258449523D01*
X302275952Y-258497142D01*
X302418809Y-258497142D01*
X302609285Y-258449523D01*
X302704523Y-258401904D01*
X302799761Y-258306666D01*
X302847380Y-258163809D01*
X302847380Y-257925714D01*
X301847380Y-259401904D02*
X301847380Y-258925714D01*
X302323571Y-258878095D01*
X302275952Y-258925714D01*
X302228333Y-259020952D01*
X302228333Y-259259047D01*
X302275952Y-259354285D01*
X302323571Y-259401904D01*
X302418809Y-259449523D01*
X302656904Y-259449523D01*
X302752142Y-259401904D01*
X302799761Y-259354285D01*
X302847380Y-259259047D01*
X302847380Y-259020952D01*
X302799761Y-258925714D01*
X302752142Y-258878095D01*
X301942619Y-259830476D02*
X301895000Y-259878095D01*
X301847380Y-259973333D01*
X301847380Y-260211428D01*
X301895000Y-260306666D01*
X301942619Y-260354285D01*
X302037857Y-260401904D01*
X302133095Y-260401904D01*
X302275952Y-260354285D01*
X302847380Y-259782857D01*
X302847380Y-260401904D01*
X298240714Y-258759047D02*
X298240714Y-258520952D01*
X296812142Y-258520952D01*
X296812142Y-258759047D01*
X297859761Y-259187619D02*
X297907380Y-259187619D01*
X298002619Y-259140000D01*
X298050238Y-259092380D01*
X297288333Y-259140000D02*
X297335952Y-259187619D01*
X297383571Y-259140000D01*
X297335952Y-259092380D01*
X297288333Y-259140000D01*
X297383571Y-259140000D01*
X298240714Y-259520952D02*
X298240714Y-259759047D01*
X296812142Y-259759047D01*
X296812142Y-259520952D01*
X302277380Y-262688095D02*
X301277380Y-262688095D01*
X302277380Y-263259523D02*
X301705952Y-262830952D01*
X301277380Y-263259523D02*
X301848809Y-262688095D01*
X198072380Y-276975714D02*
X197072380Y-276975714D01*
X197072380Y-277213809D01*
X197120000Y-277356666D01*
X197215238Y-277451904D01*
X197310476Y-277499523D01*
X197500952Y-277547142D01*
X197643809Y-277547142D01*
X197834285Y-277499523D01*
X197929523Y-277451904D01*
X198024761Y-277356666D01*
X198072380Y-277213809D01*
X198072380Y-276975714D01*
X197072380Y-278404285D02*
X197072380Y-278213809D01*
X197120000Y-278118571D01*
X197167619Y-278070952D01*
X197310476Y-277975714D01*
X197500952Y-277928095D01*
X197881904Y-277928095D01*
X197977142Y-277975714D01*
X198024761Y-278023333D01*
X198072380Y-278118571D01*
X198072380Y-278309047D01*
X198024761Y-278404285D01*
X197977142Y-278451904D01*
X197881904Y-278499523D01*
X197643809Y-278499523D01*
X197548571Y-278451904D01*
X197500952Y-278404285D01*
X197453333Y-278309047D01*
X197453333Y-278118571D01*
X197500952Y-278023333D01*
X197548571Y-277975714D01*
X197643809Y-277928095D01*
X198072380Y-279451904D02*
X198072380Y-278880476D01*
X198072380Y-279166190D02*
X197072380Y-279166190D01*
X197215238Y-279070952D01*
X197310476Y-278975714D01*
X197358095Y-278880476D01*
X192132380Y-277856666D02*
X193132380Y-278190000D01*
X192132380Y-278523333D01*
X197502380Y-281738095D02*
X196502380Y-281738095D01*
X197502380Y-282309523D02*
X196930952Y-281880952D01*
X196502380Y-282309523D02*
X197073809Y-281738095D01*
X250459880Y-219825714D02*
X249459880Y-219825714D01*
X249459880Y-220063809D01*
X249507500Y-220206666D01*
X249602738Y-220301904D01*
X249697976Y-220349523D01*
X249888452Y-220397142D01*
X250031309Y-220397142D01*
X250221785Y-220349523D01*
X250317023Y-220301904D01*
X250412261Y-220206666D01*
X250459880Y-220063809D01*
X250459880Y-219825714D01*
X250459880Y-221349523D02*
X250459880Y-220778095D01*
X250459880Y-221063809D02*
X249459880Y-221063809D01*
X249602738Y-220968571D01*
X249697976Y-220873333D01*
X249745595Y-220778095D01*
X249459880Y-221682857D02*
X249459880Y-222349523D01*
X250459880Y-221920952D01*
X244948452Y-220944761D02*
X244900833Y-220849523D01*
X244853214Y-220801904D01*
X244757976Y-220754285D01*
X244710357Y-220754285D01*
X244615119Y-220801904D01*
X244567500Y-220849523D01*
X244519880Y-220944761D01*
X244519880Y-221135238D01*
X244567500Y-221230476D01*
X244615119Y-221278095D01*
X244710357Y-221325714D01*
X244757976Y-221325714D01*
X244853214Y-221278095D01*
X244900833Y-221230476D01*
X244948452Y-221135238D01*
X244948452Y-220944761D01*
X244996071Y-220849523D01*
X245043690Y-220801904D01*
X245138928Y-220754285D01*
X245329404Y-220754285D01*
X245424642Y-220801904D01*
X245472261Y-220849523D01*
X245519880Y-220944761D01*
X245519880Y-221135238D01*
X245472261Y-221230476D01*
X245424642Y-221278095D01*
X245329404Y-221325714D01*
X245138928Y-221325714D01*
X245043690Y-221278095D01*
X244996071Y-221230476D01*
X244948452Y-221135238D01*
X249889880Y-224588095D02*
X248889880Y-224588095D01*
X249889880Y-225159523D02*
X249318452Y-224730952D01*
X248889880Y-225159523D02*
X249461309Y-224588095D01*
X126634880Y-238875714D02*
X125634880Y-238875714D01*
X125634880Y-239113809D01*
X125682500Y-239256666D01*
X125777738Y-239351904D01*
X125872976Y-239399523D01*
X126063452Y-239447142D01*
X126206309Y-239447142D01*
X126396785Y-239399523D01*
X126492023Y-239351904D01*
X126587261Y-239256666D01*
X126634880Y-239113809D01*
X126634880Y-238875714D01*
X125730119Y-239828095D02*
X125682500Y-239875714D01*
X125634880Y-239970952D01*
X125634880Y-240209047D01*
X125682500Y-240304285D01*
X125730119Y-240351904D01*
X125825357Y-240399523D01*
X125920595Y-240399523D01*
X126063452Y-240351904D01*
X126634880Y-239780476D01*
X126634880Y-240399523D01*
X125634880Y-241256666D02*
X125634880Y-241066190D01*
X125682500Y-240970952D01*
X125730119Y-240923333D01*
X125872976Y-240828095D01*
X126063452Y-240780476D01*
X126444404Y-240780476D01*
X126539642Y-240828095D01*
X126587261Y-240875714D01*
X126634880Y-240970952D01*
X126634880Y-241161428D01*
X126587261Y-241256666D01*
X126539642Y-241304285D01*
X126444404Y-241351904D01*
X126206309Y-241351904D01*
X126111071Y-241304285D01*
X126063452Y-241256666D01*
X126015833Y-241161428D01*
X126015833Y-240970952D01*
X126063452Y-240875714D01*
X126111071Y-240828095D01*
X126206309Y-240780476D01*
X121790119Y-240470952D02*
X121742500Y-240375714D01*
X121647261Y-240280476D01*
X121504404Y-240137619D01*
X121456785Y-240042380D01*
X121456785Y-239947142D01*
X121694880Y-239994761D02*
X121647261Y-239899523D01*
X121552023Y-239804285D01*
X121361547Y-239756666D01*
X121028214Y-239756666D01*
X120837738Y-239804285D01*
X120742500Y-239899523D01*
X120694880Y-239994761D01*
X120694880Y-240185238D01*
X120742500Y-240280476D01*
X120837738Y-240375714D01*
X121028214Y-240423333D01*
X121361547Y-240423333D01*
X121552023Y-240375714D01*
X121647261Y-240280476D01*
X121694880Y-240185238D01*
X121694880Y-239994761D01*
X126064880Y-243638095D02*
X125064880Y-243638095D01*
X126064880Y-244209523D02*
X125493452Y-243780952D01*
X125064880Y-244209523D02*
X125636309Y-243638095D01*
X279034880Y-238875714D02*
X278034880Y-238875714D01*
X278034880Y-239113809D01*
X278082500Y-239256666D01*
X278177738Y-239351904D01*
X278272976Y-239399523D01*
X278463452Y-239447142D01*
X278606309Y-239447142D01*
X278796785Y-239399523D01*
X278892023Y-239351904D01*
X278987261Y-239256666D01*
X279034880Y-239113809D01*
X279034880Y-238875714D01*
X278034880Y-239780476D02*
X278034880Y-240399523D01*
X278415833Y-240066190D01*
X278415833Y-240209047D01*
X278463452Y-240304285D01*
X278511071Y-240351904D01*
X278606309Y-240399523D01*
X278844404Y-240399523D01*
X278939642Y-240351904D01*
X278987261Y-240304285D01*
X279034880Y-240209047D01*
X279034880Y-239923333D01*
X278987261Y-239828095D01*
X278939642Y-239780476D01*
X278034880Y-241304285D02*
X278034880Y-240828095D01*
X278511071Y-240780476D01*
X278463452Y-240828095D01*
X278415833Y-240923333D01*
X278415833Y-241161428D01*
X278463452Y-241256666D01*
X278511071Y-241304285D01*
X278606309Y-241351904D01*
X278844404Y-241351904D01*
X278939642Y-241304285D01*
X278987261Y-241256666D01*
X279034880Y-241161428D01*
X279034880Y-240923333D01*
X278987261Y-240828095D01*
X278939642Y-240780476D01*
X273094880Y-239994761D02*
X273094880Y-240185238D01*
X273142500Y-240280476D01*
X273237738Y-240375714D01*
X273428214Y-240423333D01*
X273761547Y-240423333D01*
X273952023Y-240375714D01*
X274047261Y-240280476D01*
X274094880Y-240185238D01*
X274094880Y-239994761D01*
X274047261Y-239899523D01*
X273952023Y-239804285D01*
X273761547Y-239756666D01*
X273428214Y-239756666D01*
X273237738Y-239804285D01*
X273142500Y-239899523D01*
X273094880Y-239994761D01*
X278464880Y-243638095D02*
X277464880Y-243638095D01*
X278464880Y-244209523D02*
X277893452Y-243780952D01*
X277464880Y-244209523D02*
X278036309Y-243638095D01*
X169497380Y-257925714D02*
X168497380Y-257925714D01*
X168497380Y-258163809D01*
X168545000Y-258306666D01*
X168640238Y-258401904D01*
X168735476Y-258449523D01*
X168925952Y-258497142D01*
X169068809Y-258497142D01*
X169259285Y-258449523D01*
X169354523Y-258401904D01*
X169449761Y-258306666D01*
X169497380Y-258163809D01*
X169497380Y-257925714D01*
X168830714Y-259354285D02*
X169497380Y-259354285D01*
X168449761Y-259116190D02*
X169164047Y-258878095D01*
X169164047Y-259497142D01*
X168830714Y-260306666D02*
X169497380Y-260306666D01*
X168449761Y-260068571D02*
X169164047Y-259830476D01*
X169164047Y-260449523D01*
X164557380Y-258878095D02*
X163557380Y-258878095D01*
X163557380Y-259116190D01*
X163605000Y-259259047D01*
X163700238Y-259354285D01*
X163795476Y-259401904D01*
X163985952Y-259449523D01*
X164128809Y-259449523D01*
X164319285Y-259401904D01*
X164414523Y-259354285D01*
X164509761Y-259259047D01*
X164557380Y-259116190D01*
X164557380Y-258878095D01*
X168927380Y-262688095D02*
X167927380Y-262688095D01*
X168927380Y-263259523D02*
X168355952Y-262830952D01*
X167927380Y-263259523D02*
X168498809Y-262688095D01*
X321897380Y-257925714D02*
X320897380Y-257925714D01*
X320897380Y-258163809D01*
X320945000Y-258306666D01*
X321040238Y-258401904D01*
X321135476Y-258449523D01*
X321325952Y-258497142D01*
X321468809Y-258497142D01*
X321659285Y-258449523D01*
X321754523Y-258401904D01*
X321849761Y-258306666D01*
X321897380Y-258163809D01*
X321897380Y-257925714D01*
X320897380Y-259401904D02*
X320897380Y-258925714D01*
X321373571Y-258878095D01*
X321325952Y-258925714D01*
X321278333Y-259020952D01*
X321278333Y-259259047D01*
X321325952Y-259354285D01*
X321373571Y-259401904D01*
X321468809Y-259449523D01*
X321706904Y-259449523D01*
X321802142Y-259401904D01*
X321849761Y-259354285D01*
X321897380Y-259259047D01*
X321897380Y-259020952D01*
X321849761Y-258925714D01*
X321802142Y-258878095D01*
X320897380Y-259782857D02*
X320897380Y-260401904D01*
X321278333Y-260068571D01*
X321278333Y-260211428D01*
X321325952Y-260306666D01*
X321373571Y-260354285D01*
X321468809Y-260401904D01*
X321706904Y-260401904D01*
X321802142Y-260354285D01*
X321849761Y-260306666D01*
X321897380Y-260211428D01*
X321897380Y-259925714D01*
X321849761Y-259830476D01*
X321802142Y-259782857D01*
X317290714Y-258378095D02*
X317290714Y-258140000D01*
X315862142Y-258140000D01*
X315862142Y-258378095D01*
X316576428Y-258759047D02*
X316576428Y-259520952D01*
X316957380Y-259140000D02*
X316195476Y-259140000D01*
X317290714Y-259901904D02*
X317290714Y-260140000D01*
X315862142Y-260140000D01*
X315862142Y-259901904D01*
X321327380Y-262688095D02*
X320327380Y-262688095D01*
X321327380Y-263259523D02*
X320755952Y-262830952D01*
X320327380Y-263259523D02*
X320898809Y-262688095D01*
X217122380Y-276975714D02*
X216122380Y-276975714D01*
X216122380Y-277213809D01*
X216170000Y-277356666D01*
X216265238Y-277451904D01*
X216360476Y-277499523D01*
X216550952Y-277547142D01*
X216693809Y-277547142D01*
X216884285Y-277499523D01*
X216979523Y-277451904D01*
X217074761Y-277356666D01*
X217122380Y-277213809D01*
X217122380Y-276975714D01*
X216122380Y-278404285D02*
X216122380Y-278213809D01*
X216170000Y-278118571D01*
X216217619Y-278070952D01*
X216360476Y-277975714D01*
X216550952Y-277928095D01*
X216931904Y-277928095D01*
X217027142Y-277975714D01*
X217074761Y-278023333D01*
X217122380Y-278118571D01*
X217122380Y-278309047D01*
X217074761Y-278404285D01*
X217027142Y-278451904D01*
X216931904Y-278499523D01*
X216693809Y-278499523D01*
X216598571Y-278451904D01*
X216550952Y-278404285D01*
X216503333Y-278309047D01*
X216503333Y-278118571D01*
X216550952Y-278023333D01*
X216598571Y-277975714D01*
X216693809Y-277928095D01*
X216217619Y-278880476D02*
X216170000Y-278928095D01*
X216122380Y-279023333D01*
X216122380Y-279261428D01*
X216170000Y-279356666D01*
X216217619Y-279404285D01*
X216312857Y-279451904D01*
X216408095Y-279451904D01*
X216550952Y-279404285D01*
X217122380Y-278832857D01*
X217122380Y-279451904D01*
X211658571Y-278261428D02*
X211706190Y-278404285D01*
X211753809Y-278451904D01*
X211849047Y-278499523D01*
X211991904Y-278499523D01*
X212087142Y-278451904D01*
X212134761Y-278404285D01*
X212182380Y-278309047D01*
X212182380Y-277928095D01*
X211182380Y-277928095D01*
X211182380Y-278261428D01*
X211230000Y-278356666D01*
X211277619Y-278404285D01*
X211372857Y-278451904D01*
X211468095Y-278451904D01*
X211563333Y-278404285D01*
X211610952Y-278356666D01*
X211658571Y-278261428D01*
X211658571Y-277928095D01*
X216552380Y-281738095D02*
X215552380Y-281738095D01*
X216552380Y-282309523D02*
X215980952Y-281880952D01*
X215552380Y-282309523D02*
X216123809Y-281738095D01*
X199428680Y-296025714D02*
X198428680Y-296025714D01*
X198428680Y-296263809D01*
X198476300Y-296406666D01*
X198571538Y-296501904D01*
X198666776Y-296549523D01*
X198857252Y-296597142D01*
X199000109Y-296597142D01*
X199190585Y-296549523D01*
X199285823Y-296501904D01*
X199381061Y-296406666D01*
X199428680Y-296263809D01*
X199428680Y-296025714D01*
X198428680Y-296930476D02*
X198428680Y-297597142D01*
X199428680Y-297168571D01*
X199428680Y-298501904D02*
X199428680Y-297930476D01*
X199428680Y-298216190D02*
X198428680Y-298216190D01*
X198571538Y-298120952D01*
X198666776Y-298025714D01*
X198714395Y-297930476D01*
X194441061Y-295954285D02*
X194488680Y-296097142D01*
X194488680Y-296335238D01*
X194441061Y-296430476D01*
X194393442Y-296478095D01*
X194298204Y-296525714D01*
X194202966Y-296525714D01*
X194107728Y-296478095D01*
X194060109Y-296430476D01*
X194012490Y-296335238D01*
X193964871Y-296144761D01*
X193917252Y-296049523D01*
X193869633Y-296001904D01*
X193774395Y-295954285D01*
X193679157Y-295954285D01*
X193583919Y-296001904D01*
X193536300Y-296049523D01*
X193488680Y-296144761D01*
X193488680Y-296382857D01*
X193536300Y-296525714D01*
X194488680Y-296954285D02*
X193488680Y-296954285D01*
X193488680Y-297335238D01*
X193536300Y-297430476D01*
X193583919Y-297478095D01*
X193679157Y-297525714D01*
X193822014Y-297525714D01*
X193917252Y-297478095D01*
X193964871Y-297430476D01*
X194012490Y-297335238D01*
X194012490Y-296954285D01*
X194393442Y-298525714D02*
X194441061Y-298478095D01*
X194488680Y-298335238D01*
X194488680Y-298240000D01*
X194441061Y-298097142D01*
X194345823Y-298001904D01*
X194250585Y-297954285D01*
X194060109Y-297906666D01*
X193917252Y-297906666D01*
X193726776Y-297954285D01*
X193631538Y-298001904D01*
X193536300Y-298097142D01*
X193488680Y-298240000D01*
X193488680Y-298335238D01*
X193536300Y-298478095D01*
X193583919Y-298525714D01*
X198858680Y-300788095D02*
X197858680Y-300788095D01*
X198858680Y-301359523D02*
X198287252Y-300930952D01*
X197858680Y-301359523D02*
X198430109Y-300788095D01*
X298084880Y-238875714D02*
X297084880Y-238875714D01*
X297084880Y-239113809D01*
X297132500Y-239256666D01*
X297227738Y-239351904D01*
X297322976Y-239399523D01*
X297513452Y-239447142D01*
X297656309Y-239447142D01*
X297846785Y-239399523D01*
X297942023Y-239351904D01*
X298037261Y-239256666D01*
X298084880Y-239113809D01*
X298084880Y-238875714D01*
X297084880Y-239780476D02*
X297084880Y-240399523D01*
X297465833Y-240066190D01*
X297465833Y-240209047D01*
X297513452Y-240304285D01*
X297561071Y-240351904D01*
X297656309Y-240399523D01*
X297894404Y-240399523D01*
X297989642Y-240351904D01*
X298037261Y-240304285D01*
X298084880Y-240209047D01*
X298084880Y-239923333D01*
X298037261Y-239828095D01*
X297989642Y-239780476D01*
X297084880Y-240732857D02*
X297084880Y-241399523D01*
X298084880Y-240970952D01*
X293144880Y-239828095D02*
X292144880Y-239828095D01*
X292144880Y-240209047D01*
X292192500Y-240304285D01*
X292240119Y-240351904D01*
X292335357Y-240399523D01*
X292478214Y-240399523D01*
X292573452Y-240351904D01*
X292621071Y-240304285D01*
X292668690Y-240209047D01*
X292668690Y-239828095D01*
X297514880Y-243638095D02*
X296514880Y-243638095D01*
X297514880Y-244209523D02*
X296943452Y-243780952D01*
X296514880Y-244209523D02*
X297086309Y-243638095D01*
X112347380Y-257925714D02*
X111347380Y-257925714D01*
X111347380Y-258163809D01*
X111395000Y-258306666D01*
X111490238Y-258401904D01*
X111585476Y-258449523D01*
X111775952Y-258497142D01*
X111918809Y-258497142D01*
X112109285Y-258449523D01*
X112204523Y-258401904D01*
X112299761Y-258306666D01*
X112347380Y-258163809D01*
X112347380Y-257925714D01*
X111680714Y-259354285D02*
X112347380Y-259354285D01*
X111299761Y-259116190D02*
X112014047Y-258878095D01*
X112014047Y-259497142D01*
X112347380Y-260401904D02*
X112347380Y-259830476D01*
X112347380Y-260116190D02*
X111347380Y-260116190D01*
X111490238Y-260020952D01*
X111585476Y-259925714D01*
X111633095Y-259830476D01*
X107312142Y-258163809D02*
X107359761Y-258116190D01*
X107407380Y-257973333D01*
X107407380Y-257878095D01*
X107359761Y-257735238D01*
X107264523Y-257640000D01*
X107169285Y-257592380D01*
X106978809Y-257544761D01*
X106835952Y-257544761D01*
X106645476Y-257592380D01*
X106550238Y-257640000D01*
X106455000Y-257735238D01*
X106407380Y-257878095D01*
X106407380Y-257973333D01*
X106455000Y-258116190D01*
X106502619Y-258163809D01*
X106407380Y-258449523D02*
X106407380Y-259020952D01*
X107407380Y-258735238D02*
X106407380Y-258735238D01*
X107407380Y-259925714D02*
X106931190Y-259592380D01*
X107407380Y-259354285D02*
X106407380Y-259354285D01*
X106407380Y-259735238D01*
X106455000Y-259830476D01*
X106502619Y-259878095D01*
X106597857Y-259925714D01*
X106740714Y-259925714D01*
X106835952Y-259878095D01*
X106883571Y-259830476D01*
X106931190Y-259735238D01*
X106931190Y-259354285D01*
X107407380Y-260830476D02*
X107407380Y-260354285D01*
X106407380Y-260354285D01*
X111777380Y-262688095D02*
X110777380Y-262688095D01*
X111777380Y-263259523D02*
X111205952Y-262830952D01*
X110777380Y-263259523D02*
X111348809Y-262688095D01*
X121872380Y-277451904D02*
X120872380Y-277451904D01*
X120872380Y-277690000D01*
X120920000Y-277832857D01*
X121015238Y-277928095D01*
X121110476Y-277975714D01*
X121300952Y-278023333D01*
X121443809Y-278023333D01*
X121634285Y-277975714D01*
X121729523Y-277928095D01*
X121824761Y-277832857D01*
X121872380Y-277690000D01*
X121872380Y-277451904D01*
X121872380Y-278499523D02*
X121872380Y-278690000D01*
X121824761Y-278785238D01*
X121777142Y-278832857D01*
X121634285Y-278928095D01*
X121443809Y-278975714D01*
X121062857Y-278975714D01*
X120967619Y-278928095D01*
X120920000Y-278880476D01*
X120872380Y-278785238D01*
X120872380Y-278594761D01*
X120920000Y-278499523D01*
X120967619Y-278451904D01*
X121062857Y-278404285D01*
X121300952Y-278404285D01*
X121396190Y-278451904D01*
X121443809Y-278499523D01*
X121491428Y-278594761D01*
X121491428Y-278785238D01*
X121443809Y-278880476D01*
X121396190Y-278928095D01*
X121300952Y-278975714D01*
X116932380Y-276451904D02*
X116932380Y-275975714D01*
X115932380Y-275975714D01*
X116884761Y-276737619D02*
X116932380Y-276880476D01*
X116932380Y-277118571D01*
X116884761Y-277213809D01*
X116837142Y-277261428D01*
X116741904Y-277309047D01*
X116646666Y-277309047D01*
X116551428Y-277261428D01*
X116503809Y-277213809D01*
X116456190Y-277118571D01*
X116408571Y-276928095D01*
X116360952Y-276832857D01*
X116313333Y-276785238D01*
X116218095Y-276737619D01*
X116122857Y-276737619D01*
X116027619Y-276785238D01*
X115980000Y-276832857D01*
X115932380Y-276928095D01*
X115932380Y-277166190D01*
X115980000Y-277309047D01*
X116932380Y-277737619D02*
X115932380Y-277737619D01*
X116408571Y-277737619D02*
X116408571Y-278309047D01*
X116932380Y-278309047D02*
X115932380Y-278309047D01*
X116932380Y-278785238D02*
X115932380Y-278785238D01*
X116408571Y-279594761D02*
X116408571Y-279261428D01*
X116932380Y-279261428D02*
X115932380Y-279261428D01*
X115932380Y-279737619D01*
X115932380Y-279975714D02*
X115932380Y-280547142D01*
X116932380Y-280261428D02*
X115932380Y-280261428D01*
X121302380Y-281738095D02*
X120302380Y-281738095D01*
X121302380Y-282309523D02*
X120730952Y-281880952D01*
X120302380Y-282309523D02*
X120873809Y-281738095D01*
X98059880Y-220301904D02*
X97059880Y-220301904D01*
X97059880Y-220540000D01*
X97107500Y-220682857D01*
X97202738Y-220778095D01*
X97297976Y-220825714D01*
X97488452Y-220873333D01*
X97631309Y-220873333D01*
X97821785Y-220825714D01*
X97917023Y-220778095D01*
X98012261Y-220682857D01*
X98059880Y-220540000D01*
X98059880Y-220301904D01*
X97488452Y-221444761D02*
X97440833Y-221349523D01*
X97393214Y-221301904D01*
X97297976Y-221254285D01*
X97250357Y-221254285D01*
X97155119Y-221301904D01*
X97107500Y-221349523D01*
X97059880Y-221444761D01*
X97059880Y-221635238D01*
X97107500Y-221730476D01*
X97155119Y-221778095D01*
X97250357Y-221825714D01*
X97297976Y-221825714D01*
X97393214Y-221778095D01*
X97440833Y-221730476D01*
X97488452Y-221635238D01*
X97488452Y-221444761D01*
X97536071Y-221349523D01*
X97583690Y-221301904D01*
X97678928Y-221254285D01*
X97869404Y-221254285D01*
X97964642Y-221301904D01*
X98012261Y-221349523D01*
X98059880Y-221444761D01*
X98059880Y-221635238D01*
X98012261Y-221730476D01*
X97964642Y-221778095D01*
X97869404Y-221825714D01*
X97678928Y-221825714D01*
X97583690Y-221778095D01*
X97536071Y-221730476D01*
X97488452Y-221635238D01*
X97489880Y-224588095D02*
X96489880Y-224588095D01*
X97489880Y-225159523D02*
X96918452Y-224730952D01*
X96489880Y-225159523D02*
X97061309Y-224588095D01*
X345709880Y-276975714D02*
X344709880Y-276975714D01*
X344709880Y-277213809D01*
X344757500Y-277356666D01*
X344852738Y-277451904D01*
X344947976Y-277499523D01*
X345138452Y-277547142D01*
X345281309Y-277547142D01*
X345471785Y-277499523D01*
X345567023Y-277451904D01*
X345662261Y-277356666D01*
X345709880Y-277213809D01*
X345709880Y-276975714D01*
X344709880Y-278451904D02*
X344709880Y-277975714D01*
X345186071Y-277928095D01*
X345138452Y-277975714D01*
X345090833Y-278070952D01*
X345090833Y-278309047D01*
X345138452Y-278404285D01*
X345186071Y-278451904D01*
X345281309Y-278499523D01*
X345519404Y-278499523D01*
X345614642Y-278451904D01*
X345662261Y-278404285D01*
X345709880Y-278309047D01*
X345709880Y-278070952D01*
X345662261Y-277975714D01*
X345614642Y-277928095D01*
X344709880Y-278832857D02*
X344709880Y-279499523D01*
X345709880Y-279070952D01*
X345139880Y-281738095D02*
X344139880Y-281738095D01*
X345139880Y-282309523D02*
X344568452Y-281880952D01*
X344139880Y-282309523D02*
X344711309Y-281738095D01*
X367228380Y-180663714D02*
X366228380Y-180663714D01*
X366228380Y-180901809D01*
X366276000Y-181044666D01*
X366371238Y-181139904D01*
X366466476Y-181187523D01*
X366656952Y-181235142D01*
X366799809Y-181235142D01*
X366990285Y-181187523D01*
X367085523Y-181139904D01*
X367180761Y-181044666D01*
X367228380Y-180901809D01*
X367228380Y-180663714D01*
X366228380Y-182092285D02*
X366228380Y-181901809D01*
X366276000Y-181806571D01*
X366323619Y-181758952D01*
X366466476Y-181663714D01*
X366656952Y-181616095D01*
X367037904Y-181616095D01*
X367133142Y-181663714D01*
X367180761Y-181711333D01*
X367228380Y-181806571D01*
X367228380Y-181997047D01*
X367180761Y-182092285D01*
X367133142Y-182139904D01*
X367037904Y-182187523D01*
X366799809Y-182187523D01*
X366704571Y-182139904D01*
X366656952Y-182092285D01*
X366609333Y-181997047D01*
X366609333Y-181806571D01*
X366656952Y-181711333D01*
X366704571Y-181663714D01*
X366799809Y-181616095D01*
X366228380Y-183092285D02*
X366228380Y-182616095D01*
X366704571Y-182568476D01*
X366656952Y-182616095D01*
X366609333Y-182711333D01*
X366609333Y-182949428D01*
X366656952Y-183044666D01*
X366704571Y-183092285D01*
X366799809Y-183139904D01*
X367037904Y-183139904D01*
X367133142Y-183092285D01*
X367180761Y-183044666D01*
X367228380Y-182949428D01*
X367228380Y-182711333D01*
X367180761Y-182616095D01*
X367133142Y-182568476D01*
X369128380Y-192016095D02*
X368128380Y-192016095D01*
X369128380Y-192587523D02*
X368556952Y-192158952D01*
X368128380Y-192587523D02*
X368699809Y-192016095D01*
X370728380Y-180663714D02*
X369728380Y-180663714D01*
X369728380Y-180901809D01*
X369776000Y-181044666D01*
X369871238Y-181139904D01*
X369966476Y-181187523D01*
X370156952Y-181235142D01*
X370299809Y-181235142D01*
X370490285Y-181187523D01*
X370585523Y-181139904D01*
X370680761Y-181044666D01*
X370728380Y-180901809D01*
X370728380Y-180663714D01*
X369728380Y-182092285D02*
X369728380Y-181901809D01*
X369776000Y-181806571D01*
X369823619Y-181758952D01*
X369966476Y-181663714D01*
X370156952Y-181616095D01*
X370537904Y-181616095D01*
X370633142Y-181663714D01*
X370680761Y-181711333D01*
X370728380Y-181806571D01*
X370728380Y-181997047D01*
X370680761Y-182092285D01*
X370633142Y-182139904D01*
X370537904Y-182187523D01*
X370299809Y-182187523D01*
X370204571Y-182139904D01*
X370156952Y-182092285D01*
X370109333Y-181997047D01*
X370109333Y-181806571D01*
X370156952Y-181711333D01*
X370204571Y-181663714D01*
X370299809Y-181616095D01*
X369728380Y-183044666D02*
X369728380Y-182854190D01*
X369776000Y-182758952D01*
X369823619Y-182711333D01*
X369966476Y-182616095D01*
X370156952Y-182568476D01*
X370537904Y-182568476D01*
X370633142Y-182616095D01*
X370680761Y-182663714D01*
X370728380Y-182758952D01*
X370728380Y-182949428D01*
X370680761Y-183044666D01*
X370633142Y-183092285D01*
X370537904Y-183139904D01*
X370299809Y-183139904D01*
X370204571Y-183092285D01*
X370156952Y-183044666D01*
X370109333Y-182949428D01*
X370109333Y-182758952D01*
X370156952Y-182663714D01*
X370204571Y-182616095D01*
X370299809Y-182568476D01*
X372628380Y-192016095D02*
X371628380Y-192016095D01*
X372628380Y-192587523D02*
X372056952Y-192158952D01*
X371628380Y-192587523D02*
X372199809Y-192016095D01*
X377728380Y-180663714D02*
X376728380Y-180663714D01*
X376728380Y-180901809D01*
X376776000Y-181044666D01*
X376871238Y-181139904D01*
X376966476Y-181187523D01*
X377156952Y-181235142D01*
X377299809Y-181235142D01*
X377490285Y-181187523D01*
X377585523Y-181139904D01*
X377680761Y-181044666D01*
X377728380Y-180901809D01*
X377728380Y-180663714D01*
X376728380Y-182092285D02*
X376728380Y-181901809D01*
X376776000Y-181806571D01*
X376823619Y-181758952D01*
X376966476Y-181663714D01*
X377156952Y-181616095D01*
X377537904Y-181616095D01*
X377633142Y-181663714D01*
X377680761Y-181711333D01*
X377728380Y-181806571D01*
X377728380Y-181997047D01*
X377680761Y-182092285D01*
X377633142Y-182139904D01*
X377537904Y-182187523D01*
X377299809Y-182187523D01*
X377204571Y-182139904D01*
X377156952Y-182092285D01*
X377109333Y-181997047D01*
X377109333Y-181806571D01*
X377156952Y-181711333D01*
X377204571Y-181663714D01*
X377299809Y-181616095D01*
X377156952Y-182758952D02*
X377109333Y-182663714D01*
X377061714Y-182616095D01*
X376966476Y-182568476D01*
X376918857Y-182568476D01*
X376823619Y-182616095D01*
X376776000Y-182663714D01*
X376728380Y-182758952D01*
X376728380Y-182949428D01*
X376776000Y-183044666D01*
X376823619Y-183092285D01*
X376918857Y-183139904D01*
X376966476Y-183139904D01*
X377061714Y-183092285D01*
X377109333Y-183044666D01*
X377156952Y-182949428D01*
X377156952Y-182758952D01*
X377204571Y-182663714D01*
X377252190Y-182616095D01*
X377347428Y-182568476D01*
X377537904Y-182568476D01*
X377633142Y-182616095D01*
X377680761Y-182663714D01*
X377728380Y-182758952D01*
X377728380Y-182949428D01*
X377680761Y-183044666D01*
X377633142Y-183092285D01*
X377537904Y-183139904D01*
X377347428Y-183139904D01*
X377252190Y-183092285D01*
X377204571Y-183044666D01*
X377156952Y-182949428D01*
X379628380Y-192016095D02*
X378628380Y-192016095D01*
X379628380Y-192587523D02*
X379056952Y-192158952D01*
X378628380Y-192587523D02*
X379199809Y-192016095D01*
X363672380Y-195325714D02*
X362672380Y-195325714D01*
X362672380Y-195563809D01*
X362720000Y-195706666D01*
X362815238Y-195801904D01*
X362910476Y-195849523D01*
X363100952Y-195897142D01*
X363243809Y-195897142D01*
X363434285Y-195849523D01*
X363529523Y-195801904D01*
X363624761Y-195706666D01*
X363672380Y-195563809D01*
X363672380Y-195325714D01*
X362672380Y-196230476D02*
X362672380Y-196897142D01*
X363672380Y-196468571D01*
X362672380Y-197182857D02*
X362672380Y-197801904D01*
X363053333Y-197468571D01*
X363053333Y-197611428D01*
X363100952Y-197706666D01*
X363148571Y-197754285D01*
X363243809Y-197801904D01*
X363481904Y-197801904D01*
X363577142Y-197754285D01*
X363624761Y-197706666D01*
X363672380Y-197611428D01*
X363672380Y-197325714D01*
X363624761Y-197230476D01*
X363577142Y-197182857D01*
X365572380Y-206748095D02*
X364572380Y-206748095D01*
X365572380Y-207319523D02*
X365000952Y-206890952D01*
X364572380Y-207319523D02*
X365143809Y-206748095D01*
X345573680Y-295530414D02*
X344573680Y-295530414D01*
X344573680Y-295768509D01*
X344621300Y-295911366D01*
X344716538Y-296006604D01*
X344811776Y-296054223D01*
X345002252Y-296101842D01*
X345145109Y-296101842D01*
X345335585Y-296054223D01*
X345430823Y-296006604D01*
X345526061Y-295911366D01*
X345573680Y-295768509D01*
X345573680Y-295530414D01*
X344573680Y-296435176D02*
X344573680Y-297054223D01*
X344954633Y-296720890D01*
X344954633Y-296863747D01*
X345002252Y-296958985D01*
X345049871Y-297006604D01*
X345145109Y-297054223D01*
X345383204Y-297054223D01*
X345478442Y-297006604D01*
X345526061Y-296958985D01*
X345573680Y-296863747D01*
X345573680Y-296578033D01*
X345526061Y-296482795D01*
X345478442Y-296435176D01*
X344573680Y-297911366D02*
X344573680Y-297720890D01*
X344621300Y-297625652D01*
X344668919Y-297578033D01*
X344811776Y-297482795D01*
X345002252Y-297435176D01*
X345383204Y-297435176D01*
X345478442Y-297482795D01*
X345526061Y-297530414D01*
X345573680Y-297625652D01*
X345573680Y-297816128D01*
X345526061Y-297911366D01*
X345478442Y-297958985D01*
X345383204Y-298006604D01*
X345145109Y-298006604D01*
X345049871Y-297958985D01*
X345002252Y-297911366D01*
X344954633Y-297816128D01*
X344954633Y-297625652D01*
X345002252Y-297530414D01*
X345049871Y-297482795D01*
X345145109Y-297435176D01*
X345003680Y-300292795D02*
X344003680Y-300292795D01*
X345003680Y-300864223D02*
X344432252Y-300435652D01*
X344003680Y-300864223D02*
X344575109Y-300292795D01*
X383653680Y-295530414D02*
X382653680Y-295530414D01*
X382653680Y-295768509D01*
X382701300Y-295911366D01*
X382796538Y-296006604D01*
X382891776Y-296054223D01*
X383082252Y-296101842D01*
X383225109Y-296101842D01*
X383415585Y-296054223D01*
X383510823Y-296006604D01*
X383606061Y-295911366D01*
X383653680Y-295768509D01*
X383653680Y-295530414D01*
X382987014Y-296958985D02*
X383653680Y-296958985D01*
X382606061Y-296720890D02*
X383320347Y-296482795D01*
X383320347Y-297101842D01*
X382653680Y-297958985D02*
X382653680Y-297482795D01*
X383129871Y-297435176D01*
X383082252Y-297482795D01*
X383034633Y-297578033D01*
X383034633Y-297816128D01*
X383082252Y-297911366D01*
X383129871Y-297958985D01*
X383225109Y-298006604D01*
X383463204Y-298006604D01*
X383558442Y-297958985D01*
X383606061Y-297911366D01*
X383653680Y-297816128D01*
X383653680Y-297578033D01*
X383606061Y-297482795D01*
X383558442Y-297435176D01*
X383083680Y-300292795D02*
X382083680Y-300292795D01*
X383083680Y-300864223D02*
X382512252Y-300435652D01*
X382083680Y-300864223D02*
X382655109Y-300292795D01*
X363728380Y-180663714D02*
X362728380Y-180663714D01*
X362728380Y-180901809D01*
X362776000Y-181044666D01*
X362871238Y-181139904D01*
X362966476Y-181187523D01*
X363156952Y-181235142D01*
X363299809Y-181235142D01*
X363490285Y-181187523D01*
X363585523Y-181139904D01*
X363680761Y-181044666D01*
X363728380Y-180901809D01*
X363728380Y-180663714D01*
X362728380Y-182092285D02*
X362728380Y-181901809D01*
X362776000Y-181806571D01*
X362823619Y-181758952D01*
X362966476Y-181663714D01*
X363156952Y-181616095D01*
X363537904Y-181616095D01*
X363633142Y-181663714D01*
X363680761Y-181711333D01*
X363728380Y-181806571D01*
X363728380Y-181997047D01*
X363680761Y-182092285D01*
X363633142Y-182139904D01*
X363537904Y-182187523D01*
X363299809Y-182187523D01*
X363204571Y-182139904D01*
X363156952Y-182092285D01*
X363109333Y-181997047D01*
X363109333Y-181806571D01*
X363156952Y-181711333D01*
X363204571Y-181663714D01*
X363299809Y-181616095D01*
X363061714Y-183044666D02*
X363728380Y-183044666D01*
X362680761Y-182806571D02*
X363395047Y-182568476D01*
X363395047Y-183187523D01*
X365628380Y-192016095D02*
X364628380Y-192016095D01*
X365628380Y-192587523D02*
X365056952Y-192158952D01*
X364628380Y-192587523D02*
X365199809Y-192016095D01*
X367061130Y-195325714D02*
X366061130Y-195325714D01*
X366061130Y-195563809D01*
X366108750Y-195706666D01*
X366203988Y-195801904D01*
X366299226Y-195849523D01*
X366489702Y-195897142D01*
X366632559Y-195897142D01*
X366823035Y-195849523D01*
X366918273Y-195801904D01*
X367013511Y-195706666D01*
X367061130Y-195563809D01*
X367061130Y-195325714D01*
X366061130Y-196230476D02*
X366061130Y-196897142D01*
X367061130Y-196468571D01*
X366394464Y-197706666D02*
X367061130Y-197706666D01*
X366013511Y-197468571D02*
X366727797Y-197230476D01*
X366727797Y-197849523D01*
X369072380Y-206748095D02*
X368072380Y-206748095D01*
X369072380Y-207319523D02*
X368500952Y-206890952D01*
X368072380Y-207319523D02*
X368643809Y-206748095D01*
X370472380Y-195325714D02*
X369472380Y-195325714D01*
X369472380Y-195563809D01*
X369520000Y-195706666D01*
X369615238Y-195801904D01*
X369710476Y-195849523D01*
X369900952Y-195897142D01*
X370043809Y-195897142D01*
X370234285Y-195849523D01*
X370329523Y-195801904D01*
X370424761Y-195706666D01*
X370472380Y-195563809D01*
X370472380Y-195325714D01*
X369472380Y-196230476D02*
X369472380Y-196897142D01*
X370472380Y-196468571D01*
X369472380Y-197754285D02*
X369472380Y-197278095D01*
X369948571Y-197230476D01*
X369900952Y-197278095D01*
X369853333Y-197373333D01*
X369853333Y-197611428D01*
X369900952Y-197706666D01*
X369948571Y-197754285D01*
X370043809Y-197801904D01*
X370281904Y-197801904D01*
X370377142Y-197754285D01*
X370424761Y-197706666D01*
X370472380Y-197611428D01*
X370472380Y-197373333D01*
X370424761Y-197278095D01*
X370377142Y-197230476D01*
X372572380Y-206748095D02*
X371572380Y-206748095D01*
X372572380Y-207319523D02*
X372000952Y-206890952D01*
X371572380Y-207319523D02*
X372143809Y-206748095D01*
X377672380Y-195325714D02*
X376672380Y-195325714D01*
X376672380Y-195563809D01*
X376720000Y-195706666D01*
X376815238Y-195801904D01*
X376910476Y-195849523D01*
X377100952Y-195897142D01*
X377243809Y-195897142D01*
X377434285Y-195849523D01*
X377529523Y-195801904D01*
X377624761Y-195706666D01*
X377672380Y-195563809D01*
X377672380Y-195325714D01*
X376672380Y-196230476D02*
X376672380Y-196897142D01*
X377672380Y-196468571D01*
X376672380Y-197182857D02*
X376672380Y-197849523D01*
X377672380Y-197420952D01*
X379572380Y-206748095D02*
X378572380Y-206748095D01*
X379572380Y-207319523D02*
X379000952Y-206890952D01*
X378572380Y-207319523D02*
X379143809Y-206748095D01*
X192451080Y-191651904D02*
X191451080Y-191651904D01*
X191451080Y-191890000D01*
X191498700Y-192032857D01*
X191593938Y-192128095D01*
X191689176Y-192175714D01*
X191879652Y-192223333D01*
X192022509Y-192223333D01*
X192212985Y-192175714D01*
X192308223Y-192128095D01*
X192403461Y-192032857D01*
X192451080Y-191890000D01*
X192451080Y-191651904D01*
X192451080Y-193175714D02*
X192451080Y-192604285D01*
X192451080Y-192890000D02*
X191451080Y-192890000D01*
X191593938Y-192794761D01*
X191689176Y-192699523D01*
X191736795Y-192604285D01*
X187511080Y-190556666D02*
X186511080Y-190556666D01*
X187225366Y-190890000D01*
X186511080Y-191223333D01*
X187511080Y-191223333D01*
X186987271Y-191699523D02*
X186987271Y-192032857D01*
X187511080Y-192175714D02*
X187511080Y-191699523D01*
X186511080Y-191699523D01*
X186511080Y-192175714D01*
X187511080Y-192604285D02*
X186511080Y-192604285D01*
X187511080Y-193175714D01*
X186511080Y-193175714D01*
X186511080Y-193651904D02*
X187320604Y-193651904D01*
X187415842Y-193699523D01*
X187463461Y-193747142D01*
X187511080Y-193842380D01*
X187511080Y-194032857D01*
X187463461Y-194128095D01*
X187415842Y-194175714D01*
X187320604Y-194223333D01*
X186511080Y-194223333D01*
X191881080Y-195938095D02*
X190881080Y-195938095D01*
X191881080Y-196509523D02*
X191309652Y-196080952D01*
X190881080Y-196509523D02*
X191452509Y-195938095D01*
X166271080Y-191651904D02*
X165271080Y-191651904D01*
X165271080Y-191890000D01*
X165318700Y-192032857D01*
X165413938Y-192128095D01*
X165509176Y-192175714D01*
X165699652Y-192223333D01*
X165842509Y-192223333D01*
X166032985Y-192175714D01*
X166128223Y-192128095D01*
X166223461Y-192032857D01*
X166271080Y-191890000D01*
X166271080Y-191651904D01*
X165271080Y-192556666D02*
X165271080Y-193175714D01*
X165652033Y-192842380D01*
X165652033Y-192985238D01*
X165699652Y-193080476D01*
X165747271Y-193128095D01*
X165842509Y-193175714D01*
X166080604Y-193175714D01*
X166175842Y-193128095D01*
X166223461Y-193080476D01*
X166271080Y-192985238D01*
X166271080Y-192699523D01*
X166223461Y-192604285D01*
X166175842Y-192556666D01*
X161331080Y-190937619D02*
X160854890Y-190604285D01*
X161331080Y-190366190D02*
X160331080Y-190366190D01*
X160331080Y-190747142D01*
X160378700Y-190842380D01*
X160426319Y-190890000D01*
X160521557Y-190937619D01*
X160664414Y-190937619D01*
X160759652Y-190890000D01*
X160807271Y-190842380D01*
X160854890Y-190747142D01*
X160854890Y-190366190D01*
X160807271Y-191366190D02*
X160807271Y-191699523D01*
X161331080Y-191842380D02*
X161331080Y-191366190D01*
X160331080Y-191366190D01*
X160331080Y-191842380D01*
X161283461Y-192223333D02*
X161331080Y-192366190D01*
X161331080Y-192604285D01*
X161283461Y-192699523D01*
X161235842Y-192747142D01*
X161140604Y-192794761D01*
X161045366Y-192794761D01*
X160950128Y-192747142D01*
X160902509Y-192699523D01*
X160854890Y-192604285D01*
X160807271Y-192413809D01*
X160759652Y-192318571D01*
X160712033Y-192270952D01*
X160616795Y-192223333D01*
X160521557Y-192223333D01*
X160426319Y-192270952D01*
X160378700Y-192318571D01*
X160331080Y-192413809D01*
X160331080Y-192651904D01*
X160378700Y-192794761D01*
X160807271Y-193223333D02*
X160807271Y-193556666D01*
X161331080Y-193699523D02*
X161331080Y-193223333D01*
X160331080Y-193223333D01*
X160331080Y-193699523D01*
X160331080Y-193985238D02*
X160331080Y-194556666D01*
X161331080Y-194270952D02*
X160331080Y-194270952D01*
X165701080Y-195938095D02*
X164701080Y-195938095D01*
X165701080Y-196509523D02*
X165129652Y-196080952D01*
X164701080Y-196509523D02*
X165272509Y-195938095D01*
X288599880Y-191721904D02*
X287599880Y-191721904D01*
X287599880Y-191960000D01*
X287647500Y-192102857D01*
X287742738Y-192198095D01*
X287837976Y-192245714D01*
X288028452Y-192293333D01*
X288171309Y-192293333D01*
X288361785Y-192245714D01*
X288457023Y-192198095D01*
X288552261Y-192102857D01*
X288599880Y-191960000D01*
X288599880Y-191721904D01*
X287933214Y-193150476D02*
X288599880Y-193150476D01*
X287552261Y-192912380D02*
X288266547Y-192674285D01*
X288266547Y-193293333D01*
X282659880Y-190198095D02*
X282659880Y-190388571D01*
X282707500Y-190483809D01*
X282802738Y-190579047D01*
X282993214Y-190626666D01*
X283326547Y-190626666D01*
X283517023Y-190579047D01*
X283612261Y-190483809D01*
X283659880Y-190388571D01*
X283659880Y-190198095D01*
X283612261Y-190102857D01*
X283517023Y-190007619D01*
X283326547Y-189960000D01*
X282993214Y-189960000D01*
X282802738Y-190007619D01*
X282707500Y-190102857D01*
X282659880Y-190198095D01*
X283659880Y-191055238D02*
X282659880Y-191055238D01*
X282659880Y-191436190D01*
X282707500Y-191531428D01*
X282755119Y-191579047D01*
X282850357Y-191626666D01*
X282993214Y-191626666D01*
X283088452Y-191579047D01*
X283136071Y-191531428D01*
X283183690Y-191436190D01*
X283183690Y-191055238D01*
X282659880Y-191912380D02*
X282659880Y-192483809D01*
X283659880Y-192198095D02*
X282659880Y-192198095D01*
X283659880Y-192817142D02*
X282659880Y-192817142D01*
X282659880Y-193483809D02*
X282659880Y-193674285D01*
X282707500Y-193769523D01*
X282802738Y-193864761D01*
X282993214Y-193912380D01*
X283326547Y-193912380D01*
X283517023Y-193864761D01*
X283612261Y-193769523D01*
X283659880Y-193674285D01*
X283659880Y-193483809D01*
X283612261Y-193388571D01*
X283517023Y-193293333D01*
X283326547Y-193245714D01*
X282993214Y-193245714D01*
X282802738Y-193293333D01*
X282707500Y-193388571D01*
X282659880Y-193483809D01*
X283659880Y-194340952D02*
X282659880Y-194340952D01*
X283659880Y-194912380D01*
X282659880Y-194912380D01*
X288029880Y-196008095D02*
X287029880Y-196008095D01*
X288029880Y-196579523D02*
X287458452Y-196150952D01*
X287029880Y-196579523D02*
X287601309Y-196008095D01*
X359999880Y-191265714D02*
X358999880Y-191265714D01*
X358999880Y-191503809D01*
X359047500Y-191646666D01*
X359142738Y-191741904D01*
X359237976Y-191789523D01*
X359428452Y-191837142D01*
X359571309Y-191837142D01*
X359761785Y-191789523D01*
X359857023Y-191741904D01*
X359952261Y-191646666D01*
X359999880Y-191503809D01*
X359999880Y-191265714D01*
X359095119Y-192218095D02*
X359047500Y-192265714D01*
X358999880Y-192360952D01*
X358999880Y-192599047D01*
X359047500Y-192694285D01*
X359095119Y-192741904D01*
X359190357Y-192789523D01*
X359285595Y-192789523D01*
X359428452Y-192741904D01*
X359999880Y-192170476D01*
X359999880Y-192789523D01*
X359333214Y-193646666D02*
X359999880Y-193646666D01*
X358952261Y-193408571D02*
X359666547Y-193170476D01*
X359666547Y-193789523D01*
X354536071Y-191551428D02*
X354583690Y-191694285D01*
X354631309Y-191741904D01*
X354726547Y-191789523D01*
X354869404Y-191789523D01*
X354964642Y-191741904D01*
X355012261Y-191694285D01*
X355059880Y-191599047D01*
X355059880Y-191218095D01*
X354059880Y-191218095D01*
X354059880Y-191551428D01*
X354107500Y-191646666D01*
X354155119Y-191694285D01*
X354250357Y-191741904D01*
X354345595Y-191741904D01*
X354440833Y-191694285D01*
X354488452Y-191646666D01*
X354536071Y-191551428D01*
X354536071Y-191218095D01*
X355059880Y-192789523D02*
X354583690Y-192456190D01*
X355059880Y-192218095D02*
X354059880Y-192218095D01*
X354059880Y-192599047D01*
X354107500Y-192694285D01*
X354155119Y-192741904D01*
X354250357Y-192789523D01*
X354393214Y-192789523D01*
X354488452Y-192741904D01*
X354536071Y-192694285D01*
X354583690Y-192599047D01*
X354583690Y-192218095D01*
X355059880Y-193218095D02*
X354059880Y-193218095D01*
X355059880Y-193789523D02*
X354488452Y-193360952D01*
X354059880Y-193789523D02*
X354631309Y-193218095D01*
X359429880Y-196028095D02*
X358429880Y-196028095D01*
X359429880Y-196599523D02*
X358858452Y-196170952D01*
X358429880Y-196599523D02*
X359001309Y-196028095D01*
X336199880Y-191295714D02*
X335199880Y-191295714D01*
X335199880Y-191533809D01*
X335247500Y-191676666D01*
X335342738Y-191771904D01*
X335437976Y-191819523D01*
X335628452Y-191867142D01*
X335771309Y-191867142D01*
X335961785Y-191819523D01*
X336057023Y-191771904D01*
X336152261Y-191676666D01*
X336199880Y-191533809D01*
X336199880Y-191295714D01*
X335199880Y-192200476D02*
X335199880Y-192867142D01*
X336199880Y-192438571D01*
X335199880Y-193438571D02*
X335199880Y-193533809D01*
X335247500Y-193629047D01*
X335295119Y-193676666D01*
X335390357Y-193724285D01*
X335580833Y-193771904D01*
X335818928Y-193771904D01*
X336009404Y-193724285D01*
X336104642Y-193676666D01*
X336152261Y-193629047D01*
X336199880Y-193533809D01*
X336199880Y-193438571D01*
X336152261Y-193343333D01*
X336104642Y-193295714D01*
X336009404Y-193248095D01*
X335818928Y-193200476D01*
X335580833Y-193200476D01*
X335390357Y-193248095D01*
X335295119Y-193295714D01*
X335247500Y-193343333D01*
X335199880Y-193438571D01*
X331259880Y-191557619D02*
X330259880Y-191557619D01*
X331259880Y-192033809D02*
X330259880Y-192033809D01*
X331259880Y-192605238D01*
X330259880Y-192605238D01*
X330259880Y-192938571D02*
X331259880Y-193271904D01*
X330259880Y-193605238D01*
X335629880Y-196058095D02*
X334629880Y-196058095D01*
X335629880Y-196629523D02*
X335058452Y-196200952D01*
X334629880Y-196629523D02*
X335201309Y-196058095D01*
X312399880Y-191721904D02*
X311399880Y-191721904D01*
X311399880Y-191960000D01*
X311447500Y-192102857D01*
X311542738Y-192198095D01*
X311637976Y-192245714D01*
X311828452Y-192293333D01*
X311971309Y-192293333D01*
X312161785Y-192245714D01*
X312257023Y-192198095D01*
X312352261Y-192102857D01*
X312399880Y-191960000D01*
X312399880Y-191721904D01*
X311399880Y-192626666D02*
X311399880Y-193293333D01*
X312399880Y-192864761D01*
X307459880Y-190817142D02*
X306459880Y-190817142D01*
X306936071Y-190817142D02*
X306936071Y-191388571D01*
X307459880Y-191388571D02*
X306459880Y-191388571D01*
X306936071Y-191864761D02*
X306936071Y-192198095D01*
X307459880Y-192340952D02*
X307459880Y-191864761D01*
X306459880Y-191864761D01*
X306459880Y-192340952D01*
X307459880Y-193245714D02*
X307459880Y-192769523D01*
X306459880Y-192769523D01*
X307459880Y-193579047D02*
X306459880Y-193579047D01*
X306459880Y-193960000D01*
X306507500Y-194055238D01*
X306555119Y-194102857D01*
X306650357Y-194150476D01*
X306793214Y-194150476D01*
X306888452Y-194102857D01*
X306936071Y-194055238D01*
X306983690Y-193960000D01*
X306983690Y-193579047D01*
X311829880Y-196008095D02*
X310829880Y-196008095D01*
X311829880Y-196579523D02*
X311258452Y-196150952D01*
X310829880Y-196579523D02*
X311401309Y-196008095D01*
X264799880Y-191721904D02*
X263799880Y-191721904D01*
X263799880Y-191960000D01*
X263847500Y-192102857D01*
X263942738Y-192198095D01*
X264037976Y-192245714D01*
X264228452Y-192293333D01*
X264371309Y-192293333D01*
X264561785Y-192245714D01*
X264657023Y-192198095D01*
X264752261Y-192102857D01*
X264799880Y-191960000D01*
X264799880Y-191721904D01*
X263799880Y-193198095D02*
X263799880Y-192721904D01*
X264276071Y-192674285D01*
X264228452Y-192721904D01*
X264180833Y-192817142D01*
X264180833Y-193055238D01*
X264228452Y-193150476D01*
X264276071Y-193198095D01*
X264371309Y-193245714D01*
X264609404Y-193245714D01*
X264704642Y-193198095D01*
X264752261Y-193150476D01*
X264799880Y-193055238D01*
X264799880Y-192817142D01*
X264752261Y-192721904D01*
X264704642Y-192674285D01*
X259812261Y-189983809D02*
X259859880Y-190126666D01*
X259859880Y-190364761D01*
X259812261Y-190460000D01*
X259764642Y-190507619D01*
X259669404Y-190555238D01*
X259574166Y-190555238D01*
X259478928Y-190507619D01*
X259431309Y-190460000D01*
X259383690Y-190364761D01*
X259336071Y-190174285D01*
X259288452Y-190079047D01*
X259240833Y-190031428D01*
X259145595Y-189983809D01*
X259050357Y-189983809D01*
X258955119Y-190031428D01*
X258907500Y-190079047D01*
X258859880Y-190174285D01*
X258859880Y-190412380D01*
X258907500Y-190555238D01*
X259336071Y-190983809D02*
X259336071Y-191317142D01*
X259859880Y-191460000D02*
X259859880Y-190983809D01*
X258859880Y-190983809D01*
X258859880Y-191460000D01*
X259859880Y-192364761D02*
X259859880Y-191888571D01*
X258859880Y-191888571D01*
X259336071Y-192698095D02*
X259336071Y-193031428D01*
X259859880Y-193174285D02*
X259859880Y-192698095D01*
X258859880Y-192698095D01*
X258859880Y-193174285D01*
X259764642Y-194174285D02*
X259812261Y-194126666D01*
X259859880Y-193983809D01*
X259859880Y-193888571D01*
X259812261Y-193745714D01*
X259717023Y-193650476D01*
X259621785Y-193602857D01*
X259431309Y-193555238D01*
X259288452Y-193555238D01*
X259097976Y-193602857D01*
X259002738Y-193650476D01*
X258907500Y-193745714D01*
X258859880Y-193888571D01*
X258859880Y-193983809D01*
X258907500Y-194126666D01*
X258955119Y-194174285D01*
X258859880Y-194460000D02*
X258859880Y-195031428D01*
X259859880Y-194745714D02*
X258859880Y-194745714D01*
X264229880Y-196008095D02*
X263229880Y-196008095D01*
X264229880Y-196579523D02*
X263658452Y-196150952D01*
X263229880Y-196579523D02*
X263801309Y-196008095D01*
X240999880Y-191721904D02*
X239999880Y-191721904D01*
X239999880Y-191960000D01*
X240047500Y-192102857D01*
X240142738Y-192198095D01*
X240237976Y-192245714D01*
X240428452Y-192293333D01*
X240571309Y-192293333D01*
X240761785Y-192245714D01*
X240857023Y-192198095D01*
X240952261Y-192102857D01*
X240999880Y-191960000D01*
X240999880Y-191721904D01*
X239999880Y-193150476D02*
X239999880Y-192960000D01*
X240047500Y-192864761D01*
X240095119Y-192817142D01*
X240237976Y-192721904D01*
X240428452Y-192674285D01*
X240809404Y-192674285D01*
X240904642Y-192721904D01*
X240952261Y-192769523D01*
X240999880Y-192864761D01*
X240999880Y-193055238D01*
X240952261Y-193150476D01*
X240904642Y-193198095D01*
X240809404Y-193245714D01*
X240571309Y-193245714D01*
X240476071Y-193198095D01*
X240428452Y-193150476D01*
X240380833Y-193055238D01*
X240380833Y-192864761D01*
X240428452Y-192769523D01*
X240476071Y-192721904D01*
X240571309Y-192674285D01*
X236012261Y-190483809D02*
X236059880Y-190626666D01*
X236059880Y-190864761D01*
X236012261Y-190960000D01*
X235964642Y-191007619D01*
X235869404Y-191055238D01*
X235774166Y-191055238D01*
X235678928Y-191007619D01*
X235631309Y-190960000D01*
X235583690Y-190864761D01*
X235536071Y-190674285D01*
X235488452Y-190579047D01*
X235440833Y-190531428D01*
X235345595Y-190483809D01*
X235250357Y-190483809D01*
X235155119Y-190531428D01*
X235107500Y-190579047D01*
X235059880Y-190674285D01*
X235059880Y-190912380D01*
X235107500Y-191055238D01*
X235059880Y-191340952D02*
X235059880Y-191912380D01*
X236059880Y-191626666D02*
X235059880Y-191626666D01*
X235774166Y-192198095D02*
X235774166Y-192674285D01*
X236059880Y-192102857D02*
X235059880Y-192436190D01*
X236059880Y-192769523D01*
X236059880Y-193674285D02*
X235583690Y-193340952D01*
X236059880Y-193102857D02*
X235059880Y-193102857D01*
X235059880Y-193483809D01*
X235107500Y-193579047D01*
X235155119Y-193626666D01*
X235250357Y-193674285D01*
X235393214Y-193674285D01*
X235488452Y-193626666D01*
X235536071Y-193579047D01*
X235583690Y-193483809D01*
X235583690Y-193102857D01*
X235059880Y-193960000D02*
X235059880Y-194531428D01*
X236059880Y-194245714D02*
X235059880Y-194245714D01*
X240429880Y-196008095D02*
X239429880Y-196008095D01*
X240429880Y-196579523D02*
X239858452Y-196150952D01*
X239429880Y-196579523D02*
X240001309Y-196008095D01*
X216251080Y-191651904D02*
X215251080Y-191651904D01*
X215251080Y-191890000D01*
X215298700Y-192032857D01*
X215393938Y-192128095D01*
X215489176Y-192175714D01*
X215679652Y-192223333D01*
X215822509Y-192223333D01*
X216012985Y-192175714D01*
X216108223Y-192128095D01*
X216203461Y-192032857D01*
X216251080Y-191890000D01*
X216251080Y-191651904D01*
X215346319Y-192604285D02*
X215298700Y-192651904D01*
X215251080Y-192747142D01*
X215251080Y-192985238D01*
X215298700Y-193080476D01*
X215346319Y-193128095D01*
X215441557Y-193175714D01*
X215536795Y-193175714D01*
X215679652Y-193128095D01*
X216251080Y-192556666D01*
X216251080Y-193175714D01*
X210311080Y-190056666D02*
X210311080Y-190628095D01*
X211311080Y-190342380D02*
X210311080Y-190342380D01*
X210311080Y-190961428D02*
X211120604Y-190961428D01*
X211215842Y-191009047D01*
X211263461Y-191056666D01*
X211311080Y-191151904D01*
X211311080Y-191342380D01*
X211263461Y-191437619D01*
X211215842Y-191485238D01*
X211120604Y-191532857D01*
X210311080Y-191532857D01*
X211311080Y-192580476D02*
X210834890Y-192247142D01*
X211311080Y-192009047D02*
X210311080Y-192009047D01*
X210311080Y-192390000D01*
X210358700Y-192485238D01*
X210406319Y-192532857D01*
X210501557Y-192580476D01*
X210644414Y-192580476D01*
X210739652Y-192532857D01*
X210787271Y-192485238D01*
X210834890Y-192390000D01*
X210834890Y-192009047D01*
X210787271Y-193342380D02*
X210834890Y-193485238D01*
X210882509Y-193532857D01*
X210977747Y-193580476D01*
X211120604Y-193580476D01*
X211215842Y-193532857D01*
X211263461Y-193485238D01*
X211311080Y-193390000D01*
X211311080Y-193009047D01*
X210311080Y-193009047D01*
X210311080Y-193342380D01*
X210358700Y-193437619D01*
X210406319Y-193485238D01*
X210501557Y-193532857D01*
X210596795Y-193532857D01*
X210692033Y-193485238D01*
X210739652Y-193437619D01*
X210787271Y-193342380D01*
X210787271Y-193009047D01*
X210311080Y-194199523D02*
X210311080Y-194390000D01*
X210358700Y-194485238D01*
X210453938Y-194580476D01*
X210644414Y-194628095D01*
X210977747Y-194628095D01*
X211168223Y-194580476D01*
X211263461Y-194485238D01*
X211311080Y-194390000D01*
X211311080Y-194199523D01*
X211263461Y-194104285D01*
X211168223Y-194009047D01*
X210977747Y-193961428D01*
X210644414Y-193961428D01*
X210453938Y-194009047D01*
X210358700Y-194104285D01*
X210311080Y-194199523D01*
X215681080Y-195938095D02*
X214681080Y-195938095D01*
X215681080Y-196509523D02*
X215109652Y-196080952D01*
X214681080Y-196509523D02*
X215252509Y-195938095D01*
X374228380Y-180663714D02*
X373228380Y-180663714D01*
X373228380Y-180901809D01*
X373276000Y-181044666D01*
X373371238Y-181139904D01*
X373466476Y-181187523D01*
X373656952Y-181235142D01*
X373799809Y-181235142D01*
X373990285Y-181187523D01*
X374085523Y-181139904D01*
X374180761Y-181044666D01*
X374228380Y-180901809D01*
X374228380Y-180663714D01*
X373228380Y-182092285D02*
X373228380Y-181901809D01*
X373276000Y-181806571D01*
X373323619Y-181758952D01*
X373466476Y-181663714D01*
X373656952Y-181616095D01*
X374037904Y-181616095D01*
X374133142Y-181663714D01*
X374180761Y-181711333D01*
X374228380Y-181806571D01*
X374228380Y-181997047D01*
X374180761Y-182092285D01*
X374133142Y-182139904D01*
X374037904Y-182187523D01*
X373799809Y-182187523D01*
X373704571Y-182139904D01*
X373656952Y-182092285D01*
X373609333Y-181997047D01*
X373609333Y-181806571D01*
X373656952Y-181711333D01*
X373704571Y-181663714D01*
X373799809Y-181616095D01*
X373228380Y-182520857D02*
X373228380Y-183187523D01*
X374228380Y-182758952D01*
X376128380Y-192016095D02*
X375128380Y-192016095D01*
X376128380Y-192587523D02*
X375556952Y-192158952D01*
X375128380Y-192587523D02*
X375699809Y-192016095D01*
X373972380Y-195325714D02*
X372972380Y-195325714D01*
X372972380Y-195563809D01*
X373020000Y-195706666D01*
X373115238Y-195801904D01*
X373210476Y-195849523D01*
X373400952Y-195897142D01*
X373543809Y-195897142D01*
X373734285Y-195849523D01*
X373829523Y-195801904D01*
X373924761Y-195706666D01*
X373972380Y-195563809D01*
X373972380Y-195325714D01*
X372972380Y-196230476D02*
X372972380Y-196897142D01*
X373972380Y-196468571D01*
X372972380Y-197706666D02*
X372972380Y-197516190D01*
X373020000Y-197420952D01*
X373067619Y-197373333D01*
X373210476Y-197278095D01*
X373400952Y-197230476D01*
X373781904Y-197230476D01*
X373877142Y-197278095D01*
X373924761Y-197325714D01*
X373972380Y-197420952D01*
X373972380Y-197611428D01*
X373924761Y-197706666D01*
X373877142Y-197754285D01*
X373781904Y-197801904D01*
X373543809Y-197801904D01*
X373448571Y-197754285D01*
X373400952Y-197706666D01*
X373353333Y-197611428D01*
X373353333Y-197420952D01*
X373400952Y-197325714D01*
X373448571Y-197278095D01*
X373543809Y-197230476D01*
X376072380Y-206748095D02*
X375072380Y-206748095D01*
X376072380Y-207319523D02*
X375500952Y-206890952D01*
X375072380Y-207319523D02*
X375643809Y-206748095D01*
X364613680Y-295530414D02*
X363613680Y-295530414D01*
X363613680Y-295768509D01*
X363661300Y-295911366D01*
X363756538Y-296006604D01*
X363851776Y-296054223D01*
X364042252Y-296101842D01*
X364185109Y-296101842D01*
X364375585Y-296054223D01*
X364470823Y-296006604D01*
X364566061Y-295911366D01*
X364613680Y-295768509D01*
X364613680Y-295530414D01*
X363708919Y-296482795D02*
X363661300Y-296530414D01*
X363613680Y-296625652D01*
X363613680Y-296863747D01*
X363661300Y-296958985D01*
X363708919Y-297006604D01*
X363804157Y-297054223D01*
X363899395Y-297054223D01*
X364042252Y-297006604D01*
X364613680Y-296435176D01*
X364613680Y-297054223D01*
X363613680Y-297387557D02*
X363613680Y-298054223D01*
X364613680Y-297625652D01*
X364043680Y-300292795D02*
X363043680Y-300292795D01*
X364043680Y-300864223D02*
X363472252Y-300435652D01*
X363043680Y-300864223D02*
X363615109Y-300292795D01*
X364613680Y-276975714D02*
X363613680Y-276975714D01*
X363613680Y-277213809D01*
X363661300Y-277356666D01*
X363756538Y-277451904D01*
X363851776Y-277499523D01*
X364042252Y-277547142D01*
X364185109Y-277547142D01*
X364375585Y-277499523D01*
X364470823Y-277451904D01*
X364566061Y-277356666D01*
X364613680Y-277213809D01*
X364613680Y-276975714D01*
X364613680Y-278499523D02*
X364613680Y-277928095D01*
X364613680Y-278213809D02*
X363613680Y-278213809D01*
X363756538Y-278118571D01*
X363851776Y-278023333D01*
X363899395Y-277928095D01*
X364042252Y-279070952D02*
X363994633Y-278975714D01*
X363947014Y-278928095D01*
X363851776Y-278880476D01*
X363804157Y-278880476D01*
X363708919Y-278928095D01*
X363661300Y-278975714D01*
X363613680Y-279070952D01*
X363613680Y-279261428D01*
X363661300Y-279356666D01*
X363708919Y-279404285D01*
X363804157Y-279451904D01*
X363851776Y-279451904D01*
X363947014Y-279404285D01*
X363994633Y-279356666D01*
X364042252Y-279261428D01*
X364042252Y-279070952D01*
X364089871Y-278975714D01*
X364137490Y-278928095D01*
X364232728Y-278880476D01*
X364423204Y-278880476D01*
X364518442Y-278928095D01*
X364566061Y-278975714D01*
X364613680Y-279070952D01*
X364613680Y-279261428D01*
X364566061Y-279356666D01*
X364518442Y-279404285D01*
X364423204Y-279451904D01*
X364232728Y-279451904D01*
X364137490Y-279404285D01*
X364089871Y-279356666D01*
X364042252Y-279261428D01*
X364043680Y-281738095D02*
X363043680Y-281738095D01*
X364043680Y-282309523D02*
X363472252Y-281880952D01*
X363043680Y-282309523D02*
X363615109Y-281738095D01*
D11*
X67652000Y-203550000D02*
X67652000Y-206090000D01*
X65112000Y-203550000D02*
X67652000Y-203550000D01*
X62572000Y-206090000D02*
X95592000Y-206090000D01*
X95592000Y-206090000D02*
X95592000Y-188310000D01*
X65112000Y-203550000D02*
X65112000Y-206090000D01*
X62572000Y-188310000D02*
X62572000Y-206090000D01*
X95592000Y-188310000D02*
X62572000Y-188310000D01*
G36*
X71101030Y-191355365D02*
G01*
X71001030Y-191355365D01*
X71001030Y-190855365D01*
X71101030Y-190855365D01*
X71101030Y-191355365D01*
G37*
D10*
X71101030Y-191355365D02*
X71001030Y-191355365D01*
X71001030Y-190855365D01*
X71101030Y-190855365D01*
X71101030Y-191355365D01*
G36*
X71801030Y-191355365D02*
G01*
X71601030Y-191355365D01*
X71601030Y-191255365D01*
X71801030Y-191255365D01*
X71801030Y-191355365D01*
G37*
X71801030Y-191355365D02*
X71601030Y-191355365D01*
X71601030Y-191255365D01*
X71801030Y-191255365D01*
X71801030Y-191355365D01*
G36*
X71501030Y-191155365D02*
G01*
X71401030Y-191155365D01*
X71401030Y-191055365D01*
X71501030Y-191055365D01*
X71501030Y-191155365D01*
G37*
X71501030Y-191155365D02*
X71401030Y-191155365D01*
X71401030Y-191055365D01*
X71501030Y-191055365D01*
X71501030Y-191155365D01*
G36*
X71801030Y-190955365D02*
G01*
X71001030Y-190955365D01*
X71001030Y-190855365D01*
X71801030Y-190855365D01*
X71801030Y-190955365D01*
G37*
X71801030Y-190955365D02*
X71001030Y-190955365D01*
X71001030Y-190855365D01*
X71801030Y-190855365D01*
X71801030Y-190955365D01*
G36*
X71301030Y-191355365D02*
G01*
X71001030Y-191355365D01*
X71001030Y-191255365D01*
X71301030Y-191255365D01*
X71301030Y-191355365D01*
G37*
X71301030Y-191355365D02*
X71001030Y-191355365D01*
X71001030Y-191255365D01*
X71301030Y-191255365D01*
X71301030Y-191355365D01*
D12*
X112717500Y-218320000D02*
X113047500Y-218320000D01*
X115657500Y-222980000D02*
X112717500Y-222980000D01*
X112717500Y-223760000D02*
X112717500Y-218320000D01*
X115657500Y-222860000D02*
X112717500Y-222860000D01*
X115657500Y-223760000D02*
X115657500Y-218320000D01*
X115657500Y-222740000D02*
X112717500Y-222740000D01*
X115657500Y-218320000D02*
X115327500Y-218320000D01*
X113047500Y-223760000D02*
X112717500Y-223760000D01*
X115327500Y-223760000D02*
X115657500Y-223760000D01*
X268057500Y-222980000D02*
X265117500Y-222980000D01*
X268057500Y-222860000D02*
X265117500Y-222860000D01*
X268057500Y-223760000D02*
X268057500Y-218320000D01*
X267727500Y-223760000D02*
X268057500Y-223760000D01*
X268057500Y-222740000D02*
X265117500Y-222740000D01*
X265447500Y-223760000D02*
X265117500Y-223760000D01*
X268057500Y-218320000D02*
X267727500Y-218320000D01*
X265117500Y-218320000D02*
X265447500Y-218320000D01*
X265117500Y-223760000D02*
X265117500Y-218320000D01*
X141292500Y-237370000D02*
X141622500Y-237370000D01*
X144232500Y-237370000D02*
X143902500Y-237370000D01*
X141622500Y-242810000D02*
X141292500Y-242810000D01*
X143902500Y-242810000D02*
X144232500Y-242810000D01*
X144232500Y-242810000D02*
X144232500Y-237370000D01*
X141292500Y-242810000D02*
X141292500Y-237370000D01*
X144232500Y-241910000D02*
X141292500Y-241910000D01*
X144232500Y-241790000D02*
X141292500Y-241790000D01*
X144232500Y-242030000D02*
X141292500Y-242030000D01*
X187095000Y-260840000D02*
X184155000Y-260840000D01*
X184485000Y-261860000D02*
X184155000Y-261860000D01*
X187095000Y-260960000D02*
X184155000Y-260960000D01*
X184155000Y-261860000D02*
X184155000Y-256420000D01*
X187095000Y-256420000D02*
X186765000Y-256420000D01*
X187095000Y-261080000D02*
X184155000Y-261080000D01*
X184155000Y-256420000D02*
X184485000Y-256420000D01*
X186765000Y-261860000D02*
X187095000Y-261860000D01*
X187095000Y-261860000D02*
X187095000Y-256420000D01*
X339495000Y-261860000D02*
X339495000Y-256420000D01*
X339495000Y-261080000D02*
X336555000Y-261080000D01*
X339165000Y-261860000D02*
X339495000Y-261860000D01*
X336555000Y-256420000D02*
X336885000Y-256420000D01*
X336555000Y-261860000D02*
X336555000Y-256420000D01*
X339495000Y-260840000D02*
X336555000Y-260840000D01*
X339495000Y-256420000D02*
X339165000Y-256420000D01*
X339495000Y-260960000D02*
X336555000Y-260960000D01*
X336885000Y-261860000D02*
X336555000Y-261860000D01*
X234720000Y-280130000D02*
X231780000Y-280130000D01*
X231780000Y-280910000D02*
X231780000Y-275470000D01*
X234720000Y-279890000D02*
X231780000Y-279890000D01*
X234390000Y-280910000D02*
X234720000Y-280910000D01*
X234720000Y-280910000D02*
X234720000Y-275470000D01*
X232110000Y-280910000D02*
X231780000Y-280910000D01*
X234720000Y-280010000D02*
X231780000Y-280010000D01*
X231780000Y-275470000D02*
X232110000Y-275470000D01*
X234720000Y-275470000D02*
X234390000Y-275470000D01*
X134377500Y-223760000D02*
X134707500Y-223760000D01*
X134707500Y-218320000D02*
X134377500Y-218320000D01*
X134707500Y-222740000D02*
X131767500Y-222740000D01*
X134707500Y-222860000D02*
X131767500Y-222860000D01*
X131767500Y-218320000D02*
X132097500Y-218320000D01*
X134707500Y-222980000D02*
X131767500Y-222980000D01*
X134707500Y-223760000D02*
X134707500Y-218320000D01*
X132097500Y-223760000D02*
X131767500Y-223760000D01*
X131767500Y-223760000D02*
X131767500Y-218320000D01*
X284497500Y-223760000D02*
X284167500Y-223760000D01*
X287107500Y-222740000D02*
X284167500Y-222740000D01*
X284167500Y-223760000D02*
X284167500Y-218320000D01*
X287107500Y-222860000D02*
X284167500Y-222860000D01*
X284167500Y-218320000D02*
X284497500Y-218320000D01*
X287107500Y-218320000D02*
X286777500Y-218320000D01*
X286777500Y-223760000D02*
X287107500Y-223760000D01*
X287107500Y-222980000D02*
X284167500Y-222980000D01*
X287107500Y-223760000D02*
X287107500Y-218320000D01*
X163282500Y-241910000D02*
X160342500Y-241910000D01*
X160342500Y-242810000D02*
X160342500Y-237370000D01*
X162952500Y-242810000D02*
X163282500Y-242810000D01*
X163282500Y-242030000D02*
X160342500Y-242030000D01*
X163282500Y-241790000D02*
X160342500Y-241790000D01*
X160342500Y-237370000D02*
X160672500Y-237370000D01*
X163282500Y-242810000D02*
X163282500Y-237370000D01*
X160672500Y-242810000D02*
X160342500Y-242810000D01*
X163282500Y-237370000D02*
X162952500Y-237370000D01*
X312742500Y-242810000D02*
X312742500Y-237370000D01*
X313072500Y-242810000D02*
X312742500Y-242810000D01*
X315682500Y-242810000D02*
X315682500Y-237370000D01*
X315682500Y-242030000D02*
X312742500Y-242030000D01*
X312742500Y-237370000D02*
X313072500Y-237370000D01*
X315682500Y-241790000D02*
X312742500Y-241790000D01*
X315352500Y-242810000D02*
X315682500Y-242810000D01*
X315682500Y-237370000D02*
X315352500Y-237370000D01*
X315682500Y-241910000D02*
X312742500Y-241910000D01*
X206145000Y-256420000D02*
X205815000Y-256420000D01*
X206145000Y-260960000D02*
X203205000Y-260960000D01*
X205815000Y-261860000D02*
X206145000Y-261860000D01*
X206145000Y-260840000D02*
X203205000Y-260840000D01*
X203205000Y-261860000D02*
X203205000Y-256420000D01*
X206145000Y-261080000D02*
X203205000Y-261080000D01*
X203535000Y-261860000D02*
X203205000Y-261860000D01*
X203205000Y-256420000D02*
X203535000Y-256420000D01*
X206145000Y-261860000D02*
X206145000Y-256420000D01*
X363307500Y-261860000D02*
X363307500Y-256420000D01*
X363307500Y-260960000D02*
X360367500Y-260960000D01*
X360367500Y-256420000D02*
X360697500Y-256420000D01*
X362977500Y-261860000D02*
X363307500Y-261860000D01*
X360697500Y-261860000D02*
X360367500Y-261860000D01*
X363307500Y-256420000D02*
X362977500Y-256420000D01*
X363307500Y-260840000D02*
X360367500Y-260840000D01*
X363307500Y-261080000D02*
X360367500Y-261080000D01*
X360367500Y-261860000D02*
X360367500Y-256420000D01*
X253440000Y-280910000D02*
X253770000Y-280910000D01*
X251160000Y-280910000D02*
X250830000Y-280910000D01*
X253770000Y-280130000D02*
X250830000Y-280130000D01*
X253770000Y-275470000D02*
X253440000Y-275470000D01*
X250830000Y-280910000D02*
X250830000Y-275470000D01*
X253770000Y-279890000D02*
X250830000Y-279890000D01*
X253770000Y-280010000D02*
X250830000Y-280010000D01*
X250830000Y-275470000D02*
X251160000Y-275470000D01*
X253770000Y-280910000D02*
X253770000Y-275470000D01*
X150817500Y-223760000D02*
X150817500Y-218320000D01*
X153757500Y-222740000D02*
X150817500Y-222740000D01*
X153757500Y-222980000D02*
X150817500Y-222980000D01*
X153757500Y-222860000D02*
X150817500Y-222860000D01*
X150817500Y-218320000D02*
X151147500Y-218320000D01*
X153757500Y-223760000D02*
X153757500Y-218320000D01*
X153757500Y-218320000D02*
X153427500Y-218320000D01*
X153427500Y-223760000D02*
X153757500Y-223760000D01*
X151147500Y-223760000D02*
X150817500Y-223760000D01*
X306157500Y-223760000D02*
X306157500Y-218320000D01*
X306157500Y-218320000D02*
X305827500Y-218320000D01*
X306157500Y-222740000D02*
X303217500Y-222740000D01*
X306157500Y-222980000D02*
X303217500Y-222980000D01*
X303217500Y-223760000D02*
X303217500Y-218320000D01*
X306157500Y-222860000D02*
X303217500Y-222860000D01*
X305827500Y-223760000D02*
X306157500Y-223760000D01*
X303547500Y-223760000D02*
X303217500Y-223760000D01*
X303217500Y-218320000D02*
X303547500Y-218320000D01*
X179392500Y-242810000D02*
X179392500Y-237370000D01*
X179392500Y-237370000D02*
X179722500Y-237370000D01*
X179722500Y-242810000D02*
X179392500Y-242810000D01*
X182332500Y-237370000D02*
X182002500Y-237370000D01*
X182332500Y-242030000D02*
X179392500Y-242030000D01*
X182332500Y-241790000D02*
X179392500Y-241790000D01*
X182002500Y-242810000D02*
X182332500Y-242810000D01*
X182332500Y-241910000D02*
X179392500Y-241910000D01*
X182332500Y-242810000D02*
X182332500Y-237370000D01*
X334732500Y-241790000D02*
X331792500Y-241790000D01*
X334732500Y-242810000D02*
X334732500Y-237370000D01*
X334732500Y-237370000D02*
X334402500Y-237370000D01*
X332122500Y-242810000D02*
X331792500Y-242810000D01*
X331792500Y-242810000D02*
X331792500Y-237370000D01*
X331792500Y-237370000D02*
X332122500Y-237370000D01*
X334732500Y-241910000D02*
X331792500Y-241910000D01*
X334402500Y-242810000D02*
X334732500Y-242810000D01*
X334732500Y-242030000D02*
X331792500Y-242030000D01*
X222585000Y-261860000D02*
X222255000Y-261860000D01*
X224865000Y-261860000D02*
X225195000Y-261860000D01*
X225195000Y-260840000D02*
X222255000Y-260840000D01*
X225195000Y-256420000D02*
X224865000Y-256420000D01*
X222255000Y-256420000D02*
X222585000Y-256420000D01*
X225195000Y-261080000D02*
X222255000Y-261080000D01*
X225195000Y-260960000D02*
X222255000Y-260960000D01*
X225195000Y-261860000D02*
X225195000Y-256420000D01*
X222255000Y-261860000D02*
X222255000Y-256420000D01*
X269880000Y-275470000D02*
X270210000Y-275470000D01*
X272820000Y-280910000D02*
X272820000Y-275470000D01*
X272820000Y-279890000D02*
X269880000Y-279890000D01*
X272820000Y-280010000D02*
X269880000Y-280010000D01*
X272820000Y-275470000D02*
X272490000Y-275470000D01*
X272820000Y-280130000D02*
X269880000Y-280130000D01*
X272490000Y-280910000D02*
X272820000Y-280910000D01*
X269880000Y-280910000D02*
X269880000Y-275470000D01*
X270210000Y-280910000D02*
X269880000Y-280910000D01*
X170197500Y-223760000D02*
X169867500Y-223760000D01*
X169867500Y-223760000D02*
X169867500Y-218320000D01*
X172807500Y-222740000D02*
X169867500Y-222740000D01*
X169867500Y-218320000D02*
X170197500Y-218320000D01*
X172807500Y-218320000D02*
X172477500Y-218320000D01*
X172807500Y-222860000D02*
X169867500Y-222860000D01*
X172477500Y-223760000D02*
X172807500Y-223760000D01*
X172807500Y-222980000D02*
X169867500Y-222980000D01*
X172807500Y-223760000D02*
X172807500Y-218320000D01*
X325207500Y-222860000D02*
X322267500Y-222860000D01*
X325207500Y-223760000D02*
X325207500Y-218320000D01*
X325207500Y-222980000D02*
X322267500Y-222980000D01*
X325207500Y-218320000D02*
X324877500Y-218320000D01*
X322267500Y-223760000D02*
X322267500Y-218320000D01*
X324877500Y-223760000D02*
X325207500Y-223760000D01*
X322597500Y-223760000D02*
X322267500Y-223760000D01*
X325207500Y-222740000D02*
X322267500Y-222740000D01*
X322267500Y-218320000D02*
X322597500Y-218320000D01*
X198442500Y-237370000D02*
X198772500Y-237370000D01*
X201382500Y-241790000D02*
X198442500Y-241790000D01*
X201382500Y-242030000D02*
X198442500Y-242030000D01*
X201382500Y-237370000D02*
X201052500Y-237370000D01*
X198442500Y-242810000D02*
X198442500Y-237370000D01*
X198772500Y-242810000D02*
X198442500Y-242810000D01*
X201382500Y-242810000D02*
X201382500Y-237370000D01*
X201382500Y-241910000D02*
X198442500Y-241910000D01*
X201052500Y-242810000D02*
X201382500Y-242810000D01*
X360367500Y-237370000D02*
X360697500Y-237370000D01*
X363307500Y-237370000D02*
X362977500Y-237370000D01*
X363307500Y-241790000D02*
X360367500Y-241790000D01*
X363307500Y-241910000D02*
X360367500Y-241910000D01*
X360367500Y-242810000D02*
X360367500Y-237370000D01*
X362977500Y-242810000D02*
X363307500Y-242810000D01*
X363307500Y-242810000D02*
X363307500Y-237370000D01*
X363307500Y-242030000D02*
X360367500Y-242030000D01*
X360697500Y-242810000D02*
X360367500Y-242810000D01*
X243915000Y-261860000D02*
X244245000Y-261860000D01*
X241305000Y-256420000D02*
X241635000Y-256420000D01*
X241635000Y-261860000D02*
X241305000Y-261860000D01*
X244245000Y-256420000D02*
X243915000Y-256420000D01*
X244245000Y-260840000D02*
X241305000Y-260840000D01*
X244245000Y-260960000D02*
X241305000Y-260960000D01*
X244245000Y-261860000D02*
X244245000Y-256420000D01*
X241305000Y-261860000D02*
X241305000Y-256420000D01*
X244245000Y-261080000D02*
X241305000Y-261080000D01*
X136860000Y-280910000D02*
X136530000Y-280910000D01*
X139470000Y-280910000D02*
X139470000Y-275470000D01*
X139470000Y-279890000D02*
X136530000Y-279890000D01*
X139140000Y-280910000D02*
X139470000Y-280910000D01*
X136530000Y-275470000D02*
X136860000Y-275470000D01*
X139470000Y-280010000D02*
X136530000Y-280010000D01*
X139470000Y-280130000D02*
X136530000Y-280130000D01*
X136530000Y-280910000D02*
X136530000Y-275470000D01*
X139470000Y-275470000D02*
X139140000Y-275470000D01*
X291870000Y-280010000D02*
X288930000Y-280010000D01*
X291870000Y-280130000D02*
X288930000Y-280130000D01*
X291870000Y-280910000D02*
X291870000Y-275470000D01*
X291870000Y-275470000D02*
X291540000Y-275470000D01*
X289260000Y-280910000D02*
X288930000Y-280910000D01*
X291870000Y-279890000D02*
X288930000Y-279890000D01*
X288930000Y-280910000D02*
X288930000Y-275470000D01*
X291540000Y-280910000D02*
X291870000Y-280910000D01*
X288930000Y-275470000D02*
X289260000Y-275470000D01*
X191527500Y-223760000D02*
X191857500Y-223760000D01*
X191857500Y-223760000D02*
X191857500Y-218320000D01*
X191857500Y-222740000D02*
X188917500Y-222740000D01*
X188917500Y-218320000D02*
X189247500Y-218320000D01*
X191857500Y-218320000D02*
X191527500Y-218320000D01*
X191857500Y-222860000D02*
X188917500Y-222860000D01*
X188917500Y-223760000D02*
X188917500Y-218320000D01*
X191857500Y-222980000D02*
X188917500Y-222980000D01*
X189247500Y-223760000D02*
X188917500Y-223760000D01*
X363307500Y-222840000D02*
X360367500Y-222840000D01*
X362977500Y-223740000D02*
X363307500Y-223740000D01*
X363307500Y-222720000D02*
X360367500Y-222720000D01*
X363307500Y-223740000D02*
X363307500Y-218300000D01*
X363307500Y-222960000D02*
X360367500Y-222960000D01*
X360367500Y-223740000D02*
X360367500Y-218300000D01*
X360367500Y-218300000D02*
X360697500Y-218300000D01*
X363307500Y-218300000D02*
X362977500Y-218300000D01*
X360697500Y-223740000D02*
X360367500Y-223740000D01*
X220432500Y-241910000D02*
X217492500Y-241910000D01*
X217492500Y-242810000D02*
X217492500Y-237370000D01*
X220102500Y-242810000D02*
X220432500Y-242810000D01*
X220432500Y-241790000D02*
X217492500Y-241790000D01*
X220432500Y-242810000D02*
X220432500Y-237370000D01*
X217492500Y-237370000D02*
X217822500Y-237370000D01*
X220432500Y-242030000D02*
X217492500Y-242030000D01*
X217822500Y-242810000D02*
X217492500Y-242810000D01*
X220432500Y-237370000D02*
X220102500Y-237370000D01*
X262965000Y-261860000D02*
X263295000Y-261860000D01*
X263295000Y-260840000D02*
X260355000Y-260840000D01*
X260355000Y-261860000D02*
X260355000Y-256420000D01*
X263295000Y-256420000D02*
X262965000Y-256420000D01*
X260685000Y-261860000D02*
X260355000Y-261860000D01*
X263295000Y-260960000D02*
X260355000Y-260960000D01*
X263295000Y-261080000D02*
X260355000Y-261080000D01*
X260355000Y-256420000D02*
X260685000Y-256420000D01*
X263295000Y-261860000D02*
X263295000Y-256420000D01*
X155580000Y-275470000D02*
X155910000Y-275470000D01*
X155580000Y-280910000D02*
X155580000Y-275470000D01*
X158190000Y-280910000D02*
X158520000Y-280910000D01*
X158520000Y-280130000D02*
X155580000Y-280130000D01*
X158520000Y-275470000D02*
X158190000Y-275470000D01*
X158520000Y-279890000D02*
X155580000Y-279890000D01*
X158520000Y-280910000D02*
X158520000Y-275470000D01*
X158520000Y-280010000D02*
X155580000Y-280010000D01*
X155910000Y-280910000D02*
X155580000Y-280910000D01*
X310590000Y-280910000D02*
X310920000Y-280910000D01*
X310920000Y-280010000D02*
X307980000Y-280010000D01*
X308310000Y-280910000D02*
X307980000Y-280910000D01*
X307980000Y-275470000D02*
X308310000Y-275470000D01*
X310920000Y-279890000D02*
X307980000Y-279890000D01*
X310920000Y-280910000D02*
X310920000Y-275470000D01*
X307980000Y-280910000D02*
X307980000Y-275470000D01*
X310920000Y-275470000D02*
X310590000Y-275470000D01*
X310920000Y-280130000D02*
X307980000Y-280130000D01*
X208297500Y-223760000D02*
X207967500Y-223760000D01*
X210577500Y-223760000D02*
X210907500Y-223760000D01*
X210907500Y-222860000D02*
X207967500Y-222860000D01*
X207967500Y-218320000D02*
X208297500Y-218320000D01*
X210907500Y-223760000D02*
X210907500Y-218320000D01*
X207967500Y-223760000D02*
X207967500Y-218320000D01*
X210907500Y-222980000D02*
X207967500Y-222980000D01*
X210907500Y-218320000D02*
X210577500Y-218320000D01*
X210907500Y-222740000D02*
X207967500Y-222740000D01*
X239482500Y-241910000D02*
X236542500Y-241910000D01*
X236542500Y-237370000D02*
X236872500Y-237370000D01*
X239152500Y-242810000D02*
X239482500Y-242810000D01*
X239482500Y-242030000D02*
X236542500Y-242030000D01*
X239482500Y-242810000D02*
X239482500Y-237370000D01*
X239482500Y-237370000D02*
X239152500Y-237370000D01*
X236872500Y-242810000D02*
X236542500Y-242810000D01*
X236542500Y-242810000D02*
X236542500Y-237370000D01*
X239482500Y-241790000D02*
X236542500Y-241790000D01*
X129615000Y-261860000D02*
X129945000Y-261860000D01*
X127005000Y-261860000D02*
X127005000Y-256420000D01*
X129945000Y-261080000D02*
X127005000Y-261080000D01*
X127335000Y-261860000D02*
X127005000Y-261860000D01*
X127005000Y-256420000D02*
X127335000Y-256420000D01*
X129945000Y-260840000D02*
X127005000Y-260840000D01*
X129945000Y-256420000D02*
X129615000Y-256420000D01*
X129945000Y-261860000D02*
X129945000Y-256420000D01*
X129945000Y-260960000D02*
X127005000Y-260960000D01*
X279405000Y-261860000D02*
X279405000Y-256420000D01*
X282345000Y-260840000D02*
X279405000Y-260840000D01*
X282345000Y-256420000D02*
X282015000Y-256420000D01*
X282345000Y-261080000D02*
X279405000Y-261080000D01*
X282015000Y-261860000D02*
X282345000Y-261860000D01*
X282345000Y-260960000D02*
X279405000Y-260960000D01*
X282345000Y-261860000D02*
X282345000Y-256420000D01*
X279735000Y-261860000D02*
X279405000Y-261860000D01*
X279405000Y-256420000D02*
X279735000Y-256420000D01*
X177570000Y-275470000D02*
X177240000Y-275470000D01*
X177570000Y-280910000D02*
X177570000Y-275470000D01*
X174630000Y-275470000D02*
X174960000Y-275470000D01*
X174960000Y-280910000D02*
X174630000Y-280910000D01*
X177240000Y-280910000D02*
X177570000Y-280910000D01*
X174630000Y-280910000D02*
X174630000Y-275470000D01*
X177570000Y-279890000D02*
X174630000Y-279890000D01*
X177570000Y-280130000D02*
X174630000Y-280130000D01*
X177570000Y-280010000D02*
X174630000Y-280010000D01*
X137088800Y-298430700D02*
X134148800Y-298430700D01*
X137088800Y-298310700D02*
X134148800Y-298310700D01*
X134478800Y-299210700D02*
X134148800Y-299210700D01*
X137088800Y-299210700D02*
X137088800Y-293770700D01*
X137088800Y-298190700D02*
X134148800Y-298190700D01*
X137088800Y-293770700D02*
X136758800Y-293770700D01*
X134148800Y-299210700D02*
X134148800Y-293770700D01*
X136758800Y-299210700D02*
X137088800Y-299210700D01*
X134148800Y-293770700D02*
X134478800Y-293770700D01*
X229957500Y-223760000D02*
X229957500Y-218320000D01*
X229957500Y-218320000D02*
X229627500Y-218320000D01*
X229957500Y-222980000D02*
X227017500Y-222980000D01*
X229627500Y-223760000D02*
X229957500Y-223760000D01*
X229957500Y-222740000D02*
X227017500Y-222740000D01*
X227347500Y-223760000D02*
X227017500Y-223760000D01*
X227017500Y-223760000D02*
X227017500Y-218320000D01*
X227017500Y-218320000D02*
X227347500Y-218320000D01*
X229957500Y-222860000D02*
X227017500Y-222860000D01*
X106132500Y-237370000D02*
X105802500Y-237370000D01*
X105802500Y-242810000D02*
X106132500Y-242810000D01*
X103522500Y-242810000D02*
X103192500Y-242810000D01*
X106132500Y-241910000D02*
X103192500Y-241910000D01*
X103192500Y-242810000D02*
X103192500Y-237370000D01*
X103192500Y-237370000D02*
X103522500Y-237370000D01*
X106132500Y-242810000D02*
X106132500Y-237370000D01*
X106132500Y-241790000D02*
X103192500Y-241790000D01*
X106132500Y-242030000D02*
X103192500Y-242030000D01*
X258532500Y-242030000D02*
X255592500Y-242030000D01*
X258532500Y-237370000D02*
X258202500Y-237370000D01*
X258532500Y-241910000D02*
X255592500Y-241910000D01*
X258532500Y-242810000D02*
X258532500Y-237370000D01*
X255922500Y-242810000D02*
X255592500Y-242810000D01*
X255592500Y-237370000D02*
X255922500Y-237370000D01*
X258202500Y-242810000D02*
X258532500Y-242810000D01*
X258532500Y-241790000D02*
X255592500Y-241790000D01*
X255592500Y-242810000D02*
X255592500Y-237370000D01*
X148995000Y-260840000D02*
X146055000Y-260840000D01*
X148995000Y-261080000D02*
X146055000Y-261080000D01*
X146055000Y-256420000D02*
X146385000Y-256420000D01*
X146055000Y-261860000D02*
X146055000Y-256420000D01*
X148995000Y-261860000D02*
X148995000Y-256420000D01*
X148995000Y-260960000D02*
X146055000Y-260960000D01*
X146385000Y-261860000D02*
X146055000Y-261860000D01*
X148665000Y-261860000D02*
X148995000Y-261860000D01*
X148995000Y-256420000D02*
X148665000Y-256420000D01*
X301395000Y-256420000D02*
X301065000Y-256420000D01*
X301065000Y-261860000D02*
X301395000Y-261860000D01*
X301395000Y-260840000D02*
X298455000Y-260840000D01*
X298455000Y-256420000D02*
X298785000Y-256420000D01*
X298455000Y-261860000D02*
X298455000Y-256420000D01*
X301395000Y-261860000D02*
X301395000Y-256420000D01*
X301395000Y-260960000D02*
X298455000Y-260960000D01*
X301395000Y-261080000D02*
X298455000Y-261080000D01*
X298785000Y-261860000D02*
X298455000Y-261860000D01*
X196620000Y-275470000D02*
X196290000Y-275470000D01*
X194010000Y-280910000D02*
X193680000Y-280910000D01*
X196290000Y-280910000D02*
X196620000Y-280910000D01*
X196620000Y-280010000D02*
X193680000Y-280010000D01*
X193680000Y-280910000D02*
X193680000Y-275470000D01*
X196620000Y-280910000D02*
X196620000Y-275470000D01*
X193680000Y-275470000D02*
X194010000Y-275470000D01*
X196620000Y-280130000D02*
X193680000Y-280130000D01*
X196620000Y-279890000D02*
X193680000Y-279890000D01*
X249007500Y-223760000D02*
X249007500Y-218320000D01*
X248677500Y-223760000D02*
X249007500Y-223760000D01*
X249007500Y-222860000D02*
X246067500Y-222860000D01*
X246397500Y-223760000D02*
X246067500Y-223760000D01*
X246067500Y-218320000D02*
X246397500Y-218320000D01*
X249007500Y-218320000D02*
X248677500Y-218320000D01*
X249007500Y-222980000D02*
X246067500Y-222980000D01*
X246067500Y-223760000D02*
X246067500Y-218320000D01*
X249007500Y-222740000D02*
X246067500Y-222740000D01*
X125182500Y-237370000D02*
X124852500Y-237370000D01*
X125182500Y-242810000D02*
X125182500Y-237370000D01*
X122242500Y-242810000D02*
X122242500Y-237370000D01*
X125182500Y-242030000D02*
X122242500Y-242030000D01*
X122242500Y-237370000D02*
X122572500Y-237370000D01*
X125182500Y-241910000D02*
X122242500Y-241910000D01*
X124852500Y-242810000D02*
X125182500Y-242810000D01*
X125182500Y-241790000D02*
X122242500Y-241790000D01*
X122572500Y-242810000D02*
X122242500Y-242810000D01*
X274972500Y-242810000D02*
X274642500Y-242810000D01*
X277582500Y-242030000D02*
X274642500Y-242030000D01*
X277252500Y-242810000D02*
X277582500Y-242810000D01*
X277582500Y-241790000D02*
X274642500Y-241790000D01*
X274642500Y-237370000D02*
X274972500Y-237370000D01*
X277582500Y-237370000D02*
X277252500Y-237370000D01*
X274642500Y-242810000D02*
X274642500Y-237370000D01*
X277582500Y-241910000D02*
X274642500Y-241910000D01*
X277582500Y-242810000D02*
X277582500Y-237370000D01*
X168045000Y-261080000D02*
X165105000Y-261080000D01*
X168045000Y-260960000D02*
X165105000Y-260960000D01*
X165105000Y-261860000D02*
X165105000Y-256420000D01*
X165435000Y-261860000D02*
X165105000Y-261860000D01*
X165105000Y-256420000D02*
X165435000Y-256420000D01*
X168045000Y-260840000D02*
X165105000Y-260840000D01*
X168045000Y-256420000D02*
X167715000Y-256420000D01*
X167715000Y-261860000D02*
X168045000Y-261860000D01*
X168045000Y-261860000D02*
X168045000Y-256420000D01*
X320115000Y-261860000D02*
X320445000Y-261860000D01*
X317835000Y-261860000D02*
X317505000Y-261860000D01*
X320445000Y-260960000D02*
X317505000Y-260960000D01*
X320445000Y-260840000D02*
X317505000Y-260840000D01*
X320445000Y-261080000D02*
X317505000Y-261080000D01*
X320445000Y-261860000D02*
X320445000Y-256420000D01*
X317505000Y-261860000D02*
X317505000Y-256420000D01*
X317505000Y-256420000D02*
X317835000Y-256420000D01*
X320445000Y-256420000D02*
X320115000Y-256420000D01*
X215670000Y-279890000D02*
X212730000Y-279890000D01*
X215670000Y-275470000D02*
X215340000Y-275470000D01*
X212730000Y-280910000D02*
X212730000Y-275470000D01*
X215670000Y-280010000D02*
X212730000Y-280010000D01*
X215340000Y-280910000D02*
X215670000Y-280910000D01*
X215670000Y-280130000D02*
X212730000Y-280130000D01*
X213060000Y-280910000D02*
X212730000Y-280910000D01*
X212730000Y-275470000D02*
X213060000Y-275470000D01*
X215670000Y-280910000D02*
X215670000Y-275470000D01*
X195366300Y-299960000D02*
X195036300Y-299960000D01*
X197646300Y-299960000D02*
X197976300Y-299960000D01*
X195036300Y-294520000D02*
X195366300Y-294520000D01*
X197976300Y-299960000D02*
X197976300Y-294520000D01*
X197976300Y-294520000D02*
X197646300Y-294520000D01*
X197976300Y-299180000D02*
X195036300Y-299180000D01*
X197976300Y-299060000D02*
X195036300Y-299060000D01*
X195036300Y-299960000D02*
X195036300Y-294520000D01*
X197976300Y-298940000D02*
X195036300Y-298940000D01*
X296632500Y-241790000D02*
X293692500Y-241790000D01*
X296632500Y-242030000D02*
X293692500Y-242030000D01*
X296632500Y-241910000D02*
X293692500Y-241910000D01*
X293692500Y-242810000D02*
X293692500Y-237370000D01*
X296632500Y-242810000D02*
X296632500Y-237370000D01*
X296632500Y-237370000D02*
X296302500Y-237370000D01*
X293692500Y-237370000D02*
X294022500Y-237370000D01*
X294022500Y-242810000D02*
X293692500Y-242810000D01*
X296302500Y-242810000D02*
X296632500Y-242810000D01*
X110565000Y-261860000D02*
X110895000Y-261860000D01*
X110895000Y-261860000D02*
X110895000Y-256420000D01*
X107955000Y-261860000D02*
X107955000Y-256420000D01*
X107955000Y-256420000D02*
X108285000Y-256420000D01*
X110895000Y-260840000D02*
X107955000Y-260840000D01*
X108285000Y-261860000D02*
X107955000Y-261860000D01*
X110895000Y-260960000D02*
X107955000Y-260960000D01*
X110895000Y-256420000D02*
X110565000Y-256420000D01*
X110895000Y-261080000D02*
X107955000Y-261080000D01*
X120420000Y-280010000D02*
X117480000Y-280010000D01*
X117480000Y-275470000D02*
X117810000Y-275470000D01*
X117810000Y-280910000D02*
X117480000Y-280910000D01*
X120420000Y-280910000D02*
X120420000Y-275470000D01*
X120420000Y-280130000D02*
X117480000Y-280130000D01*
X117480000Y-280910000D02*
X117480000Y-275470000D01*
X120420000Y-275470000D02*
X120090000Y-275470000D01*
X120090000Y-280910000D02*
X120420000Y-280910000D01*
X120420000Y-279890000D02*
X117480000Y-279890000D01*
X96607500Y-218320000D02*
X96277500Y-218320000D01*
X93667500Y-223760000D02*
X93667500Y-218320000D01*
X96607500Y-222740000D02*
X93667500Y-222740000D01*
X93667500Y-218320000D02*
X93997500Y-218320000D01*
X96277500Y-223760000D02*
X96607500Y-223760000D01*
X96607500Y-223760000D02*
X96607500Y-218320000D01*
X96607500Y-222860000D02*
X93667500Y-222860000D01*
X96607500Y-222980000D02*
X93667500Y-222980000D01*
X93997500Y-223760000D02*
X93667500Y-223760000D01*
X343927500Y-280910000D02*
X344257500Y-280910000D01*
X344257500Y-275470000D02*
X343927500Y-275470000D01*
X344257500Y-279890000D02*
X341317500Y-279890000D01*
X341317500Y-275470000D02*
X341647500Y-275470000D01*
X341647500Y-280910000D02*
X341317500Y-280910000D01*
X344257500Y-280910000D02*
X344257500Y-275470000D01*
X344257500Y-280010000D02*
X341317500Y-280010000D01*
X341317500Y-280910000D02*
X341317500Y-275470000D01*
X344257500Y-280130000D02*
X341317500Y-280130000D01*
X365306000Y-191188000D02*
X365306000Y-185748000D01*
X368246000Y-191188000D02*
X368246000Y-185748000D01*
X365636000Y-191188000D02*
X365306000Y-191188000D01*
X368246000Y-190408000D02*
X365306000Y-190408000D01*
X368246000Y-190168000D02*
X365306000Y-190168000D01*
X365306000Y-185748000D02*
X365636000Y-185748000D01*
X367916000Y-191188000D02*
X368246000Y-191188000D01*
X368246000Y-185748000D02*
X367916000Y-185748000D01*
X368246000Y-190288000D02*
X365306000Y-190288000D01*
X371746000Y-190168000D02*
X368806000Y-190168000D01*
X371746000Y-190288000D02*
X368806000Y-190288000D01*
X368806000Y-185748000D02*
X369136000Y-185748000D01*
X371746000Y-191188000D02*
X371746000Y-185748000D01*
X369136000Y-191188000D02*
X368806000Y-191188000D01*
X371416000Y-191188000D02*
X371746000Y-191188000D01*
X368806000Y-191188000D02*
X368806000Y-185748000D01*
X371746000Y-185748000D02*
X371416000Y-185748000D01*
X371746000Y-190408000D02*
X368806000Y-190408000D01*
X378746000Y-190408000D02*
X375806000Y-190408000D01*
X378746000Y-190288000D02*
X375806000Y-190288000D01*
X378746000Y-191188000D02*
X378746000Y-185748000D01*
X378746000Y-185748000D02*
X378416000Y-185748000D01*
X375806000Y-185748000D02*
X376136000Y-185748000D01*
X378416000Y-191188000D02*
X378746000Y-191188000D01*
X376136000Y-191188000D02*
X375806000Y-191188000D01*
X375806000Y-191188000D02*
X375806000Y-185748000D01*
X378746000Y-190168000D02*
X375806000Y-190168000D01*
X361750000Y-200480000D02*
X362080000Y-200480000D01*
X364360000Y-205920000D02*
X364690000Y-205920000D01*
X361750000Y-205920000D02*
X361750000Y-200480000D01*
X364690000Y-200480000D02*
X364360000Y-200480000D01*
X364690000Y-205920000D02*
X364690000Y-200480000D01*
X364690000Y-205140000D02*
X361750000Y-205140000D01*
X364690000Y-205020000D02*
X361750000Y-205020000D01*
X362080000Y-205920000D02*
X361750000Y-205920000D01*
X364690000Y-204900000D02*
X361750000Y-204900000D01*
X341181300Y-294024700D02*
X341511300Y-294024700D01*
X344121300Y-298564700D02*
X341181300Y-298564700D01*
X344121300Y-299464700D02*
X344121300Y-294024700D01*
X344121300Y-298684700D02*
X341181300Y-298684700D01*
X341511300Y-299464700D02*
X341181300Y-299464700D01*
X344121300Y-294024700D02*
X343791300Y-294024700D01*
X344121300Y-298444700D02*
X341181300Y-298444700D01*
X341181300Y-299464700D02*
X341181300Y-294024700D01*
X343791300Y-299464700D02*
X344121300Y-299464700D01*
X379591300Y-299464700D02*
X379261300Y-299464700D01*
X379261300Y-294024700D02*
X379591300Y-294024700D01*
X382201300Y-298684700D02*
X379261300Y-298684700D01*
X382201300Y-298444700D02*
X379261300Y-298444700D01*
X382201300Y-294024700D02*
X381871300Y-294024700D01*
X381871300Y-299464700D02*
X382201300Y-299464700D01*
X382201300Y-298564700D02*
X379261300Y-298564700D01*
X379261300Y-299464700D02*
X379261300Y-294024700D01*
X382201300Y-299464700D02*
X382201300Y-294024700D01*
X364746000Y-190168000D02*
X361806000Y-190168000D01*
X361806000Y-185748000D02*
X362136000Y-185748000D01*
X361806000Y-191188000D02*
X361806000Y-185748000D01*
X364746000Y-185748000D02*
X364416000Y-185748000D01*
X362136000Y-191188000D02*
X361806000Y-191188000D01*
X364416000Y-191188000D02*
X364746000Y-191188000D01*
X364746000Y-190288000D02*
X361806000Y-190288000D01*
X364746000Y-191188000D02*
X364746000Y-185748000D01*
X364746000Y-190408000D02*
X361806000Y-190408000D01*
X368190000Y-205140000D02*
X365250000Y-205140000D01*
X365250000Y-205920000D02*
X365250000Y-200480000D01*
X368190000Y-200480000D02*
X367860000Y-200480000D01*
X367860000Y-205920000D02*
X368190000Y-205920000D01*
X365580000Y-205920000D02*
X365250000Y-205920000D01*
X368190000Y-205020000D02*
X365250000Y-205020000D01*
X368190000Y-204900000D02*
X365250000Y-204900000D01*
X368190000Y-205920000D02*
X368190000Y-200480000D01*
X365250000Y-200480000D02*
X365580000Y-200480000D01*
X371690000Y-205920000D02*
X371690000Y-200480000D01*
X371690000Y-205020000D02*
X368750000Y-205020000D01*
X371690000Y-200480000D02*
X371360000Y-200480000D01*
X371360000Y-205920000D02*
X371690000Y-205920000D01*
X371690000Y-205140000D02*
X368750000Y-205140000D01*
X371690000Y-204900000D02*
X368750000Y-204900000D01*
X368750000Y-205920000D02*
X368750000Y-200480000D01*
X368750000Y-200480000D02*
X369080000Y-200480000D01*
X369080000Y-205920000D02*
X368750000Y-205920000D01*
X378690000Y-200480000D02*
X378360000Y-200480000D01*
X378690000Y-204900000D02*
X375750000Y-204900000D01*
X375750000Y-205920000D02*
X375750000Y-200480000D01*
X376080000Y-205920000D02*
X375750000Y-205920000D01*
X378690000Y-205140000D02*
X375750000Y-205140000D01*
X375750000Y-200480000D02*
X376080000Y-200480000D01*
X378690000Y-205020000D02*
X375750000Y-205020000D01*
X378360000Y-205920000D02*
X378690000Y-205920000D01*
X378690000Y-205920000D02*
X378690000Y-200480000D01*
X190998700Y-195110000D02*
X190998700Y-189670000D01*
X188058700Y-195110000D02*
X188058700Y-189670000D01*
X188388700Y-195110000D02*
X188058700Y-195110000D01*
X190998700Y-194090000D02*
X188058700Y-194090000D01*
X190998700Y-194330000D02*
X188058700Y-194330000D01*
X190668700Y-195110000D02*
X190998700Y-195110000D01*
X188058700Y-189670000D02*
X188388700Y-189670000D01*
X190998700Y-189670000D02*
X190668700Y-189670000D01*
X190998700Y-194210000D02*
X188058700Y-194210000D01*
X164818700Y-194330000D02*
X161878700Y-194330000D01*
X164818700Y-195110000D02*
X164818700Y-189670000D01*
X164818700Y-189670000D02*
X164488700Y-189670000D01*
X161878700Y-195110000D02*
X161878700Y-189670000D01*
X161878700Y-189670000D02*
X162208700Y-189670000D01*
X164818700Y-194090000D02*
X161878700Y-194090000D01*
X162208700Y-195110000D02*
X161878700Y-195110000D01*
X164488700Y-195110000D02*
X164818700Y-195110000D01*
X164818700Y-194210000D02*
X161878700Y-194210000D01*
X287147500Y-194280000D02*
X284207500Y-194280000D01*
X287147500Y-194160000D02*
X284207500Y-194160000D01*
X284207500Y-189740000D02*
X284537500Y-189740000D01*
X286817500Y-195180000D02*
X287147500Y-195180000D01*
X287147500Y-194400000D02*
X284207500Y-194400000D01*
X284537500Y-195180000D02*
X284207500Y-195180000D01*
X284207500Y-195180000D02*
X284207500Y-189740000D01*
X287147500Y-189740000D02*
X286817500Y-189740000D01*
X287147500Y-195180000D02*
X287147500Y-189740000D01*
X358547500Y-194420000D02*
X355607500Y-194420000D01*
X355607500Y-195200000D02*
X355607500Y-189760000D01*
X355607500Y-189760000D02*
X355937500Y-189760000D01*
X358217500Y-195200000D02*
X358547500Y-195200000D01*
X358547500Y-195200000D02*
X358547500Y-189760000D01*
X358547500Y-194180000D02*
X355607500Y-194180000D01*
X358547500Y-189760000D02*
X358217500Y-189760000D01*
X355937500Y-195200000D02*
X355607500Y-195200000D01*
X358547500Y-194300000D02*
X355607500Y-194300000D01*
X334417500Y-195230000D02*
X334747500Y-195230000D01*
X332137500Y-195230000D02*
X331807500Y-195230000D01*
X334747500Y-194330000D02*
X331807500Y-194330000D01*
X331807500Y-189790000D02*
X332137500Y-189790000D01*
X334747500Y-194450000D02*
X331807500Y-194450000D01*
X334747500Y-194210000D02*
X331807500Y-194210000D01*
X331807500Y-195230000D02*
X331807500Y-189790000D01*
X334747500Y-195230000D02*
X334747500Y-189790000D01*
X334747500Y-189790000D02*
X334417500Y-189790000D01*
X310947500Y-194400000D02*
X308007500Y-194400000D01*
X310947500Y-195180000D02*
X310947500Y-189740000D01*
X310947500Y-194280000D02*
X308007500Y-194280000D01*
X310947500Y-189740000D02*
X310617500Y-189740000D01*
X310947500Y-194160000D02*
X308007500Y-194160000D01*
X308007500Y-189740000D02*
X308337500Y-189740000D01*
X308007500Y-195180000D02*
X308007500Y-189740000D01*
X310617500Y-195180000D02*
X310947500Y-195180000D01*
X308337500Y-195180000D02*
X308007500Y-195180000D01*
X263347500Y-195180000D02*
X263347500Y-189740000D01*
X260407500Y-189740000D02*
X260737500Y-189740000D01*
X263347500Y-194280000D02*
X260407500Y-194280000D01*
X263017500Y-195180000D02*
X263347500Y-195180000D01*
X263347500Y-189740000D02*
X263017500Y-189740000D01*
X263347500Y-194400000D02*
X260407500Y-194400000D01*
X263347500Y-194160000D02*
X260407500Y-194160000D01*
X260737500Y-195180000D02*
X260407500Y-195180000D01*
X260407500Y-195180000D02*
X260407500Y-189740000D01*
X236937500Y-195180000D02*
X236607500Y-195180000D01*
X236607500Y-195180000D02*
X236607500Y-189740000D01*
X239547500Y-195180000D02*
X239547500Y-189740000D01*
X239547500Y-189740000D02*
X239217500Y-189740000D01*
X236607500Y-189740000D02*
X236937500Y-189740000D01*
X239217500Y-195180000D02*
X239547500Y-195180000D01*
X239547500Y-194400000D02*
X236607500Y-194400000D01*
X239547500Y-194280000D02*
X236607500Y-194280000D01*
X239547500Y-194160000D02*
X236607500Y-194160000D01*
X212188700Y-195110000D02*
X211858700Y-195110000D01*
X211858700Y-195110000D02*
X211858700Y-189670000D01*
X214798700Y-194330000D02*
X211858700Y-194330000D01*
X211858700Y-189670000D02*
X212188700Y-189670000D01*
X214798700Y-194210000D02*
X211858700Y-194210000D01*
X214798700Y-189670000D02*
X214468700Y-189670000D01*
X214468700Y-195110000D02*
X214798700Y-195110000D01*
X214798700Y-195110000D02*
X214798700Y-189670000D01*
X214798700Y-194090000D02*
X211858700Y-194090000D01*
X375246000Y-190288000D02*
X372306000Y-190288000D01*
X375246000Y-191188000D02*
X375246000Y-185748000D01*
X375246000Y-185748000D02*
X374916000Y-185748000D01*
X375246000Y-190408000D02*
X372306000Y-190408000D01*
X374916000Y-191188000D02*
X375246000Y-191188000D01*
X372306000Y-185748000D02*
X372636000Y-185748000D01*
X372636000Y-191188000D02*
X372306000Y-191188000D01*
X372306000Y-191188000D02*
X372306000Y-185748000D01*
X375246000Y-190168000D02*
X372306000Y-190168000D01*
X375190000Y-205140000D02*
X372250000Y-205140000D01*
X372250000Y-205920000D02*
X372250000Y-200480000D01*
X375190000Y-200480000D02*
X374860000Y-200480000D01*
X374860000Y-205920000D02*
X375190000Y-205920000D01*
X372250000Y-200480000D02*
X372580000Y-200480000D01*
X375190000Y-205020000D02*
X372250000Y-205020000D01*
X372580000Y-205920000D02*
X372250000Y-205920000D01*
X375190000Y-205920000D02*
X375190000Y-200480000D01*
X375190000Y-204900000D02*
X372250000Y-204900000D01*
X360221300Y-299464700D02*
X360221300Y-294024700D01*
X363161300Y-298684700D02*
X360221300Y-298684700D01*
X363161300Y-294024700D02*
X362831300Y-294024700D01*
X360221300Y-294024700D02*
X360551300Y-294024700D01*
X363161300Y-299464700D02*
X363161300Y-294024700D01*
X360551300Y-299464700D02*
X360221300Y-299464700D01*
X362831300Y-299464700D02*
X363161300Y-299464700D01*
X363161300Y-298564700D02*
X360221300Y-298564700D01*
X363161300Y-298444700D02*
X360221300Y-298444700D01*
X363161300Y-275470000D02*
X362831300Y-275470000D01*
X363161300Y-280130000D02*
X360221300Y-280130000D01*
X363161300Y-280910000D02*
X363161300Y-275470000D01*
X360551300Y-280910000D02*
X360221300Y-280910000D01*
X363161300Y-280010000D02*
X360221300Y-280010000D01*
X363161300Y-279890000D02*
X360221300Y-279890000D01*
X360221300Y-280910000D02*
X360221300Y-275470000D01*
X360221300Y-275470000D02*
X360551300Y-275470000D01*
X362831300Y-280910000D02*
X363161300Y-280910000D01*
D13*
X66382000Y-204820000D03*
D14*
X68922000Y-204820000D03*
X71462000Y-204820000D03*
X74002000Y-204820000D03*
X76542000Y-204820000D03*
X79082000Y-204820000D03*
X81622000Y-204820000D03*
X84162000Y-204820000D03*
X86702000Y-204820000D03*
X89242000Y-204820000D03*
X91782000Y-204820000D03*
X94322000Y-204591400D03*
X94322000Y-189580000D03*
X91782000Y-189580000D03*
X89242000Y-189580000D03*
X86702000Y-189580000D03*
X84162000Y-189580000D03*
X81622000Y-189580000D03*
X79082000Y-189580000D03*
X76542000Y-189580000D03*
X74002000Y-189580000D03*
X71462000Y-189580000D03*
X68922000Y-189580000D03*
X66382000Y-189580000D03*
X94322000Y-202280000D03*
X94322000Y-199740000D03*
X94322000Y-197200000D03*
X94322000Y-194660000D03*
X94322000Y-192120000D03*
M02*
