%TF.GenerationSoftware,KiCad,Pcbnew,6.0.9-8da3e8f707~117~ubuntu22.04.1*%
%TF.CreationDate,2022-12-17T12:05:38-05:00*%
%TF.ProjectId,atari-keyboard,61746172-692d-46b6-9579-626f6172642e,rev?*%
%TF.SameCoordinates,Original*%
%TF.FileFunction,Drillmap*%
%TF.FilePolarity,Positive*%
%FSLAX45Y45*%
G04 Gerber Fmt 4.5, Leading zero omitted, Abs format (unit mm)*
G04 Created by KiCad (PCBNEW 6.0.9-8da3e8f707~117~ubuntu22.04.1) date 2022-12-17 12:05:38*
%MOMM*%
%LPD*%
G01*
G04 APERTURE LIST*
%ADD10C,0.300000*%
%ADD11C,0.200000*%
%ADD12C,0.170000*%
%ADD13C,0.220000*%
%ADD14C,0.305000*%
%ADD15C,0.320000*%
%ADD16C,0.400000*%
G04 APERTURE END LIST*
D10*
X3893500Y-16568625D02*
X39469125Y-16568625D01*
X39469125Y-16568625D02*
X39469125Y-30713000D01*
X39469125Y-30713000D02*
X3893500Y-30713000D01*
X3893500Y-30713000D02*
X3893500Y-16568625D01*
D11*
D12*
X5491130Y-21055500D02*
X5661130Y-21225500D01*
X5661130Y-21055500D02*
X5491130Y-21225500D01*
X5967380Y-22960500D02*
X6137380Y-23130500D01*
X6137380Y-22960500D02*
X5967380Y-23130500D01*
X6205500Y-24865500D02*
X6375500Y-25035500D01*
X6375500Y-24865500D02*
X6205500Y-25035500D01*
X6507130Y-21055500D02*
X6677130Y-21225500D01*
X6677130Y-21055500D02*
X6507130Y-21225500D01*
X6919880Y-26770500D02*
X7089880Y-26940500D01*
X7089880Y-26770500D02*
X6919880Y-26940500D01*
X6983380Y-22960500D02*
X7153380Y-23130500D01*
X7153380Y-22960500D02*
X6983380Y-23130500D01*
X7221500Y-24865500D02*
X7391500Y-25035500D01*
X7391500Y-24865500D02*
X7221500Y-25035500D01*
X7634250Y-21055500D02*
X7804250Y-21225500D01*
X7804250Y-21055500D02*
X7634250Y-21225500D01*
X7935880Y-26770500D02*
X8105880Y-26940500D01*
X8105880Y-26770500D02*
X7935880Y-26940500D01*
X8586750Y-22960500D02*
X8756750Y-23130500D01*
X8756750Y-22960500D02*
X8586750Y-23130500D01*
X8650250Y-21055500D02*
X8820250Y-21225500D01*
X8820250Y-21055500D02*
X8650250Y-21225500D01*
X9063000Y-24865500D02*
X9233000Y-25035500D01*
X9233000Y-24865500D02*
X9063000Y-25035500D01*
X9063000Y-28675500D02*
X9233000Y-28845500D01*
X9233000Y-28675500D02*
X9063000Y-28845500D01*
X9539250Y-21055500D02*
X9709250Y-21225500D01*
X9709250Y-21055500D02*
X9539250Y-21225500D01*
X9602750Y-22960500D02*
X9772750Y-23130500D01*
X9772750Y-22960500D02*
X9602750Y-23130500D01*
X10015500Y-26770500D02*
X10185500Y-26940500D01*
X10185500Y-26770500D02*
X10015500Y-26940500D01*
X10079000Y-24865500D02*
X10249000Y-25035500D01*
X10249000Y-24865500D02*
X10079000Y-25035500D01*
X10079000Y-28675500D02*
X10249000Y-28845500D01*
X10249000Y-28675500D02*
X10079000Y-28845500D01*
X10491750Y-22960500D02*
X10661750Y-23130500D01*
X10661750Y-22960500D02*
X10491750Y-23130500D01*
X10555250Y-21055500D02*
X10725250Y-21225500D01*
X10725250Y-21055500D02*
X10555250Y-21225500D01*
X10968000Y-24865500D02*
X11138000Y-25035500D01*
X11138000Y-24865500D02*
X10968000Y-25035500D01*
X11031500Y-26770500D02*
X11201500Y-26940500D01*
X11201500Y-26770500D02*
X11031500Y-26940500D01*
X11444250Y-21055500D02*
X11614250Y-21225500D01*
X11614250Y-21055500D02*
X11444250Y-21225500D01*
X11507750Y-22960500D02*
X11677750Y-23130500D01*
X11677750Y-22960500D02*
X11507750Y-23130500D01*
X11682380Y-18436120D02*
X11852380Y-18606120D01*
X11852380Y-18436120D02*
X11682380Y-18606120D01*
X11920500Y-26770500D02*
X12090500Y-26940500D01*
X12090500Y-26770500D02*
X11920500Y-26940500D01*
X11984000Y-24865500D02*
X12154000Y-25035500D01*
X12154000Y-24865500D02*
X11984000Y-25035500D01*
X12396750Y-22960500D02*
X12566750Y-23130500D01*
X12566750Y-22960500D02*
X12396750Y-23130500D01*
X12460250Y-21055500D02*
X12630250Y-21225500D01*
X12630250Y-21055500D02*
X12460250Y-21225500D01*
X12698380Y-18436120D02*
X12868380Y-18606120D01*
X12868380Y-18436120D02*
X12698380Y-18606120D01*
X12873000Y-24865500D02*
X13043000Y-25035500D01*
X13043000Y-24865500D02*
X12873000Y-25035500D01*
X12936500Y-26770500D02*
X13106500Y-26940500D01*
X13106500Y-26770500D02*
X12936500Y-26940500D01*
X13349250Y-21055500D02*
X13519250Y-21225500D01*
X13519250Y-21055500D02*
X13349250Y-21225500D01*
X13412750Y-22960500D02*
X13582750Y-23130500D01*
X13582750Y-22960500D02*
X13412750Y-23130500D01*
X13825500Y-26770500D02*
X13995500Y-26940500D01*
X13995500Y-26770500D02*
X13825500Y-26940500D01*
X13889000Y-24865500D02*
X14059000Y-25035500D01*
X14059000Y-24865500D02*
X13889000Y-25035500D01*
X14301750Y-22960500D02*
X14471750Y-23130500D01*
X14471750Y-22960500D02*
X14301750Y-23130500D01*
X14365250Y-21055500D02*
X14535250Y-21225500D01*
X14535250Y-21055500D02*
X14365250Y-21225500D01*
X14778000Y-24865500D02*
X14948000Y-25035500D01*
X14948000Y-24865500D02*
X14778000Y-25035500D01*
X14841500Y-26770500D02*
X15011500Y-26940500D01*
X15011500Y-26770500D02*
X14841500Y-26940500D01*
X15254250Y-21055500D02*
X15424250Y-21225500D01*
X15424250Y-21055500D02*
X15254250Y-21225500D01*
X15317750Y-22960500D02*
X15487750Y-23130500D01*
X15487750Y-22960500D02*
X15317750Y-23130500D01*
X15492380Y-18436120D02*
X15662380Y-18606120D01*
X15662380Y-18436120D02*
X15492380Y-18606120D01*
X15730500Y-26770500D02*
X15900500Y-26940500D01*
X15900500Y-26770500D02*
X15730500Y-26940500D01*
X15794000Y-24865500D02*
X15964000Y-25035500D01*
X15964000Y-24865500D02*
X15794000Y-25035500D01*
X16206750Y-22960500D02*
X16376750Y-23130500D01*
X16376750Y-22960500D02*
X16206750Y-23130500D01*
X16270250Y-21055500D02*
X16440250Y-21225500D01*
X16440250Y-21055500D02*
X16270250Y-21225500D01*
X16508380Y-18436120D02*
X16678380Y-18606120D01*
X16678380Y-18436120D02*
X16508380Y-18606120D01*
X16683000Y-24865500D02*
X16853000Y-25035500D01*
X16853000Y-24865500D02*
X16683000Y-25035500D01*
X16746500Y-26770500D02*
X16916500Y-26940500D01*
X16916500Y-26770500D02*
X16746500Y-26940500D01*
X17159250Y-21055500D02*
X17329250Y-21225500D01*
X17329250Y-21055500D02*
X17159250Y-21225500D01*
X17222750Y-22960500D02*
X17392750Y-23130500D01*
X17392750Y-22960500D02*
X17222750Y-23130500D01*
X17635500Y-26770500D02*
X17805500Y-26940500D01*
X17805500Y-26770500D02*
X17635500Y-26940500D01*
X17699000Y-24865500D02*
X17869000Y-25035500D01*
X17869000Y-24865500D02*
X17699000Y-25035500D01*
X17873630Y-18436120D02*
X18043630Y-18606120D01*
X18043630Y-18436120D02*
X17873630Y-18606120D01*
X18111750Y-22960500D02*
X18281750Y-23130500D01*
X18281750Y-22960500D02*
X18111750Y-23130500D01*
X18175250Y-21055500D02*
X18345250Y-21225500D01*
X18345250Y-21055500D02*
X18175250Y-21225500D01*
X18588000Y-24865500D02*
X18758000Y-25035500D01*
X18758000Y-24865500D02*
X18588000Y-25035500D01*
X18651500Y-26770500D02*
X18821500Y-26940500D01*
X18821500Y-26770500D02*
X18651500Y-26940500D01*
X18889630Y-18436120D02*
X19059630Y-18606120D01*
X19059630Y-18436120D02*
X18889630Y-18606120D01*
X19064250Y-21055500D02*
X19234250Y-21225500D01*
X19234250Y-21055500D02*
X19064250Y-21225500D01*
X19127750Y-22960500D02*
X19297750Y-23130500D01*
X19297750Y-22960500D02*
X19127750Y-23130500D01*
X19302380Y-28675500D02*
X19472380Y-28845500D01*
X19472380Y-28675500D02*
X19302380Y-28845500D01*
X19540500Y-26770500D02*
X19710500Y-26940500D01*
X19710500Y-26770500D02*
X19540500Y-26940500D01*
X19604000Y-24865500D02*
X19774000Y-25035500D01*
X19774000Y-24865500D02*
X19604000Y-25035500D01*
X20016750Y-22960500D02*
X20186750Y-23130500D01*
X20186750Y-22960500D02*
X20016750Y-23130500D01*
X20080250Y-21055500D02*
X20250250Y-21225500D01*
X20250250Y-21055500D02*
X20080250Y-21225500D01*
X20318380Y-28675500D02*
X20488380Y-28845500D01*
X20488380Y-28675500D02*
X20318380Y-28845500D01*
X20493000Y-24865500D02*
X20663000Y-25035500D01*
X20663000Y-24865500D02*
X20493000Y-25035500D01*
X20556500Y-26770500D02*
X20726500Y-26940500D01*
X20726500Y-26770500D02*
X20556500Y-26940500D01*
X20969250Y-21055500D02*
X21139250Y-21225500D01*
X21139250Y-21055500D02*
X20969250Y-21225500D01*
X21032750Y-22960500D02*
X21202750Y-23130500D01*
X21202750Y-22960500D02*
X21032750Y-23130500D01*
X21445500Y-26770500D02*
X21615500Y-26940500D01*
X21615500Y-26770500D02*
X21445500Y-26940500D01*
X21509000Y-24865500D02*
X21679000Y-25035500D01*
X21679000Y-24865500D02*
X21509000Y-25035500D01*
X21921750Y-22960500D02*
X22091750Y-23130500D01*
X22091750Y-22960500D02*
X21921750Y-23130500D01*
X21985250Y-21055500D02*
X22155250Y-21225500D01*
X22155250Y-21055500D02*
X21985250Y-21225500D01*
X22398000Y-24865500D02*
X22568000Y-25035500D01*
X22568000Y-24865500D02*
X22398000Y-25035500D01*
X22461500Y-26770500D02*
X22631500Y-26940500D01*
X22631500Y-26770500D02*
X22461500Y-26940500D01*
X22874250Y-21055500D02*
X23044250Y-21225500D01*
X23044250Y-21055500D02*
X22874250Y-21225500D01*
X22937750Y-22960500D02*
X23107750Y-23130500D01*
X23107750Y-22960500D02*
X22937750Y-23130500D01*
X23350500Y-26770500D02*
X23520500Y-26940500D01*
X23520500Y-26770500D02*
X23350500Y-26940500D01*
X23414000Y-24865500D02*
X23584000Y-25035500D01*
X23584000Y-24865500D02*
X23414000Y-25035500D01*
X23826750Y-22960500D02*
X23996750Y-23130500D01*
X23996750Y-22960500D02*
X23826750Y-23130500D01*
X23890250Y-21055500D02*
X24060250Y-21225500D01*
X24060250Y-21055500D02*
X23890250Y-21225500D01*
X24303000Y-24865500D02*
X24473000Y-25035500D01*
X24473000Y-24865500D02*
X24303000Y-25035500D01*
X24366500Y-26770500D02*
X24536500Y-26940500D01*
X24536500Y-26770500D02*
X24366500Y-26940500D01*
X24779250Y-21055500D02*
X24949250Y-21225500D01*
X24949250Y-21055500D02*
X24779250Y-21225500D01*
X24842750Y-22960500D02*
X25012750Y-23130500D01*
X25012750Y-22960500D02*
X24842750Y-23130500D01*
X25255500Y-26770500D02*
X25425500Y-26940500D01*
X25425500Y-26770500D02*
X25255500Y-26940500D01*
X25319000Y-24865500D02*
X25489000Y-25035500D01*
X25489000Y-24865500D02*
X25319000Y-25035500D01*
X25731750Y-22960500D02*
X25901750Y-23130500D01*
X25901750Y-22960500D02*
X25731750Y-23130500D01*
X25795250Y-21055500D02*
X25965250Y-21225500D01*
X25965250Y-21055500D02*
X25795250Y-21225500D01*
X26208000Y-24865500D02*
X26378000Y-25035500D01*
X26378000Y-24865500D02*
X26208000Y-25035500D01*
X26271500Y-26770500D02*
X26441500Y-26940500D01*
X26441500Y-26770500D02*
X26271500Y-26940500D01*
X26684250Y-21055500D02*
X26854250Y-21225500D01*
X26854250Y-21055500D02*
X26684250Y-21225500D01*
X26747750Y-22960500D02*
X26917750Y-23130500D01*
X26917750Y-22960500D02*
X26747750Y-23130500D01*
X27160500Y-26770500D02*
X27330500Y-26940500D01*
X27330500Y-26770500D02*
X27160500Y-26940500D01*
X27224000Y-24865500D02*
X27394000Y-25035500D01*
X27394000Y-24865500D02*
X27224000Y-25035500D01*
X27636750Y-22960500D02*
X27806750Y-23130500D01*
X27806750Y-22960500D02*
X27636750Y-23130500D01*
X27700250Y-21055500D02*
X27870250Y-21225500D01*
X27870250Y-21055500D02*
X27700250Y-21225500D01*
X28113000Y-24865500D02*
X28283000Y-25035500D01*
X28283000Y-24865500D02*
X28113000Y-25035500D01*
X28176500Y-26770500D02*
X28346500Y-26940500D01*
X28346500Y-26770500D02*
X28176500Y-26940500D01*
X28589250Y-21055500D02*
X28759250Y-21225500D01*
X28759250Y-21055500D02*
X28589250Y-21225500D01*
X28652750Y-22960500D02*
X28822750Y-23130500D01*
X28822750Y-22960500D02*
X28652750Y-23130500D01*
X29129000Y-24865500D02*
X29299000Y-25035500D01*
X29299000Y-24865500D02*
X29129000Y-25035500D01*
X29541750Y-22960500D02*
X29711750Y-23130500D01*
X29711750Y-22960500D02*
X29541750Y-23130500D01*
X29605250Y-21055500D02*
X29775250Y-21225500D01*
X29775250Y-21055500D02*
X29605250Y-21225500D01*
X29779880Y-18436120D02*
X29949880Y-18606120D01*
X29949880Y-18436120D02*
X29779880Y-18606120D01*
X29779880Y-26770500D02*
X29949880Y-26940500D01*
X29949880Y-26770500D02*
X29779880Y-26940500D01*
X30018000Y-24865500D02*
X30188000Y-25035500D01*
X30188000Y-24865500D02*
X30018000Y-25035500D01*
X30494250Y-28675500D02*
X30664250Y-28845500D01*
X30664250Y-28675500D02*
X30494250Y-28845500D01*
X30557750Y-22960500D02*
X30727750Y-23130500D01*
X30727750Y-22960500D02*
X30557750Y-23130500D01*
X30795880Y-18436120D02*
X30965880Y-18606120D01*
X30965880Y-18436120D02*
X30795880Y-18606120D01*
X30795880Y-26770500D02*
X30965880Y-26940500D01*
X30965880Y-26770500D02*
X30795880Y-26940500D01*
X31034000Y-24865500D02*
X31204000Y-25035500D01*
X31204000Y-24865500D02*
X31034000Y-25035500D01*
X31446750Y-21055500D02*
X31616750Y-21225500D01*
X31616750Y-21055500D02*
X31446750Y-21225500D01*
X31510250Y-28675500D02*
X31680250Y-28845500D01*
X31680250Y-28675500D02*
X31510250Y-28845500D01*
X31923000Y-22960500D02*
X32093000Y-23130500D01*
X32093000Y-22960500D02*
X31923000Y-23130500D01*
X32161130Y-18436120D02*
X32331130Y-18606120D01*
X32331130Y-18436120D02*
X32161130Y-18606120D01*
X32161130Y-24865500D02*
X32331130Y-25035500D01*
X32331130Y-24865500D02*
X32161130Y-25035500D01*
X32399250Y-26770500D02*
X32569250Y-26940500D01*
X32569250Y-26770500D02*
X32399250Y-26940500D01*
X32399250Y-28675500D02*
X32569250Y-28845500D01*
X32569250Y-28675500D02*
X32399250Y-28845500D01*
X32462750Y-21055500D02*
X32632750Y-21225500D01*
X32632750Y-21055500D02*
X32462750Y-21225500D01*
X32939000Y-22960500D02*
X33109000Y-23130500D01*
X33109000Y-22960500D02*
X32939000Y-23130500D01*
X33177130Y-18436120D02*
X33347130Y-18606120D01*
X33347130Y-18436120D02*
X33177130Y-18606120D01*
X33177130Y-24865500D02*
X33347130Y-25035500D01*
X33347130Y-24865500D02*
X33177130Y-25035500D01*
X33415250Y-26770500D02*
X33585250Y-26940500D01*
X33585250Y-26770500D02*
X33415250Y-26940500D01*
X33415250Y-28675500D02*
X33585250Y-28845500D01*
X33585250Y-28675500D02*
X33415250Y-28845500D01*
X34304250Y-28675500D02*
X34474250Y-28845500D01*
X34474250Y-28675500D02*
X34304250Y-28845500D01*
X35320250Y-28675500D02*
X35490250Y-28845500D01*
X35490250Y-28675500D02*
X35320250Y-28845500D01*
X36923630Y-18436120D02*
X37093630Y-18606120D01*
X37093630Y-18436120D02*
X36923630Y-18606120D01*
X36923630Y-21293620D02*
X37093630Y-21463620D01*
X37093630Y-21293620D02*
X36923630Y-21463620D01*
X36923630Y-23674870D02*
X37093630Y-23844870D01*
X37093630Y-23674870D02*
X36923630Y-23844870D01*
X36923630Y-26056120D02*
X37093630Y-26226120D01*
X37093630Y-26056120D02*
X36923630Y-26226120D01*
X36923630Y-28437370D02*
X37093630Y-28607370D01*
X37093630Y-28437370D02*
X36923630Y-28607370D01*
X37939630Y-18436120D02*
X38109630Y-18606120D01*
X38109630Y-18436120D02*
X37939630Y-18606120D01*
X37939630Y-21293620D02*
X38109630Y-21463620D01*
X38109630Y-21293620D02*
X37939630Y-21463620D01*
X37939630Y-23674870D02*
X38109630Y-23844870D01*
X38109630Y-23674870D02*
X37939630Y-23844870D01*
X37939630Y-26056120D02*
X38109630Y-26226120D01*
X38109630Y-26056120D02*
X37939630Y-26226120D01*
X37939630Y-28437370D02*
X38109630Y-28607370D01*
X38109630Y-28437370D02*
X37939630Y-28607370D01*
D13*
X5003500Y-20338000D02*
G75*
G03*
X5003500Y-20338000I-110000J0D01*
G01*
X5003500Y-22243000D02*
G75*
G03*
X5003500Y-22243000I-110000J0D01*
G01*
X5003500Y-24148000D02*
G75*
G03*
X5003500Y-24148000I-110000J0D01*
G01*
X5479750Y-26753000D02*
G75*
G03*
X5479750Y-26753000I-110000J0D01*
G01*
X7384750Y-20338000D02*
G75*
G03*
X7384750Y-20338000I-110000J0D01*
G01*
X8099130Y-27958000D02*
G75*
G03*
X8099130Y-27958000I-110000J0D01*
G01*
X8337250Y-22243000D02*
G75*
G03*
X8337250Y-22243000I-110000J0D01*
G01*
X8813500Y-24148000D02*
G75*
G03*
X8813500Y-24148000I-110000J0D01*
G01*
X9289750Y-20338000D02*
G75*
G03*
X9289750Y-20338000I-110000J0D01*
G01*
X9766000Y-26053000D02*
G75*
G03*
X9766000Y-26053000I-110000J0D01*
G01*
X10242250Y-22243000D02*
G75*
G03*
X10242250Y-22243000I-110000J0D01*
G01*
X10718500Y-24148000D02*
G75*
G03*
X10718500Y-24148000I-110000J0D01*
G01*
X11194750Y-20338000D02*
G75*
G03*
X11194750Y-20338000I-110000J0D01*
G01*
X11432880Y-17718620D02*
G75*
G03*
X11432880Y-17718620I-110000J0D01*
G01*
X11671000Y-26053000D02*
G75*
G03*
X11671000Y-26053000I-110000J0D01*
G01*
X12147250Y-22243000D02*
G75*
G03*
X12147250Y-22243000I-110000J0D01*
G01*
X12623500Y-24148000D02*
G75*
G03*
X12623500Y-24148000I-110000J0D01*
G01*
X13099750Y-20338000D02*
G75*
G03*
X13099750Y-20338000I-110000J0D01*
G01*
X13576000Y-26053000D02*
G75*
G03*
X13576000Y-26053000I-110000J0D01*
G01*
X14052250Y-22243000D02*
G75*
G03*
X14052250Y-22243000I-110000J0D01*
G01*
X14052250Y-27958000D02*
G75*
G03*
X14052250Y-27958000I-110000J0D01*
G01*
X14528500Y-24148000D02*
G75*
G03*
X14528500Y-24148000I-110000J0D01*
G01*
X15004750Y-20338000D02*
G75*
G03*
X15004750Y-20338000I-110000J0D01*
G01*
X15242880Y-17718620D02*
G75*
G03*
X15242880Y-17718620I-110000J0D01*
G01*
X15481000Y-26053000D02*
G75*
G03*
X15481000Y-26053000I-110000J0D01*
G01*
X15957250Y-22243000D02*
G75*
G03*
X15957250Y-22243000I-110000J0D01*
G01*
X16433500Y-24148000D02*
G75*
G03*
X16433500Y-24148000I-110000J0D01*
G01*
X16909750Y-20338000D02*
G75*
G03*
X16909750Y-20338000I-110000J0D01*
G01*
X17386000Y-26053000D02*
G75*
G03*
X17386000Y-26053000I-110000J0D01*
G01*
X17624130Y-17718620D02*
G75*
G03*
X17624130Y-17718620I-110000J0D01*
G01*
X17862250Y-22243000D02*
G75*
G03*
X17862250Y-22243000I-110000J0D01*
G01*
X18338500Y-24148000D02*
G75*
G03*
X18338500Y-24148000I-110000J0D01*
G01*
X18814750Y-20338000D02*
G75*
G03*
X18814750Y-20338000I-110000J0D01*
G01*
X19291000Y-26053000D02*
G75*
G03*
X19291000Y-26053000I-110000J0D01*
G01*
X19767250Y-22243000D02*
G75*
G03*
X19767250Y-22243000I-110000J0D01*
G01*
X20243500Y-24148000D02*
G75*
G03*
X20243500Y-24148000I-110000J0D01*
G01*
X20719750Y-20338000D02*
G75*
G03*
X20719750Y-20338000I-110000J0D01*
G01*
X21196000Y-26053000D02*
G75*
G03*
X21196000Y-26053000I-110000J0D01*
G01*
X21672250Y-22243000D02*
G75*
G03*
X21672250Y-22243000I-110000J0D01*
G01*
X22148500Y-24148000D02*
G75*
G03*
X22148500Y-24148000I-110000J0D01*
G01*
X22624750Y-20338000D02*
G75*
G03*
X22624750Y-20338000I-110000J0D01*
G01*
X23101000Y-26053000D02*
G75*
G03*
X23101000Y-26053000I-110000J0D01*
G01*
X23577250Y-22243000D02*
G75*
G03*
X23577250Y-22243000I-110000J0D01*
G01*
X24053500Y-24148000D02*
G75*
G03*
X24053500Y-24148000I-110000J0D01*
G01*
X24529750Y-20338000D02*
G75*
G03*
X24529750Y-20338000I-110000J0D01*
G01*
X25006000Y-26053000D02*
G75*
G03*
X25006000Y-26053000I-110000J0D01*
G01*
X25482250Y-22243000D02*
G75*
G03*
X25482250Y-22243000I-110000J0D01*
G01*
X25958500Y-24148000D02*
G75*
G03*
X25958500Y-24148000I-110000J0D01*
G01*
X26434750Y-20338000D02*
G75*
G03*
X26434750Y-20338000I-110000J0D01*
G01*
X26911000Y-26053000D02*
G75*
G03*
X26911000Y-26053000I-110000J0D01*
G01*
X27387250Y-22243000D02*
G75*
G03*
X27387250Y-22243000I-110000J0D01*
G01*
X27863500Y-24148000D02*
G75*
G03*
X27863500Y-24148000I-110000J0D01*
G01*
X28339750Y-20338000D02*
G75*
G03*
X28339750Y-20338000I-110000J0D01*
G01*
X28816000Y-26053000D02*
G75*
G03*
X28816000Y-26053000I-110000J0D01*
G01*
X29292250Y-22243000D02*
G75*
G03*
X29292250Y-22243000I-110000J0D01*
G01*
X29530380Y-17718620D02*
G75*
G03*
X29530380Y-17718620I-110000J0D01*
G01*
X29768500Y-24148000D02*
G75*
G03*
X29768500Y-24148000I-110000J0D01*
G01*
X30244750Y-20338000D02*
G75*
G03*
X30244750Y-20338000I-110000J0D01*
G01*
X30244750Y-27958000D02*
G75*
G03*
X30244750Y-27958000I-110000J0D01*
G01*
X31597250Y-22943000D02*
G75*
G03*
X31597250Y-22943000I-110000J0D01*
G01*
X31673500Y-24148000D02*
G75*
G03*
X31673500Y-24148000I-110000J0D01*
G01*
X31911630Y-17718620D02*
G75*
G03*
X31911630Y-17718620I-110000J0D01*
G01*
X32149750Y-26053000D02*
G75*
G03*
X32149750Y-26053000I-110000J0D01*
G01*
X32149750Y-27958000D02*
G75*
G03*
X32149750Y-27958000I-110000J0D01*
G01*
X34054750Y-27958000D02*
G75*
G03*
X34054750Y-27958000I-110000J0D01*
G01*
X36674130Y-17718620D02*
G75*
G03*
X36674130Y-17718620I-110000J0D01*
G01*
X36674130Y-20576120D02*
G75*
G03*
X36674130Y-20576120I-110000J0D01*
G01*
X36674130Y-22957370D02*
G75*
G03*
X36674130Y-22957370I-110000J0D01*
G01*
X36674130Y-25338620D02*
G75*
G03*
X36674130Y-25338620I-110000J0D01*
G01*
X36674130Y-27719870D02*
G75*
G03*
X36674130Y-27719870I-110000J0D01*
G01*
D14*
X5608500Y-24098000D02*
X5608500Y-24403000D01*
X5456000Y-24250500D02*
X5761000Y-24250500D01*
X6322880Y-26003000D02*
X6322880Y-26308000D01*
X6170380Y-26155500D02*
X6475380Y-26155500D01*
X7988500Y-24098000D02*
X7988500Y-24403000D01*
X7836000Y-24250500D02*
X8141000Y-24250500D01*
X8702880Y-26003000D02*
X8702880Y-26308000D01*
X8550380Y-26155500D02*
X8855380Y-26155500D01*
X14895380Y-27908000D02*
X14895380Y-28213000D01*
X14742880Y-28060500D02*
X15047880Y-28060500D01*
X24895380Y-27908000D02*
X24895380Y-28213000D01*
X24742880Y-28060500D02*
X25047880Y-28060500D01*
X30849750Y-20288000D02*
X30849750Y-20593000D01*
X30697250Y-20440500D02*
X31002250Y-20440500D01*
X33229750Y-20288000D02*
X33229750Y-20593000D01*
X33077250Y-20440500D02*
X33382250Y-20440500D01*
D15*
X4506638Y-17181758D02*
X4506638Y-16955482D01*
X4280362Y-16955482D01*
X4280362Y-17181758D01*
X4506638Y-17181758D01*
X4506638Y-30326138D02*
X4506638Y-30099862D01*
X4280362Y-30099862D01*
X4280362Y-30326138D01*
X4506638Y-30326138D01*
X39082268Y-17181758D02*
X39082268Y-16955482D01*
X38855992Y-16955482D01*
X38855992Y-17181758D01*
X39082268Y-17181758D01*
X39082268Y-30326138D02*
X39082268Y-30099862D01*
X38855992Y-30099862D01*
X38855992Y-30326138D01*
X39082268Y-30326138D01*
D16*
X5608500Y-25974500D02*
X5808500Y-25774500D01*
X5608500Y-25574500D01*
X5408500Y-25774500D01*
X5608500Y-25974500D01*
X6084130Y-21340500D02*
X6284130Y-21140500D01*
X6084130Y-20940500D01*
X5884130Y-21140500D01*
X6084130Y-21340500D01*
X6322880Y-27879500D02*
X6522880Y-27679500D01*
X6322880Y-27479500D01*
X6122880Y-27679500D01*
X6322880Y-27879500D01*
X6560380Y-23245500D02*
X6760380Y-23045500D01*
X6560380Y-22845500D01*
X6360380Y-23045500D01*
X6560380Y-23245500D01*
X6798500Y-25150500D02*
X6998500Y-24950500D01*
X6798500Y-24750500D01*
X6598500Y-24950500D01*
X6798500Y-25150500D01*
X7512880Y-27055500D02*
X7712880Y-26855500D01*
X7512880Y-26655500D01*
X7312880Y-26855500D01*
X7512880Y-27055500D01*
X7988500Y-25974500D02*
X8188500Y-25774500D01*
X7988500Y-25574500D01*
X7788500Y-25774500D01*
X7988500Y-25974500D01*
X8227250Y-21340500D02*
X8427250Y-21140500D01*
X8227250Y-20940500D01*
X8027250Y-21140500D01*
X8227250Y-21340500D01*
X8702880Y-27879500D02*
X8902880Y-27679500D01*
X8702880Y-27479500D01*
X8502880Y-27679500D01*
X8702880Y-27879500D01*
X9179750Y-23245500D02*
X9379750Y-23045500D01*
X9179750Y-22845500D01*
X8979750Y-23045500D01*
X9179750Y-23245500D01*
X9656000Y-25150500D02*
X9856000Y-24950500D01*
X9656000Y-24750500D01*
X9456000Y-24950500D01*
X9656000Y-25150500D01*
X9656000Y-28960500D02*
X9856000Y-28760500D01*
X9656000Y-28560500D01*
X9456000Y-28760500D01*
X9656000Y-28960500D01*
X10132250Y-21340500D02*
X10332250Y-21140500D01*
X10132250Y-20940500D01*
X9932250Y-21140500D01*
X10132250Y-21340500D01*
X10608500Y-27055500D02*
X10808500Y-26855500D01*
X10608500Y-26655500D01*
X10408500Y-26855500D01*
X10608500Y-27055500D01*
X11084750Y-23245500D02*
X11284750Y-23045500D01*
X11084750Y-22845500D01*
X10884750Y-23045500D01*
X11084750Y-23245500D01*
X11561000Y-25150500D02*
X11761000Y-24950500D01*
X11561000Y-24750500D01*
X11361000Y-24950500D01*
X11561000Y-25150500D01*
X12037250Y-21340500D02*
X12237250Y-21140500D01*
X12037250Y-20940500D01*
X11837250Y-21140500D01*
X12037250Y-21340500D01*
X12275380Y-18721120D02*
X12475380Y-18521120D01*
X12275380Y-18321120D01*
X12075380Y-18521120D01*
X12275380Y-18721120D01*
X12513500Y-27055500D02*
X12713500Y-26855500D01*
X12513500Y-26655500D01*
X12313500Y-26855500D01*
X12513500Y-27055500D01*
X12989750Y-23245500D02*
X13189750Y-23045500D01*
X12989750Y-22845500D01*
X12789750Y-23045500D01*
X12989750Y-23245500D01*
X13466000Y-25150500D02*
X13666000Y-24950500D01*
X13466000Y-24750500D01*
X13266000Y-24950500D01*
X13466000Y-25150500D01*
X13942250Y-21340500D02*
X14142250Y-21140500D01*
X13942250Y-20940500D01*
X13742250Y-21140500D01*
X13942250Y-21340500D01*
X14418500Y-27055500D02*
X14618500Y-26855500D01*
X14418500Y-26655500D01*
X14218500Y-26855500D01*
X14418500Y-27055500D01*
X14894750Y-23245500D02*
X15094750Y-23045500D01*
X14894750Y-22845500D01*
X14694750Y-23045500D01*
X14894750Y-23245500D01*
X14895380Y-29784500D02*
X15095380Y-29584500D01*
X14895380Y-29384500D01*
X14695380Y-29584500D01*
X14895380Y-29784500D01*
X15371000Y-25150500D02*
X15571000Y-24950500D01*
X15371000Y-24750500D01*
X15171000Y-24950500D01*
X15371000Y-25150500D01*
X15847250Y-21340500D02*
X16047250Y-21140500D01*
X15847250Y-20940500D01*
X15647250Y-21140500D01*
X15847250Y-21340500D01*
X16085380Y-18721120D02*
X16285380Y-18521120D01*
X16085380Y-18321120D01*
X15885380Y-18521120D01*
X16085380Y-18721120D01*
X16323500Y-27055500D02*
X16523500Y-26855500D01*
X16323500Y-26655500D01*
X16123500Y-26855500D01*
X16323500Y-27055500D01*
X16799750Y-23245500D02*
X16999750Y-23045500D01*
X16799750Y-22845500D01*
X16599750Y-23045500D01*
X16799750Y-23245500D01*
X17276000Y-25150500D02*
X17476000Y-24950500D01*
X17276000Y-24750500D01*
X17076000Y-24950500D01*
X17276000Y-25150500D01*
X17752250Y-21340500D02*
X17952250Y-21140500D01*
X17752250Y-20940500D01*
X17552250Y-21140500D01*
X17752250Y-21340500D01*
X18228500Y-27055500D02*
X18428500Y-26855500D01*
X18228500Y-26655500D01*
X18028500Y-26855500D01*
X18228500Y-27055500D01*
X18466630Y-18721120D02*
X18666630Y-18521120D01*
X18466630Y-18321120D01*
X18266630Y-18521120D01*
X18466630Y-18721120D01*
X18704750Y-23245500D02*
X18904750Y-23045500D01*
X18704750Y-22845500D01*
X18504750Y-23045500D01*
X18704750Y-23245500D01*
X19181000Y-25150500D02*
X19381000Y-24950500D01*
X19181000Y-24750500D01*
X18981000Y-24950500D01*
X19181000Y-25150500D01*
X19657250Y-21340500D02*
X19857250Y-21140500D01*
X19657250Y-20940500D01*
X19457250Y-21140500D01*
X19657250Y-21340500D01*
X19895380Y-28960500D02*
X20095380Y-28760500D01*
X19895380Y-28560500D01*
X19695380Y-28760500D01*
X19895380Y-28960500D01*
X20133500Y-27055500D02*
X20333500Y-26855500D01*
X20133500Y-26655500D01*
X19933500Y-26855500D01*
X20133500Y-27055500D01*
X20609750Y-23245500D02*
X20809750Y-23045500D01*
X20609750Y-22845500D01*
X20409750Y-23045500D01*
X20609750Y-23245500D01*
X21086000Y-25150500D02*
X21286000Y-24950500D01*
X21086000Y-24750500D01*
X20886000Y-24950500D01*
X21086000Y-25150500D01*
X21562250Y-21340500D02*
X21762250Y-21140500D01*
X21562250Y-20940500D01*
X21362250Y-21140500D01*
X21562250Y-21340500D01*
X22038500Y-27055500D02*
X22238500Y-26855500D01*
X22038500Y-26655500D01*
X21838500Y-26855500D01*
X22038500Y-27055500D01*
X22514750Y-23245500D02*
X22714750Y-23045500D01*
X22514750Y-22845500D01*
X22314750Y-23045500D01*
X22514750Y-23245500D01*
X22991000Y-25150500D02*
X23191000Y-24950500D01*
X22991000Y-24750500D01*
X22791000Y-24950500D01*
X22991000Y-25150500D01*
X23467250Y-21340500D02*
X23667250Y-21140500D01*
X23467250Y-20940500D01*
X23267250Y-21140500D01*
X23467250Y-21340500D01*
X23943500Y-27055500D02*
X24143500Y-26855500D01*
X23943500Y-26655500D01*
X23743500Y-26855500D01*
X23943500Y-27055500D01*
X24419750Y-23245500D02*
X24619750Y-23045500D01*
X24419750Y-22845500D01*
X24219750Y-23045500D01*
X24419750Y-23245500D01*
X24895380Y-29784500D02*
X25095380Y-29584500D01*
X24895380Y-29384500D01*
X24695380Y-29584500D01*
X24895380Y-29784500D01*
X24896000Y-25150500D02*
X25096000Y-24950500D01*
X24896000Y-24750500D01*
X24696000Y-24950500D01*
X24896000Y-25150500D01*
X25372250Y-21340500D02*
X25572250Y-21140500D01*
X25372250Y-20940500D01*
X25172250Y-21140500D01*
X25372250Y-21340500D01*
X25848500Y-27055500D02*
X26048500Y-26855500D01*
X25848500Y-26655500D01*
X25648500Y-26855500D01*
X25848500Y-27055500D01*
X26324750Y-23245500D02*
X26524750Y-23045500D01*
X26324750Y-22845500D01*
X26124750Y-23045500D01*
X26324750Y-23245500D01*
X26801000Y-25150500D02*
X27001000Y-24950500D01*
X26801000Y-24750500D01*
X26601000Y-24950500D01*
X26801000Y-25150500D01*
X27277250Y-21340500D02*
X27477250Y-21140500D01*
X27277250Y-20940500D01*
X27077250Y-21140500D01*
X27277250Y-21340500D01*
X27753500Y-27055500D02*
X27953500Y-26855500D01*
X27753500Y-26655500D01*
X27553500Y-26855500D01*
X27753500Y-27055500D01*
X28229750Y-23245500D02*
X28429750Y-23045500D01*
X28229750Y-22845500D01*
X28029750Y-23045500D01*
X28229750Y-23245500D01*
X28706000Y-25150500D02*
X28906000Y-24950500D01*
X28706000Y-24750500D01*
X28506000Y-24950500D01*
X28706000Y-25150500D01*
X29182250Y-21340500D02*
X29382250Y-21140500D01*
X29182250Y-20940500D01*
X28982250Y-21140500D01*
X29182250Y-21340500D01*
X30134750Y-23245500D02*
X30334750Y-23045500D01*
X30134750Y-22845500D01*
X29934750Y-23045500D01*
X30134750Y-23245500D01*
X30372880Y-18721120D02*
X30572880Y-18521120D01*
X30372880Y-18321120D01*
X30172880Y-18521120D01*
X30372880Y-18721120D01*
X30372880Y-27055500D02*
X30572880Y-26855500D01*
X30372880Y-26655500D01*
X30172880Y-26855500D01*
X30372880Y-27055500D01*
X30611000Y-25150500D02*
X30811000Y-24950500D01*
X30611000Y-24750500D01*
X30411000Y-24950500D01*
X30611000Y-25150500D01*
X30849750Y-22164500D02*
X31049750Y-21964500D01*
X30849750Y-21764500D01*
X30649750Y-21964500D01*
X30849750Y-22164500D01*
X31087250Y-28960500D02*
X31287250Y-28760500D01*
X31087250Y-28560500D01*
X30887250Y-28760500D01*
X31087250Y-28960500D01*
X32039750Y-21340500D02*
X32239750Y-21140500D01*
X32039750Y-20940500D01*
X31839750Y-21140500D01*
X32039750Y-21340500D01*
X32516000Y-23245500D02*
X32716000Y-23045500D01*
X32516000Y-22845500D01*
X32316000Y-23045500D01*
X32516000Y-23245500D01*
X32754130Y-18721120D02*
X32954130Y-18521120D01*
X32754130Y-18321120D01*
X32554130Y-18521120D01*
X32754130Y-18721120D01*
X32754130Y-25150500D02*
X32954130Y-24950500D01*
X32754130Y-24750500D01*
X32554130Y-24950500D01*
X32754130Y-25150500D01*
X32992250Y-27055500D02*
X33192250Y-26855500D01*
X32992250Y-26655500D01*
X32792250Y-26855500D01*
X32992250Y-27055500D01*
X32992250Y-28960500D02*
X33192250Y-28760500D01*
X32992250Y-28560500D01*
X32792250Y-28760500D01*
X32992250Y-28960500D01*
X33229750Y-22164500D02*
X33429750Y-21964500D01*
X33229750Y-21764500D01*
X33029750Y-21964500D01*
X33229750Y-22164500D01*
X34897250Y-28960500D02*
X35097250Y-28760500D01*
X34897250Y-28560500D01*
X34697250Y-28760500D01*
X34897250Y-28960500D01*
X37516630Y-18721120D02*
X37716630Y-18521120D01*
X37516630Y-18321120D01*
X37316630Y-18521120D01*
X37516630Y-18721120D01*
X37516630Y-21578620D02*
X37716630Y-21378620D01*
X37516630Y-21178620D01*
X37316630Y-21378620D01*
X37516630Y-21578620D01*
X37516630Y-23959870D02*
X37716630Y-23759870D01*
X37516630Y-23559870D01*
X37316630Y-23759870D01*
X37516630Y-23959870D01*
X37516630Y-26341120D02*
X37716630Y-26141120D01*
X37516630Y-25941120D01*
X37316630Y-26141120D01*
X37516630Y-26341120D01*
X37516630Y-28722370D02*
X37716630Y-28522370D01*
X37516630Y-28322370D01*
X37316630Y-28522370D01*
X37516630Y-28722370D01*
D11*
X4136119Y-31038476D02*
X4136119Y-30838476D01*
X4183738Y-30838476D01*
X4212310Y-30848000D01*
X4231357Y-30867048D01*
X4240881Y-30886095D01*
X4250405Y-30924190D01*
X4250405Y-30952762D01*
X4240881Y-30990857D01*
X4231357Y-31009905D01*
X4212310Y-31028952D01*
X4183738Y-31038476D01*
X4136119Y-31038476D01*
X4336119Y-31038476D02*
X4336119Y-30905143D01*
X4336119Y-30943238D02*
X4345643Y-30924190D01*
X4355167Y-30914667D01*
X4374214Y-30905143D01*
X4393262Y-30905143D01*
X4459929Y-31038476D02*
X4459929Y-30905143D01*
X4459929Y-30838476D02*
X4450405Y-30848000D01*
X4459929Y-30857524D01*
X4469452Y-30848000D01*
X4459929Y-30838476D01*
X4459929Y-30857524D01*
X4583738Y-31038476D02*
X4564690Y-31028952D01*
X4555167Y-31009905D01*
X4555167Y-30838476D01*
X4688500Y-31038476D02*
X4669452Y-31028952D01*
X4659929Y-31009905D01*
X4659929Y-30838476D01*
X4917071Y-31038476D02*
X4917071Y-30838476D01*
X4983738Y-30981333D01*
X5050405Y-30838476D01*
X5050405Y-31038476D01*
X5231357Y-31038476D02*
X5231357Y-30933714D01*
X5221833Y-30914667D01*
X5202786Y-30905143D01*
X5164690Y-30905143D01*
X5145643Y-30914667D01*
X5231357Y-31028952D02*
X5212310Y-31038476D01*
X5164690Y-31038476D01*
X5145643Y-31028952D01*
X5136119Y-31009905D01*
X5136119Y-30990857D01*
X5145643Y-30971809D01*
X5164690Y-30962286D01*
X5212310Y-30962286D01*
X5231357Y-30952762D01*
X5326595Y-30905143D02*
X5326595Y-31105143D01*
X5326595Y-30914667D02*
X5345643Y-30905143D01*
X5383738Y-30905143D01*
X5402786Y-30914667D01*
X5412310Y-30924190D01*
X5421833Y-30943238D01*
X5421833Y-31000381D01*
X5412310Y-31019428D01*
X5402786Y-31028952D01*
X5383738Y-31038476D01*
X5345643Y-31038476D01*
X5326595Y-31028952D01*
X5507548Y-31019428D02*
X5517071Y-31028952D01*
X5507548Y-31038476D01*
X5498024Y-31028952D01*
X5507548Y-31019428D01*
X5507548Y-31038476D01*
X5507548Y-30914667D02*
X5517071Y-30924190D01*
X5507548Y-30933714D01*
X5498024Y-30924190D01*
X5507548Y-30914667D01*
X5507548Y-30933714D01*
D12*
X3708500Y-31283000D02*
X3878500Y-31453000D01*
X3878500Y-31283000D02*
X3708500Y-31453000D01*
D11*
X4240881Y-31458476D02*
X4126595Y-31458476D01*
X4183738Y-31458476D02*
X4183738Y-31258476D01*
X4164690Y-31287048D01*
X4145643Y-31306095D01*
X4126595Y-31315619D01*
X4326595Y-31439428D02*
X4336119Y-31448952D01*
X4326595Y-31458476D01*
X4317071Y-31448952D01*
X4326595Y-31439428D01*
X4326595Y-31458476D01*
X4402786Y-31258476D02*
X4536119Y-31258476D01*
X4450405Y-31458476D01*
X4650405Y-31258476D02*
X4669452Y-31258476D01*
X4688500Y-31268000D01*
X4698024Y-31277524D01*
X4707548Y-31296571D01*
X4717071Y-31334667D01*
X4717071Y-31382286D01*
X4707548Y-31420381D01*
X4698024Y-31439428D01*
X4688500Y-31448952D01*
X4669452Y-31458476D01*
X4650405Y-31458476D01*
X4631357Y-31448952D01*
X4621833Y-31439428D01*
X4612310Y-31420381D01*
X4602786Y-31382286D01*
X4602786Y-31334667D01*
X4612310Y-31296571D01*
X4621833Y-31277524D01*
X4631357Y-31268000D01*
X4650405Y-31258476D01*
X4840881Y-31258476D02*
X4859929Y-31258476D01*
X4878976Y-31268000D01*
X4888500Y-31277524D01*
X4898024Y-31296571D01*
X4907548Y-31334667D01*
X4907548Y-31382286D01*
X4898024Y-31420381D01*
X4888500Y-31439428D01*
X4878976Y-31448952D01*
X4859929Y-31458476D01*
X4840881Y-31458476D01*
X4821833Y-31448952D01*
X4812310Y-31439428D01*
X4802786Y-31420381D01*
X4793262Y-31382286D01*
X4793262Y-31334667D01*
X4802786Y-31296571D01*
X4812310Y-31277524D01*
X4821833Y-31268000D01*
X4840881Y-31258476D01*
X4993262Y-31458476D02*
X4993262Y-31325143D01*
X4993262Y-31344190D02*
X5002786Y-31334667D01*
X5021833Y-31325143D01*
X5050405Y-31325143D01*
X5069452Y-31334667D01*
X5078976Y-31353714D01*
X5078976Y-31458476D01*
X5078976Y-31353714D02*
X5088500Y-31334667D01*
X5107548Y-31325143D01*
X5136119Y-31325143D01*
X5155167Y-31334667D01*
X5164690Y-31353714D01*
X5164690Y-31458476D01*
X5259929Y-31458476D02*
X5259929Y-31325143D01*
X5259929Y-31344190D02*
X5269452Y-31334667D01*
X5288500Y-31325143D01*
X5317071Y-31325143D01*
X5336119Y-31334667D01*
X5345643Y-31353714D01*
X5345643Y-31458476D01*
X5345643Y-31353714D02*
X5355167Y-31334667D01*
X5374214Y-31325143D01*
X5402786Y-31325143D01*
X5421833Y-31334667D01*
X5431357Y-31353714D01*
X5431357Y-31458476D01*
X5821833Y-31248952D02*
X5650405Y-31506095D01*
X6078976Y-31258476D02*
X6098024Y-31258476D01*
X6117071Y-31268000D01*
X6126595Y-31277524D01*
X6136119Y-31296571D01*
X6145643Y-31334667D01*
X6145643Y-31382286D01*
X6136119Y-31420381D01*
X6126595Y-31439428D01*
X6117071Y-31448952D01*
X6098024Y-31458476D01*
X6078976Y-31458476D01*
X6059928Y-31448952D01*
X6050405Y-31439428D01*
X6040881Y-31420381D01*
X6031357Y-31382286D01*
X6031357Y-31334667D01*
X6040881Y-31296571D01*
X6050405Y-31277524D01*
X6059928Y-31268000D01*
X6078976Y-31258476D01*
X6231357Y-31439428D02*
X6240881Y-31448952D01*
X6231357Y-31458476D01*
X6221833Y-31448952D01*
X6231357Y-31439428D01*
X6231357Y-31458476D01*
X6364690Y-31258476D02*
X6383738Y-31258476D01*
X6402786Y-31268000D01*
X6412309Y-31277524D01*
X6421833Y-31296571D01*
X6431357Y-31334667D01*
X6431357Y-31382286D01*
X6421833Y-31420381D01*
X6412309Y-31439428D01*
X6402786Y-31448952D01*
X6383738Y-31458476D01*
X6364690Y-31458476D01*
X6345643Y-31448952D01*
X6336119Y-31439428D01*
X6326595Y-31420381D01*
X6317071Y-31382286D01*
X6317071Y-31334667D01*
X6326595Y-31296571D01*
X6336119Y-31277524D01*
X6345643Y-31268000D01*
X6364690Y-31258476D01*
X6602786Y-31258476D02*
X6564690Y-31258476D01*
X6545643Y-31268000D01*
X6536119Y-31277524D01*
X6517071Y-31306095D01*
X6507548Y-31344190D01*
X6507548Y-31420381D01*
X6517071Y-31439428D01*
X6526595Y-31448952D01*
X6545643Y-31458476D01*
X6583738Y-31458476D01*
X6602786Y-31448952D01*
X6612309Y-31439428D01*
X6621833Y-31420381D01*
X6621833Y-31372762D01*
X6612309Y-31353714D01*
X6602786Y-31344190D01*
X6583738Y-31334667D01*
X6545643Y-31334667D01*
X6526595Y-31344190D01*
X6517071Y-31353714D01*
X6507548Y-31372762D01*
X6793262Y-31258476D02*
X6755167Y-31258476D01*
X6736119Y-31268000D01*
X6726595Y-31277524D01*
X6707548Y-31306095D01*
X6698024Y-31344190D01*
X6698024Y-31420381D01*
X6707548Y-31439428D01*
X6717071Y-31448952D01*
X6736119Y-31458476D01*
X6774214Y-31458476D01*
X6793262Y-31448952D01*
X6802786Y-31439428D01*
X6812309Y-31420381D01*
X6812309Y-31372762D01*
X6802786Y-31353714D01*
X6793262Y-31344190D01*
X6774214Y-31334667D01*
X6736119Y-31334667D01*
X6717071Y-31344190D01*
X6707548Y-31353714D01*
X6698024Y-31372762D01*
X6907548Y-31458476D02*
X6945643Y-31458476D01*
X6964690Y-31448952D01*
X6974214Y-31439428D01*
X6993262Y-31410857D01*
X7002786Y-31372762D01*
X7002786Y-31296571D01*
X6993262Y-31277524D01*
X6983738Y-31268000D01*
X6964690Y-31258476D01*
X6926595Y-31258476D01*
X6907548Y-31268000D01*
X6898024Y-31277524D01*
X6888500Y-31296571D01*
X6888500Y-31344190D01*
X6898024Y-31363238D01*
X6907548Y-31372762D01*
X6926595Y-31382286D01*
X6964690Y-31382286D01*
X6983738Y-31372762D01*
X6993262Y-31363238D01*
X7002786Y-31344190D01*
X7078976Y-31258476D02*
X7078976Y-31296571D01*
X7155167Y-31258476D02*
X7155167Y-31296571D01*
X7450405Y-31534667D02*
X7440881Y-31525143D01*
X7421833Y-31496571D01*
X7412309Y-31477524D01*
X7402786Y-31448952D01*
X7393262Y-31401333D01*
X7393262Y-31363238D01*
X7402786Y-31315619D01*
X7412309Y-31287048D01*
X7421833Y-31268000D01*
X7440881Y-31239428D01*
X7450405Y-31229905D01*
X7631357Y-31458476D02*
X7517071Y-31458476D01*
X7574214Y-31458476D02*
X7574214Y-31258476D01*
X7555167Y-31287048D01*
X7536119Y-31306095D01*
X7517071Y-31315619D01*
X7802786Y-31325143D02*
X7802786Y-31458476D01*
X7755167Y-31248952D02*
X7707548Y-31391809D01*
X7831357Y-31391809D01*
X7945643Y-31258476D02*
X7964690Y-31258476D01*
X7983738Y-31268000D01*
X7993262Y-31277524D01*
X8002786Y-31296571D01*
X8012309Y-31334667D01*
X8012309Y-31382286D01*
X8002786Y-31420381D01*
X7993262Y-31439428D01*
X7983738Y-31448952D01*
X7964690Y-31458476D01*
X7945643Y-31458476D01*
X7926595Y-31448952D01*
X7917071Y-31439428D01*
X7907548Y-31420381D01*
X7898024Y-31382286D01*
X7898024Y-31334667D01*
X7907548Y-31296571D01*
X7917071Y-31277524D01*
X7926595Y-31268000D01*
X7945643Y-31258476D01*
X8250405Y-31458476D02*
X8250405Y-31258476D01*
X8336119Y-31458476D02*
X8336119Y-31353714D01*
X8326595Y-31334667D01*
X8307548Y-31325143D01*
X8278976Y-31325143D01*
X8259928Y-31334667D01*
X8250405Y-31344190D01*
X8459929Y-31458476D02*
X8440881Y-31448952D01*
X8431357Y-31439428D01*
X8421833Y-31420381D01*
X8421833Y-31363238D01*
X8431357Y-31344190D01*
X8440881Y-31334667D01*
X8459929Y-31325143D01*
X8488500Y-31325143D01*
X8507548Y-31334667D01*
X8517071Y-31344190D01*
X8526595Y-31363238D01*
X8526595Y-31420381D01*
X8517071Y-31439428D01*
X8507548Y-31448952D01*
X8488500Y-31458476D01*
X8459929Y-31458476D01*
X8640881Y-31458476D02*
X8621833Y-31448952D01*
X8612310Y-31429905D01*
X8612310Y-31258476D01*
X8793262Y-31448952D02*
X8774214Y-31458476D01*
X8736119Y-31458476D01*
X8717071Y-31448952D01*
X8707548Y-31429905D01*
X8707548Y-31353714D01*
X8717071Y-31334667D01*
X8736119Y-31325143D01*
X8774214Y-31325143D01*
X8793262Y-31334667D01*
X8802786Y-31353714D01*
X8802786Y-31372762D01*
X8707548Y-31391809D01*
X8878976Y-31448952D02*
X8898024Y-31458476D01*
X8936119Y-31458476D01*
X8955167Y-31448952D01*
X8964690Y-31429905D01*
X8964690Y-31420381D01*
X8955167Y-31401333D01*
X8936119Y-31391809D01*
X8907548Y-31391809D01*
X8888500Y-31382286D01*
X8878976Y-31363238D01*
X8878976Y-31353714D01*
X8888500Y-31334667D01*
X8907548Y-31325143D01*
X8936119Y-31325143D01*
X8955167Y-31334667D01*
X9031357Y-31534667D02*
X9040881Y-31525143D01*
X9059929Y-31496571D01*
X9069452Y-31477524D01*
X9078976Y-31448952D01*
X9088500Y-31401333D01*
X9088500Y-31363238D01*
X9078976Y-31315619D01*
X9069452Y-31287048D01*
X9059929Y-31268000D01*
X9040881Y-31239428D01*
X9031357Y-31229905D01*
X9393262Y-31534667D02*
X9383738Y-31525143D01*
X9364690Y-31496571D01*
X9355167Y-31477524D01*
X9345643Y-31448952D01*
X9336119Y-31401333D01*
X9336119Y-31363238D01*
X9345643Y-31315619D01*
X9355167Y-31287048D01*
X9364690Y-31268000D01*
X9383738Y-31239428D01*
X9393262Y-31229905D01*
X9469452Y-31325143D02*
X9469452Y-31458476D01*
X9469452Y-31344190D02*
X9478976Y-31334667D01*
X9498024Y-31325143D01*
X9526595Y-31325143D01*
X9545643Y-31334667D01*
X9555167Y-31353714D01*
X9555167Y-31458476D01*
X9678976Y-31458476D02*
X9659929Y-31448952D01*
X9650405Y-31439428D01*
X9640881Y-31420381D01*
X9640881Y-31363238D01*
X9650405Y-31344190D01*
X9659929Y-31334667D01*
X9678976Y-31325143D01*
X9707548Y-31325143D01*
X9726595Y-31334667D01*
X9736119Y-31344190D01*
X9745643Y-31363238D01*
X9745643Y-31420381D01*
X9736119Y-31439428D01*
X9726595Y-31448952D01*
X9707548Y-31458476D01*
X9678976Y-31458476D01*
X9802786Y-31325143D02*
X9878976Y-31325143D01*
X9831357Y-31258476D02*
X9831357Y-31429905D01*
X9840881Y-31448952D01*
X9859929Y-31458476D01*
X9878976Y-31458476D01*
X10098024Y-31325143D02*
X10098024Y-31525143D01*
X10098024Y-31334667D02*
X10117071Y-31325143D01*
X10155167Y-31325143D01*
X10174214Y-31334667D01*
X10183738Y-31344190D01*
X10193262Y-31363238D01*
X10193262Y-31420381D01*
X10183738Y-31439428D01*
X10174214Y-31448952D01*
X10155167Y-31458476D01*
X10117071Y-31458476D01*
X10098024Y-31448952D01*
X10307548Y-31458476D02*
X10288500Y-31448952D01*
X10278976Y-31429905D01*
X10278976Y-31258476D01*
X10469452Y-31458476D02*
X10469452Y-31353714D01*
X10459929Y-31334667D01*
X10440881Y-31325143D01*
X10402786Y-31325143D01*
X10383738Y-31334667D01*
X10469452Y-31448952D02*
X10450405Y-31458476D01*
X10402786Y-31458476D01*
X10383738Y-31448952D01*
X10374214Y-31429905D01*
X10374214Y-31410857D01*
X10383738Y-31391809D01*
X10402786Y-31382286D01*
X10450405Y-31382286D01*
X10469452Y-31372762D01*
X10536119Y-31325143D02*
X10612310Y-31325143D01*
X10564690Y-31258476D02*
X10564690Y-31429905D01*
X10574214Y-31448952D01*
X10593262Y-31458476D01*
X10612310Y-31458476D01*
X10755167Y-31448952D02*
X10736119Y-31458476D01*
X10698024Y-31458476D01*
X10678976Y-31448952D01*
X10669452Y-31429905D01*
X10669452Y-31353714D01*
X10678976Y-31334667D01*
X10698024Y-31325143D01*
X10736119Y-31325143D01*
X10755167Y-31334667D01*
X10764690Y-31353714D01*
X10764690Y-31372762D01*
X10669452Y-31391809D01*
X10936119Y-31458476D02*
X10936119Y-31258476D01*
X10936119Y-31448952D02*
X10917071Y-31458476D01*
X10878976Y-31458476D01*
X10859929Y-31448952D01*
X10850405Y-31439428D01*
X10840881Y-31420381D01*
X10840881Y-31363238D01*
X10850405Y-31344190D01*
X10859929Y-31334667D01*
X10878976Y-31325143D01*
X10917071Y-31325143D01*
X10936119Y-31334667D01*
X11012310Y-31534667D02*
X11021833Y-31525143D01*
X11040881Y-31496571D01*
X11050405Y-31477524D01*
X11059929Y-31448952D01*
X11069452Y-31401333D01*
X11069452Y-31363238D01*
X11059929Y-31315619D01*
X11050405Y-31287048D01*
X11040881Y-31268000D01*
X11021833Y-31239428D01*
X11012310Y-31229905D01*
X3878500Y-31658000D02*
G75*
G03*
X3878500Y-31658000I-100000J0D01*
G01*
X4126595Y-31567524D02*
X4136119Y-31558000D01*
X4155167Y-31548476D01*
X4202786Y-31548476D01*
X4221833Y-31558000D01*
X4231357Y-31567524D01*
X4240881Y-31586571D01*
X4240881Y-31605619D01*
X4231357Y-31634190D01*
X4117071Y-31748476D01*
X4240881Y-31748476D01*
X4326595Y-31729428D02*
X4336119Y-31738952D01*
X4326595Y-31748476D01*
X4317071Y-31738952D01*
X4326595Y-31729428D01*
X4326595Y-31748476D01*
X4412310Y-31567524D02*
X4421833Y-31558000D01*
X4440881Y-31548476D01*
X4488500Y-31548476D01*
X4507548Y-31558000D01*
X4517071Y-31567524D01*
X4526595Y-31586571D01*
X4526595Y-31605619D01*
X4517071Y-31634190D01*
X4402786Y-31748476D01*
X4526595Y-31748476D01*
X4650405Y-31548476D02*
X4669452Y-31548476D01*
X4688500Y-31558000D01*
X4698024Y-31567524D01*
X4707548Y-31586571D01*
X4717071Y-31624667D01*
X4717071Y-31672286D01*
X4707548Y-31710381D01*
X4698024Y-31729428D01*
X4688500Y-31738952D01*
X4669452Y-31748476D01*
X4650405Y-31748476D01*
X4631357Y-31738952D01*
X4621833Y-31729428D01*
X4612310Y-31710381D01*
X4602786Y-31672286D01*
X4602786Y-31624667D01*
X4612310Y-31586571D01*
X4621833Y-31567524D01*
X4631357Y-31558000D01*
X4650405Y-31548476D01*
X4840881Y-31548476D02*
X4859929Y-31548476D01*
X4878976Y-31558000D01*
X4888500Y-31567524D01*
X4898024Y-31586571D01*
X4907548Y-31624667D01*
X4907548Y-31672286D01*
X4898024Y-31710381D01*
X4888500Y-31729428D01*
X4878976Y-31738952D01*
X4859929Y-31748476D01*
X4840881Y-31748476D01*
X4821833Y-31738952D01*
X4812310Y-31729428D01*
X4802786Y-31710381D01*
X4793262Y-31672286D01*
X4793262Y-31624667D01*
X4802786Y-31586571D01*
X4812310Y-31567524D01*
X4821833Y-31558000D01*
X4840881Y-31548476D01*
X4993262Y-31748476D02*
X4993262Y-31615143D01*
X4993262Y-31634190D02*
X5002786Y-31624667D01*
X5021833Y-31615143D01*
X5050405Y-31615143D01*
X5069452Y-31624667D01*
X5078976Y-31643714D01*
X5078976Y-31748476D01*
X5078976Y-31643714D02*
X5088500Y-31624667D01*
X5107548Y-31615143D01*
X5136119Y-31615143D01*
X5155167Y-31624667D01*
X5164690Y-31643714D01*
X5164690Y-31748476D01*
X5259929Y-31748476D02*
X5259929Y-31615143D01*
X5259929Y-31634190D02*
X5269452Y-31624667D01*
X5288500Y-31615143D01*
X5317071Y-31615143D01*
X5336119Y-31624667D01*
X5345643Y-31643714D01*
X5345643Y-31748476D01*
X5345643Y-31643714D02*
X5355167Y-31624667D01*
X5374214Y-31615143D01*
X5402786Y-31615143D01*
X5421833Y-31624667D01*
X5431357Y-31643714D01*
X5431357Y-31748476D01*
X5821833Y-31538952D02*
X5650405Y-31796095D01*
X6078976Y-31548476D02*
X6098024Y-31548476D01*
X6117071Y-31558000D01*
X6126595Y-31567524D01*
X6136119Y-31586571D01*
X6145643Y-31624667D01*
X6145643Y-31672286D01*
X6136119Y-31710381D01*
X6126595Y-31729428D01*
X6117071Y-31738952D01*
X6098024Y-31748476D01*
X6078976Y-31748476D01*
X6059928Y-31738952D01*
X6050405Y-31729428D01*
X6040881Y-31710381D01*
X6031357Y-31672286D01*
X6031357Y-31624667D01*
X6040881Y-31586571D01*
X6050405Y-31567524D01*
X6059928Y-31558000D01*
X6078976Y-31548476D01*
X6231357Y-31729428D02*
X6240881Y-31738952D01*
X6231357Y-31748476D01*
X6221833Y-31738952D01*
X6231357Y-31729428D01*
X6231357Y-31748476D01*
X6364690Y-31548476D02*
X6383738Y-31548476D01*
X6402786Y-31558000D01*
X6412309Y-31567524D01*
X6421833Y-31586571D01*
X6431357Y-31624667D01*
X6431357Y-31672286D01*
X6421833Y-31710381D01*
X6412309Y-31729428D01*
X6402786Y-31738952D01*
X6383738Y-31748476D01*
X6364690Y-31748476D01*
X6345643Y-31738952D01*
X6336119Y-31729428D01*
X6326595Y-31710381D01*
X6317071Y-31672286D01*
X6317071Y-31624667D01*
X6326595Y-31586571D01*
X6336119Y-31567524D01*
X6345643Y-31558000D01*
X6364690Y-31548476D01*
X6545643Y-31634190D02*
X6526595Y-31624667D01*
X6517071Y-31615143D01*
X6507548Y-31596095D01*
X6507548Y-31586571D01*
X6517071Y-31567524D01*
X6526595Y-31558000D01*
X6545643Y-31548476D01*
X6583738Y-31548476D01*
X6602786Y-31558000D01*
X6612309Y-31567524D01*
X6621833Y-31586571D01*
X6621833Y-31596095D01*
X6612309Y-31615143D01*
X6602786Y-31624667D01*
X6583738Y-31634190D01*
X6545643Y-31634190D01*
X6526595Y-31643714D01*
X6517071Y-31653238D01*
X6507548Y-31672286D01*
X6507548Y-31710381D01*
X6517071Y-31729428D01*
X6526595Y-31738952D01*
X6545643Y-31748476D01*
X6583738Y-31748476D01*
X6602786Y-31738952D01*
X6612309Y-31729428D01*
X6621833Y-31710381D01*
X6621833Y-31672286D01*
X6612309Y-31653238D01*
X6602786Y-31643714D01*
X6583738Y-31634190D01*
X6793262Y-31548476D02*
X6755167Y-31548476D01*
X6736119Y-31558000D01*
X6726595Y-31567524D01*
X6707548Y-31596095D01*
X6698024Y-31634190D01*
X6698024Y-31710381D01*
X6707548Y-31729428D01*
X6717071Y-31738952D01*
X6736119Y-31748476D01*
X6774214Y-31748476D01*
X6793262Y-31738952D01*
X6802786Y-31729428D01*
X6812309Y-31710381D01*
X6812309Y-31662762D01*
X6802786Y-31643714D01*
X6793262Y-31634190D01*
X6774214Y-31624667D01*
X6736119Y-31624667D01*
X6717071Y-31634190D01*
X6707548Y-31643714D01*
X6698024Y-31662762D01*
X6983738Y-31548476D02*
X6945643Y-31548476D01*
X6926595Y-31558000D01*
X6917071Y-31567524D01*
X6898024Y-31596095D01*
X6888500Y-31634190D01*
X6888500Y-31710381D01*
X6898024Y-31729428D01*
X6907548Y-31738952D01*
X6926595Y-31748476D01*
X6964690Y-31748476D01*
X6983738Y-31738952D01*
X6993262Y-31729428D01*
X7002786Y-31710381D01*
X7002786Y-31662762D01*
X6993262Y-31643714D01*
X6983738Y-31634190D01*
X6964690Y-31624667D01*
X6926595Y-31624667D01*
X6907548Y-31634190D01*
X6898024Y-31643714D01*
X6888500Y-31662762D01*
X7078976Y-31548476D02*
X7078976Y-31586571D01*
X7155167Y-31548476D02*
X7155167Y-31586571D01*
X7450405Y-31824667D02*
X7440881Y-31815143D01*
X7421833Y-31786571D01*
X7412309Y-31767524D01*
X7402786Y-31738952D01*
X7393262Y-31691333D01*
X7393262Y-31653238D01*
X7402786Y-31605619D01*
X7412309Y-31577048D01*
X7421833Y-31558000D01*
X7440881Y-31529428D01*
X7450405Y-31519905D01*
X7507548Y-31548476D02*
X7640881Y-31548476D01*
X7555167Y-31748476D01*
X7755167Y-31548476D02*
X7774214Y-31548476D01*
X7793262Y-31558000D01*
X7802786Y-31567524D01*
X7812309Y-31586571D01*
X7821833Y-31624667D01*
X7821833Y-31672286D01*
X7812309Y-31710381D01*
X7802786Y-31729428D01*
X7793262Y-31738952D01*
X7774214Y-31748476D01*
X7755167Y-31748476D01*
X7736119Y-31738952D01*
X7726595Y-31729428D01*
X7717071Y-31710381D01*
X7707548Y-31672286D01*
X7707548Y-31624667D01*
X7717071Y-31586571D01*
X7726595Y-31567524D01*
X7736119Y-31558000D01*
X7755167Y-31548476D01*
X8059928Y-31748476D02*
X8059928Y-31548476D01*
X8145643Y-31748476D02*
X8145643Y-31643714D01*
X8136119Y-31624667D01*
X8117071Y-31615143D01*
X8088500Y-31615143D01*
X8069452Y-31624667D01*
X8059928Y-31634190D01*
X8269452Y-31748476D02*
X8250405Y-31738952D01*
X8240881Y-31729428D01*
X8231357Y-31710381D01*
X8231357Y-31653238D01*
X8240881Y-31634190D01*
X8250405Y-31624667D01*
X8269452Y-31615143D01*
X8298024Y-31615143D01*
X8317071Y-31624667D01*
X8326595Y-31634190D01*
X8336119Y-31653238D01*
X8336119Y-31710381D01*
X8326595Y-31729428D01*
X8317071Y-31738952D01*
X8298024Y-31748476D01*
X8269452Y-31748476D01*
X8450405Y-31748476D02*
X8431357Y-31738952D01*
X8421833Y-31719905D01*
X8421833Y-31548476D01*
X8602786Y-31738952D02*
X8583738Y-31748476D01*
X8545643Y-31748476D01*
X8526595Y-31738952D01*
X8517071Y-31719905D01*
X8517071Y-31643714D01*
X8526595Y-31624667D01*
X8545643Y-31615143D01*
X8583738Y-31615143D01*
X8602786Y-31624667D01*
X8612310Y-31643714D01*
X8612310Y-31662762D01*
X8517071Y-31681809D01*
X8688500Y-31738952D02*
X8707548Y-31748476D01*
X8745643Y-31748476D01*
X8764690Y-31738952D01*
X8774214Y-31719905D01*
X8774214Y-31710381D01*
X8764690Y-31691333D01*
X8745643Y-31681809D01*
X8717071Y-31681809D01*
X8698024Y-31672286D01*
X8688500Y-31653238D01*
X8688500Y-31643714D01*
X8698024Y-31624667D01*
X8717071Y-31615143D01*
X8745643Y-31615143D01*
X8764690Y-31624667D01*
X8840881Y-31824667D02*
X8850405Y-31815143D01*
X8869452Y-31786571D01*
X8878976Y-31767524D01*
X8888500Y-31738952D01*
X8898024Y-31691333D01*
X8898024Y-31653238D01*
X8888500Y-31605619D01*
X8878976Y-31577048D01*
X8869452Y-31558000D01*
X8850405Y-31529428D01*
X8840881Y-31519905D01*
X9202786Y-31824667D02*
X9193262Y-31815143D01*
X9174214Y-31786571D01*
X9164690Y-31767524D01*
X9155167Y-31738952D01*
X9145643Y-31691333D01*
X9145643Y-31653238D01*
X9155167Y-31605619D01*
X9164690Y-31577048D01*
X9174214Y-31558000D01*
X9193262Y-31529428D01*
X9202786Y-31519905D01*
X9278976Y-31615143D02*
X9278976Y-31748476D01*
X9278976Y-31634190D02*
X9288500Y-31624667D01*
X9307548Y-31615143D01*
X9336119Y-31615143D01*
X9355167Y-31624667D01*
X9364690Y-31643714D01*
X9364690Y-31748476D01*
X9488500Y-31748476D02*
X9469452Y-31738952D01*
X9459929Y-31729428D01*
X9450405Y-31710381D01*
X9450405Y-31653238D01*
X9459929Y-31634190D01*
X9469452Y-31624667D01*
X9488500Y-31615143D01*
X9517071Y-31615143D01*
X9536119Y-31624667D01*
X9545643Y-31634190D01*
X9555167Y-31653238D01*
X9555167Y-31710381D01*
X9545643Y-31729428D01*
X9536119Y-31738952D01*
X9517071Y-31748476D01*
X9488500Y-31748476D01*
X9612310Y-31615143D02*
X9688500Y-31615143D01*
X9640881Y-31548476D02*
X9640881Y-31719905D01*
X9650405Y-31738952D01*
X9669452Y-31748476D01*
X9688500Y-31748476D01*
X9907548Y-31615143D02*
X9907548Y-31815143D01*
X9907548Y-31624667D02*
X9926595Y-31615143D01*
X9964690Y-31615143D01*
X9983738Y-31624667D01*
X9993262Y-31634190D01*
X10002786Y-31653238D01*
X10002786Y-31710381D01*
X9993262Y-31729428D01*
X9983738Y-31738952D01*
X9964690Y-31748476D01*
X9926595Y-31748476D01*
X9907548Y-31738952D01*
X10117071Y-31748476D02*
X10098024Y-31738952D01*
X10088500Y-31719905D01*
X10088500Y-31548476D01*
X10278976Y-31748476D02*
X10278976Y-31643714D01*
X10269452Y-31624667D01*
X10250405Y-31615143D01*
X10212310Y-31615143D01*
X10193262Y-31624667D01*
X10278976Y-31738952D02*
X10259929Y-31748476D01*
X10212310Y-31748476D01*
X10193262Y-31738952D01*
X10183738Y-31719905D01*
X10183738Y-31700857D01*
X10193262Y-31681809D01*
X10212310Y-31672286D01*
X10259929Y-31672286D01*
X10278976Y-31662762D01*
X10345643Y-31615143D02*
X10421833Y-31615143D01*
X10374214Y-31548476D02*
X10374214Y-31719905D01*
X10383738Y-31738952D01*
X10402786Y-31748476D01*
X10421833Y-31748476D01*
X10564690Y-31738952D02*
X10545643Y-31748476D01*
X10507548Y-31748476D01*
X10488500Y-31738952D01*
X10478976Y-31719905D01*
X10478976Y-31643714D01*
X10488500Y-31624667D01*
X10507548Y-31615143D01*
X10545643Y-31615143D01*
X10564690Y-31624667D01*
X10574214Y-31643714D01*
X10574214Y-31662762D01*
X10478976Y-31681809D01*
X10745643Y-31748476D02*
X10745643Y-31548476D01*
X10745643Y-31738952D02*
X10726595Y-31748476D01*
X10688500Y-31748476D01*
X10669452Y-31738952D01*
X10659929Y-31729428D01*
X10650405Y-31710381D01*
X10650405Y-31653238D01*
X10659929Y-31634190D01*
X10669452Y-31624667D01*
X10688500Y-31615143D01*
X10726595Y-31615143D01*
X10745643Y-31624667D01*
X10821833Y-31824667D02*
X10831357Y-31815143D01*
X10850405Y-31786571D01*
X10859929Y-31767524D01*
X10869452Y-31738952D01*
X10878976Y-31691333D01*
X10878976Y-31653238D01*
X10869452Y-31605619D01*
X10859929Y-31577048D01*
X10850405Y-31558000D01*
X10831357Y-31529428D01*
X10821833Y-31519905D01*
X3778500Y-31878000D02*
X3778500Y-32078000D01*
X3678500Y-31978000D02*
X3878500Y-31978000D01*
X4117071Y-31868476D02*
X4240881Y-31868476D01*
X4174214Y-31944667D01*
X4202786Y-31944667D01*
X4221833Y-31954190D01*
X4231357Y-31963714D01*
X4240881Y-31982762D01*
X4240881Y-32030381D01*
X4231357Y-32049428D01*
X4221833Y-32058952D01*
X4202786Y-32068476D01*
X4145643Y-32068476D01*
X4126595Y-32058952D01*
X4117071Y-32049428D01*
X4326595Y-32049428D02*
X4336119Y-32058952D01*
X4326595Y-32068476D01*
X4317071Y-32058952D01*
X4326595Y-32049428D01*
X4326595Y-32068476D01*
X4459929Y-31868476D02*
X4478976Y-31868476D01*
X4498024Y-31878000D01*
X4507548Y-31887524D01*
X4517071Y-31906571D01*
X4526595Y-31944667D01*
X4526595Y-31992286D01*
X4517071Y-32030381D01*
X4507548Y-32049428D01*
X4498024Y-32058952D01*
X4478976Y-32068476D01*
X4459929Y-32068476D01*
X4440881Y-32058952D01*
X4431357Y-32049428D01*
X4421833Y-32030381D01*
X4412310Y-31992286D01*
X4412310Y-31944667D01*
X4421833Y-31906571D01*
X4431357Y-31887524D01*
X4440881Y-31878000D01*
X4459929Y-31868476D01*
X4707548Y-31868476D02*
X4612310Y-31868476D01*
X4602786Y-31963714D01*
X4612310Y-31954190D01*
X4631357Y-31944667D01*
X4678976Y-31944667D01*
X4698024Y-31954190D01*
X4707548Y-31963714D01*
X4717071Y-31982762D01*
X4717071Y-32030381D01*
X4707548Y-32049428D01*
X4698024Y-32058952D01*
X4678976Y-32068476D01*
X4631357Y-32068476D01*
X4612310Y-32058952D01*
X4602786Y-32049428D01*
X4840881Y-31868476D02*
X4859929Y-31868476D01*
X4878976Y-31878000D01*
X4888500Y-31887524D01*
X4898024Y-31906571D01*
X4907548Y-31944667D01*
X4907548Y-31992286D01*
X4898024Y-32030381D01*
X4888500Y-32049428D01*
X4878976Y-32058952D01*
X4859929Y-32068476D01*
X4840881Y-32068476D01*
X4821833Y-32058952D01*
X4812310Y-32049428D01*
X4802786Y-32030381D01*
X4793262Y-31992286D01*
X4793262Y-31944667D01*
X4802786Y-31906571D01*
X4812310Y-31887524D01*
X4821833Y-31878000D01*
X4840881Y-31868476D01*
X4993262Y-32068476D02*
X4993262Y-31935143D01*
X4993262Y-31954190D02*
X5002786Y-31944667D01*
X5021833Y-31935143D01*
X5050405Y-31935143D01*
X5069452Y-31944667D01*
X5078976Y-31963714D01*
X5078976Y-32068476D01*
X5078976Y-31963714D02*
X5088500Y-31944667D01*
X5107548Y-31935143D01*
X5136119Y-31935143D01*
X5155167Y-31944667D01*
X5164690Y-31963714D01*
X5164690Y-32068476D01*
X5259929Y-32068476D02*
X5259929Y-31935143D01*
X5259929Y-31954190D02*
X5269452Y-31944667D01*
X5288500Y-31935143D01*
X5317071Y-31935143D01*
X5336119Y-31944667D01*
X5345643Y-31963714D01*
X5345643Y-32068476D01*
X5345643Y-31963714D02*
X5355167Y-31944667D01*
X5374214Y-31935143D01*
X5402786Y-31935143D01*
X5421833Y-31944667D01*
X5431357Y-31963714D01*
X5431357Y-32068476D01*
X5821833Y-31858952D02*
X5650405Y-32116095D01*
X6078976Y-31868476D02*
X6098024Y-31868476D01*
X6117071Y-31878000D01*
X6126595Y-31887524D01*
X6136119Y-31906571D01*
X6145643Y-31944667D01*
X6145643Y-31992286D01*
X6136119Y-32030381D01*
X6126595Y-32049428D01*
X6117071Y-32058952D01*
X6098024Y-32068476D01*
X6078976Y-32068476D01*
X6059928Y-32058952D01*
X6050405Y-32049428D01*
X6040881Y-32030381D01*
X6031357Y-31992286D01*
X6031357Y-31944667D01*
X6040881Y-31906571D01*
X6050405Y-31887524D01*
X6059928Y-31878000D01*
X6078976Y-31868476D01*
X6231357Y-32049428D02*
X6240881Y-32058952D01*
X6231357Y-32068476D01*
X6221833Y-32058952D01*
X6231357Y-32049428D01*
X6231357Y-32068476D01*
X6431357Y-32068476D02*
X6317071Y-32068476D01*
X6374214Y-32068476D02*
X6374214Y-31868476D01*
X6355167Y-31897048D01*
X6336119Y-31916095D01*
X6317071Y-31925619D01*
X6507548Y-31887524D02*
X6517071Y-31878000D01*
X6536119Y-31868476D01*
X6583738Y-31868476D01*
X6602786Y-31878000D01*
X6612309Y-31887524D01*
X6621833Y-31906571D01*
X6621833Y-31925619D01*
X6612309Y-31954190D01*
X6498024Y-32068476D01*
X6621833Y-32068476D01*
X6745643Y-31868476D02*
X6764690Y-31868476D01*
X6783738Y-31878000D01*
X6793262Y-31887524D01*
X6802786Y-31906571D01*
X6812309Y-31944667D01*
X6812309Y-31992286D01*
X6802786Y-32030381D01*
X6793262Y-32049428D01*
X6783738Y-32058952D01*
X6764690Y-32068476D01*
X6745643Y-32068476D01*
X6726595Y-32058952D01*
X6717071Y-32049428D01*
X6707548Y-32030381D01*
X6698024Y-31992286D01*
X6698024Y-31944667D01*
X6707548Y-31906571D01*
X6717071Y-31887524D01*
X6726595Y-31878000D01*
X6745643Y-31868476D01*
X7002786Y-32068476D02*
X6888500Y-32068476D01*
X6945643Y-32068476D02*
X6945643Y-31868476D01*
X6926595Y-31897048D01*
X6907548Y-31916095D01*
X6888500Y-31925619D01*
X7078976Y-31868476D02*
X7078976Y-31906571D01*
X7155167Y-31868476D02*
X7155167Y-31906571D01*
X7450405Y-32144667D02*
X7440881Y-32135143D01*
X7421833Y-32106571D01*
X7412309Y-32087524D01*
X7402786Y-32058952D01*
X7393262Y-32011333D01*
X7393262Y-31973238D01*
X7402786Y-31925619D01*
X7412309Y-31897048D01*
X7421833Y-31878000D01*
X7440881Y-31849428D01*
X7450405Y-31839905D01*
X7555167Y-31954190D02*
X7536119Y-31944667D01*
X7526595Y-31935143D01*
X7517071Y-31916095D01*
X7517071Y-31906571D01*
X7526595Y-31887524D01*
X7536119Y-31878000D01*
X7555167Y-31868476D01*
X7593262Y-31868476D01*
X7612309Y-31878000D01*
X7621833Y-31887524D01*
X7631357Y-31906571D01*
X7631357Y-31916095D01*
X7621833Y-31935143D01*
X7612309Y-31944667D01*
X7593262Y-31954190D01*
X7555167Y-31954190D01*
X7536119Y-31963714D01*
X7526595Y-31973238D01*
X7517071Y-31992286D01*
X7517071Y-32030381D01*
X7526595Y-32049428D01*
X7536119Y-32058952D01*
X7555167Y-32068476D01*
X7593262Y-32068476D01*
X7612309Y-32058952D01*
X7621833Y-32049428D01*
X7631357Y-32030381D01*
X7631357Y-31992286D01*
X7621833Y-31973238D01*
X7612309Y-31963714D01*
X7593262Y-31954190D01*
X7869452Y-32068476D02*
X7869452Y-31868476D01*
X7955167Y-32068476D02*
X7955167Y-31963714D01*
X7945643Y-31944667D01*
X7926595Y-31935143D01*
X7898024Y-31935143D01*
X7878976Y-31944667D01*
X7869452Y-31954190D01*
X8078976Y-32068476D02*
X8059928Y-32058952D01*
X8050405Y-32049428D01*
X8040881Y-32030381D01*
X8040881Y-31973238D01*
X8050405Y-31954190D01*
X8059928Y-31944667D01*
X8078976Y-31935143D01*
X8107548Y-31935143D01*
X8126595Y-31944667D01*
X8136119Y-31954190D01*
X8145643Y-31973238D01*
X8145643Y-32030381D01*
X8136119Y-32049428D01*
X8126595Y-32058952D01*
X8107548Y-32068476D01*
X8078976Y-32068476D01*
X8259928Y-32068476D02*
X8240881Y-32058952D01*
X8231357Y-32039905D01*
X8231357Y-31868476D01*
X8412310Y-32058952D02*
X8393262Y-32068476D01*
X8355167Y-32068476D01*
X8336119Y-32058952D01*
X8326595Y-32039905D01*
X8326595Y-31963714D01*
X8336119Y-31944667D01*
X8355167Y-31935143D01*
X8393262Y-31935143D01*
X8412310Y-31944667D01*
X8421833Y-31963714D01*
X8421833Y-31982762D01*
X8326595Y-32001809D01*
X8498024Y-32058952D02*
X8517071Y-32068476D01*
X8555167Y-32068476D01*
X8574214Y-32058952D01*
X8583738Y-32039905D01*
X8583738Y-32030381D01*
X8574214Y-32011333D01*
X8555167Y-32001809D01*
X8526595Y-32001809D01*
X8507548Y-31992286D01*
X8498024Y-31973238D01*
X8498024Y-31963714D01*
X8507548Y-31944667D01*
X8526595Y-31935143D01*
X8555167Y-31935143D01*
X8574214Y-31944667D01*
X8650405Y-32144667D02*
X8659929Y-32135143D01*
X8678976Y-32106571D01*
X8688500Y-32087524D01*
X8698024Y-32058952D01*
X8707548Y-32011333D01*
X8707548Y-31973238D01*
X8698024Y-31925619D01*
X8688500Y-31897048D01*
X8678976Y-31878000D01*
X8659929Y-31849428D01*
X8650405Y-31839905D01*
X9012310Y-32144667D02*
X9002786Y-32135143D01*
X8983738Y-32106571D01*
X8974214Y-32087524D01*
X8964690Y-32058952D01*
X8955167Y-32011333D01*
X8955167Y-31973238D01*
X8964690Y-31925619D01*
X8974214Y-31897048D01*
X8983738Y-31878000D01*
X9002786Y-31849428D01*
X9012310Y-31839905D01*
X9088500Y-31935143D02*
X9088500Y-32068476D01*
X9088500Y-31954190D02*
X9098024Y-31944667D01*
X9117071Y-31935143D01*
X9145643Y-31935143D01*
X9164690Y-31944667D01*
X9174214Y-31963714D01*
X9174214Y-32068476D01*
X9298024Y-32068476D02*
X9278976Y-32058952D01*
X9269452Y-32049428D01*
X9259929Y-32030381D01*
X9259929Y-31973238D01*
X9269452Y-31954190D01*
X9278976Y-31944667D01*
X9298024Y-31935143D01*
X9326595Y-31935143D01*
X9345643Y-31944667D01*
X9355167Y-31954190D01*
X9364690Y-31973238D01*
X9364690Y-32030381D01*
X9355167Y-32049428D01*
X9345643Y-32058952D01*
X9326595Y-32068476D01*
X9298024Y-32068476D01*
X9421833Y-31935143D02*
X9498024Y-31935143D01*
X9450405Y-31868476D02*
X9450405Y-32039905D01*
X9459929Y-32058952D01*
X9478976Y-32068476D01*
X9498024Y-32068476D01*
X9717071Y-31935143D02*
X9717071Y-32135143D01*
X9717071Y-31944667D02*
X9736119Y-31935143D01*
X9774214Y-31935143D01*
X9793262Y-31944667D01*
X9802786Y-31954190D01*
X9812310Y-31973238D01*
X9812310Y-32030381D01*
X9802786Y-32049428D01*
X9793262Y-32058952D01*
X9774214Y-32068476D01*
X9736119Y-32068476D01*
X9717071Y-32058952D01*
X9926595Y-32068476D02*
X9907548Y-32058952D01*
X9898024Y-32039905D01*
X9898024Y-31868476D01*
X10088500Y-32068476D02*
X10088500Y-31963714D01*
X10078976Y-31944667D01*
X10059929Y-31935143D01*
X10021833Y-31935143D01*
X10002786Y-31944667D01*
X10088500Y-32058952D02*
X10069452Y-32068476D01*
X10021833Y-32068476D01*
X10002786Y-32058952D01*
X9993262Y-32039905D01*
X9993262Y-32020857D01*
X10002786Y-32001809D01*
X10021833Y-31992286D01*
X10069452Y-31992286D01*
X10088500Y-31982762D01*
X10155167Y-31935143D02*
X10231357Y-31935143D01*
X10183738Y-31868476D02*
X10183738Y-32039905D01*
X10193262Y-32058952D01*
X10212310Y-32068476D01*
X10231357Y-32068476D01*
X10374214Y-32058952D02*
X10355167Y-32068476D01*
X10317071Y-32068476D01*
X10298024Y-32058952D01*
X10288500Y-32039905D01*
X10288500Y-31963714D01*
X10298024Y-31944667D01*
X10317071Y-31935143D01*
X10355167Y-31935143D01*
X10374214Y-31944667D01*
X10383738Y-31963714D01*
X10383738Y-31982762D01*
X10288500Y-32001809D01*
X10555167Y-32068476D02*
X10555167Y-31868476D01*
X10555167Y-32058952D02*
X10536119Y-32068476D01*
X10498024Y-32068476D01*
X10478976Y-32058952D01*
X10469452Y-32049428D01*
X10459929Y-32030381D01*
X10459929Y-31973238D01*
X10469452Y-31954190D01*
X10478976Y-31944667D01*
X10498024Y-31935143D01*
X10536119Y-31935143D01*
X10555167Y-31944667D01*
X10631357Y-32144667D02*
X10640881Y-32135143D01*
X10659929Y-32106571D01*
X10669452Y-32087524D01*
X10678976Y-32058952D01*
X10688500Y-32011333D01*
X10688500Y-31973238D01*
X10678976Y-31925619D01*
X10669452Y-31897048D01*
X10659929Y-31878000D01*
X10640881Y-31849428D01*
X10631357Y-31839905D01*
X3849211Y-32368711D02*
X3849211Y-32227289D01*
X3707789Y-32227289D01*
X3707789Y-32368711D01*
X3849211Y-32368711D01*
X4117071Y-32188476D02*
X4240881Y-32188476D01*
X4174214Y-32264667D01*
X4202786Y-32264667D01*
X4221833Y-32274190D01*
X4231357Y-32283714D01*
X4240881Y-32302762D01*
X4240881Y-32350381D01*
X4231357Y-32369428D01*
X4221833Y-32378952D01*
X4202786Y-32388476D01*
X4145643Y-32388476D01*
X4126595Y-32378952D01*
X4117071Y-32369428D01*
X4326595Y-32369428D02*
X4336119Y-32378952D01*
X4326595Y-32388476D01*
X4317071Y-32378952D01*
X4326595Y-32369428D01*
X4326595Y-32388476D01*
X4412310Y-32207524D02*
X4421833Y-32198000D01*
X4440881Y-32188476D01*
X4488500Y-32188476D01*
X4507548Y-32198000D01*
X4517071Y-32207524D01*
X4526595Y-32226571D01*
X4526595Y-32245619D01*
X4517071Y-32274190D01*
X4402786Y-32388476D01*
X4526595Y-32388476D01*
X4650405Y-32188476D02*
X4669452Y-32188476D01*
X4688500Y-32198000D01*
X4698024Y-32207524D01*
X4707548Y-32226571D01*
X4717071Y-32264667D01*
X4717071Y-32312286D01*
X4707548Y-32350381D01*
X4698024Y-32369428D01*
X4688500Y-32378952D01*
X4669452Y-32388476D01*
X4650405Y-32388476D01*
X4631357Y-32378952D01*
X4621833Y-32369428D01*
X4612310Y-32350381D01*
X4602786Y-32312286D01*
X4602786Y-32264667D01*
X4612310Y-32226571D01*
X4621833Y-32207524D01*
X4631357Y-32198000D01*
X4650405Y-32188476D01*
X4840881Y-32188476D02*
X4859929Y-32188476D01*
X4878976Y-32198000D01*
X4888500Y-32207524D01*
X4898024Y-32226571D01*
X4907548Y-32264667D01*
X4907548Y-32312286D01*
X4898024Y-32350381D01*
X4888500Y-32369428D01*
X4878976Y-32378952D01*
X4859929Y-32388476D01*
X4840881Y-32388476D01*
X4821833Y-32378952D01*
X4812310Y-32369428D01*
X4802786Y-32350381D01*
X4793262Y-32312286D01*
X4793262Y-32264667D01*
X4802786Y-32226571D01*
X4812310Y-32207524D01*
X4821833Y-32198000D01*
X4840881Y-32188476D01*
X4993262Y-32388476D02*
X4993262Y-32255143D01*
X4993262Y-32274190D02*
X5002786Y-32264667D01*
X5021833Y-32255143D01*
X5050405Y-32255143D01*
X5069452Y-32264667D01*
X5078976Y-32283714D01*
X5078976Y-32388476D01*
X5078976Y-32283714D02*
X5088500Y-32264667D01*
X5107548Y-32255143D01*
X5136119Y-32255143D01*
X5155167Y-32264667D01*
X5164690Y-32283714D01*
X5164690Y-32388476D01*
X5259929Y-32388476D02*
X5259929Y-32255143D01*
X5259929Y-32274190D02*
X5269452Y-32264667D01*
X5288500Y-32255143D01*
X5317071Y-32255143D01*
X5336119Y-32264667D01*
X5345643Y-32283714D01*
X5345643Y-32388476D01*
X5345643Y-32283714D02*
X5355167Y-32264667D01*
X5374214Y-32255143D01*
X5402786Y-32255143D01*
X5421833Y-32264667D01*
X5431357Y-32283714D01*
X5431357Y-32388476D01*
X5821833Y-32178952D02*
X5650405Y-32436095D01*
X6078976Y-32188476D02*
X6098024Y-32188476D01*
X6117071Y-32198000D01*
X6126595Y-32207524D01*
X6136119Y-32226571D01*
X6145643Y-32264667D01*
X6145643Y-32312286D01*
X6136119Y-32350381D01*
X6126595Y-32369428D01*
X6117071Y-32378952D01*
X6098024Y-32388476D01*
X6078976Y-32388476D01*
X6059928Y-32378952D01*
X6050405Y-32369428D01*
X6040881Y-32350381D01*
X6031357Y-32312286D01*
X6031357Y-32264667D01*
X6040881Y-32226571D01*
X6050405Y-32207524D01*
X6059928Y-32198000D01*
X6078976Y-32188476D01*
X6231357Y-32369428D02*
X6240881Y-32378952D01*
X6231357Y-32388476D01*
X6221833Y-32378952D01*
X6231357Y-32369428D01*
X6231357Y-32388476D01*
X6431357Y-32388476D02*
X6317071Y-32388476D01*
X6374214Y-32388476D02*
X6374214Y-32188476D01*
X6355167Y-32217048D01*
X6336119Y-32236095D01*
X6317071Y-32245619D01*
X6507548Y-32207524D02*
X6517071Y-32198000D01*
X6536119Y-32188476D01*
X6583738Y-32188476D01*
X6602786Y-32198000D01*
X6612309Y-32207524D01*
X6621833Y-32226571D01*
X6621833Y-32245619D01*
X6612309Y-32274190D01*
X6498024Y-32388476D01*
X6621833Y-32388476D01*
X6793262Y-32188476D02*
X6755167Y-32188476D01*
X6736119Y-32198000D01*
X6726595Y-32207524D01*
X6707548Y-32236095D01*
X6698024Y-32274190D01*
X6698024Y-32350381D01*
X6707548Y-32369428D01*
X6717071Y-32378952D01*
X6736119Y-32388476D01*
X6774214Y-32388476D01*
X6793262Y-32378952D01*
X6802786Y-32369428D01*
X6812309Y-32350381D01*
X6812309Y-32302762D01*
X6802786Y-32283714D01*
X6793262Y-32274190D01*
X6774214Y-32264667D01*
X6736119Y-32264667D01*
X6717071Y-32274190D01*
X6707548Y-32283714D01*
X6698024Y-32302762D01*
X6936119Y-32188476D02*
X6955167Y-32188476D01*
X6974214Y-32198000D01*
X6983738Y-32207524D01*
X6993262Y-32226571D01*
X7002786Y-32264667D01*
X7002786Y-32312286D01*
X6993262Y-32350381D01*
X6983738Y-32369428D01*
X6974214Y-32378952D01*
X6955167Y-32388476D01*
X6936119Y-32388476D01*
X6917071Y-32378952D01*
X6907548Y-32369428D01*
X6898024Y-32350381D01*
X6888500Y-32312286D01*
X6888500Y-32264667D01*
X6898024Y-32226571D01*
X6907548Y-32207524D01*
X6917071Y-32198000D01*
X6936119Y-32188476D01*
X7078976Y-32188476D02*
X7078976Y-32226571D01*
X7155167Y-32188476D02*
X7155167Y-32226571D01*
X7450405Y-32464667D02*
X7440881Y-32455143D01*
X7421833Y-32426571D01*
X7412309Y-32407524D01*
X7402786Y-32378952D01*
X7393262Y-32331333D01*
X7393262Y-32293238D01*
X7402786Y-32245619D01*
X7412309Y-32217048D01*
X7421833Y-32198000D01*
X7440881Y-32169428D01*
X7450405Y-32159905D01*
X7612309Y-32255143D02*
X7612309Y-32388476D01*
X7564690Y-32178952D02*
X7517071Y-32321809D01*
X7640881Y-32321809D01*
X7869452Y-32388476D02*
X7869452Y-32188476D01*
X7955167Y-32388476D02*
X7955167Y-32283714D01*
X7945643Y-32264667D01*
X7926595Y-32255143D01*
X7898024Y-32255143D01*
X7878976Y-32264667D01*
X7869452Y-32274190D01*
X8078976Y-32388476D02*
X8059928Y-32378952D01*
X8050405Y-32369428D01*
X8040881Y-32350381D01*
X8040881Y-32293238D01*
X8050405Y-32274190D01*
X8059928Y-32264667D01*
X8078976Y-32255143D01*
X8107548Y-32255143D01*
X8126595Y-32264667D01*
X8136119Y-32274190D01*
X8145643Y-32293238D01*
X8145643Y-32350381D01*
X8136119Y-32369428D01*
X8126595Y-32378952D01*
X8107548Y-32388476D01*
X8078976Y-32388476D01*
X8259928Y-32388476D02*
X8240881Y-32378952D01*
X8231357Y-32359905D01*
X8231357Y-32188476D01*
X8412310Y-32378952D02*
X8393262Y-32388476D01*
X8355167Y-32388476D01*
X8336119Y-32378952D01*
X8326595Y-32359905D01*
X8326595Y-32283714D01*
X8336119Y-32264667D01*
X8355167Y-32255143D01*
X8393262Y-32255143D01*
X8412310Y-32264667D01*
X8421833Y-32283714D01*
X8421833Y-32302762D01*
X8326595Y-32321809D01*
X8498024Y-32378952D02*
X8517071Y-32388476D01*
X8555167Y-32388476D01*
X8574214Y-32378952D01*
X8583738Y-32359905D01*
X8583738Y-32350381D01*
X8574214Y-32331333D01*
X8555167Y-32321809D01*
X8526595Y-32321809D01*
X8507548Y-32312286D01*
X8498024Y-32293238D01*
X8498024Y-32283714D01*
X8507548Y-32264667D01*
X8526595Y-32255143D01*
X8555167Y-32255143D01*
X8574214Y-32264667D01*
X8650405Y-32464667D02*
X8659929Y-32455143D01*
X8678976Y-32426571D01*
X8688500Y-32407524D01*
X8698024Y-32378952D01*
X8707548Y-32331333D01*
X8707548Y-32293238D01*
X8698024Y-32245619D01*
X8688500Y-32217048D01*
X8678976Y-32198000D01*
X8659929Y-32169428D01*
X8650405Y-32159905D01*
X9012310Y-32464667D02*
X9002786Y-32455143D01*
X8983738Y-32426571D01*
X8974214Y-32407524D01*
X8964690Y-32378952D01*
X8955167Y-32331333D01*
X8955167Y-32293238D01*
X8964690Y-32245619D01*
X8974214Y-32217048D01*
X8983738Y-32198000D01*
X9002786Y-32169428D01*
X9012310Y-32159905D01*
X9088500Y-32255143D02*
X9088500Y-32388476D01*
X9088500Y-32274190D02*
X9098024Y-32264667D01*
X9117071Y-32255143D01*
X9145643Y-32255143D01*
X9164690Y-32264667D01*
X9174214Y-32283714D01*
X9174214Y-32388476D01*
X9298024Y-32388476D02*
X9278976Y-32378952D01*
X9269452Y-32369428D01*
X9259929Y-32350381D01*
X9259929Y-32293238D01*
X9269452Y-32274190D01*
X9278976Y-32264667D01*
X9298024Y-32255143D01*
X9326595Y-32255143D01*
X9345643Y-32264667D01*
X9355167Y-32274190D01*
X9364690Y-32293238D01*
X9364690Y-32350381D01*
X9355167Y-32369428D01*
X9345643Y-32378952D01*
X9326595Y-32388476D01*
X9298024Y-32388476D01*
X9421833Y-32255143D02*
X9498024Y-32255143D01*
X9450405Y-32188476D02*
X9450405Y-32359905D01*
X9459929Y-32378952D01*
X9478976Y-32388476D01*
X9498024Y-32388476D01*
X9717071Y-32255143D02*
X9717071Y-32455143D01*
X9717071Y-32264667D02*
X9736119Y-32255143D01*
X9774214Y-32255143D01*
X9793262Y-32264667D01*
X9802786Y-32274190D01*
X9812310Y-32293238D01*
X9812310Y-32350381D01*
X9802786Y-32369428D01*
X9793262Y-32378952D01*
X9774214Y-32388476D01*
X9736119Y-32388476D01*
X9717071Y-32378952D01*
X9926595Y-32388476D02*
X9907548Y-32378952D01*
X9898024Y-32359905D01*
X9898024Y-32188476D01*
X10088500Y-32388476D02*
X10088500Y-32283714D01*
X10078976Y-32264667D01*
X10059929Y-32255143D01*
X10021833Y-32255143D01*
X10002786Y-32264667D01*
X10088500Y-32378952D02*
X10069452Y-32388476D01*
X10021833Y-32388476D01*
X10002786Y-32378952D01*
X9993262Y-32359905D01*
X9993262Y-32340857D01*
X10002786Y-32321809D01*
X10021833Y-32312286D01*
X10069452Y-32312286D01*
X10088500Y-32302762D01*
X10155167Y-32255143D02*
X10231357Y-32255143D01*
X10183738Y-32188476D02*
X10183738Y-32359905D01*
X10193262Y-32378952D01*
X10212310Y-32388476D01*
X10231357Y-32388476D01*
X10374214Y-32378952D02*
X10355167Y-32388476D01*
X10317071Y-32388476D01*
X10298024Y-32378952D01*
X10288500Y-32359905D01*
X10288500Y-32283714D01*
X10298024Y-32264667D01*
X10317071Y-32255143D01*
X10355167Y-32255143D01*
X10374214Y-32264667D01*
X10383738Y-32283714D01*
X10383738Y-32302762D01*
X10288500Y-32321809D01*
X10555167Y-32388476D02*
X10555167Y-32188476D01*
X10555167Y-32378952D02*
X10536119Y-32388476D01*
X10498024Y-32388476D01*
X10478976Y-32378952D01*
X10469452Y-32369428D01*
X10459929Y-32350381D01*
X10459929Y-32293238D01*
X10469452Y-32274190D01*
X10478976Y-32264667D01*
X10498024Y-32255143D01*
X10536119Y-32255143D01*
X10555167Y-32264667D01*
X10631357Y-32464667D02*
X10640881Y-32455143D01*
X10659929Y-32426571D01*
X10669452Y-32407524D01*
X10678976Y-32378952D01*
X10688500Y-32331333D01*
X10688500Y-32293238D01*
X10678976Y-32245619D01*
X10669452Y-32217048D01*
X10659929Y-32198000D01*
X10640881Y-32169428D01*
X10631357Y-32159905D01*
X3778500Y-32718000D02*
X3878500Y-32618000D01*
X3778500Y-32518000D01*
X3678500Y-32618000D01*
X3778500Y-32718000D01*
X4221833Y-32575143D02*
X4221833Y-32708476D01*
X4174214Y-32498952D02*
X4126595Y-32641809D01*
X4250405Y-32641809D01*
X4326595Y-32689428D02*
X4336119Y-32698952D01*
X4326595Y-32708476D01*
X4317071Y-32698952D01*
X4326595Y-32689428D01*
X4326595Y-32708476D01*
X4459929Y-32508476D02*
X4478976Y-32508476D01*
X4498024Y-32518000D01*
X4507548Y-32527524D01*
X4517071Y-32546571D01*
X4526595Y-32584667D01*
X4526595Y-32632286D01*
X4517071Y-32670381D01*
X4507548Y-32689428D01*
X4498024Y-32698952D01*
X4478976Y-32708476D01*
X4459929Y-32708476D01*
X4440881Y-32698952D01*
X4431357Y-32689428D01*
X4421833Y-32670381D01*
X4412310Y-32632286D01*
X4412310Y-32584667D01*
X4421833Y-32546571D01*
X4431357Y-32527524D01*
X4440881Y-32518000D01*
X4459929Y-32508476D01*
X4650405Y-32508476D02*
X4669452Y-32508476D01*
X4688500Y-32518000D01*
X4698024Y-32527524D01*
X4707548Y-32546571D01*
X4717071Y-32584667D01*
X4717071Y-32632286D01*
X4707548Y-32670381D01*
X4698024Y-32689428D01*
X4688500Y-32698952D01*
X4669452Y-32708476D01*
X4650405Y-32708476D01*
X4631357Y-32698952D01*
X4621833Y-32689428D01*
X4612310Y-32670381D01*
X4602786Y-32632286D01*
X4602786Y-32584667D01*
X4612310Y-32546571D01*
X4621833Y-32527524D01*
X4631357Y-32518000D01*
X4650405Y-32508476D01*
X4840881Y-32508476D02*
X4859929Y-32508476D01*
X4878976Y-32518000D01*
X4888500Y-32527524D01*
X4898024Y-32546571D01*
X4907548Y-32584667D01*
X4907548Y-32632286D01*
X4898024Y-32670381D01*
X4888500Y-32689428D01*
X4878976Y-32698952D01*
X4859929Y-32708476D01*
X4840881Y-32708476D01*
X4821833Y-32698952D01*
X4812310Y-32689428D01*
X4802786Y-32670381D01*
X4793262Y-32632286D01*
X4793262Y-32584667D01*
X4802786Y-32546571D01*
X4812310Y-32527524D01*
X4821833Y-32518000D01*
X4840881Y-32508476D01*
X4993262Y-32708476D02*
X4993262Y-32575143D01*
X4993262Y-32594190D02*
X5002786Y-32584667D01*
X5021833Y-32575143D01*
X5050405Y-32575143D01*
X5069452Y-32584667D01*
X5078976Y-32603714D01*
X5078976Y-32708476D01*
X5078976Y-32603714D02*
X5088500Y-32584667D01*
X5107548Y-32575143D01*
X5136119Y-32575143D01*
X5155167Y-32584667D01*
X5164690Y-32603714D01*
X5164690Y-32708476D01*
X5259929Y-32708476D02*
X5259929Y-32575143D01*
X5259929Y-32594190D02*
X5269452Y-32584667D01*
X5288500Y-32575143D01*
X5317071Y-32575143D01*
X5336119Y-32584667D01*
X5345643Y-32603714D01*
X5345643Y-32708476D01*
X5345643Y-32603714D02*
X5355167Y-32584667D01*
X5374214Y-32575143D01*
X5402786Y-32575143D01*
X5421833Y-32584667D01*
X5431357Y-32603714D01*
X5431357Y-32708476D01*
X5821833Y-32498952D02*
X5650405Y-32756095D01*
X6078976Y-32508476D02*
X6098024Y-32508476D01*
X6117071Y-32518000D01*
X6126595Y-32527524D01*
X6136119Y-32546571D01*
X6145643Y-32584667D01*
X6145643Y-32632286D01*
X6136119Y-32670381D01*
X6126595Y-32689428D01*
X6117071Y-32698952D01*
X6098024Y-32708476D01*
X6078976Y-32708476D01*
X6059928Y-32698952D01*
X6050405Y-32689428D01*
X6040881Y-32670381D01*
X6031357Y-32632286D01*
X6031357Y-32584667D01*
X6040881Y-32546571D01*
X6050405Y-32527524D01*
X6059928Y-32518000D01*
X6078976Y-32508476D01*
X6231357Y-32689428D02*
X6240881Y-32698952D01*
X6231357Y-32708476D01*
X6221833Y-32698952D01*
X6231357Y-32689428D01*
X6231357Y-32708476D01*
X6431357Y-32708476D02*
X6317071Y-32708476D01*
X6374214Y-32708476D02*
X6374214Y-32508476D01*
X6355167Y-32537048D01*
X6336119Y-32556095D01*
X6317071Y-32565619D01*
X6612309Y-32508476D02*
X6517071Y-32508476D01*
X6507548Y-32603714D01*
X6517071Y-32594190D01*
X6536119Y-32584667D01*
X6583738Y-32584667D01*
X6602786Y-32594190D01*
X6612309Y-32603714D01*
X6621833Y-32622762D01*
X6621833Y-32670381D01*
X6612309Y-32689428D01*
X6602786Y-32698952D01*
X6583738Y-32708476D01*
X6536119Y-32708476D01*
X6517071Y-32698952D01*
X6507548Y-32689428D01*
X6688500Y-32508476D02*
X6821833Y-32508476D01*
X6736119Y-32708476D01*
X6993262Y-32508476D02*
X6898024Y-32508476D01*
X6888500Y-32603714D01*
X6898024Y-32594190D01*
X6917071Y-32584667D01*
X6964690Y-32584667D01*
X6983738Y-32594190D01*
X6993262Y-32603714D01*
X7002786Y-32622762D01*
X7002786Y-32670381D01*
X6993262Y-32689428D01*
X6983738Y-32698952D01*
X6964690Y-32708476D01*
X6917071Y-32708476D01*
X6898024Y-32698952D01*
X6888500Y-32689428D01*
X7078976Y-32508476D02*
X7078976Y-32546571D01*
X7155167Y-32508476D02*
X7155167Y-32546571D01*
X7450405Y-32784667D02*
X7440881Y-32775143D01*
X7421833Y-32746571D01*
X7412309Y-32727524D01*
X7402786Y-32698952D01*
X7393262Y-32651333D01*
X7393262Y-32613238D01*
X7402786Y-32565619D01*
X7412309Y-32537048D01*
X7421833Y-32518000D01*
X7440881Y-32489428D01*
X7450405Y-32479905D01*
X7507548Y-32508476D02*
X7640881Y-32508476D01*
X7555167Y-32708476D01*
X7745643Y-32594190D02*
X7726595Y-32584667D01*
X7717071Y-32575143D01*
X7707548Y-32556095D01*
X7707548Y-32546571D01*
X7717071Y-32527524D01*
X7726595Y-32518000D01*
X7745643Y-32508476D01*
X7783738Y-32508476D01*
X7802786Y-32518000D01*
X7812309Y-32527524D01*
X7821833Y-32546571D01*
X7821833Y-32556095D01*
X7812309Y-32575143D01*
X7802786Y-32584667D01*
X7783738Y-32594190D01*
X7745643Y-32594190D01*
X7726595Y-32603714D01*
X7717071Y-32613238D01*
X7707548Y-32632286D01*
X7707548Y-32670381D01*
X7717071Y-32689428D01*
X7726595Y-32698952D01*
X7745643Y-32708476D01*
X7783738Y-32708476D01*
X7802786Y-32698952D01*
X7812309Y-32689428D01*
X7821833Y-32670381D01*
X7821833Y-32632286D01*
X7812309Y-32613238D01*
X7802786Y-32603714D01*
X7783738Y-32594190D01*
X8059928Y-32708476D02*
X8059928Y-32508476D01*
X8145643Y-32708476D02*
X8145643Y-32603714D01*
X8136119Y-32584667D01*
X8117071Y-32575143D01*
X8088500Y-32575143D01*
X8069452Y-32584667D01*
X8059928Y-32594190D01*
X8269452Y-32708476D02*
X8250405Y-32698952D01*
X8240881Y-32689428D01*
X8231357Y-32670381D01*
X8231357Y-32613238D01*
X8240881Y-32594190D01*
X8250405Y-32584667D01*
X8269452Y-32575143D01*
X8298024Y-32575143D01*
X8317071Y-32584667D01*
X8326595Y-32594190D01*
X8336119Y-32613238D01*
X8336119Y-32670381D01*
X8326595Y-32689428D01*
X8317071Y-32698952D01*
X8298024Y-32708476D01*
X8269452Y-32708476D01*
X8450405Y-32708476D02*
X8431357Y-32698952D01*
X8421833Y-32679905D01*
X8421833Y-32508476D01*
X8602786Y-32698952D02*
X8583738Y-32708476D01*
X8545643Y-32708476D01*
X8526595Y-32698952D01*
X8517071Y-32679905D01*
X8517071Y-32603714D01*
X8526595Y-32584667D01*
X8545643Y-32575143D01*
X8583738Y-32575143D01*
X8602786Y-32584667D01*
X8612310Y-32603714D01*
X8612310Y-32622762D01*
X8517071Y-32641809D01*
X8688500Y-32698952D02*
X8707548Y-32708476D01*
X8745643Y-32708476D01*
X8764690Y-32698952D01*
X8774214Y-32679905D01*
X8774214Y-32670381D01*
X8764690Y-32651333D01*
X8745643Y-32641809D01*
X8717071Y-32641809D01*
X8698024Y-32632286D01*
X8688500Y-32613238D01*
X8688500Y-32603714D01*
X8698024Y-32584667D01*
X8717071Y-32575143D01*
X8745643Y-32575143D01*
X8764690Y-32584667D01*
X8840881Y-32784667D02*
X8850405Y-32775143D01*
X8869452Y-32746571D01*
X8878976Y-32727524D01*
X8888500Y-32698952D01*
X8898024Y-32651333D01*
X8898024Y-32613238D01*
X8888500Y-32565619D01*
X8878976Y-32537048D01*
X8869452Y-32518000D01*
X8850405Y-32489428D01*
X8840881Y-32479905D01*
X9202786Y-32784667D02*
X9193262Y-32775143D01*
X9174214Y-32746571D01*
X9164690Y-32727524D01*
X9155167Y-32698952D01*
X9145643Y-32651333D01*
X9145643Y-32613238D01*
X9155167Y-32565619D01*
X9164690Y-32537048D01*
X9174214Y-32518000D01*
X9193262Y-32489428D01*
X9202786Y-32479905D01*
X9278976Y-32575143D02*
X9278976Y-32708476D01*
X9278976Y-32594190D02*
X9288500Y-32584667D01*
X9307548Y-32575143D01*
X9336119Y-32575143D01*
X9355167Y-32584667D01*
X9364690Y-32603714D01*
X9364690Y-32708476D01*
X9488500Y-32708476D02*
X9469452Y-32698952D01*
X9459929Y-32689428D01*
X9450405Y-32670381D01*
X9450405Y-32613238D01*
X9459929Y-32594190D01*
X9469452Y-32584667D01*
X9488500Y-32575143D01*
X9517071Y-32575143D01*
X9536119Y-32584667D01*
X9545643Y-32594190D01*
X9555167Y-32613238D01*
X9555167Y-32670381D01*
X9545643Y-32689428D01*
X9536119Y-32698952D01*
X9517071Y-32708476D01*
X9488500Y-32708476D01*
X9612310Y-32575143D02*
X9688500Y-32575143D01*
X9640881Y-32508476D02*
X9640881Y-32679905D01*
X9650405Y-32698952D01*
X9669452Y-32708476D01*
X9688500Y-32708476D01*
X9907548Y-32575143D02*
X9907548Y-32775143D01*
X9907548Y-32584667D02*
X9926595Y-32575143D01*
X9964690Y-32575143D01*
X9983738Y-32584667D01*
X9993262Y-32594190D01*
X10002786Y-32613238D01*
X10002786Y-32670381D01*
X9993262Y-32689428D01*
X9983738Y-32698952D01*
X9964690Y-32708476D01*
X9926595Y-32708476D01*
X9907548Y-32698952D01*
X10117071Y-32708476D02*
X10098024Y-32698952D01*
X10088500Y-32679905D01*
X10088500Y-32508476D01*
X10278976Y-32708476D02*
X10278976Y-32603714D01*
X10269452Y-32584667D01*
X10250405Y-32575143D01*
X10212310Y-32575143D01*
X10193262Y-32584667D01*
X10278976Y-32698952D02*
X10259929Y-32708476D01*
X10212310Y-32708476D01*
X10193262Y-32698952D01*
X10183738Y-32679905D01*
X10183738Y-32660857D01*
X10193262Y-32641809D01*
X10212310Y-32632286D01*
X10259929Y-32632286D01*
X10278976Y-32622762D01*
X10345643Y-32575143D02*
X10421833Y-32575143D01*
X10374214Y-32508476D02*
X10374214Y-32679905D01*
X10383738Y-32698952D01*
X10402786Y-32708476D01*
X10421833Y-32708476D01*
X10564690Y-32698952D02*
X10545643Y-32708476D01*
X10507548Y-32708476D01*
X10488500Y-32698952D01*
X10478976Y-32679905D01*
X10478976Y-32603714D01*
X10488500Y-32584667D01*
X10507548Y-32575143D01*
X10545643Y-32575143D01*
X10564690Y-32584667D01*
X10574214Y-32603714D01*
X10574214Y-32622762D01*
X10478976Y-32641809D01*
X10745643Y-32708476D02*
X10745643Y-32508476D01*
X10745643Y-32698952D02*
X10726595Y-32708476D01*
X10688500Y-32708476D01*
X10669452Y-32698952D01*
X10659929Y-32689428D01*
X10650405Y-32670381D01*
X10650405Y-32613238D01*
X10659929Y-32594190D01*
X10669452Y-32584667D01*
X10688500Y-32575143D01*
X10726595Y-32575143D01*
X10745643Y-32584667D01*
X10821833Y-32784667D02*
X10831357Y-32775143D01*
X10850405Y-32746571D01*
X10859929Y-32727524D01*
X10869452Y-32698952D01*
X10878976Y-32651333D01*
X10878976Y-32613238D01*
X10869452Y-32565619D01*
X10859929Y-32537048D01*
X10850405Y-32518000D01*
X10831357Y-32489428D01*
X10821833Y-32479905D01*
M02*
