G04 #@! TF.GenerationSoftware,KiCad,Pcbnew,5.1.5+dfsg1-2build2*
G04 #@! TF.CreationDate,2020-11-07T01:55:29-05:00*
G04 #@! TF.ProjectId,atari-keyboard,61746172-692d-46b6-9579-626f6172642e,rev?*
G04 #@! TF.SameCoordinates,Original*
G04 #@! TF.FileFunction,Legend,Top*
G04 #@! TF.FilePolarity,Positive*
%FSLAX46Y46*%
G04 Gerber Fmt 4.6, Leading zero omitted, Abs format (unit mm)*
G04 Created by KiCad (PCBNEW 5.1.5+dfsg1-2build2) date 2020-11-07 01:55:29*
%MOMM*%
%LPD*%
G04 APERTURE LIST*
%ADD10C,0.120000*%
%ADD11C,0.150000*%
G04 APERTURE END LIST*
D10*
X120425000Y-116765000D02*
X120425000Y-102795000D01*
X134395000Y-116765000D02*
X120425000Y-116765000D01*
X134395000Y-102795000D02*
X134395000Y-116765000D01*
X120425000Y-102795000D02*
X134395000Y-102795000D01*
X235743750Y-97790000D02*
X235743750Y-83820000D01*
X249713750Y-97790000D02*
X235743750Y-97790000D01*
X249713750Y-83820000D02*
X249713750Y-97790000D01*
X235743750Y-83820000D02*
X249713750Y-83820000D01*
X7143750Y-97715000D02*
X7143750Y-83745000D01*
X21113750Y-97715000D02*
X7143750Y-97715000D01*
X21113750Y-83745000D02*
X21113750Y-97715000D01*
X7143750Y-83745000D02*
X21113750Y-83745000D01*
X259575000Y-78715000D02*
X259575000Y-64745000D01*
X273545000Y-78715000D02*
X259575000Y-78715000D01*
X273545000Y-64745000D02*
X273545000Y-78715000D01*
X259575000Y-64745000D02*
X273545000Y-64745000D01*
X0Y-78715000D02*
X0Y-64745000D01*
X13970000Y-78715000D02*
X0Y-78715000D01*
X13970000Y-64745000D02*
X13970000Y-78715000D01*
X0Y-64745000D02*
X13970000Y-64745000D01*
X257175000Y-59690000D02*
X257175000Y-45720000D01*
X271145000Y-59690000D02*
X257175000Y-59690000D01*
X271145000Y-45720000D02*
X271145000Y-59690000D01*
X257175000Y-45720000D02*
X271145000Y-45720000D01*
X-2381250Y-59690000D02*
X-2381250Y-45720000D01*
X11588750Y-59690000D02*
X-2381250Y-59690000D01*
X11588750Y-45720000D02*
X11588750Y-59690000D01*
X-2381250Y-45720000D02*
X11588750Y-45720000D01*
X-7143750Y-40640000D02*
X-7143750Y-26670000D01*
X6826250Y-40640000D02*
X-7143750Y-40640000D01*
X6826250Y-26670000D02*
X6826250Y-40640000D01*
X-7143750Y-26670000D02*
X6826250Y-26670000D01*
X114300000Y-97715000D02*
X114300000Y-83745000D01*
X128270000Y-97715000D02*
X114300000Y-97715000D01*
X128270000Y-83745000D02*
X128270000Y-97715000D01*
X114300000Y-83745000D02*
X128270000Y-83745000D01*
X219075000Y-78715000D02*
X219075000Y-64745000D01*
X233045000Y-78715000D02*
X219075000Y-78715000D01*
X233045000Y-64745000D02*
X233045000Y-78715000D01*
X219075000Y-64745000D02*
X233045000Y-64745000D01*
X66675000Y-78715000D02*
X66675000Y-64745000D01*
X80645000Y-78715000D02*
X66675000Y-78715000D01*
X80645000Y-64745000D02*
X80645000Y-78715000D01*
X66675000Y-64745000D02*
X80645000Y-64745000D01*
X176212000Y-59690000D02*
X176212000Y-45720000D01*
X190182000Y-59690000D02*
X176212000Y-59690000D01*
X190182000Y-45720000D02*
X190182000Y-59690000D01*
X176212000Y-45720000D02*
X190182000Y-45720000D01*
X23812500Y-59690000D02*
X23812500Y-45720000D01*
X37782500Y-59690000D02*
X23812500Y-59690000D01*
X37782500Y-45720000D02*
X37782500Y-59690000D01*
X23812500Y-45720000D02*
X37782500Y-45720000D01*
X147637500Y-40640000D02*
X147637500Y-26670000D01*
X161607500Y-40640000D02*
X147637500Y-40640000D01*
X161607500Y-26670000D02*
X161607500Y-40640000D01*
X147637500Y-26670000D02*
X161607500Y-26670000D01*
X261937500Y-97715000D02*
X261937500Y-83745000D01*
X275907500Y-97715000D02*
X261937500Y-97715000D01*
X275907500Y-83745000D02*
X275907500Y-97715000D01*
X261937500Y-83745000D02*
X275907500Y-83745000D01*
X95250000Y-97715000D02*
X95250000Y-83745000D01*
X109220000Y-97715000D02*
X95250000Y-97715000D01*
X109220000Y-83745000D02*
X109220000Y-97715000D01*
X95250000Y-83745000D02*
X109220000Y-83745000D01*
X200025000Y-78715000D02*
X200025000Y-64745000D01*
X213995000Y-78715000D02*
X200025000Y-78715000D01*
X213995000Y-64745000D02*
X213995000Y-78715000D01*
X200025000Y-64745000D02*
X213995000Y-64745000D01*
X47625000Y-78715000D02*
X47625000Y-64745000D01*
X61595000Y-78715000D02*
X47625000Y-78715000D01*
X61595000Y-64745000D02*
X61595000Y-78715000D01*
X47625000Y-64745000D02*
X61595000Y-64745000D01*
X157162500Y-59690000D02*
X157162500Y-45720000D01*
X171132500Y-59690000D02*
X157162500Y-59690000D01*
X171132500Y-45720000D02*
X171132500Y-59690000D01*
X157162500Y-45720000D02*
X171132500Y-45720000D01*
X128587500Y-40640000D02*
X128587500Y-26670000D01*
X142557500Y-40640000D02*
X128587500Y-40640000D01*
X142557500Y-26670000D02*
X142557500Y-40640000D01*
X128587500Y-26670000D02*
X142557500Y-26670000D01*
X257175000Y-12065000D02*
X257175000Y1905000D01*
X271145000Y-12065000D02*
X257175000Y-12065000D01*
X271145000Y1905000D02*
X271145000Y-12065000D01*
X257175000Y1905000D02*
X271145000Y1905000D01*
X76200000Y-97715000D02*
X76200000Y-83745000D01*
X90170000Y-97715000D02*
X76200000Y-97715000D01*
X90170000Y-83745000D02*
X90170000Y-97715000D01*
X76200000Y-83745000D02*
X90170000Y-83745000D01*
X180975000Y-78715000D02*
X180975000Y-64745000D01*
X194945000Y-78715000D02*
X180975000Y-78715000D01*
X194945000Y-64745000D02*
X194945000Y-78715000D01*
X180975000Y-64745000D02*
X194945000Y-64745000D01*
X28575000Y-78715000D02*
X28575000Y-64745000D01*
X42545000Y-78715000D02*
X28575000Y-78715000D01*
X42545000Y-64745000D02*
X42545000Y-78715000D01*
X28575000Y-64745000D02*
X42545000Y-64745000D01*
X138112500Y-59690000D02*
X138112500Y-45720000D01*
X152082500Y-59690000D02*
X138112500Y-59690000D01*
X152082500Y-45720000D02*
X152082500Y-59690000D01*
X138112500Y-45720000D02*
X152082500Y-45720000D01*
X261937500Y-40640000D02*
X261937500Y-26670000D01*
X275907500Y-40640000D02*
X261937500Y-40640000D01*
X275907500Y-26670000D02*
X275907500Y-40640000D01*
X261937500Y-26670000D02*
X275907500Y-26670000D01*
X109537500Y-40640000D02*
X109537500Y-26670000D01*
X123507500Y-40640000D02*
X109537500Y-40640000D01*
X123507500Y-26670000D02*
X123507500Y-40640000D01*
X109537500Y-26670000D02*
X123507500Y-26670000D01*
X233362500Y-12065000D02*
X233362500Y1905000D01*
X247332500Y-12065000D02*
X233362500Y-12065000D01*
X247332500Y1905000D02*
X247332500Y-12065000D01*
X233362500Y1905000D02*
X247332500Y1905000D01*
X209550000Y-97715000D02*
X209550000Y-83745000D01*
X223520000Y-97715000D02*
X209550000Y-97715000D01*
X223520000Y-83745000D02*
X223520000Y-97715000D01*
X209550000Y-83745000D02*
X223520000Y-83745000D01*
X57150000Y-97715000D02*
X57150000Y-83745000D01*
X71120000Y-97715000D02*
X57150000Y-97715000D01*
X71120000Y-83745000D02*
X71120000Y-97715000D01*
X57150000Y-83745000D02*
X71120000Y-83745000D01*
X161925000Y-78715000D02*
X161925000Y-64745000D01*
X175895000Y-78715000D02*
X161925000Y-78715000D01*
X175895000Y-64745000D02*
X175895000Y-78715000D01*
X161925000Y-64745000D02*
X175895000Y-64745000D01*
X119062500Y-59690000D02*
X119062500Y-45720000D01*
X133032500Y-59690000D02*
X119062500Y-59690000D01*
X133032500Y-45720000D02*
X133032500Y-59690000D01*
X119062500Y-45720000D02*
X133032500Y-45720000D01*
X242887500Y-40640000D02*
X242887500Y-26670000D01*
X256857500Y-40640000D02*
X242887500Y-40640000D01*
X256857500Y-26670000D02*
X256857500Y-40640000D01*
X242887500Y-26670000D02*
X256857500Y-26670000D01*
X90487500Y-40640000D02*
X90487500Y-26670000D01*
X104457500Y-40640000D02*
X90487500Y-40640000D01*
X104457500Y-26670000D02*
X104457500Y-40640000D01*
X90487500Y-26670000D02*
X104457500Y-26670000D01*
X209550000Y-12065000D02*
X209550000Y1905000D01*
X223520000Y-12065000D02*
X209550000Y-12065000D01*
X223520000Y1905000D02*
X223520000Y-12065000D01*
X209550000Y1905000D02*
X223520000Y1905000D01*
X190500000Y-97715000D02*
X190500000Y-83745000D01*
X204470000Y-97715000D02*
X190500000Y-97715000D01*
X204470000Y-83745000D02*
X204470000Y-97715000D01*
X190500000Y-83745000D02*
X204470000Y-83745000D01*
X38100000Y-97715000D02*
X38100000Y-83745000D01*
X52070000Y-97715000D02*
X38100000Y-97715000D01*
X52070000Y-83745000D02*
X52070000Y-97715000D01*
X38100000Y-83745000D02*
X52070000Y-83745000D01*
X142875000Y-78715000D02*
X142875000Y-64745000D01*
X156845000Y-78715000D02*
X142875000Y-78715000D01*
X156845000Y-64745000D02*
X156845000Y-78715000D01*
X142875000Y-64745000D02*
X156845000Y-64745000D01*
X100012500Y-59690000D02*
X100012500Y-45720000D01*
X113982500Y-59690000D02*
X100012500Y-59690000D01*
X113982500Y-45720000D02*
X113982500Y-59690000D01*
X100012500Y-45720000D02*
X113982500Y-45720000D01*
X223837500Y-40640000D02*
X223837500Y-26670000D01*
X237807500Y-40640000D02*
X223837500Y-40640000D01*
X237807500Y-26670000D02*
X237807500Y-40640000D01*
X223837500Y-26670000D02*
X237807500Y-26670000D01*
X71437500Y-40640000D02*
X71437500Y-26670000D01*
X85407500Y-40640000D02*
X71437500Y-40640000D01*
X85407500Y-26670000D02*
X85407500Y-40640000D01*
X71437500Y-26670000D02*
X85407500Y-26670000D01*
X185737500Y-12065000D02*
X185737500Y1905000D01*
X199707500Y-12065000D02*
X185737500Y-12065000D01*
X199707500Y1905000D02*
X199707500Y-12065000D01*
X185737500Y1905000D02*
X199707500Y1905000D01*
X171450000Y-97715000D02*
X171450000Y-83745000D01*
X185420000Y-97715000D02*
X171450000Y-97715000D01*
X185420000Y-83745000D02*
X185420000Y-97715000D01*
X171450000Y-83745000D02*
X185420000Y-83745000D01*
X123825000Y-78715000D02*
X123825000Y-64745000D01*
X137795000Y-78715000D02*
X123825000Y-78715000D01*
X137795000Y-64745000D02*
X137795000Y-78715000D01*
X123825000Y-64745000D02*
X137795000Y-64745000D01*
X233362500Y-59690000D02*
X233362500Y-45720000D01*
X247332500Y-59690000D02*
X233362500Y-59690000D01*
X247332500Y-45720000D02*
X247332500Y-59690000D01*
X233362500Y-45720000D02*
X247332500Y-45720000D01*
X80962500Y-59690000D02*
X80962500Y-45720000D01*
X94932500Y-59690000D02*
X80962500Y-59690000D01*
X94932500Y-45720000D02*
X94932500Y-59690000D01*
X80962500Y-45720000D02*
X94932500Y-45720000D01*
X204787500Y-40640000D02*
X204787500Y-26670000D01*
X218757500Y-40640000D02*
X204787500Y-40640000D01*
X218757500Y-26670000D02*
X218757500Y-40640000D01*
X204787500Y-26670000D02*
X218757500Y-26670000D01*
X52387500Y-40640000D02*
X52387500Y-26670000D01*
X66357500Y-40640000D02*
X52387500Y-40640000D01*
X66357500Y-26670000D02*
X66357500Y-40640000D01*
X52387500Y-26670000D02*
X66357500Y-26670000D01*
X161925000Y-12065000D02*
X161925000Y1905000D01*
X175895000Y-12065000D02*
X161925000Y-12065000D01*
X175895000Y1905000D02*
X175895000Y-12065000D01*
X161925000Y1905000D02*
X175895000Y1905000D01*
X152400000Y-97715000D02*
X152400000Y-83745000D01*
X166370000Y-97715000D02*
X152400000Y-97715000D01*
X166370000Y-83745000D02*
X166370000Y-97715000D01*
X152400000Y-83745000D02*
X166370000Y-83745000D01*
X104775000Y-78715000D02*
X104775000Y-64745000D01*
X118745000Y-78715000D02*
X104775000Y-78715000D01*
X118745000Y-64745000D02*
X118745000Y-78715000D01*
X104775000Y-64745000D02*
X118745000Y-64745000D01*
X214312500Y-59690000D02*
X214312500Y-45720000D01*
X228282500Y-59690000D02*
X214312500Y-59690000D01*
X228282500Y-45720000D02*
X228282500Y-59690000D01*
X214312500Y-45720000D02*
X228282500Y-45720000D01*
X61912500Y-59690000D02*
X61912500Y-45720000D01*
X75882500Y-59690000D02*
X61912500Y-59690000D01*
X75882500Y-45720000D02*
X75882500Y-59690000D01*
X61912500Y-45720000D02*
X75882500Y-45720000D01*
X185737500Y-40640000D02*
X185737500Y-26670000D01*
X199707500Y-40640000D02*
X185737500Y-40640000D01*
X199707500Y-26670000D02*
X199707500Y-40640000D01*
X185737500Y-26670000D02*
X199707500Y-26670000D01*
X33337500Y-40640000D02*
X33337500Y-26670000D01*
X47307500Y-40640000D02*
X33337500Y-40640000D01*
X47307500Y-26670000D02*
X47307500Y-40640000D01*
X33337500Y-26670000D02*
X47307500Y-26670000D01*
X76200000Y-12065000D02*
X76200000Y1905000D01*
X90170000Y-12065000D02*
X76200000Y-12065000D01*
X90170000Y1905000D02*
X90170000Y-12065000D01*
X76200000Y1905000D02*
X90170000Y1905000D01*
X133350000Y-97715000D02*
X133350000Y-83745000D01*
X147320000Y-97715000D02*
X133350000Y-97715000D01*
X147320000Y-83745000D02*
X147320000Y-97715000D01*
X133350000Y-83745000D02*
X147320000Y-83745000D01*
X238125000Y-78715000D02*
X238125000Y-64745000D01*
X252095000Y-78715000D02*
X238125000Y-78715000D01*
X252095000Y-64745000D02*
X252095000Y-78715000D01*
X238125000Y-64745000D02*
X252095000Y-64745000D01*
X85725000Y-78715000D02*
X85725000Y-64745000D01*
X99695000Y-78715000D02*
X85725000Y-78715000D01*
X99695000Y-64745000D02*
X99695000Y-78715000D01*
X85725000Y-64745000D02*
X99695000Y-64745000D01*
X195262500Y-59690000D02*
X195262500Y-45720000D01*
X209232500Y-59690000D02*
X195262500Y-59690000D01*
X209232500Y-45720000D02*
X209232500Y-59690000D01*
X195262500Y-45720000D02*
X209232500Y-45720000D01*
X42862500Y-59690000D02*
X42862500Y-45720000D01*
X56832500Y-59690000D02*
X42862500Y-59690000D01*
X56832500Y-45720000D02*
X56832500Y-59690000D01*
X42862500Y-45720000D02*
X56832500Y-45720000D01*
X166687500Y-40640000D02*
X166687500Y-26670000D01*
X180657500Y-40640000D02*
X166687500Y-40640000D01*
X180657500Y-26670000D02*
X180657500Y-40640000D01*
X166687500Y-26670000D02*
X180657500Y-26670000D01*
X14287500Y-40640000D02*
X14287500Y-26670000D01*
X28257500Y-40640000D02*
X14287500Y-40640000D01*
X28257500Y-26670000D02*
X28257500Y-40640000D01*
X14287500Y-26670000D02*
X28257500Y-26670000D01*
X52387500Y-12065000D02*
X52387500Y1905000D01*
X66357500Y-12065000D02*
X52387500Y-12065000D01*
X66357500Y1905000D02*
X66357500Y-12065000D01*
X52387500Y1905000D02*
X66357500Y1905000D01*
D11*
X-12190000Y-14065000D02*
X18290000Y-14065000D01*
X-12190000Y-14065000D02*
X-12190000Y-8985000D01*
X-12190000Y-8985000D02*
X-14730000Y-8985000D01*
X-14730000Y-8985000D02*
X-14730000Y-1365000D01*
X-14730000Y-1365000D02*
X-12190000Y-1365000D01*
X-12190000Y-1365000D02*
X-12190000Y3715000D01*
X-12190000Y3715000D02*
X18290000Y3715000D01*
X18290000Y3715000D02*
X18290000Y-14065000D01*
X-18761904Y-116252380D02*
X-18761904Y-115252380D01*
X-18761904Y-115728571D02*
X-18190476Y-115728571D01*
X-18190476Y-116252380D02*
X-18190476Y-115252380D01*
X-17285714Y-115585714D02*
X-17285714Y-116252380D01*
X-17523809Y-115204761D02*
X-17761904Y-115919047D01*
X-17142857Y-115919047D01*
X284238095Y-116252380D02*
X284238095Y-115252380D01*
X284238095Y-115728571D02*
X284809523Y-115728571D01*
X284809523Y-116252380D02*
X284809523Y-115252380D01*
X285190476Y-115252380D02*
X285809523Y-115252380D01*
X285476190Y-115633333D01*
X285619047Y-115633333D01*
X285714285Y-115680952D01*
X285761904Y-115728571D01*
X285809523Y-115823809D01*
X285809523Y-116061904D01*
X285761904Y-116157142D01*
X285714285Y-116204761D01*
X285619047Y-116252380D01*
X285333333Y-116252380D01*
X285238095Y-116204761D01*
X285190476Y-116157142D01*
X283238095Y8747619D02*
X283238095Y9747619D01*
X283238095Y9271428D02*
X283809523Y9271428D01*
X283809523Y8747619D02*
X283809523Y9747619D01*
X284238095Y9652380D02*
X284285714Y9700000D01*
X284380952Y9747619D01*
X284619047Y9747619D01*
X284714285Y9700000D01*
X284761904Y9652380D01*
X284809523Y9557142D01*
X284809523Y9461904D01*
X284761904Y9319047D01*
X284190476Y8747619D01*
X284809523Y8747619D01*
X-18761904Y8747619D02*
X-18761904Y9747619D01*
X-18761904Y9271428D02*
X-18190476Y9271428D01*
X-18190476Y8747619D02*
X-18190476Y9747619D01*
X-17190476Y8747619D02*
X-17761904Y8747619D01*
X-17476190Y8747619D02*
X-17476190Y9747619D01*
X-17571428Y9604761D01*
X-17666666Y9509523D01*
X-17761904Y9461904D01*
X125600476Y-102310761D02*
X125743333Y-102358380D01*
X125981428Y-102358380D01*
X126076666Y-102310761D01*
X126124285Y-102263142D01*
X126171904Y-102167904D01*
X126171904Y-102072666D01*
X126124285Y-101977428D01*
X126076666Y-101929809D01*
X125981428Y-101882190D01*
X125790952Y-101834571D01*
X125695714Y-101786952D01*
X125648095Y-101739333D01*
X125600476Y-101644095D01*
X125600476Y-101548857D01*
X125648095Y-101453619D01*
X125695714Y-101406000D01*
X125790952Y-101358380D01*
X126029047Y-101358380D01*
X126171904Y-101406000D01*
X126505238Y-101358380D02*
X126743333Y-102358380D01*
X126933809Y-101644095D01*
X127124285Y-102358380D01*
X127362380Y-101358380D01*
X128171904Y-101358380D02*
X127981428Y-101358380D01*
X127886190Y-101406000D01*
X127838571Y-101453619D01*
X127743333Y-101596476D01*
X127695714Y-101786952D01*
X127695714Y-102167904D01*
X127743333Y-102263142D01*
X127790952Y-102310761D01*
X127886190Y-102358380D01*
X128076666Y-102358380D01*
X128171904Y-102310761D01*
X128219523Y-102263142D01*
X128267142Y-102167904D01*
X128267142Y-101929809D01*
X128219523Y-101834571D01*
X128171904Y-101786952D01*
X128076666Y-101739333D01*
X127886190Y-101739333D01*
X127790952Y-101786952D01*
X127743333Y-101834571D01*
X127695714Y-101929809D01*
X129124285Y-101691714D02*
X129124285Y-102358380D01*
X128886190Y-101310761D02*
X128648095Y-102025047D01*
X129267142Y-102025047D01*
X126124285Y-118058761D02*
X126267142Y-118106380D01*
X126505238Y-118106380D01*
X126600476Y-118058761D01*
X126648095Y-118011142D01*
X126695714Y-117915904D01*
X126695714Y-117820666D01*
X126648095Y-117725428D01*
X126600476Y-117677809D01*
X126505238Y-117630190D01*
X126314761Y-117582571D01*
X126219523Y-117534952D01*
X126171904Y-117487333D01*
X126124285Y-117392095D01*
X126124285Y-117296857D01*
X126171904Y-117201619D01*
X126219523Y-117154000D01*
X126314761Y-117106380D01*
X126552857Y-117106380D01*
X126695714Y-117154000D01*
X127124285Y-118106380D02*
X127124285Y-117106380D01*
X127505238Y-117106380D01*
X127600476Y-117154000D01*
X127648095Y-117201619D01*
X127695714Y-117296857D01*
X127695714Y-117439714D01*
X127648095Y-117534952D01*
X127600476Y-117582571D01*
X127505238Y-117630190D01*
X127124285Y-117630190D01*
X128695714Y-118011142D02*
X128648095Y-118058761D01*
X128505238Y-118106380D01*
X128410000Y-118106380D01*
X128267142Y-118058761D01*
X128171904Y-117963523D01*
X128124285Y-117868285D01*
X128076666Y-117677809D01*
X128076666Y-117534952D01*
X128124285Y-117344476D01*
X128171904Y-117249238D01*
X128267142Y-117154000D01*
X128410000Y-117106380D01*
X128505238Y-117106380D01*
X128648095Y-117154000D01*
X128695714Y-117201619D01*
X240919226Y-83335761D02*
X241062083Y-83383380D01*
X241300178Y-83383380D01*
X241395416Y-83335761D01*
X241443035Y-83288142D01*
X241490654Y-83192904D01*
X241490654Y-83097666D01*
X241443035Y-83002428D01*
X241395416Y-82954809D01*
X241300178Y-82907190D01*
X241109702Y-82859571D01*
X241014464Y-82811952D01*
X240966845Y-82764333D01*
X240919226Y-82669095D01*
X240919226Y-82573857D01*
X240966845Y-82478619D01*
X241014464Y-82431000D01*
X241109702Y-82383380D01*
X241347797Y-82383380D01*
X241490654Y-82431000D01*
X241823988Y-82383380D02*
X242062083Y-83383380D01*
X242252559Y-82669095D01*
X242443035Y-83383380D01*
X242681130Y-82383380D01*
X243490654Y-82716714D02*
X243490654Y-83383380D01*
X243252559Y-82335761D02*
X243014464Y-83050047D01*
X243633511Y-83050047D01*
X244157321Y-82811952D02*
X244062083Y-82764333D01*
X244014464Y-82716714D01*
X243966845Y-82621476D01*
X243966845Y-82573857D01*
X244014464Y-82478619D01*
X244062083Y-82431000D01*
X244157321Y-82383380D01*
X244347797Y-82383380D01*
X244443035Y-82431000D01*
X244490654Y-82478619D01*
X244538273Y-82573857D01*
X244538273Y-82621476D01*
X244490654Y-82716714D01*
X244443035Y-82764333D01*
X244347797Y-82811952D01*
X244157321Y-82811952D01*
X244062083Y-82859571D01*
X244014464Y-82907190D01*
X243966845Y-83002428D01*
X243966845Y-83192904D01*
X244014464Y-83288142D01*
X244062083Y-83335761D01*
X244157321Y-83383380D01*
X244347797Y-83383380D01*
X244443035Y-83335761D01*
X244490654Y-83288142D01*
X244538273Y-83192904D01*
X244538273Y-83002428D01*
X244490654Y-82907190D01*
X244443035Y-82859571D01*
X244347797Y-82811952D01*
X240990654Y-99131380D02*
X240657321Y-98655190D01*
X240419226Y-99131380D02*
X240419226Y-98131380D01*
X240800178Y-98131380D01*
X240895416Y-98179000D01*
X240943035Y-98226619D01*
X240990654Y-98321857D01*
X240990654Y-98464714D01*
X240943035Y-98559952D01*
X240895416Y-98607571D01*
X240800178Y-98655190D01*
X240419226Y-98655190D01*
X241371607Y-99083761D02*
X241514464Y-99131380D01*
X241752559Y-99131380D01*
X241847797Y-99083761D01*
X241895416Y-99036142D01*
X241943035Y-98940904D01*
X241943035Y-98845666D01*
X241895416Y-98750428D01*
X241847797Y-98702809D01*
X241752559Y-98655190D01*
X241562083Y-98607571D01*
X241466845Y-98559952D01*
X241419226Y-98512333D01*
X241371607Y-98417095D01*
X241371607Y-98321857D01*
X241419226Y-98226619D01*
X241466845Y-98179000D01*
X241562083Y-98131380D01*
X241800178Y-98131380D01*
X241943035Y-98179000D01*
X242371607Y-99131380D02*
X242371607Y-98131380D01*
X242371607Y-98607571D02*
X242943035Y-98607571D01*
X242943035Y-99131380D02*
X242943035Y-98131380D01*
X243419226Y-99131380D02*
X243419226Y-98131380D01*
X244228750Y-98607571D02*
X243895416Y-98607571D01*
X243895416Y-99131380D02*
X243895416Y-98131380D01*
X244371607Y-98131380D01*
X244609702Y-98131380D02*
X245181130Y-98131380D01*
X244895416Y-99131380D02*
X244895416Y-98131380D01*
X12319226Y-83260761D02*
X12462083Y-83308380D01*
X12700178Y-83308380D01*
X12795416Y-83260761D01*
X12843035Y-83213142D01*
X12890654Y-83117904D01*
X12890654Y-83022666D01*
X12843035Y-82927428D01*
X12795416Y-82879809D01*
X12700178Y-82832190D01*
X12509702Y-82784571D01*
X12414464Y-82736952D01*
X12366845Y-82689333D01*
X12319226Y-82594095D01*
X12319226Y-82498857D01*
X12366845Y-82403619D01*
X12414464Y-82356000D01*
X12509702Y-82308380D01*
X12747797Y-82308380D01*
X12890654Y-82356000D01*
X13223988Y-82308380D02*
X13462083Y-83308380D01*
X13652559Y-82594095D01*
X13843035Y-83308380D01*
X14081130Y-82308380D01*
X14414464Y-82403619D02*
X14462083Y-82356000D01*
X14557321Y-82308380D01*
X14795416Y-82308380D01*
X14890654Y-82356000D01*
X14938273Y-82403619D01*
X14985892Y-82498857D01*
X14985892Y-82594095D01*
X14938273Y-82736952D01*
X14366845Y-83308380D01*
X14985892Y-83308380D01*
X15319226Y-82308380D02*
X15938273Y-82308380D01*
X15604940Y-82689333D01*
X15747797Y-82689333D01*
X15843035Y-82736952D01*
X15890654Y-82784571D01*
X15938273Y-82879809D01*
X15938273Y-83117904D01*
X15890654Y-83213142D01*
X15843035Y-83260761D01*
X15747797Y-83308380D01*
X15462083Y-83308380D01*
X15366845Y-83260761D01*
X15319226Y-83213142D01*
X12390654Y-99056380D02*
X11914464Y-99056380D01*
X11914464Y-98056380D01*
X12676369Y-99008761D02*
X12819226Y-99056380D01*
X13057321Y-99056380D01*
X13152559Y-99008761D01*
X13200178Y-98961142D01*
X13247797Y-98865904D01*
X13247797Y-98770666D01*
X13200178Y-98675428D01*
X13152559Y-98627809D01*
X13057321Y-98580190D01*
X12866845Y-98532571D01*
X12771607Y-98484952D01*
X12723988Y-98437333D01*
X12676369Y-98342095D01*
X12676369Y-98246857D01*
X12723988Y-98151619D01*
X12771607Y-98104000D01*
X12866845Y-98056380D01*
X13104940Y-98056380D01*
X13247797Y-98104000D01*
X13676369Y-99056380D02*
X13676369Y-98056380D01*
X13676369Y-98532571D02*
X14247797Y-98532571D01*
X14247797Y-99056380D02*
X14247797Y-98056380D01*
X14723988Y-99056380D02*
X14723988Y-98056380D01*
X15533511Y-98532571D02*
X15200178Y-98532571D01*
X15200178Y-99056380D02*
X15200178Y-98056380D01*
X15676369Y-98056380D01*
X15914464Y-98056380D02*
X16485892Y-98056380D01*
X16200178Y-99056380D02*
X16200178Y-98056380D01*
X264750476Y-64260761D02*
X264893333Y-64308380D01*
X265131428Y-64308380D01*
X265226666Y-64260761D01*
X265274285Y-64213142D01*
X265321904Y-64117904D01*
X265321904Y-64022666D01*
X265274285Y-63927428D01*
X265226666Y-63879809D01*
X265131428Y-63832190D01*
X264940952Y-63784571D01*
X264845714Y-63736952D01*
X264798095Y-63689333D01*
X264750476Y-63594095D01*
X264750476Y-63498857D01*
X264798095Y-63403619D01*
X264845714Y-63356000D01*
X264940952Y-63308380D01*
X265179047Y-63308380D01*
X265321904Y-63356000D01*
X265655238Y-63308380D02*
X265893333Y-64308380D01*
X266083809Y-63594095D01*
X266274285Y-64308380D01*
X266512380Y-63308380D01*
X267417142Y-64308380D02*
X266845714Y-64308380D01*
X267131428Y-64308380D02*
X267131428Y-63308380D01*
X267036190Y-63451238D01*
X266940952Y-63546476D01*
X266845714Y-63594095D01*
X268321904Y-63308380D02*
X267845714Y-63308380D01*
X267798095Y-63784571D01*
X267845714Y-63736952D01*
X267940952Y-63689333D01*
X268179047Y-63689333D01*
X268274285Y-63736952D01*
X268321904Y-63784571D01*
X268369523Y-63879809D01*
X268369523Y-64117904D01*
X268321904Y-64213142D01*
X268274285Y-64260761D01*
X268179047Y-64308380D01*
X267940952Y-64308380D01*
X267845714Y-64260761D01*
X267798095Y-64213142D01*
X265464761Y-79961142D02*
X265417142Y-80008761D01*
X265274285Y-80056380D01*
X265179047Y-80056380D01*
X265036190Y-80008761D01*
X264940952Y-79913523D01*
X264893333Y-79818285D01*
X264845714Y-79627809D01*
X264845714Y-79484952D01*
X264893333Y-79294476D01*
X264940952Y-79199238D01*
X265036190Y-79104000D01*
X265179047Y-79056380D01*
X265274285Y-79056380D01*
X265417142Y-79104000D01*
X265464761Y-79151619D01*
X265845714Y-79770666D02*
X266321904Y-79770666D01*
X265750476Y-80056380D02*
X266083809Y-79056380D01*
X266417142Y-80056380D01*
X266750476Y-80056380D02*
X266750476Y-79056380D01*
X267131428Y-79056380D01*
X267226666Y-79104000D01*
X267274285Y-79151619D01*
X267321904Y-79246857D01*
X267321904Y-79389714D01*
X267274285Y-79484952D01*
X267226666Y-79532571D01*
X267131428Y-79580190D01*
X266750476Y-79580190D01*
X267702857Y-80008761D02*
X267845714Y-80056380D01*
X268083809Y-80056380D01*
X268179047Y-80008761D01*
X268226666Y-79961142D01*
X268274285Y-79865904D01*
X268274285Y-79770666D01*
X268226666Y-79675428D01*
X268179047Y-79627809D01*
X268083809Y-79580190D01*
X267893333Y-79532571D01*
X267798095Y-79484952D01*
X267750476Y-79437333D01*
X267702857Y-79342095D01*
X267702857Y-79246857D01*
X267750476Y-79151619D01*
X267798095Y-79104000D01*
X267893333Y-79056380D01*
X268131428Y-79056380D01*
X268274285Y-79104000D01*
X5175476Y-64260761D02*
X5318333Y-64308380D01*
X5556428Y-64308380D01*
X5651666Y-64260761D01*
X5699285Y-64213142D01*
X5746904Y-64117904D01*
X5746904Y-64022666D01*
X5699285Y-63927428D01*
X5651666Y-63879809D01*
X5556428Y-63832190D01*
X5365952Y-63784571D01*
X5270714Y-63736952D01*
X5223095Y-63689333D01*
X5175476Y-63594095D01*
X5175476Y-63498857D01*
X5223095Y-63403619D01*
X5270714Y-63356000D01*
X5365952Y-63308380D01*
X5604047Y-63308380D01*
X5746904Y-63356000D01*
X6080238Y-63308380D02*
X6318333Y-64308380D01*
X6508809Y-63594095D01*
X6699285Y-64308380D01*
X6937380Y-63308380D01*
X7223095Y-63308380D02*
X7842142Y-63308380D01*
X7508809Y-63689333D01*
X7651666Y-63689333D01*
X7746904Y-63736952D01*
X7794523Y-63784571D01*
X7842142Y-63879809D01*
X7842142Y-64117904D01*
X7794523Y-64213142D01*
X7746904Y-64260761D01*
X7651666Y-64308380D01*
X7365952Y-64308380D01*
X7270714Y-64260761D01*
X7223095Y-64213142D01*
X8175476Y-63308380D02*
X8842142Y-63308380D01*
X8413571Y-64308380D01*
X6008809Y-79961142D02*
X5961190Y-80008761D01*
X5818333Y-80056380D01*
X5723095Y-80056380D01*
X5580238Y-80008761D01*
X5485000Y-79913523D01*
X5437380Y-79818285D01*
X5389761Y-79627809D01*
X5389761Y-79484952D01*
X5437380Y-79294476D01*
X5485000Y-79199238D01*
X5580238Y-79104000D01*
X5723095Y-79056380D01*
X5818333Y-79056380D01*
X5961190Y-79104000D01*
X6008809Y-79151619D01*
X6294523Y-79056380D02*
X6865952Y-79056380D01*
X6580238Y-80056380D02*
X6580238Y-79056380D01*
X7770714Y-80056380D02*
X7437380Y-79580190D01*
X7199285Y-80056380D02*
X7199285Y-79056380D01*
X7580238Y-79056380D01*
X7675476Y-79104000D01*
X7723095Y-79151619D01*
X7770714Y-79246857D01*
X7770714Y-79389714D01*
X7723095Y-79484952D01*
X7675476Y-79532571D01*
X7580238Y-79580190D01*
X7199285Y-79580190D01*
X8675476Y-80056380D02*
X8199285Y-80056380D01*
X8199285Y-79056380D01*
X262350476Y-45235761D02*
X262493333Y-45283380D01*
X262731428Y-45283380D01*
X262826666Y-45235761D01*
X262874285Y-45188142D01*
X262921904Y-45092904D01*
X262921904Y-44997666D01*
X262874285Y-44902428D01*
X262826666Y-44854809D01*
X262731428Y-44807190D01*
X262540952Y-44759571D01*
X262445714Y-44711952D01*
X262398095Y-44664333D01*
X262350476Y-44569095D01*
X262350476Y-44473857D01*
X262398095Y-44378619D01*
X262445714Y-44331000D01*
X262540952Y-44283380D01*
X262779047Y-44283380D01*
X262921904Y-44331000D01*
X263255238Y-44283380D02*
X263493333Y-45283380D01*
X263683809Y-44569095D01*
X263874285Y-45283380D01*
X264112380Y-44283380D01*
X264445714Y-44378619D02*
X264493333Y-44331000D01*
X264588571Y-44283380D01*
X264826666Y-44283380D01*
X264921904Y-44331000D01*
X264969523Y-44378619D01*
X265017142Y-44473857D01*
X265017142Y-44569095D01*
X264969523Y-44711952D01*
X264398095Y-45283380D01*
X265017142Y-45283380D01*
X265493333Y-45283380D02*
X265683809Y-45283380D01*
X265779047Y-45235761D01*
X265826666Y-45188142D01*
X265921904Y-45045285D01*
X265969523Y-44854809D01*
X265969523Y-44473857D01*
X265921904Y-44378619D01*
X265874285Y-44331000D01*
X265779047Y-44283380D01*
X265588571Y-44283380D01*
X265493333Y-44331000D01*
X265445714Y-44378619D01*
X265398095Y-44473857D01*
X265398095Y-44711952D01*
X265445714Y-44807190D01*
X265493333Y-44854809D01*
X265588571Y-44902428D01*
X265779047Y-44902428D01*
X265874285Y-44854809D01*
X265921904Y-44807190D01*
X265969523Y-44711952D01*
X263636190Y-61031380D02*
X263302857Y-60555190D01*
X263064761Y-61031380D02*
X263064761Y-60031380D01*
X263445714Y-60031380D01*
X263540952Y-60079000D01*
X263588571Y-60126619D01*
X263636190Y-60221857D01*
X263636190Y-60364714D01*
X263588571Y-60459952D01*
X263540952Y-60507571D01*
X263445714Y-60555190D01*
X263064761Y-60555190D01*
X264064761Y-60507571D02*
X264398095Y-60507571D01*
X264540952Y-61031380D02*
X264064761Y-61031380D01*
X264064761Y-60031380D01*
X264540952Y-60031380D01*
X264826666Y-60031380D02*
X265398095Y-60031380D01*
X265112380Y-61031380D02*
X265112380Y-60031380D01*
X2794226Y-45235761D02*
X2937083Y-45283380D01*
X3175178Y-45283380D01*
X3270416Y-45235761D01*
X3318035Y-45188142D01*
X3365654Y-45092904D01*
X3365654Y-44997666D01*
X3318035Y-44902428D01*
X3270416Y-44854809D01*
X3175178Y-44807190D01*
X2984702Y-44759571D01*
X2889464Y-44711952D01*
X2841845Y-44664333D01*
X2794226Y-44569095D01*
X2794226Y-44473857D01*
X2841845Y-44378619D01*
X2889464Y-44331000D01*
X2984702Y-44283380D01*
X3222797Y-44283380D01*
X3365654Y-44331000D01*
X3698988Y-44283380D02*
X3937083Y-45283380D01*
X4127559Y-44569095D01*
X4318035Y-45283380D01*
X4556130Y-44283380D01*
X5413273Y-44283380D02*
X4937083Y-44283380D01*
X4889464Y-44759571D01*
X4937083Y-44711952D01*
X5032321Y-44664333D01*
X5270416Y-44664333D01*
X5365654Y-44711952D01*
X5413273Y-44759571D01*
X5460892Y-44854809D01*
X5460892Y-45092904D01*
X5413273Y-45188142D01*
X5365654Y-45235761D01*
X5270416Y-45283380D01*
X5032321Y-45283380D01*
X4937083Y-45235761D01*
X4889464Y-45188142D01*
X6413273Y-45283380D02*
X5841845Y-45283380D01*
X6127559Y-45283380D02*
X6127559Y-44283380D01*
X6032321Y-44426238D01*
X5937083Y-44521476D01*
X5841845Y-44569095D01*
X3389464Y-60031380D02*
X3960892Y-60031380D01*
X3675178Y-61031380D02*
X3675178Y-60031380D01*
X4246607Y-60745666D02*
X4722797Y-60745666D01*
X4151369Y-61031380D02*
X4484702Y-60031380D01*
X4818035Y-61031380D01*
X5484702Y-60507571D02*
X5627559Y-60555190D01*
X5675178Y-60602809D01*
X5722797Y-60698047D01*
X5722797Y-60840904D01*
X5675178Y-60936142D01*
X5627559Y-60983761D01*
X5532321Y-61031380D01*
X5151369Y-61031380D01*
X5151369Y-60031380D01*
X5484702Y-60031380D01*
X5579940Y-60079000D01*
X5627559Y-60126619D01*
X5675178Y-60221857D01*
X5675178Y-60317095D01*
X5627559Y-60412333D01*
X5579940Y-60459952D01*
X5484702Y-60507571D01*
X5151369Y-60507571D01*
X-1968273Y-26185761D02*
X-1825416Y-26233380D01*
X-1587321Y-26233380D01*
X-1492083Y-26185761D01*
X-1444464Y-26138142D01*
X-1396845Y-26042904D01*
X-1396845Y-25947666D01*
X-1444464Y-25852428D01*
X-1492083Y-25804809D01*
X-1587321Y-25757190D01*
X-1777797Y-25709571D01*
X-1873035Y-25661952D01*
X-1920654Y-25614333D01*
X-1968273Y-25519095D01*
X-1968273Y-25423857D01*
X-1920654Y-25328619D01*
X-1873035Y-25281000D01*
X-1777797Y-25233380D01*
X-1539702Y-25233380D01*
X-1396845Y-25281000D01*
X-1063511Y-25233380D02*
X-825416Y-26233380D01*
X-634940Y-25519095D01*
X-444464Y-26233380D01*
X-206369Y-25233380D01*
X650773Y-25233380D02*
X174583Y-25233380D01*
X126964Y-25709571D01*
X174583Y-25661952D01*
X269821Y-25614333D01*
X507916Y-25614333D01*
X603154Y-25661952D01*
X650773Y-25709571D01*
X698392Y-25804809D01*
X698392Y-26042904D01*
X650773Y-26138142D01*
X603154Y-26185761D01*
X507916Y-26233380D01*
X269821Y-26233380D01*
X174583Y-26185761D01*
X126964Y-26138142D01*
X1031726Y-25233380D02*
X1698392Y-25233380D01*
X1269821Y-26233380D01*
X-1349226Y-41457571D02*
X-1015892Y-41457571D01*
X-873035Y-41981380D02*
X-1349226Y-41981380D01*
X-1349226Y-40981380D01*
X-873035Y-40981380D01*
X-492083Y-41933761D02*
X-349226Y-41981380D01*
X-111130Y-41981380D01*
X-15892Y-41933761D01*
X31726Y-41886142D01*
X79345Y-41790904D01*
X79345Y-41695666D01*
X31726Y-41600428D01*
X-15892Y-41552809D01*
X-111130Y-41505190D01*
X-301607Y-41457571D01*
X-396845Y-41409952D01*
X-444464Y-41362333D01*
X-492083Y-41267095D01*
X-492083Y-41171857D01*
X-444464Y-41076619D01*
X-396845Y-41029000D01*
X-301607Y-40981380D01*
X-63511Y-40981380D01*
X79345Y-41029000D01*
X1079345Y-41886142D02*
X1031726Y-41933761D01*
X888869Y-41981380D01*
X793630Y-41981380D01*
X650773Y-41933761D01*
X555535Y-41838523D01*
X507916Y-41743285D01*
X460297Y-41552809D01*
X460297Y-41409952D01*
X507916Y-41219476D01*
X555535Y-41124238D01*
X650773Y-41029000D01*
X793630Y-40981380D01*
X888869Y-40981380D01*
X1031726Y-41029000D01*
X1079345Y-41076619D01*
X119475476Y-83260761D02*
X119618333Y-83308380D01*
X119856428Y-83308380D01*
X119951666Y-83260761D01*
X119999285Y-83213142D01*
X120046904Y-83117904D01*
X120046904Y-83022666D01*
X119999285Y-82927428D01*
X119951666Y-82879809D01*
X119856428Y-82832190D01*
X119665952Y-82784571D01*
X119570714Y-82736952D01*
X119523095Y-82689333D01*
X119475476Y-82594095D01*
X119475476Y-82498857D01*
X119523095Y-82403619D01*
X119570714Y-82356000D01*
X119665952Y-82308380D01*
X119904047Y-82308380D01*
X120046904Y-82356000D01*
X120380238Y-82308380D02*
X120618333Y-83308380D01*
X120808809Y-82594095D01*
X120999285Y-83308380D01*
X121237380Y-82308380D01*
X122046904Y-82308380D02*
X121856428Y-82308380D01*
X121761190Y-82356000D01*
X121713571Y-82403619D01*
X121618333Y-82546476D01*
X121570714Y-82736952D01*
X121570714Y-83117904D01*
X121618333Y-83213142D01*
X121665952Y-83260761D01*
X121761190Y-83308380D01*
X121951666Y-83308380D01*
X122046904Y-83260761D01*
X122094523Y-83213142D01*
X122142142Y-83117904D01*
X122142142Y-82879809D01*
X122094523Y-82784571D01*
X122046904Y-82736952D01*
X121951666Y-82689333D01*
X121761190Y-82689333D01*
X121665952Y-82736952D01*
X121618333Y-82784571D01*
X121570714Y-82879809D01*
X122475476Y-82308380D02*
X123094523Y-82308380D01*
X122761190Y-82689333D01*
X122904047Y-82689333D01*
X122999285Y-82736952D01*
X123046904Y-82784571D01*
X123094523Y-82879809D01*
X123094523Y-83117904D01*
X123046904Y-83213142D01*
X122999285Y-83260761D01*
X122904047Y-83308380D01*
X122618333Y-83308380D01*
X122523095Y-83260761D01*
X122475476Y-83213142D01*
X121356428Y-98532571D02*
X121499285Y-98580190D01*
X121546904Y-98627809D01*
X121594523Y-98723047D01*
X121594523Y-98865904D01*
X121546904Y-98961142D01*
X121499285Y-99008761D01*
X121404047Y-99056380D01*
X121023095Y-99056380D01*
X121023095Y-98056380D01*
X121356428Y-98056380D01*
X121451666Y-98104000D01*
X121499285Y-98151619D01*
X121546904Y-98246857D01*
X121546904Y-98342095D01*
X121499285Y-98437333D01*
X121451666Y-98484952D01*
X121356428Y-98532571D01*
X121023095Y-98532571D01*
X224250476Y-64260761D02*
X224393333Y-64308380D01*
X224631428Y-64308380D01*
X224726666Y-64260761D01*
X224774285Y-64213142D01*
X224821904Y-64117904D01*
X224821904Y-64022666D01*
X224774285Y-63927428D01*
X224726666Y-63879809D01*
X224631428Y-63832190D01*
X224440952Y-63784571D01*
X224345714Y-63736952D01*
X224298095Y-63689333D01*
X224250476Y-63594095D01*
X224250476Y-63498857D01*
X224298095Y-63403619D01*
X224345714Y-63356000D01*
X224440952Y-63308380D01*
X224679047Y-63308380D01*
X224821904Y-63356000D01*
X225155238Y-63308380D02*
X225393333Y-64308380D01*
X225583809Y-63594095D01*
X225774285Y-64308380D01*
X226012380Y-63308380D01*
X226821904Y-63308380D02*
X226631428Y-63308380D01*
X226536190Y-63356000D01*
X226488571Y-63403619D01*
X226393333Y-63546476D01*
X226345714Y-63736952D01*
X226345714Y-64117904D01*
X226393333Y-64213142D01*
X226440952Y-64260761D01*
X226536190Y-64308380D01*
X226726666Y-64308380D01*
X226821904Y-64260761D01*
X226869523Y-64213142D01*
X226917142Y-64117904D01*
X226917142Y-63879809D01*
X226869523Y-63784571D01*
X226821904Y-63736952D01*
X226726666Y-63689333D01*
X226536190Y-63689333D01*
X226440952Y-63736952D01*
X226393333Y-63784571D01*
X226345714Y-63879809D01*
X227298095Y-63403619D02*
X227345714Y-63356000D01*
X227440952Y-63308380D01*
X227679047Y-63308380D01*
X227774285Y-63356000D01*
X227821904Y-63403619D01*
X227869523Y-63498857D01*
X227869523Y-63594095D01*
X227821904Y-63736952D01*
X227250476Y-64308380D01*
X227869523Y-64308380D01*
X225298095Y-80389714D02*
X225060000Y-80389714D01*
X225060000Y-78961142D01*
X225298095Y-78961142D01*
X225679047Y-79675428D02*
X226440952Y-79675428D01*
X226060000Y-80056380D02*
X226060000Y-79294476D01*
X226821904Y-80389714D02*
X227060000Y-80389714D01*
X227060000Y-78961142D01*
X226821904Y-78961142D01*
X71850476Y-64260761D02*
X71993333Y-64308380D01*
X72231428Y-64308380D01*
X72326666Y-64260761D01*
X72374285Y-64213142D01*
X72421904Y-64117904D01*
X72421904Y-64022666D01*
X72374285Y-63927428D01*
X72326666Y-63879809D01*
X72231428Y-63832190D01*
X72040952Y-63784571D01*
X71945714Y-63736952D01*
X71898095Y-63689333D01*
X71850476Y-63594095D01*
X71850476Y-63498857D01*
X71898095Y-63403619D01*
X71945714Y-63356000D01*
X72040952Y-63308380D01*
X72279047Y-63308380D01*
X72421904Y-63356000D01*
X72755238Y-63308380D02*
X72993333Y-64308380D01*
X73183809Y-63594095D01*
X73374285Y-64308380D01*
X73612380Y-63308380D01*
X74421904Y-63308380D02*
X74231428Y-63308380D01*
X74136190Y-63356000D01*
X74088571Y-63403619D01*
X73993333Y-63546476D01*
X73945714Y-63736952D01*
X73945714Y-64117904D01*
X73993333Y-64213142D01*
X74040952Y-64260761D01*
X74136190Y-64308380D01*
X74326666Y-64308380D01*
X74421904Y-64260761D01*
X74469523Y-64213142D01*
X74517142Y-64117904D01*
X74517142Y-63879809D01*
X74469523Y-63784571D01*
X74421904Y-63736952D01*
X74326666Y-63689333D01*
X74136190Y-63689333D01*
X74040952Y-63736952D01*
X73993333Y-63784571D01*
X73945714Y-63879809D01*
X75469523Y-64308380D02*
X74898095Y-64308380D01*
X75183809Y-64308380D02*
X75183809Y-63308380D01*
X75088571Y-63451238D01*
X74993333Y-63546476D01*
X74898095Y-63594095D01*
X73398095Y-80056380D02*
X73398095Y-79056380D01*
X73636190Y-79056380D01*
X73779047Y-79104000D01*
X73874285Y-79199238D01*
X73921904Y-79294476D01*
X73969523Y-79484952D01*
X73969523Y-79627809D01*
X73921904Y-79818285D01*
X73874285Y-79913523D01*
X73779047Y-80008761D01*
X73636190Y-80056380D01*
X73398095Y-80056380D01*
X181387476Y-45235761D02*
X181530333Y-45283380D01*
X181768428Y-45283380D01*
X181863666Y-45235761D01*
X181911285Y-45188142D01*
X181958904Y-45092904D01*
X181958904Y-44997666D01*
X181911285Y-44902428D01*
X181863666Y-44854809D01*
X181768428Y-44807190D01*
X181577952Y-44759571D01*
X181482714Y-44711952D01*
X181435095Y-44664333D01*
X181387476Y-44569095D01*
X181387476Y-44473857D01*
X181435095Y-44378619D01*
X181482714Y-44331000D01*
X181577952Y-44283380D01*
X181816047Y-44283380D01*
X181958904Y-44331000D01*
X182292238Y-44283380D02*
X182530333Y-45283380D01*
X182720809Y-44569095D01*
X182911285Y-45283380D01*
X183149380Y-44283380D01*
X183958904Y-44283380D02*
X183768428Y-44283380D01*
X183673190Y-44331000D01*
X183625571Y-44378619D01*
X183530333Y-44521476D01*
X183482714Y-44711952D01*
X183482714Y-45092904D01*
X183530333Y-45188142D01*
X183577952Y-45235761D01*
X183673190Y-45283380D01*
X183863666Y-45283380D01*
X183958904Y-45235761D01*
X184006523Y-45188142D01*
X184054142Y-45092904D01*
X184054142Y-44854809D01*
X184006523Y-44759571D01*
X183958904Y-44711952D01*
X183863666Y-44664333D01*
X183673190Y-44664333D01*
X183577952Y-44711952D01*
X183530333Y-44759571D01*
X183482714Y-44854809D01*
X184673190Y-44283380D02*
X184768428Y-44283380D01*
X184863666Y-44331000D01*
X184911285Y-44378619D01*
X184958904Y-44473857D01*
X185006523Y-44664333D01*
X185006523Y-44902428D01*
X184958904Y-45092904D01*
X184911285Y-45188142D01*
X184863666Y-45235761D01*
X184768428Y-45283380D01*
X184673190Y-45283380D01*
X184577952Y-45235761D01*
X184530333Y-45188142D01*
X184482714Y-45092904D01*
X184435095Y-44902428D01*
X184435095Y-44664333D01*
X184482714Y-44473857D01*
X184530333Y-44378619D01*
X184577952Y-44331000D01*
X184673190Y-44283380D01*
X183101761Y-60031380D02*
X183292238Y-60031380D01*
X183387476Y-60079000D01*
X183482714Y-60174238D01*
X183530333Y-60364714D01*
X183530333Y-60698047D01*
X183482714Y-60888523D01*
X183387476Y-60983761D01*
X183292238Y-61031380D01*
X183101761Y-61031380D01*
X183006523Y-60983761D01*
X182911285Y-60888523D01*
X182863666Y-60698047D01*
X182863666Y-60364714D01*
X182911285Y-60174238D01*
X183006523Y-60079000D01*
X183101761Y-60031380D01*
X28987976Y-45235761D02*
X29130833Y-45283380D01*
X29368928Y-45283380D01*
X29464166Y-45235761D01*
X29511785Y-45188142D01*
X29559404Y-45092904D01*
X29559404Y-44997666D01*
X29511785Y-44902428D01*
X29464166Y-44854809D01*
X29368928Y-44807190D01*
X29178452Y-44759571D01*
X29083214Y-44711952D01*
X29035595Y-44664333D01*
X28987976Y-44569095D01*
X28987976Y-44473857D01*
X29035595Y-44378619D01*
X29083214Y-44331000D01*
X29178452Y-44283380D01*
X29416547Y-44283380D01*
X29559404Y-44331000D01*
X29892738Y-44283380D02*
X30130833Y-45283380D01*
X30321309Y-44569095D01*
X30511785Y-45283380D01*
X30749880Y-44283380D01*
X31607023Y-44283380D02*
X31130833Y-44283380D01*
X31083214Y-44759571D01*
X31130833Y-44711952D01*
X31226071Y-44664333D01*
X31464166Y-44664333D01*
X31559404Y-44711952D01*
X31607023Y-44759571D01*
X31654642Y-44854809D01*
X31654642Y-45092904D01*
X31607023Y-45188142D01*
X31559404Y-45235761D01*
X31464166Y-45283380D01*
X31226071Y-45283380D01*
X31130833Y-45235761D01*
X31083214Y-45188142D01*
X32130833Y-45283380D02*
X32321309Y-45283380D01*
X32416547Y-45235761D01*
X32464166Y-45188142D01*
X32559404Y-45045285D01*
X32607023Y-44854809D01*
X32607023Y-44473857D01*
X32559404Y-44378619D01*
X32511785Y-44331000D01*
X32416547Y-44283380D01*
X32226071Y-44283380D01*
X32130833Y-44331000D01*
X32083214Y-44378619D01*
X32035595Y-44473857D01*
X32035595Y-44711952D01*
X32083214Y-44807190D01*
X32130833Y-44854809D01*
X32226071Y-44902428D01*
X32416547Y-44902428D01*
X32511785Y-44854809D01*
X32559404Y-44807190D01*
X32607023Y-44711952D01*
X31178452Y-61126619D02*
X31083214Y-61079000D01*
X30987976Y-60983761D01*
X30845119Y-60840904D01*
X30749880Y-60793285D01*
X30654642Y-60793285D01*
X30702261Y-61031380D02*
X30607023Y-60983761D01*
X30511785Y-60888523D01*
X30464166Y-60698047D01*
X30464166Y-60364714D01*
X30511785Y-60174238D01*
X30607023Y-60079000D01*
X30702261Y-60031380D01*
X30892738Y-60031380D01*
X30987976Y-60079000D01*
X31083214Y-60174238D01*
X31130833Y-60364714D01*
X31130833Y-60698047D01*
X31083214Y-60888523D01*
X30987976Y-60983761D01*
X30892738Y-61031380D01*
X30702261Y-61031380D01*
X152812976Y-26185761D02*
X152955833Y-26233380D01*
X153193928Y-26233380D01*
X153289166Y-26185761D01*
X153336785Y-26138142D01*
X153384404Y-26042904D01*
X153384404Y-25947666D01*
X153336785Y-25852428D01*
X153289166Y-25804809D01*
X153193928Y-25757190D01*
X153003452Y-25709571D01*
X152908214Y-25661952D01*
X152860595Y-25614333D01*
X152812976Y-25519095D01*
X152812976Y-25423857D01*
X152860595Y-25328619D01*
X152908214Y-25281000D01*
X153003452Y-25233380D01*
X153241547Y-25233380D01*
X153384404Y-25281000D01*
X153717738Y-25233380D02*
X153955833Y-26233380D01*
X154146309Y-25519095D01*
X154336785Y-26233380D01*
X154574880Y-25233380D01*
X155432023Y-25233380D02*
X154955833Y-25233380D01*
X154908214Y-25709571D01*
X154955833Y-25661952D01*
X155051071Y-25614333D01*
X155289166Y-25614333D01*
X155384404Y-25661952D01*
X155432023Y-25709571D01*
X155479642Y-25804809D01*
X155479642Y-26042904D01*
X155432023Y-26138142D01*
X155384404Y-26185761D01*
X155289166Y-26233380D01*
X155051071Y-26233380D01*
X154955833Y-26185761D01*
X154908214Y-26138142D01*
X156051071Y-25661952D02*
X155955833Y-25614333D01*
X155908214Y-25566714D01*
X155860595Y-25471476D01*
X155860595Y-25423857D01*
X155908214Y-25328619D01*
X155955833Y-25281000D01*
X156051071Y-25233380D01*
X156241547Y-25233380D01*
X156336785Y-25281000D01*
X156384404Y-25328619D01*
X156432023Y-25423857D01*
X156432023Y-25471476D01*
X156384404Y-25566714D01*
X156336785Y-25614333D01*
X156241547Y-25661952D01*
X156051071Y-25661952D01*
X155955833Y-25709571D01*
X155908214Y-25757190D01*
X155860595Y-25852428D01*
X155860595Y-26042904D01*
X155908214Y-26138142D01*
X155955833Y-26185761D01*
X156051071Y-26233380D01*
X156241547Y-26233380D01*
X156336785Y-26185761D01*
X156384404Y-26138142D01*
X156432023Y-26042904D01*
X156432023Y-25852428D01*
X156384404Y-25757190D01*
X156336785Y-25709571D01*
X156241547Y-25661952D01*
X154527261Y-41409952D02*
X154432023Y-41362333D01*
X154384404Y-41314714D01*
X154336785Y-41219476D01*
X154336785Y-41171857D01*
X154384404Y-41076619D01*
X154432023Y-41029000D01*
X154527261Y-40981380D01*
X154717738Y-40981380D01*
X154812976Y-41029000D01*
X154860595Y-41076619D01*
X154908214Y-41171857D01*
X154908214Y-41219476D01*
X154860595Y-41314714D01*
X154812976Y-41362333D01*
X154717738Y-41409952D01*
X154527261Y-41409952D01*
X154432023Y-41457571D01*
X154384404Y-41505190D01*
X154336785Y-41600428D01*
X154336785Y-41790904D01*
X154384404Y-41886142D01*
X154432023Y-41933761D01*
X154527261Y-41981380D01*
X154717738Y-41981380D01*
X154812976Y-41933761D01*
X154860595Y-41886142D01*
X154908214Y-41790904D01*
X154908214Y-41600428D01*
X154860595Y-41505190D01*
X154812976Y-41457571D01*
X154717738Y-41409952D01*
X267112976Y-83260761D02*
X267255833Y-83308380D01*
X267493928Y-83308380D01*
X267589166Y-83260761D01*
X267636785Y-83213142D01*
X267684404Y-83117904D01*
X267684404Y-83022666D01*
X267636785Y-82927428D01*
X267589166Y-82879809D01*
X267493928Y-82832190D01*
X267303452Y-82784571D01*
X267208214Y-82736952D01*
X267160595Y-82689333D01*
X267112976Y-82594095D01*
X267112976Y-82498857D01*
X267160595Y-82403619D01*
X267208214Y-82356000D01*
X267303452Y-82308380D01*
X267541547Y-82308380D01*
X267684404Y-82356000D01*
X268017738Y-82308380D02*
X268255833Y-83308380D01*
X268446309Y-82594095D01*
X268636785Y-83308380D01*
X268874880Y-82308380D01*
X269732023Y-82308380D02*
X269255833Y-82308380D01*
X269208214Y-82784571D01*
X269255833Y-82736952D01*
X269351071Y-82689333D01*
X269589166Y-82689333D01*
X269684404Y-82736952D01*
X269732023Y-82784571D01*
X269779642Y-82879809D01*
X269779642Y-83117904D01*
X269732023Y-83213142D01*
X269684404Y-83260761D01*
X269589166Y-83308380D01*
X269351071Y-83308380D01*
X269255833Y-83260761D01*
X269208214Y-83213142D01*
X270636785Y-82308380D02*
X270446309Y-82308380D01*
X270351071Y-82356000D01*
X270303452Y-82403619D01*
X270208214Y-82546476D01*
X270160595Y-82736952D01*
X270160595Y-83117904D01*
X270208214Y-83213142D01*
X270255833Y-83260761D01*
X270351071Y-83308380D01*
X270541547Y-83308380D01*
X270636785Y-83260761D01*
X270684404Y-83213142D01*
X270732023Y-83117904D01*
X270732023Y-82879809D01*
X270684404Y-82784571D01*
X270636785Y-82736952D01*
X270541547Y-82689333D01*
X270351071Y-82689333D01*
X270255833Y-82736952D01*
X270208214Y-82784571D01*
X270160595Y-82879809D01*
X267970119Y-99056380D02*
X267970119Y-98056380D01*
X268446309Y-99056380D02*
X268446309Y-98056380D01*
X269017738Y-99056380D01*
X269017738Y-98056380D01*
X269351071Y-98056380D02*
X269684404Y-99056380D01*
X270017738Y-98056380D01*
X100425476Y-83260761D02*
X100568333Y-83308380D01*
X100806428Y-83308380D01*
X100901666Y-83260761D01*
X100949285Y-83213142D01*
X100996904Y-83117904D01*
X100996904Y-83022666D01*
X100949285Y-82927428D01*
X100901666Y-82879809D01*
X100806428Y-82832190D01*
X100615952Y-82784571D01*
X100520714Y-82736952D01*
X100473095Y-82689333D01*
X100425476Y-82594095D01*
X100425476Y-82498857D01*
X100473095Y-82403619D01*
X100520714Y-82356000D01*
X100615952Y-82308380D01*
X100854047Y-82308380D01*
X100996904Y-82356000D01*
X101330238Y-82308380D02*
X101568333Y-83308380D01*
X101758809Y-82594095D01*
X101949285Y-83308380D01*
X102187380Y-82308380D01*
X103044523Y-82308380D02*
X102568333Y-82308380D01*
X102520714Y-82784571D01*
X102568333Y-82736952D01*
X102663571Y-82689333D01*
X102901666Y-82689333D01*
X102996904Y-82736952D01*
X103044523Y-82784571D01*
X103092142Y-82879809D01*
X103092142Y-83117904D01*
X103044523Y-83213142D01*
X102996904Y-83260761D01*
X102901666Y-83308380D01*
X102663571Y-83308380D01*
X102568333Y-83260761D01*
X102520714Y-83213142D01*
X103996904Y-82308380D02*
X103520714Y-82308380D01*
X103473095Y-82784571D01*
X103520714Y-82736952D01*
X103615952Y-82689333D01*
X103854047Y-82689333D01*
X103949285Y-82736952D01*
X103996904Y-82784571D01*
X104044523Y-82879809D01*
X104044523Y-83117904D01*
X103996904Y-83213142D01*
X103949285Y-83260761D01*
X103854047Y-83308380D01*
X103615952Y-83308380D01*
X103520714Y-83260761D01*
X103473095Y-83213142D01*
X101901666Y-98056380D02*
X102235000Y-99056380D01*
X102568333Y-98056380D01*
X205200476Y-64260761D02*
X205343333Y-64308380D01*
X205581428Y-64308380D01*
X205676666Y-64260761D01*
X205724285Y-64213142D01*
X205771904Y-64117904D01*
X205771904Y-64022666D01*
X205724285Y-63927428D01*
X205676666Y-63879809D01*
X205581428Y-63832190D01*
X205390952Y-63784571D01*
X205295714Y-63736952D01*
X205248095Y-63689333D01*
X205200476Y-63594095D01*
X205200476Y-63498857D01*
X205248095Y-63403619D01*
X205295714Y-63356000D01*
X205390952Y-63308380D01*
X205629047Y-63308380D01*
X205771904Y-63356000D01*
X206105238Y-63308380D02*
X206343333Y-64308380D01*
X206533809Y-63594095D01*
X206724285Y-64308380D01*
X206962380Y-63308380D01*
X207819523Y-63308380D02*
X207343333Y-63308380D01*
X207295714Y-63784571D01*
X207343333Y-63736952D01*
X207438571Y-63689333D01*
X207676666Y-63689333D01*
X207771904Y-63736952D01*
X207819523Y-63784571D01*
X207867142Y-63879809D01*
X207867142Y-64117904D01*
X207819523Y-64213142D01*
X207771904Y-64260761D01*
X207676666Y-64308380D01*
X207438571Y-64308380D01*
X207343333Y-64260761D01*
X207295714Y-64213142D01*
X208724285Y-63641714D02*
X208724285Y-64308380D01*
X208486190Y-63260761D02*
X208248095Y-63975047D01*
X208867142Y-63975047D01*
X206629047Y-80389714D02*
X206390952Y-80389714D01*
X206390952Y-78961142D01*
X206629047Y-78961142D01*
X207057619Y-80008761D02*
X207057619Y-80056380D01*
X207010000Y-80151619D01*
X206962380Y-80199238D01*
X207010000Y-79437333D02*
X207057619Y-79484952D01*
X207010000Y-79532571D01*
X206962380Y-79484952D01*
X207010000Y-79437333D01*
X207010000Y-79532571D01*
X207390952Y-80389714D02*
X207629047Y-80389714D01*
X207629047Y-78961142D01*
X207390952Y-78961142D01*
X52800476Y-64260761D02*
X52943333Y-64308380D01*
X53181428Y-64308380D01*
X53276666Y-64260761D01*
X53324285Y-64213142D01*
X53371904Y-64117904D01*
X53371904Y-64022666D01*
X53324285Y-63927428D01*
X53276666Y-63879809D01*
X53181428Y-63832190D01*
X52990952Y-63784571D01*
X52895714Y-63736952D01*
X52848095Y-63689333D01*
X52800476Y-63594095D01*
X52800476Y-63498857D01*
X52848095Y-63403619D01*
X52895714Y-63356000D01*
X52990952Y-63308380D01*
X53229047Y-63308380D01*
X53371904Y-63356000D01*
X53705238Y-63308380D02*
X53943333Y-64308380D01*
X54133809Y-63594095D01*
X54324285Y-64308380D01*
X54562380Y-63308380D01*
X55419523Y-63308380D02*
X54943333Y-63308380D01*
X54895714Y-63784571D01*
X54943333Y-63736952D01*
X55038571Y-63689333D01*
X55276666Y-63689333D01*
X55371904Y-63736952D01*
X55419523Y-63784571D01*
X55467142Y-63879809D01*
X55467142Y-64117904D01*
X55419523Y-64213142D01*
X55371904Y-64260761D01*
X55276666Y-64308380D01*
X55038571Y-64308380D01*
X54943333Y-64260761D01*
X54895714Y-64213142D01*
X55800476Y-63308380D02*
X56419523Y-63308380D01*
X56086190Y-63689333D01*
X56229047Y-63689333D01*
X56324285Y-63736952D01*
X56371904Y-63784571D01*
X56419523Y-63879809D01*
X56419523Y-64117904D01*
X56371904Y-64213142D01*
X56324285Y-64260761D01*
X56229047Y-64308380D01*
X55943333Y-64308380D01*
X55848095Y-64260761D01*
X55800476Y-64213142D01*
X54324285Y-80008761D02*
X54467142Y-80056380D01*
X54705238Y-80056380D01*
X54800476Y-80008761D01*
X54848095Y-79961142D01*
X54895714Y-79865904D01*
X54895714Y-79770666D01*
X54848095Y-79675428D01*
X54800476Y-79627809D01*
X54705238Y-79580190D01*
X54514761Y-79532571D01*
X54419523Y-79484952D01*
X54371904Y-79437333D01*
X54324285Y-79342095D01*
X54324285Y-79246857D01*
X54371904Y-79151619D01*
X54419523Y-79104000D01*
X54514761Y-79056380D01*
X54752857Y-79056380D01*
X54895714Y-79104000D01*
X162337976Y-45235761D02*
X162480833Y-45283380D01*
X162718928Y-45283380D01*
X162814166Y-45235761D01*
X162861785Y-45188142D01*
X162909404Y-45092904D01*
X162909404Y-44997666D01*
X162861785Y-44902428D01*
X162814166Y-44854809D01*
X162718928Y-44807190D01*
X162528452Y-44759571D01*
X162433214Y-44711952D01*
X162385595Y-44664333D01*
X162337976Y-44569095D01*
X162337976Y-44473857D01*
X162385595Y-44378619D01*
X162433214Y-44331000D01*
X162528452Y-44283380D01*
X162766547Y-44283380D01*
X162909404Y-44331000D01*
X163242738Y-44283380D02*
X163480833Y-45283380D01*
X163671309Y-44569095D01*
X163861785Y-45283380D01*
X164099880Y-44283380D01*
X164957023Y-44283380D02*
X164480833Y-44283380D01*
X164433214Y-44759571D01*
X164480833Y-44711952D01*
X164576071Y-44664333D01*
X164814166Y-44664333D01*
X164909404Y-44711952D01*
X164957023Y-44759571D01*
X165004642Y-44854809D01*
X165004642Y-45092904D01*
X164957023Y-45188142D01*
X164909404Y-45235761D01*
X164814166Y-45283380D01*
X164576071Y-45283380D01*
X164480833Y-45235761D01*
X164433214Y-45188142D01*
X165385595Y-44378619D02*
X165433214Y-44331000D01*
X165528452Y-44283380D01*
X165766547Y-44283380D01*
X165861785Y-44331000D01*
X165909404Y-44378619D01*
X165957023Y-44473857D01*
X165957023Y-44569095D01*
X165909404Y-44711952D01*
X165337976Y-45283380D01*
X165957023Y-45283380D01*
X164147500Y-61031380D02*
X164147500Y-60031380D01*
X133762976Y-26185761D02*
X133905833Y-26233380D01*
X134143928Y-26233380D01*
X134239166Y-26185761D01*
X134286785Y-26138142D01*
X134334404Y-26042904D01*
X134334404Y-25947666D01*
X134286785Y-25852428D01*
X134239166Y-25804809D01*
X134143928Y-25757190D01*
X133953452Y-25709571D01*
X133858214Y-25661952D01*
X133810595Y-25614333D01*
X133762976Y-25519095D01*
X133762976Y-25423857D01*
X133810595Y-25328619D01*
X133858214Y-25281000D01*
X133953452Y-25233380D01*
X134191547Y-25233380D01*
X134334404Y-25281000D01*
X134667738Y-25233380D02*
X134905833Y-26233380D01*
X135096309Y-25519095D01*
X135286785Y-26233380D01*
X135524880Y-25233380D01*
X136382023Y-25233380D02*
X135905833Y-25233380D01*
X135858214Y-25709571D01*
X135905833Y-25661952D01*
X136001071Y-25614333D01*
X136239166Y-25614333D01*
X136334404Y-25661952D01*
X136382023Y-25709571D01*
X136429642Y-25804809D01*
X136429642Y-26042904D01*
X136382023Y-26138142D01*
X136334404Y-26185761D01*
X136239166Y-26233380D01*
X136001071Y-26233380D01*
X135905833Y-26185761D01*
X135858214Y-26138142D01*
X137048690Y-25233380D02*
X137143928Y-25233380D01*
X137239166Y-25281000D01*
X137286785Y-25328619D01*
X137334404Y-25423857D01*
X137382023Y-25614333D01*
X137382023Y-25852428D01*
X137334404Y-26042904D01*
X137286785Y-26138142D01*
X137239166Y-26185761D01*
X137143928Y-26233380D01*
X137048690Y-26233380D01*
X136953452Y-26185761D01*
X136905833Y-26138142D01*
X136858214Y-26042904D01*
X136810595Y-25852428D01*
X136810595Y-25614333D01*
X136858214Y-25423857D01*
X136905833Y-25328619D01*
X136953452Y-25281000D01*
X137048690Y-25233380D01*
X135239166Y-40981380D02*
X135905833Y-40981380D01*
X135477261Y-41981380D01*
X262350476Y2389238D02*
X262493333Y2341619D01*
X262731428Y2341619D01*
X262826666Y2389238D01*
X262874285Y2436857D01*
X262921904Y2532095D01*
X262921904Y2627333D01*
X262874285Y2722571D01*
X262826666Y2770190D01*
X262731428Y2817809D01*
X262540952Y2865428D01*
X262445714Y2913047D01*
X262398095Y2960666D01*
X262350476Y3055904D01*
X262350476Y3151142D01*
X262398095Y3246380D01*
X262445714Y3294000D01*
X262540952Y3341619D01*
X262779047Y3341619D01*
X262921904Y3294000D01*
X263255238Y3341619D02*
X263493333Y2341619D01*
X263683809Y3055904D01*
X263874285Y2341619D01*
X264112380Y3341619D01*
X264921904Y3008285D02*
X264921904Y2341619D01*
X264683809Y3389238D02*
X264445714Y2674952D01*
X265064761Y2674952D01*
X265493333Y2341619D02*
X265683809Y2341619D01*
X265779047Y2389238D01*
X265826666Y2436857D01*
X265921904Y2579714D01*
X265969523Y2770190D01*
X265969523Y3151142D01*
X265921904Y3246380D01*
X265874285Y3294000D01*
X265779047Y3341619D01*
X265588571Y3341619D01*
X265493333Y3294000D01*
X265445714Y3246380D01*
X265398095Y3151142D01*
X265398095Y2913047D01*
X265445714Y2817809D01*
X265493333Y2770190D01*
X265588571Y2722571D01*
X265779047Y2722571D01*
X265874285Y2770190D01*
X265921904Y2817809D01*
X265969523Y2913047D01*
X262517142Y-13406380D02*
X262517142Y-12406380D01*
X262517142Y-12882571D02*
X263088571Y-12882571D01*
X263088571Y-13406380D02*
X263088571Y-12406380D01*
X263564761Y-12882571D02*
X263898095Y-12882571D01*
X264040952Y-13406380D02*
X263564761Y-13406380D01*
X263564761Y-12406380D01*
X264040952Y-12406380D01*
X264945714Y-13406380D02*
X264469523Y-13406380D01*
X264469523Y-12406380D01*
X265279047Y-13406380D02*
X265279047Y-12406380D01*
X265660000Y-12406380D01*
X265755238Y-12454000D01*
X265802857Y-12501619D01*
X265850476Y-12596857D01*
X265850476Y-12739714D01*
X265802857Y-12834952D01*
X265755238Y-12882571D01*
X265660000Y-12930190D01*
X265279047Y-12930190D01*
X81375476Y-83260761D02*
X81518333Y-83308380D01*
X81756428Y-83308380D01*
X81851666Y-83260761D01*
X81899285Y-83213142D01*
X81946904Y-83117904D01*
X81946904Y-83022666D01*
X81899285Y-82927428D01*
X81851666Y-82879809D01*
X81756428Y-82832190D01*
X81565952Y-82784571D01*
X81470714Y-82736952D01*
X81423095Y-82689333D01*
X81375476Y-82594095D01*
X81375476Y-82498857D01*
X81423095Y-82403619D01*
X81470714Y-82356000D01*
X81565952Y-82308380D01*
X81804047Y-82308380D01*
X81946904Y-82356000D01*
X82280238Y-82308380D02*
X82518333Y-83308380D01*
X82708809Y-82594095D01*
X82899285Y-83308380D01*
X83137380Y-82308380D01*
X83946904Y-82641714D02*
X83946904Y-83308380D01*
X83708809Y-82260761D02*
X83470714Y-82975047D01*
X84089761Y-82975047D01*
X84375476Y-82308380D02*
X85042142Y-82308380D01*
X84613571Y-83308380D01*
X83494523Y-98961142D02*
X83446904Y-99008761D01*
X83304047Y-99056380D01*
X83208809Y-99056380D01*
X83065952Y-99008761D01*
X82970714Y-98913523D01*
X82923095Y-98818285D01*
X82875476Y-98627809D01*
X82875476Y-98484952D01*
X82923095Y-98294476D01*
X82970714Y-98199238D01*
X83065952Y-98104000D01*
X83208809Y-98056380D01*
X83304047Y-98056380D01*
X83446904Y-98104000D01*
X83494523Y-98151619D01*
X186150476Y-64260761D02*
X186293333Y-64308380D01*
X186531428Y-64308380D01*
X186626666Y-64260761D01*
X186674285Y-64213142D01*
X186721904Y-64117904D01*
X186721904Y-64022666D01*
X186674285Y-63927428D01*
X186626666Y-63879809D01*
X186531428Y-63832190D01*
X186340952Y-63784571D01*
X186245714Y-63736952D01*
X186198095Y-63689333D01*
X186150476Y-63594095D01*
X186150476Y-63498857D01*
X186198095Y-63403619D01*
X186245714Y-63356000D01*
X186340952Y-63308380D01*
X186579047Y-63308380D01*
X186721904Y-63356000D01*
X187055238Y-63308380D02*
X187293333Y-64308380D01*
X187483809Y-63594095D01*
X187674285Y-64308380D01*
X187912380Y-63308380D01*
X188721904Y-63641714D02*
X188721904Y-64308380D01*
X188483809Y-63260761D02*
X188245714Y-63975047D01*
X188864761Y-63975047D01*
X189674285Y-63308380D02*
X189483809Y-63308380D01*
X189388571Y-63356000D01*
X189340952Y-63403619D01*
X189245714Y-63546476D01*
X189198095Y-63736952D01*
X189198095Y-64117904D01*
X189245714Y-64213142D01*
X189293333Y-64260761D01*
X189388571Y-64308380D01*
X189579047Y-64308380D01*
X189674285Y-64260761D01*
X189721904Y-64213142D01*
X189769523Y-64117904D01*
X189769523Y-63879809D01*
X189721904Y-63784571D01*
X189674285Y-63736952D01*
X189579047Y-63689333D01*
X189388571Y-63689333D01*
X189293333Y-63736952D01*
X189245714Y-63784571D01*
X189198095Y-63879809D01*
X188269523Y-80056380D02*
X187793333Y-80056380D01*
X187793333Y-79056380D01*
X33750476Y-64260761D02*
X33893333Y-64308380D01*
X34131428Y-64308380D01*
X34226666Y-64260761D01*
X34274285Y-64213142D01*
X34321904Y-64117904D01*
X34321904Y-64022666D01*
X34274285Y-63927428D01*
X34226666Y-63879809D01*
X34131428Y-63832190D01*
X33940952Y-63784571D01*
X33845714Y-63736952D01*
X33798095Y-63689333D01*
X33750476Y-63594095D01*
X33750476Y-63498857D01*
X33798095Y-63403619D01*
X33845714Y-63356000D01*
X33940952Y-63308380D01*
X34179047Y-63308380D01*
X34321904Y-63356000D01*
X34655238Y-63308380D02*
X34893333Y-64308380D01*
X35083809Y-63594095D01*
X35274285Y-64308380D01*
X35512380Y-63308380D01*
X36321904Y-63641714D02*
X36321904Y-64308380D01*
X36083809Y-63260761D02*
X35845714Y-63975047D01*
X36464761Y-63975047D01*
X37321904Y-63308380D02*
X36845714Y-63308380D01*
X36798095Y-63784571D01*
X36845714Y-63736952D01*
X36940952Y-63689333D01*
X37179047Y-63689333D01*
X37274285Y-63736952D01*
X37321904Y-63784571D01*
X37369523Y-63879809D01*
X37369523Y-64117904D01*
X37321904Y-64213142D01*
X37274285Y-64260761D01*
X37179047Y-64308380D01*
X36940952Y-64308380D01*
X36845714Y-64260761D01*
X36798095Y-64213142D01*
X35321904Y-79770666D02*
X35798095Y-79770666D01*
X35226666Y-80056380D02*
X35560000Y-79056380D01*
X35893333Y-80056380D01*
X143287976Y-45235761D02*
X143430833Y-45283380D01*
X143668928Y-45283380D01*
X143764166Y-45235761D01*
X143811785Y-45188142D01*
X143859404Y-45092904D01*
X143859404Y-44997666D01*
X143811785Y-44902428D01*
X143764166Y-44854809D01*
X143668928Y-44807190D01*
X143478452Y-44759571D01*
X143383214Y-44711952D01*
X143335595Y-44664333D01*
X143287976Y-44569095D01*
X143287976Y-44473857D01*
X143335595Y-44378619D01*
X143383214Y-44331000D01*
X143478452Y-44283380D01*
X143716547Y-44283380D01*
X143859404Y-44331000D01*
X144192738Y-44283380D02*
X144430833Y-45283380D01*
X144621309Y-44569095D01*
X144811785Y-45283380D01*
X145049880Y-44283380D01*
X145859404Y-44616714D02*
X145859404Y-45283380D01*
X145621309Y-44235761D02*
X145383214Y-44950047D01*
X146002261Y-44950047D01*
X146811785Y-44616714D02*
X146811785Y-45283380D01*
X146573690Y-44235761D02*
X146335595Y-44950047D01*
X146954642Y-44950047D01*
X144811785Y-60031380D02*
X144811785Y-60840904D01*
X144859404Y-60936142D01*
X144907023Y-60983761D01*
X145002261Y-61031380D01*
X145192738Y-61031380D01*
X145287976Y-60983761D01*
X145335595Y-60936142D01*
X145383214Y-60840904D01*
X145383214Y-60031380D01*
X267112976Y-26185761D02*
X267255833Y-26233380D01*
X267493928Y-26233380D01*
X267589166Y-26185761D01*
X267636785Y-26138142D01*
X267684404Y-26042904D01*
X267684404Y-25947666D01*
X267636785Y-25852428D01*
X267589166Y-25804809D01*
X267493928Y-25757190D01*
X267303452Y-25709571D01*
X267208214Y-25661952D01*
X267160595Y-25614333D01*
X267112976Y-25519095D01*
X267112976Y-25423857D01*
X267160595Y-25328619D01*
X267208214Y-25281000D01*
X267303452Y-25233380D01*
X267541547Y-25233380D01*
X267684404Y-25281000D01*
X268017738Y-25233380D02*
X268255833Y-26233380D01*
X268446309Y-25519095D01*
X268636785Y-26233380D01*
X268874880Y-25233380D01*
X269684404Y-25566714D02*
X269684404Y-26233380D01*
X269446309Y-25185761D02*
X269208214Y-25900047D01*
X269827261Y-25900047D01*
X270112976Y-25233380D02*
X270732023Y-25233380D01*
X270398690Y-25614333D01*
X270541547Y-25614333D01*
X270636785Y-25661952D01*
X270684404Y-25709571D01*
X270732023Y-25804809D01*
X270732023Y-26042904D01*
X270684404Y-26138142D01*
X270636785Y-26185761D01*
X270541547Y-26233380D01*
X270255833Y-26233380D01*
X270160595Y-26185761D01*
X270112976Y-26138142D01*
X267993928Y-41457571D02*
X268136785Y-41505190D01*
X268184404Y-41552809D01*
X268232023Y-41648047D01*
X268232023Y-41790904D01*
X268184404Y-41886142D01*
X268136785Y-41933761D01*
X268041547Y-41981380D01*
X267660595Y-41981380D01*
X267660595Y-40981380D01*
X267993928Y-40981380D01*
X268089166Y-41029000D01*
X268136785Y-41076619D01*
X268184404Y-41171857D01*
X268184404Y-41267095D01*
X268136785Y-41362333D01*
X268089166Y-41409952D01*
X267993928Y-41457571D01*
X267660595Y-41457571D01*
X269232023Y-41981380D02*
X268898690Y-41505190D01*
X268660595Y-41981380D02*
X268660595Y-40981380D01*
X269041547Y-40981380D01*
X269136785Y-41029000D01*
X269184404Y-41076619D01*
X269232023Y-41171857D01*
X269232023Y-41314714D01*
X269184404Y-41409952D01*
X269136785Y-41457571D01*
X269041547Y-41505190D01*
X268660595Y-41505190D01*
X269660595Y-41981380D02*
X269660595Y-40981380D01*
X270232023Y-41981380D02*
X269803452Y-41409952D01*
X270232023Y-40981380D02*
X269660595Y-41552809D01*
X114712976Y-26185761D02*
X114855833Y-26233380D01*
X115093928Y-26233380D01*
X115189166Y-26185761D01*
X115236785Y-26138142D01*
X115284404Y-26042904D01*
X115284404Y-25947666D01*
X115236785Y-25852428D01*
X115189166Y-25804809D01*
X115093928Y-25757190D01*
X114903452Y-25709571D01*
X114808214Y-25661952D01*
X114760595Y-25614333D01*
X114712976Y-25519095D01*
X114712976Y-25423857D01*
X114760595Y-25328619D01*
X114808214Y-25281000D01*
X114903452Y-25233380D01*
X115141547Y-25233380D01*
X115284404Y-25281000D01*
X115617738Y-25233380D02*
X115855833Y-26233380D01*
X116046309Y-25519095D01*
X116236785Y-26233380D01*
X116474880Y-25233380D01*
X117284404Y-25566714D02*
X117284404Y-26233380D01*
X117046309Y-25185761D02*
X116808214Y-25900047D01*
X117427261Y-25900047D01*
X117760595Y-25328619D02*
X117808214Y-25281000D01*
X117903452Y-25233380D01*
X118141547Y-25233380D01*
X118236785Y-25281000D01*
X118284404Y-25328619D01*
X118332023Y-25423857D01*
X118332023Y-25519095D01*
X118284404Y-25661952D01*
X117712976Y-26233380D01*
X118332023Y-26233380D01*
X116712976Y-40981380D02*
X116522500Y-40981380D01*
X116427261Y-41029000D01*
X116379642Y-41076619D01*
X116284404Y-41219476D01*
X116236785Y-41409952D01*
X116236785Y-41790904D01*
X116284404Y-41886142D01*
X116332023Y-41933761D01*
X116427261Y-41981380D01*
X116617738Y-41981380D01*
X116712976Y-41933761D01*
X116760595Y-41886142D01*
X116808214Y-41790904D01*
X116808214Y-41552809D01*
X116760595Y-41457571D01*
X116712976Y-41409952D01*
X116617738Y-41362333D01*
X116427261Y-41362333D01*
X116332023Y-41409952D01*
X116284404Y-41457571D01*
X116236785Y-41552809D01*
X238537976Y2389238D02*
X238680833Y2341619D01*
X238918928Y2341619D01*
X239014166Y2389238D01*
X239061785Y2436857D01*
X239109404Y2532095D01*
X239109404Y2627333D01*
X239061785Y2722571D01*
X239014166Y2770190D01*
X238918928Y2817809D01*
X238728452Y2865428D01*
X238633214Y2913047D01*
X238585595Y2960666D01*
X238537976Y3055904D01*
X238537976Y3151142D01*
X238585595Y3246380D01*
X238633214Y3294000D01*
X238728452Y3341619D01*
X238966547Y3341619D01*
X239109404Y3294000D01*
X239442738Y3341619D02*
X239680833Y2341619D01*
X239871309Y3055904D01*
X240061785Y2341619D01*
X240299880Y3341619D01*
X241109404Y3008285D02*
X241109404Y2341619D01*
X240871309Y3389238D02*
X240633214Y2674952D01*
X241252261Y2674952D01*
X242157023Y2341619D02*
X241585595Y2341619D01*
X241871309Y2341619D02*
X241871309Y3341619D01*
X241776071Y3198761D01*
X241680833Y3103523D01*
X241585595Y3055904D01*
X238371309Y-13358761D02*
X238514166Y-13406380D01*
X238752261Y-13406380D01*
X238847500Y-13358761D01*
X238895119Y-13311142D01*
X238942738Y-13215904D01*
X238942738Y-13120666D01*
X238895119Y-13025428D01*
X238847500Y-12977809D01*
X238752261Y-12930190D01*
X238561785Y-12882571D01*
X238466547Y-12834952D01*
X238418928Y-12787333D01*
X238371309Y-12692095D01*
X238371309Y-12596857D01*
X238418928Y-12501619D01*
X238466547Y-12454000D01*
X238561785Y-12406380D01*
X238799880Y-12406380D01*
X238942738Y-12454000D01*
X239228452Y-12406380D02*
X239799880Y-12406380D01*
X239514166Y-13406380D02*
X239514166Y-12406380D01*
X240085595Y-13120666D02*
X240561785Y-13120666D01*
X239990357Y-13406380D02*
X240323690Y-12406380D01*
X240657023Y-13406380D01*
X241561785Y-13406380D02*
X241228452Y-12930190D01*
X240990357Y-13406380D02*
X240990357Y-12406380D01*
X241371309Y-12406380D01*
X241466547Y-12454000D01*
X241514166Y-12501619D01*
X241561785Y-12596857D01*
X241561785Y-12739714D01*
X241514166Y-12834952D01*
X241466547Y-12882571D01*
X241371309Y-12930190D01*
X240990357Y-12930190D01*
X241847500Y-12406380D02*
X242418928Y-12406380D01*
X242133214Y-13406380D02*
X242133214Y-12406380D01*
X214725476Y-83260761D02*
X214868333Y-83308380D01*
X215106428Y-83308380D01*
X215201666Y-83260761D01*
X215249285Y-83213142D01*
X215296904Y-83117904D01*
X215296904Y-83022666D01*
X215249285Y-82927428D01*
X215201666Y-82879809D01*
X215106428Y-82832190D01*
X214915952Y-82784571D01*
X214820714Y-82736952D01*
X214773095Y-82689333D01*
X214725476Y-82594095D01*
X214725476Y-82498857D01*
X214773095Y-82403619D01*
X214820714Y-82356000D01*
X214915952Y-82308380D01*
X215154047Y-82308380D01*
X215296904Y-82356000D01*
X215630238Y-82308380D02*
X215868333Y-83308380D01*
X216058809Y-82594095D01*
X216249285Y-83308380D01*
X216487380Y-82308380D01*
X217296904Y-82641714D02*
X217296904Y-83308380D01*
X217058809Y-82260761D02*
X216820714Y-82975047D01*
X217439761Y-82975047D01*
X218011190Y-82308380D02*
X218106428Y-82308380D01*
X218201666Y-82356000D01*
X218249285Y-82403619D01*
X218296904Y-82498857D01*
X218344523Y-82689333D01*
X218344523Y-82927428D01*
X218296904Y-83117904D01*
X218249285Y-83213142D01*
X218201666Y-83260761D01*
X218106428Y-83308380D01*
X218011190Y-83308380D01*
X217915952Y-83260761D01*
X217868333Y-83213142D01*
X217820714Y-83117904D01*
X217773095Y-82927428D01*
X217773095Y-82689333D01*
X217820714Y-82498857D01*
X217868333Y-82403619D01*
X217915952Y-82356000D01*
X218011190Y-82308380D01*
X215868333Y-99389714D02*
X215630238Y-99389714D01*
X215630238Y-97961142D01*
X215868333Y-97961142D01*
X216963571Y-98008761D02*
X216106428Y-99294476D01*
X217201666Y-99389714D02*
X217439761Y-99389714D01*
X217439761Y-97961142D01*
X217201666Y-97961142D01*
X62325476Y-83260761D02*
X62468333Y-83308380D01*
X62706428Y-83308380D01*
X62801666Y-83260761D01*
X62849285Y-83213142D01*
X62896904Y-83117904D01*
X62896904Y-83022666D01*
X62849285Y-82927428D01*
X62801666Y-82879809D01*
X62706428Y-82832190D01*
X62515952Y-82784571D01*
X62420714Y-82736952D01*
X62373095Y-82689333D01*
X62325476Y-82594095D01*
X62325476Y-82498857D01*
X62373095Y-82403619D01*
X62420714Y-82356000D01*
X62515952Y-82308380D01*
X62754047Y-82308380D01*
X62896904Y-82356000D01*
X63230238Y-82308380D02*
X63468333Y-83308380D01*
X63658809Y-82594095D01*
X63849285Y-83308380D01*
X64087380Y-82308380D01*
X64373095Y-82308380D02*
X64992142Y-82308380D01*
X64658809Y-82689333D01*
X64801666Y-82689333D01*
X64896904Y-82736952D01*
X64944523Y-82784571D01*
X64992142Y-82879809D01*
X64992142Y-83117904D01*
X64944523Y-83213142D01*
X64896904Y-83260761D01*
X64801666Y-83308380D01*
X64515952Y-83308380D01*
X64420714Y-83260761D01*
X64373095Y-83213142D01*
X65468333Y-83308380D02*
X65658809Y-83308380D01*
X65754047Y-83260761D01*
X65801666Y-83213142D01*
X65896904Y-83070285D01*
X65944523Y-82879809D01*
X65944523Y-82498857D01*
X65896904Y-82403619D01*
X65849285Y-82356000D01*
X65754047Y-82308380D01*
X65563571Y-82308380D01*
X65468333Y-82356000D01*
X65420714Y-82403619D01*
X65373095Y-82498857D01*
X65373095Y-82736952D01*
X65420714Y-82832190D01*
X65468333Y-82879809D01*
X65563571Y-82927428D01*
X65754047Y-82927428D01*
X65849285Y-82879809D01*
X65896904Y-82832190D01*
X65944523Y-82736952D01*
X63801666Y-98056380D02*
X64468333Y-99056380D01*
X64468333Y-98056380D02*
X63801666Y-99056380D01*
X167100476Y-64260761D02*
X167243333Y-64308380D01*
X167481428Y-64308380D01*
X167576666Y-64260761D01*
X167624285Y-64213142D01*
X167671904Y-64117904D01*
X167671904Y-64022666D01*
X167624285Y-63927428D01*
X167576666Y-63879809D01*
X167481428Y-63832190D01*
X167290952Y-63784571D01*
X167195714Y-63736952D01*
X167148095Y-63689333D01*
X167100476Y-63594095D01*
X167100476Y-63498857D01*
X167148095Y-63403619D01*
X167195714Y-63356000D01*
X167290952Y-63308380D01*
X167529047Y-63308380D01*
X167671904Y-63356000D01*
X168005238Y-63308380D02*
X168243333Y-64308380D01*
X168433809Y-63594095D01*
X168624285Y-64308380D01*
X168862380Y-63308380D01*
X169148095Y-63308380D02*
X169767142Y-63308380D01*
X169433809Y-63689333D01*
X169576666Y-63689333D01*
X169671904Y-63736952D01*
X169719523Y-63784571D01*
X169767142Y-63879809D01*
X169767142Y-64117904D01*
X169719523Y-64213142D01*
X169671904Y-64260761D01*
X169576666Y-64308380D01*
X169290952Y-64308380D01*
X169195714Y-64260761D01*
X169148095Y-64213142D01*
X170338571Y-63736952D02*
X170243333Y-63689333D01*
X170195714Y-63641714D01*
X170148095Y-63546476D01*
X170148095Y-63498857D01*
X170195714Y-63403619D01*
X170243333Y-63356000D01*
X170338571Y-63308380D01*
X170529047Y-63308380D01*
X170624285Y-63356000D01*
X170671904Y-63403619D01*
X170719523Y-63498857D01*
X170719523Y-63546476D01*
X170671904Y-63641714D01*
X170624285Y-63689333D01*
X170529047Y-63736952D01*
X170338571Y-63736952D01*
X170243333Y-63784571D01*
X170195714Y-63832190D01*
X170148095Y-63927428D01*
X170148095Y-64117904D01*
X170195714Y-64213142D01*
X170243333Y-64260761D01*
X170338571Y-64308380D01*
X170529047Y-64308380D01*
X170624285Y-64260761D01*
X170671904Y-64213142D01*
X170719523Y-64117904D01*
X170719523Y-63927428D01*
X170671904Y-63832190D01*
X170624285Y-63784571D01*
X170529047Y-63736952D01*
X168648095Y-80056380D02*
X168648095Y-79056380D01*
X169219523Y-80056380D02*
X168790952Y-79484952D01*
X169219523Y-79056380D02*
X168648095Y-79627809D01*
X124237976Y-45235761D02*
X124380833Y-45283380D01*
X124618928Y-45283380D01*
X124714166Y-45235761D01*
X124761785Y-45188142D01*
X124809404Y-45092904D01*
X124809404Y-44997666D01*
X124761785Y-44902428D01*
X124714166Y-44854809D01*
X124618928Y-44807190D01*
X124428452Y-44759571D01*
X124333214Y-44711952D01*
X124285595Y-44664333D01*
X124237976Y-44569095D01*
X124237976Y-44473857D01*
X124285595Y-44378619D01*
X124333214Y-44331000D01*
X124428452Y-44283380D01*
X124666547Y-44283380D01*
X124809404Y-44331000D01*
X125142738Y-44283380D02*
X125380833Y-45283380D01*
X125571309Y-44569095D01*
X125761785Y-45283380D01*
X125999880Y-44283380D01*
X126285595Y-44283380D02*
X126904642Y-44283380D01*
X126571309Y-44664333D01*
X126714166Y-44664333D01*
X126809404Y-44711952D01*
X126857023Y-44759571D01*
X126904642Y-44854809D01*
X126904642Y-45092904D01*
X126857023Y-45188142D01*
X126809404Y-45235761D01*
X126714166Y-45283380D01*
X126428452Y-45283380D01*
X126333214Y-45235761D01*
X126285595Y-45188142D01*
X127761785Y-44283380D02*
X127571309Y-44283380D01*
X127476071Y-44331000D01*
X127428452Y-44378619D01*
X127333214Y-44521476D01*
X127285595Y-44711952D01*
X127285595Y-45092904D01*
X127333214Y-45188142D01*
X127380833Y-45235761D01*
X127476071Y-45283380D01*
X127666547Y-45283380D01*
X127761785Y-45235761D01*
X127809404Y-45188142D01*
X127857023Y-45092904D01*
X127857023Y-44854809D01*
X127809404Y-44759571D01*
X127761785Y-44711952D01*
X127666547Y-44664333D01*
X127476071Y-44664333D01*
X127380833Y-44711952D01*
X127333214Y-44759571D01*
X127285595Y-44854809D01*
X126047500Y-60555190D02*
X126047500Y-61031380D01*
X125714166Y-60031380D02*
X126047500Y-60555190D01*
X126380833Y-60031380D01*
X248062976Y-26185761D02*
X248205833Y-26233380D01*
X248443928Y-26233380D01*
X248539166Y-26185761D01*
X248586785Y-26138142D01*
X248634404Y-26042904D01*
X248634404Y-25947666D01*
X248586785Y-25852428D01*
X248539166Y-25804809D01*
X248443928Y-25757190D01*
X248253452Y-25709571D01*
X248158214Y-25661952D01*
X248110595Y-25614333D01*
X248062976Y-25519095D01*
X248062976Y-25423857D01*
X248110595Y-25328619D01*
X248158214Y-25281000D01*
X248253452Y-25233380D01*
X248491547Y-25233380D01*
X248634404Y-25281000D01*
X248967738Y-25233380D02*
X249205833Y-26233380D01*
X249396309Y-25519095D01*
X249586785Y-26233380D01*
X249824880Y-25233380D01*
X250110595Y-25233380D02*
X250729642Y-25233380D01*
X250396309Y-25614333D01*
X250539166Y-25614333D01*
X250634404Y-25661952D01*
X250682023Y-25709571D01*
X250729642Y-25804809D01*
X250729642Y-26042904D01*
X250682023Y-26138142D01*
X250634404Y-26185761D01*
X250539166Y-26233380D01*
X250253452Y-26233380D01*
X250158214Y-26185761D01*
X250110595Y-26138142D01*
X251634404Y-25233380D02*
X251158214Y-25233380D01*
X251110595Y-25709571D01*
X251158214Y-25661952D01*
X251253452Y-25614333D01*
X251491547Y-25614333D01*
X251586785Y-25661952D01*
X251634404Y-25709571D01*
X251682023Y-25804809D01*
X251682023Y-26042904D01*
X251634404Y-26138142D01*
X251586785Y-26185761D01*
X251491547Y-26233380D01*
X251253452Y-26233380D01*
X251158214Y-26185761D01*
X251110595Y-26138142D01*
X249467738Y-41457571D02*
X249610595Y-41505190D01*
X249658214Y-41552809D01*
X249705833Y-41648047D01*
X249705833Y-41790904D01*
X249658214Y-41886142D01*
X249610595Y-41933761D01*
X249515357Y-41981380D01*
X249134404Y-41981380D01*
X249134404Y-40981380D01*
X249467738Y-40981380D01*
X249562976Y-41029000D01*
X249610595Y-41076619D01*
X249658214Y-41171857D01*
X249658214Y-41267095D01*
X249610595Y-41362333D01*
X249562976Y-41409952D01*
X249467738Y-41457571D01*
X249134404Y-41457571D01*
X250086785Y-41933761D02*
X250229642Y-41981380D01*
X250467738Y-41981380D01*
X250562976Y-41933761D01*
X250610595Y-41886142D01*
X250658214Y-41790904D01*
X250658214Y-41695666D01*
X250610595Y-41600428D01*
X250562976Y-41552809D01*
X250467738Y-41505190D01*
X250277261Y-41457571D01*
X250182023Y-41409952D01*
X250134404Y-41362333D01*
X250086785Y-41267095D01*
X250086785Y-41171857D01*
X250134404Y-41076619D01*
X250182023Y-41029000D01*
X250277261Y-40981380D01*
X250515357Y-40981380D01*
X250658214Y-41029000D01*
X95662976Y-26185761D02*
X95805833Y-26233380D01*
X96043928Y-26233380D01*
X96139166Y-26185761D01*
X96186785Y-26138142D01*
X96234404Y-26042904D01*
X96234404Y-25947666D01*
X96186785Y-25852428D01*
X96139166Y-25804809D01*
X96043928Y-25757190D01*
X95853452Y-25709571D01*
X95758214Y-25661952D01*
X95710595Y-25614333D01*
X95662976Y-25519095D01*
X95662976Y-25423857D01*
X95710595Y-25328619D01*
X95758214Y-25281000D01*
X95853452Y-25233380D01*
X96091547Y-25233380D01*
X96234404Y-25281000D01*
X96567738Y-25233380D02*
X96805833Y-26233380D01*
X96996309Y-25519095D01*
X97186785Y-26233380D01*
X97424880Y-25233380D01*
X97710595Y-25233380D02*
X98329642Y-25233380D01*
X97996309Y-25614333D01*
X98139166Y-25614333D01*
X98234404Y-25661952D01*
X98282023Y-25709571D01*
X98329642Y-25804809D01*
X98329642Y-26042904D01*
X98282023Y-26138142D01*
X98234404Y-26185761D01*
X98139166Y-26233380D01*
X97853452Y-26233380D01*
X97758214Y-26185761D01*
X97710595Y-26138142D01*
X99186785Y-25566714D02*
X99186785Y-26233380D01*
X98948690Y-25185761D02*
X98710595Y-25900047D01*
X99329642Y-25900047D01*
X97710595Y-40981380D02*
X97234404Y-40981380D01*
X97186785Y-41457571D01*
X97234404Y-41409952D01*
X97329642Y-41362333D01*
X97567738Y-41362333D01*
X97662976Y-41409952D01*
X97710595Y-41457571D01*
X97758214Y-41552809D01*
X97758214Y-41790904D01*
X97710595Y-41886142D01*
X97662976Y-41933761D01*
X97567738Y-41981380D01*
X97329642Y-41981380D01*
X97234404Y-41933761D01*
X97186785Y-41886142D01*
X214725476Y2389238D02*
X214868333Y2341619D01*
X215106428Y2341619D01*
X215201666Y2389238D01*
X215249285Y2436857D01*
X215296904Y2532095D01*
X215296904Y2627333D01*
X215249285Y2722571D01*
X215201666Y2770190D01*
X215106428Y2817809D01*
X214915952Y2865428D01*
X214820714Y2913047D01*
X214773095Y2960666D01*
X214725476Y3055904D01*
X214725476Y3151142D01*
X214773095Y3246380D01*
X214820714Y3294000D01*
X214915952Y3341619D01*
X215154047Y3341619D01*
X215296904Y3294000D01*
X215630238Y3341619D02*
X215868333Y2341619D01*
X216058809Y3055904D01*
X216249285Y2341619D01*
X216487380Y3341619D01*
X216773095Y3341619D02*
X217392142Y3341619D01*
X217058809Y2960666D01*
X217201666Y2960666D01*
X217296904Y2913047D01*
X217344523Y2865428D01*
X217392142Y2770190D01*
X217392142Y2532095D01*
X217344523Y2436857D01*
X217296904Y2389238D01*
X217201666Y2341619D01*
X216915952Y2341619D01*
X216820714Y2389238D01*
X216773095Y2436857D01*
X217725476Y3341619D02*
X218344523Y3341619D01*
X218011190Y2960666D01*
X218154047Y2960666D01*
X218249285Y2913047D01*
X218296904Y2865428D01*
X218344523Y2770190D01*
X218344523Y2532095D01*
X218296904Y2436857D01*
X218249285Y2389238D01*
X218154047Y2341619D01*
X217868333Y2341619D01*
X217773095Y2389238D01*
X217725476Y2436857D01*
X214058809Y-13358761D02*
X214201666Y-13406380D01*
X214439761Y-13406380D01*
X214535000Y-13358761D01*
X214582619Y-13311142D01*
X214630238Y-13215904D01*
X214630238Y-13120666D01*
X214582619Y-13025428D01*
X214535000Y-12977809D01*
X214439761Y-12930190D01*
X214249285Y-12882571D01*
X214154047Y-12834952D01*
X214106428Y-12787333D01*
X214058809Y-12692095D01*
X214058809Y-12596857D01*
X214106428Y-12501619D01*
X214154047Y-12454000D01*
X214249285Y-12406380D01*
X214487380Y-12406380D01*
X214630238Y-12454000D01*
X215058809Y-12882571D02*
X215392142Y-12882571D01*
X215535000Y-13406380D02*
X215058809Y-13406380D01*
X215058809Y-12406380D01*
X215535000Y-12406380D01*
X216439761Y-13406380D02*
X215963571Y-13406380D01*
X215963571Y-12406380D01*
X216773095Y-12882571D02*
X217106428Y-12882571D01*
X217249285Y-13406380D02*
X216773095Y-13406380D01*
X216773095Y-12406380D01*
X217249285Y-12406380D01*
X218249285Y-13311142D02*
X218201666Y-13358761D01*
X218058809Y-13406380D01*
X217963571Y-13406380D01*
X217820714Y-13358761D01*
X217725476Y-13263523D01*
X217677857Y-13168285D01*
X217630238Y-12977809D01*
X217630238Y-12834952D01*
X217677857Y-12644476D01*
X217725476Y-12549238D01*
X217820714Y-12454000D01*
X217963571Y-12406380D01*
X218058809Y-12406380D01*
X218201666Y-12454000D01*
X218249285Y-12501619D01*
X218535000Y-12406380D02*
X219106428Y-12406380D01*
X218820714Y-13406380D02*
X218820714Y-12406380D01*
X195675476Y-83260761D02*
X195818333Y-83308380D01*
X196056428Y-83308380D01*
X196151666Y-83260761D01*
X196199285Y-83213142D01*
X196246904Y-83117904D01*
X196246904Y-83022666D01*
X196199285Y-82927428D01*
X196151666Y-82879809D01*
X196056428Y-82832190D01*
X195865952Y-82784571D01*
X195770714Y-82736952D01*
X195723095Y-82689333D01*
X195675476Y-82594095D01*
X195675476Y-82498857D01*
X195723095Y-82403619D01*
X195770714Y-82356000D01*
X195865952Y-82308380D01*
X196104047Y-82308380D01*
X196246904Y-82356000D01*
X196580238Y-82308380D02*
X196818333Y-83308380D01*
X197008809Y-82594095D01*
X197199285Y-83308380D01*
X197437380Y-82308380D01*
X197723095Y-82308380D02*
X198342142Y-82308380D01*
X198008809Y-82689333D01*
X198151666Y-82689333D01*
X198246904Y-82736952D01*
X198294523Y-82784571D01*
X198342142Y-82879809D01*
X198342142Y-83117904D01*
X198294523Y-83213142D01*
X198246904Y-83260761D01*
X198151666Y-83308380D01*
X197865952Y-83308380D01*
X197770714Y-83260761D01*
X197723095Y-83213142D01*
X198723095Y-82403619D02*
X198770714Y-82356000D01*
X198865952Y-82308380D01*
X199104047Y-82308380D01*
X199199285Y-82356000D01*
X199246904Y-82403619D01*
X199294523Y-82498857D01*
X199294523Y-82594095D01*
X199246904Y-82736952D01*
X198675476Y-83308380D01*
X199294523Y-83308380D01*
X197104047Y-99389714D02*
X196865952Y-99389714D01*
X196865952Y-97961142D01*
X197104047Y-97961142D01*
X197485000Y-98961142D02*
X197532619Y-99008761D01*
X197485000Y-99056380D01*
X197437380Y-99008761D01*
X197485000Y-98961142D01*
X197485000Y-99056380D01*
X197865952Y-99389714D02*
X198104047Y-99389714D01*
X198104047Y-97961142D01*
X197865952Y-97961142D01*
X43275476Y-83260761D02*
X43418333Y-83308380D01*
X43656428Y-83308380D01*
X43751666Y-83260761D01*
X43799285Y-83213142D01*
X43846904Y-83117904D01*
X43846904Y-83022666D01*
X43799285Y-82927428D01*
X43751666Y-82879809D01*
X43656428Y-82832190D01*
X43465952Y-82784571D01*
X43370714Y-82736952D01*
X43323095Y-82689333D01*
X43275476Y-82594095D01*
X43275476Y-82498857D01*
X43323095Y-82403619D01*
X43370714Y-82356000D01*
X43465952Y-82308380D01*
X43704047Y-82308380D01*
X43846904Y-82356000D01*
X44180238Y-82308380D02*
X44418333Y-83308380D01*
X44608809Y-82594095D01*
X44799285Y-83308380D01*
X45037380Y-82308380D01*
X45323095Y-82308380D02*
X45942142Y-82308380D01*
X45608809Y-82689333D01*
X45751666Y-82689333D01*
X45846904Y-82736952D01*
X45894523Y-82784571D01*
X45942142Y-82879809D01*
X45942142Y-83117904D01*
X45894523Y-83213142D01*
X45846904Y-83260761D01*
X45751666Y-83308380D01*
X45465952Y-83308380D01*
X45370714Y-83260761D01*
X45323095Y-83213142D01*
X46894523Y-83308380D02*
X46323095Y-83308380D01*
X46608809Y-83308380D02*
X46608809Y-82308380D01*
X46513571Y-82451238D01*
X46418333Y-82546476D01*
X46323095Y-82594095D01*
X44751666Y-98056380D02*
X45418333Y-98056380D01*
X44751666Y-99056380D01*
X45418333Y-99056380D01*
X148050476Y-64260761D02*
X148193333Y-64308380D01*
X148431428Y-64308380D01*
X148526666Y-64260761D01*
X148574285Y-64213142D01*
X148621904Y-64117904D01*
X148621904Y-64022666D01*
X148574285Y-63927428D01*
X148526666Y-63879809D01*
X148431428Y-63832190D01*
X148240952Y-63784571D01*
X148145714Y-63736952D01*
X148098095Y-63689333D01*
X148050476Y-63594095D01*
X148050476Y-63498857D01*
X148098095Y-63403619D01*
X148145714Y-63356000D01*
X148240952Y-63308380D01*
X148479047Y-63308380D01*
X148621904Y-63356000D01*
X148955238Y-63308380D02*
X149193333Y-64308380D01*
X149383809Y-63594095D01*
X149574285Y-64308380D01*
X149812380Y-63308380D01*
X150098095Y-63308380D02*
X150717142Y-63308380D01*
X150383809Y-63689333D01*
X150526666Y-63689333D01*
X150621904Y-63736952D01*
X150669523Y-63784571D01*
X150717142Y-63879809D01*
X150717142Y-64117904D01*
X150669523Y-64213142D01*
X150621904Y-64260761D01*
X150526666Y-64308380D01*
X150240952Y-64308380D01*
X150145714Y-64260761D01*
X150098095Y-64213142D01*
X151336190Y-63308380D02*
X151431428Y-63308380D01*
X151526666Y-63356000D01*
X151574285Y-63403619D01*
X151621904Y-63498857D01*
X151669523Y-63689333D01*
X151669523Y-63927428D01*
X151621904Y-64117904D01*
X151574285Y-64213142D01*
X151526666Y-64260761D01*
X151431428Y-64308380D01*
X151336190Y-64308380D01*
X151240952Y-64260761D01*
X151193333Y-64213142D01*
X151145714Y-64117904D01*
X151098095Y-63927428D01*
X151098095Y-63689333D01*
X151145714Y-63498857D01*
X151193333Y-63403619D01*
X151240952Y-63356000D01*
X151336190Y-63308380D01*
X150002857Y-79056380D02*
X150002857Y-79770666D01*
X149955238Y-79913523D01*
X149860000Y-80008761D01*
X149717142Y-80056380D01*
X149621904Y-80056380D01*
X105187976Y-45235761D02*
X105330833Y-45283380D01*
X105568928Y-45283380D01*
X105664166Y-45235761D01*
X105711785Y-45188142D01*
X105759404Y-45092904D01*
X105759404Y-44997666D01*
X105711785Y-44902428D01*
X105664166Y-44854809D01*
X105568928Y-44807190D01*
X105378452Y-44759571D01*
X105283214Y-44711952D01*
X105235595Y-44664333D01*
X105187976Y-44569095D01*
X105187976Y-44473857D01*
X105235595Y-44378619D01*
X105283214Y-44331000D01*
X105378452Y-44283380D01*
X105616547Y-44283380D01*
X105759404Y-44331000D01*
X106092738Y-44283380D02*
X106330833Y-45283380D01*
X106521309Y-44569095D01*
X106711785Y-45283380D01*
X106949880Y-44283380D01*
X107283214Y-44378619D02*
X107330833Y-44331000D01*
X107426071Y-44283380D01*
X107664166Y-44283380D01*
X107759404Y-44331000D01*
X107807023Y-44378619D01*
X107854642Y-44473857D01*
X107854642Y-44569095D01*
X107807023Y-44711952D01*
X107235595Y-45283380D01*
X107854642Y-45283380D01*
X108426071Y-44711952D02*
X108330833Y-44664333D01*
X108283214Y-44616714D01*
X108235595Y-44521476D01*
X108235595Y-44473857D01*
X108283214Y-44378619D01*
X108330833Y-44331000D01*
X108426071Y-44283380D01*
X108616547Y-44283380D01*
X108711785Y-44331000D01*
X108759404Y-44378619D01*
X108807023Y-44473857D01*
X108807023Y-44521476D01*
X108759404Y-44616714D01*
X108711785Y-44664333D01*
X108616547Y-44711952D01*
X108426071Y-44711952D01*
X108330833Y-44759571D01*
X108283214Y-44807190D01*
X108235595Y-44902428D01*
X108235595Y-45092904D01*
X108283214Y-45188142D01*
X108330833Y-45235761D01*
X108426071Y-45283380D01*
X108616547Y-45283380D01*
X108711785Y-45235761D01*
X108759404Y-45188142D01*
X108807023Y-45092904D01*
X108807023Y-44902428D01*
X108759404Y-44807190D01*
X108711785Y-44759571D01*
X108616547Y-44711952D01*
X106711785Y-60031380D02*
X107283214Y-60031380D01*
X106997500Y-61031380D02*
X106997500Y-60031380D01*
X229012976Y-26185761D02*
X229155833Y-26233380D01*
X229393928Y-26233380D01*
X229489166Y-26185761D01*
X229536785Y-26138142D01*
X229584404Y-26042904D01*
X229584404Y-25947666D01*
X229536785Y-25852428D01*
X229489166Y-25804809D01*
X229393928Y-25757190D01*
X229203452Y-25709571D01*
X229108214Y-25661952D01*
X229060595Y-25614333D01*
X229012976Y-25519095D01*
X229012976Y-25423857D01*
X229060595Y-25328619D01*
X229108214Y-25281000D01*
X229203452Y-25233380D01*
X229441547Y-25233380D01*
X229584404Y-25281000D01*
X229917738Y-25233380D02*
X230155833Y-26233380D01*
X230346309Y-25519095D01*
X230536785Y-26233380D01*
X230774880Y-25233380D01*
X231108214Y-25328619D02*
X231155833Y-25281000D01*
X231251071Y-25233380D01*
X231489166Y-25233380D01*
X231584404Y-25281000D01*
X231632023Y-25328619D01*
X231679642Y-25423857D01*
X231679642Y-25519095D01*
X231632023Y-25661952D01*
X231060595Y-26233380D01*
X231679642Y-26233380D01*
X232012976Y-25233380D02*
X232679642Y-25233380D01*
X232251071Y-26233380D01*
X230441547Y-41314714D02*
X231203452Y-41600428D01*
X230441547Y-41886142D01*
X76612976Y-26185761D02*
X76755833Y-26233380D01*
X76993928Y-26233380D01*
X77089166Y-26185761D01*
X77136785Y-26138142D01*
X77184404Y-26042904D01*
X77184404Y-25947666D01*
X77136785Y-25852428D01*
X77089166Y-25804809D01*
X76993928Y-25757190D01*
X76803452Y-25709571D01*
X76708214Y-25661952D01*
X76660595Y-25614333D01*
X76612976Y-25519095D01*
X76612976Y-25423857D01*
X76660595Y-25328619D01*
X76708214Y-25281000D01*
X76803452Y-25233380D01*
X77041547Y-25233380D01*
X77184404Y-25281000D01*
X77517738Y-25233380D02*
X77755833Y-26233380D01*
X77946309Y-25519095D01*
X78136785Y-26233380D01*
X78374880Y-25233380D01*
X78708214Y-25328619D02*
X78755833Y-25281000D01*
X78851071Y-25233380D01*
X79089166Y-25233380D01*
X79184404Y-25281000D01*
X79232023Y-25328619D01*
X79279642Y-25423857D01*
X79279642Y-25519095D01*
X79232023Y-25661952D01*
X78660595Y-26233380D01*
X79279642Y-26233380D01*
X80136785Y-25233380D02*
X79946309Y-25233380D01*
X79851071Y-25281000D01*
X79803452Y-25328619D01*
X79708214Y-25471476D01*
X79660595Y-25661952D01*
X79660595Y-26042904D01*
X79708214Y-26138142D01*
X79755833Y-26185761D01*
X79851071Y-26233380D01*
X80041547Y-26233380D01*
X80136785Y-26185761D01*
X80184404Y-26138142D01*
X80232023Y-26042904D01*
X80232023Y-25804809D01*
X80184404Y-25709571D01*
X80136785Y-25661952D01*
X80041547Y-25614333D01*
X79851071Y-25614333D01*
X79755833Y-25661952D01*
X79708214Y-25709571D01*
X79660595Y-25804809D01*
X78612976Y-41314714D02*
X78612976Y-41981380D01*
X78374880Y-40933761D02*
X78136785Y-41648047D01*
X78755833Y-41648047D01*
X190912976Y2389238D02*
X191055833Y2341619D01*
X191293928Y2341619D01*
X191389166Y2389238D01*
X191436785Y2436857D01*
X191484404Y2532095D01*
X191484404Y2627333D01*
X191436785Y2722571D01*
X191389166Y2770190D01*
X191293928Y2817809D01*
X191103452Y2865428D01*
X191008214Y2913047D01*
X190960595Y2960666D01*
X190912976Y3055904D01*
X190912976Y3151142D01*
X190960595Y3246380D01*
X191008214Y3294000D01*
X191103452Y3341619D01*
X191341547Y3341619D01*
X191484404Y3294000D01*
X191817738Y3341619D02*
X192055833Y2341619D01*
X192246309Y3055904D01*
X192436785Y2341619D01*
X192674880Y3341619D01*
X193008214Y3246380D02*
X193055833Y3294000D01*
X193151071Y3341619D01*
X193389166Y3341619D01*
X193484404Y3294000D01*
X193532023Y3246380D01*
X193579642Y3151142D01*
X193579642Y3055904D01*
X193532023Y2913047D01*
X192960595Y2341619D01*
X193579642Y2341619D01*
X194484404Y3341619D02*
X194008214Y3341619D01*
X193960595Y2865428D01*
X194008214Y2913047D01*
X194103452Y2960666D01*
X194341547Y2960666D01*
X194436785Y2913047D01*
X194484404Y2865428D01*
X194532023Y2770190D01*
X194532023Y2532095D01*
X194484404Y2436857D01*
X194436785Y2389238D01*
X194341547Y2341619D01*
X194103452Y2341619D01*
X194008214Y2389238D01*
X193960595Y2436857D01*
X190460595Y-12406380D02*
X190651071Y-12406380D01*
X190746309Y-12454000D01*
X190841547Y-12549238D01*
X190889166Y-12739714D01*
X190889166Y-13073047D01*
X190841547Y-13263523D01*
X190746309Y-13358761D01*
X190651071Y-13406380D01*
X190460595Y-13406380D01*
X190365357Y-13358761D01*
X190270119Y-13263523D01*
X190222500Y-13073047D01*
X190222500Y-12739714D01*
X190270119Y-12549238D01*
X190365357Y-12454000D01*
X190460595Y-12406380D01*
X191317738Y-13406380D02*
X191317738Y-12406380D01*
X191698690Y-12406380D01*
X191793928Y-12454000D01*
X191841547Y-12501619D01*
X191889166Y-12596857D01*
X191889166Y-12739714D01*
X191841547Y-12834952D01*
X191793928Y-12882571D01*
X191698690Y-12930190D01*
X191317738Y-12930190D01*
X192174880Y-12406380D02*
X192746309Y-12406380D01*
X192460595Y-13406380D02*
X192460595Y-12406380D01*
X193079642Y-13406380D02*
X193079642Y-12406380D01*
X193746309Y-12406380D02*
X193936785Y-12406380D01*
X194032023Y-12454000D01*
X194127261Y-12549238D01*
X194174880Y-12739714D01*
X194174880Y-13073047D01*
X194127261Y-13263523D01*
X194032023Y-13358761D01*
X193936785Y-13406380D01*
X193746309Y-13406380D01*
X193651071Y-13358761D01*
X193555833Y-13263523D01*
X193508214Y-13073047D01*
X193508214Y-12739714D01*
X193555833Y-12549238D01*
X193651071Y-12454000D01*
X193746309Y-12406380D01*
X194603452Y-13406380D02*
X194603452Y-12406380D01*
X195174880Y-13406380D01*
X195174880Y-12406380D01*
X176625476Y-83260761D02*
X176768333Y-83308380D01*
X177006428Y-83308380D01*
X177101666Y-83260761D01*
X177149285Y-83213142D01*
X177196904Y-83117904D01*
X177196904Y-83022666D01*
X177149285Y-82927428D01*
X177101666Y-82879809D01*
X177006428Y-82832190D01*
X176815952Y-82784571D01*
X176720714Y-82736952D01*
X176673095Y-82689333D01*
X176625476Y-82594095D01*
X176625476Y-82498857D01*
X176673095Y-82403619D01*
X176720714Y-82356000D01*
X176815952Y-82308380D01*
X177054047Y-82308380D01*
X177196904Y-82356000D01*
X177530238Y-82308380D02*
X177768333Y-83308380D01*
X177958809Y-82594095D01*
X178149285Y-83308380D01*
X178387380Y-82308380D01*
X178720714Y-82403619D02*
X178768333Y-82356000D01*
X178863571Y-82308380D01*
X179101666Y-82308380D01*
X179196904Y-82356000D01*
X179244523Y-82403619D01*
X179292142Y-82498857D01*
X179292142Y-82594095D01*
X179244523Y-82736952D01*
X178673095Y-83308380D01*
X179292142Y-83308380D01*
X180149285Y-82641714D02*
X180149285Y-83308380D01*
X179911190Y-82260761D02*
X179673095Y-82975047D01*
X180292142Y-82975047D01*
X178054047Y-99389714D02*
X177815952Y-99389714D01*
X177815952Y-97961142D01*
X178054047Y-97961142D01*
X178482619Y-99008761D02*
X178482619Y-99056380D01*
X178435000Y-99151619D01*
X178387380Y-99199238D01*
X178815952Y-99389714D02*
X179054047Y-99389714D01*
X179054047Y-97961142D01*
X178815952Y-97961142D01*
X129000476Y-64260761D02*
X129143333Y-64308380D01*
X129381428Y-64308380D01*
X129476666Y-64260761D01*
X129524285Y-64213142D01*
X129571904Y-64117904D01*
X129571904Y-64022666D01*
X129524285Y-63927428D01*
X129476666Y-63879809D01*
X129381428Y-63832190D01*
X129190952Y-63784571D01*
X129095714Y-63736952D01*
X129048095Y-63689333D01*
X129000476Y-63594095D01*
X129000476Y-63498857D01*
X129048095Y-63403619D01*
X129095714Y-63356000D01*
X129190952Y-63308380D01*
X129429047Y-63308380D01*
X129571904Y-63356000D01*
X129905238Y-63308380D02*
X130143333Y-64308380D01*
X130333809Y-63594095D01*
X130524285Y-64308380D01*
X130762380Y-63308380D01*
X131095714Y-63403619D02*
X131143333Y-63356000D01*
X131238571Y-63308380D01*
X131476666Y-63308380D01*
X131571904Y-63356000D01*
X131619523Y-63403619D01*
X131667142Y-63498857D01*
X131667142Y-63594095D01*
X131619523Y-63736952D01*
X131048095Y-64308380D01*
X131667142Y-64308380D01*
X132048095Y-63403619D02*
X132095714Y-63356000D01*
X132190952Y-63308380D01*
X132429047Y-63308380D01*
X132524285Y-63356000D01*
X132571904Y-63403619D01*
X132619523Y-63498857D01*
X132619523Y-63594095D01*
X132571904Y-63736952D01*
X132000476Y-64308380D01*
X132619523Y-64308380D01*
X130524285Y-80056380D02*
X130524285Y-79056380D01*
X130524285Y-79532571D02*
X131095714Y-79532571D01*
X131095714Y-80056380D02*
X131095714Y-79056380D01*
X238537976Y-45235761D02*
X238680833Y-45283380D01*
X238918928Y-45283380D01*
X239014166Y-45235761D01*
X239061785Y-45188142D01*
X239109404Y-45092904D01*
X239109404Y-44997666D01*
X239061785Y-44902428D01*
X239014166Y-44854809D01*
X238918928Y-44807190D01*
X238728452Y-44759571D01*
X238633214Y-44711952D01*
X238585595Y-44664333D01*
X238537976Y-44569095D01*
X238537976Y-44473857D01*
X238585595Y-44378619D01*
X238633214Y-44331000D01*
X238728452Y-44283380D01*
X238966547Y-44283380D01*
X239109404Y-44331000D01*
X239442738Y-44283380D02*
X239680833Y-45283380D01*
X239871309Y-44569095D01*
X240061785Y-45283380D01*
X240299880Y-44283380D01*
X240633214Y-44378619D02*
X240680833Y-44331000D01*
X240776071Y-44283380D01*
X241014166Y-44283380D01*
X241109404Y-44331000D01*
X241157023Y-44378619D01*
X241204642Y-44473857D01*
X241204642Y-44569095D01*
X241157023Y-44711952D01*
X240585595Y-45283380D01*
X241204642Y-45283380D01*
X242157023Y-45283380D02*
X241585595Y-45283380D01*
X241871309Y-45283380D02*
X241871309Y-44283380D01*
X241776071Y-44426238D01*
X241680833Y-44521476D01*
X241585595Y-44569095D01*
X239585595Y-61364714D02*
X239347500Y-61364714D01*
X239347500Y-59936142D01*
X239585595Y-59936142D01*
X239966547Y-60507571D02*
X240728452Y-60507571D01*
X240728452Y-60793285D02*
X239966547Y-60793285D01*
X241109404Y-61364714D02*
X241347500Y-61364714D01*
X241347500Y-59936142D01*
X241109404Y-59936142D01*
X86137976Y-45235761D02*
X86280833Y-45283380D01*
X86518928Y-45283380D01*
X86614166Y-45235761D01*
X86661785Y-45188142D01*
X86709404Y-45092904D01*
X86709404Y-44997666D01*
X86661785Y-44902428D01*
X86614166Y-44854809D01*
X86518928Y-44807190D01*
X86328452Y-44759571D01*
X86233214Y-44711952D01*
X86185595Y-44664333D01*
X86137976Y-44569095D01*
X86137976Y-44473857D01*
X86185595Y-44378619D01*
X86233214Y-44331000D01*
X86328452Y-44283380D01*
X86566547Y-44283380D01*
X86709404Y-44331000D01*
X87042738Y-44283380D02*
X87280833Y-45283380D01*
X87471309Y-44569095D01*
X87661785Y-45283380D01*
X87899880Y-44283380D01*
X88233214Y-44378619D02*
X88280833Y-44331000D01*
X88376071Y-44283380D01*
X88614166Y-44283380D01*
X88709404Y-44331000D01*
X88757023Y-44378619D01*
X88804642Y-44473857D01*
X88804642Y-44569095D01*
X88757023Y-44711952D01*
X88185595Y-45283380D01*
X88804642Y-45283380D01*
X89423690Y-44283380D02*
X89518928Y-44283380D01*
X89614166Y-44331000D01*
X89661785Y-44378619D01*
X89709404Y-44473857D01*
X89757023Y-44664333D01*
X89757023Y-44902428D01*
X89709404Y-45092904D01*
X89661785Y-45188142D01*
X89614166Y-45235761D01*
X89518928Y-45283380D01*
X89423690Y-45283380D01*
X89328452Y-45235761D01*
X89280833Y-45188142D01*
X89233214Y-45092904D01*
X89185595Y-44902428D01*
X89185595Y-44664333D01*
X89233214Y-44473857D01*
X89280833Y-44378619D01*
X89328452Y-44331000D01*
X89423690Y-44283380D01*
X88257023Y-61031380D02*
X87923690Y-60555190D01*
X87685595Y-61031380D02*
X87685595Y-60031380D01*
X88066547Y-60031380D01*
X88161785Y-60079000D01*
X88209404Y-60126619D01*
X88257023Y-60221857D01*
X88257023Y-60364714D01*
X88209404Y-60459952D01*
X88161785Y-60507571D01*
X88066547Y-60555190D01*
X87685595Y-60555190D01*
X209962976Y-26185761D02*
X210105833Y-26233380D01*
X210343928Y-26233380D01*
X210439166Y-26185761D01*
X210486785Y-26138142D01*
X210534404Y-26042904D01*
X210534404Y-25947666D01*
X210486785Y-25852428D01*
X210439166Y-25804809D01*
X210343928Y-25757190D01*
X210153452Y-25709571D01*
X210058214Y-25661952D01*
X210010595Y-25614333D01*
X209962976Y-25519095D01*
X209962976Y-25423857D01*
X210010595Y-25328619D01*
X210058214Y-25281000D01*
X210153452Y-25233380D01*
X210391547Y-25233380D01*
X210534404Y-25281000D01*
X210867738Y-25233380D02*
X211105833Y-26233380D01*
X211296309Y-25519095D01*
X211486785Y-26233380D01*
X211724880Y-25233380D01*
X212629642Y-26233380D02*
X212058214Y-26233380D01*
X212343928Y-26233380D02*
X212343928Y-25233380D01*
X212248690Y-25376238D01*
X212153452Y-25471476D01*
X212058214Y-25519095D01*
X213105833Y-26233380D02*
X213296309Y-26233380D01*
X213391547Y-26185761D01*
X213439166Y-26138142D01*
X213534404Y-25995285D01*
X213582023Y-25804809D01*
X213582023Y-25423857D01*
X213534404Y-25328619D01*
X213486785Y-25281000D01*
X213391547Y-25233380D01*
X213201071Y-25233380D01*
X213105833Y-25281000D01*
X213058214Y-25328619D01*
X213010595Y-25423857D01*
X213010595Y-25661952D01*
X213058214Y-25757190D01*
X213105833Y-25804809D01*
X213201071Y-25852428D01*
X213391547Y-25852428D01*
X213486785Y-25804809D01*
X213534404Y-25757190D01*
X213582023Y-25661952D01*
X212153452Y-41314714D02*
X211391547Y-41600428D01*
X212153452Y-41886142D01*
X57562976Y-26185761D02*
X57705833Y-26233380D01*
X57943928Y-26233380D01*
X58039166Y-26185761D01*
X58086785Y-26138142D01*
X58134404Y-26042904D01*
X58134404Y-25947666D01*
X58086785Y-25852428D01*
X58039166Y-25804809D01*
X57943928Y-25757190D01*
X57753452Y-25709571D01*
X57658214Y-25661952D01*
X57610595Y-25614333D01*
X57562976Y-25519095D01*
X57562976Y-25423857D01*
X57610595Y-25328619D01*
X57658214Y-25281000D01*
X57753452Y-25233380D01*
X57991547Y-25233380D01*
X58134404Y-25281000D01*
X58467738Y-25233380D02*
X58705833Y-26233380D01*
X58896309Y-25519095D01*
X59086785Y-26233380D01*
X59324880Y-25233380D01*
X60229642Y-26233380D02*
X59658214Y-26233380D01*
X59943928Y-26233380D02*
X59943928Y-25233380D01*
X59848690Y-25376238D01*
X59753452Y-25471476D01*
X59658214Y-25519095D01*
X60801071Y-25661952D02*
X60705833Y-25614333D01*
X60658214Y-25566714D01*
X60610595Y-25471476D01*
X60610595Y-25423857D01*
X60658214Y-25328619D01*
X60705833Y-25281000D01*
X60801071Y-25233380D01*
X60991547Y-25233380D01*
X61086785Y-25281000D01*
X61134404Y-25328619D01*
X61182023Y-25423857D01*
X61182023Y-25471476D01*
X61134404Y-25566714D01*
X61086785Y-25614333D01*
X60991547Y-25661952D01*
X60801071Y-25661952D01*
X60705833Y-25709571D01*
X60658214Y-25757190D01*
X60610595Y-25852428D01*
X60610595Y-26042904D01*
X60658214Y-26138142D01*
X60705833Y-26185761D01*
X60801071Y-26233380D01*
X60991547Y-26233380D01*
X61086785Y-26185761D01*
X61134404Y-26138142D01*
X61182023Y-26042904D01*
X61182023Y-25852428D01*
X61134404Y-25757190D01*
X61086785Y-25709571D01*
X60991547Y-25661952D01*
X59039166Y-40981380D02*
X59658214Y-40981380D01*
X59324880Y-41362333D01*
X59467738Y-41362333D01*
X59562976Y-41409952D01*
X59610595Y-41457571D01*
X59658214Y-41552809D01*
X59658214Y-41790904D01*
X59610595Y-41886142D01*
X59562976Y-41933761D01*
X59467738Y-41981380D01*
X59182023Y-41981380D01*
X59086785Y-41933761D01*
X59039166Y-41886142D01*
X167100476Y2389238D02*
X167243333Y2341619D01*
X167481428Y2341619D01*
X167576666Y2389238D01*
X167624285Y2436857D01*
X167671904Y2532095D01*
X167671904Y2627333D01*
X167624285Y2722571D01*
X167576666Y2770190D01*
X167481428Y2817809D01*
X167290952Y2865428D01*
X167195714Y2913047D01*
X167148095Y2960666D01*
X167100476Y3055904D01*
X167100476Y3151142D01*
X167148095Y3246380D01*
X167195714Y3294000D01*
X167290952Y3341619D01*
X167529047Y3341619D01*
X167671904Y3294000D01*
X168005238Y3341619D02*
X168243333Y2341619D01*
X168433809Y3055904D01*
X168624285Y2341619D01*
X168862380Y3341619D01*
X169767142Y2341619D02*
X169195714Y2341619D01*
X169481428Y2341619D02*
X169481428Y3341619D01*
X169386190Y3198761D01*
X169290952Y3103523D01*
X169195714Y3055904D01*
X170100476Y3341619D02*
X170767142Y3341619D01*
X170338571Y2341619D01*
X167457619Y-13406380D02*
X167124285Y-12930190D01*
X166886190Y-13406380D02*
X166886190Y-12406380D01*
X167267142Y-12406380D01*
X167362380Y-12454000D01*
X167410000Y-12501619D01*
X167457619Y-12596857D01*
X167457619Y-12739714D01*
X167410000Y-12834952D01*
X167362380Y-12882571D01*
X167267142Y-12930190D01*
X166886190Y-12930190D01*
X167886190Y-12882571D02*
X168219523Y-12882571D01*
X168362380Y-13406380D02*
X167886190Y-13406380D01*
X167886190Y-12406380D01*
X168362380Y-12406380D01*
X168743333Y-13358761D02*
X168886190Y-13406380D01*
X169124285Y-13406380D01*
X169219523Y-13358761D01*
X169267142Y-13311142D01*
X169314761Y-13215904D01*
X169314761Y-13120666D01*
X169267142Y-13025428D01*
X169219523Y-12977809D01*
X169124285Y-12930190D01*
X168933809Y-12882571D01*
X168838571Y-12834952D01*
X168790952Y-12787333D01*
X168743333Y-12692095D01*
X168743333Y-12596857D01*
X168790952Y-12501619D01*
X168838571Y-12454000D01*
X168933809Y-12406380D01*
X169171904Y-12406380D01*
X169314761Y-12454000D01*
X169743333Y-12882571D02*
X170076666Y-12882571D01*
X170219523Y-13406380D02*
X169743333Y-13406380D01*
X169743333Y-12406380D01*
X170219523Y-12406380D01*
X170505238Y-12406380D02*
X171076666Y-12406380D01*
X170790952Y-13406380D02*
X170790952Y-12406380D01*
X157575476Y-83260761D02*
X157718333Y-83308380D01*
X157956428Y-83308380D01*
X158051666Y-83260761D01*
X158099285Y-83213142D01*
X158146904Y-83117904D01*
X158146904Y-83022666D01*
X158099285Y-82927428D01*
X158051666Y-82879809D01*
X157956428Y-82832190D01*
X157765952Y-82784571D01*
X157670714Y-82736952D01*
X157623095Y-82689333D01*
X157575476Y-82594095D01*
X157575476Y-82498857D01*
X157623095Y-82403619D01*
X157670714Y-82356000D01*
X157765952Y-82308380D01*
X158004047Y-82308380D01*
X158146904Y-82356000D01*
X158480238Y-82308380D02*
X158718333Y-83308380D01*
X158908809Y-82594095D01*
X159099285Y-83308380D01*
X159337380Y-82308380D01*
X160242142Y-83308380D02*
X159670714Y-83308380D01*
X159956428Y-83308380D02*
X159956428Y-82308380D01*
X159861190Y-82451238D01*
X159765952Y-82546476D01*
X159670714Y-82594095D01*
X161099285Y-82308380D02*
X160908809Y-82308380D01*
X160813571Y-82356000D01*
X160765952Y-82403619D01*
X160670714Y-82546476D01*
X160623095Y-82736952D01*
X160623095Y-83117904D01*
X160670714Y-83213142D01*
X160718333Y-83260761D01*
X160813571Y-83308380D01*
X161004047Y-83308380D01*
X161099285Y-83260761D01*
X161146904Y-83213142D01*
X161194523Y-83117904D01*
X161194523Y-82879809D01*
X161146904Y-82784571D01*
X161099285Y-82736952D01*
X161004047Y-82689333D01*
X160813571Y-82689333D01*
X160718333Y-82736952D01*
X160670714Y-82784571D01*
X160623095Y-82879809D01*
X159051666Y-99056380D02*
X159051666Y-98056380D01*
X159385000Y-98770666D01*
X159718333Y-98056380D01*
X159718333Y-99056380D01*
X109950476Y-64260761D02*
X110093333Y-64308380D01*
X110331428Y-64308380D01*
X110426666Y-64260761D01*
X110474285Y-64213142D01*
X110521904Y-64117904D01*
X110521904Y-64022666D01*
X110474285Y-63927428D01*
X110426666Y-63879809D01*
X110331428Y-63832190D01*
X110140952Y-63784571D01*
X110045714Y-63736952D01*
X109998095Y-63689333D01*
X109950476Y-63594095D01*
X109950476Y-63498857D01*
X109998095Y-63403619D01*
X110045714Y-63356000D01*
X110140952Y-63308380D01*
X110379047Y-63308380D01*
X110521904Y-63356000D01*
X110855238Y-63308380D02*
X111093333Y-64308380D01*
X111283809Y-63594095D01*
X111474285Y-64308380D01*
X111712380Y-63308380D01*
X112617142Y-64308380D02*
X112045714Y-64308380D01*
X112331428Y-64308380D02*
X112331428Y-63308380D01*
X112236190Y-63451238D01*
X112140952Y-63546476D01*
X112045714Y-63594095D01*
X113474285Y-63641714D02*
X113474285Y-64308380D01*
X113236190Y-63260761D02*
X112998095Y-63975047D01*
X113617142Y-63975047D01*
X112021904Y-79104000D02*
X111926666Y-79056380D01*
X111783809Y-79056380D01*
X111640952Y-79104000D01*
X111545714Y-79199238D01*
X111498095Y-79294476D01*
X111450476Y-79484952D01*
X111450476Y-79627809D01*
X111498095Y-79818285D01*
X111545714Y-79913523D01*
X111640952Y-80008761D01*
X111783809Y-80056380D01*
X111879047Y-80056380D01*
X112021904Y-80008761D01*
X112069523Y-79961142D01*
X112069523Y-79627809D01*
X111879047Y-79627809D01*
X219487976Y-45235761D02*
X219630833Y-45283380D01*
X219868928Y-45283380D01*
X219964166Y-45235761D01*
X220011785Y-45188142D01*
X220059404Y-45092904D01*
X220059404Y-44997666D01*
X220011785Y-44902428D01*
X219964166Y-44854809D01*
X219868928Y-44807190D01*
X219678452Y-44759571D01*
X219583214Y-44711952D01*
X219535595Y-44664333D01*
X219487976Y-44569095D01*
X219487976Y-44473857D01*
X219535595Y-44378619D01*
X219583214Y-44331000D01*
X219678452Y-44283380D01*
X219916547Y-44283380D01*
X220059404Y-44331000D01*
X220392738Y-44283380D02*
X220630833Y-45283380D01*
X220821309Y-44569095D01*
X221011785Y-45283380D01*
X221249880Y-44283380D01*
X222154642Y-45283380D02*
X221583214Y-45283380D01*
X221868928Y-45283380D02*
X221868928Y-44283380D01*
X221773690Y-44426238D01*
X221678452Y-44521476D01*
X221583214Y-44569095D01*
X222487976Y-44283380D02*
X223107023Y-44283380D01*
X222773690Y-44664333D01*
X222916547Y-44664333D01*
X223011785Y-44711952D01*
X223059404Y-44759571D01*
X223107023Y-44854809D01*
X223107023Y-45092904D01*
X223059404Y-45188142D01*
X223011785Y-45235761D01*
X222916547Y-45283380D01*
X222630833Y-45283380D01*
X222535595Y-45235761D01*
X222487976Y-45188142D01*
X220535595Y-61364714D02*
X220297500Y-61364714D01*
X220297500Y-59936142D01*
X220535595Y-59936142D01*
X220916547Y-60650428D02*
X221678452Y-60650428D01*
X222059404Y-61364714D02*
X222297500Y-61364714D01*
X222297500Y-59936142D01*
X222059404Y-59936142D01*
X67087976Y-45235761D02*
X67230833Y-45283380D01*
X67468928Y-45283380D01*
X67564166Y-45235761D01*
X67611785Y-45188142D01*
X67659404Y-45092904D01*
X67659404Y-44997666D01*
X67611785Y-44902428D01*
X67564166Y-44854809D01*
X67468928Y-44807190D01*
X67278452Y-44759571D01*
X67183214Y-44711952D01*
X67135595Y-44664333D01*
X67087976Y-44569095D01*
X67087976Y-44473857D01*
X67135595Y-44378619D01*
X67183214Y-44331000D01*
X67278452Y-44283380D01*
X67516547Y-44283380D01*
X67659404Y-44331000D01*
X67992738Y-44283380D02*
X68230833Y-45283380D01*
X68421309Y-44569095D01*
X68611785Y-45283380D01*
X68849880Y-44283380D01*
X69754642Y-45283380D02*
X69183214Y-45283380D01*
X69468928Y-45283380D02*
X69468928Y-44283380D01*
X69373690Y-44426238D01*
X69278452Y-44521476D01*
X69183214Y-44569095D01*
X70135595Y-44378619D02*
X70183214Y-44331000D01*
X70278452Y-44283380D01*
X70516547Y-44283380D01*
X70611785Y-44331000D01*
X70659404Y-44378619D01*
X70707023Y-44473857D01*
X70707023Y-44569095D01*
X70659404Y-44711952D01*
X70087976Y-45283380D01*
X70707023Y-45283380D01*
X68683214Y-60507571D02*
X69016547Y-60507571D01*
X69159404Y-61031380D02*
X68683214Y-61031380D01*
X68683214Y-60031380D01*
X69159404Y-60031380D01*
X190912976Y-26185761D02*
X191055833Y-26233380D01*
X191293928Y-26233380D01*
X191389166Y-26185761D01*
X191436785Y-26138142D01*
X191484404Y-26042904D01*
X191484404Y-25947666D01*
X191436785Y-25852428D01*
X191389166Y-25804809D01*
X191293928Y-25757190D01*
X191103452Y-25709571D01*
X191008214Y-25661952D01*
X190960595Y-25614333D01*
X190912976Y-25519095D01*
X190912976Y-25423857D01*
X190960595Y-25328619D01*
X191008214Y-25281000D01*
X191103452Y-25233380D01*
X191341547Y-25233380D01*
X191484404Y-25281000D01*
X191817738Y-25233380D02*
X192055833Y-26233380D01*
X192246309Y-25519095D01*
X192436785Y-26233380D01*
X192674880Y-25233380D01*
X193579642Y-26233380D02*
X193008214Y-26233380D01*
X193293928Y-26233380D02*
X193293928Y-25233380D01*
X193198690Y-25376238D01*
X193103452Y-25471476D01*
X193008214Y-25519095D01*
X194532023Y-26233380D02*
X193960595Y-26233380D01*
X194246309Y-26233380D02*
X194246309Y-25233380D01*
X194151071Y-25376238D01*
X194055833Y-25471476D01*
X193960595Y-25519095D01*
X192674880Y-40981380D02*
X192770119Y-40981380D01*
X192865357Y-41029000D01*
X192912976Y-41076619D01*
X192960595Y-41171857D01*
X193008214Y-41362333D01*
X193008214Y-41600428D01*
X192960595Y-41790904D01*
X192912976Y-41886142D01*
X192865357Y-41933761D01*
X192770119Y-41981380D01*
X192674880Y-41981380D01*
X192579642Y-41933761D01*
X192532023Y-41886142D01*
X192484404Y-41790904D01*
X192436785Y-41600428D01*
X192436785Y-41362333D01*
X192484404Y-41171857D01*
X192532023Y-41076619D01*
X192579642Y-41029000D01*
X192674880Y-40981380D01*
X38512976Y-26185761D02*
X38655833Y-26233380D01*
X38893928Y-26233380D01*
X38989166Y-26185761D01*
X39036785Y-26138142D01*
X39084404Y-26042904D01*
X39084404Y-25947666D01*
X39036785Y-25852428D01*
X38989166Y-25804809D01*
X38893928Y-25757190D01*
X38703452Y-25709571D01*
X38608214Y-25661952D01*
X38560595Y-25614333D01*
X38512976Y-25519095D01*
X38512976Y-25423857D01*
X38560595Y-25328619D01*
X38608214Y-25281000D01*
X38703452Y-25233380D01*
X38941547Y-25233380D01*
X39084404Y-25281000D01*
X39417738Y-25233380D02*
X39655833Y-26233380D01*
X39846309Y-25519095D01*
X40036785Y-26233380D01*
X40274880Y-25233380D01*
X41179642Y-26233380D02*
X40608214Y-26233380D01*
X40893928Y-26233380D02*
X40893928Y-25233380D01*
X40798690Y-25376238D01*
X40703452Y-25471476D01*
X40608214Y-25519095D01*
X41798690Y-25233380D02*
X41893928Y-25233380D01*
X41989166Y-25281000D01*
X42036785Y-25328619D01*
X42084404Y-25423857D01*
X42132023Y-25614333D01*
X42132023Y-25852428D01*
X42084404Y-26042904D01*
X42036785Y-26138142D01*
X41989166Y-26185761D01*
X41893928Y-26233380D01*
X41798690Y-26233380D01*
X41703452Y-26185761D01*
X41655833Y-26138142D01*
X41608214Y-26042904D01*
X41560595Y-25852428D01*
X41560595Y-25614333D01*
X41608214Y-25423857D01*
X41655833Y-25328619D01*
X41703452Y-25281000D01*
X41798690Y-25233380D01*
X40036785Y-41076619D02*
X40084404Y-41029000D01*
X40179642Y-40981380D01*
X40417738Y-40981380D01*
X40512976Y-41029000D01*
X40560595Y-41076619D01*
X40608214Y-41171857D01*
X40608214Y-41267095D01*
X40560595Y-41409952D01*
X39989166Y-41981380D01*
X40608214Y-41981380D01*
X81851666Y2389238D02*
X81994523Y2341619D01*
X82232619Y2341619D01*
X82327857Y2389238D01*
X82375476Y2436857D01*
X82423095Y2532095D01*
X82423095Y2627333D01*
X82375476Y2722571D01*
X82327857Y2770190D01*
X82232619Y2817809D01*
X82042142Y2865428D01*
X81946904Y2913047D01*
X81899285Y2960666D01*
X81851666Y3055904D01*
X81851666Y3151142D01*
X81899285Y3246380D01*
X81946904Y3294000D01*
X82042142Y3341619D01*
X82280238Y3341619D01*
X82423095Y3294000D01*
X82756428Y3341619D02*
X82994523Y2341619D01*
X83185000Y3055904D01*
X83375476Y2341619D01*
X83613571Y3341619D01*
X84042142Y2341619D02*
X84232619Y2341619D01*
X84327857Y2389238D01*
X84375476Y2436857D01*
X84470714Y2579714D01*
X84518333Y2770190D01*
X84518333Y3151142D01*
X84470714Y3246380D01*
X84423095Y3294000D01*
X84327857Y3341619D01*
X84137380Y3341619D01*
X84042142Y3294000D01*
X83994523Y3246380D01*
X83946904Y3151142D01*
X83946904Y2913047D01*
X83994523Y2817809D01*
X84042142Y2770190D01*
X84137380Y2722571D01*
X84327857Y2722571D01*
X84423095Y2770190D01*
X84470714Y2817809D01*
X84518333Y2913047D01*
X80851666Y-12406380D02*
X81423095Y-12406380D01*
X81137380Y-13406380D02*
X81137380Y-12406380D01*
X81756428Y-12406380D02*
X81756428Y-13215904D01*
X81804047Y-13311142D01*
X81851666Y-13358761D01*
X81946904Y-13406380D01*
X82137380Y-13406380D01*
X82232619Y-13358761D01*
X82280238Y-13311142D01*
X82327857Y-13215904D01*
X82327857Y-12406380D01*
X83375476Y-13406380D02*
X83042142Y-12930190D01*
X82804047Y-13406380D02*
X82804047Y-12406380D01*
X83185000Y-12406380D01*
X83280238Y-12454000D01*
X83327857Y-12501619D01*
X83375476Y-12596857D01*
X83375476Y-12739714D01*
X83327857Y-12834952D01*
X83280238Y-12882571D01*
X83185000Y-12930190D01*
X82804047Y-12930190D01*
X84137380Y-12882571D02*
X84280238Y-12930190D01*
X84327857Y-12977809D01*
X84375476Y-13073047D01*
X84375476Y-13215904D01*
X84327857Y-13311142D01*
X84280238Y-13358761D01*
X84185000Y-13406380D01*
X83804047Y-13406380D01*
X83804047Y-12406380D01*
X84137380Y-12406380D01*
X84232619Y-12454000D01*
X84280238Y-12501619D01*
X84327857Y-12596857D01*
X84327857Y-12692095D01*
X84280238Y-12787333D01*
X84232619Y-12834952D01*
X84137380Y-12882571D01*
X83804047Y-12882571D01*
X84994523Y-12406380D02*
X85185000Y-12406380D01*
X85280238Y-12454000D01*
X85375476Y-12549238D01*
X85423095Y-12739714D01*
X85423095Y-13073047D01*
X85375476Y-13263523D01*
X85280238Y-13358761D01*
X85185000Y-13406380D01*
X84994523Y-13406380D01*
X84899285Y-13358761D01*
X84804047Y-13263523D01*
X84756428Y-13073047D01*
X84756428Y-12739714D01*
X84804047Y-12549238D01*
X84899285Y-12454000D01*
X84994523Y-12406380D01*
X139001666Y-83260761D02*
X139144523Y-83308380D01*
X139382619Y-83308380D01*
X139477857Y-83260761D01*
X139525476Y-83213142D01*
X139573095Y-83117904D01*
X139573095Y-83022666D01*
X139525476Y-82927428D01*
X139477857Y-82879809D01*
X139382619Y-82832190D01*
X139192142Y-82784571D01*
X139096904Y-82736952D01*
X139049285Y-82689333D01*
X139001666Y-82594095D01*
X139001666Y-82498857D01*
X139049285Y-82403619D01*
X139096904Y-82356000D01*
X139192142Y-82308380D01*
X139430238Y-82308380D01*
X139573095Y-82356000D01*
X139906428Y-82308380D02*
X140144523Y-83308380D01*
X140335000Y-82594095D01*
X140525476Y-83308380D01*
X140763571Y-82308380D01*
X141287380Y-82736952D02*
X141192142Y-82689333D01*
X141144523Y-82641714D01*
X141096904Y-82546476D01*
X141096904Y-82498857D01*
X141144523Y-82403619D01*
X141192142Y-82356000D01*
X141287380Y-82308380D01*
X141477857Y-82308380D01*
X141573095Y-82356000D01*
X141620714Y-82403619D01*
X141668333Y-82498857D01*
X141668333Y-82546476D01*
X141620714Y-82641714D01*
X141573095Y-82689333D01*
X141477857Y-82736952D01*
X141287380Y-82736952D01*
X141192142Y-82784571D01*
X141144523Y-82832190D01*
X141096904Y-82927428D01*
X141096904Y-83117904D01*
X141144523Y-83213142D01*
X141192142Y-83260761D01*
X141287380Y-83308380D01*
X141477857Y-83308380D01*
X141573095Y-83260761D01*
X141620714Y-83213142D01*
X141668333Y-83117904D01*
X141668333Y-82927428D01*
X141620714Y-82832190D01*
X141573095Y-82784571D01*
X141477857Y-82736952D01*
X140049285Y-99056380D02*
X140049285Y-98056380D01*
X140620714Y-99056380D01*
X140620714Y-98056380D01*
X243776666Y-64260761D02*
X243919523Y-64308380D01*
X244157619Y-64308380D01*
X244252857Y-64260761D01*
X244300476Y-64213142D01*
X244348095Y-64117904D01*
X244348095Y-64022666D01*
X244300476Y-63927428D01*
X244252857Y-63879809D01*
X244157619Y-63832190D01*
X243967142Y-63784571D01*
X243871904Y-63736952D01*
X243824285Y-63689333D01*
X243776666Y-63594095D01*
X243776666Y-63498857D01*
X243824285Y-63403619D01*
X243871904Y-63356000D01*
X243967142Y-63308380D01*
X244205238Y-63308380D01*
X244348095Y-63356000D01*
X244681428Y-63308380D02*
X244919523Y-64308380D01*
X245110000Y-63594095D01*
X245300476Y-64308380D01*
X245538571Y-63308380D01*
X245824285Y-63308380D02*
X246490952Y-63308380D01*
X246062380Y-64308380D01*
X243467142Y-80056380D02*
X243467142Y-79056380D01*
X243800476Y-79770666D01*
X244133809Y-79056380D01*
X244133809Y-80056380D01*
X244610000Y-79056380D02*
X244610000Y-79865904D01*
X244657619Y-79961142D01*
X244705238Y-80008761D01*
X244800476Y-80056380D01*
X244990952Y-80056380D01*
X245086190Y-80008761D01*
X245133809Y-79961142D01*
X245181428Y-79865904D01*
X245181428Y-79056380D01*
X246133809Y-80056380D02*
X245657619Y-80056380D01*
X245657619Y-79056380D01*
X246324285Y-79056380D02*
X246895714Y-79056380D01*
X246610000Y-80056380D02*
X246610000Y-79056380D01*
X91376666Y-64260761D02*
X91519523Y-64308380D01*
X91757619Y-64308380D01*
X91852857Y-64260761D01*
X91900476Y-64213142D01*
X91948095Y-64117904D01*
X91948095Y-64022666D01*
X91900476Y-63927428D01*
X91852857Y-63879809D01*
X91757619Y-63832190D01*
X91567142Y-63784571D01*
X91471904Y-63736952D01*
X91424285Y-63689333D01*
X91376666Y-63594095D01*
X91376666Y-63498857D01*
X91424285Y-63403619D01*
X91471904Y-63356000D01*
X91567142Y-63308380D01*
X91805238Y-63308380D01*
X91948095Y-63356000D01*
X92281428Y-63308380D02*
X92519523Y-64308380D01*
X92710000Y-63594095D01*
X92900476Y-64308380D01*
X93138571Y-63308380D01*
X93948095Y-63308380D02*
X93757619Y-63308380D01*
X93662380Y-63356000D01*
X93614761Y-63403619D01*
X93519523Y-63546476D01*
X93471904Y-63736952D01*
X93471904Y-64117904D01*
X93519523Y-64213142D01*
X93567142Y-64260761D01*
X93662380Y-64308380D01*
X93852857Y-64308380D01*
X93948095Y-64260761D01*
X93995714Y-64213142D01*
X94043333Y-64117904D01*
X94043333Y-63879809D01*
X93995714Y-63784571D01*
X93948095Y-63736952D01*
X93852857Y-63689333D01*
X93662380Y-63689333D01*
X93567142Y-63736952D01*
X93519523Y-63784571D01*
X93471904Y-63879809D01*
X92852857Y-79532571D02*
X92519523Y-79532571D01*
X92519523Y-80056380D02*
X92519523Y-79056380D01*
X92995714Y-79056380D01*
X200914166Y-45235761D02*
X201057023Y-45283380D01*
X201295119Y-45283380D01*
X201390357Y-45235761D01*
X201437976Y-45188142D01*
X201485595Y-45092904D01*
X201485595Y-44997666D01*
X201437976Y-44902428D01*
X201390357Y-44854809D01*
X201295119Y-44807190D01*
X201104642Y-44759571D01*
X201009404Y-44711952D01*
X200961785Y-44664333D01*
X200914166Y-44569095D01*
X200914166Y-44473857D01*
X200961785Y-44378619D01*
X201009404Y-44331000D01*
X201104642Y-44283380D01*
X201342738Y-44283380D01*
X201485595Y-44331000D01*
X201818928Y-44283380D02*
X202057023Y-45283380D01*
X202247500Y-44569095D01*
X202437976Y-45283380D01*
X202676071Y-44283380D01*
X203533214Y-44283380D02*
X203057023Y-44283380D01*
X203009404Y-44759571D01*
X203057023Y-44711952D01*
X203152261Y-44664333D01*
X203390357Y-44664333D01*
X203485595Y-44711952D01*
X203533214Y-44759571D01*
X203580833Y-44854809D01*
X203580833Y-45092904D01*
X203533214Y-45188142D01*
X203485595Y-45235761D01*
X203390357Y-45283380D01*
X203152261Y-45283380D01*
X203057023Y-45235761D01*
X203009404Y-45188142D01*
X201985595Y-61031380D02*
X201985595Y-60031380D01*
X202366547Y-60031380D01*
X202461785Y-60079000D01*
X202509404Y-60126619D01*
X202557023Y-60221857D01*
X202557023Y-60364714D01*
X202509404Y-60459952D01*
X202461785Y-60507571D01*
X202366547Y-60555190D01*
X201985595Y-60555190D01*
X48514166Y-45235761D02*
X48657023Y-45283380D01*
X48895119Y-45283380D01*
X48990357Y-45235761D01*
X49037976Y-45188142D01*
X49085595Y-45092904D01*
X49085595Y-44997666D01*
X49037976Y-44902428D01*
X48990357Y-44854809D01*
X48895119Y-44807190D01*
X48704642Y-44759571D01*
X48609404Y-44711952D01*
X48561785Y-44664333D01*
X48514166Y-44569095D01*
X48514166Y-44473857D01*
X48561785Y-44378619D01*
X48609404Y-44331000D01*
X48704642Y-44283380D01*
X48942738Y-44283380D01*
X49085595Y-44331000D01*
X49418928Y-44283380D02*
X49657023Y-45283380D01*
X49847500Y-44569095D01*
X50037976Y-45283380D01*
X50276071Y-44283380D01*
X51085595Y-44616714D02*
X51085595Y-45283380D01*
X50847500Y-44235761D02*
X50609404Y-44950047D01*
X51228452Y-44950047D01*
X49418928Y-60031380D02*
X49657023Y-61031380D01*
X49847500Y-60317095D01*
X50037976Y-61031380D01*
X50276071Y-60031380D01*
X172339166Y-26185761D02*
X172482023Y-26233380D01*
X172720119Y-26233380D01*
X172815357Y-26185761D01*
X172862976Y-26138142D01*
X172910595Y-26042904D01*
X172910595Y-25947666D01*
X172862976Y-25852428D01*
X172815357Y-25804809D01*
X172720119Y-25757190D01*
X172529642Y-25709571D01*
X172434404Y-25661952D01*
X172386785Y-25614333D01*
X172339166Y-25519095D01*
X172339166Y-25423857D01*
X172386785Y-25328619D01*
X172434404Y-25281000D01*
X172529642Y-25233380D01*
X172767738Y-25233380D01*
X172910595Y-25281000D01*
X173243928Y-25233380D02*
X173482023Y-26233380D01*
X173672500Y-25519095D01*
X173862976Y-26233380D01*
X174101071Y-25233380D01*
X174386785Y-25233380D02*
X175005833Y-25233380D01*
X174672500Y-25614333D01*
X174815357Y-25614333D01*
X174910595Y-25661952D01*
X174958214Y-25709571D01*
X175005833Y-25804809D01*
X175005833Y-26042904D01*
X174958214Y-26138142D01*
X174910595Y-26185761D01*
X174815357Y-26233380D01*
X174529642Y-26233380D01*
X174434404Y-26185761D01*
X174386785Y-26138142D01*
X173482023Y-41981380D02*
X173672500Y-41981380D01*
X173767738Y-41933761D01*
X173815357Y-41886142D01*
X173910595Y-41743285D01*
X173958214Y-41552809D01*
X173958214Y-41171857D01*
X173910595Y-41076619D01*
X173862976Y-41029000D01*
X173767738Y-40981380D01*
X173577261Y-40981380D01*
X173482023Y-41029000D01*
X173434404Y-41076619D01*
X173386785Y-41171857D01*
X173386785Y-41409952D01*
X173434404Y-41505190D01*
X173482023Y-41552809D01*
X173577261Y-41600428D01*
X173767738Y-41600428D01*
X173862976Y-41552809D01*
X173910595Y-41505190D01*
X173958214Y-41409952D01*
X19939166Y-26185761D02*
X20082023Y-26233380D01*
X20320119Y-26233380D01*
X20415357Y-26185761D01*
X20462976Y-26138142D01*
X20510595Y-26042904D01*
X20510595Y-25947666D01*
X20462976Y-25852428D01*
X20415357Y-25804809D01*
X20320119Y-25757190D01*
X20129642Y-25709571D01*
X20034404Y-25661952D01*
X19986785Y-25614333D01*
X19939166Y-25519095D01*
X19939166Y-25423857D01*
X19986785Y-25328619D01*
X20034404Y-25281000D01*
X20129642Y-25233380D01*
X20367738Y-25233380D01*
X20510595Y-25281000D01*
X20843928Y-25233380D02*
X21082023Y-26233380D01*
X21272500Y-25519095D01*
X21462976Y-26233380D01*
X21701071Y-25233380D01*
X22034404Y-25328619D02*
X22082023Y-25281000D01*
X22177261Y-25233380D01*
X22415357Y-25233380D01*
X22510595Y-25281000D01*
X22558214Y-25328619D01*
X22605833Y-25423857D01*
X22605833Y-25519095D01*
X22558214Y-25661952D01*
X21986785Y-26233380D01*
X22605833Y-26233380D01*
X21558214Y-41981380D02*
X20986785Y-41981380D01*
X21272500Y-41981380D02*
X21272500Y-40981380D01*
X21177261Y-41124238D01*
X21082023Y-41219476D01*
X20986785Y-41267095D01*
X58039166Y2389238D02*
X58182023Y2341619D01*
X58420119Y2341619D01*
X58515357Y2389238D01*
X58562976Y2436857D01*
X58610595Y2532095D01*
X58610595Y2627333D01*
X58562976Y2722571D01*
X58515357Y2770190D01*
X58420119Y2817809D01*
X58229642Y2865428D01*
X58134404Y2913047D01*
X58086785Y2960666D01*
X58039166Y3055904D01*
X58039166Y3151142D01*
X58086785Y3246380D01*
X58134404Y3294000D01*
X58229642Y3341619D01*
X58467738Y3341619D01*
X58610595Y3294000D01*
X58943928Y3341619D02*
X59182023Y2341619D01*
X59372500Y3055904D01*
X59562976Y2341619D01*
X59801071Y3341619D01*
X60705833Y2341619D02*
X60134404Y2341619D01*
X60420119Y2341619D02*
X60420119Y3341619D01*
X60324880Y3198761D01*
X60229642Y3103523D01*
X60134404Y3055904D01*
X57539166Y-13406380D02*
X57539166Y-12406380D01*
X57872500Y-13120666D01*
X58205833Y-12406380D01*
X58205833Y-13406380D01*
X58682023Y-12882571D02*
X59015357Y-12882571D01*
X59158214Y-13406380D02*
X58682023Y-13406380D01*
X58682023Y-12406380D01*
X59158214Y-12406380D01*
X59586785Y-13406380D02*
X59586785Y-12406380D01*
X60158214Y-13406380D01*
X60158214Y-12406380D01*
X60634404Y-12406380D02*
X60634404Y-13215904D01*
X60682023Y-13311142D01*
X60729642Y-13358761D01*
X60824880Y-13406380D01*
X61015357Y-13406380D01*
X61110595Y-13358761D01*
X61158214Y-13311142D01*
X61205833Y-13215904D01*
X61205833Y-12406380D01*
M02*
