M48
; DRILL file {KiCad 6.0.7-f9a2dced07~116~ubuntu22.04.1} date Sat 13 Aug 2022 04:20:36 PM EDT
; FORMAT={-:-/ absolute / inch / decimal}
; #@! TF.CreationDate,2022-08-13T16:20:36-04:00
; #@! TF.GenerationSoftware,Kicad,Pcbnew,6.0.7-f9a2dced07~116~ubuntu22.04.1
; #@! TF.FileFunction,NonPlated,1,2,NPTH
FMAT,2
INCH
; #@! TA.AperFunction,NonPlated,NPTH,ComponentDrill
T1C0.0669
; #@! TA.AperFunction,NonPlated,NPTH,ComponentDrill
T2C0.1201
; #@! TA.AperFunction,NonPlated,NPTH,ComponentDrill
T3C0.1260
; #@! TA.AperFunction,NonPlated,NPTH,ComponentDrill
T4C0.1575
%
G90
G05
T1
X3.0706Y-8.6774
X3.2581Y-9.4274
X3.3518Y-10.1764
X3.4706Y-8.6774
X3.6331Y-10.9244
X3.6581Y-9.4274
X3.7518Y-10.1764
X3.9143Y-8.6774
X4.0331Y-10.9244
X4.2893Y-9.4274
X4.3143Y-8.6774
X4.4768Y-10.1764
X4.4768Y-11.6744
X4.6643Y-8.6774
X4.6893Y-9.4274
X4.8518Y-10.9244
X4.8768Y-10.1764
X4.8768Y-11.6744
X5.0393Y-9.4274
X5.0643Y-8.6774
X5.2268Y-10.1764
X5.2518Y-10.9244
X5.4143Y-8.6774
X5.4393Y-9.4274
X5.6018Y-10.9244
X5.6268Y-10.1764
X5.7893Y-9.4274
X5.8143Y-8.6774
X5.85Y-7.5496
X5.9768Y-10.1764
X6.0018Y-10.9244
X6.1643Y-8.6774
X6.1893Y-9.4274
X6.25Y-7.5496
X6.3518Y-10.9244
X6.3768Y-10.1764
X6.5393Y-9.4274
X6.5643Y-8.6774
X6.7268Y-10.1764
X6.7518Y-10.9244
X6.8807Y-7.5496
X6.9143Y-8.6774
X6.9393Y-9.4274
X7.1018Y-10.9244
X7.1268Y-10.1764
X7.2807Y-7.5496
X7.2893Y-9.4274
X7.3143Y-8.6774
X7.4768Y-10.1764
X7.5018Y-10.9244
X7.6643Y-8.6774
X7.6893Y-9.4274
X7.8177Y-7.5496
X7.8518Y-10.9244
X7.8768Y-10.1764
X8.0393Y-9.4274
X8.0643Y-8.6774
X8.093Y-11.6744
X8.2177Y-7.5496
X8.2268Y-10.1764
X8.2518Y-10.9244
X8.4143Y-8.6774
X8.4393Y-9.4274
X8.493Y-11.6744
X8.6018Y-10.9244
X8.6268Y-10.1764
X8.7863Y-7.5524
X8.7893Y-9.4274
X8.8143Y-8.6774
X8.9768Y-10.1764
X9.0018Y-10.9244
X9.1643Y-8.6774
X9.1863Y-7.5524
X9.1893Y-9.4274
X9.3518Y-10.9244
X9.3768Y-10.1764
X9.5393Y-9.4274
X9.5643Y-8.6774
X9.7233Y-7.5524
X9.7268Y-10.1764
X9.7518Y-10.9244
X9.9143Y-8.6774
X9.9393Y-9.4274
X10.1018Y-10.9244
X10.1233Y-7.5524
X10.1268Y-10.1764
X10.2893Y-9.4274
X10.3143Y-8.6774
X10.4768Y-10.1764
X10.5018Y-10.9244
X10.6603Y-7.5524
X10.6643Y-8.6774
X10.6893Y-9.4274
X10.8518Y-10.9244
X10.8768Y-10.1764
X11.0393Y-9.4274
X11.0603Y-7.5524
X11.0643Y-8.6774
X11.2268Y-10.1764
X11.2518Y-10.9244
X11.4143Y-8.6774
X11.4393Y-9.4274
X11.5973Y-7.5524
X11.6018Y-10.9244
X11.6268Y-10.1764
X11.7893Y-9.4274
X11.8143Y-8.6774
X11.9768Y-10.1764
X11.9973Y-7.5524
X12.0018Y-10.9244
X12.1643Y-8.6774
X12.1893Y-9.4274
X12.3768Y-10.1764
X12.5343Y-7.5512
X12.5393Y-9.4274
X12.5643Y-8.6774
X12.6331Y-10.9244
X12.7268Y-10.1764
X12.9091Y-11.6752
X12.9343Y-7.5512
X12.9393Y-9.4274
X13.0331Y-10.9244
X13.1268Y-10.1764
X13.2839Y-8.6768
X13.3091Y-11.6752
X13.4713Y-7.5524
X13.4768Y-9.4274
X13.5713Y-10.1764
X13.6587Y-10.9256
X13.6587Y-11.6752
X13.6839Y-8.6768
X13.8713Y-7.5524
X13.8768Y-9.4274
X13.9713Y-10.1764
X14.0587Y-10.9256
X14.0587Y-11.6752
X14.4083Y-11.6752
X14.8083Y-11.6752
T2
X3.0833Y-9.9008
X3.3646Y-10.6488
X4.0203Y-9.9008
X4.3016Y-10.6488
X6.3245Y-11.3988
X10.2615Y-11.3988
X13.0154Y-8.4012
X13.9524Y-8.4012
T3
X2.5591Y-7.1555
X2.5591Y-12.0768
X15.0787Y-7.1555
X15.0787Y-12.0768
T4
X3.0833Y-10.5008
X3.2706Y-8.6774
X3.3646Y-11.2488
X3.4581Y-9.4274
X3.5518Y-10.1764
X3.8331Y-10.9244
X4.0203Y-10.5008
X4.1143Y-8.6774
X4.3016Y-11.2488
X4.4893Y-9.4274
X4.6768Y-10.1764
X4.6768Y-11.6744
X4.8643Y-8.6774
X5.0518Y-10.9244
X5.2393Y-9.4274
X5.4268Y-10.1764
X5.6143Y-8.6774
X5.8018Y-10.9244
X5.9893Y-9.4274
X6.05Y-7.5496
X6.1768Y-10.1764
X6.3245Y-11.9988
X6.3643Y-8.6774
X6.5518Y-10.9244
X6.7393Y-9.4274
X6.9268Y-10.1764
X7.0807Y-7.5496
X7.1143Y-8.6774
X7.3018Y-10.9244
X7.4893Y-9.4274
X7.6768Y-10.1764
X7.8643Y-8.6774
X8.0177Y-7.5496
X8.0518Y-10.9244
X8.2393Y-9.4274
X8.293Y-11.6744
X8.4268Y-10.1764
X8.6143Y-8.6774
X8.8018Y-10.9244
X8.9863Y-7.5524
X8.9893Y-9.4274
X9.1768Y-10.1764
X9.3643Y-8.6774
X9.5518Y-10.9244
X9.7393Y-9.4274
X9.9233Y-7.5524
X9.9268Y-10.1764
X10.1143Y-8.6774
X10.2615Y-11.9988
X10.3018Y-10.9244
X10.4893Y-9.4274
X10.6768Y-10.1764
X10.8603Y-7.5524
X10.8643Y-8.6774
X11.0518Y-10.9244
X11.2393Y-9.4274
X11.4268Y-10.1764
X11.6143Y-8.6774
X11.7973Y-7.5524
X11.8018Y-10.9244
X11.9893Y-9.4274
X12.1768Y-10.1764
X12.3643Y-8.6774
X12.7343Y-7.5512
X12.7393Y-9.4274
X12.8331Y-10.9244
X12.9268Y-10.1764
X13.0154Y-9.0012
X13.1091Y-11.6752
X13.4839Y-8.6768
X13.6713Y-7.5524
X13.6768Y-9.4274
X13.7713Y-10.1764
X13.8587Y-10.9256
X13.8587Y-11.6752
X13.9524Y-9.0012
X14.6083Y-11.6752
T0
M30
