M48
; DRILL file {KiCad 5.1.5+dfsg1-2build2} date Sat 07 Nov 2020 01:55:26 AM EST
; FORMAT={-:-/ absolute / inch / decimal}
; #@! TF.CreationDate,2020-11-07T01:55:26-05:00
; #@! TF.GenerationSoftware,Kicad,Pcbnew,5.1.5+dfsg1-2build2
; #@! TF.FileFunction,Plated,1,2,PTH
FMAT,2
INCH
T1C0.0157
T2C0.0354
T3C0.0433
T4C0.0591
%
G90
G05
T1
X-0.8051Y-0.2767
X-0.7952Y-0.39
X-0.7574Y-1.068
X-0.742Y0.027
X-0.7355Y-1.032
X-0.716Y-0.0026
X-0.7144Y-2.4683
X-0.7144Y-2.6857
X-0.6925Y-0.038
X-0.6847Y-0.8495
X-0.6847Y-0.8889
X-0.6625Y-0.0945
X-0.593Y-0.1625
X-0.537Y-0.1375
X0.032Y-2.4115
X0.562Y-1.5105
X0.688Y-1.664
X0.9365Y-2.3305
X1.079Y-2.4449
X1.229Y-2.5255
X1.261Y-3.16
X1.442Y-1.7735
X1.6635Y-1.7315
X1.802Y-1.6665
X1.8135Y-2.4845
X1.992Y-2.413
X2.0445Y-3.1115
X2.192Y-1.644
X2.5645Y-2.3815
X2.7335Y-2.5095
X2.8005Y-3.252
X2.941Y-1.608
X3.1064Y-3.1659
X3.1315Y-3.6775
X3.297Y-1.656
X3.3295Y-2.4605
X3.464Y-2.555
X3.4915Y-3.282
X3.5075Y-0.761
X3.6785Y-1.5645
X3.8835Y-3.2385
X3.8855Y-3.1035
X4.0615Y-1.6321
X4.074Y-2.4245
X4.1013Y-3.2066
X4.227Y-2.387
X4.2545Y-3.1415
X4.444Y-1.564
X4.636Y-3.177
X4.671Y-1.697
X4.8055Y-1.606
X4.824Y-2.4541
X4.9895Y-2.51
X5.013Y-3.1995
X5.1955Y-1.643
X5.3705Y-3.2845
X5.4075Y-3.249
X5.462Y-1.611
X5.5785Y-1.5625
X5.579Y-2.379
X5.7525Y-2.456
X5.76Y-3.2495
X5.7715Y-0.5695
X5.901Y-4.5475
X5.9385Y-1.692
X6.206Y-2.4755
X6.208Y-3.1465
X6.314Y-1.6395
X6.341Y-2.416
X6.4945Y-2.523
X6.5045Y-3.161
X6.691Y-1.6065
X6.8755Y-3.208
X6.9425Y-2.5315
X7.0585Y-2.4195
X7.062Y-1.7004
X7.2055Y-1.734
X7.2555Y-3.121
X7.2675Y-2.3644
X7.4345Y-1.7035
X7.4715Y-2.4756
X7.809Y-2.3625
X7.8125Y-1.6095
X7.831Y-2.4835
X7.9975Y-3.0875
X8.0085Y-2.446
X8.188Y-1.664
X8.213Y-2.5156
X8.4705Y-3.0984
X8.568Y-2.3329
X8.5705Y-1.71
X8.723Y-2.394
X8.935Y-1.614
X8.993Y-2.486
X9.308Y-1.6655
X9.521Y-2.3695
X9.9Y-3.687
X9.9525Y-3.5155
X10.0535Y-3.8775
X10.2765Y-1.6965
X10.381Y-2.3585
T2
X2.1562Y-3.45
X2.1562Y-3.75
X1.5938Y-1.95
X1.5938Y-2.25
X4.0312Y-2.7
X4.0312Y-3.0
X3.8438Y-1.95
X3.8438Y-2.25
X8.1562Y-3.45
X8.1562Y-3.75
X10.2188Y-1.2
X10.2188Y-1.5
X0.8438Y-1.95
X0.8438Y-2.25
X3.4688Y-1.2
X3.4688Y-1.5
X4.7812Y-2.7
X4.7812Y-3.0
X4.497Y-0.0794
X4.497Y-0.3794
X10.9688Y-2.7
X10.9688Y-3.0
X4.5938Y-1.95
X4.5938Y-2.25
X8.7188Y-1.2
X8.7188Y-1.5
X6.8438Y-1.95
X6.8438Y-2.25
X7.9688Y-1.2
X7.9688Y-1.5
X5.1562Y-3.45
X5.1562Y-3.75
X9.8438Y-1.95
X9.8438Y-2.25
X3.0938Y-1.95
X3.0938Y-2.25
X9.0938Y-1.95
X9.0938Y-2.25
X1.7812Y-2.7
X1.7812Y-3.0
X10.2188Y-3.45
X10.2188Y-3.75
X5.2873Y-0.0794
X5.2873Y-0.3794
X7.7812Y-2.7
X7.7812Y-3.0
X1.2188Y-1.2
X1.2188Y-1.5
X7.2188Y-1.2
X7.2188Y-1.5
X8.5312Y-2.7
X8.5312Y-3.0
X2.5312Y-2.7
X2.5312Y-3.0
X7.5938Y-1.95
X7.5938Y-2.25
X5.5312Y-2.7
X5.5312Y-3.0
X4.4062Y-3.45
X4.4062Y-3.75
X4.2188Y-1.2
X4.2188Y-1.5
X3.2812Y-2.7
X3.2812Y-3.0
X10.0312Y-2.7
X10.0312Y-3.0
X2.7188Y-1.2
X2.7188Y-1.5
X7.0312Y-2.7
X7.0312Y-3.0
X5.3438Y-1.95
X5.3438Y-2.25
X1.0312Y-2.7
X1.0312Y-3.0
X9.4688Y-1.2
X9.4688Y-1.5
X5.5508Y-0.0794
X5.5508Y-0.3794
X10.9688Y-3.45
X10.9688Y-3.75
X10.9688Y-1.2
X10.9688Y-1.5
X1.9688Y-1.2
X1.9688Y-1.5
X3.6562Y-3.45
X3.6562Y-3.75
X5.8142Y-0.0794
X5.8142Y-0.3794
X9.2812Y-2.7
X9.2812Y-3.0
X0.4688Y-1.2
X0.4688Y-1.5
X4.7604Y-0.0794
X4.7604Y-0.3794
X7.4062Y-3.45
X7.4062Y-3.75
X5.0239Y-0.0794
X5.0239Y-0.3794
X5.7188Y-1.2
X5.7188Y-1.5
X2.9062Y-3.45
X2.9062Y-3.75
X6.6562Y-3.45
X6.6562Y-3.75
X4.9688Y-1.2
X4.9688Y-1.5
X6.4688Y-1.2
X6.4688Y-1.5
X2.3438Y-1.95
X2.3438Y-2.25
X5.9062Y-3.45
X5.9062Y-3.75
X4.2335Y-0.0794
X4.2335Y-0.3794
X4.4596Y-4.2
X4.4596Y-4.5
X8.9062Y-3.45
X8.9062Y-3.75
X6.2812Y-2.7
X6.2812Y-3.0
X1.4062Y-3.45
X1.4062Y-3.75
X8.3438Y-1.95
X8.3438Y-2.25
X10.9688Y-1.95
X10.9688Y-2.25
X6.0938Y-1.95
X6.0938Y-2.25
T3
X-0.4299Y0.0963
X-0.4299Y-0.5037
X-0.3299Y0.0963
X-0.3299Y-0.5037
X-0.2299Y0.0963
X-0.2299Y-0.5037
X-0.1299Y0.0963
X-0.1299Y-0.5037
X-0.0299Y0.0963
X-0.0299Y-0.5037
X0.0701Y0.0963
X0.0701Y-0.5037
X0.1701Y0.0963
X0.1701Y-0.5037
X0.2701Y0.0963
X0.2701Y-0.5037
X0.3701Y0.0963
X0.3701Y-0.5037
X0.4701Y0.0963
X0.4701Y-0.5037
X0.5701Y0.0963
X0.5701Y-0.5037
X0.6701Y0.0963
X0.6701Y-0.5037
T4
X9.6875Y-1.225
X9.9375Y-1.125
X6.875Y-3.472
X7.125Y-3.372
X2.9375Y-1.225
X3.1875Y-1.125
X8.5625Y-1.975
X8.8125Y-1.875
X6.125Y-3.472
X6.375Y-3.372
X4.25Y-2.724
X4.5Y-2.624
X8.375Y-3.472
X8.625Y-3.372
X10.3445Y-2.724
X10.5945Y-2.624
X7.4375Y-0.1
X7.6875Y0.0
X8.9375Y-1.225
X9.1875Y-1.125
X2.0Y-2.724
X2.25Y-2.624
X4.0625Y-1.975
X4.3125Y-1.875
X5.375Y-3.472
X5.625Y-3.372
X10.4375Y-1.225
X10.6875Y-1.125
X4.8125Y-1.975
X5.0625Y-1.875
X9.3125Y-1.975
X9.5625Y-1.875
X4.8661Y-4.222
X5.1161Y-4.122
X7.25Y-2.724
X7.5Y-2.624
X3.875Y-3.472
X4.125Y-3.372
X2.375Y-3.472
X2.625Y-3.372
X0.6875Y-1.225
X0.9375Y-1.125
X7.4375Y-1.225
X7.6875Y-1.125
X2.5625Y-1.975
X2.8125Y-1.875
X-0.1562Y-1.225
X0.0938Y-1.125
X1.0625Y-1.975
X1.3125Y-1.875
X8.75Y-2.724
X9.0Y-2.624
X1.25Y-2.724
X1.5Y-2.624
X9.3125Y-0.1
X9.5625Y0.0
X3.3125Y-1.975
X3.5625Y-1.875
X0.0312Y-1.975
X0.2812Y-1.875
X8.375Y-0.1
X8.625Y0.0
X1.625Y-3.472
X1.875Y-3.372
X0.4062Y-3.472
X0.6562Y-3.372
X4.4375Y-1.225
X4.6875Y-1.125
X9.5Y-2.724
X9.75Y-2.624
X9.4062Y-3.475
X9.6562Y-3.375
X10.4375Y-3.472
X10.6875Y-3.372
X8.1875Y-1.225
X8.4375Y-1.125
X5.75Y-2.724
X6.0Y-2.624
X7.0625Y-1.975
X7.3125Y-1.875
X3.125Y-0.1
X3.375Y0.0
X1.4375Y-1.225
X1.6875Y-1.125
X2.75Y-2.724
X3.0Y-2.624
X6.3125Y-1.975
X6.5625Y-1.875
X2.1875Y-0.1
X2.4375Y0.0
X3.5Y-2.724
X3.75Y-2.624
X4.625Y-3.472
X4.875Y-3.372
X10.25Y-1.975
X10.5Y-1.875
X1.8125Y-1.975
X2.0625Y-1.875
X0.125Y-2.724
X0.375Y-2.624
X6.5Y-2.724
X6.75Y-2.624
X6.5Y-0.1
X6.75Y0.0
X10.25Y-0.1
X10.5Y0.0
X5.0Y-2.724
X5.25Y-2.624
X3.6875Y-1.225
X3.9375Y-1.125
X5.5625Y-1.975
X5.8125Y-1.875
X7.625Y-3.472
X7.875Y-3.372
X5.9375Y-1.225
X6.1875Y-1.125
X5.1875Y-1.225
X5.4375Y-1.125
X3.125Y-3.472
X3.375Y-3.372
X7.8125Y-1.975
X8.0625Y-1.875
X6.6875Y-1.225
X6.9375Y-1.125
X2.1875Y-1.225
X2.4375Y-1.125
X8.0Y-2.724
X8.25Y-2.624
T0
M30
