M48
; DRILL file {KiCad 6.0.9-8da3e8f707~117~ubuntu22.04.1} date Sat 17 Dec 2022 12:05:40 PM EST
; FORMAT={-:-/ absolute / inch / decimal}
; #@! TF.CreationDate,2022-12-17T12:05:40-05:00
; #@! TF.GenerationSoftware,Kicad,Pcbnew,6.0.9-8da3e8f707~117~ubuntu22.04.1
; #@! TF.FileFunction,Plated,1,2,PTH
FMAT,2
INCH
; #@! TA.AperFunction,Plated,PTH,ViaDrill
T1C0.0157
; #@! TA.AperFunction,Plated,PTH,ComponentDrill
T2C0.0354
; #@! TA.AperFunction,Plated,PTH,ComponentDrill
T3C0.0394
; #@! TA.AperFunction,Plated,PTH,ComponentDrill
T4C0.0430
; #@! TA.AperFunction,Plated,PTH,ComponentDrill
T5C0.0591
; #@! TA.AperFunction,Plated,PTH,ComponentDrill
T6C0.1260
%
G90
G05
T1
X4.2295Y-8.8059
X5.5067Y-8.5876
X6.0417Y-8.4562
X7.0739Y-9.8377
X8.0019Y-8.4972
X8.2948Y-9.3435
X8.7713Y-8.7636
X8.9556Y-7.8505
X9.1316Y-6.88
X9.7735Y-7.6718
X10.3051Y-7.6877
X10.954Y-9.8404
X11.2434Y-8.0961
X11.6854Y-9.1814
X11.7723Y-7.4624
X13.0287Y-8.3446
X13.1431Y-7.3933
X13.2146Y-8.3246
X13.2453Y-8.2402
X13.2948Y-7.8818
T2
X14.9937Y-6.6963
X15.0937Y-6.6963
T3
X2.7512Y-8.1868
X2.7512Y-8.4939
X2.9387Y-8.9368
X2.9387Y-9.2439
X3.0325Y-9.6868
X3.0325Y-9.9939
X3.3137Y-10.4368
X3.3137Y-10.7439
X3.595Y-8.1868
X3.595Y-8.4939
X3.9156Y-6.6908
X3.97Y-8.9368
X3.97Y-9.2439
X4.0156Y-6.6908
X4.1156Y-6.6908
X4.1575Y-9.6868
X4.1575Y-9.9939
X4.1575Y-11.1868
X4.1575Y-11.4939
X4.2156Y-6.6908
X4.345Y-8.1868
X4.345Y-8.4939
X4.5325Y-10.4368
X4.5325Y-10.7439
X4.72Y-8.9368
X4.72Y-9.2439
X4.9075Y-9.6868
X4.9075Y-9.9939
X5.095Y-8.1868
X5.095Y-8.4939
X5.1887Y-7.1556
X5.1887Y-7.4626
X5.2825Y-10.4368
X5.2825Y-10.7439
X5.47Y-8.9368
X5.47Y-9.2439
X5.6575Y-9.6868
X5.6575Y-9.9939
X5.845Y-8.1868
X5.845Y-8.4939
X6.0325Y-10.4368
X6.0325Y-10.7439
X6.22Y-8.9368
X6.22Y-9.2439
X6.4075Y-9.6868
X6.4075Y-9.9939
X6.595Y-8.1868
X6.595Y-8.4939
X6.6887Y-7.1556
X6.6887Y-7.4626
X6.7825Y-10.4368
X6.7825Y-10.7439
X6.97Y-8.9368
X6.97Y-9.2439
X7.1575Y-9.6868
X7.1575Y-9.9939
X7.345Y-8.1868
X7.345Y-8.4939
X7.5325Y-10.4368
X7.5325Y-10.7439
X7.6262Y-7.1556
X7.6262Y-7.4626
X7.72Y-8.9368
X7.72Y-9.2439
X7.9075Y-9.6868
X7.9075Y-9.9939
X8.095Y-8.1868
X8.095Y-8.4939
X8.1887Y-11.1868
X8.1887Y-11.4939
X8.2825Y-10.4368
X8.2825Y-10.7439
X8.47Y-8.9368
X8.47Y-9.2439
X8.6376Y-7.3353
X8.6376Y-7.6424
X8.6575Y-9.6868
X8.6575Y-9.9939
X8.845Y-8.1868
X8.845Y-8.4939
X8.9356Y-7.3353
X8.9356Y-7.6424
X9.0183Y-7.0487
X9.0325Y-10.4368
X9.0325Y-10.7439
X9.0729Y-6.9369
X9.1274Y-7.0487
X9.1819Y-6.9369
X9.22Y-8.9368
X9.22Y-9.2439
X9.2336Y-7.3353
X9.2336Y-7.6424
X9.2365Y-7.0487
X9.291Y-6.9369
X9.3455Y-7.0487
X9.4Y-6.9369
X9.4075Y-9.6868
X9.4075Y-9.9939
X9.4546Y-7.0487
X9.5316Y-7.3353
X9.5316Y-7.6424
X9.595Y-8.1868
X9.595Y-8.4939
X9.7825Y-10.4368
X9.7825Y-10.7439
X9.8296Y-7.3353
X9.8296Y-7.6424
X9.97Y-8.9368
X9.97Y-9.2439
X10.1243Y-7.3353
X10.1243Y-7.6424
X10.1575Y-9.6868
X10.1575Y-9.9939
X10.345Y-8.1868
X10.345Y-8.4939
X10.4222Y-7.3353
X10.4222Y-7.6424
X10.505Y-7.0487
X10.5325Y-10.4368
X10.5325Y-10.7439
X10.5595Y-6.9369
X10.614Y-7.0487
X10.6685Y-6.9369
X10.72Y-8.9368
X10.72Y-9.2439
X10.7202Y-7.3353
X10.7202Y-7.6424
X10.7231Y-7.0487
X10.7776Y-6.9369
X10.8321Y-7.0487
X10.8867Y-6.9369
X10.9075Y-9.6868
X10.9075Y-9.9939
X10.9412Y-7.0487
X11.0182Y-7.3353
X11.0182Y-7.6424
X11.095Y-8.1868
X11.095Y-8.4939
X11.2825Y-10.4368
X11.2825Y-10.7439
X11.3162Y-7.3353
X11.3162Y-7.6424
X11.47Y-8.9368
X11.47Y-9.2439
X11.6575Y-9.6868
X11.6575Y-9.9939
X11.845Y-8.1868
X11.845Y-8.4939
X12.22Y-8.9368
X12.22Y-9.2439
X12.3137Y-7.1556
X12.3137Y-7.4626
X12.3137Y-10.4368
X12.3137Y-10.7439
X12.4075Y-9.6868
X12.4075Y-9.9939
X12.595Y-11.1868
X12.595Y-11.4939
X12.97Y-8.1868
X12.97Y-8.4939
X13.1575Y-8.9368
X13.1575Y-9.2439
X13.2512Y-7.1556
X13.2512Y-7.4626
X13.2512Y-9.6868
X13.2512Y-9.9939
X13.345Y-10.4368
X13.345Y-10.7439
X13.345Y-11.1868
X13.345Y-11.4939
X14.095Y-11.1868
X14.095Y-11.4939
X14.5754Y-6.6908
X14.8825Y-6.6908
X15.1262Y-7.1556
X15.1262Y-7.4626
X15.1262Y-8.2806
X15.1262Y-8.5876
X15.1262Y-9.2181
X15.1262Y-9.5251
X15.1262Y-10.1556
X15.1262Y-10.4626
X15.1262Y-11.0931
X15.1262Y-11.4001
T4
X13.5349Y-6.6786
X13.5349Y-6.7786
X13.5349Y-6.8786
X13.5349Y-6.9786
X13.5349Y-7.0786
X13.5349Y-7.1786
X13.5349Y-7.2786
X13.5349Y-7.3786
X13.5349Y-7.4786
X13.5349Y-7.5786
X13.5349Y-7.6786
X13.5439Y-7.7786
X13.6349Y-7.7786
X13.7349Y-7.7786
X13.8349Y-7.7786
X13.9349Y-7.7786
X14.0349Y-7.7786
X14.1349Y-6.6786
X14.1349Y-6.7786
X14.1349Y-6.8786
X14.1349Y-6.9786
X14.1349Y-7.0786
X14.1349Y-7.1786
X14.1349Y-7.2786
X14.1349Y-7.3786
X14.1349Y-7.4786
X14.1349Y-7.5786
X14.1349Y-7.6786
X14.1349Y-7.7786
T5
X2.2453Y-8.223
X2.4328Y-8.973
X2.4953Y-8.123
X2.5266Y-9.723
X2.6828Y-8.873
X2.7766Y-9.623
X2.8078Y-10.473
X3.0578Y-10.373
X3.0891Y-8.223
X3.3391Y-8.123
X3.4641Y-8.973
X3.6516Y-9.723
X3.6516Y-11.223
X3.7141Y-8.873
X3.8391Y-8.223
X3.9016Y-9.623
X3.9016Y-11.123
X4.0266Y-10.473
X4.0891Y-8.123
X4.2141Y-8.973
X4.2766Y-10.373
X4.4016Y-9.723
X4.4641Y-8.873
X4.5891Y-8.223
X4.6516Y-9.623
X4.6828Y-7.1918
X4.7766Y-10.473
X4.8391Y-8.123
X4.9328Y-7.0918
X4.9641Y-8.973
X5.0266Y-10.373
X5.1516Y-9.723
X5.2141Y-8.873
X5.3391Y-8.223
X5.4016Y-9.623
X5.5266Y-10.473
X5.5891Y-8.123
X5.7141Y-8.973
X5.7766Y-10.373
X5.9016Y-9.723
X5.9641Y-8.873
X6.0891Y-8.223
X6.1516Y-9.623
X6.1828Y-7.1918
X6.2766Y-10.473
X6.3391Y-8.123
X6.4328Y-7.0918
X6.4641Y-8.973
X6.5266Y-10.373
X6.6516Y-9.723
X6.7141Y-8.873
X6.8391Y-8.223
X6.9016Y-9.623
X7.0266Y-10.473
X7.0891Y-8.123
X7.1203Y-7.1918
X7.2141Y-8.973
X7.2766Y-10.373
X7.3703Y-7.0918
X7.4016Y-9.723
X7.4641Y-8.873
X7.5891Y-8.223
X7.6516Y-9.623
X7.6828Y-11.223
X7.7766Y-10.473
X7.8391Y-8.123
X7.9328Y-11.123
X7.9641Y-8.973
X8.0266Y-10.373
X8.1516Y-9.723
X8.2141Y-8.873
X8.3391Y-8.223
X8.4016Y-9.623
X8.5266Y-10.473
X8.5891Y-8.123
X8.7141Y-8.973
X8.7766Y-10.373
X8.9016Y-9.723
X8.9641Y-8.873
X9.0891Y-8.223
X9.1516Y-9.623
X9.2766Y-10.473
X9.3391Y-8.123
X9.4641Y-8.973
X9.5266Y-10.373
X9.6516Y-9.723
X9.7141Y-8.873
X9.8391Y-8.223
X9.9016Y-9.623
X10.0266Y-10.473
X10.0891Y-8.123
X10.2141Y-8.973
X10.2766Y-10.373
X10.4016Y-9.723
X10.4641Y-8.873
X10.5891Y-8.223
X10.6516Y-9.623
X10.7766Y-10.473
X10.8391Y-8.123
X10.9641Y-8.973
X11.0266Y-10.373
X11.1516Y-9.723
X11.2141Y-8.873
X11.3391Y-8.223
X11.4016Y-9.623
X11.5891Y-8.123
X11.7141Y-8.973
X11.8078Y-7.1918
X11.8078Y-10.473
X11.9016Y-9.723
X11.9641Y-8.873
X12.0578Y-7.0918
X12.0578Y-10.373
X12.0891Y-11.223
X12.1516Y-9.623
X12.3391Y-11.123
X12.4641Y-8.223
X12.6516Y-8.973
X12.7141Y-8.123
X12.7453Y-7.1918
X12.7453Y-9.723
X12.8391Y-10.473
X12.8391Y-11.223
X12.9016Y-8.873
X12.9953Y-7.0918
X12.9953Y-9.623
X13.0891Y-10.373
X13.0891Y-11.123
X13.5891Y-11.223
X13.8391Y-11.123
X14.6203Y-7.1918
X14.6203Y-8.3168
X14.6203Y-9.2543
X14.6203Y-10.1918
X14.6203Y-11.1293
X14.8703Y-7.0918
X14.8703Y-8.2168
X14.8703Y-9.1543
X14.8703Y-10.0918
X14.8703Y-11.0293
T6
X8.7443Y-6.9928
X9.7286Y-6.9928
X10.2309Y-6.9928
X11.2152Y-6.9928
T0
M30
