G04 #@! TF.GenerationSoftware,KiCad,Pcbnew,6.0.9-8da3e8f707~117~ubuntu22.04.1*
G04 #@! TF.CreationDate,2022-12-17T12:05:47-05:00*
G04 #@! TF.ProjectId,atari-keyboard,61746172-692d-46b6-9579-626f6172642e,rev?*
G04 #@! TF.SameCoordinates,Original*
G04 #@! TF.FileFunction,Copper,L2,Bot*
G04 #@! TF.FilePolarity,Positive*
%FSLAX46Y46*%
G04 Gerber Fmt 4.6, Leading zero omitted, Abs format (unit mm)*
G04 Created by KiCad (PCBNEW 6.0.9-8da3e8f707~117~ubuntu22.04.1) date 2022-12-17 12:05:47*
%MOMM*%
%LPD*%
G01*
G04 APERTURE LIST*
G04 #@! TA.AperFunction,ComponentPad*
%ADD10R,1.600000X1.600000*%
G04 #@! TD*
G04 #@! TA.AperFunction,SMDPad,CuDef*
%ADD11R,0.500000X2.900000*%
G04 #@! TD*
G04 #@! TA.AperFunction,SMDPad,CuDef*
%ADD12R,1.200000X1.600000*%
G04 #@! TD*
G04 #@! TA.AperFunction,ComponentPad*
%ADD13C,1.600000*%
G04 #@! TD*
G04 #@! TA.AperFunction,ComponentPad*
%ADD14C,2.200000*%
G04 #@! TD*
G04 #@! TA.AperFunction,ComponentPad*
%ADD15R,1.700000X1.700000*%
G04 #@! TD*
G04 #@! TA.AperFunction,ComponentPad*
%ADD16O,1.700000X1.700000*%
G04 #@! TD*
G04 #@! TA.AperFunction,ComponentPad*
%ADD17C,4.000000*%
G04 #@! TD*
G04 #@! TA.AperFunction,ComponentPad*
%ADD18R,1.800000X1.800000*%
G04 #@! TD*
G04 #@! TA.AperFunction,ComponentPad*
%ADD19C,1.800000*%
G04 #@! TD*
G04 #@! TA.AperFunction,ComponentPad*
%ADD20R,1.752600X1.752600*%
G04 #@! TD*
G04 #@! TA.AperFunction,ComponentPad*
%ADD21C,1.752600*%
G04 #@! TD*
G04 #@! TA.AperFunction,SMDPad,CuDef*
%ADD22R,2.900000X0.500000*%
G04 #@! TD*
G04 #@! TA.AperFunction,SMDPad,CuDef*
%ADD23R,1.500000X1.200000*%
G04 #@! TD*
G04 #@! TA.AperFunction,ViaPad*
%ADD24C,0.800000*%
G04 #@! TD*
G04 #@! TA.AperFunction,Conductor*
%ADD25C,0.304800*%
G04 #@! TD*
G04 APERTURE END LIST*
D10*
X172275000Y-272895000D03*
D11*
X172275000Y-271495000D03*
D12*
X172275000Y-270395000D03*
D13*
X172275000Y-265095000D03*
D12*
X172275000Y-267595000D03*
D11*
X172275000Y-266495000D03*
X110362500Y-214345000D03*
D10*
X110362500Y-215745000D03*
D12*
X110362500Y-213245000D03*
X110362500Y-210445000D03*
D11*
X110362500Y-209345000D03*
D13*
X110362500Y-207945000D03*
D10*
X219900000Y-253845000D03*
D12*
X219900000Y-251345000D03*
D11*
X219900000Y-252445000D03*
D13*
X219900000Y-246045000D03*
D12*
X219900000Y-248545000D03*
D11*
X219900000Y-247445000D03*
D14*
X330081300Y-244425000D03*
X323731300Y-246965000D03*
D10*
X281812500Y-215745000D03*
D12*
X281812500Y-213245000D03*
D11*
X281812500Y-214345000D03*
D12*
X281812500Y-210445000D03*
D13*
X281812500Y-207945000D03*
D11*
X281812500Y-209345000D03*
X105600000Y-290545000D03*
D10*
X105600000Y-291945000D03*
D12*
X105600000Y-289445000D03*
D11*
X105600000Y-285545000D03*
D13*
X105600000Y-284145000D03*
D12*
X105600000Y-286645000D03*
D14*
X332462500Y-263475000D03*
X326112500Y-266015000D03*
D10*
X272287500Y-234795000D03*
D12*
X272287500Y-232295000D03*
D11*
X272287500Y-233395000D03*
X272287500Y-228395000D03*
D12*
X272287500Y-229495000D03*
D13*
X272287500Y-226995000D03*
D11*
X338962500Y-271495000D03*
D12*
X338962500Y-270395000D03*
D10*
X338962500Y-272895000D03*
D11*
X338962500Y-266495000D03*
D12*
X338962500Y-267595000D03*
D13*
X338962500Y-265095000D03*
D12*
X384206300Y-263251200D03*
D11*
X384206300Y-264351200D03*
D10*
X384206300Y-265751200D03*
D12*
X384206300Y-260451200D03*
D13*
X384206300Y-257951200D03*
D11*
X384206300Y-259351200D03*
D14*
X118150000Y-244425000D03*
X111800000Y-246965000D03*
X246737500Y-225375000D03*
X240387500Y-227915000D03*
D11*
X224662500Y-214345000D03*
D12*
X224662500Y-213245000D03*
D10*
X224662500Y-215745000D03*
D11*
X224662500Y-209345000D03*
D12*
X224662500Y-210445000D03*
D13*
X224662500Y-207945000D03*
D11*
X177037500Y-233395000D03*
D10*
X177037500Y-234795000D03*
D12*
X177037500Y-232295000D03*
D13*
X177037500Y-226995000D03*
D11*
X177037500Y-228395000D03*
D12*
X177037500Y-229495000D03*
D15*
X107076000Y-169946000D03*
D16*
X104536000Y-169946000D03*
X101996000Y-169946000D03*
X99456000Y-169946000D03*
D12*
X243712500Y-213245000D03*
D11*
X243712500Y-214345000D03*
D10*
X243712500Y-215745000D03*
D13*
X243712500Y-207945000D03*
D11*
X243712500Y-209345000D03*
D12*
X243712500Y-210445000D03*
D14*
X156250000Y-244425000D03*
X149900000Y-246965000D03*
X137200000Y-244425000D03*
X130850000Y-246965000D03*
X194350000Y-244425000D03*
X188000000Y-246965000D03*
D10*
X384206300Y-189551200D03*
D12*
X384206300Y-187051200D03*
D11*
X384206300Y-188151200D03*
D12*
X384206300Y-184251200D03*
D11*
X384206300Y-183151200D03*
D13*
X384206300Y-181751200D03*
D12*
X234187500Y-232295000D03*
D10*
X234187500Y-234795000D03*
D11*
X234187500Y-233395000D03*
D12*
X234187500Y-229495000D03*
D13*
X234187500Y-226995000D03*
D11*
X234187500Y-228395000D03*
D14*
X377706300Y-280143700D03*
X371356300Y-282683700D03*
X165775000Y-263475000D03*
X159425000Y-266015000D03*
X201493800Y-282525000D03*
X195143800Y-285065000D03*
D12*
X300862500Y-213245000D03*
D10*
X300862500Y-215745000D03*
D11*
X300862500Y-214345000D03*
D12*
X300862500Y-210445000D03*
D13*
X300862500Y-207945000D03*
D11*
X300862500Y-209345000D03*
D12*
X384206300Y-239438700D03*
D10*
X384206300Y-241938700D03*
D11*
X384206300Y-240538700D03*
X384206300Y-235538700D03*
D12*
X384206300Y-236638700D03*
D13*
X384206300Y-234138700D03*
D10*
X138937500Y-234795000D03*
D12*
X138937500Y-232295000D03*
D11*
X138937500Y-233395000D03*
D12*
X138937500Y-229495000D03*
D13*
X138937500Y-226995000D03*
D11*
X138937500Y-228395000D03*
D17*
X259866000Y-177616300D03*
X284866000Y-177616300D03*
D10*
X277906000Y-179036300D03*
D13*
X275136000Y-179036300D03*
X272366000Y-179036300D03*
X269596000Y-179036300D03*
X266826000Y-179036300D03*
X276521000Y-176196300D03*
X273751000Y-176196300D03*
X270981000Y-176196300D03*
X268211000Y-176196300D03*
D11*
X91312500Y-214345000D03*
D12*
X91312500Y-213245000D03*
D10*
X91312500Y-215745000D03*
D11*
X91312500Y-209345000D03*
D12*
X91312500Y-210445000D03*
D13*
X91312500Y-207945000D03*
D11*
X207993800Y-290545000D03*
D10*
X207993800Y-291945000D03*
D12*
X207993800Y-289445000D03*
X207993800Y-286645000D03*
D13*
X207993800Y-284145000D03*
D11*
X207993800Y-285545000D03*
X312768800Y-188151200D03*
D12*
X312768800Y-187051200D03*
D10*
X312768800Y-189551200D03*
D11*
X312768800Y-183151200D03*
D13*
X312768800Y-181751200D03*
D12*
X312768800Y-184251200D03*
D10*
X148462500Y-215745000D03*
D11*
X148462500Y-214345000D03*
D12*
X148462500Y-213245000D03*
D11*
X148462500Y-209345000D03*
D13*
X148462500Y-207945000D03*
D12*
X148462500Y-210445000D03*
D14*
X275312500Y-206325000D03*
X268962500Y-208865000D03*
D10*
X329437500Y-215745000D03*
D12*
X329437500Y-213245000D03*
D11*
X329437500Y-214345000D03*
D12*
X329437500Y-210445000D03*
D11*
X329437500Y-209345000D03*
D13*
X329437500Y-207945000D03*
D10*
X200850000Y-253845000D03*
D12*
X200850000Y-251345000D03*
D11*
X200850000Y-252445000D03*
D13*
X200850000Y-246045000D03*
D12*
X200850000Y-248545000D03*
D11*
X200850000Y-247445000D03*
D14*
X330081300Y-180131200D03*
X323731300Y-182671200D03*
D12*
X296100000Y-251345000D03*
D11*
X296100000Y-252445000D03*
D10*
X296100000Y-253845000D03*
D12*
X296100000Y-248545000D03*
D11*
X296100000Y-247445000D03*
D13*
X296100000Y-246045000D03*
D14*
X261025000Y-263475000D03*
X254675000Y-266015000D03*
D10*
X100837500Y-234795000D03*
D12*
X100837500Y-232295000D03*
D11*
X100837500Y-233395000D03*
D13*
X100837500Y-226995000D03*
D11*
X100837500Y-228395000D03*
D12*
X100837500Y-229495000D03*
D14*
X170537500Y-225375000D03*
X164187500Y-227915000D03*
X151487500Y-225375000D03*
X145137500Y-227915000D03*
D10*
X242103000Y-194116000D03*
D12*
X242103000Y-191616000D03*
D11*
X242103000Y-192716000D03*
D13*
X242103000Y-186316000D03*
D11*
X242103000Y-187716000D03*
D12*
X242103000Y-188816000D03*
D10*
X196087500Y-234795000D03*
D11*
X196087500Y-233395000D03*
D12*
X196087500Y-232295000D03*
D11*
X196087500Y-228395000D03*
D13*
X196087500Y-226995000D03*
D12*
X196087500Y-229495000D03*
D10*
X181800000Y-253845000D03*
D11*
X181800000Y-252445000D03*
D12*
X181800000Y-251345000D03*
D13*
X181800000Y-246045000D03*
D11*
X181800000Y-247445000D03*
D12*
X181800000Y-248545000D03*
D14*
X141962500Y-206325000D03*
X135612500Y-208865000D03*
D12*
X134175000Y-270395000D03*
D11*
X134175000Y-271495000D03*
D10*
X134175000Y-272895000D03*
D11*
X134175000Y-266495000D03*
D12*
X134175000Y-267595000D03*
D13*
X134175000Y-265095000D03*
D14*
X284837500Y-225375000D03*
X278487500Y-227915000D03*
X161012500Y-206325000D03*
X154662500Y-208865000D03*
X132437500Y-225375000D03*
X126087500Y-227915000D03*
D10*
X287432000Y-194116000D03*
D11*
X287432000Y-192716000D03*
D12*
X287432000Y-191616000D03*
X287432000Y-188816000D03*
D11*
X287432000Y-187716000D03*
D13*
X287432000Y-186316000D03*
D11*
X277050000Y-252445000D03*
D10*
X277050000Y-253845000D03*
D12*
X277050000Y-251345000D03*
X277050000Y-248545000D03*
D11*
X277050000Y-247445000D03*
D13*
X277050000Y-246045000D03*
D10*
X105600000Y-253845000D03*
D11*
X105600000Y-252445000D03*
D12*
X105600000Y-251345000D03*
X105600000Y-248545000D03*
D11*
X105600000Y-247445000D03*
D13*
X105600000Y-246045000D03*
D14*
X68143800Y-225375000D03*
X61793800Y-227915000D03*
X232450000Y-244425000D03*
X226100000Y-246965000D03*
X218162500Y-206325000D03*
X211812500Y-208865000D03*
D12*
X315150000Y-251345000D03*
D10*
X315150000Y-253845000D03*
D11*
X315150000Y-252445000D03*
X315150000Y-247445000D03*
D13*
X315150000Y-246045000D03*
D12*
X315150000Y-248545000D03*
D14*
X103862500Y-206325000D03*
X97512500Y-208865000D03*
X377706300Y-180131200D03*
X371356300Y-182671200D03*
X222925000Y-263475000D03*
X216575000Y-266015000D03*
X377706300Y-232518700D03*
X371356300Y-235058700D03*
X122912500Y-206325000D03*
X116562500Y-208865000D03*
X237212500Y-206325000D03*
X230862500Y-208865000D03*
D11*
X229425000Y-271495000D03*
D12*
X229425000Y-270395000D03*
D10*
X229425000Y-272895000D03*
D11*
X229425000Y-266495000D03*
D13*
X229425000Y-265095000D03*
D12*
X229425000Y-267595000D03*
D14*
X377706300Y-256331200D03*
X371356300Y-258871200D03*
D18*
X380841000Y-170086000D03*
D19*
X383381000Y-170086000D03*
D14*
X294362500Y-206325000D03*
X288012500Y-208865000D03*
D10*
X334200000Y-234795000D03*
D11*
X334200000Y-233395000D03*
D12*
X334200000Y-232295000D03*
D11*
X334200000Y-228395000D03*
D12*
X334200000Y-229495000D03*
D13*
X334200000Y-226995000D03*
D10*
X219396000Y-194116000D03*
D11*
X219396000Y-192716000D03*
D12*
X219396000Y-191616000D03*
X219396000Y-188816000D03*
D13*
X219396000Y-186316000D03*
D11*
X219396000Y-187716000D03*
D12*
X384206300Y-215626200D03*
D11*
X384206300Y-216726200D03*
D10*
X384206300Y-218126200D03*
D12*
X384206300Y-212826200D03*
D11*
X384206300Y-211726200D03*
D13*
X384206300Y-210326200D03*
D10*
X74643800Y-234795000D03*
D11*
X74643800Y-233395000D03*
D12*
X74643800Y-232295000D03*
X74643800Y-229495000D03*
D13*
X74643800Y-226995000D03*
D11*
X74643800Y-228395000D03*
D14*
X175300000Y-244425000D03*
X168950000Y-246965000D03*
D10*
X205612500Y-215745000D03*
D12*
X205612500Y-213245000D03*
D11*
X205612500Y-214345000D03*
D13*
X205612500Y-207945000D03*
D11*
X205612500Y-209345000D03*
D12*
X205612500Y-210445000D03*
D14*
X303887500Y-225375000D03*
X297537500Y-227915000D03*
D17*
X247106000Y-177616300D03*
X222106000Y-177616300D03*
D10*
X240146000Y-179036300D03*
D13*
X237376000Y-179036300D03*
X234606000Y-179036300D03*
X231836000Y-179036300D03*
X229066000Y-179036300D03*
X238761000Y-176196300D03*
X235991000Y-176196300D03*
X233221000Y-176196300D03*
X230451000Y-176196300D03*
D14*
X289600000Y-244425000D03*
X283250000Y-246965000D03*
D11*
X249672000Y-192716000D03*
D12*
X249672000Y-191616000D03*
D10*
X249672000Y-194116000D03*
D13*
X249672000Y-186316000D03*
D11*
X249672000Y-187716000D03*
D12*
X249672000Y-188816000D03*
D10*
X193706300Y-189551200D03*
D12*
X193706300Y-187051200D03*
D11*
X193706300Y-188151200D03*
X193706300Y-183151200D03*
D12*
X193706300Y-184251200D03*
D13*
X193706300Y-181751200D03*
D14*
X84812500Y-206325000D03*
X78462500Y-208865000D03*
X227687500Y-225375000D03*
X221337500Y-227915000D03*
X187206300Y-180131200D03*
X180856300Y-182671200D03*
X180062500Y-206325000D03*
X173712500Y-208865000D03*
X322937500Y-206325000D03*
X316587500Y-208865000D03*
X146725000Y-263475000D03*
X140375000Y-266015000D03*
D20*
X343786000Y-169636000D03*
D21*
X343786000Y-172176000D03*
X343786000Y-174716000D03*
X343786000Y-177256000D03*
X343786000Y-179796000D03*
X343786000Y-182336000D03*
X343786000Y-184876000D03*
X343786000Y-187416000D03*
X343786000Y-189956000D03*
X343786000Y-192496000D03*
X343786000Y-195036000D03*
X344014600Y-197576000D03*
X359026000Y-197576000D03*
X359026000Y-195036000D03*
X359026000Y-192496000D03*
X359026000Y-189956000D03*
X359026000Y-187416000D03*
X359026000Y-184876000D03*
X359026000Y-182336000D03*
X359026000Y-179796000D03*
X359026000Y-177256000D03*
X359026000Y-174716000D03*
X359026000Y-172176000D03*
X359026000Y-169636000D03*
X346326000Y-197576000D03*
X348866000Y-197576000D03*
X351406000Y-197576000D03*
X353946000Y-197576000D03*
X356486000Y-197576000D03*
D10*
X272294000Y-194116000D03*
D11*
X272294000Y-192716000D03*
D12*
X272294000Y-191616000D03*
D13*
X272294000Y-186316000D03*
D11*
X272294000Y-187716000D03*
D12*
X272294000Y-188816000D03*
D14*
X280075000Y-263475000D03*
X273725000Y-266015000D03*
D10*
X279863000Y-194116000D03*
D11*
X279863000Y-192716000D03*
D12*
X279863000Y-191616000D03*
D11*
X279863000Y-187716000D03*
D13*
X279863000Y-186316000D03*
D12*
X279863000Y-188816000D03*
D14*
X241975000Y-263475000D03*
X235625000Y-266015000D03*
X94337500Y-225375000D03*
X87987500Y-227915000D03*
X125293800Y-180131200D03*
X118943800Y-182671200D03*
D12*
X115125000Y-270395000D03*
D11*
X115125000Y-271495000D03*
D10*
X115125000Y-272895000D03*
D11*
X115125000Y-266495000D03*
D13*
X115125000Y-265095000D03*
D12*
X115125000Y-267595000D03*
D14*
X163393800Y-180131200D03*
X157043800Y-182671200D03*
D12*
X129412500Y-213245000D03*
D11*
X129412500Y-214345000D03*
D10*
X129412500Y-215745000D03*
D11*
X129412500Y-209345000D03*
D13*
X129412500Y-207945000D03*
D12*
X129412500Y-210445000D03*
D10*
X248475000Y-272895000D03*
D11*
X248475000Y-271495000D03*
D12*
X248475000Y-270395000D03*
D11*
X248475000Y-266495000D03*
D13*
X248475000Y-265095000D03*
D12*
X248475000Y-267595000D03*
D11*
X162750000Y-252445000D03*
D12*
X162750000Y-251345000D03*
D10*
X162750000Y-253845000D03*
D12*
X162750000Y-248545000D03*
D13*
X162750000Y-246045000D03*
D11*
X162750000Y-247445000D03*
D14*
X308650000Y-244425000D03*
X302300000Y-246965000D03*
X377706300Y-208706200D03*
X371356300Y-211246200D03*
X184825000Y-263475000D03*
X178475000Y-266015000D03*
D11*
X286575000Y-271495000D03*
D10*
X286575000Y-272895000D03*
D12*
X286575000Y-270395000D03*
X286575000Y-267595000D03*
D13*
X286575000Y-265095000D03*
D11*
X286575000Y-266495000D03*
X234534000Y-192716000D03*
D12*
X234534000Y-191616000D03*
D10*
X234534000Y-194116000D03*
D11*
X234534000Y-187716000D03*
D13*
X234534000Y-186316000D03*
D12*
X234534000Y-188816000D03*
D14*
X256262500Y-206325000D03*
X249912500Y-208865000D03*
D11*
X258000000Y-252445000D03*
D10*
X258000000Y-253845000D03*
D12*
X258000000Y-251345000D03*
D13*
X258000000Y-246045000D03*
D11*
X258000000Y-247445000D03*
D12*
X258000000Y-248545000D03*
D14*
X270550000Y-244425000D03*
X264200000Y-246965000D03*
D10*
X319912500Y-291945000D03*
D11*
X319912500Y-290545000D03*
D12*
X319912500Y-289445000D03*
D13*
X319912500Y-284145000D03*
D12*
X319912500Y-286645000D03*
D11*
X319912500Y-285545000D03*
D14*
X189587500Y-225375000D03*
X183237500Y-227915000D03*
X70525000Y-244425000D03*
X64175000Y-246965000D03*
D10*
X191325000Y-272895000D03*
D11*
X191325000Y-271495000D03*
D12*
X191325000Y-270395000D03*
X191325000Y-267595000D03*
D13*
X191325000Y-265095000D03*
D11*
X191325000Y-266495000D03*
X210375000Y-271495000D03*
D10*
X210375000Y-272895000D03*
D12*
X210375000Y-270395000D03*
D11*
X210375000Y-266495000D03*
D13*
X210375000Y-265095000D03*
D12*
X210375000Y-267595000D03*
D14*
X213400000Y-244425000D03*
X207050000Y-246965000D03*
D11*
X169893800Y-188151200D03*
D10*
X169893800Y-189551200D03*
D12*
X169893800Y-187051200D03*
X169893800Y-184251200D03*
D13*
X169893800Y-181751200D03*
D11*
X169893800Y-183151200D03*
D14*
X108625000Y-263475000D03*
X102275000Y-266015000D03*
X99100000Y-282525000D03*
X92750000Y-285065000D03*
D11*
X186562500Y-214345000D03*
D10*
X186562500Y-215745000D03*
D12*
X186562500Y-213245000D03*
D11*
X186562500Y-209345000D03*
D13*
X186562500Y-207945000D03*
D12*
X186562500Y-210445000D03*
D14*
X332462500Y-282525000D03*
X326112500Y-285065000D03*
D11*
X77025000Y-252445000D03*
D12*
X77025000Y-251345000D03*
D10*
X77025000Y-253845000D03*
D11*
X77025000Y-247445000D03*
D13*
X77025000Y-246045000D03*
D12*
X77025000Y-248545000D03*
D11*
X336581300Y-252445000D03*
D12*
X336581300Y-251345000D03*
D10*
X336581300Y-253845000D03*
D13*
X336581300Y-246045000D03*
D12*
X336581300Y-248545000D03*
D11*
X336581300Y-247445000D03*
D12*
X226965000Y-191616000D03*
D11*
X226965000Y-192716000D03*
D10*
X226965000Y-194116000D03*
D11*
X226965000Y-187716000D03*
D13*
X226965000Y-186316000D03*
D12*
X226965000Y-188816000D03*
X238950000Y-251345000D03*
D10*
X238950000Y-253845000D03*
D11*
X238950000Y-252445000D03*
X238950000Y-247445000D03*
D13*
X238950000Y-246045000D03*
D12*
X238950000Y-248545000D03*
X312768800Y-270395000D03*
D10*
X312768800Y-272895000D03*
D11*
X312768800Y-271495000D03*
X312768800Y-266495000D03*
D13*
X312768800Y-265095000D03*
D12*
X312768800Y-267595000D03*
D10*
X267525000Y-272895000D03*
D11*
X267525000Y-271495000D03*
D12*
X267525000Y-270395000D03*
X267525000Y-267595000D03*
D11*
X267525000Y-266495000D03*
D13*
X267525000Y-265095000D03*
X378016000Y-169946000D03*
D22*
X376616000Y-169946000D03*
D23*
X375466000Y-169946000D03*
D22*
X371616000Y-169946000D03*
D23*
X372766000Y-169946000D03*
D13*
X370216000Y-169946000D03*
D14*
X351512500Y-282525000D03*
X345162500Y-285065000D03*
X265787500Y-225375000D03*
X259437500Y-227915000D03*
X313412500Y-282525000D03*
X307062500Y-285065000D03*
D11*
X124650000Y-252445000D03*
D12*
X124650000Y-251345000D03*
D10*
X124650000Y-253845000D03*
D12*
X124650000Y-248545000D03*
D11*
X124650000Y-247445000D03*
D13*
X124650000Y-246045000D03*
D12*
X358012500Y-289445000D03*
D11*
X358012500Y-290545000D03*
D10*
X358012500Y-291945000D03*
D12*
X358012500Y-286645000D03*
D13*
X358012500Y-284145000D03*
D11*
X358012500Y-285545000D03*
D14*
X203875000Y-263475000D03*
X197525000Y-266015000D03*
D11*
X310387500Y-233395000D03*
D10*
X310387500Y-234795000D03*
D12*
X310387500Y-232295000D03*
D13*
X310387500Y-226995000D03*
D11*
X310387500Y-228395000D03*
D12*
X310387500Y-229495000D03*
D14*
X327700000Y-225375000D03*
X321350000Y-227915000D03*
X251500000Y-244425000D03*
X245150000Y-246965000D03*
X63381300Y-206325000D03*
X57031300Y-208865000D03*
X113387500Y-225375000D03*
X107037500Y-227915000D03*
D12*
X119887500Y-232295000D03*
D10*
X119887500Y-234795000D03*
D11*
X119887500Y-233395000D03*
X119887500Y-228395000D03*
D12*
X119887500Y-229495000D03*
D13*
X119887500Y-226995000D03*
D14*
X199112500Y-206325000D03*
X192762500Y-208865000D03*
D10*
X253237500Y-234795000D03*
D11*
X253237500Y-233395000D03*
D12*
X253237500Y-232295000D03*
D11*
X253237500Y-228395000D03*
D12*
X253237500Y-229495000D03*
D13*
X253237500Y-226995000D03*
D11*
X257156000Y-192716000D03*
D10*
X257156000Y-194116000D03*
D12*
X257156000Y-191616000D03*
D11*
X257156000Y-187716000D03*
D12*
X257156000Y-188816000D03*
D13*
X257156000Y-186316000D03*
D14*
X99100000Y-244425000D03*
X92750000Y-246965000D03*
X127675000Y-263475000D03*
X121325000Y-266015000D03*
D12*
X262762500Y-213245000D03*
D11*
X262762500Y-214345000D03*
D10*
X262762500Y-215745000D03*
D13*
X262762500Y-207945000D03*
D11*
X262762500Y-209345000D03*
D12*
X262762500Y-210445000D03*
D14*
X208637500Y-225375000D03*
X202287500Y-227915000D03*
X306268800Y-180131200D03*
X299918800Y-182671200D03*
D12*
X84168800Y-270395000D03*
D11*
X84168800Y-271495000D03*
D10*
X84168800Y-272895000D03*
D11*
X84168800Y-266495000D03*
D13*
X84168800Y-265095000D03*
D12*
X84168800Y-267595000D03*
D10*
X336581300Y-189551200D03*
D11*
X336581300Y-188151200D03*
D12*
X336581300Y-187051200D03*
D13*
X336581300Y-181751200D03*
D11*
X336581300Y-183151200D03*
D12*
X336581300Y-184251200D03*
D11*
X157987500Y-233395000D03*
D12*
X157987500Y-232295000D03*
D10*
X157987500Y-234795000D03*
D11*
X157987500Y-228395000D03*
D12*
X157987500Y-229495000D03*
D13*
X157987500Y-226995000D03*
D10*
X384206300Y-289563700D03*
D11*
X384206300Y-288163700D03*
D12*
X384206300Y-287063700D03*
D11*
X384206300Y-283163700D03*
D13*
X384206300Y-281763700D03*
D12*
X384206300Y-284263700D03*
X143700000Y-251345000D03*
D10*
X143700000Y-253845000D03*
D11*
X143700000Y-252445000D03*
D13*
X143700000Y-246045000D03*
D12*
X143700000Y-248545000D03*
D11*
X143700000Y-247445000D03*
D12*
X69881300Y-213245000D03*
D10*
X69881300Y-215745000D03*
D11*
X69881300Y-214345000D03*
D13*
X69881300Y-207945000D03*
D11*
X69881300Y-209345000D03*
D12*
X69881300Y-210445000D03*
X215137500Y-232295000D03*
D10*
X215137500Y-234795000D03*
D11*
X215137500Y-233395000D03*
D12*
X215137500Y-229495000D03*
D13*
X215137500Y-226995000D03*
D11*
X215137500Y-228395000D03*
D12*
X131793800Y-187051200D03*
D10*
X131793800Y-189551200D03*
D11*
X131793800Y-188151200D03*
D13*
X131793800Y-181751200D03*
D12*
X131793800Y-184251200D03*
D11*
X131793800Y-183151200D03*
D12*
X264725000Y-191616000D03*
D10*
X264725000Y-194116000D03*
D11*
X264725000Y-192716000D03*
D12*
X264725000Y-188816000D03*
D11*
X264725000Y-187716000D03*
D13*
X264725000Y-186316000D03*
D12*
X291337500Y-232295000D03*
D11*
X291337500Y-233395000D03*
D10*
X291337500Y-234795000D03*
D13*
X291337500Y-226995000D03*
D12*
X291337500Y-229495000D03*
D11*
X291337500Y-228395000D03*
X338962500Y-290545000D03*
D12*
X338962500Y-289445000D03*
D10*
X338962500Y-291945000D03*
D13*
X338962500Y-284145000D03*
D12*
X338962500Y-286645000D03*
D11*
X338962500Y-285545000D03*
D14*
X306268800Y-263475000D03*
X299918800Y-266015000D03*
D10*
X167512500Y-215745000D03*
D11*
X167512500Y-214345000D03*
D12*
X167512500Y-213245000D03*
D11*
X167512500Y-209345000D03*
D13*
X167512500Y-207945000D03*
D12*
X167512500Y-210445000D03*
D14*
X77668800Y-263475000D03*
X71318800Y-266015000D03*
D11*
X153225000Y-271495000D03*
D10*
X153225000Y-272895000D03*
D12*
X153225000Y-270395000D03*
D11*
X153225000Y-266495000D03*
D13*
X153225000Y-265095000D03*
D12*
X153225000Y-267595000D03*
D24*
X335652000Y-211443700D03*
X337687600Y-200196900D03*
X227472200Y-199403700D03*
X107428700Y-223668700D03*
X333835500Y-187790800D03*
X296809200Y-233207600D03*
X248247500Y-194864300D03*
X261749100Y-195268700D03*
X153458700Y-214787400D03*
X203249500Y-215828300D03*
X139870400Y-218125600D03*
X299017100Y-189544000D03*
X210687000Y-237326100D03*
X285583600Y-205639800D03*
X222790400Y-222595000D03*
X231942200Y-174751000D03*
X179676500Y-249878300D03*
X336429700Y-209302000D03*
X278230500Y-249945000D03*
X330928800Y-211954000D03*
D25*
X131793800Y-184251200D02*
X131793800Y-183151200D01*
X131793800Y-183151200D02*
X131793800Y-181751200D01*
X286575000Y-266495000D02*
X286575000Y-267595000D01*
X286575000Y-265095000D02*
X286575000Y-266495000D01*
X267525000Y-265095000D02*
X267525000Y-266495000D01*
X267525000Y-266495000D02*
X267525000Y-267595000D01*
X248475000Y-267595000D02*
X248475000Y-266495000D01*
X248475000Y-265095000D02*
X248475000Y-266495000D01*
X207993800Y-285545000D02*
X207993800Y-286645000D01*
X207993800Y-284145000D02*
X207993800Y-285545000D01*
X312768800Y-184251200D02*
X312768800Y-183151200D01*
X312768800Y-181751200D02*
X312768800Y-183151200D01*
X105600000Y-286645000D02*
X105600000Y-285545000D01*
X105600000Y-284145000D02*
X105600000Y-285545000D01*
X229425000Y-267595000D02*
X229425000Y-266495000D01*
X229425000Y-265095000D02*
X229425000Y-266495000D01*
X191325000Y-266495000D02*
X191325000Y-267595000D01*
X191325000Y-265095000D02*
X191325000Y-266495000D01*
X172275000Y-267595000D02*
X172275000Y-266495000D01*
X172275000Y-266495000D02*
X172275000Y-265095000D01*
X153225000Y-267595000D02*
X153225000Y-266495000D01*
X153225000Y-265095000D02*
X153225000Y-266495000D01*
X134175000Y-265095000D02*
X134175000Y-266495000D01*
X134175000Y-267595000D02*
X134175000Y-266495000D01*
X115125000Y-267595000D02*
X115125000Y-266495000D01*
X115125000Y-265095000D02*
X115125000Y-266495000D01*
X110245000Y-265095000D02*
X115125000Y-265095000D01*
X108625000Y-263475000D02*
X110245000Y-265095000D01*
X84168800Y-267595000D02*
X84168800Y-266495000D01*
X82548800Y-263475000D02*
X84168800Y-265095000D01*
X77668800Y-263475000D02*
X82548800Y-263475000D01*
X84168800Y-265095000D02*
X84168800Y-266495000D01*
X336581300Y-248545000D02*
X336581300Y-247445000D01*
X336581300Y-247445000D02*
X336581300Y-246045000D01*
X315150000Y-248545000D02*
X315150000Y-247445000D01*
X315150000Y-246045000D02*
X315150000Y-247445000D01*
X310270000Y-246045000D02*
X315150000Y-246045000D01*
X308650000Y-244425000D02*
X310270000Y-246045000D01*
X210375000Y-267595000D02*
X210375000Y-266495000D01*
X210375000Y-266495000D02*
X210375000Y-265095000D01*
X205495000Y-265095000D02*
X210375000Y-265095000D01*
X203875000Y-263475000D02*
X205495000Y-265095000D01*
X296100000Y-246045000D02*
X296100000Y-247445000D01*
X296100000Y-247445000D02*
X296100000Y-248545000D01*
X277050000Y-246045000D02*
X277050000Y-247445000D01*
X277050000Y-247445000D02*
X277050000Y-248545000D01*
X258000000Y-248545000D02*
X258000000Y-247445000D01*
X258000000Y-247445000D02*
X258000000Y-246045000D01*
X238950000Y-248545000D02*
X238950000Y-247445000D01*
X238950000Y-246045000D02*
X238950000Y-247445000D01*
X219900000Y-248545000D02*
X219900000Y-247445000D01*
X219900000Y-247445000D02*
X219900000Y-246045000D01*
X200850000Y-248545000D02*
X200850000Y-247445000D01*
X200850000Y-247445000D02*
X200850000Y-246045000D01*
X181800000Y-248545000D02*
X181800000Y-247445000D01*
X181800000Y-247445000D02*
X181800000Y-246045000D01*
X162750000Y-247445000D02*
X162750000Y-248545000D01*
X162750000Y-246045000D02*
X162750000Y-247445000D01*
X358012500Y-285545000D02*
X358012500Y-286645000D01*
X358012500Y-284145000D02*
X358012500Y-285545000D01*
X143700000Y-248545000D02*
X143700000Y-247445000D01*
X143700000Y-247445000D02*
X143700000Y-246045000D01*
X138820000Y-246045000D02*
X137200000Y-244425000D01*
X143700000Y-246045000D02*
X138820000Y-246045000D01*
X124650000Y-247445000D02*
X124650000Y-248545000D01*
X124650000Y-246045000D02*
X124650000Y-247445000D01*
X119770000Y-246045000D02*
X118150000Y-244425000D01*
X124650000Y-246045000D02*
X119770000Y-246045000D01*
X105600000Y-246045000D02*
X105600000Y-247445000D01*
X105600000Y-247445000D02*
X105600000Y-248545000D01*
X100720000Y-246045000D02*
X105600000Y-246045000D01*
X99100000Y-244425000D02*
X100720000Y-246045000D01*
X77025000Y-248545000D02*
X77025000Y-247445000D01*
X77025000Y-246045000D02*
X77025000Y-247445000D01*
X334200000Y-226995000D02*
X334200000Y-228395000D01*
X334200000Y-229495000D02*
X334200000Y-228395000D01*
X310387500Y-229495000D02*
X310387500Y-228395000D01*
X310387500Y-228395000D02*
X310387500Y-226995000D01*
X291337500Y-229495000D02*
X291337500Y-228395000D01*
X291337500Y-228395000D02*
X291337500Y-226995000D01*
X272287500Y-226995000D02*
X272287500Y-228395000D01*
X272287500Y-229495000D02*
X272287500Y-228395000D01*
X319912500Y-286645000D02*
X319912500Y-285545000D01*
X319912500Y-285545000D02*
X319912500Y-284145000D01*
X315032500Y-284145000D02*
X319912500Y-284145000D01*
X313412500Y-282525000D02*
X315032500Y-284145000D01*
X253237500Y-226995000D02*
X253237500Y-228395000D01*
X253237500Y-229495000D02*
X253237500Y-228395000D01*
X234187500Y-228395000D02*
X234187500Y-229495000D01*
X234187500Y-226995000D02*
X234187500Y-228395000D01*
X215137500Y-228395000D02*
X215137500Y-229495000D01*
X215137500Y-226995000D02*
X215137500Y-228395000D01*
X196087500Y-229495000D02*
X196087500Y-228395000D01*
X196087500Y-226995000D02*
X196087500Y-228395000D01*
X177037500Y-229495000D02*
X177037500Y-228395000D01*
X177037500Y-228395000D02*
X177037500Y-226995000D01*
X157987500Y-226995000D02*
X157987500Y-228395000D01*
X157987500Y-229495000D02*
X157987500Y-228395000D01*
X138937500Y-228395000D02*
X138937500Y-229495000D01*
X138937500Y-228395000D02*
X138937500Y-226995000D01*
X134057500Y-226995000D02*
X138937500Y-226995000D01*
X132437500Y-225375000D02*
X134057500Y-226995000D01*
X119887500Y-226995000D02*
X119887500Y-228395000D01*
X119887500Y-229495000D02*
X119887500Y-228395000D01*
X338962500Y-286645000D02*
X338962500Y-285545000D01*
X338962500Y-285545000D02*
X338962500Y-284145000D01*
X100837500Y-229495000D02*
X100837500Y-228395000D01*
X100837500Y-228395000D02*
X100837500Y-226995000D01*
X74643800Y-228395000D02*
X74643800Y-229495000D01*
X74643800Y-226995000D02*
X74643800Y-228395000D01*
X336581300Y-184251200D02*
X336581300Y-183151200D01*
X336581300Y-183151200D02*
X336581300Y-181751200D01*
X329437500Y-207945000D02*
X329437500Y-209345000D01*
X329437500Y-209345000D02*
X329437500Y-210445000D01*
X300862500Y-209345000D02*
X300862500Y-210445000D01*
X300862500Y-209345000D02*
X300862500Y-207945000D01*
X295982500Y-207945000D02*
X300862500Y-207945000D01*
X294362500Y-206325000D02*
X295982500Y-207945000D01*
X281812500Y-209345000D02*
X281812500Y-210445000D01*
X281812500Y-207945000D02*
X281812500Y-209345000D01*
X262762500Y-210445000D02*
X262762500Y-209345000D01*
X262762500Y-209345000D02*
X262762500Y-207945000D01*
X243712500Y-210445000D02*
X243712500Y-209345000D01*
X243712500Y-209345000D02*
X243712500Y-207945000D01*
X238832500Y-207945000D02*
X243712500Y-207945000D01*
X237212500Y-206325000D02*
X238832500Y-207945000D01*
X338962500Y-265095000D02*
X338962500Y-266495000D01*
X338962500Y-267595000D02*
X338962500Y-266495000D01*
X224662500Y-207945000D02*
X224662500Y-209345000D01*
X224662500Y-210445000D02*
X224662500Y-209345000D01*
X205612500Y-210445000D02*
X205612500Y-209345000D01*
X205612500Y-209345000D02*
X205612500Y-207945000D01*
X186562500Y-210445000D02*
X186562500Y-209345000D01*
X186562500Y-207945000D02*
X186562500Y-209345000D01*
X167512500Y-210445000D02*
X167512500Y-209345000D01*
X167512500Y-207945000D02*
X167512500Y-209345000D01*
X148462500Y-210445000D02*
X148462500Y-209345000D01*
X148462500Y-207945000D02*
X148462500Y-209345000D01*
X129412500Y-210445000D02*
X129412500Y-209345000D01*
X129412500Y-207945000D02*
X129412500Y-209345000D01*
X110362500Y-209345000D02*
X110362500Y-210445000D01*
X110362500Y-209345000D02*
X110362500Y-207945000D01*
X91312500Y-209345000D02*
X91312500Y-207945000D01*
X91312500Y-210445000D02*
X91312500Y-209345000D01*
X86432500Y-207945000D02*
X91312500Y-207945000D01*
X84812500Y-206325000D02*
X86432500Y-207945000D01*
X312768800Y-267595000D02*
X312768800Y-266495000D01*
X312768800Y-265095000D02*
X312768800Y-266495000D01*
X69881300Y-210445000D02*
X69881300Y-209345000D01*
X69881300Y-209345000D02*
X69881300Y-207945000D01*
X65001300Y-207945000D02*
X63381300Y-206325000D01*
X69881300Y-207945000D02*
X65001300Y-207945000D01*
X384206300Y-181751200D02*
X384206300Y-183151200D01*
X384206300Y-183151200D02*
X384206300Y-184251200D01*
X384206300Y-284263700D02*
X384206300Y-283163700D01*
X384206300Y-281763700D02*
X384206300Y-283163700D01*
X384206300Y-259351200D02*
X384206300Y-260451200D01*
X384206300Y-257951200D02*
X384206300Y-259351200D01*
X384206300Y-234138700D02*
X384206300Y-235538700D01*
X384206300Y-236638700D02*
X384206300Y-235538700D01*
X384206300Y-210326200D02*
X384206300Y-211726200D01*
X384206300Y-211726200D02*
X384206300Y-212826200D01*
X193706300Y-181751200D02*
X193706300Y-183151200D01*
X193706300Y-184251200D02*
X193706300Y-183151200D01*
X169893800Y-183151200D02*
X169893800Y-184251200D01*
X169893800Y-181751200D02*
X169893800Y-183151200D01*
X153225000Y-270395000D02*
X153225000Y-271495000D01*
X153225000Y-272895000D02*
X153225000Y-271495000D01*
X84168800Y-272895000D02*
X84168800Y-271495000D01*
X84168800Y-271495000D02*
X84168800Y-270395000D01*
X336581300Y-253845000D02*
X336581300Y-252445000D01*
X191325000Y-270395000D02*
X191325000Y-271495000D01*
X191325000Y-271495000D02*
X191325000Y-272895000D01*
X115125000Y-272895000D02*
X115125000Y-271495000D01*
X115125000Y-271495000D02*
X115125000Y-270395000D01*
X229425000Y-272895000D02*
X229425000Y-271495000D01*
X229425000Y-270395000D02*
X229425000Y-271495000D01*
X315150000Y-252445000D02*
X315150000Y-251345000D01*
X315150000Y-253845000D02*
X315150000Y-252445000D01*
X134175000Y-272895000D02*
X134175000Y-271495000D01*
X134175000Y-271495000D02*
X134175000Y-270395000D01*
X172275000Y-272895000D02*
X172275000Y-271495000D01*
X172275000Y-270395000D02*
X172275000Y-271495000D01*
X336581300Y-251345000D02*
X336581300Y-252445000D01*
X336581300Y-251345000D02*
X335628600Y-251345000D01*
X335652000Y-221753200D02*
X335652000Y-211443700D01*
X333019000Y-224386200D02*
X335652000Y-221753200D01*
X333019000Y-239349500D02*
X333019000Y-224386200D01*
X335358800Y-241689300D02*
X333019000Y-239349500D01*
X335358800Y-251075200D02*
X335358800Y-241689300D01*
X335628600Y-251345000D02*
X335358800Y-251075200D01*
X238950000Y-252445000D02*
X238950000Y-251345000D01*
X238950000Y-253845000D02*
X238950000Y-252445000D01*
X210375000Y-272895000D02*
X210375000Y-271495000D01*
X210375000Y-270395000D02*
X210375000Y-271495000D01*
X214212800Y-260684900D02*
X219900000Y-254997700D01*
X214212800Y-267509900D02*
X214212800Y-260684900D01*
X211327700Y-270395000D02*
X214212800Y-267509900D01*
X210375000Y-270395000D02*
X211327700Y-270395000D01*
X258000000Y-251345000D02*
X258000000Y-252445000D01*
X258000000Y-253845000D02*
X258000000Y-252445000D01*
X162750000Y-253845000D02*
X162750000Y-252445000D01*
X162750000Y-251345000D02*
X162750000Y-252445000D01*
X277050000Y-251345000D02*
X277050000Y-252445000D01*
X277050000Y-253845000D02*
X277050000Y-252445000D01*
X181800000Y-251345000D02*
X181800000Y-252445000D01*
X296100000Y-253845000D02*
X296100000Y-252445000D01*
X200850000Y-253845000D02*
X200850000Y-252445000D01*
X200850000Y-252445000D02*
X200850000Y-251345000D01*
X219900000Y-254421300D02*
X219900000Y-254997700D01*
X219900000Y-254421300D02*
X219900000Y-253845000D01*
X219900000Y-253845000D02*
X219900000Y-252445000D01*
X219900000Y-252445000D02*
X219900000Y-251345000D01*
X181800000Y-253845000D02*
X181800000Y-252445000D01*
X296100000Y-252445000D02*
X296100000Y-251345000D01*
X296100000Y-251345000D02*
X297052700Y-251345000D01*
X333821900Y-200196900D02*
X337687600Y-200196900D01*
X323379800Y-210639000D02*
X333821900Y-200196900D01*
X323379800Y-227966000D02*
X323379800Y-210639000D01*
X321936600Y-229409200D02*
X323379800Y-227966000D01*
X320735300Y-229409200D02*
X321936600Y-229409200D01*
X320540000Y-229213900D02*
X320735300Y-229409200D01*
X319565100Y-229213900D02*
X320540000Y-229213900D01*
X318673000Y-230106000D02*
X319565100Y-229213900D01*
X318673000Y-230390700D02*
X318673000Y-230106000D01*
X305157600Y-243906100D02*
X318673000Y-230390700D01*
X305157600Y-246220000D02*
X305157600Y-243906100D01*
X302918400Y-248459200D02*
X305157600Y-246220000D01*
X301685300Y-248459200D02*
X302918400Y-248459200D01*
X301490000Y-248263900D02*
X301685300Y-248459200D01*
X300133800Y-248263900D02*
X301490000Y-248263900D01*
X297052700Y-251345000D02*
X300133800Y-248263900D01*
X375466000Y-169946000D02*
X376616000Y-169946000D01*
X376616000Y-169946000D02*
X378016000Y-169946000D01*
X343786000Y-177256000D02*
X343786000Y-174716000D01*
X340760200Y-174716000D02*
X343786000Y-174716000D01*
X339883800Y-173839600D02*
X340760200Y-174716000D01*
X288642700Y-173839600D02*
X339883800Y-173839600D01*
X284866000Y-177616300D02*
X288642700Y-173839600D01*
X104536000Y-169946000D02*
X105738700Y-169946000D01*
X105738700Y-169007400D02*
X105738700Y-169946000D01*
X106002900Y-168743200D02*
X105738700Y-169007400D01*
X335858800Y-168743200D02*
X106002900Y-168743200D01*
X340561700Y-173446100D02*
X335858800Y-168743200D01*
X355216100Y-173446100D02*
X340561700Y-173446100D01*
X359026000Y-177256000D02*
X355216100Y-173446100D01*
X379772900Y-173694100D02*
X383381000Y-170086000D01*
X362587900Y-173694100D02*
X379772900Y-173694100D01*
X359026000Y-177256000D02*
X362587900Y-173694100D01*
X287432000Y-192716000D02*
X287432000Y-194116000D01*
X277906000Y-179036300D02*
X277906000Y-180189000D01*
X282066100Y-184349100D02*
X277906000Y-180189000D01*
X282066100Y-185547400D02*
X282066100Y-184349100D01*
X287432000Y-190913300D02*
X282066100Y-185547400D01*
X287432000Y-192716000D02*
X287432000Y-191616000D01*
X287432000Y-191616000D02*
X287432000Y-190913300D01*
X131793800Y-188151200D02*
X131793800Y-187051200D01*
X131793800Y-189551200D02*
X131793800Y-188151200D01*
X267525000Y-271495000D02*
X267525000Y-272895000D01*
X286575000Y-272895000D02*
X286575000Y-271495000D01*
X267525000Y-270395000D02*
X267525000Y-271495000D01*
X266572300Y-265772600D02*
X266572300Y-270395000D01*
X255697400Y-254897700D02*
X266572300Y-265772600D01*
X255697400Y-245282400D02*
X255697400Y-254897700D01*
X238207600Y-227792600D02*
X255697400Y-245282400D01*
X238207600Y-218267500D02*
X238207600Y-227792600D01*
X229400600Y-209460500D02*
X238207600Y-218267500D01*
X229400600Y-183884600D02*
X229400600Y-209460500D01*
X233221000Y-180064200D02*
X229400600Y-183884600D01*
X233221000Y-176196300D02*
X233221000Y-180064200D01*
X267525000Y-270395000D02*
X266572300Y-270395000D01*
X286575000Y-271495000D02*
X286575000Y-270395000D01*
X286575000Y-270395000D02*
X287527700Y-270395000D01*
X302232800Y-255689900D02*
X287527700Y-270395000D01*
X302232800Y-250052600D02*
X302232800Y-255689900D01*
X307174400Y-245111000D02*
X302232800Y-250052600D01*
X307174400Y-243823800D02*
X307174400Y-245111000D01*
X312855000Y-238143200D02*
X307174400Y-243823800D01*
X314144400Y-238143200D02*
X312855000Y-238143200D01*
X324780100Y-227507500D02*
X314144400Y-238143200D01*
X324780100Y-213928800D02*
X324780100Y-227507500D01*
X327362400Y-211346500D02*
X324780100Y-213928800D01*
X327362400Y-208324100D02*
X327362400Y-211346500D01*
X329368800Y-206317700D02*
X327362400Y-208324100D01*
X342664300Y-206317700D02*
X329368800Y-206317700D01*
X351406000Y-197576000D02*
X342664300Y-206317700D01*
X307062500Y-278600500D02*
X307062500Y-285065000D01*
X299918800Y-271456800D02*
X307062500Y-278600500D01*
X299918800Y-266015000D02*
X299918800Y-271456800D01*
X223784800Y-266015000D02*
X216575000Y-266015000D01*
X225881400Y-263918400D02*
X223784800Y-266015000D01*
X233528400Y-263918400D02*
X225881400Y-263918400D01*
X235625000Y-266015000D02*
X233528400Y-263918400D01*
X345548400Y-208513600D02*
X356486000Y-197576000D01*
X333280100Y-208513600D02*
X345548400Y-208513600D01*
X329957100Y-211836600D02*
X333280100Y-208513600D01*
X328910000Y-211836600D02*
X329957100Y-211836600D01*
X326222800Y-214523800D02*
X328910000Y-211836600D01*
X326222800Y-226291000D02*
X326222800Y-214523800D01*
X327559700Y-227627900D02*
X326222800Y-226291000D01*
X327559700Y-232148600D02*
X327559700Y-227627900D01*
X325184100Y-234524200D02*
X327559700Y-232148600D01*
X325184100Y-265086600D02*
X325184100Y-234524200D01*
X326112500Y-266015000D02*
X325184100Y-265086600D01*
X326112500Y-285065000D02*
X326112500Y-266015000D01*
X370216000Y-169946000D02*
X371616000Y-169946000D01*
X379588300Y-169851100D02*
X379588300Y-170086000D01*
X378502300Y-168765100D02*
X379588300Y-169851100D01*
X374599600Y-168765100D02*
X378502300Y-168765100D01*
X373418700Y-169946000D02*
X374599600Y-168765100D01*
X380841000Y-170086000D02*
X379588300Y-170086000D01*
X371616000Y-169946000D02*
X372766000Y-169946000D01*
X372766000Y-169946000D02*
X373418700Y-169946000D01*
X226965000Y-194116000D02*
X226965000Y-192716000D01*
X226965000Y-192716000D02*
X226965000Y-191616000D01*
X225812200Y-185060100D02*
X231836000Y-179036300D01*
X225812200Y-191415900D02*
X225812200Y-185060100D01*
X226012300Y-191616000D02*
X225812200Y-191415900D01*
X226965000Y-191616000D02*
X226012300Y-191616000D01*
X234534000Y-194116000D02*
X234534000Y-192716000D01*
X234534000Y-191616000D02*
X234534000Y-192716000D01*
X234534000Y-191616000D02*
X233581300Y-191616000D01*
X234606000Y-179750600D02*
X234606000Y-179036300D01*
X233375100Y-180981500D02*
X234606000Y-179750600D01*
X233375100Y-191409800D02*
X233375100Y-180981500D01*
X233581300Y-191616000D02*
X233375100Y-191409800D01*
X242103000Y-191616000D02*
X242103000Y-192716000D01*
X242103000Y-192716000D02*
X242103000Y-194116000D01*
X237376000Y-187841700D02*
X241150300Y-191616000D01*
X237376000Y-179036300D02*
X237376000Y-187841700D01*
X242103000Y-191616000D02*
X241150300Y-191616000D01*
X249672000Y-194116000D02*
X249672000Y-192716000D01*
X249672000Y-192716000D02*
X249672000Y-191616000D01*
X239416200Y-176196300D02*
X238761000Y-176196300D01*
X244416500Y-181196600D02*
X239416200Y-176196300D01*
X244416500Y-185523000D02*
X244416500Y-181196600D01*
X249356800Y-190463300D02*
X244416500Y-185523000D01*
X249672000Y-190463300D02*
X249356800Y-190463300D01*
X249672000Y-191616000D02*
X249672000Y-190463300D01*
X219396000Y-194116000D02*
X219396000Y-192716000D01*
X219396000Y-192716000D02*
X219396000Y-191616000D01*
X220348700Y-189383900D02*
X220348700Y-191616000D01*
X230629800Y-179102800D02*
X220348700Y-189383900D01*
X230629800Y-178555300D02*
X230629800Y-179102800D01*
X231836000Y-177349100D02*
X230629800Y-178555300D01*
X231836000Y-175926400D02*
X231836000Y-177349100D01*
X232738700Y-175023700D02*
X231836000Y-175926400D01*
X236456400Y-175023700D02*
X232738700Y-175023700D01*
X237376000Y-175943300D02*
X236456400Y-175023700D01*
X237376000Y-176483400D02*
X237376000Y-175943300D01*
X238993300Y-178100700D02*
X237376000Y-176483400D01*
X238993300Y-179036300D02*
X238993300Y-178100700D01*
X240146000Y-179036300D02*
X238993300Y-179036300D01*
X219396000Y-191616000D02*
X220348700Y-191616000D01*
X257156000Y-194116000D02*
X257156000Y-192716000D01*
X257156000Y-192716000D02*
X257156000Y-191616000D01*
X258169000Y-190463300D02*
X269596000Y-179036300D01*
X257156000Y-190463300D02*
X258169000Y-190463300D01*
X257156000Y-191616000D02*
X257156000Y-190463300D01*
X264725000Y-194116000D02*
X264725000Y-192716000D01*
X264725000Y-192716000D02*
X264725000Y-191616000D01*
X272366000Y-183975000D02*
X272366000Y-179036300D01*
X265677700Y-190663300D02*
X272366000Y-183975000D01*
X265677700Y-191616000D02*
X265677700Y-190663300D01*
X264725000Y-191616000D02*
X265677700Y-191616000D01*
X272294000Y-192716000D02*
X272294000Y-194116000D01*
X272294000Y-191616000D02*
X272294000Y-192716000D01*
X272294000Y-191616000D02*
X273246700Y-191616000D01*
X274833200Y-190029500D02*
X273246700Y-191616000D01*
X280551300Y-190029500D02*
X274833200Y-190029500D01*
X281055800Y-189525000D02*
X280551300Y-190029500D01*
X281055800Y-185861200D02*
X281055800Y-189525000D01*
X275136000Y-179941400D02*
X281055800Y-185861200D01*
X275136000Y-179036300D02*
X275136000Y-179941400D01*
X279863000Y-192716000D02*
X279863000Y-194116000D01*
X279863000Y-191616000D02*
X279863000Y-192716000D01*
X276521000Y-180463100D02*
X276521000Y-176196300D01*
X281560900Y-185503000D02*
X276521000Y-180463100D01*
X281560900Y-190870800D02*
X281560900Y-185503000D01*
X280815700Y-191616000D02*
X281560900Y-190870800D01*
X279863000Y-191616000D02*
X280815700Y-191616000D01*
X219396000Y-186316000D02*
X219396000Y-187716000D01*
X126913900Y-213806200D02*
X118015400Y-213806200D01*
X129122300Y-211597800D02*
X126913900Y-213806200D01*
X130232500Y-211597800D02*
X129122300Y-211597800D01*
X131752500Y-210077800D02*
X130232500Y-211597800D01*
X131752500Y-207508100D02*
X131752500Y-210077800D01*
X156589400Y-182671200D02*
X131752500Y-207508100D01*
X157043800Y-182671200D02*
X156589400Y-182671200D01*
X118015400Y-216937100D02*
X118015400Y-213806200D01*
X107037500Y-227915000D02*
X118015400Y-216937100D01*
X82461200Y-204866300D02*
X78462500Y-208865000D01*
X86110400Y-204866300D02*
X82461200Y-204866300D01*
X87998600Y-206754500D02*
X86110400Y-204866300D01*
X93204900Y-206754500D02*
X87998600Y-206754500D01*
X95106300Y-204853100D02*
X93204900Y-206754500D01*
X105186600Y-204853100D02*
X95106300Y-204853100D01*
X107088000Y-206754500D02*
X105186600Y-204853100D01*
X116568800Y-206754500D02*
X107088000Y-206754500D01*
X118015400Y-208201100D02*
X116568800Y-206754500D01*
X118015400Y-213806200D02*
X118015400Y-208201100D01*
X257327100Y-225804600D02*
X259437500Y-227915000D01*
X251634400Y-225804600D02*
X257327100Y-225804600D01*
X237885100Y-212055300D02*
X251634400Y-225804600D01*
X237885100Y-211278700D02*
X237885100Y-212055300D01*
X235471400Y-208865000D02*
X237885100Y-211278700D01*
X230862500Y-208865000D02*
X235471400Y-208865000D01*
X300151800Y-244816800D02*
X302300000Y-246965000D01*
X293045800Y-244816800D02*
X300151800Y-244816800D01*
X290904800Y-242675800D02*
X293045800Y-244816800D01*
X285902600Y-242675800D02*
X290904800Y-242675800D01*
X274074600Y-230847800D02*
X285902600Y-242675800D01*
X270494500Y-230847800D02*
X274074600Y-230847800D01*
X267561700Y-227915000D02*
X270494500Y-230847800D01*
X259437500Y-227915000D02*
X267561700Y-227915000D01*
X219396000Y-187716000D02*
X219396000Y-188816000D01*
X222577600Y-199403700D02*
X227472200Y-199403700D01*
X218243200Y-195069300D02*
X222577600Y-199403700D01*
X218243200Y-189016100D02*
X218243200Y-195069300D01*
X218443300Y-188816000D02*
X218243200Y-189016100D01*
X219396000Y-188816000D02*
X218443300Y-188816000D01*
X287432000Y-187716000D02*
X287432000Y-188816000D01*
X287432000Y-186316000D02*
X287432000Y-187716000D01*
X357797000Y-178567000D02*
X359026000Y-179796000D01*
X328277900Y-178567000D02*
X357797000Y-178567000D01*
X326322000Y-180522900D02*
X328277900Y-178567000D01*
X310662500Y-180522900D02*
X326322000Y-180522900D01*
X309547300Y-181638100D02*
X310662500Y-180522900D01*
X305346600Y-181638100D02*
X309547300Y-181638100D01*
X304905700Y-181197200D02*
X305346600Y-181638100D01*
X292550800Y-181197200D02*
X304905700Y-181197200D01*
X287432000Y-186316000D02*
X292550800Y-181197200D01*
X279863000Y-188816000D02*
X279863000Y-187716000D01*
X97512500Y-213752500D02*
X107428700Y-223668700D01*
X97512500Y-208865000D02*
X97512500Y-213752500D01*
X249672000Y-187716000D02*
X249672000Y-188816000D01*
X335727900Y-185898400D02*
X333835500Y-187790800D01*
X340087400Y-185898400D02*
X335727900Y-185898400D01*
X340335000Y-186146000D02*
X340087400Y-185898400D01*
X355216000Y-186146000D02*
X340335000Y-186146000D01*
X359026000Y-182336000D02*
X355216000Y-186146000D01*
X249672000Y-188816000D02*
X250624700Y-188816000D01*
X279863000Y-187716000D02*
X279863000Y-186316000D01*
X250824800Y-189016100D02*
X250624700Y-188816000D01*
X250824800Y-208408800D02*
X250824800Y-189016100D01*
X250368700Y-208408800D02*
X250824800Y-208408800D01*
X249912500Y-208865000D02*
X250368700Y-208408800D01*
X249672000Y-187716000D02*
X249672000Y-186316000D01*
X249672000Y-186316000D02*
X250116900Y-185871100D01*
X273751000Y-180204000D02*
X279863000Y-186316000D01*
X273751000Y-178763300D02*
X273751000Y-180204000D01*
X272844200Y-177856500D02*
X273751000Y-178763300D01*
X264236700Y-177856500D02*
X272844200Y-177856500D01*
X260923400Y-181169800D02*
X264236700Y-177856500D01*
X254818200Y-181169800D02*
X260923400Y-181169800D01*
X250116900Y-185871100D02*
X254818200Y-181169800D01*
X189034400Y-174493100D02*
X180856300Y-182671200D01*
X231135800Y-174493100D02*
X189034400Y-174493100D01*
X231135800Y-174493000D02*
X231135800Y-174493100D01*
X231630500Y-173998300D02*
X231135800Y-174493000D01*
X238244100Y-173998300D02*
X231630500Y-173998300D01*
X250116900Y-185871100D02*
X238244100Y-173998300D01*
X135093500Y-218909000D02*
X126087500Y-227915000D01*
X140883800Y-218909000D02*
X135093500Y-218909000D01*
X147995000Y-211797800D02*
X140883800Y-218909000D01*
X149162600Y-211797800D02*
X147995000Y-211797800D01*
X154243600Y-206716800D02*
X149162600Y-211797800D01*
X156361300Y-206716800D02*
X154243600Y-206716800D01*
X180406900Y-182671200D02*
X156361300Y-206716800D01*
X180856300Y-182671200D02*
X180406900Y-182671200D01*
X276339300Y-225766800D02*
X278487500Y-227915000D01*
X270627000Y-225766800D02*
X276339300Y-225766800D01*
X261571900Y-216711700D02*
X270627000Y-225766800D01*
X261571900Y-215875400D02*
X261571900Y-216711700D01*
X254105300Y-208408800D02*
X261571900Y-215875400D01*
X250824800Y-208408800D02*
X254105300Y-208408800D01*
X287791300Y-227915000D02*
X278487500Y-227915000D01*
X290818500Y-230942200D02*
X287791300Y-227915000D01*
X294543800Y-230942200D02*
X290818500Y-230942200D01*
X296809200Y-233207600D02*
X294543800Y-230942200D01*
X272294000Y-188816000D02*
X272294000Y-187716000D01*
X272294000Y-187716000D02*
X272294000Y-186316000D01*
X242103000Y-187716000D02*
X242103000Y-186316000D01*
X242103000Y-188816000D02*
X242103000Y-187716000D01*
X242103000Y-188816000D02*
X243055700Y-188816000D01*
X243055700Y-189672500D02*
X248247500Y-194864300D01*
X243055700Y-188816000D02*
X243055700Y-189672500D01*
X371356300Y-197206300D02*
X359026000Y-184876000D01*
X371356300Y-211246200D02*
X371356300Y-197206300D01*
X116055900Y-208865000D02*
X116562500Y-208865000D01*
X112523800Y-212397100D02*
X116055900Y-208865000D01*
X112523800Y-219753500D02*
X112523800Y-212397100D01*
X101497300Y-230780000D02*
X112523800Y-219753500D01*
X100452300Y-230780000D02*
X101497300Y-230780000D01*
X99287300Y-231945000D02*
X100452300Y-230780000D01*
X99287300Y-234956800D02*
X99287300Y-231945000D01*
X71318800Y-262925300D02*
X99287300Y-234956800D01*
X71318800Y-266015000D02*
X71318800Y-262925300D01*
X297537500Y-223405100D02*
X297537500Y-227915000D01*
X293133300Y-219000900D02*
X297537500Y-223405100D01*
X292339800Y-219000900D02*
X293133300Y-219000900D01*
X284936700Y-211597800D02*
X292339800Y-219000900D01*
X279749500Y-211597800D02*
X284936700Y-211597800D01*
X277016700Y-208865000D02*
X279749500Y-211597800D01*
X268962500Y-208865000D02*
X277016700Y-208865000D01*
X268962500Y-202482100D02*
X261749100Y-195268700D01*
X268962500Y-208865000D02*
X268962500Y-202482100D01*
X156995600Y-225766800D02*
X152140700Y-220911800D01*
X159948400Y-225766800D02*
X156995600Y-225766800D01*
X178998400Y-244816800D02*
X159948400Y-225766800D01*
X185851800Y-244816800D02*
X178998400Y-244816800D01*
X188000000Y-246965000D02*
X185851800Y-244816800D01*
X152140700Y-220911800D02*
X145137500Y-227915000D01*
X153458700Y-219593700D02*
X153458700Y-214787400D01*
X152140600Y-220911800D02*
X153458700Y-219593700D01*
X152140700Y-220911800D02*
X152140600Y-220911800D01*
X264725000Y-186316000D02*
X264725000Y-187716000D01*
X234534000Y-188816000D02*
X234534000Y-187716000D01*
X234534000Y-186316000D02*
X234534000Y-187716000D01*
X173491300Y-227915000D02*
X164187500Y-227915000D01*
X176518500Y-230942200D02*
X173491300Y-227915000D01*
X180564700Y-230942200D02*
X176518500Y-230942200D01*
X182458600Y-232836100D02*
X180564700Y-230942200D01*
X191898200Y-232836100D02*
X182458600Y-232836100D01*
X193635300Y-231099000D02*
X191898200Y-232836100D01*
X199771500Y-231099000D02*
X193635300Y-231099000D01*
X200360000Y-231687500D02*
X199771500Y-231099000D01*
X203706000Y-231687500D02*
X200360000Y-231687500D01*
X207050000Y-235031500D02*
X203706000Y-231687500D01*
X207050000Y-246965000D02*
X207050000Y-235031500D01*
X203788600Y-216367400D02*
X203249500Y-215828300D01*
X203788600Y-229029000D02*
X203788600Y-216367400D01*
X203706000Y-229111600D02*
X203788600Y-229029000D01*
X203706000Y-231687500D02*
X203706000Y-229111600D01*
X361894600Y-190284600D02*
X359026000Y-187416000D01*
X361894600Y-209204200D02*
X361894600Y-190284600D01*
X371356300Y-218665900D02*
X361894600Y-209204200D01*
X371356300Y-235058700D02*
X371356300Y-218665900D01*
X107172200Y-261117800D02*
X102275000Y-266015000D01*
X107172200Y-250288400D02*
X107172200Y-261117800D01*
X110347200Y-247113400D02*
X107172200Y-250288400D01*
X110347200Y-239934900D02*
X110347200Y-247113400D01*
X119434300Y-230847800D02*
X110347200Y-239934900D01*
X120451100Y-230847800D02*
X119434300Y-230847800D01*
X135612500Y-215686400D02*
X120451100Y-230847800D01*
X137431200Y-215686400D02*
X135612500Y-215686400D01*
X139870400Y-218125600D02*
X137431200Y-215686400D01*
X135612500Y-215686400D02*
X135612500Y-208865000D01*
X317866300Y-224431300D02*
X321350000Y-227915000D01*
X307416100Y-224431300D02*
X317866300Y-224431300D01*
X294842200Y-211857400D02*
X307416100Y-224431300D01*
X294842200Y-211048200D02*
X294842200Y-211857400D01*
X292659000Y-208865000D02*
X294842200Y-211048200D01*
X288012500Y-208865000D02*
X292659000Y-208865000D01*
X264725000Y-187716000D02*
X264725000Y-188816000D01*
X264725000Y-188816000D02*
X263772300Y-188816000D01*
X287356200Y-208865000D02*
X288012500Y-208865000D01*
X285241300Y-206750100D02*
X287356200Y-208865000D01*
X278791400Y-206750100D02*
X285241300Y-206750100D01*
X276617400Y-204576100D02*
X278791400Y-206750100D01*
X273027500Y-204576100D02*
X276617400Y-204576100D01*
X263524100Y-195072700D02*
X273027500Y-204576100D01*
X263524100Y-189064200D02*
X263524100Y-195072700D01*
X263772300Y-188816000D02*
X263524100Y-189064200D01*
X257156000Y-186316000D02*
X257156000Y-187716000D01*
X226965000Y-187716000D02*
X226965000Y-186316000D01*
X226965000Y-187716000D02*
X226965000Y-188816000D01*
X257156000Y-188816000D02*
X257156000Y-187716000D01*
X228545800Y-189444100D02*
X227917700Y-188816000D01*
X228545800Y-210750700D02*
X228545800Y-189444100D01*
X228346700Y-210949800D02*
X228545800Y-210750700D01*
X228346700Y-213966400D02*
X228346700Y-210949800D01*
X229149100Y-214768800D02*
X228346700Y-213966400D01*
X229149100Y-227106300D02*
X229149100Y-214768800D01*
X228887600Y-227367800D02*
X229149100Y-227106300D01*
X228887600Y-244177400D02*
X228887600Y-227367800D01*
X226100000Y-246965000D02*
X228887600Y-244177400D01*
X226965000Y-188816000D02*
X227917700Y-188816000D01*
X316587500Y-208865000D02*
X316587500Y-207114400D01*
X316587500Y-207114400D02*
X299017100Y-189544000D01*
X360257900Y-197019200D02*
X359544600Y-196305900D01*
X360257900Y-231379600D02*
X360257900Y-197019200D01*
X371356300Y-242478000D02*
X360257900Y-231379600D01*
X371356300Y-258871200D02*
X371356300Y-242478000D01*
X360783100Y-195067400D02*
X359544600Y-196305900D01*
X360783100Y-191713100D02*
X360783100Y-195067400D01*
X359026000Y-189956000D02*
X360783100Y-191713100D01*
X324832200Y-198869700D02*
X316587500Y-207114400D01*
X349397800Y-198869700D02*
X324832200Y-198869700D01*
X350136000Y-198131500D02*
X349397800Y-198869700D01*
X350136000Y-197056000D02*
X350136000Y-198131500D01*
X350886100Y-196305900D02*
X350136000Y-197056000D01*
X359544600Y-196305900D02*
X350886100Y-196305900D01*
X154226600Y-208865000D02*
X154662500Y-208865000D01*
X152146000Y-210945600D02*
X154226600Y-208865000D01*
X152146000Y-214034600D02*
X152146000Y-210945600D01*
X161390500Y-214034600D02*
X152146000Y-214034600D01*
X173160400Y-225804500D02*
X161390500Y-214034600D01*
X181127000Y-225804500D02*
X173160400Y-225804500D01*
X183237500Y-227915000D02*
X181127000Y-225804500D01*
X121325000Y-259512600D02*
X121325000Y-266015000D01*
X133091900Y-247745700D02*
X121325000Y-259512600D01*
X133091900Y-245141600D02*
X133091900Y-247745700D01*
X140287000Y-237946500D02*
X133091900Y-245141600D01*
X140287000Y-230694400D02*
X140287000Y-237946500D01*
X152146000Y-218835400D02*
X140287000Y-230694400D01*
X152146000Y-214034600D02*
X152146000Y-218835400D01*
X254675000Y-260906600D02*
X254675000Y-266015000D01*
X245150000Y-251381600D02*
X254675000Y-260906600D01*
X245150000Y-246965000D02*
X245150000Y-251381600D01*
X92750000Y-246965000D02*
X92750000Y-274059900D01*
X92750000Y-274059900D02*
X92750000Y-285065000D01*
X139162300Y-266015000D02*
X140375000Y-266015000D01*
X135935100Y-269242200D02*
X139162300Y-266015000D01*
X131417800Y-269242200D02*
X135935100Y-269242200D01*
X126600100Y-274059900D02*
X131417800Y-269242200D01*
X92750000Y-274059900D02*
X126600100Y-274059900D01*
X178321400Y-208865000D02*
X173712500Y-208865000D01*
X180735100Y-211278700D02*
X178321400Y-208865000D01*
X180735100Y-212079000D02*
X180735100Y-211278700D01*
X194460700Y-225804600D02*
X180735100Y-212079000D01*
X200177100Y-225804600D02*
X194460700Y-225804600D01*
X202287500Y-227915000D02*
X200177100Y-225804600D01*
X328336800Y-182671200D02*
X323731300Y-182671200D01*
X330248800Y-184583200D02*
X328336800Y-182671200D01*
X330248800Y-185328500D02*
X330248800Y-184583200D01*
X336146400Y-191226100D02*
X330248800Y-185328500D01*
X357756100Y-191226100D02*
X336146400Y-191226100D01*
X359026000Y-192496000D02*
X357756100Y-191226100D01*
X210687000Y-246152300D02*
X210687000Y-237326100D01*
X207001600Y-249837700D02*
X210687000Y-246152300D01*
X207001600Y-250057500D02*
X207001600Y-249837700D01*
X200889700Y-256169400D02*
X207001600Y-250057500D01*
X186266100Y-256169400D02*
X200889700Y-256169400D01*
X173487700Y-268947800D02*
X186266100Y-256169400D01*
X171729700Y-268947800D02*
X173487700Y-268947800D01*
X169717700Y-270959800D02*
X171729700Y-268947800D01*
X158669800Y-270959800D02*
X169717700Y-270959800D01*
X156752200Y-269042200D02*
X158669800Y-270959800D01*
X152706000Y-269042200D02*
X156752200Y-269042200D01*
X149678800Y-266015000D02*
X152706000Y-269042200D01*
X140375000Y-266015000D02*
X149678800Y-266015000D01*
X273725000Y-260925900D02*
X273725000Y-266015000D01*
X264200000Y-251400900D02*
X273725000Y-260925900D01*
X264200000Y-246965000D02*
X264200000Y-251400900D01*
X221337500Y-227915000D02*
X216366100Y-227915000D01*
X216366100Y-226554700D02*
X216366100Y-227915000D01*
X215615900Y-225804500D02*
X216366100Y-226554700D01*
X213560300Y-225804500D02*
X215615900Y-225804500D01*
X204459700Y-216703900D02*
X213560300Y-225804500D01*
X204459700Y-215964700D02*
X204459700Y-216703900D01*
X197360000Y-208865000D02*
X204459700Y-215964700D01*
X192762500Y-208865000D02*
X197360000Y-208865000D01*
X370421500Y-183606000D02*
X371356300Y-182671200D01*
X358470500Y-183606000D02*
X370421500Y-183606000D01*
X357769000Y-184307500D02*
X358470500Y-183606000D01*
X357769000Y-190480800D02*
X357769000Y-184307500D01*
X358514200Y-191226000D02*
X357769000Y-190480800D01*
X359581500Y-191226000D02*
X358514200Y-191226000D01*
X360258100Y-191902600D02*
X359581500Y-191226000D01*
X360258100Y-193059100D02*
X360258100Y-191902600D01*
X358653600Y-194663600D02*
X360258100Y-193059100D01*
X358653600Y-194663600D02*
X359026000Y-195036000D01*
X111800000Y-249073900D02*
X111800000Y-246965000D01*
X119487200Y-256761100D02*
X111800000Y-249073900D01*
X119487200Y-266231800D02*
X119487200Y-256761100D01*
X120761500Y-267506100D02*
X119487200Y-266231800D01*
X122449000Y-267506100D02*
X120761500Y-267506100D01*
X124852100Y-265103000D02*
X122449000Y-267506100D01*
X129446800Y-265103000D02*
X124852100Y-265103000D01*
X130683000Y-263866800D02*
X129446800Y-265103000D01*
X138472700Y-263866800D02*
X130683000Y-263866800D01*
X140329400Y-262010100D02*
X138472700Y-263866800D01*
X148504300Y-262010100D02*
X140329400Y-262010100D01*
X150361000Y-263866800D02*
X148504300Y-262010100D01*
X157276800Y-263866800D02*
X150361000Y-263866800D01*
X159425000Y-266015000D02*
X157276800Y-263866800D01*
X167742300Y-266015000D02*
X159425000Y-266015000D01*
X169890500Y-263866800D02*
X167742300Y-266015000D01*
X176572700Y-263866800D02*
X169890500Y-263866800D01*
X185441700Y-254997800D02*
X176572700Y-263866800D01*
X195204700Y-254997800D02*
X185441700Y-254997800D01*
X200304700Y-249897800D02*
X195204700Y-254997800D01*
X202990000Y-249897800D02*
X200304700Y-249897800D01*
X204607500Y-248280300D02*
X202990000Y-249897800D01*
X206310700Y-248280300D02*
X204607500Y-248280300D01*
X206486500Y-248456100D02*
X206310700Y-248280300D01*
X207668700Y-248456100D02*
X206486500Y-248456100D01*
X209898700Y-246226100D02*
X207668700Y-248456100D01*
X209898700Y-235541200D02*
X209898700Y-246226100D01*
X214592100Y-230847800D02*
X209898700Y-235541200D01*
X215683500Y-230847800D02*
X214592100Y-230847800D01*
X216366100Y-230165200D02*
X215683500Y-230847800D01*
X216366100Y-227915000D02*
X216366100Y-230165200D01*
X292909700Y-198313700D02*
X285583600Y-205639800D01*
X292909700Y-194573100D02*
X292909700Y-198313700D01*
X300027100Y-187455700D02*
X292909700Y-194573100D01*
X299918800Y-187347400D02*
X300027100Y-187455700D01*
X299918800Y-182671200D02*
X299918800Y-187347400D01*
X357756000Y-193766000D02*
X358653600Y-194663600D01*
X327920300Y-193766000D02*
X357756000Y-193766000D01*
X320052700Y-185898400D02*
X327920300Y-193766000D01*
X310011600Y-185898400D02*
X320052700Y-185898400D01*
X308346000Y-187564000D02*
X310011600Y-185898400D01*
X300135400Y-187564000D02*
X308346000Y-187564000D01*
X300027100Y-187455700D02*
X300135400Y-187564000D01*
X63010600Y-216933600D02*
X71312600Y-216933600D01*
X57031300Y-210954300D02*
X63010600Y-216933600D01*
X57031300Y-208865000D02*
X57031300Y-210954300D01*
X102595000Y-182671200D02*
X118943800Y-182671200D01*
X71312600Y-213953600D02*
X102595000Y-182671200D01*
X71312600Y-216933600D02*
X71312600Y-213953600D01*
X281101800Y-244816800D02*
X283250000Y-246965000D01*
X273995800Y-244816800D02*
X281101800Y-244816800D01*
X271854800Y-242675800D02*
X273995800Y-244816800D01*
X267461000Y-242675800D02*
X271854800Y-242675800D01*
X255433000Y-230647800D02*
X267461000Y-242675800D01*
X251189600Y-230647800D02*
X255433000Y-230647800D01*
X248456800Y-227915000D02*
X251189600Y-230647800D01*
X240387500Y-227915000D02*
X248456800Y-227915000D01*
X82294000Y-227915000D02*
X87987500Y-227915000D01*
X71312600Y-216933600D02*
X82294000Y-227915000D01*
X183792800Y-273416400D02*
X186387200Y-273416400D01*
X178475000Y-268098600D02*
X183792800Y-273416400D01*
X178475000Y-266015000D02*
X178475000Y-268098600D01*
X190855800Y-268947800D02*
X186387200Y-273416400D01*
X192447300Y-268947800D02*
X190855800Y-268947800D01*
X199401600Y-261993500D02*
X192447300Y-268947800D01*
X201699000Y-261993500D02*
X199401600Y-261993500D01*
X216023700Y-247668800D02*
X201699000Y-261993500D01*
X216023700Y-236956300D02*
X216023700Y-247668800D01*
X222790400Y-230189600D02*
X216023700Y-236956300D01*
X222790400Y-222595000D02*
X222790400Y-230189600D01*
X186387200Y-276308400D02*
X195143800Y-285065000D01*
X186387200Y-273416400D02*
X186387200Y-276308400D01*
X211812500Y-211617100D02*
X222790400Y-222595000D01*
X211812500Y-208865000D02*
X211812500Y-211617100D01*
X248475000Y-271495000D02*
X248475000Y-272895000D01*
X312768800Y-187051200D02*
X312768800Y-188151200D01*
X207993800Y-290545000D02*
X207993800Y-289445000D01*
X207993800Y-291945000D02*
X207993800Y-290545000D01*
X105600000Y-289445000D02*
X105600000Y-290545000D01*
X105600000Y-291945000D02*
X105600000Y-290545000D01*
X248475000Y-271495000D02*
X248475000Y-270395000D01*
X248475000Y-270395000D02*
X247522300Y-270395000D01*
X231694900Y-174998300D02*
X231942200Y-174751000D01*
X229073200Y-174998300D02*
X231694900Y-174998300D01*
X217706700Y-186364800D02*
X229073200Y-174998300D01*
X217706700Y-202619500D02*
X217706700Y-186364800D01*
X223467400Y-208380200D02*
X217706700Y-202619500D01*
X223467400Y-219381600D02*
X223467400Y-208380200D01*
X226100000Y-222014200D02*
X223467400Y-219381600D01*
X226100000Y-226679700D02*
X226100000Y-222014200D01*
X227524700Y-228104400D02*
X226100000Y-226679700D01*
X227524700Y-233336400D02*
X227524700Y-228104400D01*
X224606800Y-236254300D02*
X227524700Y-233336400D01*
X224606800Y-247526400D02*
X224606800Y-236254300D01*
X227557200Y-250476800D02*
X224606800Y-247526400D01*
X227557200Y-251139400D02*
X227557200Y-250476800D01*
X243867700Y-267449900D02*
X227557200Y-251139400D01*
X221872600Y-289445000D02*
X243867700Y-267449900D01*
X207993800Y-289445000D02*
X221872600Y-289445000D01*
X247522300Y-269831900D02*
X247522300Y-270395000D01*
X245026000Y-267335600D02*
X247522300Y-269831900D01*
X243982000Y-267335600D02*
X245026000Y-267335600D01*
X243867700Y-267449900D02*
X243982000Y-267335600D01*
X312768800Y-189551200D02*
X312768800Y-188151200D01*
X347595900Y-196305900D02*
X348866000Y-197576000D01*
X320676200Y-196305900D02*
X347595900Y-196305900D01*
X313921500Y-189551200D02*
X320676200Y-196305900D01*
X312768800Y-189551200D02*
X313921500Y-189551200D01*
X143700000Y-252445000D02*
X143700000Y-251345000D01*
X143700000Y-253845000D02*
X143700000Y-252445000D01*
X310387500Y-232295000D02*
X310387500Y-233395000D01*
X358012500Y-291945000D02*
X358012500Y-290545000D01*
X358012500Y-290545000D02*
X358012500Y-289445000D01*
X124650000Y-253845000D02*
X124650000Y-252445000D01*
X124650000Y-251345000D02*
X124650000Y-252445000D01*
X77025000Y-253845000D02*
X77025000Y-252445000D01*
X77025000Y-251345000D02*
X77025000Y-252445000D01*
X105600000Y-251345000D02*
X105600000Y-252445000D01*
X105600000Y-252445000D02*
X105600000Y-253845000D01*
X272287500Y-232295000D02*
X272287500Y-233395000D01*
X272287500Y-233395000D02*
X272287500Y-234795000D01*
X310387500Y-233395000D02*
X310387500Y-234795000D01*
X291337500Y-233395000D02*
X291337500Y-232295000D01*
X146005400Y-254997700D02*
X144852700Y-253845000D01*
X174557100Y-254997700D02*
X146005400Y-254997700D01*
X179676500Y-249878300D02*
X174557100Y-254997700D01*
X143700000Y-253845000D02*
X144852700Y-253845000D01*
X334200000Y-232295000D02*
X334200000Y-233395000D01*
X334200000Y-232295000D02*
X335152700Y-232295000D01*
X291337500Y-233395000D02*
X291337500Y-234095000D01*
X291337500Y-234095000D02*
X291337500Y-234795000D01*
X308534800Y-234095000D02*
X309234800Y-234795000D01*
X291337500Y-234095000D02*
X308534800Y-234095000D01*
X310387500Y-234795000D02*
X309234800Y-234795000D01*
X334200000Y-233395000D02*
X334200000Y-234795000D01*
X356365300Y-288750500D02*
X357059800Y-289445000D01*
X356365300Y-258113000D02*
X356365300Y-288750500D01*
X334200000Y-235947700D02*
X356365300Y-258113000D01*
X334200000Y-234795000D02*
X334200000Y-235947700D01*
X358012500Y-289445000D02*
X357059800Y-289445000D01*
X336429700Y-231018000D02*
X336429700Y-209302000D01*
X335152700Y-232295000D02*
X336429700Y-231018000D01*
X215137500Y-233395000D02*
X215137500Y-232295000D01*
X215137500Y-234795000D02*
X215137500Y-233395000D01*
X157987500Y-234795000D02*
X157987500Y-233395000D01*
X157987500Y-232295000D02*
X157987500Y-233395000D01*
X253237500Y-232295000D02*
X253237500Y-233395000D01*
X119887500Y-233395000D02*
X119887500Y-232295000D01*
X119887500Y-234795000D02*
X119887500Y-233395000D01*
X319912500Y-290545000D02*
X319912500Y-289445000D01*
X196087500Y-232295000D02*
X196087500Y-233395000D01*
X196087500Y-233395000D02*
X196087500Y-234795000D01*
X138937500Y-232295000D02*
X138937500Y-233395000D01*
X138937500Y-233395000D02*
X138937500Y-234795000D01*
X234187500Y-233395000D02*
X234187500Y-232295000D01*
X234187500Y-234795000D02*
X234187500Y-233395000D01*
X177037500Y-232295000D02*
X177037500Y-233395000D01*
X196087500Y-234795000D02*
X194934800Y-234795000D01*
X194532100Y-235197700D02*
X177037500Y-235197700D01*
X194934800Y-234795000D02*
X194532100Y-235197700D01*
X177037500Y-233395000D02*
X177037500Y-234795000D01*
X177037500Y-234795000D02*
X177037500Y-235197700D01*
X276491000Y-249945000D02*
X278230500Y-249945000D01*
X274160000Y-252276000D02*
X276491000Y-249945000D01*
X303862400Y-292347700D02*
X319912500Y-292347700D01*
X283030100Y-271515400D02*
X303862400Y-292347700D01*
X283030100Y-270671100D02*
X283030100Y-271515400D01*
X275177800Y-262818800D02*
X283030100Y-270671100D01*
X275177800Y-253293800D02*
X275177800Y-262818800D01*
X274160000Y-252276000D02*
X275177800Y-253293800D01*
X319912500Y-290545000D02*
X319912500Y-291945000D01*
X319912500Y-291945000D02*
X319912500Y-292347700D01*
X257081700Y-235197700D02*
X253237500Y-235197700D01*
X274160000Y-252276000D02*
X257081700Y-235197700D01*
X253237500Y-233395000D02*
X253237500Y-234795000D01*
X253237500Y-234795000D02*
X253237500Y-235197700D01*
X338962500Y-291945000D02*
X338962500Y-290545000D01*
X262762500Y-214345000D02*
X262762500Y-213245000D01*
X74643800Y-232295000D02*
X74643800Y-233395000D01*
X74643800Y-233395000D02*
X74643800Y-234795000D01*
X100837500Y-232295000D02*
X100837500Y-233395000D01*
X100837500Y-233395000D02*
X100837500Y-234795000D01*
X329437500Y-213245000D02*
X329437500Y-214345000D01*
X300862500Y-215745000D02*
X300862500Y-214345000D01*
X243712500Y-215745000D02*
X243712500Y-214345000D01*
X243712500Y-214345000D02*
X243712500Y-213245000D01*
X262762500Y-214345000D02*
X262762500Y-215745000D01*
X329437500Y-215745000D02*
X329437500Y-214345000D01*
X281812500Y-214345000D02*
X281812500Y-213245000D01*
X338962500Y-290545000D02*
X338962500Y-289445000D01*
X338962500Y-289445000D02*
X338009800Y-289445000D01*
X264317900Y-216147700D02*
X281812500Y-216147700D01*
X263915200Y-215745000D02*
X264317900Y-216147700D01*
X281812500Y-214345000D02*
X281812500Y-215745000D01*
X281812500Y-215745000D02*
X281812500Y-216147700D01*
X262762500Y-215745000D02*
X263915200Y-215745000D01*
X300862500Y-214345000D02*
X300862500Y-213245000D01*
X338009800Y-288492300D02*
X338009800Y-289445000D01*
X336051500Y-286534000D02*
X338009800Y-288492300D01*
X336051500Y-278240500D02*
X336051500Y-286534000D01*
X336210200Y-278081800D02*
X336051500Y-278240500D01*
X336210200Y-263100700D02*
X336210200Y-278081800D01*
X333848400Y-260738900D02*
X336210200Y-263100700D01*
X333848400Y-248302200D02*
X333848400Y-260738900D01*
X331602100Y-246055900D02*
X333848400Y-248302200D01*
X331602100Y-228561700D02*
X331602100Y-246055900D01*
X329437500Y-226397100D02*
X331602100Y-228561700D01*
X329437500Y-215745000D02*
X329437500Y-226397100D01*
X336581300Y-189551200D02*
X336581300Y-188151200D01*
X336581300Y-188151200D02*
X336581300Y-187051200D01*
X186562500Y-213245000D02*
X186562500Y-214345000D01*
X186562500Y-215745000D02*
X186562500Y-214345000D01*
X129412500Y-215745000D02*
X129412500Y-214345000D01*
X129412500Y-214345000D02*
X129412500Y-213245000D01*
X205612500Y-213245000D02*
X205612500Y-214345000D01*
X148462500Y-213245000D02*
X148462500Y-214345000D01*
X148462500Y-214345000D02*
X148462500Y-215745000D01*
X91312500Y-215745000D02*
X91312500Y-214345000D01*
X91312500Y-213245000D02*
X91312500Y-214345000D01*
X224662500Y-215745000D02*
X224662500Y-214345000D01*
X224662500Y-214345000D02*
X224662500Y-213245000D01*
X110362500Y-215745000D02*
X110362500Y-214345000D01*
X338962500Y-271495000D02*
X338962500Y-272895000D01*
X110362500Y-213245000D02*
X110362500Y-214345000D01*
X338962500Y-271495000D02*
X338962500Y-270395000D01*
X205612500Y-215745000D02*
X205612500Y-214345000D01*
X167512500Y-215745000D02*
X167512500Y-214345000D01*
X167512500Y-214345000D02*
X167512500Y-213245000D01*
X338962500Y-270395000D02*
X338009800Y-270395000D01*
X330928800Y-216354000D02*
X330928800Y-211954000D01*
X329942700Y-217340100D02*
X330928800Y-216354000D01*
X329942700Y-221997800D02*
X329942700Y-217340100D01*
X332131900Y-224187000D02*
X329942700Y-221997800D01*
X332131900Y-243422000D02*
X332131900Y-224187000D01*
X334424900Y-245715000D02*
X332131900Y-243422000D01*
X334424900Y-254997800D02*
X334424900Y-245715000D01*
X337315300Y-257888200D02*
X334424900Y-254997800D01*
X337315300Y-269700500D02*
X337315300Y-257888200D01*
X338009800Y-270395000D02*
X337315300Y-269700500D01*
X69881300Y-214345000D02*
X69881300Y-213245000D01*
X69881300Y-215745000D02*
X69881300Y-214345000D01*
X384206300Y-287063700D02*
X384206300Y-288163700D01*
X312768800Y-271495000D02*
X312768800Y-270395000D01*
X312768800Y-272895000D02*
X312768800Y-271495000D01*
X169893800Y-187051200D02*
X169893800Y-188151200D01*
X169893800Y-189551200D02*
X169893800Y-188151200D01*
X193706300Y-189551200D02*
X193706300Y-188151200D01*
X193706300Y-188151200D02*
X193706300Y-187051200D01*
X384206300Y-216726200D02*
X384206300Y-215626200D01*
X384206300Y-216726200D02*
X384206300Y-218126200D01*
X385359100Y-239238600D02*
X385159000Y-239438700D01*
X385359100Y-220431700D02*
X385359100Y-239238600D01*
X384206300Y-219278900D02*
X385359100Y-220431700D01*
X384206300Y-218126200D02*
X384206300Y-219278900D01*
X384206300Y-239438700D02*
X385159000Y-239438700D01*
X384206300Y-240538700D02*
X384206300Y-239438700D01*
X384206300Y-187601200D02*
X384206300Y-187051200D01*
X384206300Y-187601200D02*
X384206300Y-188151200D01*
X384206300Y-188151200D02*
X384206300Y-189551200D01*
X383253600Y-186455800D02*
X383253600Y-187051200D01*
X379998700Y-183200900D02*
X383253600Y-186455800D01*
X378506500Y-183200900D02*
X379998700Y-183200900D01*
X376371700Y-181066100D02*
X378506500Y-183200900D01*
X347595900Y-181066100D02*
X376371700Y-181066100D01*
X343786000Y-184876000D02*
X347595900Y-181066100D01*
X384206300Y-187051200D02*
X383253600Y-187051200D01*
X384206300Y-265751200D02*
X384206300Y-264351200D01*
X384206300Y-264351200D02*
X384206300Y-263251200D01*
X384206300Y-288163700D02*
X384206300Y-289563700D01*
X384206300Y-263251200D02*
X383253600Y-263251200D01*
X384206300Y-240538700D02*
X384206300Y-241938700D01*
X383022400Y-263020000D02*
X383253600Y-263251200D01*
X383022400Y-244275300D02*
X383022400Y-263020000D01*
X384206300Y-243091400D02*
X383022400Y-244275300D01*
X384206300Y-241938700D02*
X384206300Y-243091400D01*
M02*
