M48
; DRILL file {KiCad 6.0.9-8da3e8f707~117~ubuntu22.04.1} date Sat 17 Dec 2022 12:05:40 PM EST
; FORMAT={-:-/ absolute / inch / decimal}
; #@! TF.CreationDate,2022-12-17T12:05:40-05:00
; #@! TF.GenerationSoftware,Kicad,Pcbnew,6.0.9-8da3e8f707~117~ubuntu22.04.1
; #@! TF.FileFunction,NonPlated,1,2,NPTH
FMAT,2
INCH
; #@! TA.AperFunction,NonPlated,NPTH,ComponentDrill
T1C0.0669
; #@! TA.AperFunction,NonPlated,NPTH,ComponentDrill
T2C0.0866
; #@! TA.AperFunction,NonPlated,NPTH,ComponentDrill
T3C0.1201
; #@! TA.AperFunction,NonPlated,NPTH,ComponentDrill
T4C0.1260
; #@! TA.AperFunction,NonPlated,NPTH,ComponentDrill
T5C0.1575
%
G90
G05
T1
X2.1953Y-8.323
X2.3828Y-9.073
X2.4766Y-9.823
X2.5953Y-8.323
X2.7578Y-10.573
X2.7828Y-9.073
X2.8766Y-9.823
X3.0391Y-8.323
X3.1578Y-10.573
X3.4141Y-9.073
X3.4391Y-8.323
X3.6016Y-9.823
X3.6016Y-11.323
X3.7891Y-8.323
X3.8141Y-9.073
X3.9766Y-10.573
X4.0016Y-9.823
X4.0016Y-11.323
X4.1641Y-9.073
X4.1891Y-8.323
X4.3516Y-9.823
X4.3766Y-10.573
X4.5391Y-8.323
X4.5641Y-9.073
X4.6328Y-7.2918
X4.7266Y-10.573
X4.7516Y-9.823
X4.9141Y-9.073
X4.9391Y-8.323
X5.0328Y-7.2918
X5.1016Y-9.823
X5.1266Y-10.573
X5.2891Y-8.323
X5.3141Y-9.073
X5.4766Y-10.573
X5.5016Y-9.823
X5.6641Y-9.073
X5.6891Y-8.323
X5.8516Y-9.823
X5.8766Y-10.573
X6.0391Y-8.323
X6.0641Y-9.073
X6.1328Y-7.2918
X6.2266Y-10.573
X6.2516Y-9.823
X6.4141Y-9.073
X6.4391Y-8.323
X6.5328Y-7.2918
X6.6016Y-9.823
X6.6266Y-10.573
X6.7891Y-8.323
X6.8141Y-9.073
X6.9766Y-10.573
X7.0016Y-9.823
X7.0703Y-7.2918
X7.1641Y-9.073
X7.1891Y-8.323
X7.3516Y-9.823
X7.3766Y-10.573
X7.4703Y-7.2918
X7.5391Y-8.323
X7.5641Y-9.073
X7.6328Y-11.323
X7.7266Y-10.573
X7.7516Y-9.823
X7.9141Y-9.073
X7.9391Y-8.323
X8.0328Y-11.323
X8.1016Y-9.823
X8.1266Y-10.573
X8.2891Y-8.323
X8.3141Y-9.073
X8.4766Y-10.573
X8.5016Y-9.823
X8.6641Y-9.073
X8.6891Y-8.323
X8.8516Y-9.823
X8.8766Y-10.573
X9.0391Y-8.323
X9.0641Y-9.073
X9.2266Y-10.573
X9.2516Y-9.823
X9.4141Y-9.073
X9.4391Y-8.323
X9.6016Y-9.823
X9.6266Y-10.573
X9.7891Y-8.323
X9.8141Y-9.073
X9.9766Y-10.573
X10.0016Y-9.823
X10.1641Y-9.073
X10.1891Y-8.323
X10.3516Y-9.823
X10.3766Y-10.573
X10.5391Y-8.323
X10.5641Y-9.073
X10.7266Y-10.573
X10.7516Y-9.823
X10.9141Y-9.073
X10.9391Y-8.323
X11.1016Y-9.823
X11.1266Y-10.573
X11.2891Y-8.323
X11.3141Y-9.073
X11.5016Y-9.823
X11.6641Y-9.073
X11.6891Y-8.323
X11.7578Y-7.2918
X11.7578Y-10.573
X11.8516Y-9.823
X12.0391Y-11.323
X12.0641Y-9.073
X12.1578Y-7.2918
X12.1578Y-10.573
X12.2516Y-9.823
X12.4141Y-8.323
X12.4391Y-11.323
X12.6016Y-9.073
X12.6953Y-7.2918
X12.6953Y-9.823
X12.7891Y-10.573
X12.7891Y-11.323
X12.8141Y-8.323
X13.0016Y-9.073
X13.0953Y-7.2918
X13.0953Y-9.823
X13.1891Y-10.573
X13.1891Y-11.323
X13.5391Y-11.323
X13.9391Y-11.323
X14.5703Y-7.2918
X14.5703Y-8.4168
X14.5703Y-9.3543
X14.5703Y-10.2918
X14.5703Y-11.2293
X14.9703Y-7.2918
X14.9703Y-8.4168
X14.9703Y-9.3543
X14.9703Y-10.2918
X14.9703Y-11.2293
T2
X1.9266Y-8.0071
X1.9266Y-8.7571
X1.9266Y-9.5071
X2.1141Y-10.5327
X2.8641Y-8.0071
X3.1453Y-11.0071
X3.2391Y-8.7571
X3.4266Y-9.5071
X3.6141Y-8.0071
X3.8016Y-10.2571
X3.9891Y-8.7571
X4.1766Y-9.5071
X4.3641Y-8.0071
X4.4578Y-6.9758
X4.5516Y-10.2571
X4.7391Y-8.7571
X4.9266Y-9.5071
X5.1141Y-8.0071
X5.3016Y-10.2571
X5.4891Y-8.7571
X5.4891Y-11.0071
X5.6766Y-9.5071
X5.8641Y-8.0071
X5.9578Y-6.9758
X6.0516Y-10.2571
X6.2391Y-8.7571
X6.4266Y-9.5071
X6.6141Y-8.0071
X6.8016Y-10.2571
X6.8953Y-6.9758
X6.9891Y-8.7571
X7.1766Y-9.5071
X7.3641Y-8.0071
X7.5516Y-10.2571
X7.7391Y-8.7571
X7.9266Y-9.5071
X8.1141Y-8.0071
X8.3016Y-10.2571
X8.4891Y-8.7571
X8.6766Y-9.5071
X8.8641Y-8.0071
X9.0516Y-10.2571
X9.2391Y-8.7571
X9.4266Y-9.5071
X9.6141Y-8.0071
X9.8016Y-10.2571
X9.9891Y-8.7571
X10.1766Y-9.5071
X10.3641Y-8.0071
X10.5516Y-10.2571
X10.7391Y-8.7571
X10.9266Y-9.5071
X11.1141Y-8.0071
X11.3016Y-10.2571
X11.4891Y-8.7571
X11.5828Y-6.9758
X11.6766Y-9.5071
X11.8641Y-8.0071
X11.8641Y-11.0071
X12.3966Y-9.0327
X12.4266Y-9.5071
X12.5203Y-6.9758
X12.6141Y-10.2571
X12.6141Y-11.0071
X13.3641Y-11.0071
X14.3953Y-6.9758
X14.3953Y-8.1008
X14.3953Y-9.0383
X14.3953Y-9.9758
X14.3953Y-10.9133
T3
X2.2081Y-9.5474
X2.4893Y-10.2974
X3.1451Y-9.5474
X3.4263Y-10.2974
X5.8643Y-11.0474
X9.8013Y-11.0474
X12.1456Y-8.0474
X13.0826Y-8.0474
T4
X1.7297Y-6.7199
X1.7297Y-11.8949
X15.3422Y-6.7199
X15.3422Y-11.8949
T5
X2.2081Y-10.1474
X2.3953Y-8.323
X2.4893Y-10.8974
X2.5828Y-9.073
X2.6766Y-9.823
X2.9578Y-10.573
X3.1451Y-10.1474
X3.2391Y-8.323
X3.4263Y-10.8974
X3.6141Y-9.073
X3.8016Y-9.823
X3.8016Y-11.323
X3.9891Y-8.323
X4.1766Y-10.573
X4.3641Y-9.073
X4.5516Y-9.823
X4.7391Y-8.323
X4.8328Y-7.2918
X4.9266Y-10.573
X5.1141Y-9.073
X5.3016Y-9.823
X5.4891Y-8.323
X5.6766Y-10.573
X5.8641Y-9.073
X5.8643Y-11.6474
X6.0516Y-9.823
X6.2391Y-8.323
X6.3328Y-7.2918
X6.4266Y-10.573
X6.6141Y-9.073
X6.8016Y-9.823
X6.9891Y-8.323
X7.1766Y-10.573
X7.2703Y-7.2918
X7.3641Y-9.073
X7.5516Y-9.823
X7.7391Y-8.323
X7.8328Y-11.323
X7.9266Y-10.573
X8.1141Y-9.073
X8.3016Y-9.823
X8.4891Y-8.323
X8.6766Y-10.573
X8.8641Y-9.073
X9.0516Y-9.823
X9.2391Y-8.323
X9.4266Y-10.573
X9.6141Y-9.073
X9.8013Y-11.6474
X9.8016Y-9.823
X9.9891Y-8.323
X10.1766Y-10.573
X10.3641Y-9.073
X10.5516Y-9.823
X10.7391Y-8.323
X10.9266Y-10.573
X11.1141Y-9.073
X11.3016Y-9.823
X11.4891Y-8.323
X11.8641Y-9.073
X11.9578Y-7.2918
X11.9578Y-10.573
X12.0516Y-9.823
X12.1456Y-8.6474
X12.2391Y-11.323
X12.6141Y-8.323
X12.8016Y-9.073
X12.8953Y-7.2918
X12.8953Y-9.823
X12.9891Y-10.573
X12.9891Y-11.323
X13.0826Y-8.6474
X13.7391Y-11.323
X14.7703Y-7.2918
X14.7703Y-8.4168
X14.7703Y-9.3543
X14.7703Y-10.2918
X14.7703Y-11.2293
T0
M30
