M48
; DRILL file {KiCad 6.0.7-f9a2dced07~116~ubuntu22.04.1} date Sat 13 Aug 2022 04:20:36 PM EDT
; FORMAT={-:-/ absolute / inch / decimal}
; #@! TF.CreationDate,2022-08-13T16:20:36-04:00
; #@! TF.GenerationSoftware,Kicad,Pcbnew,6.0.7-f9a2dced07~116~ubuntu22.04.1
; #@! TF.FileFunction,Plated,1,2,PTH
FMAT,2
INCH
; #@! TA.AperFunction,Plated,PTH,ViaDrill
T1C0.0157
; #@! TA.AperFunction,Plated,PTH,ComponentDrill
T2C0.0276
; #@! TA.AperFunction,Plated,PTH,ComponentDrill
T3C0.0354
; #@! TA.AperFunction,Plated,PTH,ComponentDrill
T4C0.0394
; #@! TA.AperFunction,Plated,PTH,ComponentDrill
T5C0.0430
; #@! TA.AperFunction,Plated,PTH,ComponentDrill
T6C0.0591
; #@! TA.AperFunction,Plated,PTH,ComponentDrill
T7C0.1260
%
G90
G05
T1
X3.6268Y-8.3247
X3.8831Y-7.7382
X4.4134Y-8.7777
X6.499Y-9.2717
X7.0471Y-10.6656
X7.4112Y-9.2605
X9.4537Y-9.6266
X9.5198Y-8.8149
X9.6693Y-8.8344
X9.9872Y-9.5676
X14.3662Y-8.4593
X14.9313Y-8.8262
T2
X3.024Y-7.1972
X3.224Y-7.1972
T3
X2.8Y-7.15
X2.9Y-7.15
X3.7456Y-8.5524
X3.7456Y-8.8524
X4.1206Y-9.3024
X4.1206Y-9.6024
X4.3081Y-10.0524
X4.3081Y-10.3524
X4.4956Y-8.5524
X4.4956Y-8.8524
X4.6831Y-10.8024
X4.6831Y-11.1024
X4.8706Y-9.3024
X4.8706Y-9.6024
X5.0581Y-10.0524
X5.0581Y-10.3524
X5.2456Y-8.5524
X5.2456Y-8.8524
X5.3393Y-11.5229
X5.3393Y-11.8229
X5.4331Y-10.8024
X5.4331Y-11.1024
X5.6206Y-9.3024
X5.6206Y-9.6024
X5.8081Y-10.0524
X5.8081Y-10.3524
X5.9956Y-8.5524
X5.9956Y-8.8524
X6.1831Y-10.8024
X6.1831Y-11.1024
X6.3706Y-9.3024
X6.3706Y-9.6024
X6.4311Y-7.4244
X6.4311Y-7.7244
X6.5581Y-10.0524
X6.5581Y-10.3524
X6.7456Y-8.5524
X6.7456Y-8.8524
X6.9331Y-10.8024
X6.9331Y-11.1024
X7.1206Y-9.3024
X7.1206Y-9.6024
X7.3081Y-10.0524
X7.3081Y-10.3524
X7.4618Y-7.4244
X7.4618Y-7.7244
X7.4956Y-8.5524
X7.4956Y-8.8524
X7.6831Y-10.8024
X7.6831Y-11.1024
X7.7365Y-11.5524
X7.7365Y-11.8524
X7.8706Y-9.3024
X7.8706Y-9.6024
X8.0581Y-10.0524
X8.0581Y-10.3524
X8.2456Y-8.5524
X8.2456Y-8.8524
X8.3988Y-7.4244
X8.3988Y-7.7244
X8.4331Y-10.8024
X8.4331Y-11.1024
X8.6206Y-9.3024
X8.6206Y-9.6024
X8.8081Y-10.0524
X8.8081Y-10.3524
X8.9956Y-8.5524
X8.9956Y-8.8524
X9.1831Y-10.8024
X9.1831Y-11.1024
X9.3706Y-9.3024
X9.3706Y-9.6024
X9.3731Y-7.4272
X9.3731Y-7.7272
X9.5581Y-10.0524
X9.5581Y-10.3524
X9.7456Y-8.5524
X9.7456Y-8.8524
X9.9331Y-10.8024
X9.9331Y-11.1024
X10.1206Y-9.3024
X10.1206Y-9.6024
X10.3081Y-10.0524
X10.3081Y-10.3524
X10.3101Y-7.4272
X10.3101Y-7.7272
X10.4956Y-8.5524
X10.4956Y-8.8524
X10.6831Y-10.8024
X10.6831Y-11.1024
X10.8706Y-9.3024
X10.8706Y-9.6024
X11.0581Y-10.0524
X11.0581Y-10.3524
X11.2456Y-8.5524
X11.2456Y-8.8524
X11.2471Y-7.4272
X11.2471Y-7.7272
X11.4331Y-10.8024
X11.4331Y-11.1024
X11.6206Y-9.3024
X11.6206Y-9.6024
X11.8081Y-10.0524
X11.8081Y-10.3524
X11.9956Y-8.5524
X11.9956Y-8.8524
X12.1831Y-10.8024
X12.1831Y-11.1024
X12.1842Y-7.4272
X12.1842Y-7.7272
X12.3706Y-9.3024
X12.3706Y-9.6024
X12.5581Y-10.0524
X12.5581Y-10.3524
X12.7456Y-8.5524
X12.7456Y-8.8524
X13.1206Y-9.3024
X13.1206Y-9.6024
X13.1212Y-7.4291
X13.1212Y-7.7291
X13.3081Y-10.0524
X13.3081Y-10.3524
X13.4902Y-11.5329
X13.4902Y-11.8329
X13.4956Y-10.8024
X13.4956Y-11.1024
X14.0582Y-7.428
X14.0582Y-7.728
X14.2398Y-10.8024
X14.2398Y-11.1024
X14.2398Y-11.5329
X14.2398Y-11.8329
X14.2456Y-8.5516
X14.2456Y-8.8516
X14.2456Y-9.3024
X14.2456Y-9.6024
X14.2456Y-10.0524
X14.2456Y-10.3524
X14.3Y-7.85
X14.3Y-8.15
X14.3022Y-7.27
X14.3022Y-7.57
X14.4378Y-7.85
X14.4378Y-8.15
X14.44Y-7.27
X14.44Y-7.57
X14.5756Y-7.85
X14.5756Y-8.15
X14.5778Y-7.27
X14.5778Y-7.57
X14.7134Y-7.85
X14.7134Y-8.15
X14.7156Y-7.27
X14.7156Y-7.57
X14.8512Y-7.85
X14.8512Y-8.15
X14.8534Y-7.27
X14.8534Y-7.57
X14.9894Y-11.5329
X14.9894Y-11.8329
T4
X4.0278Y-7.2002
X4.0278Y-7.3002
X4.0278Y-7.4002
X4.0278Y-7.5002
X14.7083Y-10.2894
X14.7083Y-10.3984
X14.7083Y-10.5075
X14.7083Y-10.6165
X14.7083Y-10.7256
X14.7244Y-8.8945
X14.7244Y-9.0035
X14.7244Y-9.1126
X14.7244Y-9.2217
X14.7244Y-9.3307
X14.8201Y-10.3439
X14.8201Y-10.453
X14.8201Y-10.562
X14.8201Y-10.6711
X14.8362Y-8.949
X14.8362Y-9.0581
X14.8362Y-9.1671
X14.8362Y-9.2762
T5
X2.6135Y-7.4638
X2.6135Y-8.0638
X2.7135Y-7.4638
X2.7135Y-8.0638
X2.8135Y-7.4638
X2.8135Y-8.0638
X2.9135Y-7.4638
X2.9135Y-8.0638
X3.0135Y-7.4638
X3.0135Y-8.0638
X3.1135Y-7.4638
X3.1135Y-8.0638
X3.2135Y-7.4638
X3.2135Y-8.0638
X3.3135Y-7.4638
X3.3135Y-8.0638
X3.4135Y-7.4638
X3.4135Y-8.0638
X3.5135Y-7.4638
X3.5135Y-8.0638
X3.6135Y-7.4638
X3.6135Y-8.0638
X3.7135Y-7.4638
X3.7135Y-7.5638
X3.7135Y-7.6638
X3.7135Y-7.7638
X3.7135Y-7.8638
X3.7135Y-7.9638
X3.7135Y-8.0548
T6
X3.1206Y-8.5774
X3.3081Y-9.3274
X3.3706Y-8.4774
X3.4018Y-10.0764
X3.5581Y-9.2274
X3.6518Y-9.9764
X3.6831Y-10.8244
X3.9331Y-10.7244
X3.9643Y-8.5774
X4.2143Y-8.4774
X4.3393Y-9.3274
X4.5268Y-10.0764
X4.5268Y-11.5744
X4.5893Y-9.2274
X4.7143Y-8.5774
X4.7768Y-9.9764
X4.7768Y-11.4744
X4.9018Y-10.8244
X4.9643Y-8.4774
X5.0893Y-9.3274
X5.1518Y-10.7244
X5.2768Y-10.0764
X5.3393Y-9.2274
X5.4643Y-8.5774
X5.5268Y-9.9764
X5.6518Y-10.8244
X5.7143Y-8.4774
X5.8393Y-9.3274
X5.9Y-7.4496
X5.9018Y-10.7244
X6.0268Y-10.0764
X6.0893Y-9.2274
X6.15Y-7.3496
X6.2143Y-8.5774
X6.2768Y-9.9764
X6.4018Y-10.8244
X6.4643Y-8.4774
X6.5893Y-9.3274
X6.6518Y-10.7244
X6.7768Y-10.0764
X6.8393Y-9.2274
X6.9307Y-7.4496
X6.9643Y-8.5774
X7.0268Y-9.9764
X7.1518Y-10.8244
X7.1807Y-7.3496
X7.2143Y-8.4774
X7.3393Y-9.3274
X7.4018Y-10.7244
X7.5268Y-10.0764
X7.5893Y-9.2274
X7.7143Y-8.5774
X7.7768Y-9.9764
X7.8677Y-7.4496
X7.9018Y-10.8244
X7.9643Y-8.4774
X8.0893Y-9.3274
X8.1177Y-7.3496
X8.143Y-11.5744
X8.1518Y-10.7244
X8.2768Y-10.0764
X8.3393Y-9.2274
X8.393Y-11.4744
X8.4643Y-8.5774
X8.5268Y-9.9764
X8.6518Y-10.8244
X8.7143Y-8.4774
X8.8363Y-7.4524
X8.8393Y-9.3274
X8.9018Y-10.7244
X9.0268Y-10.0764
X9.0863Y-7.3524
X9.0893Y-9.2274
X9.2143Y-8.5774
X9.2768Y-9.9764
X9.4018Y-10.8244
X9.4643Y-8.4774
X9.5893Y-9.3274
X9.6518Y-10.7244
X9.7733Y-7.4524
X9.7768Y-10.0764
X9.8393Y-9.2274
X9.9643Y-8.5774
X10.0233Y-7.3524
X10.0268Y-9.9764
X10.1518Y-10.8244
X10.2143Y-8.4774
X10.3393Y-9.3274
X10.4018Y-10.7244
X10.5268Y-10.0764
X10.5893Y-9.2274
X10.7103Y-7.4524
X10.7143Y-8.5774
X10.7768Y-9.9764
X10.9018Y-10.8244
X10.9603Y-7.3524
X10.9643Y-8.4774
X11.0893Y-9.3274
X11.1518Y-10.7244
X11.2768Y-10.0764
X11.3393Y-9.2274
X11.4643Y-8.5774
X11.5268Y-9.9764
X11.6473Y-7.4524
X11.6518Y-10.8244
X11.7143Y-8.4774
X11.8393Y-9.3274
X11.8973Y-7.3524
X11.9018Y-10.7244
X12.0268Y-10.0764
X12.0893Y-9.2274
X12.2143Y-8.5774
X12.2768Y-9.9764
X12.4643Y-8.4774
X12.5843Y-7.4512
X12.5893Y-9.3274
X12.6831Y-10.8244
X12.7768Y-10.0764
X12.8343Y-7.3512
X12.8393Y-9.2274
X12.9331Y-10.7244
X12.9591Y-11.5752
X13.0268Y-9.9764
X13.2091Y-11.4752
X13.3339Y-8.5768
X13.5213Y-7.4524
X13.5268Y-9.3274
X13.5839Y-8.4768
X13.6213Y-10.0764
X13.7087Y-10.8256
X13.7087Y-11.5752
X13.7713Y-7.3524
X13.7768Y-9.2274
X13.8713Y-9.9764
X13.9587Y-10.7256
X13.9587Y-11.4752
X14.4583Y-11.5752
X14.7083Y-11.4752
T7
X14.7642Y-10.0154
X14.7642Y-10.9996
X14.7803Y-8.6205
X14.7803Y-9.6047
T0
M30
