G04 #@! TF.GenerationSoftware,KiCad,Pcbnew,6.0.9-8da3e8f707~117~ubuntu22.04.1*
G04 #@! TF.CreationDate,2022-12-17T12:05:47-05:00*
G04 #@! TF.ProjectId,atari-keyboard,61746172-692d-46b6-9579-626f6172642e,rev?*
G04 #@! TF.SameCoordinates,Original*
G04 #@! TF.FileFunction,Legend,Bot*
G04 #@! TF.FilePolarity,Positive*
%FSLAX46Y46*%
G04 Gerber Fmt 4.6, Leading zero omitted, Abs format (unit mm)*
G04 Created by KiCad (PCBNEW 6.0.9-8da3e8f707~117~ubuntu22.04.1) date 2022-12-17 12:05:47*
%MOMM*%
%LPD*%
G01*
G04 APERTURE LIST*
%ADD10C,0.300000*%
%ADD11C,0.150000*%
%ADD12C,0.381000*%
%ADD13R,1.752600X1.752600*%
%ADD14C,1.752600*%
G04 APERTURE END LIST*
D10*
X113228750Y-175686250D02*
X132278750Y-175686250D01*
X132278750Y-175686250D02*
X132278750Y-194736250D01*
X132278750Y-194736250D02*
X113228750Y-194736250D01*
X113228750Y-194736250D02*
X113228750Y-175686250D01*
X151328750Y-175686250D02*
X170378750Y-175686250D01*
X170378750Y-175686250D02*
X170378750Y-194736250D01*
X170378750Y-194736250D02*
X151328750Y-194736250D01*
X151328750Y-194736250D02*
X151328750Y-175686250D01*
X175141250Y-175686250D02*
X194191250Y-175686250D01*
X194191250Y-175686250D02*
X194191250Y-194736250D01*
X194191250Y-194736250D02*
X175141250Y-194736250D01*
X175141250Y-194736250D02*
X175141250Y-175686250D01*
X365641250Y-204261250D02*
X384691250Y-204261250D01*
X384691250Y-204261250D02*
X384691250Y-223311250D01*
X384691250Y-223311250D02*
X365641250Y-223311250D01*
X365641250Y-223311250D02*
X365641250Y-204261250D01*
X365641250Y-228073750D02*
X384691250Y-228073750D01*
X384691250Y-228073750D02*
X384691250Y-247123750D01*
X384691250Y-247123750D02*
X365641250Y-247123750D01*
X365641250Y-247123750D02*
X365641250Y-228073750D01*
X365641250Y-251886250D02*
X384691250Y-251886250D01*
X384691250Y-251886250D02*
X384691250Y-270936250D01*
X384691250Y-270936250D02*
X365641250Y-270936250D01*
X365641250Y-270936250D02*
X365641250Y-251886250D01*
X365641250Y-275698750D02*
X384691250Y-275698750D01*
X384691250Y-275698750D02*
X384691250Y-294748750D01*
X384691250Y-294748750D02*
X365641250Y-294748750D01*
X365641250Y-294748750D02*
X365641250Y-275698750D01*
X365641250Y-175686250D02*
X384691250Y-175686250D01*
X384691250Y-175686250D02*
X384691250Y-194736250D01*
X384691250Y-194736250D02*
X365641250Y-194736250D01*
X365641250Y-194736250D02*
X365641250Y-175686250D01*
X48935000Y-201880000D02*
X72747500Y-201880000D01*
X72747500Y-201880000D02*
X72747500Y-220930000D01*
X72747500Y-220930000D02*
X48935000Y-220930000D01*
X48935000Y-220930000D02*
X48935000Y-201880000D01*
X53697500Y-259030000D02*
X96560000Y-259030000D01*
X96560000Y-259030000D02*
X96560000Y-278080000D01*
X96560000Y-278080000D02*
X53697500Y-278080000D01*
X53697500Y-278080000D02*
X53697500Y-259030000D01*
X287060000Y-259030000D02*
X320397500Y-259030000D01*
X320397500Y-259030000D02*
X320397500Y-278080000D01*
X320397500Y-278080000D02*
X287060000Y-278080000D01*
X287060000Y-278080000D02*
X287060000Y-259030000D01*
X72747500Y-201880000D02*
X91797500Y-201880000D01*
X91797500Y-201880000D02*
X91797500Y-220930000D01*
X91797500Y-220930000D02*
X72747500Y-220930000D01*
X72747500Y-220930000D02*
X72747500Y-201880000D01*
X91797500Y-201880000D02*
X110847500Y-201880000D01*
X110847500Y-201880000D02*
X110847500Y-220930000D01*
X110847500Y-220930000D02*
X91797500Y-220930000D01*
X91797500Y-220930000D02*
X91797500Y-201880000D01*
X110847500Y-201880000D02*
X129897500Y-201880000D01*
X129897500Y-201880000D02*
X129897500Y-220930000D01*
X129897500Y-220930000D02*
X110847500Y-220930000D01*
X110847500Y-220930000D02*
X110847500Y-201880000D01*
X129897500Y-201880000D02*
X148947500Y-201880000D01*
X148947500Y-201880000D02*
X148947500Y-220930000D01*
X148947500Y-220930000D02*
X129897500Y-220930000D01*
X129897500Y-220930000D02*
X129897500Y-201880000D01*
X148947500Y-201880000D02*
X167997500Y-201880000D01*
X167997500Y-201880000D02*
X167997500Y-220930000D01*
X167997500Y-220930000D02*
X148947500Y-220930000D01*
X148947500Y-220930000D02*
X148947500Y-201880000D01*
X167997500Y-201880000D02*
X187047500Y-201880000D01*
X187047500Y-201880000D02*
X187047500Y-220930000D01*
X187047500Y-220930000D02*
X167997500Y-220930000D01*
X167997500Y-220930000D02*
X167997500Y-201880000D01*
X187047500Y-201880000D02*
X206097500Y-201880000D01*
X206097500Y-201880000D02*
X206097500Y-220930000D01*
X206097500Y-220930000D02*
X187047500Y-220930000D01*
X187047500Y-220930000D02*
X187047500Y-201880000D01*
X206097500Y-201880000D02*
X225147500Y-201880000D01*
X225147500Y-201880000D02*
X225147500Y-220930000D01*
X225147500Y-220930000D02*
X206097500Y-220930000D01*
X206097500Y-220930000D02*
X206097500Y-201880000D01*
X320397500Y-259030000D02*
X339447500Y-259030000D01*
X339447500Y-259030000D02*
X339447500Y-278080000D01*
X339447500Y-278080000D02*
X320397500Y-278080000D01*
X320397500Y-278080000D02*
X320397500Y-259030000D01*
X225147500Y-201880000D02*
X244197500Y-201880000D01*
X244197500Y-201880000D02*
X244197500Y-220930000D01*
X244197500Y-220930000D02*
X225147500Y-220930000D01*
X225147500Y-220930000D02*
X225147500Y-201880000D01*
X244197500Y-201880000D02*
X263247500Y-201880000D01*
X263247500Y-201880000D02*
X263247500Y-220930000D01*
X263247500Y-220930000D02*
X244197500Y-220930000D01*
X244197500Y-220930000D02*
X244197500Y-201880000D01*
X263247500Y-201880000D02*
X282297500Y-201880000D01*
X282297500Y-201880000D02*
X282297500Y-220930000D01*
X282297500Y-220930000D02*
X263247500Y-220930000D01*
X263247500Y-220930000D02*
X263247500Y-201880000D01*
X282297500Y-201880000D02*
X301347500Y-201880000D01*
X301347500Y-201880000D02*
X301347500Y-220930000D01*
X301347500Y-220930000D02*
X282297500Y-220930000D01*
X282297500Y-220930000D02*
X282297500Y-201880000D01*
X301347500Y-201880000D02*
X339447500Y-201880000D01*
X339447500Y-201880000D02*
X339447500Y-220930000D01*
X339447500Y-220930000D02*
X301347500Y-220930000D01*
X301347500Y-220930000D02*
X301347500Y-201880000D01*
X318016250Y-175686250D02*
X337066250Y-175686250D01*
X337066250Y-175686250D02*
X337066250Y-194736250D01*
X337066250Y-194736250D02*
X318016250Y-194736250D01*
X318016250Y-194736250D02*
X318016250Y-175686250D01*
X48935000Y-220930000D02*
X82272500Y-220930000D01*
X82272500Y-220930000D02*
X82272500Y-239980000D01*
X82272500Y-239980000D02*
X48935000Y-239980000D01*
X48935000Y-239980000D02*
X48935000Y-220930000D01*
X82272500Y-220930000D02*
X101322500Y-220930000D01*
X101322500Y-220930000D02*
X101322500Y-239980000D01*
X101322500Y-239980000D02*
X82272500Y-239980000D01*
X82272500Y-239980000D02*
X82272500Y-220930000D01*
X320397500Y-278080000D02*
X339447500Y-278080000D01*
X339447500Y-278080000D02*
X339447500Y-297130000D01*
X339447500Y-297130000D02*
X320397500Y-297130000D01*
X320397500Y-297130000D02*
X320397500Y-278080000D01*
X101322500Y-220930000D02*
X120372500Y-220930000D01*
X120372500Y-220930000D02*
X120372500Y-239980000D01*
X120372500Y-239980000D02*
X101322500Y-239980000D01*
X101322500Y-239980000D02*
X101322500Y-220930000D01*
X120372500Y-220930000D02*
X139422500Y-220930000D01*
X139422500Y-220930000D02*
X139422500Y-239980000D01*
X139422500Y-239980000D02*
X120372500Y-239980000D01*
X120372500Y-239980000D02*
X120372500Y-220930000D01*
X139422500Y-220930000D02*
X158472500Y-220930000D01*
X158472500Y-220930000D02*
X158472500Y-239980000D01*
X158472500Y-239980000D02*
X139422500Y-239980000D01*
X139422500Y-239980000D02*
X139422500Y-220930000D01*
X158472500Y-220930000D02*
X177522500Y-220930000D01*
X177522500Y-220930000D02*
X177522500Y-239980000D01*
X177522500Y-239980000D02*
X158472500Y-239980000D01*
X158472500Y-239980000D02*
X158472500Y-220930000D01*
X177522500Y-220930000D02*
X196572500Y-220930000D01*
X196572500Y-220930000D02*
X196572500Y-239980000D01*
X196572500Y-239980000D02*
X177522500Y-239980000D01*
X177522500Y-239980000D02*
X177522500Y-220930000D01*
X196572500Y-220930000D02*
X215622500Y-220930000D01*
X215622500Y-220930000D02*
X215622500Y-239980000D01*
X215622500Y-239980000D02*
X196572500Y-239980000D01*
X196572500Y-239980000D02*
X196572500Y-220930000D01*
X215622500Y-220930000D02*
X234672500Y-220930000D01*
X234672500Y-220930000D02*
X234672500Y-239980000D01*
X234672500Y-239980000D02*
X215622500Y-239980000D01*
X215622500Y-239980000D02*
X215622500Y-220930000D01*
X234672500Y-220930000D02*
X253722500Y-220930000D01*
X253722500Y-220930000D02*
X253722500Y-239980000D01*
X253722500Y-239980000D02*
X234672500Y-239980000D01*
X234672500Y-239980000D02*
X234672500Y-220930000D01*
X301347500Y-278080000D02*
X320397500Y-278080000D01*
X320397500Y-278080000D02*
X320397500Y-297130000D01*
X320397500Y-297130000D02*
X301347500Y-297130000D01*
X301347500Y-297130000D02*
X301347500Y-278080000D01*
X253722500Y-220930000D02*
X272772500Y-220930000D01*
X272772500Y-220930000D02*
X272772500Y-239980000D01*
X272772500Y-239980000D02*
X253722500Y-239980000D01*
X253722500Y-239980000D02*
X253722500Y-220930000D01*
X272772500Y-220930000D02*
X291822500Y-220930000D01*
X291822500Y-220930000D02*
X291822500Y-239980000D01*
X291822500Y-239980000D02*
X272772500Y-239980000D01*
X272772500Y-239980000D02*
X272772500Y-220930000D01*
X291822500Y-220930000D02*
X310872500Y-220930000D01*
X310872500Y-220930000D02*
X310872500Y-239980000D01*
X310872500Y-239980000D02*
X291822500Y-239980000D01*
X291822500Y-239980000D02*
X291822500Y-220930000D01*
X310872500Y-220930000D02*
X339447500Y-220930000D01*
X339447500Y-220930000D02*
X339447500Y-239980000D01*
X339447500Y-239980000D02*
X310872500Y-239980000D01*
X310872500Y-239980000D02*
X310872500Y-220930000D01*
X48935000Y-239980000D02*
X87035000Y-239980000D01*
X87035000Y-239980000D02*
X87035000Y-259030000D01*
X87035000Y-259030000D02*
X48935000Y-259030000D01*
X48935000Y-259030000D02*
X48935000Y-239980000D01*
X87035000Y-239980000D02*
X106085000Y-239980000D01*
X106085000Y-239980000D02*
X106085000Y-259030000D01*
X106085000Y-259030000D02*
X87035000Y-259030000D01*
X87035000Y-259030000D02*
X87035000Y-239980000D01*
X106085000Y-239980000D02*
X125135000Y-239980000D01*
X125135000Y-239980000D02*
X125135000Y-259030000D01*
X125135000Y-259030000D02*
X106085000Y-259030000D01*
X106085000Y-259030000D02*
X106085000Y-239980000D01*
X125135000Y-239980000D02*
X144185000Y-239980000D01*
X144185000Y-239980000D02*
X144185000Y-259030000D01*
X144185000Y-259030000D02*
X125135000Y-259030000D01*
X125135000Y-259030000D02*
X125135000Y-239980000D01*
X339447500Y-278080000D02*
X358497500Y-278080000D01*
X358497500Y-278080000D02*
X358497500Y-297130000D01*
X358497500Y-297130000D02*
X339447500Y-297130000D01*
X339447500Y-297130000D02*
X339447500Y-278080000D01*
X144185000Y-239980000D02*
X163235000Y-239980000D01*
X163235000Y-239980000D02*
X163235000Y-259030000D01*
X163235000Y-259030000D02*
X144185000Y-259030000D01*
X144185000Y-259030000D02*
X144185000Y-239980000D01*
X163235000Y-239980000D02*
X182285000Y-239980000D01*
X182285000Y-239980000D02*
X182285000Y-259030000D01*
X182285000Y-259030000D02*
X163235000Y-259030000D01*
X163235000Y-259030000D02*
X163235000Y-239980000D01*
X182285000Y-239980000D02*
X201335000Y-239980000D01*
X201335000Y-239980000D02*
X201335000Y-259030000D01*
X201335000Y-259030000D02*
X182285000Y-259030000D01*
X182285000Y-259030000D02*
X182285000Y-239980000D01*
X201335000Y-239980000D02*
X220385000Y-239980000D01*
X220385000Y-239980000D02*
X220385000Y-259030000D01*
X220385000Y-259030000D02*
X201335000Y-259030000D01*
X201335000Y-259030000D02*
X201335000Y-239980000D01*
X220385000Y-239980000D02*
X239435000Y-239980000D01*
X239435000Y-239980000D02*
X239435000Y-259030000D01*
X239435000Y-259030000D02*
X220385000Y-259030000D01*
X220385000Y-259030000D02*
X220385000Y-239980000D01*
X239435000Y-239980000D02*
X258485000Y-239980000D01*
X258485000Y-239980000D02*
X258485000Y-259030000D01*
X258485000Y-259030000D02*
X239435000Y-259030000D01*
X239435000Y-259030000D02*
X239435000Y-239980000D01*
X258485000Y-239980000D02*
X277535000Y-239980000D01*
X277535000Y-239980000D02*
X277535000Y-259030000D01*
X277535000Y-259030000D02*
X258485000Y-259030000D01*
X258485000Y-259030000D02*
X258485000Y-239980000D01*
X277535000Y-239980000D02*
X296585000Y-239980000D01*
X296585000Y-239980000D02*
X296585000Y-259030000D01*
X296585000Y-259030000D02*
X277535000Y-259030000D01*
X277535000Y-259030000D02*
X277535000Y-239980000D01*
X191810000Y-259030000D02*
X210860000Y-259030000D01*
X210860000Y-259030000D02*
X210860000Y-278080000D01*
X210860000Y-278080000D02*
X191810000Y-278080000D01*
X191810000Y-278080000D02*
X191810000Y-259030000D01*
X296585000Y-239980000D02*
X315635000Y-239980000D01*
X315635000Y-239980000D02*
X315635000Y-259030000D01*
X315635000Y-259030000D02*
X296585000Y-259030000D01*
X296585000Y-259030000D02*
X296585000Y-239980000D01*
X315635000Y-239980000D02*
X339447500Y-239980000D01*
X339447500Y-239980000D02*
X339447500Y-259030000D01*
X339447500Y-259030000D02*
X315635000Y-259030000D01*
X315635000Y-259030000D02*
X315635000Y-239980000D01*
X96560000Y-259030000D02*
X115610000Y-259030000D01*
X115610000Y-259030000D02*
X115610000Y-278080000D01*
X115610000Y-278080000D02*
X96560000Y-278080000D01*
X96560000Y-278080000D02*
X96560000Y-259030000D01*
X115610000Y-259030000D02*
X134660000Y-259030000D01*
X134660000Y-259030000D02*
X134660000Y-278080000D01*
X134660000Y-278080000D02*
X115610000Y-278080000D01*
X115610000Y-278080000D02*
X115610000Y-259030000D01*
X134660000Y-259030000D02*
X153710000Y-259030000D01*
X153710000Y-259030000D02*
X153710000Y-278080000D01*
X153710000Y-278080000D02*
X134660000Y-278080000D01*
X134660000Y-278080000D02*
X134660000Y-259030000D01*
X153710000Y-259030000D02*
X172760000Y-259030000D01*
X172760000Y-259030000D02*
X172760000Y-278080000D01*
X172760000Y-278080000D02*
X153710000Y-278080000D01*
X153710000Y-278080000D02*
X153710000Y-259030000D01*
X172760000Y-259030000D02*
X191810000Y-259030000D01*
X191810000Y-259030000D02*
X191810000Y-278080000D01*
X191810000Y-278080000D02*
X172760000Y-278080000D01*
X172760000Y-278080000D02*
X172760000Y-259030000D01*
X210860000Y-259030000D02*
X229910000Y-259030000D01*
X229910000Y-259030000D02*
X229910000Y-278080000D01*
X229910000Y-278080000D02*
X210860000Y-278080000D01*
X210860000Y-278080000D02*
X210860000Y-259030000D01*
X79891250Y-278080000D02*
X113228750Y-278080000D01*
X113228750Y-278080000D02*
X113228750Y-297130000D01*
X113228750Y-297130000D02*
X79891250Y-297130000D01*
X79891250Y-297130000D02*
X79891250Y-278080000D01*
X294203750Y-175686250D02*
X313253750Y-175686250D01*
X313253750Y-175686250D02*
X313253750Y-194736250D01*
X313253750Y-194736250D02*
X294203750Y-194736250D01*
X294203750Y-194736250D02*
X294203750Y-175686250D01*
X139422500Y-278080000D02*
X258485000Y-278080000D01*
X258485000Y-278080000D02*
X258485000Y-297130000D01*
X258485000Y-297130000D02*
X139422500Y-297130000D01*
X139422500Y-297130000D02*
X139422500Y-278080000D01*
X229910000Y-259030000D02*
X248960000Y-259030000D01*
X248960000Y-259030000D02*
X248960000Y-278080000D01*
X248960000Y-278080000D02*
X229910000Y-278080000D01*
X229910000Y-278080000D02*
X229910000Y-259030000D01*
X248960000Y-259030000D02*
X268010000Y-259030000D01*
X268010000Y-259030000D02*
X268010000Y-278080000D01*
X268010000Y-278080000D02*
X248960000Y-278080000D01*
X248960000Y-278080000D02*
X248960000Y-259030000D01*
X268010000Y-259030000D02*
X287060000Y-259030000D01*
X287060000Y-259030000D02*
X287060000Y-278080000D01*
X287060000Y-278080000D02*
X268010000Y-278080000D01*
X268010000Y-278080000D02*
X268010000Y-259030000D01*
D11*
X328636538Y-257736142D02*
X328684157Y-257783761D01*
X328827014Y-257831380D01*
X328922252Y-257831380D01*
X329065109Y-257783761D01*
X329160347Y-257688523D01*
X329207966Y-257593285D01*
X329255585Y-257402809D01*
X329255585Y-257259952D01*
X329207966Y-257069476D01*
X329160347Y-256974238D01*
X329065109Y-256879000D01*
X328922252Y-256831380D01*
X328827014Y-256831380D01*
X328684157Y-256879000D01*
X328636538Y-256926619D01*
X328255585Y-257545666D02*
X327779395Y-257545666D01*
X328350823Y-257831380D02*
X328017490Y-256831380D01*
X327684157Y-257831380D01*
X327350823Y-257831380D02*
X327350823Y-256831380D01*
X326969871Y-256831380D01*
X326874633Y-256879000D01*
X326827014Y-256926619D01*
X326779395Y-257021857D01*
X326779395Y-257164714D01*
X326827014Y-257259952D01*
X326874633Y-257307571D01*
X326969871Y-257355190D01*
X327350823Y-257355190D01*
X326398442Y-257783761D02*
X326255585Y-257831380D01*
X326017490Y-257831380D01*
X325922252Y-257783761D01*
X325874633Y-257736142D01*
X325827014Y-257640904D01*
X325827014Y-257545666D01*
X325874633Y-257450428D01*
X325922252Y-257402809D01*
X326017490Y-257355190D01*
X326207966Y-257307571D01*
X326303204Y-257259952D01*
X326350823Y-257212333D01*
X326398442Y-257117095D01*
X326398442Y-257021857D01*
X326350823Y-256926619D01*
X326303204Y-256879000D01*
X326207966Y-256831380D01*
X325969871Y-256831380D01*
X325827014Y-256879000D01*
X331017738Y-276786142D02*
X331065357Y-276833761D01*
X331208214Y-276881380D01*
X331303452Y-276881380D01*
X331446309Y-276833761D01*
X331541547Y-276738523D01*
X331589166Y-276643285D01*
X331636785Y-276452809D01*
X331636785Y-276309952D01*
X331589166Y-276119476D01*
X331541547Y-276024238D01*
X331446309Y-275929000D01*
X331303452Y-275881380D01*
X331208214Y-275881380D01*
X331065357Y-275929000D01*
X331017738Y-275976619D01*
X330827261Y-276976619D02*
X330065357Y-276976619D01*
X329827261Y-275881380D02*
X329827261Y-276690904D01*
X329779642Y-276786142D01*
X329732023Y-276833761D01*
X329636785Y-276881380D01*
X329446309Y-276881380D01*
X329351071Y-276833761D01*
X329303452Y-276786142D01*
X329255833Y-276690904D01*
X329255833Y-275881380D01*
X328779642Y-276881380D02*
X328779642Y-275881380D01*
X328398690Y-275881380D01*
X328303452Y-275929000D01*
X328255833Y-275976619D01*
X328208214Y-276071857D01*
X328208214Y-276214714D01*
X328255833Y-276309952D01*
X328303452Y-276357571D01*
X328398690Y-276405190D01*
X328779642Y-276405190D01*
X115895714Y-257783761D02*
X115752857Y-257831380D01*
X115514761Y-257831380D01*
X115419523Y-257783761D01*
X115371904Y-257736142D01*
X115324285Y-257640904D01*
X115324285Y-257545666D01*
X115371904Y-257450428D01*
X115419523Y-257402809D01*
X115514761Y-257355190D01*
X115705238Y-257307571D01*
X115800476Y-257259952D01*
X115848095Y-257212333D01*
X115895714Y-257117095D01*
X115895714Y-257021857D01*
X115848095Y-256926619D01*
X115800476Y-256879000D01*
X115705238Y-256831380D01*
X115467142Y-256831380D01*
X115324285Y-256879000D01*
X244292738Y-237781380D02*
X244102261Y-237781380D01*
X244007023Y-237829000D01*
X243911785Y-237924238D01*
X243864166Y-238114714D01*
X243864166Y-238448047D01*
X243911785Y-238638523D01*
X244007023Y-238733761D01*
X244102261Y-238781380D01*
X244292738Y-238781380D01*
X244387976Y-238733761D01*
X244483214Y-238638523D01*
X244530833Y-238448047D01*
X244530833Y-238114714D01*
X244483214Y-237924238D01*
X244387976Y-237829000D01*
X244292738Y-237781380D01*
X153567142Y-257307571D02*
X153900476Y-257307571D01*
X153900476Y-257831380D02*
X153900476Y-256831380D01*
X153424285Y-256831380D01*
X134921904Y-257831380D02*
X134921904Y-256831380D01*
X134683809Y-256831380D01*
X134540952Y-256879000D01*
X134445714Y-256974238D01*
X134398095Y-257069476D01*
X134350476Y-257259952D01*
X134350476Y-257402809D01*
X134398095Y-257593285D01*
X134445714Y-257688523D01*
X134540952Y-257783761D01*
X134683809Y-257831380D01*
X134921904Y-257831380D01*
X192095714Y-257831380D02*
X192095714Y-256831380D01*
X192095714Y-257307571D02*
X191524285Y-257307571D01*
X191524285Y-257831380D02*
X191524285Y-256831380D01*
X377142490Y-293502461D02*
X376999633Y-293550080D01*
X376761538Y-293550080D01*
X376666300Y-293502461D01*
X376618680Y-293454842D01*
X376571061Y-293359604D01*
X376571061Y-293264366D01*
X376618680Y-293169128D01*
X376666300Y-293121509D01*
X376761538Y-293073890D01*
X376952014Y-293026271D01*
X377047252Y-292978652D01*
X377094871Y-292931033D01*
X377142490Y-292835795D01*
X377142490Y-292740557D01*
X377094871Y-292645319D01*
X377047252Y-292597700D01*
X376952014Y-292550080D01*
X376713919Y-292550080D01*
X376571061Y-292597700D01*
X376285347Y-292550080D02*
X375713919Y-292550080D01*
X375999633Y-293550080D02*
X375999633Y-292550080D01*
X375428204Y-293264366D02*
X374952014Y-293264366D01*
X375523442Y-293550080D02*
X375190109Y-292550080D01*
X374856776Y-293550080D01*
X373952014Y-293550080D02*
X374285347Y-293073890D01*
X374523442Y-293550080D02*
X374523442Y-292550080D01*
X374142490Y-292550080D01*
X374047252Y-292597700D01*
X373999633Y-292645319D01*
X373952014Y-292740557D01*
X373952014Y-292883414D01*
X373999633Y-292978652D01*
X374047252Y-293026271D01*
X374142490Y-293073890D01*
X374523442Y-293073890D01*
X373666300Y-292550080D02*
X373094871Y-292550080D01*
X373380585Y-293550080D02*
X373380585Y-292550080D01*
X163568333Y-275881380D02*
X163235000Y-276881380D01*
X162901666Y-275881380D01*
X201120466Y-295883761D02*
X200977609Y-295931380D01*
X200739514Y-295931380D01*
X200644276Y-295883761D01*
X200596657Y-295836142D01*
X200549038Y-295740904D01*
X200549038Y-295645666D01*
X200596657Y-295550428D01*
X200644276Y-295502809D01*
X200739514Y-295455190D01*
X200929990Y-295407571D01*
X201025228Y-295359952D01*
X201072847Y-295312333D01*
X201120466Y-295217095D01*
X201120466Y-295121857D01*
X201072847Y-295026619D01*
X201025228Y-294979000D01*
X200929990Y-294931380D01*
X200691895Y-294931380D01*
X200549038Y-294979000D01*
X200120466Y-295931380D02*
X200120466Y-294931380D01*
X199739514Y-294931380D01*
X199644276Y-294979000D01*
X199596657Y-295026619D01*
X199549038Y-295121857D01*
X199549038Y-295264714D01*
X199596657Y-295359952D01*
X199644276Y-295407571D01*
X199739514Y-295455190D01*
X200120466Y-295455190D01*
X199168085Y-295645666D02*
X198691895Y-295645666D01*
X199263323Y-295931380D02*
X198929990Y-294931380D01*
X198596657Y-295931380D01*
X197691895Y-295836142D02*
X197739514Y-295883761D01*
X197882371Y-295931380D01*
X197977609Y-295931380D01*
X198120466Y-295883761D01*
X198215704Y-295788523D01*
X198263323Y-295693285D01*
X198310942Y-295502809D01*
X198310942Y-295359952D01*
X198263323Y-295169476D01*
X198215704Y-295074238D01*
X198120466Y-294979000D01*
X197977609Y-294931380D01*
X197882371Y-294931380D01*
X197739514Y-294979000D01*
X197691895Y-295026619D01*
X197263323Y-295407571D02*
X196929990Y-295407571D01*
X196787133Y-295931380D02*
X197263323Y-295931380D01*
X197263323Y-294931380D01*
X196787133Y-294931380D01*
X272843928Y-219731380D02*
X273320119Y-219731380D01*
X273320119Y-218731380D01*
X272653452Y-218731380D02*
X272082023Y-218731380D01*
X272367738Y-219731380D02*
X272367738Y-218731380D01*
X328469871Y-193013771D02*
X328327014Y-193061390D01*
X328279395Y-193109009D01*
X328231776Y-193204247D01*
X328231776Y-193347104D01*
X328279395Y-193442342D01*
X328327014Y-193489961D01*
X328422252Y-193537580D01*
X328803204Y-193537580D01*
X328803204Y-192537580D01*
X328469871Y-192537580D01*
X328374633Y-192585200D01*
X328327014Y-192632819D01*
X328279395Y-192728057D01*
X328279395Y-192823295D01*
X328327014Y-192918533D01*
X328374633Y-192966152D01*
X328469871Y-193013771D01*
X328803204Y-193013771D01*
X327231776Y-193537580D02*
X327565109Y-193061390D01*
X327803204Y-193537580D02*
X327803204Y-192537580D01*
X327422252Y-192537580D01*
X327327014Y-192585200D01*
X327279395Y-192632819D01*
X327231776Y-192728057D01*
X327231776Y-192870914D01*
X327279395Y-192966152D01*
X327327014Y-193013771D01*
X327422252Y-193061390D01*
X327803204Y-193061390D01*
X326803204Y-193537580D02*
X326803204Y-192537580D01*
X326231776Y-193537580D02*
X326660347Y-192966152D01*
X326231776Y-192537580D02*
X326803204Y-193109009D01*
X260961190Y-276881380D02*
X260961190Y-275881380D01*
X260580238Y-275881380D01*
X260485000Y-275929000D01*
X260437380Y-275976619D01*
X260389761Y-276071857D01*
X260389761Y-276214714D01*
X260437380Y-276309952D01*
X260485000Y-276357571D01*
X260580238Y-276405190D01*
X260961190Y-276405190D01*
X259961190Y-276357571D02*
X259627857Y-276357571D01*
X259485000Y-276881380D02*
X259961190Y-276881380D01*
X259961190Y-275881380D01*
X259485000Y-275881380D01*
X258485000Y-276881380D02*
X258818333Y-276405190D01*
X259056428Y-276881380D02*
X259056428Y-275881380D01*
X258675476Y-275881380D01*
X258580238Y-275929000D01*
X258532619Y-275976619D01*
X258485000Y-276071857D01*
X258485000Y-276214714D01*
X258532619Y-276309952D01*
X258580238Y-276357571D01*
X258675476Y-276405190D01*
X259056428Y-276405190D01*
X258056428Y-276881380D02*
X258056428Y-275881380D01*
X257389761Y-275881380D02*
X257199285Y-275881380D01*
X257104047Y-275929000D01*
X257008809Y-276024238D01*
X256961190Y-276214714D01*
X256961190Y-276548047D01*
X257008809Y-276738523D01*
X257104047Y-276833761D01*
X257199285Y-276881380D01*
X257389761Y-276881380D01*
X257485000Y-276833761D01*
X257580238Y-276738523D01*
X257627857Y-276548047D01*
X257627857Y-276214714D01*
X257580238Y-276024238D01*
X257485000Y-275929000D01*
X257389761Y-275881380D01*
X256532619Y-276881380D02*
X256532619Y-275881380D01*
X256294523Y-275881380D01*
X256151666Y-275929000D01*
X256056428Y-276024238D01*
X256008809Y-276119476D01*
X255961190Y-276309952D01*
X255961190Y-276452809D01*
X256008809Y-276643285D01*
X256056428Y-276738523D01*
X256151666Y-276833761D01*
X256294523Y-276881380D01*
X256532619Y-276881380D01*
X168283214Y-237781380D02*
X167711785Y-237781380D01*
X167997500Y-238781380D02*
X167997500Y-237781380D01*
X148637976Y-238781380D02*
X148971309Y-238305190D01*
X149209404Y-238781380D02*
X149209404Y-237781380D01*
X148828452Y-237781380D01*
X148733214Y-237829000D01*
X148685595Y-237876619D01*
X148637976Y-237971857D01*
X148637976Y-238114714D01*
X148685595Y-238209952D01*
X148733214Y-238257571D01*
X148828452Y-238305190D01*
X149209404Y-238305190D01*
X139232023Y-219064714D02*
X139232023Y-219731380D01*
X139470119Y-218683761D02*
X139708214Y-219398047D01*
X139089166Y-219398047D01*
X283987976Y-238781380D02*
X283987976Y-237781380D01*
X283749880Y-237781380D01*
X283607023Y-237829000D01*
X283511785Y-237924238D01*
X283464166Y-238019476D01*
X283416547Y-238209952D01*
X283416547Y-238352809D01*
X283464166Y-238543285D01*
X283511785Y-238638523D01*
X283607023Y-238733761D01*
X283749880Y-238781380D01*
X283987976Y-238781380D01*
X283035595Y-238495666D02*
X282559404Y-238495666D01*
X283130833Y-238781380D02*
X282797500Y-237781380D01*
X282464166Y-238781380D01*
X282178452Y-238733761D02*
X282035595Y-238781380D01*
X281797500Y-238781380D01*
X281702261Y-238733761D01*
X281654642Y-238686142D01*
X281607023Y-238590904D01*
X281607023Y-238495666D01*
X281654642Y-238400428D01*
X281702261Y-238352809D01*
X281797500Y-238305190D01*
X281987976Y-238257571D01*
X282083214Y-238209952D01*
X282130833Y-238162333D01*
X282178452Y-238067095D01*
X282178452Y-237971857D01*
X282130833Y-237876619D01*
X282083214Y-237829000D01*
X281987976Y-237781380D01*
X281749880Y-237781380D01*
X281607023Y-237829000D01*
X281178452Y-238781380D02*
X281178452Y-237781380D01*
X281178452Y-238257571D02*
X280607023Y-238257571D01*
X280607023Y-238781380D02*
X280607023Y-237781380D01*
X158234404Y-218731380D02*
X158710595Y-218731380D01*
X158758214Y-219207571D01*
X158710595Y-219159952D01*
X158615357Y-219112333D01*
X158377261Y-219112333D01*
X158282023Y-219159952D01*
X158234404Y-219207571D01*
X158186785Y-219302809D01*
X158186785Y-219540904D01*
X158234404Y-219636142D01*
X158282023Y-219683761D01*
X158377261Y-219731380D01*
X158615357Y-219731380D01*
X158710595Y-219683761D01*
X158758214Y-219636142D01*
X130111785Y-238257571D02*
X129778452Y-238257571D01*
X129635595Y-238781380D02*
X130111785Y-238781380D01*
X130111785Y-237781380D01*
X129635595Y-237781380D01*
X66818085Y-237781380D02*
X66246657Y-237781380D01*
X66532371Y-238781380D02*
X66532371Y-237781380D01*
X65960942Y-238495666D02*
X65484752Y-238495666D01*
X66056180Y-238781380D02*
X65722847Y-237781380D01*
X65389514Y-238781380D01*
X64722847Y-238257571D02*
X64579990Y-238305190D01*
X64532371Y-238352809D01*
X64484752Y-238448047D01*
X64484752Y-238590904D01*
X64532371Y-238686142D01*
X64579990Y-238733761D01*
X64675228Y-238781380D01*
X65056180Y-238781380D01*
X65056180Y-237781380D01*
X64722847Y-237781380D01*
X64627609Y-237829000D01*
X64579990Y-237876619D01*
X64532371Y-237971857D01*
X64532371Y-238067095D01*
X64579990Y-238162333D01*
X64627609Y-238209952D01*
X64722847Y-238257571D01*
X65056180Y-238257571D01*
X230171904Y-257831380D02*
X230171904Y-256831380D01*
X229600476Y-257831380D02*
X230029047Y-257259952D01*
X229600476Y-256831380D02*
X230171904Y-257402809D01*
X215717738Y-219159952D02*
X215812976Y-219112333D01*
X215860595Y-219064714D01*
X215908214Y-218969476D01*
X215908214Y-218921857D01*
X215860595Y-218826619D01*
X215812976Y-218779000D01*
X215717738Y-218731380D01*
X215527261Y-218731380D01*
X215432023Y-218779000D01*
X215384404Y-218826619D01*
X215336785Y-218921857D01*
X215336785Y-218969476D01*
X215384404Y-219064714D01*
X215432023Y-219112333D01*
X215527261Y-219159952D01*
X215717738Y-219159952D01*
X215812976Y-219207571D01*
X215860595Y-219255190D01*
X215908214Y-219350428D01*
X215908214Y-219540904D01*
X215860595Y-219636142D01*
X215812976Y-219683761D01*
X215717738Y-219731380D01*
X215527261Y-219731380D01*
X215432023Y-219683761D01*
X215384404Y-219636142D01*
X215336785Y-219540904D01*
X215336785Y-219350428D01*
X215384404Y-219255190D01*
X215432023Y-219207571D01*
X215527261Y-219159952D01*
X101608214Y-218826619D02*
X101560595Y-218779000D01*
X101465357Y-218731380D01*
X101227261Y-218731380D01*
X101132023Y-218779000D01*
X101084404Y-218826619D01*
X101036785Y-218921857D01*
X101036785Y-219017095D01*
X101084404Y-219159952D01*
X101655833Y-219731380D01*
X101036785Y-219731380D01*
X376809157Y-193537580D02*
X376809157Y-192537580D01*
X376809157Y-193013771D02*
X376237728Y-193013771D01*
X376237728Y-193537580D02*
X376237728Y-192537580D01*
X375761538Y-193013771D02*
X375428204Y-193013771D01*
X375285347Y-193537580D02*
X375761538Y-193537580D01*
X375761538Y-192537580D01*
X375285347Y-192537580D01*
X374380585Y-193537580D02*
X374856776Y-193537580D01*
X374856776Y-192537580D01*
X374047252Y-193537580D02*
X374047252Y-192537580D01*
X373666300Y-192537580D01*
X373571061Y-192585200D01*
X373523442Y-192632819D01*
X373475823Y-192728057D01*
X373475823Y-192870914D01*
X373523442Y-192966152D01*
X373571061Y-193013771D01*
X373666300Y-193061390D01*
X374047252Y-193061390D01*
X220718333Y-276881380D02*
X220718333Y-275881380D01*
X220385000Y-276595666D01*
X220051666Y-275881380D01*
X220051666Y-276881380D01*
X377428204Y-244925080D02*
X377237728Y-244925080D01*
X377142490Y-244972700D01*
X377047252Y-245067938D01*
X376999633Y-245258414D01*
X376999633Y-245591747D01*
X377047252Y-245782223D01*
X377142490Y-245877461D01*
X377237728Y-245925080D01*
X377428204Y-245925080D01*
X377523442Y-245877461D01*
X377618680Y-245782223D01*
X377666300Y-245591747D01*
X377666300Y-245258414D01*
X377618680Y-245067938D01*
X377523442Y-244972700D01*
X377428204Y-244925080D01*
X376571061Y-245925080D02*
X376571061Y-244925080D01*
X376190109Y-244925080D01*
X376094871Y-244972700D01*
X376047252Y-245020319D01*
X375999633Y-245115557D01*
X375999633Y-245258414D01*
X376047252Y-245353652D01*
X376094871Y-245401271D01*
X376190109Y-245448890D01*
X376571061Y-245448890D01*
X375713919Y-244925080D02*
X375142490Y-244925080D01*
X375428204Y-245925080D02*
X375428204Y-244925080D01*
X374809157Y-245925080D02*
X374809157Y-244925080D01*
X374142490Y-244925080D02*
X373952014Y-244925080D01*
X373856776Y-244972700D01*
X373761538Y-245067938D01*
X373713919Y-245258414D01*
X373713919Y-245591747D01*
X373761538Y-245782223D01*
X373856776Y-245877461D01*
X373952014Y-245925080D01*
X374142490Y-245925080D01*
X374237728Y-245877461D01*
X374332966Y-245782223D01*
X374380585Y-245591747D01*
X374380585Y-245258414D01*
X374332966Y-245067938D01*
X374237728Y-244972700D01*
X374142490Y-244925080D01*
X373285347Y-245925080D02*
X373285347Y-244925080D01*
X372713919Y-245925080D01*
X372713919Y-244925080D01*
X120705833Y-218731380D02*
X120086785Y-218731380D01*
X120420119Y-219112333D01*
X120277261Y-219112333D01*
X120182023Y-219159952D01*
X120134404Y-219207571D01*
X120086785Y-219302809D01*
X120086785Y-219540904D01*
X120134404Y-219636142D01*
X120182023Y-219683761D01*
X120277261Y-219731380D01*
X120562976Y-219731380D01*
X120658214Y-219683761D01*
X120705833Y-219636142D01*
X234862976Y-219731380D02*
X234672500Y-219731380D01*
X234577261Y-219683761D01*
X234529642Y-219636142D01*
X234434404Y-219493285D01*
X234386785Y-219302809D01*
X234386785Y-218921857D01*
X234434404Y-218826619D01*
X234482023Y-218779000D01*
X234577261Y-218731380D01*
X234767738Y-218731380D01*
X234862976Y-218779000D01*
X234910595Y-218826619D01*
X234958214Y-218921857D01*
X234958214Y-219159952D01*
X234910595Y-219255190D01*
X234862976Y-219302809D01*
X234767738Y-219350428D01*
X234577261Y-219350428D01*
X234482023Y-219302809D01*
X234434404Y-219255190D01*
X234386785Y-219159952D01*
X377642490Y-269689961D02*
X377499633Y-269737580D01*
X377261538Y-269737580D01*
X377166300Y-269689961D01*
X377118680Y-269642342D01*
X377071061Y-269547104D01*
X377071061Y-269451866D01*
X377118680Y-269356628D01*
X377166300Y-269309009D01*
X377261538Y-269261390D01*
X377452014Y-269213771D01*
X377547252Y-269166152D01*
X377594871Y-269118533D01*
X377642490Y-269023295D01*
X377642490Y-268928057D01*
X377594871Y-268832819D01*
X377547252Y-268785200D01*
X377452014Y-268737580D01*
X377213919Y-268737580D01*
X377071061Y-268785200D01*
X376642490Y-269213771D02*
X376309157Y-269213771D01*
X376166300Y-269737580D02*
X376642490Y-269737580D01*
X376642490Y-268737580D01*
X376166300Y-268737580D01*
X375261538Y-269737580D02*
X375737728Y-269737580D01*
X375737728Y-268737580D01*
X374928204Y-269213771D02*
X374594871Y-269213771D01*
X374452014Y-269737580D02*
X374928204Y-269737580D01*
X374928204Y-268737580D01*
X374452014Y-268737580D01*
X373452014Y-269642342D02*
X373499633Y-269689961D01*
X373642490Y-269737580D01*
X373737728Y-269737580D01*
X373880585Y-269689961D01*
X373975823Y-269594723D01*
X374023442Y-269499485D01*
X374071061Y-269309009D01*
X374071061Y-269166152D01*
X374023442Y-268975676D01*
X373975823Y-268880438D01*
X373880585Y-268785200D01*
X373737728Y-268737580D01*
X373642490Y-268737580D01*
X373499633Y-268785200D01*
X373452014Y-268832819D01*
X373166300Y-268737580D02*
X372594871Y-268737580D01*
X372880585Y-269737580D02*
X372880585Y-268737580D01*
X291941547Y-218779000D02*
X292036785Y-218731380D01*
X292179642Y-218731380D01*
X292322500Y-218779000D01*
X292417738Y-218874238D01*
X292465357Y-218969476D01*
X292512976Y-219159952D01*
X292512976Y-219302809D01*
X292465357Y-219493285D01*
X292417738Y-219588523D01*
X292322500Y-219683761D01*
X292179642Y-219731380D01*
X292084404Y-219731380D01*
X291941547Y-219683761D01*
X291893928Y-219636142D01*
X291893928Y-219302809D01*
X292084404Y-219302809D01*
X291608214Y-218731380D02*
X291036785Y-218731380D01*
X291322500Y-219731380D02*
X291322500Y-218731380D01*
X172498095Y-256879000D02*
X172593333Y-256831380D01*
X172736190Y-256831380D01*
X172879047Y-256879000D01*
X172974285Y-256974238D01*
X173021904Y-257069476D01*
X173069523Y-257259952D01*
X173069523Y-257402809D01*
X173021904Y-257593285D01*
X172974285Y-257688523D01*
X172879047Y-257783761D01*
X172736190Y-257831380D01*
X172640952Y-257831380D01*
X172498095Y-257783761D01*
X172450476Y-257736142D01*
X172450476Y-257402809D01*
X172640952Y-257402809D01*
X303442738Y-238257571D02*
X303109404Y-238257571D01*
X302966547Y-238781380D02*
X303442738Y-238781380D01*
X303442738Y-237781380D01*
X302966547Y-237781380D01*
X301871309Y-238876619D02*
X301966547Y-238829000D01*
X302061785Y-238733761D01*
X302204642Y-238590904D01*
X302299880Y-238543285D01*
X302395119Y-238543285D01*
X302347500Y-238781380D02*
X302442738Y-238733761D01*
X302537976Y-238638523D01*
X302585595Y-238448047D01*
X302585595Y-238114714D01*
X302537976Y-237924238D01*
X302442738Y-237829000D01*
X302347500Y-237781380D01*
X302157023Y-237781380D01*
X302061785Y-237829000D01*
X301966547Y-237924238D01*
X301918928Y-238114714D01*
X301918928Y-238448047D01*
X301966547Y-238638523D01*
X302061785Y-238733761D01*
X302157023Y-238781380D01*
X302347500Y-238781380D01*
X301490357Y-237781380D02*
X301490357Y-238590904D01*
X301442738Y-238686142D01*
X301395119Y-238733761D01*
X301299880Y-238781380D01*
X301109404Y-238781380D01*
X301014166Y-238733761D01*
X300966547Y-238686142D01*
X300918928Y-238590904D01*
X300918928Y-237781380D01*
X300490357Y-238495666D02*
X300014166Y-238495666D01*
X300585595Y-238781380D02*
X300252261Y-237781380D01*
X299918928Y-238781380D01*
X299109404Y-238781380D02*
X299585595Y-238781380D01*
X299585595Y-237781380D01*
X288726666Y-257831380D02*
X288726666Y-256831380D01*
X288345714Y-256831380D01*
X288250476Y-256879000D01*
X288202857Y-256926619D01*
X288155238Y-257021857D01*
X288155238Y-257164714D01*
X288202857Y-257259952D01*
X288250476Y-257307571D01*
X288345714Y-257355190D01*
X288726666Y-257355190D01*
X287250476Y-257831380D02*
X287726666Y-257831380D01*
X287726666Y-256831380D01*
X286917142Y-256831380D02*
X286917142Y-257640904D01*
X286869523Y-257736142D01*
X286821904Y-257783761D01*
X286726666Y-257831380D01*
X286536190Y-257831380D01*
X286440952Y-257783761D01*
X286393333Y-257736142D01*
X286345714Y-257640904D01*
X286345714Y-256831380D01*
X285917142Y-257783761D02*
X285774285Y-257831380D01*
X285536190Y-257831380D01*
X285440952Y-257783761D01*
X285393333Y-257736142D01*
X285345714Y-257640904D01*
X285345714Y-257545666D01*
X285393333Y-257450428D01*
X285440952Y-257402809D01*
X285536190Y-257355190D01*
X285726666Y-257307571D01*
X285821904Y-257259952D01*
X285869523Y-257212333D01*
X285917142Y-257117095D01*
X285917142Y-257021857D01*
X285869523Y-256926619D01*
X285821904Y-256879000D01*
X285726666Y-256831380D01*
X285488571Y-256831380D01*
X285345714Y-256879000D01*
X81986785Y-219731380D02*
X82558214Y-219731380D01*
X82272500Y-219731380D02*
X82272500Y-218731380D01*
X82367738Y-218874238D01*
X82462976Y-218969476D01*
X82558214Y-219017095D01*
X225147500Y-238781380D02*
X225147500Y-237781380D01*
X186999633Y-192537580D02*
X186428204Y-192537580D01*
X186713919Y-193537580D02*
X186713919Y-192537580D01*
X186094871Y-192537580D02*
X186094871Y-193347104D01*
X186047252Y-193442342D01*
X185999633Y-193489961D01*
X185904395Y-193537580D01*
X185713919Y-193537580D01*
X185618680Y-193489961D01*
X185571061Y-193442342D01*
X185523442Y-193347104D01*
X185523442Y-192537580D01*
X184475823Y-193537580D02*
X184809157Y-193061390D01*
X185047252Y-193537580D02*
X185047252Y-192537580D01*
X184666300Y-192537580D01*
X184571061Y-192585200D01*
X184523442Y-192632819D01*
X184475823Y-192728057D01*
X184475823Y-192870914D01*
X184523442Y-192966152D01*
X184571061Y-193013771D01*
X184666300Y-193061390D01*
X185047252Y-193061390D01*
X183713919Y-193013771D02*
X183571061Y-193061390D01*
X183523442Y-193109009D01*
X183475823Y-193204247D01*
X183475823Y-193347104D01*
X183523442Y-193442342D01*
X183571061Y-193489961D01*
X183666300Y-193537580D01*
X184047252Y-193537580D01*
X184047252Y-192537580D01*
X183713919Y-192537580D01*
X183618680Y-192585200D01*
X183571061Y-192632819D01*
X183523442Y-192728057D01*
X183523442Y-192823295D01*
X183571061Y-192918533D01*
X183618680Y-192966152D01*
X183713919Y-193013771D01*
X184047252Y-193013771D01*
X182856776Y-192537580D02*
X182666300Y-192537580D01*
X182571061Y-192585200D01*
X182475823Y-192680438D01*
X182428204Y-192870914D01*
X182428204Y-193204247D01*
X182475823Y-193394723D01*
X182571061Y-193489961D01*
X182666300Y-193537580D01*
X182856776Y-193537580D01*
X182952014Y-193489961D01*
X183047252Y-193394723D01*
X183094871Y-193204247D01*
X183094871Y-192870914D01*
X183047252Y-192680438D01*
X182952014Y-192585200D01*
X182856776Y-192537580D01*
X177332023Y-218731380D02*
X177522500Y-218731380D01*
X177617738Y-218779000D01*
X177665357Y-218826619D01*
X177760595Y-218969476D01*
X177808214Y-219159952D01*
X177808214Y-219540904D01*
X177760595Y-219636142D01*
X177712976Y-219683761D01*
X177617738Y-219731380D01*
X177427261Y-219731380D01*
X177332023Y-219683761D01*
X177284404Y-219636142D01*
X177236785Y-219540904D01*
X177236785Y-219302809D01*
X177284404Y-219207571D01*
X177332023Y-219159952D01*
X177427261Y-219112333D01*
X177617738Y-219112333D01*
X177712976Y-219159952D01*
X177760595Y-219207571D01*
X177808214Y-219302809D01*
X320802261Y-219207571D02*
X320659404Y-219255190D01*
X320611785Y-219302809D01*
X320564166Y-219398047D01*
X320564166Y-219540904D01*
X320611785Y-219636142D01*
X320659404Y-219683761D01*
X320754642Y-219731380D01*
X321135595Y-219731380D01*
X321135595Y-218731380D01*
X320802261Y-218731380D01*
X320707023Y-218779000D01*
X320659404Y-218826619D01*
X320611785Y-218921857D01*
X320611785Y-219017095D01*
X320659404Y-219112333D01*
X320707023Y-219159952D01*
X320802261Y-219207571D01*
X321135595Y-219207571D01*
X320183214Y-219683761D02*
X320040357Y-219731380D01*
X319802261Y-219731380D01*
X319707023Y-219683761D01*
X319659404Y-219636142D01*
X319611785Y-219540904D01*
X319611785Y-219445666D01*
X319659404Y-219350428D01*
X319707023Y-219302809D01*
X319802261Y-219255190D01*
X319992738Y-219207571D01*
X320087976Y-219159952D01*
X320135595Y-219112333D01*
X320183214Y-219017095D01*
X320183214Y-218921857D01*
X320135595Y-218826619D01*
X320087976Y-218779000D01*
X319992738Y-218731380D01*
X319754642Y-218731380D01*
X319611785Y-218779000D01*
X143875476Y-276786142D02*
X143923095Y-276833761D01*
X144065952Y-276881380D01*
X144161190Y-276881380D01*
X144304047Y-276833761D01*
X144399285Y-276738523D01*
X144446904Y-276643285D01*
X144494523Y-276452809D01*
X144494523Y-276309952D01*
X144446904Y-276119476D01*
X144399285Y-276024238D01*
X144304047Y-275929000D01*
X144161190Y-275881380D01*
X144065952Y-275881380D01*
X143923095Y-275929000D01*
X143875476Y-275976619D01*
X346535476Y-180157904D02*
X346535476Y-179357904D01*
X346345000Y-179357904D01*
X346230714Y-179396000D01*
X346154523Y-179472190D01*
X346116428Y-179548380D01*
X346078333Y-179700761D01*
X346078333Y-179815047D01*
X346116428Y-179967428D01*
X346154523Y-180043619D01*
X346230714Y-180119809D01*
X346345000Y-180157904D01*
X346535476Y-180157904D01*
X345316428Y-180157904D02*
X345773571Y-180157904D01*
X345545000Y-180157904D02*
X345545000Y-179357904D01*
X345621190Y-179472190D01*
X345697380Y-179548380D01*
X345773571Y-179586476D01*
X357970991Y-196070297D02*
X357923851Y-196164578D01*
X357923851Y-196211719D01*
X357947421Y-196282429D01*
X358018132Y-196353140D01*
X358088842Y-196376710D01*
X358135983Y-196376710D01*
X358206693Y-196353140D01*
X358395255Y-196164578D01*
X357900280Y-195669603D01*
X357735289Y-195834595D01*
X357711719Y-195905306D01*
X357711719Y-195952446D01*
X357735289Y-196023157D01*
X357782429Y-196070297D01*
X357853140Y-196093867D01*
X357900280Y-196093867D01*
X357970991Y-196070297D01*
X358135983Y-195905306D01*
X357193174Y-196376710D02*
X357287455Y-196282429D01*
X357358165Y-196258859D01*
X357405306Y-196258859D01*
X357523157Y-196282429D01*
X357641008Y-196353140D01*
X357829570Y-196541702D01*
X357853140Y-196612412D01*
X357853140Y-196659553D01*
X357829570Y-196730264D01*
X357735289Y-196824544D01*
X357664578Y-196848115D01*
X357617438Y-196848115D01*
X357546727Y-196824544D01*
X357428876Y-196706693D01*
X357405306Y-196635983D01*
X357405306Y-196588842D01*
X357428876Y-196518132D01*
X357523157Y-196423851D01*
X357593867Y-196400280D01*
X357641008Y-196400280D01*
X357711719Y-196423851D01*
X346535476Y-185237904D02*
X346535476Y-184437904D01*
X346345000Y-184437904D01*
X346230714Y-184476000D01*
X346154523Y-184552190D01*
X346116428Y-184628380D01*
X346078333Y-184780761D01*
X346078333Y-184895047D01*
X346116428Y-185047428D01*
X346154523Y-185123619D01*
X346230714Y-185199809D01*
X346345000Y-185237904D01*
X346535476Y-185237904D01*
X345392619Y-184704571D02*
X345392619Y-185237904D01*
X345583095Y-184399809D02*
X345773571Y-184971238D01*
X345278333Y-184971238D01*
X346554523Y-176856000D02*
X346630714Y-176817904D01*
X346745000Y-176817904D01*
X346859285Y-176856000D01*
X346935476Y-176932190D01*
X346973571Y-177008380D01*
X347011666Y-177160761D01*
X347011666Y-177275047D01*
X346973571Y-177427428D01*
X346935476Y-177503619D01*
X346859285Y-177579809D01*
X346745000Y-177617904D01*
X346668809Y-177617904D01*
X346554523Y-177579809D01*
X346516428Y-177541714D01*
X346516428Y-177275047D01*
X346668809Y-177275047D01*
X346173571Y-177617904D02*
X346173571Y-176817904D01*
X345716428Y-177617904D01*
X345716428Y-176817904D01*
X345335476Y-177617904D02*
X345335476Y-176817904D01*
X345145000Y-176817904D01*
X345030714Y-176856000D01*
X344954523Y-176932190D01*
X344916428Y-177008380D01*
X344878333Y-177160761D01*
X344878333Y-177275047D01*
X344916428Y-177427428D01*
X344954523Y-177503619D01*
X345030714Y-177579809D01*
X345145000Y-177617904D01*
X345335476Y-177617904D01*
X357190809Y-194978857D02*
X357076523Y-195016952D01*
X357038428Y-195055047D01*
X357000333Y-195131238D01*
X357000333Y-195245523D01*
X357038428Y-195321714D01*
X357076523Y-195359809D01*
X357152714Y-195397904D01*
X357457476Y-195397904D01*
X357457476Y-194597904D01*
X357190809Y-194597904D01*
X357114619Y-194636000D01*
X357076523Y-194674095D01*
X357038428Y-194750285D01*
X357038428Y-194826476D01*
X357076523Y-194902666D01*
X357114619Y-194940761D01*
X357190809Y-194978857D01*
X357457476Y-194978857D01*
X356695571Y-194674095D02*
X356657476Y-194636000D01*
X356581285Y-194597904D01*
X356390809Y-194597904D01*
X356314619Y-194636000D01*
X356276523Y-194674095D01*
X356238428Y-194750285D01*
X356238428Y-194826476D01*
X356276523Y-194940761D01*
X356733666Y-195397904D01*
X356238428Y-195397904D01*
X351539333Y-196291714D02*
X351577428Y-196329809D01*
X351691714Y-196367904D01*
X351767904Y-196367904D01*
X351882190Y-196329809D01*
X351958380Y-196253619D01*
X351996476Y-196177428D01*
X352034571Y-196025047D01*
X352034571Y-195910761D01*
X351996476Y-195758380D01*
X351958380Y-195682190D01*
X351882190Y-195606000D01*
X351767904Y-195567904D01*
X351691714Y-195567904D01*
X351577428Y-195606000D01*
X351539333Y-195644095D01*
X351272666Y-195567904D02*
X350739333Y-195567904D01*
X351082190Y-196367904D01*
X354212666Y-195948857D02*
X354479333Y-195948857D01*
X354479333Y-196367904D02*
X354479333Y-195567904D01*
X354098380Y-195567904D01*
X353374571Y-196367904D02*
X353831714Y-196367904D01*
X353603142Y-196367904D02*
X353603142Y-195567904D01*
X353679333Y-195682190D01*
X353755523Y-195758380D01*
X353831714Y-195796476D01*
X346497380Y-192438857D02*
X346230714Y-192438857D01*
X346116428Y-192857904D02*
X346497380Y-192857904D01*
X346497380Y-192057904D01*
X346116428Y-192057904D01*
X345430714Y-192057904D02*
X345583095Y-192057904D01*
X345659285Y-192096000D01*
X345697380Y-192134095D01*
X345773571Y-192248380D01*
X345811666Y-192400761D01*
X345811666Y-192705523D01*
X345773571Y-192781714D01*
X345735476Y-192819809D01*
X345659285Y-192857904D01*
X345506904Y-192857904D01*
X345430714Y-192819809D01*
X345392619Y-192781714D01*
X345354523Y-192705523D01*
X345354523Y-192515047D01*
X345392619Y-192438857D01*
X345430714Y-192400761D01*
X345506904Y-192362666D01*
X345659285Y-192362666D01*
X345735476Y-192400761D01*
X345773571Y-192438857D01*
X345811666Y-192515047D01*
X357476523Y-171776000D02*
X357552714Y-171737904D01*
X357667000Y-171737904D01*
X357781285Y-171776000D01*
X357857476Y-171852190D01*
X357895571Y-171928380D01*
X357933666Y-172080761D01*
X357933666Y-172195047D01*
X357895571Y-172347428D01*
X357857476Y-172423619D01*
X357781285Y-172499809D01*
X357667000Y-172537904D01*
X357590809Y-172537904D01*
X357476523Y-172499809D01*
X357438428Y-172461714D01*
X357438428Y-172195047D01*
X357590809Y-172195047D01*
X357095571Y-172537904D02*
X357095571Y-171737904D01*
X356638428Y-172537904D01*
X356638428Y-171737904D01*
X356257476Y-172537904D02*
X356257476Y-171737904D01*
X356067000Y-171737904D01*
X355952714Y-171776000D01*
X355876523Y-171852190D01*
X355838428Y-171928380D01*
X355800333Y-172080761D01*
X355800333Y-172195047D01*
X355838428Y-172347428D01*
X355876523Y-172423619D01*
X355952714Y-172499809D01*
X356067000Y-172537904D01*
X356257476Y-172537904D01*
X357133666Y-184818857D02*
X357400333Y-184818857D01*
X357400333Y-185237904D02*
X357400333Y-184437904D01*
X357019380Y-184437904D01*
X356371761Y-184437904D02*
X356524142Y-184437904D01*
X356600333Y-184476000D01*
X356638428Y-184514095D01*
X356714619Y-184628380D01*
X356752714Y-184780761D01*
X356752714Y-185085523D01*
X356714619Y-185161714D01*
X356676523Y-185199809D01*
X356600333Y-185237904D01*
X356447952Y-185237904D01*
X356371761Y-185199809D01*
X356333666Y-185161714D01*
X356295571Y-185085523D01*
X356295571Y-184895047D01*
X356333666Y-184818857D01*
X356371761Y-184780761D01*
X356447952Y-184742666D01*
X356600333Y-184742666D01*
X356676523Y-184780761D01*
X356714619Y-184818857D01*
X356752714Y-184895047D01*
X349456476Y-196367904D02*
X349456476Y-195567904D01*
X349266000Y-195567904D01*
X349151714Y-195606000D01*
X349075523Y-195682190D01*
X349037428Y-195758380D01*
X348999333Y-195910761D01*
X348999333Y-196025047D01*
X349037428Y-196177428D01*
X349075523Y-196253619D01*
X349151714Y-196329809D01*
X349266000Y-196367904D01*
X349456476Y-196367904D01*
X348275523Y-195567904D02*
X348656476Y-195567904D01*
X348694571Y-195948857D01*
X348656476Y-195910761D01*
X348580285Y-195872666D01*
X348389809Y-195872666D01*
X348313619Y-195910761D01*
X348275523Y-195948857D01*
X348237428Y-196025047D01*
X348237428Y-196215523D01*
X348275523Y-196291714D01*
X348313619Y-196329809D01*
X348389809Y-196367904D01*
X348580285Y-196367904D01*
X348656476Y-196329809D01*
X348694571Y-196291714D01*
X357133666Y-187358857D02*
X357400333Y-187358857D01*
X357400333Y-187777904D02*
X357400333Y-186977904D01*
X357019380Y-186977904D01*
X356790809Y-186977904D02*
X356257476Y-186977904D01*
X356600333Y-187777904D01*
X357190809Y-192438857D02*
X357076523Y-192476952D01*
X357038428Y-192515047D01*
X357000333Y-192591238D01*
X357000333Y-192705523D01*
X357038428Y-192781714D01*
X357076523Y-192819809D01*
X357152714Y-192857904D01*
X357457476Y-192857904D01*
X357457476Y-192057904D01*
X357190809Y-192057904D01*
X357114619Y-192096000D01*
X357076523Y-192134095D01*
X357038428Y-192210285D01*
X357038428Y-192286476D01*
X357076523Y-192362666D01*
X357114619Y-192400761D01*
X357190809Y-192438857D01*
X357457476Y-192438857D01*
X356733666Y-192057904D02*
X356238428Y-192057904D01*
X356505095Y-192362666D01*
X356390809Y-192362666D01*
X356314619Y-192400761D01*
X356276523Y-192438857D01*
X356238428Y-192515047D01*
X356238428Y-192705523D01*
X356276523Y-192781714D01*
X356314619Y-192819809D01*
X356390809Y-192857904D01*
X356619380Y-192857904D01*
X356695571Y-192819809D01*
X356733666Y-192781714D01*
X356139333Y-196156000D02*
X356372666Y-196156000D01*
X356372666Y-196522666D02*
X356372666Y-195822666D01*
X356039333Y-195822666D01*
X355639333Y-195822666D02*
X355572666Y-195822666D01*
X355506000Y-195856000D01*
X355472666Y-195889333D01*
X355439333Y-195956000D01*
X355406000Y-196089333D01*
X355406000Y-196256000D01*
X355439333Y-196389333D01*
X355472666Y-196456000D01*
X355506000Y-196489333D01*
X355572666Y-196522666D01*
X355639333Y-196522666D01*
X355706000Y-196489333D01*
X355739333Y-196456000D01*
X355772666Y-196389333D01*
X355806000Y-196256000D01*
X355806000Y-196089333D01*
X355772666Y-195956000D01*
X355739333Y-195889333D01*
X355706000Y-195856000D01*
X355639333Y-195822666D01*
X357133666Y-182278857D02*
X357400333Y-182278857D01*
X357400333Y-182697904D02*
X357400333Y-181897904D01*
X357019380Y-181897904D01*
X356333666Y-181897904D02*
X356714619Y-181897904D01*
X356752714Y-182278857D01*
X356714619Y-182240761D01*
X356638428Y-182202666D01*
X356447952Y-182202666D01*
X356371761Y-182240761D01*
X356333666Y-182278857D01*
X356295571Y-182355047D01*
X356295571Y-182545523D01*
X356333666Y-182621714D01*
X356371761Y-182659809D01*
X356447952Y-182697904D01*
X356638428Y-182697904D01*
X356714619Y-182659809D01*
X356752714Y-182621714D01*
X350024604Y-169197904D02*
X349567461Y-169197904D01*
X349796032Y-169997904D02*
X349796032Y-169197904D01*
X349376985Y-169197904D02*
X348843651Y-169997904D01*
X348843651Y-169197904D02*
X349376985Y-169997904D01*
X348386508Y-169197904D02*
X348310318Y-169197904D01*
X348234128Y-169236000D01*
X348196032Y-169274095D01*
X348157937Y-169350285D01*
X348119842Y-169502666D01*
X348119842Y-169693142D01*
X348157937Y-169845523D01*
X348196032Y-169921714D01*
X348234128Y-169959809D01*
X348310318Y-169997904D01*
X348386508Y-169997904D01*
X348462699Y-169959809D01*
X348500794Y-169921714D01*
X348538889Y-169845523D01*
X348576985Y-169693142D01*
X348576985Y-169502666D01*
X348538889Y-169350285D01*
X348500794Y-169274095D01*
X348462699Y-169236000D01*
X348386508Y-169197904D01*
X347205556Y-169159809D02*
X347891270Y-170188380D01*
X346938889Y-169997904D02*
X346938889Y-169197904D01*
X346748413Y-169197904D01*
X346634128Y-169236000D01*
X346557937Y-169312190D01*
X346519842Y-169388380D01*
X346481747Y-169540761D01*
X346481747Y-169655047D01*
X346519842Y-169807428D01*
X346557937Y-169883619D01*
X346634128Y-169959809D01*
X346748413Y-169997904D01*
X346938889Y-169997904D01*
X346215080Y-169197904D02*
X345719842Y-169197904D01*
X345986508Y-169502666D01*
X345872223Y-169502666D01*
X345796032Y-169540761D01*
X345757937Y-169578857D01*
X345719842Y-169655047D01*
X345719842Y-169845523D01*
X345757937Y-169921714D01*
X345796032Y-169959809D01*
X345872223Y-169997904D01*
X346100794Y-169997904D01*
X346176985Y-169959809D01*
X346215080Y-169921714D01*
X356979333Y-175019809D02*
X356865047Y-175057904D01*
X356674571Y-175057904D01*
X356598380Y-175019809D01*
X356560285Y-174981714D01*
X356522190Y-174905523D01*
X356522190Y-174829333D01*
X356560285Y-174753142D01*
X356598380Y-174715047D01*
X356674571Y-174676952D01*
X356826952Y-174638857D01*
X356903142Y-174600761D01*
X356941238Y-174562666D01*
X356979333Y-174486476D01*
X356979333Y-174410285D01*
X356941238Y-174334095D01*
X356903142Y-174296000D01*
X356826952Y-174257904D01*
X356636476Y-174257904D01*
X356522190Y-174296000D01*
X356293619Y-174257904D02*
X355836476Y-174257904D01*
X356065047Y-175057904D02*
X356065047Y-174257904D01*
X346078333Y-187701714D02*
X346116428Y-187739809D01*
X346230714Y-187777904D01*
X346306904Y-187777904D01*
X346421190Y-187739809D01*
X346497380Y-187663619D01*
X346535476Y-187587428D01*
X346573571Y-187435047D01*
X346573571Y-187320761D01*
X346535476Y-187168380D01*
X346497380Y-187092190D01*
X346421190Y-187016000D01*
X346306904Y-186977904D01*
X346230714Y-186977904D01*
X346116428Y-187016000D01*
X346078333Y-187054095D01*
X345392619Y-186977904D02*
X345545000Y-186977904D01*
X345621190Y-187016000D01*
X345659285Y-187054095D01*
X345735476Y-187168380D01*
X345773571Y-187320761D01*
X345773571Y-187625523D01*
X345735476Y-187701714D01*
X345697380Y-187739809D01*
X345621190Y-187777904D01*
X345468809Y-187777904D01*
X345392619Y-187739809D01*
X345354523Y-187701714D01*
X345316428Y-187625523D01*
X345316428Y-187435047D01*
X345354523Y-187358857D01*
X345392619Y-187320761D01*
X345468809Y-187282666D01*
X345621190Y-187282666D01*
X345697380Y-187320761D01*
X345735476Y-187358857D01*
X345773571Y-187435047D01*
X344770297Y-196141008D02*
X344864578Y-196188148D01*
X344911719Y-196188148D01*
X344982429Y-196164578D01*
X345053140Y-196093867D01*
X345076710Y-196023157D01*
X345076710Y-195976016D01*
X345053140Y-195905306D01*
X344864578Y-195716744D01*
X344369603Y-196211719D01*
X344534595Y-196376710D01*
X344605306Y-196400280D01*
X344652446Y-196400280D01*
X344723157Y-196376710D01*
X344770297Y-196329570D01*
X344793867Y-196258859D01*
X344793867Y-196211719D01*
X344770297Y-196141008D01*
X344605306Y-195976016D01*
X345100280Y-196942396D02*
X344864578Y-196706693D01*
X345076710Y-196447421D01*
X345076710Y-196494561D01*
X345100280Y-196565272D01*
X345218132Y-196683123D01*
X345288842Y-196706693D01*
X345335983Y-196706693D01*
X345406693Y-196683123D01*
X345524544Y-196565272D01*
X345548115Y-196494561D01*
X345548115Y-196447421D01*
X345524544Y-196376710D01*
X345406693Y-196258859D01*
X345335983Y-196235289D01*
X345288842Y-196235289D01*
X346535476Y-172537904D02*
X346535476Y-171737904D01*
X346345000Y-171737904D01*
X346230714Y-171776000D01*
X346154523Y-171852190D01*
X346116428Y-171928380D01*
X346078333Y-172080761D01*
X346078333Y-172195047D01*
X346116428Y-172347428D01*
X346154523Y-172423619D01*
X346230714Y-172499809D01*
X346345000Y-172537904D01*
X346535476Y-172537904D01*
X345773571Y-171814095D02*
X345735476Y-171776000D01*
X345659285Y-171737904D01*
X345468809Y-171737904D01*
X345392619Y-171776000D01*
X345354523Y-171814095D01*
X345316428Y-171890285D01*
X345316428Y-171966476D01*
X345354523Y-172080761D01*
X345811666Y-172537904D01*
X345316428Y-172537904D01*
X346268809Y-194978857D02*
X346154523Y-195016952D01*
X346116428Y-195055047D01*
X346078333Y-195131238D01*
X346078333Y-195245523D01*
X346116428Y-195321714D01*
X346154523Y-195359809D01*
X346230714Y-195397904D01*
X346535476Y-195397904D01*
X346535476Y-194597904D01*
X346268809Y-194597904D01*
X346192619Y-194636000D01*
X346154523Y-194674095D01*
X346116428Y-194750285D01*
X346116428Y-194826476D01*
X346154523Y-194902666D01*
X346192619Y-194940761D01*
X346268809Y-194978857D01*
X346535476Y-194978857D01*
X345392619Y-194864571D02*
X345392619Y-195397904D01*
X345583095Y-194559809D02*
X345773571Y-195131238D01*
X345278333Y-195131238D01*
X357190809Y-169578857D02*
X357076523Y-169616952D01*
X357038428Y-169655047D01*
X357000333Y-169731238D01*
X357000333Y-169845523D01*
X357038428Y-169921714D01*
X357076523Y-169959809D01*
X357152714Y-169997904D01*
X357457476Y-169997904D01*
X357457476Y-169197904D01*
X357190809Y-169197904D01*
X357114619Y-169236000D01*
X357076523Y-169274095D01*
X357038428Y-169350285D01*
X357038428Y-169426476D01*
X357076523Y-169502666D01*
X357114619Y-169540761D01*
X357190809Y-169578857D01*
X357457476Y-169578857D01*
X356505095Y-169197904D02*
X356428904Y-169197904D01*
X356352714Y-169236000D01*
X356314619Y-169274095D01*
X356276523Y-169350285D01*
X356238428Y-169502666D01*
X356238428Y-169693142D01*
X356276523Y-169845523D01*
X356314619Y-169921714D01*
X356352714Y-169959809D01*
X356428904Y-169997904D01*
X356505095Y-169997904D01*
X356581285Y-169959809D01*
X356619380Y-169921714D01*
X356657476Y-169845523D01*
X356695571Y-169693142D01*
X356695571Y-169502666D01*
X356657476Y-169350285D01*
X356619380Y-169274095D01*
X356581285Y-169236000D01*
X356505095Y-169197904D01*
X346535476Y-182697904D02*
X346535476Y-181897904D01*
X346345000Y-181897904D01*
X346230714Y-181936000D01*
X346154523Y-182012190D01*
X346116428Y-182088380D01*
X346078333Y-182240761D01*
X346078333Y-182355047D01*
X346116428Y-182507428D01*
X346154523Y-182583619D01*
X346230714Y-182659809D01*
X346345000Y-182697904D01*
X346535476Y-182697904D01*
X345583095Y-181897904D02*
X345506904Y-181897904D01*
X345430714Y-181936000D01*
X345392619Y-181974095D01*
X345354523Y-182050285D01*
X345316428Y-182202666D01*
X345316428Y-182393142D01*
X345354523Y-182545523D01*
X345392619Y-182621714D01*
X345430714Y-182659809D01*
X345506904Y-182697904D01*
X345583095Y-182697904D01*
X345659285Y-182659809D01*
X345697380Y-182621714D01*
X345735476Y-182545523D01*
X345773571Y-182393142D01*
X345773571Y-182202666D01*
X345735476Y-182050285D01*
X345697380Y-181974095D01*
X345659285Y-181936000D01*
X345583095Y-181897904D01*
X346554523Y-174316000D02*
X346630714Y-174277904D01*
X346745000Y-174277904D01*
X346859285Y-174316000D01*
X346935476Y-174392190D01*
X346973571Y-174468380D01*
X347011666Y-174620761D01*
X347011666Y-174735047D01*
X346973571Y-174887428D01*
X346935476Y-174963619D01*
X346859285Y-175039809D01*
X346745000Y-175077904D01*
X346668809Y-175077904D01*
X346554523Y-175039809D01*
X346516428Y-175001714D01*
X346516428Y-174735047D01*
X346668809Y-174735047D01*
X346173571Y-175077904D02*
X346173571Y-174277904D01*
X345716428Y-175077904D01*
X345716428Y-174277904D01*
X345335476Y-175077904D02*
X345335476Y-174277904D01*
X345145000Y-174277904D01*
X345030714Y-174316000D01*
X344954523Y-174392190D01*
X344916428Y-174468380D01*
X344878333Y-174620761D01*
X344878333Y-174735047D01*
X344916428Y-174887428D01*
X344954523Y-174963619D01*
X345030714Y-175039809D01*
X345145000Y-175077904D01*
X345335476Y-175077904D01*
X357133666Y-179738857D02*
X357400333Y-179738857D01*
X357400333Y-180157904D02*
X357400333Y-179357904D01*
X357019380Y-179357904D01*
X356371761Y-179624571D02*
X356371761Y-180157904D01*
X356562238Y-179319809D02*
X356752714Y-179891238D01*
X356257476Y-179891238D01*
X347189333Y-196156000D02*
X347089333Y-196189333D01*
X347056000Y-196222666D01*
X347022666Y-196289333D01*
X347022666Y-196389333D01*
X347056000Y-196456000D01*
X347089333Y-196489333D01*
X347156000Y-196522666D01*
X347422666Y-196522666D01*
X347422666Y-195822666D01*
X347189333Y-195822666D01*
X347122666Y-195856000D01*
X347089333Y-195889333D01*
X347056000Y-195956000D01*
X347056000Y-196022666D01*
X347089333Y-196089333D01*
X347122666Y-196122666D01*
X347189333Y-196156000D01*
X347422666Y-196156000D01*
X346789333Y-195822666D02*
X346322666Y-195822666D01*
X346622666Y-196522666D01*
X357190809Y-189898857D02*
X357076523Y-189936952D01*
X357038428Y-189975047D01*
X357000333Y-190051238D01*
X357000333Y-190165523D01*
X357038428Y-190241714D01*
X357076523Y-190279809D01*
X357152714Y-190317904D01*
X357457476Y-190317904D01*
X357457476Y-189517904D01*
X357190809Y-189517904D01*
X357114619Y-189556000D01*
X357076523Y-189594095D01*
X357038428Y-189670285D01*
X357038428Y-189746476D01*
X357076523Y-189822666D01*
X357114619Y-189860761D01*
X357190809Y-189898857D01*
X357457476Y-189898857D01*
X356238428Y-190317904D02*
X356695571Y-190317904D01*
X356467000Y-190317904D02*
X356467000Y-189517904D01*
X356543190Y-189632190D01*
X356619380Y-189708380D01*
X356695571Y-189746476D01*
X346535476Y-190317904D02*
X346535476Y-189517904D01*
X346345000Y-189517904D01*
X346230714Y-189556000D01*
X346154523Y-189632190D01*
X346116428Y-189708380D01*
X346078333Y-189860761D01*
X346078333Y-189975047D01*
X346116428Y-190127428D01*
X346154523Y-190203619D01*
X346230714Y-190279809D01*
X346345000Y-190317904D01*
X346535476Y-190317904D01*
X345811666Y-189517904D02*
X345278333Y-189517904D01*
X345621190Y-190317904D01*
X357933666Y-176817904D02*
X357667000Y-177617904D01*
X357400333Y-176817904D01*
X356676523Y-177541714D02*
X356714619Y-177579809D01*
X356828904Y-177617904D01*
X356905095Y-177617904D01*
X357019380Y-177579809D01*
X357095571Y-177503619D01*
X357133666Y-177427428D01*
X357171761Y-177275047D01*
X357171761Y-177160761D01*
X357133666Y-177008380D01*
X357095571Y-176932190D01*
X357019380Y-176856000D01*
X356905095Y-176817904D01*
X356828904Y-176817904D01*
X356714619Y-176856000D01*
X356676523Y-176894095D01*
X355876523Y-177541714D02*
X355914619Y-177579809D01*
X356028904Y-177617904D01*
X356105095Y-177617904D01*
X356219380Y-177579809D01*
X356295571Y-177503619D01*
X356333666Y-177427428D01*
X356371761Y-177275047D01*
X356371761Y-177160761D01*
X356333666Y-177008380D01*
X356295571Y-176932190D01*
X356219380Y-176856000D01*
X356105095Y-176817904D01*
X356028904Y-176817904D01*
X355914619Y-176856000D01*
X355876523Y-176894095D01*
X279654047Y-276833761D02*
X279511190Y-276881380D01*
X279273095Y-276881380D01*
X279177857Y-276833761D01*
X279130238Y-276786142D01*
X279082619Y-276690904D01*
X279082619Y-276595666D01*
X279130238Y-276500428D01*
X279177857Y-276452809D01*
X279273095Y-276405190D01*
X279463571Y-276357571D01*
X279558809Y-276309952D01*
X279606428Y-276262333D01*
X279654047Y-276167095D01*
X279654047Y-276071857D01*
X279606428Y-275976619D01*
X279558809Y-275929000D01*
X279463571Y-275881380D01*
X279225476Y-275881380D01*
X279082619Y-275929000D01*
X278177857Y-276881380D02*
X278654047Y-276881380D01*
X278654047Y-275881380D01*
X277892142Y-276595666D02*
X277415952Y-276595666D01*
X277987380Y-276881380D02*
X277654047Y-275881380D01*
X277320714Y-276881380D01*
X277035000Y-276833761D02*
X276892142Y-276881380D01*
X276654047Y-276881380D01*
X276558809Y-276833761D01*
X276511190Y-276786142D01*
X276463571Y-276690904D01*
X276463571Y-276595666D01*
X276511190Y-276500428D01*
X276558809Y-276452809D01*
X276654047Y-276405190D01*
X276844523Y-276357571D01*
X276939761Y-276309952D01*
X276987380Y-276262333D01*
X277035000Y-276167095D01*
X277035000Y-276071857D01*
X276987380Y-275976619D01*
X276939761Y-275929000D01*
X276844523Y-275881380D01*
X276606428Y-275881380D01*
X276463571Y-275929000D01*
X276035000Y-276881380D02*
X276035000Y-275881380D01*
X276035000Y-276357571D02*
X275463571Y-276357571D01*
X275463571Y-276881380D02*
X275463571Y-275881380D01*
X241220714Y-276786142D02*
X241268333Y-276833761D01*
X241411190Y-276881380D01*
X241506428Y-276881380D01*
X241649285Y-276833761D01*
X241744523Y-276738523D01*
X241792142Y-276643285D01*
X241839761Y-276452809D01*
X241839761Y-276309952D01*
X241792142Y-276119476D01*
X241744523Y-276024238D01*
X241649285Y-275929000D01*
X241506428Y-275881380D01*
X241411190Y-275881380D01*
X241268333Y-275929000D01*
X241220714Y-275976619D01*
X240601666Y-275881380D02*
X240411190Y-275881380D01*
X240315952Y-275929000D01*
X240220714Y-276024238D01*
X240173095Y-276214714D01*
X240173095Y-276548047D01*
X240220714Y-276738523D01*
X240315952Y-276833761D01*
X240411190Y-276881380D01*
X240601666Y-276881380D01*
X240696904Y-276833761D01*
X240792142Y-276738523D01*
X240839761Y-276548047D01*
X240839761Y-276214714D01*
X240792142Y-276024238D01*
X240696904Y-275929000D01*
X240601666Y-275881380D01*
X239744523Y-276881380D02*
X239744523Y-275881380D01*
X239411190Y-276595666D01*
X239077857Y-275881380D01*
X239077857Y-276881380D01*
X238601666Y-276881380D02*
X238601666Y-275881380D01*
X238268333Y-276595666D01*
X237935000Y-275881380D01*
X237935000Y-276881380D01*
X237506428Y-276595666D02*
X237030238Y-276595666D01*
X237601666Y-276881380D02*
X237268333Y-275881380D01*
X236935000Y-276881380D01*
X91416547Y-238876619D02*
X91511785Y-238829000D01*
X91607023Y-238733761D01*
X91749880Y-238590904D01*
X91845119Y-238543285D01*
X91940357Y-238543285D01*
X91892738Y-238781380D02*
X91987976Y-238733761D01*
X92083214Y-238638523D01*
X92130833Y-238448047D01*
X92130833Y-238114714D01*
X92083214Y-237924238D01*
X91987976Y-237829000D01*
X91892738Y-237781380D01*
X91702261Y-237781380D01*
X91607023Y-237829000D01*
X91511785Y-237924238D01*
X91464166Y-238114714D01*
X91464166Y-238448047D01*
X91511785Y-238638523D01*
X91607023Y-238733761D01*
X91702261Y-238781380D01*
X91892738Y-238781380D01*
X125063323Y-193537580D02*
X125063323Y-192537580D01*
X124682371Y-192537580D01*
X124587133Y-192585200D01*
X124539514Y-192632819D01*
X124491895Y-192728057D01*
X124491895Y-192870914D01*
X124539514Y-192966152D01*
X124587133Y-193013771D01*
X124682371Y-193061390D01*
X125063323Y-193061390D01*
X123872847Y-192537580D02*
X123682371Y-192537580D01*
X123587133Y-192585200D01*
X123491895Y-192680438D01*
X123444276Y-192870914D01*
X123444276Y-193204247D01*
X123491895Y-193394723D01*
X123587133Y-193489961D01*
X123682371Y-193537580D01*
X123872847Y-193537580D01*
X123968085Y-193489961D01*
X124063323Y-193394723D01*
X124110942Y-193204247D01*
X124110942Y-192870914D01*
X124063323Y-192680438D01*
X123968085Y-192585200D01*
X123872847Y-192537580D01*
X123110942Y-192537580D02*
X122872847Y-193537580D01*
X122682371Y-192823295D01*
X122491895Y-193537580D01*
X122253800Y-192537580D01*
X121872847Y-193013771D02*
X121539514Y-193013771D01*
X121396657Y-193537580D02*
X121872847Y-193537580D01*
X121872847Y-192537580D01*
X121396657Y-192537580D01*
X120396657Y-193537580D02*
X120729990Y-193061390D01*
X120968085Y-193537580D02*
X120968085Y-192537580D01*
X120587133Y-192537580D01*
X120491895Y-192585200D01*
X120444276Y-192632819D01*
X120396657Y-192728057D01*
X120396657Y-192870914D01*
X120444276Y-192966152D01*
X120491895Y-193013771D01*
X120587133Y-193061390D01*
X120968085Y-193061390D01*
X162687133Y-193537580D02*
X162687133Y-192537580D01*
X162353800Y-193251866D01*
X162020466Y-192537580D01*
X162020466Y-193537580D01*
X161544276Y-193013771D02*
X161210942Y-193013771D01*
X161068085Y-193537580D02*
X161544276Y-193537580D01*
X161544276Y-192537580D01*
X161068085Y-192537580D01*
X160639514Y-193537580D02*
X160639514Y-192537580D01*
X160068085Y-193537580D01*
X160068085Y-192537580D01*
X159591895Y-192537580D02*
X159591895Y-193347104D01*
X159544276Y-193442342D01*
X159496657Y-193489961D01*
X159401419Y-193537580D01*
X159210942Y-193537580D01*
X159115704Y-193489961D01*
X159068085Y-193442342D01*
X159020466Y-193347104D01*
X159020466Y-192537580D01*
X308419523Y-257545666D02*
X307943333Y-257545666D01*
X308514761Y-257831380D02*
X308181428Y-256831380D01*
X307848095Y-257831380D01*
X307562380Y-257783761D02*
X307419523Y-257831380D01*
X307181428Y-257831380D01*
X307086190Y-257783761D01*
X307038571Y-257736142D01*
X306990952Y-257640904D01*
X306990952Y-257545666D01*
X307038571Y-257450428D01*
X307086190Y-257402809D01*
X307181428Y-257355190D01*
X307371904Y-257307571D01*
X307467142Y-257259952D01*
X307514761Y-257212333D01*
X307562380Y-257117095D01*
X307562380Y-257021857D01*
X307514761Y-256926619D01*
X307467142Y-256879000D01*
X307371904Y-256831380D01*
X307133809Y-256831380D01*
X306990952Y-256879000D01*
X306705238Y-256831380D02*
X306133809Y-256831380D01*
X306419523Y-257831380D02*
X306419523Y-256831380D01*
X305229047Y-257831380D02*
X305562380Y-257355190D01*
X305800476Y-257831380D02*
X305800476Y-256831380D01*
X305419523Y-256831380D01*
X305324285Y-256879000D01*
X305276666Y-256926619D01*
X305229047Y-257021857D01*
X305229047Y-257164714D01*
X305276666Y-257259952D01*
X305324285Y-257307571D01*
X305419523Y-257355190D01*
X305800476Y-257355190D01*
X304800476Y-257831380D02*
X304800476Y-256831380D01*
X304419523Y-256831380D02*
X303752857Y-257831380D01*
X303752857Y-256831380D02*
X304419523Y-257831380D01*
X376618680Y-222112580D02*
X376952014Y-221636390D01*
X377190109Y-222112580D02*
X377190109Y-221112580D01*
X376809157Y-221112580D01*
X376713919Y-221160200D01*
X376666300Y-221207819D01*
X376618680Y-221303057D01*
X376618680Y-221445914D01*
X376666300Y-221541152D01*
X376713919Y-221588771D01*
X376809157Y-221636390D01*
X377190109Y-221636390D01*
X376190109Y-221588771D02*
X375856776Y-221588771D01*
X375713919Y-222112580D02*
X376190109Y-222112580D01*
X376190109Y-221112580D01*
X375713919Y-221112580D01*
X375332966Y-222064961D02*
X375190109Y-222112580D01*
X374952014Y-222112580D01*
X374856776Y-222064961D01*
X374809157Y-222017342D01*
X374761538Y-221922104D01*
X374761538Y-221826866D01*
X374809157Y-221731628D01*
X374856776Y-221684009D01*
X374952014Y-221636390D01*
X375142490Y-221588771D01*
X375237728Y-221541152D01*
X375285347Y-221493533D01*
X375332966Y-221398295D01*
X375332966Y-221303057D01*
X375285347Y-221207819D01*
X375237728Y-221160200D01*
X375142490Y-221112580D01*
X374904395Y-221112580D01*
X374761538Y-221160200D01*
X374332966Y-221588771D02*
X373999633Y-221588771D01*
X373856776Y-222112580D02*
X374332966Y-222112580D01*
X374332966Y-221112580D01*
X373856776Y-221112580D01*
X373571061Y-221112580D02*
X372999633Y-221112580D01*
X373285347Y-222112580D02*
X373285347Y-221112580D01*
X182213571Y-276357571D02*
X182070714Y-276405190D01*
X182023095Y-276452809D01*
X181975476Y-276548047D01*
X181975476Y-276690904D01*
X182023095Y-276786142D01*
X182070714Y-276833761D01*
X182165952Y-276881380D01*
X182546904Y-276881380D01*
X182546904Y-275881380D01*
X182213571Y-275881380D01*
X182118333Y-275929000D01*
X182070714Y-275976619D01*
X182023095Y-276071857D01*
X182023095Y-276167095D01*
X182070714Y-276262333D01*
X182118333Y-276309952D01*
X182213571Y-276357571D01*
X182546904Y-276357571D01*
X253770119Y-218731380D02*
X253674880Y-218731380D01*
X253579642Y-218779000D01*
X253532023Y-218826619D01*
X253484404Y-218921857D01*
X253436785Y-219112333D01*
X253436785Y-219350428D01*
X253484404Y-219540904D01*
X253532023Y-219636142D01*
X253579642Y-219683761D01*
X253674880Y-219731380D01*
X253770119Y-219731380D01*
X253865357Y-219683761D01*
X253912976Y-219636142D01*
X253960595Y-219540904D01*
X254008214Y-219350428D01*
X254008214Y-219112333D01*
X253960595Y-218921857D01*
X253912976Y-218826619D01*
X253865357Y-218779000D01*
X253770119Y-218731380D01*
X269557619Y-257783761D02*
X269414761Y-257831380D01*
X269176666Y-257831380D01*
X269081428Y-257783761D01*
X269033809Y-257736142D01*
X268986190Y-257640904D01*
X268986190Y-257545666D01*
X269033809Y-257450428D01*
X269081428Y-257402809D01*
X269176666Y-257355190D01*
X269367142Y-257307571D01*
X269462380Y-257259952D01*
X269510000Y-257212333D01*
X269557619Y-257117095D01*
X269557619Y-257021857D01*
X269510000Y-256926619D01*
X269462380Y-256879000D01*
X269367142Y-256831380D01*
X269129047Y-256831380D01*
X268986190Y-256879000D01*
X268557619Y-257307571D02*
X268224285Y-257307571D01*
X268081428Y-257831380D02*
X268557619Y-257831380D01*
X268557619Y-256831380D01*
X268081428Y-256831380D01*
X267652857Y-257831380D02*
X267652857Y-256831380D01*
X267319523Y-257545666D01*
X266986190Y-256831380D01*
X266986190Y-257831380D01*
X266510000Y-257831380D02*
X266510000Y-256831380D01*
X187047500Y-238305190D02*
X187047500Y-238781380D01*
X187380833Y-237781380D02*
X187047500Y-238305190D01*
X186714166Y-237781380D01*
X68961190Y-257736142D02*
X69008809Y-257783761D01*
X69151666Y-257831380D01*
X69246904Y-257831380D01*
X69389761Y-257783761D01*
X69485000Y-257688523D01*
X69532619Y-257593285D01*
X69580238Y-257402809D01*
X69580238Y-257259952D01*
X69532619Y-257069476D01*
X69485000Y-256974238D01*
X69389761Y-256879000D01*
X69246904Y-256831380D01*
X69151666Y-256831380D01*
X69008809Y-256879000D01*
X68961190Y-256926619D01*
X68675476Y-256831380D02*
X68104047Y-256831380D01*
X68389761Y-257831380D02*
X68389761Y-256831380D01*
X67199285Y-257831380D02*
X67532619Y-257355190D01*
X67770714Y-257831380D02*
X67770714Y-256831380D01*
X67389761Y-256831380D01*
X67294523Y-256879000D01*
X67246904Y-256926619D01*
X67199285Y-257021857D01*
X67199285Y-257164714D01*
X67246904Y-257259952D01*
X67294523Y-257307571D01*
X67389761Y-257355190D01*
X67770714Y-257355190D01*
X66294523Y-257831380D02*
X66770714Y-257831380D01*
X66770714Y-256831380D01*
X210717142Y-256831380D02*
X210717142Y-257545666D01*
X210764761Y-257688523D01*
X210860000Y-257783761D01*
X211002857Y-257831380D01*
X211098095Y-257831380D01*
X106418333Y-275881380D02*
X105751666Y-275881380D01*
X106418333Y-276881380D01*
X105751666Y-276881380D01*
X96940952Y-295407571D02*
X97274285Y-295407571D01*
X97274285Y-295931380D02*
X97274285Y-294931380D01*
X96798095Y-294931380D01*
X96417142Y-295931380D02*
X96417142Y-294931380D01*
X95845714Y-295931380D01*
X95845714Y-294931380D01*
X332112976Y-295836142D02*
X332160595Y-295883761D01*
X332303452Y-295931380D01*
X332398690Y-295931380D01*
X332541547Y-295883761D01*
X332636785Y-295788523D01*
X332684404Y-295693285D01*
X332732023Y-295502809D01*
X332732023Y-295359952D01*
X332684404Y-295169476D01*
X332636785Y-295074238D01*
X332541547Y-294979000D01*
X332398690Y-294931380D01*
X332303452Y-294931380D01*
X332160595Y-294979000D01*
X332112976Y-295026619D01*
X331922500Y-296026619D02*
X331160595Y-296026619D01*
X330922500Y-295931380D02*
X330922500Y-294931380D01*
X330684404Y-294931380D01*
X330541547Y-294979000D01*
X330446309Y-295074238D01*
X330398690Y-295169476D01*
X330351071Y-295359952D01*
X330351071Y-295502809D01*
X330398690Y-295693285D01*
X330446309Y-295788523D01*
X330541547Y-295883761D01*
X330684404Y-295931380D01*
X330922500Y-295931380D01*
X329732023Y-294931380D02*
X329541547Y-294931380D01*
X329446309Y-294979000D01*
X329351071Y-295074238D01*
X329303452Y-295264714D01*
X329303452Y-295598047D01*
X329351071Y-295788523D01*
X329446309Y-295883761D01*
X329541547Y-295931380D01*
X329732023Y-295931380D01*
X329827261Y-295883761D01*
X329922500Y-295788523D01*
X329970119Y-295598047D01*
X329970119Y-295264714D01*
X329922500Y-295074238D01*
X329827261Y-294979000D01*
X329732023Y-294931380D01*
X328970119Y-294931380D02*
X328732023Y-295931380D01*
X328541547Y-295217095D01*
X328351071Y-295931380D01*
X328112976Y-294931380D01*
X327732023Y-295931380D02*
X327732023Y-294931380D01*
X327160595Y-295931380D01*
X327160595Y-294931380D01*
X351186785Y-295836142D02*
X351234404Y-295883761D01*
X351377261Y-295931380D01*
X351472500Y-295931380D01*
X351615357Y-295883761D01*
X351710595Y-295788523D01*
X351758214Y-295693285D01*
X351805833Y-295502809D01*
X351805833Y-295359952D01*
X351758214Y-295169476D01*
X351710595Y-295074238D01*
X351615357Y-294979000D01*
X351472500Y-294931380D01*
X351377261Y-294931380D01*
X351234404Y-294979000D01*
X351186785Y-295026619D01*
X350996309Y-296026619D02*
X350234404Y-296026619D01*
X349424880Y-295931380D02*
X349758214Y-295455190D01*
X349996309Y-295931380D02*
X349996309Y-294931380D01*
X349615357Y-294931380D01*
X349520119Y-294979000D01*
X349472500Y-295026619D01*
X349424880Y-295121857D01*
X349424880Y-295264714D01*
X349472500Y-295359952D01*
X349520119Y-295407571D01*
X349615357Y-295455190D01*
X349996309Y-295455190D01*
X348996309Y-295931380D02*
X348996309Y-294931380D01*
X347996309Y-294979000D02*
X348091547Y-294931380D01*
X348234404Y-294931380D01*
X348377261Y-294979000D01*
X348472500Y-295074238D01*
X348520119Y-295169476D01*
X348567738Y-295359952D01*
X348567738Y-295502809D01*
X348520119Y-295693285D01*
X348472500Y-295788523D01*
X348377261Y-295883761D01*
X348234404Y-295931380D01*
X348139166Y-295931380D01*
X347996309Y-295883761D01*
X347948690Y-295836142D01*
X347948690Y-295502809D01*
X348139166Y-295502809D01*
X347520119Y-295931380D02*
X347520119Y-294931380D01*
X347520119Y-295407571D02*
X346948690Y-295407571D01*
X346948690Y-295931380D02*
X346948690Y-294931380D01*
X346615357Y-294931380D02*
X346043928Y-294931380D01*
X346329642Y-295931380D02*
X346329642Y-294931380D01*
X263509404Y-238781380D02*
X263509404Y-237781380D01*
X263128452Y-237781380D01*
X263033214Y-237829000D01*
X262985595Y-237876619D01*
X262937976Y-237971857D01*
X262937976Y-238114714D01*
X262985595Y-238209952D01*
X263033214Y-238257571D01*
X263128452Y-238305190D01*
X263509404Y-238305190D01*
X312610595Y-295836142D02*
X312658214Y-295883761D01*
X312801071Y-295931380D01*
X312896309Y-295931380D01*
X313039166Y-295883761D01*
X313134404Y-295788523D01*
X313182023Y-295693285D01*
X313229642Y-295502809D01*
X313229642Y-295359952D01*
X313182023Y-295169476D01*
X313134404Y-295074238D01*
X313039166Y-294979000D01*
X312896309Y-294931380D01*
X312801071Y-294931380D01*
X312658214Y-294979000D01*
X312610595Y-295026619D01*
X312420119Y-296026619D02*
X311658214Y-296026619D01*
X310943928Y-295931380D02*
X311420119Y-295931380D01*
X311420119Y-294931380D01*
X310610595Y-295407571D02*
X310277261Y-295407571D01*
X310134404Y-295931380D02*
X310610595Y-295931380D01*
X310610595Y-294931380D01*
X310134404Y-294931380D01*
X309372500Y-295407571D02*
X309705833Y-295407571D01*
X309705833Y-295931380D02*
X309705833Y-294931380D01*
X309229642Y-294931380D01*
X308991547Y-294931380D02*
X308420119Y-294931380D01*
X308705833Y-295931380D02*
X308705833Y-294931380D01*
X201620714Y-276881380D02*
X201620714Y-275881380D01*
X201049285Y-276881380D01*
X201049285Y-275881380D01*
X325683809Y-238781380D02*
X326017142Y-238305190D01*
X326255238Y-238781380D02*
X326255238Y-237781380D01*
X325874285Y-237781380D01*
X325779047Y-237829000D01*
X325731428Y-237876619D01*
X325683809Y-237971857D01*
X325683809Y-238114714D01*
X325731428Y-238209952D01*
X325779047Y-238257571D01*
X325874285Y-238305190D01*
X326255238Y-238305190D01*
X325255238Y-238257571D02*
X324921904Y-238257571D01*
X324779047Y-238781380D02*
X325255238Y-238781380D01*
X325255238Y-237781380D01*
X324779047Y-237781380D01*
X324493333Y-237781380D02*
X323921904Y-237781380D01*
X324207619Y-238781380D02*
X324207619Y-237781380D01*
X248650476Y-257831380D02*
X249126666Y-257831380D01*
X249126666Y-256831380D01*
X62031776Y-219207571D02*
X61698442Y-219207571D01*
X61555585Y-219731380D02*
X62031776Y-219731380D01*
X62031776Y-218731380D01*
X61555585Y-218731380D01*
X61174633Y-219683761D02*
X61031776Y-219731380D01*
X60793680Y-219731380D01*
X60698442Y-219683761D01*
X60650823Y-219636142D01*
X60603204Y-219540904D01*
X60603204Y-219445666D01*
X60650823Y-219350428D01*
X60698442Y-219302809D01*
X60793680Y-219255190D01*
X60984157Y-219207571D01*
X61079395Y-219159952D01*
X61127014Y-219112333D01*
X61174633Y-219017095D01*
X61174633Y-218921857D01*
X61127014Y-218826619D01*
X61079395Y-218779000D01*
X60984157Y-218731380D01*
X60746061Y-218731380D01*
X60603204Y-218779000D01*
X59603204Y-219636142D02*
X59650823Y-219683761D01*
X59793680Y-219731380D01*
X59888919Y-219731380D01*
X60031776Y-219683761D01*
X60127014Y-219588523D01*
X60174633Y-219493285D01*
X60222252Y-219302809D01*
X60222252Y-219159952D01*
X60174633Y-218969476D01*
X60127014Y-218874238D01*
X60031776Y-218779000D01*
X59888919Y-218731380D01*
X59793680Y-218731380D01*
X59650823Y-218779000D01*
X59603204Y-218826619D01*
X111276071Y-237781380D02*
X111037976Y-238781380D01*
X110847500Y-238067095D01*
X110657023Y-238781380D01*
X110418928Y-237781380D01*
X196905833Y-218731380D02*
X196239166Y-218731380D01*
X196667738Y-219731380D01*
X96798095Y-257545666D02*
X96321904Y-257545666D01*
X96893333Y-257831380D02*
X96560000Y-256831380D01*
X96226666Y-257831380D01*
X125468333Y-275881380D02*
X124801666Y-276881380D01*
X124801666Y-275881380D02*
X125468333Y-276881380D01*
X206383214Y-237781380D02*
X206383214Y-238590904D01*
X206335595Y-238686142D01*
X206287976Y-238733761D01*
X206192738Y-238781380D01*
X206002261Y-238781380D01*
X205907023Y-238733761D01*
X205859404Y-238686142D01*
X205811785Y-238590904D01*
X205811785Y-237781380D01*
X304681180Y-193537580D02*
X304681180Y-192537580D01*
X304204990Y-193537580D02*
X304204990Y-192537580D01*
X303633561Y-193537580D01*
X303633561Y-192537580D01*
X303300228Y-192537580D02*
X302966895Y-193537580D01*
X302633561Y-192537580D01*
X305466895Y-276881380D02*
X305800228Y-276405190D01*
X306038323Y-276881380D02*
X306038323Y-275881380D01*
X305657371Y-275881380D01*
X305562133Y-275929000D01*
X305514514Y-275976619D01*
X305466895Y-276071857D01*
X305466895Y-276214714D01*
X305514514Y-276309952D01*
X305562133Y-276357571D01*
X305657371Y-276405190D01*
X306038323Y-276405190D01*
X305085942Y-276833761D02*
X304943085Y-276881380D01*
X304704990Y-276881380D01*
X304609752Y-276833761D01*
X304562133Y-276786142D01*
X304514514Y-276690904D01*
X304514514Y-276595666D01*
X304562133Y-276500428D01*
X304609752Y-276452809D01*
X304704990Y-276405190D01*
X304895466Y-276357571D01*
X304990704Y-276309952D01*
X305038323Y-276262333D01*
X305085942Y-276167095D01*
X305085942Y-276071857D01*
X305038323Y-275976619D01*
X304990704Y-275929000D01*
X304895466Y-275881380D01*
X304657371Y-275881380D01*
X304514514Y-275929000D01*
X304085942Y-276881380D02*
X304085942Y-275881380D01*
X304085942Y-276357571D02*
X303514514Y-276357571D01*
X303514514Y-276881380D02*
X303514514Y-275881380D01*
X303038323Y-276881380D02*
X303038323Y-275881380D01*
X302228800Y-276357571D02*
X302562133Y-276357571D01*
X302562133Y-276881380D02*
X302562133Y-275881380D01*
X302085942Y-275881380D01*
X301847847Y-275881380D02*
X301276419Y-275881380D01*
X301562133Y-276881380D02*
X301562133Y-275881380D01*
X76866895Y-276881380D02*
X77343085Y-276881380D01*
X77343085Y-275881380D01*
X76581180Y-276833761D02*
X76438323Y-276881380D01*
X76200228Y-276881380D01*
X76104990Y-276833761D01*
X76057371Y-276786142D01*
X76009752Y-276690904D01*
X76009752Y-276595666D01*
X76057371Y-276500428D01*
X76104990Y-276452809D01*
X76200228Y-276405190D01*
X76390704Y-276357571D01*
X76485942Y-276309952D01*
X76533561Y-276262333D01*
X76581180Y-276167095D01*
X76581180Y-276071857D01*
X76533561Y-275976619D01*
X76485942Y-275929000D01*
X76390704Y-275881380D01*
X76152609Y-275881380D01*
X76009752Y-275929000D01*
X75581180Y-276881380D02*
X75581180Y-275881380D01*
X75581180Y-276357571D02*
X75009752Y-276357571D01*
X75009752Y-276881380D02*
X75009752Y-275881380D01*
X74533561Y-276881380D02*
X74533561Y-275881380D01*
X73724038Y-276357571D02*
X74057371Y-276357571D01*
X74057371Y-276881380D02*
X74057371Y-275881380D01*
X73581180Y-275881380D01*
X73343085Y-275881380D02*
X72771657Y-275881380D01*
X73057371Y-276881380D02*
X73057371Y-275881380D01*
D12*
X342516000Y-198846000D02*
X360296000Y-198846000D01*
X360296000Y-198846000D02*
X360296000Y-165826000D01*
X345056000Y-168366000D02*
X345056000Y-170906000D01*
X345056000Y-170906000D02*
X342516000Y-170906000D01*
X345056000Y-168366000D02*
X342516000Y-168366000D01*
X360296000Y-165826000D02*
X342516000Y-165826000D01*
X342516000Y-165826000D02*
X342516000Y-198846000D01*
G36*
X357350635Y-174555030D02*
G01*
X357250635Y-174555030D01*
X357250635Y-174255030D01*
X357350635Y-174255030D01*
X357350635Y-174555030D01*
G37*
D11*
X357350635Y-174555030D02*
X357250635Y-174555030D01*
X357250635Y-174255030D01*
X357350635Y-174255030D01*
X357350635Y-174555030D01*
G36*
X357350635Y-175055030D02*
G01*
X357250635Y-175055030D01*
X357250635Y-174855030D01*
X357350635Y-174855030D01*
X357350635Y-175055030D01*
G37*
X357350635Y-175055030D02*
X357250635Y-175055030D01*
X357250635Y-174855030D01*
X357350635Y-174855030D01*
X357350635Y-175055030D01*
G36*
X357750635Y-175055030D02*
G01*
X357650635Y-175055030D01*
X357650635Y-174255030D01*
X357750635Y-174255030D01*
X357750635Y-175055030D01*
G37*
X357750635Y-175055030D02*
X357650635Y-175055030D01*
X357650635Y-174255030D01*
X357750635Y-174255030D01*
X357750635Y-175055030D01*
G36*
X357750635Y-174355030D02*
G01*
X357250635Y-174355030D01*
X357250635Y-174255030D01*
X357750635Y-174255030D01*
X357750635Y-174355030D01*
G37*
X357750635Y-174355030D02*
X357250635Y-174355030D01*
X357250635Y-174255030D01*
X357750635Y-174255030D01*
X357750635Y-174355030D01*
G36*
X357550635Y-174755030D02*
G01*
X357450635Y-174755030D01*
X357450635Y-174655030D01*
X357550635Y-174655030D01*
X357550635Y-174755030D01*
G37*
X357550635Y-174755030D02*
X357450635Y-174755030D01*
X357450635Y-174655030D01*
X357550635Y-174655030D01*
X357550635Y-174755030D01*
D13*
X343786000Y-169636000D03*
D14*
X343786000Y-172176000D03*
X343786000Y-174716000D03*
X343786000Y-177256000D03*
X343786000Y-179796000D03*
X343786000Y-182336000D03*
X343786000Y-184876000D03*
X343786000Y-187416000D03*
X343786000Y-189956000D03*
X343786000Y-192496000D03*
X343786000Y-195036000D03*
X344014600Y-197576000D03*
X359026000Y-197576000D03*
X359026000Y-195036000D03*
X359026000Y-192496000D03*
X359026000Y-189956000D03*
X359026000Y-187416000D03*
X359026000Y-184876000D03*
X359026000Y-182336000D03*
X359026000Y-179796000D03*
X359026000Y-177256000D03*
X359026000Y-174716000D03*
X359026000Y-172176000D03*
X359026000Y-169636000D03*
X346326000Y-197576000D03*
X348866000Y-197576000D03*
X351406000Y-197576000D03*
X353946000Y-197576000D03*
X356486000Y-197576000D03*
M02*
