G04 #@! TF.GenerationSoftware,KiCad,Pcbnew,6.0.9-8da3e8f707~117~ubuntu22.04.1*
G04 #@! TF.CreationDate,2022-12-17T12:05:47-05:00*
G04 #@! TF.ProjectId,atari-keyboard,61746172-692d-46b6-9579-626f6172642e,rev?*
G04 #@! TF.SameCoordinates,Original*
G04 #@! TF.FileFunction,Copper,L1,Top*
G04 #@! TF.FilePolarity,Positive*
%FSLAX46Y46*%
G04 Gerber Fmt 4.6, Leading zero omitted, Abs format (unit mm)*
G04 Created by KiCad (PCBNEW 6.0.9-8da3e8f707~117~ubuntu22.04.1) date 2022-12-17 12:05:47*
%MOMM*%
%LPD*%
G01*
G04 APERTURE LIST*
G04 #@! TA.AperFunction,ComponentPad*
%ADD10R,1.600000X1.600000*%
G04 #@! TD*
G04 #@! TA.AperFunction,SMDPad,CuDef*
%ADD11R,1.200000X1.600000*%
G04 #@! TD*
G04 #@! TA.AperFunction,SMDPad,CuDef*
%ADD12R,0.500000X2.900000*%
G04 #@! TD*
G04 #@! TA.AperFunction,ComponentPad*
%ADD13C,1.600000*%
G04 #@! TD*
G04 #@! TA.AperFunction,ComponentPad*
%ADD14C,2.200000*%
G04 #@! TD*
G04 #@! TA.AperFunction,ComponentPad*
%ADD15R,1.700000X1.700000*%
G04 #@! TD*
G04 #@! TA.AperFunction,ComponentPad*
%ADD16O,1.700000X1.700000*%
G04 #@! TD*
G04 #@! TA.AperFunction,ComponentPad*
%ADD17C,4.000000*%
G04 #@! TD*
G04 #@! TA.AperFunction,ComponentPad*
%ADD18R,1.800000X1.800000*%
G04 #@! TD*
G04 #@! TA.AperFunction,ComponentPad*
%ADD19C,1.800000*%
G04 #@! TD*
G04 #@! TA.AperFunction,ComponentPad*
%ADD20R,1.752600X1.752600*%
G04 #@! TD*
G04 #@! TA.AperFunction,SMDPad,CuDef*
%ADD21R,3.250000X2.000000*%
G04 #@! TD*
G04 #@! TA.AperFunction,ComponentPad*
%ADD22C,1.752600*%
G04 #@! TD*
G04 #@! TA.AperFunction,SMDPad,CuDef*
%ADD23R,2.000000X3.250000*%
G04 #@! TD*
G04 #@! TA.AperFunction,SMDPad,CuDef*
%ADD24R,2.900000X0.500000*%
G04 #@! TD*
G04 #@! TA.AperFunction,SMDPad,CuDef*
%ADD25R,1.500000X1.200000*%
G04 #@! TD*
G04 #@! TA.AperFunction,ViaPad*
%ADD26C,0.800000*%
G04 #@! TD*
G04 #@! TA.AperFunction,Conductor*
%ADD27C,0.304800*%
G04 #@! TD*
G04 APERTURE END LIST*
D10*
X172275000Y-272895000D03*
D11*
X172275000Y-270395000D03*
D12*
X172275000Y-271495000D03*
D11*
X172275000Y-267595000D03*
D13*
X172275000Y-265095000D03*
D12*
X172275000Y-266495000D03*
X110362500Y-214345000D03*
D10*
X110362500Y-215745000D03*
D11*
X110362500Y-213245000D03*
D12*
X110362500Y-209345000D03*
D11*
X110362500Y-210445000D03*
D13*
X110362500Y-207945000D03*
D12*
X219900000Y-252445000D03*
D10*
X219900000Y-253845000D03*
D11*
X219900000Y-251345000D03*
D12*
X219900000Y-247445000D03*
D13*
X219900000Y-246045000D03*
D11*
X219900000Y-248545000D03*
D14*
X330081300Y-244425000D03*
X323731300Y-246965000D03*
D11*
X281812500Y-213245000D03*
D10*
X281812500Y-215745000D03*
D12*
X281812500Y-214345000D03*
D11*
X281812500Y-210445000D03*
D13*
X281812500Y-207945000D03*
D12*
X281812500Y-209345000D03*
X105600000Y-290545000D03*
D11*
X105600000Y-289445000D03*
D10*
X105600000Y-291945000D03*
D12*
X105600000Y-285545000D03*
D11*
X105600000Y-286645000D03*
D13*
X105600000Y-284145000D03*
D14*
X332462500Y-263475000D03*
X326112500Y-266015000D03*
D10*
X272287500Y-234795000D03*
D11*
X272287500Y-232295000D03*
D12*
X272287500Y-233395000D03*
D11*
X272287500Y-229495000D03*
D12*
X272287500Y-228395000D03*
D13*
X272287500Y-226995000D03*
D11*
X338962500Y-270395000D03*
D10*
X338962500Y-272895000D03*
D12*
X338962500Y-271495000D03*
D11*
X338962500Y-267595000D03*
D12*
X338962500Y-266495000D03*
D13*
X338962500Y-265095000D03*
D11*
X384206300Y-263251200D03*
D12*
X384206300Y-264351200D03*
D10*
X384206300Y-265751200D03*
D11*
X384206300Y-260451200D03*
D13*
X384206300Y-257951200D03*
D12*
X384206300Y-259351200D03*
D14*
X118150000Y-244425000D03*
X111800000Y-246965000D03*
X246737500Y-225375000D03*
X240387500Y-227915000D03*
D10*
X224662500Y-215745000D03*
D11*
X224662500Y-213245000D03*
D12*
X224662500Y-214345000D03*
X224662500Y-209345000D03*
D13*
X224662500Y-207945000D03*
D11*
X224662500Y-210445000D03*
X177037500Y-232295000D03*
D12*
X177037500Y-233395000D03*
D10*
X177037500Y-234795000D03*
D12*
X177037500Y-228395000D03*
D13*
X177037500Y-226995000D03*
D11*
X177037500Y-229495000D03*
D15*
X107076000Y-169946000D03*
D16*
X104536000Y-169946000D03*
X101996000Y-169946000D03*
X99456000Y-169946000D03*
D11*
X243712500Y-213245000D03*
D12*
X243712500Y-214345000D03*
D10*
X243712500Y-215745000D03*
D12*
X243712500Y-209345000D03*
D13*
X243712500Y-207945000D03*
D11*
X243712500Y-210445000D03*
D14*
X156250000Y-244425000D03*
X149900000Y-246965000D03*
X137200000Y-244425000D03*
X130850000Y-246965000D03*
X194350000Y-244425000D03*
X188000000Y-246965000D03*
D10*
X384206300Y-189551200D03*
D12*
X384206300Y-188151200D03*
D11*
X384206300Y-187051200D03*
D12*
X384206300Y-183151200D03*
D11*
X384206300Y-184251200D03*
D13*
X384206300Y-181751200D03*
D10*
X234187500Y-234795000D03*
D11*
X234187500Y-232295000D03*
D12*
X234187500Y-233395000D03*
X234187500Y-228395000D03*
D13*
X234187500Y-226995000D03*
D11*
X234187500Y-229495000D03*
D14*
X377706300Y-280143700D03*
X371356300Y-282683700D03*
X165775000Y-263475000D03*
X159425000Y-266015000D03*
X201493800Y-282525000D03*
X195143800Y-285065000D03*
D12*
X300862500Y-214345000D03*
D11*
X300862500Y-213245000D03*
D10*
X300862500Y-215745000D03*
D11*
X300862500Y-210445000D03*
D12*
X300862500Y-209345000D03*
D13*
X300862500Y-207945000D03*
D12*
X384206300Y-240538700D03*
D11*
X384206300Y-239438700D03*
D10*
X384206300Y-241938700D03*
D12*
X384206300Y-235538700D03*
D11*
X384206300Y-236638700D03*
D13*
X384206300Y-234138700D03*
D12*
X138937500Y-233395000D03*
D11*
X138937500Y-232295000D03*
D10*
X138937500Y-234795000D03*
D11*
X138937500Y-229495000D03*
D13*
X138937500Y-226995000D03*
D12*
X138937500Y-228395000D03*
D17*
X259866000Y-177616300D03*
X284866000Y-177616300D03*
D10*
X277906000Y-179036300D03*
D13*
X275136000Y-179036300D03*
X272366000Y-179036300D03*
X269596000Y-179036300D03*
X266826000Y-179036300D03*
X276521000Y-176196300D03*
X273751000Y-176196300D03*
X270981000Y-176196300D03*
X268211000Y-176196300D03*
D11*
X91312500Y-213245000D03*
D12*
X91312500Y-214345000D03*
D10*
X91312500Y-215745000D03*
D11*
X91312500Y-210445000D03*
D13*
X91312500Y-207945000D03*
D12*
X91312500Y-209345000D03*
X207993800Y-290545000D03*
D11*
X207993800Y-289445000D03*
D10*
X207993800Y-291945000D03*
D13*
X207993800Y-284145000D03*
D11*
X207993800Y-286645000D03*
D12*
X207993800Y-285545000D03*
D11*
X312768800Y-187051200D03*
D12*
X312768800Y-188151200D03*
D10*
X312768800Y-189551200D03*
D12*
X312768800Y-183151200D03*
D11*
X312768800Y-184251200D03*
D13*
X312768800Y-181751200D03*
D10*
X148462500Y-215745000D03*
D12*
X148462500Y-214345000D03*
D11*
X148462500Y-213245000D03*
X148462500Y-210445000D03*
D12*
X148462500Y-209345000D03*
D13*
X148462500Y-207945000D03*
D14*
X275312500Y-206325000D03*
X268962500Y-208865000D03*
D10*
X329437500Y-215745000D03*
D12*
X329437500Y-214345000D03*
D11*
X329437500Y-213245000D03*
D13*
X329437500Y-207945000D03*
D11*
X329437500Y-210445000D03*
D12*
X329437500Y-209345000D03*
D10*
X200850000Y-253845000D03*
D12*
X200850000Y-252445000D03*
D11*
X200850000Y-251345000D03*
D13*
X200850000Y-246045000D03*
D12*
X200850000Y-247445000D03*
D11*
X200850000Y-248545000D03*
D14*
X330081300Y-180131200D03*
X323731300Y-182671200D03*
D12*
X296100000Y-252445000D03*
D11*
X296100000Y-251345000D03*
D10*
X296100000Y-253845000D03*
D12*
X296100000Y-247445000D03*
D11*
X296100000Y-248545000D03*
D13*
X296100000Y-246045000D03*
D14*
X261025000Y-263475000D03*
X254675000Y-266015000D03*
D11*
X100837500Y-232295000D03*
D10*
X100837500Y-234795000D03*
D12*
X100837500Y-233395000D03*
D11*
X100837500Y-229495000D03*
D13*
X100837500Y-226995000D03*
D12*
X100837500Y-228395000D03*
D14*
X170537500Y-225375000D03*
X164187500Y-227915000D03*
X151487500Y-225375000D03*
X145137500Y-227915000D03*
D10*
X242103000Y-194116000D03*
D12*
X242103000Y-192716000D03*
D11*
X242103000Y-191616000D03*
D13*
X242103000Y-186316000D03*
D12*
X242103000Y-187716000D03*
D11*
X242103000Y-188816000D03*
X196087500Y-232295000D03*
D10*
X196087500Y-234795000D03*
D12*
X196087500Y-233395000D03*
X196087500Y-228395000D03*
D13*
X196087500Y-226995000D03*
D11*
X196087500Y-229495000D03*
D10*
X181800000Y-253845000D03*
D12*
X181800000Y-252445000D03*
D11*
X181800000Y-251345000D03*
D12*
X181800000Y-247445000D03*
D13*
X181800000Y-246045000D03*
D11*
X181800000Y-248545000D03*
D14*
X141962500Y-206325000D03*
X135612500Y-208865000D03*
D11*
X134175000Y-270395000D03*
D12*
X134175000Y-271495000D03*
D10*
X134175000Y-272895000D03*
D12*
X134175000Y-266495000D03*
D13*
X134175000Y-265095000D03*
D11*
X134175000Y-267595000D03*
D14*
X284837500Y-225375000D03*
X278487500Y-227915000D03*
X161012500Y-206325000D03*
X154662500Y-208865000D03*
X132437500Y-225375000D03*
X126087500Y-227915000D03*
D12*
X287432000Y-192716000D03*
D10*
X287432000Y-194116000D03*
D11*
X287432000Y-191616000D03*
X287432000Y-188816000D03*
D12*
X287432000Y-187716000D03*
D13*
X287432000Y-186316000D03*
D12*
X277050000Y-252445000D03*
D10*
X277050000Y-253845000D03*
D11*
X277050000Y-251345000D03*
D12*
X277050000Y-247445000D03*
D11*
X277050000Y-248545000D03*
D13*
X277050000Y-246045000D03*
D11*
X105600000Y-251345000D03*
D12*
X105600000Y-252445000D03*
D10*
X105600000Y-253845000D03*
D13*
X105600000Y-246045000D03*
D12*
X105600000Y-247445000D03*
D11*
X105600000Y-248545000D03*
D14*
X68143800Y-225375000D03*
X61793800Y-227915000D03*
X232450000Y-244425000D03*
X226100000Y-246965000D03*
X218162500Y-206325000D03*
X211812500Y-208865000D03*
D11*
X315150000Y-251345000D03*
D10*
X315150000Y-253845000D03*
D12*
X315150000Y-252445000D03*
D13*
X315150000Y-246045000D03*
D12*
X315150000Y-247445000D03*
D11*
X315150000Y-248545000D03*
D14*
X103862500Y-206325000D03*
X97512500Y-208865000D03*
X377706300Y-180131200D03*
X371356300Y-182671200D03*
X222925000Y-263475000D03*
X216575000Y-266015000D03*
X377706300Y-232518700D03*
X371356300Y-235058700D03*
X122912500Y-206325000D03*
X116562500Y-208865000D03*
X237212500Y-206325000D03*
X230862500Y-208865000D03*
D11*
X229425000Y-270395000D03*
D12*
X229425000Y-271495000D03*
D10*
X229425000Y-272895000D03*
D11*
X229425000Y-267595000D03*
D12*
X229425000Y-266495000D03*
D13*
X229425000Y-265095000D03*
D14*
X377706300Y-256331200D03*
X371356300Y-258871200D03*
D18*
X380841000Y-170086000D03*
D19*
X383381000Y-170086000D03*
D14*
X294362500Y-206325000D03*
X288012500Y-208865000D03*
D12*
X334200000Y-233395000D03*
D10*
X334200000Y-234795000D03*
D11*
X334200000Y-232295000D03*
X334200000Y-229495000D03*
D12*
X334200000Y-228395000D03*
D13*
X334200000Y-226995000D03*
D10*
X219396000Y-194116000D03*
D11*
X219396000Y-191616000D03*
D12*
X219396000Y-192716000D03*
D13*
X219396000Y-186316000D03*
D12*
X219396000Y-187716000D03*
D11*
X219396000Y-188816000D03*
D12*
X384206300Y-216726200D03*
D11*
X384206300Y-215626200D03*
D10*
X384206300Y-218126200D03*
D11*
X384206300Y-212826200D03*
D12*
X384206300Y-211726200D03*
D13*
X384206300Y-210326200D03*
D12*
X74643800Y-233395000D03*
D10*
X74643800Y-234795000D03*
D11*
X74643800Y-232295000D03*
D13*
X74643800Y-226995000D03*
D11*
X74643800Y-229495000D03*
D12*
X74643800Y-228395000D03*
D14*
X175300000Y-244425000D03*
X168950000Y-246965000D03*
D10*
X205612500Y-215745000D03*
D12*
X205612500Y-214345000D03*
D11*
X205612500Y-213245000D03*
D13*
X205612500Y-207945000D03*
D12*
X205612500Y-209345000D03*
D11*
X205612500Y-210445000D03*
D14*
X303887500Y-225375000D03*
X297537500Y-227915000D03*
D17*
X247106000Y-177616300D03*
X222106000Y-177616300D03*
D10*
X240146000Y-179036300D03*
D13*
X237376000Y-179036300D03*
X234606000Y-179036300D03*
X231836000Y-179036300D03*
X229066000Y-179036300D03*
X238761000Y-176196300D03*
X235991000Y-176196300D03*
X233221000Y-176196300D03*
X230451000Y-176196300D03*
D14*
X289600000Y-244425000D03*
X283250000Y-246965000D03*
D12*
X249672000Y-192716000D03*
D11*
X249672000Y-191616000D03*
D10*
X249672000Y-194116000D03*
D13*
X249672000Y-186316000D03*
D12*
X249672000Y-187716000D03*
D11*
X249672000Y-188816000D03*
X193706300Y-187051200D03*
D10*
X193706300Y-189551200D03*
D12*
X193706300Y-188151200D03*
X193706300Y-183151200D03*
D13*
X193706300Y-181751200D03*
D11*
X193706300Y-184251200D03*
D14*
X84812500Y-206325000D03*
X78462500Y-208865000D03*
X227687500Y-225375000D03*
X221337500Y-227915000D03*
X187206300Y-180131200D03*
X180856300Y-182671200D03*
X180062500Y-206325000D03*
X173712500Y-208865000D03*
X322937500Y-206325000D03*
X316587500Y-208865000D03*
X146725000Y-263475000D03*
X140375000Y-266015000D03*
D20*
X343786000Y-169636000D03*
D21*
X342008000Y-169636000D03*
D22*
X343786000Y-172176000D03*
D21*
X342008000Y-172176000D03*
D22*
X343786000Y-174716000D03*
D21*
X342008000Y-174716000D03*
X342008000Y-177256000D03*
D22*
X343786000Y-177256000D03*
X343786000Y-179796000D03*
D21*
X342008000Y-179796000D03*
D22*
X343786000Y-182336000D03*
D21*
X342008000Y-182336000D03*
X342008000Y-184876000D03*
D22*
X343786000Y-184876000D03*
D21*
X342008000Y-187416000D03*
D22*
X343786000Y-187416000D03*
X343786000Y-189956000D03*
D21*
X342008000Y-189956000D03*
D22*
X343786000Y-192496000D03*
D21*
X342008000Y-192496000D03*
X342008000Y-195036000D03*
D22*
X343786000Y-195036000D03*
X344014600Y-197576000D03*
D21*
X342008000Y-197576000D03*
D22*
X359026000Y-197576000D03*
D21*
X360804000Y-197576000D03*
D22*
X359026000Y-195036000D03*
D21*
X360804000Y-195036000D03*
X360804000Y-192496000D03*
D22*
X359026000Y-192496000D03*
X359026000Y-189956000D03*
D21*
X360804000Y-189956000D03*
X360804000Y-187416000D03*
D22*
X359026000Y-187416000D03*
X359026000Y-184876000D03*
D21*
X360804000Y-184876000D03*
X360804000Y-182336000D03*
D22*
X359026000Y-182336000D03*
X359026000Y-179796000D03*
D21*
X360804000Y-179796000D03*
D22*
X359026000Y-177256000D03*
D21*
X360804000Y-177256000D03*
D22*
X359026000Y-174716000D03*
D21*
X360804000Y-174716000D03*
D22*
X359026000Y-172176000D03*
D21*
X360804000Y-172176000D03*
D22*
X359026000Y-169636000D03*
D21*
X360804000Y-169636000D03*
D22*
X346326000Y-197576000D03*
D23*
X346326000Y-199481000D03*
X348866000Y-199481000D03*
D22*
X348866000Y-197576000D03*
X351406000Y-197576000D03*
D23*
X351406000Y-199481000D03*
D22*
X353946000Y-197576000D03*
D23*
X353946000Y-199481000D03*
X356486000Y-199481000D03*
D22*
X356486000Y-197576000D03*
D10*
X272294000Y-194116000D03*
D11*
X272294000Y-191616000D03*
D12*
X272294000Y-192716000D03*
X272294000Y-187716000D03*
D13*
X272294000Y-186316000D03*
D11*
X272294000Y-188816000D03*
D14*
X280075000Y-263475000D03*
X273725000Y-266015000D03*
D10*
X279863000Y-194116000D03*
D12*
X279863000Y-192716000D03*
D11*
X279863000Y-191616000D03*
D13*
X279863000Y-186316000D03*
D12*
X279863000Y-187716000D03*
D11*
X279863000Y-188816000D03*
D14*
X241975000Y-263475000D03*
X235625000Y-266015000D03*
X94337500Y-225375000D03*
X87987500Y-227915000D03*
X125293800Y-180131200D03*
X118943800Y-182671200D03*
D11*
X115125000Y-270395000D03*
D10*
X115125000Y-272895000D03*
D12*
X115125000Y-271495000D03*
D11*
X115125000Y-267595000D03*
D12*
X115125000Y-266495000D03*
D13*
X115125000Y-265095000D03*
D14*
X163393800Y-180131200D03*
X157043800Y-182671200D03*
D11*
X129412500Y-213245000D03*
D12*
X129412500Y-214345000D03*
D10*
X129412500Y-215745000D03*
D12*
X129412500Y-209345000D03*
D13*
X129412500Y-207945000D03*
D11*
X129412500Y-210445000D03*
D12*
X248475000Y-271495000D03*
D11*
X248475000Y-270395000D03*
D10*
X248475000Y-272895000D03*
D12*
X248475000Y-266495000D03*
D13*
X248475000Y-265095000D03*
D11*
X248475000Y-267595000D03*
X162750000Y-251345000D03*
D10*
X162750000Y-253845000D03*
D12*
X162750000Y-252445000D03*
X162750000Y-247445000D03*
D13*
X162750000Y-246045000D03*
D11*
X162750000Y-248545000D03*
D14*
X308650000Y-244425000D03*
X302300000Y-246965000D03*
X377706300Y-208706200D03*
X371356300Y-211246200D03*
X184825000Y-263475000D03*
X178475000Y-266015000D03*
D10*
X286575000Y-272895000D03*
D11*
X286575000Y-270395000D03*
D12*
X286575000Y-271495000D03*
X286575000Y-266495000D03*
D11*
X286575000Y-267595000D03*
D13*
X286575000Y-265095000D03*
D12*
X234534000Y-192716000D03*
D11*
X234534000Y-191616000D03*
D10*
X234534000Y-194116000D03*
D12*
X234534000Y-187716000D03*
D13*
X234534000Y-186316000D03*
D11*
X234534000Y-188816000D03*
D14*
X256262500Y-206325000D03*
X249912500Y-208865000D03*
D12*
X258000000Y-252445000D03*
D11*
X258000000Y-251345000D03*
D10*
X258000000Y-253845000D03*
D13*
X258000000Y-246045000D03*
D11*
X258000000Y-248545000D03*
D12*
X258000000Y-247445000D03*
D14*
X270550000Y-244425000D03*
X264200000Y-246965000D03*
D10*
X319912500Y-291945000D03*
D11*
X319912500Y-289445000D03*
D12*
X319912500Y-290545000D03*
D13*
X319912500Y-284145000D03*
D12*
X319912500Y-285545000D03*
D11*
X319912500Y-286645000D03*
D14*
X189587500Y-225375000D03*
X183237500Y-227915000D03*
X70525000Y-244425000D03*
X64175000Y-246965000D03*
D10*
X191325000Y-272895000D03*
D12*
X191325000Y-271495000D03*
D11*
X191325000Y-270395000D03*
X191325000Y-267595000D03*
D13*
X191325000Y-265095000D03*
D12*
X191325000Y-266495000D03*
X210375000Y-271495000D03*
D11*
X210375000Y-270395000D03*
D10*
X210375000Y-272895000D03*
D13*
X210375000Y-265095000D03*
D12*
X210375000Y-266495000D03*
D11*
X210375000Y-267595000D03*
D14*
X213400000Y-244425000D03*
X207050000Y-246965000D03*
D11*
X169893800Y-187051200D03*
D10*
X169893800Y-189551200D03*
D12*
X169893800Y-188151200D03*
D11*
X169893800Y-184251200D03*
D13*
X169893800Y-181751200D03*
D12*
X169893800Y-183151200D03*
D14*
X108625000Y-263475000D03*
X102275000Y-266015000D03*
X99100000Y-282525000D03*
X92750000Y-285065000D03*
D11*
X186562500Y-213245000D03*
D12*
X186562500Y-214345000D03*
D10*
X186562500Y-215745000D03*
D13*
X186562500Y-207945000D03*
D12*
X186562500Y-209345000D03*
D11*
X186562500Y-210445000D03*
D14*
X332462500Y-282525000D03*
X326112500Y-285065000D03*
D12*
X77025000Y-252445000D03*
D10*
X77025000Y-253845000D03*
D11*
X77025000Y-251345000D03*
D13*
X77025000Y-246045000D03*
D11*
X77025000Y-248545000D03*
D12*
X77025000Y-247445000D03*
X336581300Y-252445000D03*
D11*
X336581300Y-251345000D03*
D10*
X336581300Y-253845000D03*
D13*
X336581300Y-246045000D03*
D11*
X336581300Y-248545000D03*
D12*
X336581300Y-247445000D03*
D11*
X226965000Y-191616000D03*
D10*
X226965000Y-194116000D03*
D12*
X226965000Y-192716000D03*
D11*
X226965000Y-188816000D03*
D12*
X226965000Y-187716000D03*
D13*
X226965000Y-186316000D03*
D11*
X238950000Y-251345000D03*
D10*
X238950000Y-253845000D03*
D12*
X238950000Y-252445000D03*
D11*
X238950000Y-248545000D03*
D13*
X238950000Y-246045000D03*
D12*
X238950000Y-247445000D03*
X312768800Y-271495000D03*
D11*
X312768800Y-270395000D03*
D10*
X312768800Y-272895000D03*
D12*
X312768800Y-266495000D03*
D11*
X312768800Y-267595000D03*
D13*
X312768800Y-265095000D03*
D10*
X267525000Y-272895000D03*
D11*
X267525000Y-270395000D03*
D12*
X267525000Y-271495000D03*
X267525000Y-266495000D03*
D11*
X267525000Y-267595000D03*
D13*
X267525000Y-265095000D03*
X378016000Y-169946000D03*
D24*
X376616000Y-169946000D03*
D25*
X375466000Y-169946000D03*
X372766000Y-169946000D03*
D13*
X370216000Y-169946000D03*
D24*
X371616000Y-169946000D03*
D14*
X351512500Y-282525000D03*
X345162500Y-285065000D03*
X265787500Y-225375000D03*
X259437500Y-227915000D03*
X313412500Y-282525000D03*
X307062500Y-285065000D03*
D11*
X124650000Y-251345000D03*
D12*
X124650000Y-252445000D03*
D10*
X124650000Y-253845000D03*
D12*
X124650000Y-247445000D03*
D13*
X124650000Y-246045000D03*
D11*
X124650000Y-248545000D03*
D12*
X358012500Y-290545000D03*
D10*
X358012500Y-291945000D03*
D11*
X358012500Y-289445000D03*
D13*
X358012500Y-284145000D03*
D12*
X358012500Y-285545000D03*
D11*
X358012500Y-286645000D03*
D14*
X203875000Y-263475000D03*
X197525000Y-266015000D03*
D11*
X310387500Y-232295000D03*
D10*
X310387500Y-234795000D03*
D12*
X310387500Y-233395000D03*
X310387500Y-228395000D03*
D13*
X310387500Y-226995000D03*
D11*
X310387500Y-229495000D03*
D14*
X327700000Y-225375000D03*
X321350000Y-227915000D03*
X251500000Y-244425000D03*
X245150000Y-246965000D03*
X63381300Y-206325000D03*
X57031300Y-208865000D03*
X113387500Y-225375000D03*
X107037500Y-227915000D03*
D10*
X119887500Y-234795000D03*
D11*
X119887500Y-232295000D03*
D12*
X119887500Y-233395000D03*
X119887500Y-228395000D03*
D11*
X119887500Y-229495000D03*
D13*
X119887500Y-226995000D03*
D14*
X199112500Y-206325000D03*
X192762500Y-208865000D03*
D12*
X253237500Y-233395000D03*
D10*
X253237500Y-234795000D03*
D11*
X253237500Y-232295000D03*
D12*
X253237500Y-228395000D03*
D11*
X253237500Y-229495000D03*
D13*
X253237500Y-226995000D03*
D10*
X257156000Y-194116000D03*
D11*
X257156000Y-191616000D03*
D12*
X257156000Y-192716000D03*
X257156000Y-187716000D03*
D11*
X257156000Y-188816000D03*
D13*
X257156000Y-186316000D03*
D14*
X99100000Y-244425000D03*
X92750000Y-246965000D03*
X127675000Y-263475000D03*
X121325000Y-266015000D03*
D12*
X262762500Y-214345000D03*
D10*
X262762500Y-215745000D03*
D11*
X262762500Y-213245000D03*
D13*
X262762500Y-207945000D03*
D12*
X262762500Y-209345000D03*
D11*
X262762500Y-210445000D03*
D14*
X208637500Y-225375000D03*
X202287500Y-227915000D03*
X306268800Y-180131200D03*
X299918800Y-182671200D03*
D11*
X84168800Y-270395000D03*
D12*
X84168800Y-271495000D03*
D10*
X84168800Y-272895000D03*
D11*
X84168800Y-267595000D03*
D13*
X84168800Y-265095000D03*
D12*
X84168800Y-266495000D03*
X336581300Y-188151200D03*
D10*
X336581300Y-189551200D03*
D11*
X336581300Y-187051200D03*
D13*
X336581300Y-181751200D03*
D11*
X336581300Y-184251200D03*
D12*
X336581300Y-183151200D03*
D11*
X157987500Y-232295000D03*
D12*
X157987500Y-233395000D03*
D10*
X157987500Y-234795000D03*
D12*
X157987500Y-228395000D03*
D11*
X157987500Y-229495000D03*
D13*
X157987500Y-226995000D03*
D10*
X384206300Y-289563700D03*
D11*
X384206300Y-287063700D03*
D12*
X384206300Y-288163700D03*
D13*
X384206300Y-281763700D03*
D12*
X384206300Y-283163700D03*
D11*
X384206300Y-284263700D03*
D12*
X143700000Y-252445000D03*
D10*
X143700000Y-253845000D03*
D11*
X143700000Y-251345000D03*
D13*
X143700000Y-246045000D03*
D11*
X143700000Y-248545000D03*
D12*
X143700000Y-247445000D03*
X69881300Y-214345000D03*
D10*
X69881300Y-215745000D03*
D11*
X69881300Y-213245000D03*
D13*
X69881300Y-207945000D03*
D11*
X69881300Y-210445000D03*
D12*
X69881300Y-209345000D03*
D11*
X215137500Y-232295000D03*
D10*
X215137500Y-234795000D03*
D12*
X215137500Y-233395000D03*
D13*
X215137500Y-226995000D03*
D11*
X215137500Y-229495000D03*
D12*
X215137500Y-228395000D03*
X131793800Y-188151200D03*
D10*
X131793800Y-189551200D03*
D11*
X131793800Y-187051200D03*
D13*
X131793800Y-181751200D03*
D12*
X131793800Y-183151200D03*
D11*
X131793800Y-184251200D03*
D12*
X264725000Y-192716000D03*
D10*
X264725000Y-194116000D03*
D11*
X264725000Y-191616000D03*
D12*
X264725000Y-187716000D03*
D11*
X264725000Y-188816000D03*
D13*
X264725000Y-186316000D03*
D11*
X291337500Y-232295000D03*
D12*
X291337500Y-233395000D03*
D10*
X291337500Y-234795000D03*
D11*
X291337500Y-229495000D03*
D13*
X291337500Y-226995000D03*
D12*
X291337500Y-228395000D03*
D10*
X338962500Y-291945000D03*
D11*
X338962500Y-289445000D03*
D12*
X338962500Y-290545000D03*
X338962500Y-285545000D03*
D13*
X338962500Y-284145000D03*
D11*
X338962500Y-286645000D03*
D14*
X306268800Y-263475000D03*
X299918800Y-266015000D03*
D10*
X167512500Y-215745000D03*
D12*
X167512500Y-214345000D03*
D11*
X167512500Y-213245000D03*
X167512500Y-210445000D03*
D13*
X167512500Y-207945000D03*
D12*
X167512500Y-209345000D03*
D14*
X77668800Y-263475000D03*
X71318800Y-266015000D03*
D10*
X153225000Y-272895000D03*
D12*
X153225000Y-271495000D03*
D11*
X153225000Y-270395000D03*
X153225000Y-267595000D03*
D13*
X153225000Y-265095000D03*
D12*
X153225000Y-266495000D03*
D26*
X335652000Y-211443700D03*
X337687600Y-200196900D03*
X227472200Y-199403700D03*
X107428700Y-223668700D03*
X333835500Y-187790800D03*
X296809200Y-233207600D03*
X248247500Y-194864300D03*
X261749100Y-195268700D03*
X153458700Y-214787400D03*
X203249500Y-215828300D03*
X139870400Y-218125600D03*
X299017100Y-189544000D03*
X210687000Y-237326100D03*
X285583600Y-205639800D03*
X222790400Y-222595000D03*
X231942200Y-174751000D03*
X179676500Y-249878300D03*
X336429700Y-209302000D03*
X278230500Y-249945000D03*
X330928800Y-211954000D03*
D27*
X131793800Y-184251200D02*
X131793800Y-183151200D01*
X131793800Y-183151200D02*
X131793800Y-181751200D01*
X126913800Y-181751200D02*
X125293800Y-180131200D01*
X131793800Y-181751200D02*
X126913800Y-181751200D01*
X286575000Y-267595000D02*
X286575000Y-266495000D01*
X286575000Y-266495000D02*
X286575000Y-265095000D01*
X281695000Y-265095000D02*
X280075000Y-263475000D01*
X286575000Y-265095000D02*
X281695000Y-265095000D01*
X267525000Y-267595000D02*
X267525000Y-266495000D01*
X267525000Y-266495000D02*
X267525000Y-265095000D01*
X262645000Y-265095000D02*
X261025000Y-263475000D01*
X267525000Y-265095000D02*
X262645000Y-265095000D01*
X248475000Y-267595000D02*
X248475000Y-266495000D01*
X248475000Y-265095000D02*
X248475000Y-266495000D01*
X243595000Y-265095000D02*
X241975000Y-263475000D01*
X248475000Y-265095000D02*
X243595000Y-265095000D01*
X207993800Y-286645000D02*
X207993800Y-285545000D01*
X207993800Y-285545000D02*
X207993800Y-284145000D01*
X203113800Y-284145000D02*
X201493800Y-282525000D01*
X207993800Y-284145000D02*
X203113800Y-284145000D01*
X311148800Y-180131200D02*
X312768800Y-181751200D01*
X306268800Y-180131200D02*
X311148800Y-180131200D01*
X312768800Y-184251200D02*
X312768800Y-183151200D01*
X312768800Y-183151200D02*
X312768800Y-181751200D01*
X103980000Y-282525000D02*
X105600000Y-284145000D01*
X99100000Y-282525000D02*
X103980000Y-282525000D01*
X105600000Y-284145000D02*
X105600000Y-285545000D01*
X105600000Y-286645000D02*
X105600000Y-285545000D01*
X229425000Y-266495000D02*
X229425000Y-267595000D01*
X229425000Y-265095000D02*
X229425000Y-266495000D01*
X224545000Y-265095000D02*
X222925000Y-263475000D01*
X229425000Y-265095000D02*
X224545000Y-265095000D01*
X191325000Y-267595000D02*
X191325000Y-266495000D01*
X191325000Y-266495000D02*
X191325000Y-265095000D01*
X186445000Y-265095000D02*
X184825000Y-263475000D01*
X191325000Y-265095000D02*
X186445000Y-265095000D01*
X172275000Y-266495000D02*
X172275000Y-267595000D01*
X172275000Y-266495000D02*
X172275000Y-265095000D01*
X167395000Y-265095000D02*
X172275000Y-265095000D01*
X165775000Y-263475000D02*
X167395000Y-265095000D01*
X153225000Y-266495000D02*
X153225000Y-267595000D01*
X153225000Y-265095000D02*
X153225000Y-266495000D01*
X148345000Y-265095000D02*
X146725000Y-263475000D01*
X153225000Y-265095000D02*
X148345000Y-265095000D01*
X134175000Y-267595000D02*
X134175000Y-266495000D01*
X134175000Y-266495000D02*
X134175000Y-265095000D01*
X129295000Y-265095000D02*
X134175000Y-265095000D01*
X127675000Y-263475000D02*
X129295000Y-265095000D01*
X115125000Y-267595000D02*
X115125000Y-266495000D01*
X115125000Y-266495000D02*
X115125000Y-265095000D01*
X84168800Y-267595000D02*
X84168800Y-266495000D01*
X84168800Y-266495000D02*
X84168800Y-265095000D01*
X336581300Y-248545000D02*
X336581300Y-247445000D01*
X336581300Y-247445000D02*
X336581300Y-246045000D01*
X331701300Y-246045000D02*
X330081300Y-244425000D01*
X336581300Y-246045000D02*
X331701300Y-246045000D01*
X315150000Y-248545000D02*
X315150000Y-247445000D01*
X315150000Y-247445000D02*
X315150000Y-246045000D01*
X210375000Y-267595000D02*
X210375000Y-266495000D01*
X210375000Y-266495000D02*
X210375000Y-265095000D01*
X296100000Y-247445000D02*
X296100000Y-246045000D01*
X296100000Y-248545000D02*
X296100000Y-247445000D01*
X291220000Y-246045000D02*
X296100000Y-246045000D01*
X289600000Y-244425000D02*
X291220000Y-246045000D01*
X277050000Y-248545000D02*
X277050000Y-247445000D01*
X277050000Y-247445000D02*
X277050000Y-246045000D01*
X272170000Y-246045000D02*
X277050000Y-246045000D01*
X270550000Y-244425000D02*
X272170000Y-246045000D01*
X258000000Y-248545000D02*
X258000000Y-247445000D01*
X258000000Y-247445000D02*
X258000000Y-246045000D01*
X253120000Y-246045000D02*
X258000000Y-246045000D01*
X251500000Y-244425000D02*
X253120000Y-246045000D01*
X238950000Y-247445000D02*
X238950000Y-248545000D01*
X238950000Y-246045000D02*
X238950000Y-247445000D01*
X234070000Y-246045000D02*
X232450000Y-244425000D01*
X238950000Y-246045000D02*
X234070000Y-246045000D01*
X219900000Y-248545000D02*
X219900000Y-247445000D01*
X219900000Y-247445000D02*
X219900000Y-246045000D01*
X215020000Y-246045000D02*
X219900000Y-246045000D01*
X213400000Y-244425000D02*
X215020000Y-246045000D01*
X200850000Y-248545000D02*
X200850000Y-247445000D01*
X200850000Y-247445000D02*
X200850000Y-246045000D01*
X195970000Y-246045000D02*
X194350000Y-244425000D01*
X200850000Y-246045000D02*
X195970000Y-246045000D01*
X181800000Y-248545000D02*
X181800000Y-247445000D01*
X181800000Y-247445000D02*
X181800000Y-246045000D01*
X176920000Y-246045000D02*
X181800000Y-246045000D01*
X175300000Y-244425000D02*
X176920000Y-246045000D01*
X162750000Y-248545000D02*
X162750000Y-247445000D01*
X162750000Y-247445000D02*
X162750000Y-246045000D01*
X157870000Y-246045000D02*
X156250000Y-244425000D01*
X162750000Y-246045000D02*
X157870000Y-246045000D01*
X358012500Y-286645000D02*
X358012500Y-285545000D01*
X358012500Y-285545000D02*
X358012500Y-284145000D01*
X353132500Y-284145000D02*
X351512500Y-282525000D01*
X358012500Y-284145000D02*
X353132500Y-284145000D01*
X143700000Y-248545000D02*
X143700000Y-247445000D01*
X143700000Y-247445000D02*
X143700000Y-246045000D01*
X124650000Y-248545000D02*
X124650000Y-247445000D01*
X124650000Y-247445000D02*
X124650000Y-246045000D01*
X105600000Y-248545000D02*
X105600000Y-247445000D01*
X105600000Y-247445000D02*
X105600000Y-246045000D01*
X77025000Y-248545000D02*
X77025000Y-247445000D01*
X77025000Y-247445000D02*
X77025000Y-246045000D01*
X72145000Y-246045000D02*
X70525000Y-244425000D01*
X77025000Y-246045000D02*
X72145000Y-246045000D01*
X334200000Y-228395000D02*
X334200000Y-229495000D01*
X334200000Y-226995000D02*
X334200000Y-228395000D01*
X332580000Y-225375000D02*
X334200000Y-226995000D01*
X327700000Y-225375000D02*
X332580000Y-225375000D01*
X310387500Y-229495000D02*
X310387500Y-228395000D01*
X310387500Y-226995000D02*
X310387500Y-228395000D01*
X305507500Y-226995000D02*
X303887500Y-225375000D01*
X310387500Y-226995000D02*
X305507500Y-226995000D01*
X291337500Y-228395000D02*
X291337500Y-229495000D01*
X291337500Y-226995000D02*
X291337500Y-228395000D01*
X286457500Y-226995000D02*
X284837500Y-225375000D01*
X291337500Y-226995000D02*
X286457500Y-226995000D01*
X272287500Y-229495000D02*
X272287500Y-228395000D01*
X272287500Y-228395000D02*
X272287500Y-226995000D01*
X267407500Y-226995000D02*
X272287500Y-226995000D01*
X265787500Y-225375000D02*
X267407500Y-226995000D01*
X319912500Y-286645000D02*
X319912500Y-285545000D01*
X319912500Y-285545000D02*
X319912500Y-284145000D01*
X253237500Y-229495000D02*
X253237500Y-228395000D01*
X253237500Y-228395000D02*
X253237500Y-226995000D01*
X248357500Y-226995000D02*
X246737500Y-225375000D01*
X253237500Y-226995000D02*
X248357500Y-226995000D01*
X234187500Y-229495000D02*
X234187500Y-228395000D01*
X234187500Y-228395000D02*
X234187500Y-226995000D01*
X229307500Y-226995000D02*
X234187500Y-226995000D01*
X227687500Y-225375000D02*
X229307500Y-226995000D01*
X215137500Y-229495000D02*
X215137500Y-228395000D01*
X215137500Y-228395000D02*
X215137500Y-226995000D01*
X210257500Y-226995000D02*
X208637500Y-225375000D01*
X215137500Y-226995000D02*
X210257500Y-226995000D01*
X196087500Y-229495000D02*
X196087500Y-228395000D01*
X196087500Y-228395000D02*
X196087500Y-226995000D01*
X191207500Y-226995000D02*
X196087500Y-226995000D01*
X189587500Y-225375000D02*
X191207500Y-226995000D01*
X177037500Y-229495000D02*
X177037500Y-228395000D01*
X177037500Y-228395000D02*
X177037500Y-226995000D01*
X172157500Y-226995000D02*
X177037500Y-226995000D01*
X170537500Y-225375000D02*
X172157500Y-226995000D01*
X157987500Y-229495000D02*
X157987500Y-228395000D01*
X157987500Y-226995000D02*
X157987500Y-228395000D01*
X153107500Y-226995000D02*
X151487500Y-225375000D01*
X157987500Y-226995000D02*
X153107500Y-226995000D01*
X138937500Y-228395000D02*
X138937500Y-229495000D01*
X138937500Y-226995000D02*
X138937500Y-228395000D01*
X119887500Y-229495000D02*
X119887500Y-228395000D01*
X119887500Y-228395000D02*
X119887500Y-226995000D01*
X115007500Y-226995000D02*
X113387500Y-225375000D01*
X119887500Y-226995000D02*
X115007500Y-226995000D01*
X338962500Y-286645000D02*
X338962500Y-285545000D01*
X338962500Y-284145000D02*
X338962500Y-285545000D01*
X334082500Y-284145000D02*
X332462500Y-282525000D01*
X338962500Y-284145000D02*
X334082500Y-284145000D01*
X100837500Y-228395000D02*
X100837500Y-229495000D01*
X100837500Y-228395000D02*
X100837500Y-226995000D01*
X95957500Y-226995000D02*
X100837500Y-226995000D01*
X94337500Y-225375000D02*
X95957500Y-226995000D01*
X74643800Y-229495000D02*
X74643800Y-228395000D01*
X74643800Y-228395000D02*
X74643800Y-226995000D01*
X69763800Y-226995000D02*
X68143800Y-225375000D01*
X74643800Y-226995000D02*
X69763800Y-226995000D01*
X336581300Y-184251200D02*
X336581300Y-183151200D01*
X336581300Y-183151200D02*
X336581300Y-181751200D01*
X331701300Y-181751200D02*
X330081300Y-180131200D01*
X336581300Y-181751200D02*
X331701300Y-181751200D01*
X329437500Y-210445000D02*
X329437500Y-209345000D01*
X329437500Y-209345000D02*
X329437500Y-207945000D01*
X324557500Y-207945000D02*
X329437500Y-207945000D01*
X322937500Y-206325000D02*
X324557500Y-207945000D01*
X300862500Y-207945000D02*
X300862500Y-209345000D01*
X300862500Y-209345000D02*
X300862500Y-210445000D01*
X281812500Y-210445000D02*
X281812500Y-209345000D01*
X281812500Y-209345000D02*
X281812500Y-207945000D01*
X276932500Y-207945000D02*
X281812500Y-207945000D01*
X275312500Y-206325000D02*
X276932500Y-207945000D01*
X262762500Y-210445000D02*
X262762500Y-209345000D01*
X262762500Y-209345000D02*
X262762500Y-207945000D01*
X257882500Y-207945000D02*
X256262500Y-206325000D01*
X262762500Y-207945000D02*
X257882500Y-207945000D01*
X243712500Y-210445000D02*
X243712500Y-209345000D01*
X243712500Y-207945000D02*
X243712500Y-209345000D01*
X338962500Y-266495000D02*
X338962500Y-267595000D01*
X338962500Y-265095000D02*
X338962500Y-266495000D01*
X334082500Y-265095000D02*
X332462500Y-263475000D01*
X338962500Y-265095000D02*
X334082500Y-265095000D01*
X224662500Y-210445000D02*
X224662500Y-209345000D01*
X224662500Y-209345000D02*
X224662500Y-207945000D01*
X219782500Y-207945000D02*
X224662500Y-207945000D01*
X218162500Y-206325000D02*
X219782500Y-207945000D01*
X205612500Y-210445000D02*
X205612500Y-209345000D01*
X205612500Y-209345000D02*
X205612500Y-207945000D01*
X200732500Y-207945000D02*
X205612500Y-207945000D01*
X199112500Y-206325000D02*
X200732500Y-207945000D01*
X186562500Y-210445000D02*
X186562500Y-209345000D01*
X186562500Y-209345000D02*
X186562500Y-207945000D01*
X181682500Y-207945000D02*
X180062500Y-206325000D01*
X186562500Y-207945000D02*
X181682500Y-207945000D01*
X167512500Y-210445000D02*
X167512500Y-209345000D01*
X167512500Y-209345000D02*
X167512500Y-207945000D01*
X162632500Y-207945000D02*
X161012500Y-206325000D01*
X167512500Y-207945000D02*
X162632500Y-207945000D01*
X148462500Y-209345000D02*
X148462500Y-210445000D01*
X148462500Y-209345000D02*
X148462500Y-207945000D01*
X143582500Y-207945000D02*
X148462500Y-207945000D01*
X141962500Y-206325000D02*
X143582500Y-207945000D01*
X129412500Y-210445000D02*
X129412500Y-209345000D01*
X129412500Y-209345000D02*
X129412500Y-207945000D01*
X124532500Y-207945000D02*
X122912500Y-206325000D01*
X129412500Y-207945000D02*
X124532500Y-207945000D01*
X110362500Y-210445000D02*
X110362500Y-209345000D01*
X110362500Y-209345000D02*
X110362500Y-207945000D01*
X105482500Y-207945000D02*
X110362500Y-207945000D01*
X103862500Y-206325000D02*
X105482500Y-207945000D01*
X91312500Y-210445000D02*
X91312500Y-209345000D01*
X91312500Y-209345000D02*
X91312500Y-207945000D01*
X312768800Y-267595000D02*
X312768800Y-266495000D01*
X311148800Y-263475000D02*
X312768800Y-265095000D01*
X306268800Y-263475000D02*
X311148800Y-263475000D01*
X312768800Y-265095000D02*
X312768800Y-266495000D01*
X69881300Y-210445000D02*
X69881300Y-209345000D01*
X69881300Y-209345000D02*
X69881300Y-207945000D01*
X382586300Y-180131200D02*
X384206300Y-181751200D01*
X377706300Y-180131200D02*
X382586300Y-180131200D01*
X384206300Y-184251200D02*
X384206300Y-183151200D01*
X384206300Y-183151200D02*
X384206300Y-181751200D01*
X384206300Y-284263700D02*
X384206300Y-283163700D01*
X384206300Y-283163700D02*
X384206300Y-281763700D01*
X379326300Y-281763700D02*
X377706300Y-280143700D01*
X384206300Y-281763700D02*
X379326300Y-281763700D01*
X384206300Y-259351200D02*
X384206300Y-260451200D01*
X382586300Y-256331200D02*
X384206300Y-257951200D01*
X377706300Y-256331200D02*
X382586300Y-256331200D01*
X384206300Y-257951200D02*
X384206300Y-259351200D01*
X382586300Y-232518700D02*
X384206300Y-234138700D01*
X377706300Y-232518700D02*
X382586300Y-232518700D01*
X384206300Y-236638700D02*
X384206300Y-235538700D01*
X384206300Y-235538700D02*
X384206300Y-234138700D01*
X382586300Y-208706200D02*
X384206300Y-210326200D01*
X377706300Y-208706200D02*
X382586300Y-208706200D01*
X384206300Y-210326200D02*
X384206300Y-211726200D01*
X384206300Y-211726200D02*
X384206300Y-212826200D01*
X193706300Y-184251200D02*
X193706300Y-183151200D01*
X193706300Y-183151200D02*
X193706300Y-181751200D01*
X188826300Y-181751200D02*
X193706300Y-181751200D01*
X187206300Y-180131200D02*
X188826300Y-181751200D01*
X169893800Y-184251200D02*
X169893800Y-183151200D01*
X169893800Y-183151200D02*
X169893800Y-181751200D01*
X165013800Y-181751200D02*
X163393800Y-180131200D01*
X169893800Y-181751200D02*
X165013800Y-181751200D01*
X336581300Y-251345000D02*
X336581300Y-252445000D01*
X191325000Y-270395000D02*
X191325000Y-271495000D01*
X191325000Y-271495000D02*
X191325000Y-272895000D01*
X189769600Y-273297700D02*
X172275000Y-273297700D01*
X190172300Y-272895000D02*
X189769600Y-273297700D01*
X191325000Y-272895000D02*
X190172300Y-272895000D01*
X115125000Y-271075000D02*
X115125000Y-270395000D01*
X115125000Y-271075000D02*
X115125000Y-271495000D01*
X346326000Y-197576000D02*
X346326000Y-199481000D01*
X229425000Y-271495000D02*
X229425000Y-272895000D01*
X193630400Y-274047700D02*
X192477700Y-272895000D01*
X227119600Y-274047700D02*
X193630400Y-274047700D01*
X228272300Y-272895000D02*
X227119600Y-274047700D01*
X229425000Y-272895000D02*
X228272300Y-272895000D01*
X191325000Y-272895000D02*
X192477700Y-272895000D01*
X315150000Y-252445000D02*
X315150000Y-251345000D01*
X134175000Y-271495000D02*
X134175000Y-270395000D01*
X172275000Y-271495000D02*
X172275000Y-270395000D01*
X84168800Y-272895000D02*
X84168800Y-273297700D01*
X113569600Y-273297700D02*
X84168800Y-273297700D01*
X113972300Y-272895000D02*
X113569600Y-273297700D01*
X115125000Y-272895000D02*
X113972300Y-272895000D01*
X84168800Y-272195000D02*
X84168800Y-272895000D01*
X84168800Y-272195000D02*
X84168800Y-271495000D01*
X84168800Y-271495000D02*
X84168800Y-270395000D01*
X134175000Y-271495000D02*
X134175000Y-272895000D01*
X134175000Y-272895000D02*
X135327700Y-272895000D01*
X153225000Y-272895000D02*
X135327700Y-272895000D01*
X153225000Y-270395000D02*
X153225000Y-271495000D01*
X153225000Y-271495000D02*
X153225000Y-272895000D01*
X154780400Y-273297700D02*
X172275000Y-273297700D01*
X154377700Y-272895000D02*
X154780400Y-273297700D01*
X172275000Y-271495000D02*
X172275000Y-272895000D01*
X172275000Y-272895000D02*
X172275000Y-273297700D01*
X153225000Y-272895000D02*
X154377700Y-272895000D01*
X336581300Y-253845000D02*
X336581300Y-252445000D01*
X315150000Y-252445000D02*
X315150000Y-253145000D01*
X315150000Y-253145000D02*
X315150000Y-253845000D01*
X334728600Y-253145000D02*
X335428600Y-253845000D01*
X315150000Y-253145000D02*
X334728600Y-253145000D01*
X336581300Y-253845000D02*
X335428600Y-253845000D01*
X132619600Y-273297700D02*
X115125000Y-273297700D01*
X133022300Y-272895000D02*
X132619600Y-273297700D01*
X115125000Y-271495000D02*
X115125000Y-272895000D01*
X115125000Y-272895000D02*
X115125000Y-273297700D01*
X134175000Y-272895000D02*
X133022300Y-272895000D01*
X229425000Y-271495000D02*
X229425000Y-270395000D01*
X312844600Y-254997700D02*
X313997300Y-253845000D01*
X244577000Y-254997700D02*
X312844600Y-254997700D01*
X230332400Y-269242300D02*
X244577000Y-254997700D01*
X229425000Y-269242300D02*
X230332400Y-269242300D01*
X229425000Y-270395000D02*
X229425000Y-269242300D01*
X315150000Y-253845000D02*
X313997300Y-253845000D01*
X346326000Y-199481000D02*
X346326000Y-201458700D01*
X345637000Y-201458700D02*
X346326000Y-201458700D01*
X335652000Y-211443700D02*
X345637000Y-201458700D01*
X238950000Y-251345000D02*
X238950000Y-252445000D01*
X238950000Y-252445000D02*
X238950000Y-253845000D01*
X210375000Y-270395000D02*
X210375000Y-271495000D01*
X210375000Y-272895000D02*
X210375000Y-271495000D01*
X240505400Y-254247700D02*
X258000000Y-254247700D01*
X240102700Y-253845000D02*
X240505400Y-254247700D01*
X258000000Y-252445000D02*
X258000000Y-253845000D01*
X239526400Y-253845000D02*
X240102700Y-253845000D01*
X239526400Y-253845000D02*
X238950000Y-253845000D01*
X162750000Y-252445000D02*
X162750000Y-251345000D01*
X162750000Y-253845000D02*
X162750000Y-252445000D01*
X344014600Y-197576000D02*
X342008000Y-197576000D01*
X277050000Y-251345000D02*
X277050000Y-252445000D01*
X296100000Y-253845000D02*
X294947300Y-253845000D01*
X277050000Y-253845000D02*
X294947300Y-253845000D01*
X181800000Y-251345000D02*
X181800000Y-252445000D01*
X219900000Y-251345000D02*
X219900000Y-252445000D01*
X181800000Y-252445000D02*
X181800000Y-253145000D01*
X164602700Y-253145000D02*
X163902700Y-253845000D01*
X181800000Y-253145000D02*
X164602700Y-253145000D01*
X162750000Y-253845000D02*
X163902700Y-253845000D01*
X200850000Y-251345000D02*
X200850000Y-252445000D01*
X237394600Y-254247700D02*
X219900000Y-254247700D01*
X237797300Y-253845000D02*
X237394600Y-254247700D01*
X219900000Y-252445000D02*
X219900000Y-253845000D01*
X219900000Y-253845000D02*
X219900000Y-254247700D01*
X238950000Y-253845000D02*
X237797300Y-253845000D01*
X200850000Y-252445000D02*
X200850000Y-253145000D01*
X218047300Y-253145000D02*
X218747300Y-253845000D01*
X200850000Y-253145000D02*
X218047300Y-253145000D01*
X219900000Y-253845000D02*
X218747300Y-253845000D01*
X200850000Y-253495000D02*
X181800000Y-253495000D01*
X200850000Y-253145000D02*
X200850000Y-253495000D01*
X200850000Y-253495000D02*
X200850000Y-253845000D01*
X181800000Y-253145000D02*
X181800000Y-253495000D01*
X181800000Y-253495000D02*
X181800000Y-253845000D01*
X258000000Y-251345000D02*
X258000000Y-252445000D01*
X277050000Y-253845000D02*
X277050000Y-252445000D01*
X275494600Y-254247700D02*
X275897300Y-253845000D01*
X258000000Y-254247700D02*
X275494600Y-254247700D01*
X258000000Y-253845000D02*
X258000000Y-254247700D01*
X277050000Y-253845000D02*
X275897300Y-253845000D01*
X342008000Y-197576000D02*
X340030300Y-197576000D01*
X337687600Y-199918700D02*
X340030300Y-197576000D01*
X337687600Y-200196900D02*
X337687600Y-199918700D01*
X296100000Y-253845000D02*
X296100000Y-252445000D01*
X296100000Y-252445000D02*
X296100000Y-251345000D01*
X343786000Y-182336000D02*
X342008000Y-182336000D01*
X100677300Y-168724700D02*
X99456000Y-169946000D01*
X326419000Y-168724700D02*
X100677300Y-168724700D01*
X340030300Y-182336000D02*
X326419000Y-168724700D01*
X342008000Y-182336000D02*
X340030300Y-182336000D01*
X343786000Y-179796000D02*
X342008000Y-179796000D01*
X100793300Y-170319800D02*
X100793300Y-169946000D01*
X99915300Y-171197800D02*
X100793300Y-170319800D01*
X98999700Y-171197800D02*
X99915300Y-171197800D01*
X98249000Y-170447100D02*
X98999700Y-171197800D01*
X98249000Y-169413400D02*
X98249000Y-170447100D01*
X99442900Y-168219500D02*
X98249000Y-169413400D01*
X328453700Y-168219500D02*
X99442900Y-168219500D01*
X340030200Y-179796000D02*
X328453700Y-168219500D01*
X342008000Y-179796000D02*
X340030200Y-179796000D01*
X101996000Y-169946000D02*
X100793300Y-169946000D01*
X376616000Y-169946000D02*
X378016000Y-169946000D01*
X376616000Y-169946000D02*
X375466000Y-169946000D01*
X375466000Y-169946000D02*
X375466000Y-170898700D01*
X356486000Y-174716000D02*
X343786000Y-174716000D01*
X359026000Y-172176000D02*
X356486000Y-174716000D01*
X343786000Y-177256000D02*
X342008000Y-177256000D01*
X342008000Y-174716000D02*
X343786000Y-174716000D01*
X374188700Y-172176000D02*
X360804000Y-172176000D01*
X375466000Y-170898700D02*
X374188700Y-172176000D01*
X360804000Y-172176000D02*
X359026000Y-172176000D01*
X284866000Y-177616300D02*
X259866000Y-177616300D01*
X214435700Y-169946000D02*
X107076000Y-169946000D01*
X222106000Y-177616300D02*
X214435700Y-169946000D01*
X259866000Y-177616300D02*
X247106000Y-177616300D01*
X244498800Y-175009100D02*
X247106000Y-177616300D01*
X232748600Y-175009100D02*
X244498800Y-175009100D01*
X232254000Y-175503700D02*
X232748600Y-175009100D01*
X231630500Y-175503700D02*
X232254000Y-175503700D01*
X231135800Y-175009000D02*
X231630500Y-175503700D01*
X224713300Y-175009000D02*
X231135800Y-175009000D01*
X222106000Y-177616300D02*
X224713300Y-175009000D01*
X353946000Y-199481000D02*
X353946000Y-197576000D01*
X360804000Y-169636000D02*
X359026000Y-169636000D01*
X360804000Y-174716000D02*
X359026000Y-174716000D01*
X360804000Y-177256000D02*
X359026000Y-177256000D01*
X287432000Y-191616000D02*
X287432000Y-192716000D01*
X287432000Y-194116000D02*
X287432000Y-192716000D01*
X131793800Y-189551200D02*
X131793800Y-188151200D01*
X267525000Y-270395000D02*
X267525000Y-271495000D01*
X286575000Y-270395000D02*
X286575000Y-271495000D01*
X286575000Y-271495000D02*
X286575000Y-272895000D01*
X351406000Y-199481000D02*
X351406000Y-197576000D01*
X267525000Y-271495000D02*
X267525000Y-272195000D01*
X267525000Y-272195000D02*
X267525000Y-272895000D01*
X284722300Y-272195000D02*
X285422300Y-272895000D01*
X267525000Y-272195000D02*
X284722300Y-272195000D01*
X286575000Y-272895000D02*
X285422300Y-272895000D01*
X131793800Y-188151200D02*
X131793800Y-187051200D01*
X232053500Y-177363800D02*
X233221000Y-176196300D01*
X226966200Y-177363800D02*
X232053500Y-177363800D01*
X224360900Y-179969100D02*
X226966200Y-177363800D01*
X220548800Y-179969100D02*
X224360900Y-179969100D01*
X219241900Y-178662200D02*
X220548800Y-179969100D01*
X185421600Y-178662200D02*
X219241900Y-178662200D01*
X183513200Y-180570600D02*
X185421600Y-178662200D01*
X171094400Y-180570600D02*
X183513200Y-180570600D01*
X169162900Y-178639100D02*
X171094400Y-180570600D01*
X158643800Y-178639100D02*
X169162900Y-178639100D01*
X150231700Y-187051200D02*
X158643800Y-178639100D01*
X131793800Y-187051200D02*
X150231700Y-187051200D01*
X342008000Y-172176000D02*
X343786000Y-172176000D01*
X342008000Y-169636000D02*
X343786000Y-169636000D01*
X214502100Y-263942100D02*
X216575000Y-266015000D01*
X207510900Y-263942100D02*
X214502100Y-263942100D01*
X205438000Y-266015000D02*
X207510900Y-263942100D01*
X197525000Y-266015000D02*
X205438000Y-266015000D01*
X356486000Y-197576000D02*
X356486000Y-199481000D01*
X324039600Y-282992100D02*
X326112500Y-285065000D01*
X317048400Y-282992100D02*
X324039600Y-282992100D01*
X314975500Y-285065000D02*
X317048400Y-282992100D01*
X307062500Y-285065000D02*
X314975500Y-285065000D01*
X334288000Y-285065000D02*
X326112500Y-285065000D01*
X337020800Y-287797800D02*
X334288000Y-285065000D01*
X341302500Y-287797800D02*
X337020800Y-287797800D01*
X344035300Y-285065000D02*
X341302500Y-287797800D01*
X345162500Y-285065000D02*
X344035300Y-285065000D01*
X243800500Y-266015000D02*
X235625000Y-266015000D01*
X247027700Y-269242200D02*
X243800500Y-266015000D01*
X252202200Y-269242200D02*
X247027700Y-269242200D01*
X253919800Y-270959800D02*
X252202200Y-269242200D01*
X265012500Y-270959800D02*
X253919800Y-270959800D01*
X266730100Y-269242200D02*
X265012500Y-270959800D01*
X271252200Y-269242200D02*
X266730100Y-269242200D01*
X272922200Y-270912200D02*
X271252200Y-269242200D01*
X282132400Y-270912200D02*
X272922200Y-270912200D01*
X284096800Y-268947800D02*
X282132400Y-270912200D01*
X294355900Y-268947800D02*
X284096800Y-268947800D01*
X297288700Y-266015000D02*
X294355900Y-268947800D01*
X299918800Y-266015000D02*
X297288700Y-266015000D01*
X372766000Y-169946000D02*
X371616000Y-169946000D01*
X371616000Y-169946000D02*
X370216000Y-169946000D01*
X226965000Y-191616000D02*
X226965000Y-192716000D01*
X226965000Y-192716000D02*
X226965000Y-194116000D01*
X234534000Y-191616000D02*
X234534000Y-192716000D01*
X234534000Y-194116000D02*
X234534000Y-192716000D01*
X242103000Y-191616000D02*
X242103000Y-192716000D01*
X242103000Y-192716000D02*
X242103000Y-194116000D01*
X249672000Y-191616000D02*
X249672000Y-192716000D01*
X249672000Y-192716000D02*
X249672000Y-194116000D01*
X219396000Y-191616000D02*
X219396000Y-192716000D01*
X219396000Y-192716000D02*
X219396000Y-194116000D01*
X257156000Y-191616000D02*
X257156000Y-192716000D01*
X257156000Y-192716000D02*
X257156000Y-194116000D01*
X264725000Y-191616000D02*
X264725000Y-192716000D01*
X264725000Y-192716000D02*
X264725000Y-194116000D01*
X272294000Y-191616000D02*
X272294000Y-192716000D01*
X272294000Y-192716000D02*
X272294000Y-194116000D01*
X279863000Y-191616000D02*
X279863000Y-192716000D01*
X279863000Y-192716000D02*
X279863000Y-194116000D01*
X218959700Y-185879700D02*
X219396000Y-186316000D01*
X190967800Y-185879700D02*
X218959700Y-185879700D01*
X189252900Y-187594600D02*
X190967800Y-185879700D01*
X172900600Y-187594600D02*
X189252900Y-187594600D01*
X170710000Y-185404000D02*
X172900600Y-187594600D01*
X167833600Y-185404000D02*
X170710000Y-185404000D01*
X165100800Y-182671200D02*
X167833600Y-185404000D01*
X157043800Y-182671200D02*
X165100800Y-182671200D01*
X360804000Y-179796000D02*
X359026000Y-179796000D01*
X219396000Y-188816000D02*
X219396000Y-187716000D01*
X219396000Y-187716000D02*
X219396000Y-186316000D01*
X287432000Y-186316000D02*
X287432000Y-187716000D01*
X287432000Y-187716000D02*
X287432000Y-188816000D01*
X147751800Y-244816800D02*
X149900000Y-246965000D01*
X140645800Y-244816800D02*
X147751800Y-244816800D01*
X132286300Y-236457300D02*
X140645800Y-244816800D01*
X113516900Y-236457300D02*
X132286300Y-236457300D01*
X107037500Y-229977900D02*
X113516900Y-236457300D01*
X107037500Y-227915000D02*
X107037500Y-229977900D01*
X232081900Y-198630400D02*
X230862500Y-199849800D01*
X263026800Y-198630400D02*
X232081900Y-198630400D01*
X271441200Y-190216000D02*
X263026800Y-198630400D01*
X272889000Y-190216000D02*
X271441200Y-190216000D01*
X277945600Y-185159400D02*
X272889000Y-190216000D01*
X286275400Y-185159400D02*
X277945600Y-185159400D01*
X287432000Y-186316000D02*
X286275400Y-185159400D01*
X230416400Y-199403700D02*
X230862500Y-199849800D01*
X227472200Y-199403700D02*
X230416400Y-199403700D01*
X230862500Y-199849800D02*
X230862500Y-208865000D01*
X279863000Y-187716000D02*
X279863000Y-186316000D01*
X359026000Y-182336000D02*
X360804000Y-182336000D01*
X249672000Y-188816000D02*
X249672000Y-187716000D01*
X249672000Y-187716000D02*
X249672000Y-186316000D01*
X112526800Y-228766800D02*
X107428700Y-223668700D01*
X116046300Y-228766800D02*
X112526800Y-228766800D01*
X118734700Y-231455200D02*
X116046300Y-228766800D01*
X119264800Y-230925100D02*
X118734700Y-231455200D01*
X120357400Y-230925100D02*
X119264800Y-230925100D01*
X123367500Y-227915000D02*
X120357400Y-230925100D01*
X126087500Y-227915000D02*
X123367500Y-227915000D01*
X166801800Y-244816800D02*
X168950000Y-246965000D01*
X159695800Y-244816800D02*
X166801800Y-244816800D01*
X150831100Y-235952100D02*
X159695800Y-244816800D01*
X118867300Y-235952100D02*
X150831100Y-235952100D01*
X118734700Y-235819500D02*
X118867300Y-235952100D01*
X118734700Y-231455200D02*
X118734700Y-235819500D01*
X279863000Y-188816000D02*
X279863000Y-187716000D01*
X279863000Y-188816000D02*
X280815700Y-188816000D01*
X330417000Y-191209300D02*
X333835500Y-187790800D01*
X298317300Y-191209300D02*
X330417000Y-191209300D01*
X297364900Y-190256900D02*
X298317300Y-191209300D01*
X282256600Y-190256900D02*
X297364900Y-190256900D01*
X280815700Y-188816000D02*
X282256600Y-190256900D01*
X302561900Y-233207600D02*
X296809200Y-233207600D01*
X314171100Y-244816800D02*
X302561900Y-233207600D01*
X321583100Y-244816800D02*
X314171100Y-244816800D01*
X323731300Y-246965000D02*
X321583100Y-244816800D01*
X272294000Y-188816000D02*
X272294000Y-187716000D01*
X360804000Y-184876000D02*
X359026000Y-184876000D01*
X272294000Y-186316000D02*
X272294000Y-187716000D01*
X242103000Y-188816000D02*
X242103000Y-187716000D01*
X242103000Y-187716000D02*
X242103000Y-186316000D01*
X272294000Y-188816000D02*
X271341300Y-188816000D01*
X271341300Y-189601400D02*
X271341300Y-188816000D01*
X265674000Y-195268700D02*
X271341300Y-189601400D01*
X261749100Y-195268700D02*
X265674000Y-195268700D01*
X248651900Y-195268700D02*
X248247500Y-194864300D01*
X261749100Y-195268700D02*
X248651900Y-195268700D01*
X147712200Y-212087500D02*
X150834000Y-212087500D01*
X145988800Y-213810900D02*
X147712200Y-212087500D01*
X134858400Y-213810900D02*
X145988800Y-213810900D01*
X133139700Y-212092200D02*
X134858400Y-213810900D01*
X127965200Y-212092200D02*
X133139700Y-212092200D01*
X124738000Y-208865000D02*
X127965200Y-212092200D01*
X116562500Y-208865000D02*
X124738000Y-208865000D01*
X240926500Y-185139500D02*
X242103000Y-186316000D01*
X233255300Y-185139500D02*
X240926500Y-185139500D01*
X228178800Y-190216000D02*
X233255300Y-185139500D01*
X225394800Y-190216000D02*
X228178800Y-190216000D01*
X220342100Y-195268700D02*
X225394800Y-190216000D01*
X170004700Y-195268700D02*
X220342100Y-195268700D01*
X156556900Y-208716500D02*
X170004700Y-195268700D01*
X156556900Y-209037200D02*
X156556900Y-208716500D01*
X155238000Y-210356100D02*
X156556900Y-209037200D01*
X154099000Y-210356100D02*
X155238000Y-210356100D01*
X153923200Y-210180300D02*
X154099000Y-210356100D01*
X152741200Y-210180300D02*
X153923200Y-210180300D01*
X150834000Y-212087500D02*
X152741200Y-210180300D01*
X150834000Y-212162700D02*
X153458700Y-214787400D01*
X150834000Y-212087500D02*
X150834000Y-212162700D01*
X364892800Y-211246200D02*
X371356300Y-211246200D01*
X352276200Y-223862800D02*
X364892800Y-211246200D01*
X301589700Y-223862800D02*
X352276200Y-223862800D01*
X297537500Y-227915000D02*
X301589700Y-223862800D01*
X264725000Y-187716000D02*
X264725000Y-186316000D01*
X234534000Y-186316000D02*
X234534000Y-187716000D01*
X359026000Y-187416000D02*
X360804000Y-187416000D01*
X234534000Y-188816000D02*
X233581300Y-188816000D01*
X149140200Y-218125600D02*
X139870400Y-218125600D01*
X156819100Y-225804500D02*
X149140200Y-218125600D01*
X162077000Y-225804500D02*
X156819100Y-225804500D01*
X164187500Y-227915000D02*
X162077000Y-225804500D01*
X203249500Y-213676500D02*
X203249500Y-215828300D01*
X205081000Y-211845000D02*
X203249500Y-213676500D01*
X206139000Y-211845000D02*
X205081000Y-211845000D01*
X214130700Y-203853300D02*
X206139000Y-211845000D01*
X219377600Y-203853300D02*
X214130700Y-203853300D01*
X233581300Y-189649600D02*
X219377600Y-203853300D01*
X233581300Y-188816000D02*
X233581300Y-189649600D01*
X264725000Y-188816000D02*
X264725000Y-187716000D01*
X236639500Y-189968800D02*
X235486700Y-188816000D01*
X262619500Y-189968800D02*
X236639500Y-189968800D01*
X263772300Y-188816000D02*
X262619500Y-189968800D01*
X264725000Y-188816000D02*
X263772300Y-188816000D01*
X234534000Y-188816000D02*
X235010400Y-188816000D01*
X235010400Y-188816000D02*
X235486700Y-188816000D01*
X234534000Y-188339600D02*
X234534000Y-187716000D01*
X235010400Y-188816000D02*
X234534000Y-188339600D01*
X362217900Y-235058700D02*
X371356300Y-235058700D01*
X358054200Y-230895000D02*
X362217900Y-235058700D01*
X332394400Y-230895000D02*
X358054200Y-230895000D01*
X329414400Y-227915000D02*
X332394400Y-230895000D01*
X321350000Y-227915000D02*
X329414400Y-227915000D01*
X226965000Y-187716000D02*
X226965000Y-188816000D01*
X360804000Y-189956000D02*
X359026000Y-189956000D01*
X257156000Y-186316000D02*
X257156000Y-187716000D01*
X257156000Y-187716000D02*
X257156000Y-188816000D01*
X68783800Y-246965000D02*
X64175000Y-246965000D01*
X71197600Y-249378800D02*
X68783800Y-246965000D01*
X71197600Y-250155500D02*
X71197600Y-249378800D01*
X76434400Y-255392300D02*
X71197600Y-250155500D01*
X104244600Y-255392300D02*
X76434400Y-255392300D01*
X112756900Y-263904600D02*
X104244600Y-255392300D01*
X119214600Y-263904600D02*
X112756900Y-263904600D01*
X121325000Y-266015000D02*
X119214600Y-263904600D01*
X223951800Y-244816800D02*
X226100000Y-246965000D01*
X216845800Y-244816800D02*
X223951800Y-244816800D01*
X210156800Y-238127800D02*
X216845800Y-244816800D01*
X191361100Y-238127800D02*
X210156800Y-238127800D01*
X183237500Y-230004200D02*
X191361100Y-238127800D01*
X183237500Y-227915000D02*
X183237500Y-230004200D01*
X294127300Y-184654200D02*
X299017100Y-189544000D01*
X258817800Y-184654200D02*
X294127300Y-184654200D01*
X257156000Y-186316000D02*
X258817800Y-184654200D01*
X226965000Y-186316000D02*
X226965000Y-187716000D01*
X255473200Y-184633200D02*
X257156000Y-186316000D01*
X228647800Y-184633200D02*
X255473200Y-184633200D01*
X226965000Y-186316000D02*
X228647800Y-184633200D01*
X359026000Y-192496000D02*
X360804000Y-192496000D01*
X360804000Y-192496000D02*
X362781700Y-192496000D01*
X372809100Y-260431300D02*
X358455600Y-274784800D01*
X372809100Y-202523400D02*
X372809100Y-260431300D01*
X362781700Y-192496000D02*
X372809100Y-202523400D01*
X366354500Y-282683700D02*
X358455600Y-274784800D01*
X371356300Y-282683700D02*
X366354500Y-282683700D01*
X258706000Y-261984000D02*
X254675000Y-266015000D01*
X262588000Y-261984000D02*
X258706000Y-261984000D01*
X264470800Y-263866800D02*
X262588000Y-261984000D01*
X276111900Y-263866800D02*
X264470800Y-263866800D01*
X277957400Y-262021300D02*
X276111900Y-263866800D01*
X281675300Y-262021300D02*
X277957400Y-262021300D01*
X283520700Y-263866700D02*
X281675300Y-262021300D01*
X302368000Y-263866700D02*
X283520700Y-263866700D01*
X304445700Y-265944400D02*
X302368000Y-263866700D01*
X307939200Y-265944400D02*
X304445700Y-265944400D01*
X310742600Y-268747800D02*
X307939200Y-265944400D01*
X313145200Y-268747800D02*
X310742600Y-268747800D01*
X319182200Y-274784800D02*
X313145200Y-268747800D01*
X358455600Y-274784800D02*
X319182200Y-274784800D01*
X228405100Y-237326100D02*
X210687000Y-237326100D01*
X235895800Y-244816800D02*
X228405100Y-237326100D01*
X243001800Y-244816800D02*
X235895800Y-244816800D01*
X245150000Y-246965000D02*
X243001800Y-244816800D01*
X202287500Y-229976600D02*
X202287500Y-227915000D01*
X209637000Y-237326100D02*
X202287500Y-229976600D01*
X210687000Y-237326100D02*
X209637000Y-237326100D01*
X360804000Y-195036000D02*
X359026000Y-195036000D01*
X109651800Y-244816800D02*
X111800000Y-246965000D01*
X102545800Y-244816800D02*
X109651800Y-244816800D01*
X94182000Y-236453000D02*
X102545800Y-244816800D01*
X74118400Y-236453000D02*
X94182000Y-236453000D01*
X68957000Y-231291600D02*
X74118400Y-236453000D01*
X68957000Y-230429200D02*
X68957000Y-231291600D01*
X66442800Y-227915000D02*
X68957000Y-230429200D01*
X61793800Y-227915000D02*
X66442800Y-227915000D01*
X271997200Y-230647800D02*
X264200000Y-238445000D01*
X273123100Y-230647800D02*
X271997200Y-230647800D01*
X276576500Y-227194400D02*
X273123100Y-230647800D01*
X276576500Y-216543500D02*
X276576500Y-227194400D01*
X281522200Y-211597800D02*
X276576500Y-216543500D01*
X282586200Y-211597800D02*
X281522200Y-211597800D01*
X285583600Y-208600400D02*
X282586200Y-211597800D01*
X285583600Y-205639800D02*
X285583600Y-208600400D01*
X262298000Y-236543000D02*
X264200000Y-238445000D01*
X227897800Y-236543000D02*
X262298000Y-236543000D01*
X221337500Y-229982700D02*
X227897800Y-236543000D01*
X221337500Y-227915000D02*
X221337500Y-229982700D01*
X264200000Y-238445000D02*
X264200000Y-246965000D01*
X138901000Y-246965000D02*
X130850000Y-246965000D01*
X141633800Y-249697800D02*
X138901000Y-246965000D01*
X144852800Y-249697800D02*
X141633800Y-249697800D01*
X150152800Y-254997800D02*
X144852800Y-249697800D01*
X160351800Y-254997800D02*
X150152800Y-254997800D01*
X169220800Y-263866800D02*
X160351800Y-254997800D01*
X176326800Y-263866800D02*
X169220800Y-263866800D01*
X178475000Y-266015000D02*
X176326800Y-263866800D01*
X128701800Y-244816800D02*
X130850000Y-246965000D01*
X120938200Y-244816800D02*
X128701800Y-244816800D01*
X112069200Y-235947800D02*
X120938200Y-244816800D01*
X93905300Y-235947800D02*
X112069200Y-235947800D01*
X87987500Y-230030000D02*
X93905300Y-235947800D01*
X87987500Y-227915000D02*
X87987500Y-230030000D01*
X228632200Y-222595000D02*
X222790400Y-222595000D01*
X231804000Y-225766800D02*
X228632200Y-222595000D01*
X238239300Y-225766800D02*
X231804000Y-225766800D01*
X240387500Y-227915000D02*
X238239300Y-225766800D01*
X360804000Y-197576000D02*
X359026000Y-197576000D01*
X359026000Y-200082800D02*
X359026000Y-197576000D01*
X336398900Y-222709900D02*
X359026000Y-200082800D01*
X300628500Y-222709900D02*
X336398900Y-222709900D01*
X294676400Y-228662000D02*
X300628500Y-222709900D01*
X294676400Y-235538600D02*
X294676400Y-228662000D01*
X283250000Y-246965000D02*
X294676400Y-235538600D01*
X248475000Y-272895000D02*
X248475000Y-271495000D01*
X248475000Y-270395000D02*
X248475000Y-271495000D01*
X348866000Y-197576000D02*
X348866000Y-199481000D01*
X207993800Y-289445000D02*
X207993800Y-290545000D01*
X207993800Y-290545000D02*
X207993800Y-291945000D01*
X105600000Y-290545000D02*
X105600000Y-291945000D01*
X105600000Y-291945000D02*
X105600000Y-292347700D01*
X206438400Y-292347700D02*
X105600000Y-292347700D01*
X206841100Y-291945000D02*
X206438400Y-292347700D01*
X207993800Y-291945000D02*
X206841100Y-291945000D01*
X105600000Y-289445000D02*
X105600000Y-290545000D01*
X312768800Y-189551200D02*
X312768800Y-188151200D01*
X312768800Y-188151200D02*
X312768800Y-187579700D01*
X312768800Y-187579700D02*
X312768800Y-187051200D01*
X272153400Y-175023900D02*
X270981000Y-176196300D01*
X286670900Y-175023900D02*
X272153400Y-175023900D01*
X299226700Y-187579700D02*
X286670900Y-175023900D01*
X312768800Y-187579700D02*
X299226700Y-187579700D01*
X232189400Y-174503800D02*
X231942200Y-174751000D01*
X269288500Y-174503800D02*
X232189400Y-174503800D01*
X270981000Y-176196300D02*
X269288500Y-174503800D01*
X291337500Y-233395000D02*
X291337500Y-232295000D01*
X310387500Y-232295000D02*
X310387500Y-233395000D01*
X358012500Y-289445000D02*
X358012500Y-290545000D01*
X358012500Y-290545000D02*
X358012500Y-291945000D01*
X143700000Y-253845000D02*
X142547300Y-253845000D01*
X124650000Y-253145000D02*
X124650000Y-253845000D01*
X124650000Y-253145000D02*
X124650000Y-252445000D01*
X124650000Y-252445000D02*
X124650000Y-251345000D01*
X124650000Y-253845000D02*
X124650000Y-254046300D01*
X124650000Y-254046300D02*
X124650000Y-254247700D01*
X106954000Y-254046300D02*
X106752700Y-253845000D01*
X124650000Y-254046300D02*
X106954000Y-254046300D01*
X105600000Y-253845000D02*
X106752700Y-253845000D01*
X77025000Y-251345000D02*
X77025000Y-252445000D01*
X334200000Y-232295000D02*
X334200000Y-233395000D01*
X105600000Y-253845000D02*
X105023700Y-253845000D01*
X105600000Y-252445000D02*
X105600000Y-251345000D01*
X143700000Y-252445000D02*
X143700000Y-253845000D01*
X143700000Y-252445000D02*
X143700000Y-251345000D01*
X272287500Y-232295000D02*
X272287500Y-233395000D01*
X77025000Y-252445000D02*
X77025000Y-253845000D01*
X77025000Y-253845000D02*
X78177700Y-253845000D01*
X105600000Y-253268700D02*
X105023700Y-253845000D01*
X105600000Y-252445000D02*
X105600000Y-253268700D01*
X105023700Y-253845000D02*
X78177700Y-253845000D01*
X272287500Y-233395000D02*
X272287500Y-234795000D01*
X334200000Y-233395000D02*
X334200000Y-234795000D01*
X273790200Y-234445000D02*
X273440200Y-234795000D01*
X291337500Y-234445000D02*
X273790200Y-234445000D01*
X291337500Y-233395000D02*
X291337500Y-234445000D01*
X342008000Y-195036000D02*
X343786000Y-195036000D01*
X291337500Y-234795000D02*
X291337500Y-234445000D01*
X142144600Y-254247700D02*
X142547300Y-253845000D01*
X124650000Y-254247700D02*
X142144600Y-254247700D01*
X310387500Y-233395000D02*
X310387500Y-234095000D01*
X310387500Y-234095000D02*
X310387500Y-234795000D01*
X332347300Y-234095000D02*
X333047300Y-234795000D01*
X310387500Y-234095000D02*
X332347300Y-234095000D01*
X334200000Y-234795000D02*
X333047300Y-234795000D01*
X272287500Y-234795000D02*
X272575700Y-234795000D01*
X272575700Y-234795000D02*
X273440200Y-234795000D01*
X342008000Y-195036000D02*
X340030300Y-195036000D01*
X267553800Y-239816900D02*
X272575700Y-234795000D01*
X267553800Y-245670500D02*
X267553800Y-239816900D01*
X264806500Y-248417800D02*
X267553800Y-245670500D01*
X263571100Y-248417800D02*
X264806500Y-248417800D01*
X263409600Y-248256300D02*
X263571100Y-248417800D01*
X261781500Y-248256300D02*
X263409600Y-248256300D01*
X260340000Y-249697800D02*
X261781500Y-248256300D01*
X256876800Y-249697800D02*
X260340000Y-249697800D01*
X254716200Y-251858400D02*
X256876800Y-249697800D01*
X244343400Y-251858400D02*
X254716200Y-251858400D01*
X242677200Y-250192200D02*
X244343400Y-251858400D01*
X238195000Y-250192200D02*
X242677200Y-250192200D01*
X236529400Y-251857800D02*
X238195000Y-250192200D01*
X225292800Y-251857800D02*
X236529400Y-251857800D01*
X223627200Y-250192200D02*
X225292800Y-251857800D01*
X218414800Y-250192200D02*
X223627200Y-250192200D01*
X216748600Y-251858400D02*
X218414800Y-250192200D01*
X206243400Y-251858400D02*
X216748600Y-251858400D01*
X204577200Y-250192200D02*
X206243400Y-251858400D01*
X200095000Y-250192200D02*
X204577200Y-250192200D01*
X198428200Y-251859000D02*
X200095000Y-250192200D01*
X185358700Y-251859000D02*
X198428200Y-251859000D01*
X183378000Y-249878300D02*
X185358700Y-251859000D01*
X179676500Y-249878300D02*
X183378000Y-249878300D01*
X336429700Y-198636600D02*
X340030300Y-195036000D01*
X336429700Y-209302000D02*
X336429700Y-198636600D01*
X157987500Y-232295000D02*
X157987500Y-233395000D01*
X157987500Y-233395000D02*
X157987500Y-234795000D01*
X138937500Y-234795000D02*
X140090200Y-234795000D01*
X119887500Y-232295000D02*
X119887500Y-233395000D01*
X319912500Y-289445000D02*
X319912500Y-290545000D01*
X319912500Y-290545000D02*
X319912500Y-291945000D01*
X196087500Y-233395000D02*
X196087500Y-234795000D01*
X138937500Y-232295000D02*
X138937500Y-233395000D01*
X140090200Y-234795000D02*
X157987500Y-234795000D01*
X234187500Y-232295000D02*
X234187500Y-233395000D01*
X159542900Y-235197700D02*
X177037500Y-235197700D01*
X159140200Y-234795000D02*
X159542900Y-235197700D01*
X177037500Y-234795000D02*
X177037500Y-235197700D01*
X157987500Y-234795000D02*
X159140200Y-234795000D01*
X177037500Y-234095000D02*
X177037500Y-234795000D01*
X177037500Y-234095000D02*
X177037500Y-233395000D01*
X177037500Y-233395000D02*
X177037500Y-232295000D01*
X119887500Y-233395000D02*
X119887500Y-234795000D01*
X234187500Y-233395000D02*
X234187500Y-234095000D01*
X234187500Y-234095000D02*
X234187500Y-234795000D01*
X251384800Y-234095000D02*
X252084800Y-234795000D01*
X234187500Y-234095000D02*
X251384800Y-234095000D01*
X253237500Y-234795000D02*
X252084800Y-234795000D01*
X138937500Y-233395000D02*
X138937500Y-234095000D01*
X138937500Y-234095000D02*
X138937500Y-234795000D01*
X121740200Y-234095000D02*
X121040200Y-234795000D01*
X138937500Y-234095000D02*
X121740200Y-234095000D01*
X119887500Y-234795000D02*
X121040200Y-234795000D01*
X215137500Y-233395000D02*
X215137500Y-234776900D01*
X215137500Y-234776900D02*
X215137500Y-234795000D01*
X196087500Y-232295000D02*
X196563900Y-232295000D01*
X215137500Y-233395000D02*
X215137500Y-232295000D01*
X233234800Y-231699600D02*
X233234800Y-232295000D01*
X230189600Y-228654400D02*
X233234800Y-231699600D01*
X227440700Y-228654400D02*
X230189600Y-228654400D01*
X225246900Y-226460600D02*
X227440700Y-228654400D01*
X220687700Y-226460600D02*
X225246900Y-226460600D01*
X216006000Y-231142300D02*
X220687700Y-226460600D01*
X215137500Y-231142300D02*
X216006000Y-231142300D01*
X215137500Y-232295000D02*
X215137500Y-231142300D01*
X234187500Y-232295000D02*
X233234800Y-232295000D01*
X196087500Y-232771400D02*
X196563900Y-232295000D01*
X196087500Y-233395000D02*
X196087500Y-232771400D01*
X213571900Y-231142300D02*
X215137500Y-231142300D01*
X211084000Y-228654400D02*
X213571900Y-231142300D01*
X209604500Y-228654400D02*
X211084000Y-228654400D01*
X207398800Y-226448700D02*
X209604500Y-228654400D01*
X201671700Y-226448700D02*
X207398800Y-226448700D01*
X196563900Y-231556500D02*
X201671700Y-226448700D01*
X196563900Y-232295000D02*
X196563900Y-231556500D01*
X253237500Y-233395000D02*
X253237500Y-232295000D01*
X253237500Y-234795000D02*
X253237500Y-233395000D01*
X343786000Y-192496000D02*
X342008000Y-192496000D01*
X342008000Y-192496000D02*
X340030300Y-192496000D01*
X335562900Y-196963400D02*
X340030300Y-192496000D01*
X335562900Y-209260900D02*
X335562900Y-196963400D01*
X334017900Y-210805900D02*
X335562900Y-209260900D01*
X334017900Y-213282400D02*
X334017900Y-210805900D01*
X325258700Y-222041600D02*
X334017900Y-213282400D01*
X300576200Y-222041600D02*
X325258700Y-222041600D01*
X294171300Y-228446500D02*
X300576200Y-222041600D01*
X294171300Y-234164300D02*
X294171300Y-228446500D01*
X291677900Y-236657700D02*
X294171300Y-234164300D01*
X291406800Y-236657700D02*
X291677900Y-236657700D01*
X278230500Y-249834000D02*
X291406800Y-236657700D01*
X278230500Y-249945000D02*
X278230500Y-249834000D01*
X338962500Y-289445000D02*
X338962500Y-290545000D01*
X338962500Y-290545000D02*
X338962500Y-291945000D01*
X262762500Y-213245000D02*
X262762500Y-214345000D01*
X342008000Y-189956000D02*
X343786000Y-189956000D01*
X336581300Y-187051200D02*
X336581300Y-188151200D01*
X100837500Y-233395000D02*
X100837500Y-232295000D01*
X100837500Y-234795000D02*
X100837500Y-233395000D01*
X300862500Y-213245000D02*
X300862500Y-214345000D01*
X243712500Y-213245000D02*
X243712500Y-214345000D01*
X281812500Y-214345000D02*
X281812500Y-213245000D01*
X243712500Y-214345000D02*
X243712500Y-215745000D01*
X336581300Y-188151200D02*
X336581300Y-188851200D01*
X342008000Y-189956000D02*
X340030300Y-189956000D01*
X100837500Y-232295000D02*
X100602900Y-232295000D01*
X243712500Y-215745000D02*
X242559800Y-215745000D01*
X245267900Y-216147700D02*
X262762500Y-216147700D01*
X244865200Y-215745000D02*
X245267900Y-216147700D01*
X262762500Y-214345000D02*
X262762500Y-215745000D01*
X262762500Y-215745000D02*
X262762500Y-216147700D01*
X243712500Y-215745000D02*
X244865200Y-215745000D01*
X338925500Y-188851200D02*
X336581300Y-188851200D01*
X340030300Y-189956000D02*
X338925500Y-188851200D01*
X74643800Y-232295000D02*
X75596500Y-232295000D01*
X100602900Y-232295000D02*
X100602900Y-231345000D01*
X100959100Y-231345000D02*
X100602900Y-231345000D01*
X106543900Y-225760200D02*
X100959100Y-231345000D01*
X106543900Y-223453100D02*
X106543900Y-225760200D01*
X112643000Y-217354000D02*
X106543900Y-223453100D01*
X240950800Y-217354000D02*
X112643000Y-217354000D01*
X242559800Y-215745000D02*
X240950800Y-217354000D01*
X81467900Y-226423600D02*
X75596500Y-232295000D01*
X92846100Y-226423600D02*
X81467900Y-226423600D01*
X94524700Y-228102200D02*
X92846100Y-226423600D01*
X97360100Y-228102200D02*
X94524700Y-228102200D01*
X100602900Y-231345000D02*
X97360100Y-228102200D01*
X74643800Y-234795000D02*
X74643800Y-233395000D01*
X74643800Y-233395000D02*
X74643800Y-232295000D01*
X329437500Y-214345000D02*
X329437500Y-213245000D01*
X281812500Y-214345000D02*
X281812500Y-215045000D01*
X281812500Y-215045000D02*
X281812500Y-215745000D01*
X299009800Y-215045000D02*
X299709800Y-215745000D01*
X281812500Y-215045000D02*
X299009800Y-215045000D01*
X300862500Y-215745000D02*
X299709800Y-215745000D01*
X329437500Y-214345000D02*
X329437500Y-214941500D01*
X302818700Y-214941500D02*
X302015200Y-215745000D01*
X329437500Y-214941500D02*
X302818700Y-214941500D01*
X300862500Y-215745000D02*
X301438900Y-215745000D01*
X301438900Y-215745000D02*
X302015200Y-215745000D01*
X300862500Y-215168600D02*
X300862500Y-214345000D01*
X301438900Y-215745000D02*
X300862500Y-215168600D01*
X329437500Y-215745000D02*
X329437500Y-214941500D01*
X336581300Y-188851200D02*
X336581300Y-189201200D01*
X336581300Y-189201200D02*
X336581300Y-189551200D01*
X330702500Y-213245000D02*
X329437500Y-213245000D01*
X334795200Y-209152300D02*
X330702500Y-213245000D01*
X334795200Y-192490000D02*
X334795200Y-209152300D01*
X336581300Y-190703900D02*
X334795200Y-192490000D01*
X336581300Y-189551200D02*
X336581300Y-190703900D01*
X129412500Y-214345000D02*
X129412500Y-213245000D01*
X129412500Y-215745000D02*
X129412500Y-214345000D01*
X148462500Y-213245000D02*
X148462500Y-214345000D01*
X91312500Y-214345000D02*
X91312500Y-213245000D01*
X338962500Y-270395000D02*
X338962500Y-271495000D01*
X338962500Y-271495000D02*
X338962500Y-272895000D01*
X110362500Y-213245000D02*
X110362500Y-214345000D01*
X127857100Y-216147700D02*
X110362500Y-216147700D01*
X128259800Y-215745000D02*
X127857100Y-216147700D01*
X110362500Y-214345000D02*
X110362500Y-215745000D01*
X129412500Y-215745000D02*
X128259800Y-215745000D01*
X91312500Y-214345000D02*
X91312500Y-215745000D01*
X148462500Y-214345000D02*
X148462500Y-215359100D01*
X148462500Y-215359100D02*
X148462500Y-215745000D01*
X130951100Y-215359100D02*
X130565200Y-215745000D01*
X148462500Y-215359100D02*
X130951100Y-215359100D01*
X129412500Y-215745000D02*
X130565200Y-215745000D01*
X148462500Y-215745000D02*
X149615200Y-215745000D01*
X205612500Y-213245000D02*
X205612500Y-214345000D01*
X224662500Y-215745000D02*
X223509800Y-215745000D01*
X205612500Y-215745000D02*
X223509800Y-215745000D01*
X110362500Y-215745000D02*
X110362500Y-215946300D01*
X110362500Y-215946300D02*
X110362500Y-216147700D01*
X92666500Y-215946300D02*
X92465200Y-215745000D01*
X110362500Y-215946300D02*
X92666500Y-215946300D01*
X91312500Y-215745000D02*
X92465200Y-215745000D01*
X167512500Y-215745000D02*
X166359800Y-215745000D01*
X186562500Y-213245000D02*
X185609800Y-213245000D01*
X167512500Y-213245000D02*
X167512500Y-213765600D01*
X185089200Y-213765600D02*
X167512500Y-213765600D01*
X185609800Y-213245000D02*
X185089200Y-213765600D01*
X186562500Y-214345000D02*
X186562500Y-213245000D01*
X205612500Y-214345000D02*
X205612500Y-215745000D01*
X186562500Y-214345000D02*
X186562500Y-215045000D01*
X186562500Y-215045000D02*
X186562500Y-215745000D01*
X203614800Y-216590000D02*
X204459800Y-215745000D01*
X188107500Y-216590000D02*
X203614800Y-216590000D01*
X186562500Y-215045000D02*
X188107500Y-216590000D01*
X205612500Y-215745000D02*
X204459800Y-215745000D01*
X149615200Y-215745000D02*
X166359800Y-215745000D01*
X167512500Y-213765600D02*
X167512500Y-214345000D01*
X167512500Y-214345000D02*
X167512500Y-215745000D01*
X224662500Y-215045000D02*
X224662500Y-215745000D01*
X224662500Y-215045000D02*
X224662500Y-214345000D01*
X343786000Y-187416000D02*
X342008000Y-187416000D01*
X224662500Y-214345000D02*
X224662500Y-213245000D01*
X224662500Y-213245000D02*
X225615200Y-213245000D01*
X256512900Y-199832600D02*
X324140100Y-199832600D01*
X249567600Y-206777900D02*
X256512900Y-199832600D01*
X240862600Y-206777900D02*
X249567600Y-206777900D01*
X238950000Y-208690500D02*
X240862600Y-206777900D01*
X233460100Y-208690500D02*
X238950000Y-208690500D01*
X231783500Y-210367100D02*
X233460100Y-208690500D01*
X230255700Y-210367100D02*
X231783500Y-210367100D01*
X230052500Y-210163900D02*
X230255700Y-210367100D01*
X228696300Y-210163900D02*
X230052500Y-210163900D01*
X225615200Y-213245000D02*
X228696300Y-210163900D01*
X334971600Y-189001100D02*
X324140100Y-199832600D01*
X334971600Y-186694900D02*
X334971600Y-189001100D01*
X335768100Y-185898400D02*
X334971600Y-186694900D01*
X338429800Y-185898400D02*
X335768100Y-185898400D01*
X339947400Y-187416000D02*
X338429800Y-185898400D01*
X342008000Y-187416000D02*
X339947400Y-187416000D01*
X330928800Y-206621300D02*
X330928800Y-211954000D01*
X324140100Y-199832600D02*
X330928800Y-206621300D01*
X69881300Y-214345000D02*
X69881300Y-215745000D01*
X384206300Y-288163700D02*
X384206300Y-289563700D01*
X312768800Y-272895000D02*
X312768800Y-271495000D01*
X312768800Y-271495000D02*
X312768800Y-270395000D01*
X169893800Y-187051200D02*
X169893800Y-188151200D01*
X193706300Y-188151200D02*
X193706300Y-187051200D01*
X384206300Y-215626200D02*
X384206300Y-216726200D01*
X384206300Y-216726200D02*
X384206300Y-218126200D01*
X384206300Y-239438700D02*
X384206300Y-240538700D01*
X384206300Y-240538700D02*
X384206300Y-241938700D01*
X384206300Y-187051200D02*
X384206300Y-188151200D01*
X384206300Y-264351200D02*
X384206300Y-263251200D01*
X169893800Y-189551200D02*
X168741100Y-189551200D01*
X69881300Y-213245000D02*
X69881300Y-214345000D01*
X167588400Y-190703900D02*
X168741100Y-189551200D01*
X116360600Y-190703900D02*
X167588400Y-190703900D01*
X100272300Y-206792200D02*
X116360600Y-190703900D01*
X88448300Y-206792200D02*
X100272300Y-206792200D01*
X86550000Y-208690500D02*
X88448300Y-206792200D01*
X81060100Y-208690500D02*
X86550000Y-208690500D01*
X79383500Y-210367100D02*
X81060100Y-208690500D01*
X77855700Y-210367100D02*
X79383500Y-210367100D01*
X77652500Y-210163900D02*
X77855700Y-210367100D01*
X73915100Y-210163900D02*
X77652500Y-210163900D01*
X70834000Y-213245000D02*
X73915100Y-210163900D01*
X69881300Y-213245000D02*
X70834000Y-213245000D01*
X193706300Y-189551200D02*
X193706300Y-188151200D01*
X384206300Y-287063700D02*
X385159000Y-287063700D01*
X384206300Y-265751200D02*
X384206300Y-264351200D01*
X384206300Y-265751200D02*
X384206300Y-266903900D01*
X385390200Y-268087800D02*
X384206300Y-266903900D01*
X385390200Y-286832500D02*
X385390200Y-268087800D01*
X385159000Y-287063700D02*
X385390200Y-286832500D01*
X312768800Y-272895000D02*
X313921500Y-272895000D01*
X317269700Y-276243200D02*
X313921500Y-272895000D01*
X357132200Y-276243200D02*
X317269700Y-276243200D01*
X368473300Y-287584300D02*
X357132200Y-276243200D01*
X384206300Y-287584300D02*
X368473300Y-287584300D01*
X384206300Y-287063700D02*
X384206300Y-287584300D01*
X384206300Y-287584300D02*
X384206300Y-288163700D01*
X384206300Y-188151200D02*
X384206300Y-189551200D01*
X385359100Y-215426100D02*
X385159000Y-215626200D01*
X385359100Y-191856700D02*
X385359100Y-215426100D01*
X384206300Y-190703900D02*
X385359100Y-191856700D01*
X384206300Y-189551200D02*
X384206300Y-190703900D01*
X384206300Y-215626200D02*
X385159000Y-215626200D01*
X169893800Y-188151200D02*
X169893800Y-188851200D01*
X169893800Y-188851200D02*
X169893800Y-189551200D01*
X191853600Y-188851200D02*
X192553600Y-189551200D01*
X169893800Y-188851200D02*
X191853600Y-188851200D01*
X193706300Y-189551200D02*
X192553600Y-189551200D01*
X343786000Y-184876000D02*
X342008000Y-184876000D01*
X195295300Y-189987500D02*
X194859000Y-189551200D01*
X221652900Y-189987500D02*
X195295300Y-189987500D01*
X227569900Y-184070500D02*
X221652900Y-189987500D01*
X294982100Y-184070500D02*
X227569900Y-184070500D01*
X301615600Y-190704000D02*
X294982100Y-184070500D01*
X318669600Y-190704000D02*
X301615600Y-190704000D01*
X327217400Y-182156200D02*
X318669600Y-190704000D01*
X327217400Y-180928500D02*
X327217400Y-182156200D01*
X329502300Y-178643600D02*
X327217400Y-180928500D01*
X335150600Y-178643600D02*
X329502300Y-178643600D01*
X340030300Y-183523300D02*
X335150600Y-178643600D01*
X340030300Y-184876000D02*
X340030300Y-183523300D01*
X342008000Y-184876000D02*
X340030300Y-184876000D01*
X193706300Y-189551200D02*
X194859000Y-189551200D01*
M02*
