%TF.GenerationSoftware,KiCad,Pcbnew,5.1.5+dfsg1-2build2*%
%TF.CreationDate,2020-08-25T19:56:10-04:00*%
%TF.ProjectId,esp-toy,6573702d-746f-4792-9e6b-696361645f70,rev?*%
%TF.SameCoordinates,Original*%
%TF.FileFunction,Legend,Top*%
%TF.FilePolarity,Positive*%
%FSLAX46Y46*%
G04 Gerber Fmt 4.6, Leading zero omitted, Abs format (unit mm)*
G04 Created by KiCad (PCBNEW 5.1.5+dfsg1-2build2) date 2020-08-25 19:56:10*
%MOMM*%
%LPD*%
G04 APERTURE LIST*
%ADD10C,0.120000*%
%ADD11C,0.300000*%
%ADD12C,0.150000*%
G04 APERTURE END LIST*
D10*
%TO.C,A2*%
X172160000Y-93620000D02*
X151840000Y-78380000D01*
X151840000Y-93620000D02*
X172160000Y-78380000D01*
X151468026Y-92350000D02*
G75*
G03X151468026Y-92350000I-898026J0D01*
G01*
%TO.C,A1*%
X145660000Y-93620000D02*
X125340000Y-78380000D01*
X125340000Y-93620000D02*
X145660000Y-78380000D01*
X124968026Y-92350000D02*
G75*
G03X124968026Y-92350000I-898026J0D01*
G01*
%TO.C,J5*%
X146540000Y-119690000D02*
X136380000Y-119690000D01*
X146540000Y-127310000D02*
X146540000Y-119690000D01*
X136380000Y-127310000D02*
X146540000Y-127310000D01*
X136380000Y-119690000D02*
X136380000Y-127310000D01*
X136380000Y-120960000D02*
X146540000Y-120960000D01*
%TO.C,A3*%
X116210000Y-70260000D02*
X116210000Y-79150000D01*
D11*
X184790000Y-70260000D02*
X116210000Y-70260000D01*
X184790000Y-100740000D02*
X184790000Y-70260000D01*
X116210000Y-100740000D02*
X184790000Y-100740000D01*
D10*
X116210000Y-100740000D02*
X116210000Y-96930000D01*
D11*
X116210000Y-70260000D02*
X116210000Y-100740000D01*
D10*
%TO.C,U1*%
X173330000Y-113315000D02*
X173330000Y-111080000D01*
X152890000Y-113315000D02*
X173330000Y-113315000D01*
X152890000Y-106845000D02*
X152890000Y-113315000D01*
X173330000Y-106845000D02*
X152890000Y-106845000D01*
X173330000Y-109080000D02*
X173330000Y-106845000D01*
X173330000Y-111080000D02*
G75*
G02X173330000Y-109080000I0J1000000D01*
G01*
%TO.C,SW1*%
X131386000Y-114850000D02*
X131386000Y-117570000D01*
X131386000Y-124430000D02*
X131386000Y-127150000D01*
X119086000Y-122570000D02*
X119086000Y-119430000D01*
X119086000Y-127150000D02*
X119086000Y-124430000D01*
X129915050Y-121040000D02*
G75*
G03X129915050Y-121040000I-4579050J0D01*
G01*
X119086000Y-117570000D02*
X119086000Y-114850000D01*
X131386000Y-127150000D02*
X119086000Y-127150000D01*
X131386000Y-119430000D02*
X131386000Y-122570000D01*
X119086000Y-114850000D02*
X131386000Y-114850000D01*
%TO.C,J4*%
X159540000Y-119690000D02*
X149380000Y-119690000D01*
X159540000Y-127310000D02*
X159540000Y-119690000D01*
X149380000Y-127310000D02*
X159540000Y-127310000D01*
X149380000Y-119690000D02*
X149380000Y-127310000D01*
X149380000Y-120960000D02*
X159540000Y-120960000D01*
%TO.C,J3*%
X172040000Y-119690000D02*
X161880000Y-119690000D01*
X172040000Y-127310000D02*
X172040000Y-119690000D01*
X161880000Y-127310000D02*
X172040000Y-127310000D01*
X161880000Y-119690000D02*
X161880000Y-127310000D01*
X161880000Y-120960000D02*
X172040000Y-120960000D01*
%TO.C,J2*%
X185040000Y-119690000D02*
X174880000Y-119690000D01*
X185040000Y-127310000D02*
X185040000Y-119690000D01*
X174880000Y-127310000D02*
X185040000Y-127310000D01*
X174880000Y-119690000D02*
X174880000Y-127310000D01*
X174880000Y-120960000D02*
X185040000Y-120960000D01*
%TO.C,D1*%
X141635000Y-107720000D02*
X141635000Y-103780000D01*
X141395000Y-107720000D02*
X141395000Y-103780000D01*
X141515000Y-107720000D02*
X141515000Y-103780000D01*
X133690000Y-105750000D02*
X133830000Y-105750000D01*
X143110000Y-105750000D02*
X142970000Y-105750000D01*
X133830000Y-107720000D02*
X142970000Y-107720000D01*
X133830000Y-103780000D02*
X133830000Y-107720000D01*
X142970000Y-103780000D02*
X133830000Y-103780000D01*
X142970000Y-107720000D02*
X142970000Y-103780000D01*
%TO.C,J5*%
D12*
X141126666Y-118202380D02*
X141126666Y-118916666D01*
X141079047Y-119059523D01*
X140983809Y-119154761D01*
X140840952Y-119202380D01*
X140745714Y-119202380D01*
X142079047Y-118202380D02*
X141602857Y-118202380D01*
X141555238Y-118678571D01*
X141602857Y-118630952D01*
X141698095Y-118583333D01*
X141936190Y-118583333D01*
X142031428Y-118630952D01*
X142079047Y-118678571D01*
X142126666Y-118773809D01*
X142126666Y-119011904D01*
X142079047Y-119107142D01*
X142031428Y-119154761D01*
X141936190Y-119202380D01*
X141698095Y-119202380D01*
X141602857Y-119154761D01*
X141555238Y-119107142D01*
X138721904Y-128952380D02*
X138721904Y-127952380D01*
X139055238Y-128666666D01*
X139388571Y-127952380D01*
X139388571Y-128952380D01*
X140055238Y-127952380D02*
X140245714Y-127952380D01*
X140340952Y-128000000D01*
X140436190Y-128095238D01*
X140483809Y-128285714D01*
X140483809Y-128619047D01*
X140436190Y-128809523D01*
X140340952Y-128904761D01*
X140245714Y-128952380D01*
X140055238Y-128952380D01*
X139960000Y-128904761D01*
X139864761Y-128809523D01*
X139817142Y-128619047D01*
X139817142Y-128285714D01*
X139864761Y-128095238D01*
X139960000Y-128000000D01*
X140055238Y-127952380D01*
X140769523Y-127952380D02*
X141340952Y-127952380D01*
X141055238Y-128952380D02*
X141055238Y-127952380D01*
X141864761Y-127952380D02*
X142055238Y-127952380D01*
X142150476Y-128000000D01*
X142245714Y-128095238D01*
X142293333Y-128285714D01*
X142293333Y-128619047D01*
X142245714Y-128809523D01*
X142150476Y-128904761D01*
X142055238Y-128952380D01*
X141864761Y-128952380D01*
X141769523Y-128904761D01*
X141674285Y-128809523D01*
X141626666Y-128619047D01*
X141626666Y-128285714D01*
X141674285Y-128095238D01*
X141769523Y-128000000D01*
X141864761Y-127952380D01*
X143293333Y-128952380D02*
X142960000Y-128476190D01*
X142721904Y-128952380D02*
X142721904Y-127952380D01*
X143102857Y-127952380D01*
X143198095Y-128000000D01*
X143245714Y-128047619D01*
X143293333Y-128142857D01*
X143293333Y-128285714D01*
X143245714Y-128380952D01*
X143198095Y-128428571D01*
X143102857Y-128476190D01*
X142721904Y-128476190D01*
X144150476Y-128285714D02*
X144150476Y-128952380D01*
X143912380Y-127904761D02*
X143674285Y-128619047D01*
X144293333Y-128619047D01*
X145905047Y-121793428D02*
X146666952Y-121793428D01*
X146286000Y-122174380D02*
X146286000Y-121412476D01*
%TO.C,H4*%
X178238095Y-110552380D02*
X178238095Y-109552380D01*
X178238095Y-110028571D02*
X178809523Y-110028571D01*
X178809523Y-110552380D02*
X178809523Y-109552380D01*
X179714285Y-109885714D02*
X179714285Y-110552380D01*
X179476190Y-109504761D02*
X179238095Y-110219047D01*
X179857142Y-110219047D01*
%TO.C,H3*%
X144238095Y-111052380D02*
X144238095Y-110052380D01*
X144238095Y-110528571D02*
X144809523Y-110528571D01*
X144809523Y-111052380D02*
X144809523Y-110052380D01*
X145190476Y-110052380D02*
X145809523Y-110052380D01*
X145476190Y-110433333D01*
X145619047Y-110433333D01*
X145714285Y-110480952D01*
X145761904Y-110528571D01*
X145809523Y-110623809D01*
X145809523Y-110861904D01*
X145761904Y-110957142D01*
X145714285Y-111004761D01*
X145619047Y-111052380D01*
X145333333Y-111052380D01*
X145238095Y-111004761D01*
X145190476Y-110957142D01*
%TO.C,H2*%
X120238095Y-84052380D02*
X120238095Y-83052380D01*
X120238095Y-83528571D02*
X120809523Y-83528571D01*
X120809523Y-84052380D02*
X120809523Y-83052380D01*
X121238095Y-83147619D02*
X121285714Y-83100000D01*
X121380952Y-83052380D01*
X121619047Y-83052380D01*
X121714285Y-83100000D01*
X121761904Y-83147619D01*
X121809523Y-83242857D01*
X121809523Y-83338095D01*
X121761904Y-83480952D01*
X121190476Y-84052380D01*
X121809523Y-84052380D01*
%TO.C,H1*%
X178238095Y-84052380D02*
X178238095Y-83052380D01*
X178238095Y-83528571D02*
X178809523Y-83528571D01*
X178809523Y-84052380D02*
X178809523Y-83052380D01*
X179809523Y-84052380D02*
X179238095Y-84052380D01*
X179523809Y-84052380D02*
X179523809Y-83052380D01*
X179428571Y-83195238D01*
X179333333Y-83290476D01*
X179238095Y-83338095D01*
%TO.C,A3*%
X159437714Y-74998666D02*
X159913904Y-74998666D01*
X159342476Y-75284380D02*
X159675809Y-74284380D01*
X160009142Y-75284380D01*
X160247238Y-74284380D02*
X160866285Y-74284380D01*
X160532952Y-74665333D01*
X160675809Y-74665333D01*
X160771047Y-74712952D01*
X160818666Y-74760571D01*
X160866285Y-74855809D01*
X160866285Y-75093904D01*
X160818666Y-75189142D01*
X160771047Y-75236761D01*
X160675809Y-75284380D01*
X160390095Y-75284380D01*
X160294857Y-75236761D01*
X160247238Y-75189142D01*
X123736857Y-74760571D02*
X124070190Y-74760571D01*
X124213047Y-75284380D02*
X123736857Y-75284380D01*
X123736857Y-74284380D01*
X124213047Y-74284380D01*
X124594000Y-75236761D02*
X124736857Y-75284380D01*
X124974952Y-75284380D01*
X125070190Y-75236761D01*
X125117809Y-75189142D01*
X125165428Y-75093904D01*
X125165428Y-74998666D01*
X125117809Y-74903428D01*
X125070190Y-74855809D01*
X124974952Y-74808190D01*
X124784476Y-74760571D01*
X124689238Y-74712952D01*
X124641619Y-74665333D01*
X124594000Y-74570095D01*
X124594000Y-74474857D01*
X124641619Y-74379619D01*
X124689238Y-74332000D01*
X124784476Y-74284380D01*
X125022571Y-74284380D01*
X125165428Y-74332000D01*
X125594000Y-75284380D02*
X125594000Y-74284380D01*
X125974952Y-74284380D01*
X126070190Y-74332000D01*
X126117809Y-74379619D01*
X126165428Y-74474857D01*
X126165428Y-74617714D01*
X126117809Y-74712952D01*
X126070190Y-74760571D01*
X125974952Y-74808190D01*
X125594000Y-74808190D01*
X126498761Y-74284380D02*
X127117809Y-74284380D01*
X126784476Y-74665333D01*
X126927333Y-74665333D01*
X127022571Y-74712952D01*
X127070190Y-74760571D01*
X127117809Y-74855809D01*
X127117809Y-75093904D01*
X127070190Y-75189142D01*
X127022571Y-75236761D01*
X126927333Y-75284380D01*
X126641619Y-75284380D01*
X126546380Y-75236761D01*
X126498761Y-75189142D01*
X127498761Y-74379619D02*
X127546380Y-74332000D01*
X127641619Y-74284380D01*
X127879714Y-74284380D01*
X127974952Y-74332000D01*
X128022571Y-74379619D01*
X128070190Y-74474857D01*
X128070190Y-74570095D01*
X128022571Y-74712952D01*
X127451142Y-75284380D01*
X128070190Y-75284380D01*
X129165428Y-74284380D02*
X129403523Y-75284380D01*
X129594000Y-74570095D01*
X129784476Y-75284380D01*
X130022571Y-74284380D01*
X130403523Y-75284380D02*
X130403523Y-74284380D01*
X130736857Y-74284380D02*
X131308285Y-74284380D01*
X131022571Y-75284380D02*
X131022571Y-74284380D01*
X131641619Y-75284380D02*
X131641619Y-74284380D01*
X131641619Y-74760571D02*
X132213047Y-74760571D01*
X132213047Y-75284380D02*
X132213047Y-74284380D01*
X133451142Y-75284380D02*
X133451142Y-74284380D01*
X133879714Y-74379619D02*
X133927333Y-74332000D01*
X134022571Y-74284380D01*
X134260666Y-74284380D01*
X134355904Y-74332000D01*
X134403523Y-74379619D01*
X134451142Y-74474857D01*
X134451142Y-74570095D01*
X134403523Y-74712952D01*
X133832095Y-75284380D01*
X134451142Y-75284380D01*
X135451142Y-75189142D02*
X135403523Y-75236761D01*
X135260666Y-75284380D01*
X135165428Y-75284380D01*
X135022571Y-75236761D01*
X134927333Y-75141523D01*
X134879714Y-75046285D01*
X134832095Y-74855809D01*
X134832095Y-74712952D01*
X134879714Y-74522476D01*
X134927333Y-74427238D01*
X135022571Y-74332000D01*
X135165428Y-74284380D01*
X135260666Y-74284380D01*
X135403523Y-74332000D01*
X135451142Y-74379619D01*
X136832095Y-74284380D02*
X137022571Y-74284380D01*
X137117809Y-74332000D01*
X137213047Y-74427238D01*
X137260666Y-74617714D01*
X137260666Y-74951047D01*
X137213047Y-75141523D01*
X137117809Y-75236761D01*
X137022571Y-75284380D01*
X136832095Y-75284380D01*
X136736857Y-75236761D01*
X136641619Y-75141523D01*
X136594000Y-74951047D01*
X136594000Y-74617714D01*
X136641619Y-74427238D01*
X136736857Y-74332000D01*
X136832095Y-74284380D01*
X138165428Y-75284380D02*
X137689238Y-75284380D01*
X137689238Y-74284380D01*
X138498761Y-74760571D02*
X138832095Y-74760571D01*
X138974952Y-75284380D02*
X138498761Y-75284380D01*
X138498761Y-74284380D01*
X138974952Y-74284380D01*
X139403523Y-75284380D02*
X139403523Y-74284380D01*
X139641619Y-74284380D01*
X139784476Y-74332000D01*
X139879714Y-74427238D01*
X139927333Y-74522476D01*
X139974952Y-74712952D01*
X139974952Y-74855809D01*
X139927333Y-75046285D01*
X139879714Y-75141523D01*
X139784476Y-75236761D01*
X139641619Y-75284380D01*
X139403523Y-75284380D01*
X141165428Y-75284380D02*
X141165428Y-74284380D01*
X141403523Y-74284380D01*
X141546380Y-74332000D01*
X141641619Y-74427238D01*
X141689238Y-74522476D01*
X141736857Y-74712952D01*
X141736857Y-74855809D01*
X141689238Y-75046285D01*
X141641619Y-75141523D01*
X141546380Y-75236761D01*
X141403523Y-75284380D01*
X141165428Y-75284380D01*
X142165428Y-75284380D02*
X142165428Y-74284380D01*
X142594000Y-75236761D02*
X142736857Y-75284380D01*
X142974952Y-75284380D01*
X143070190Y-75236761D01*
X143117809Y-75189142D01*
X143165428Y-75093904D01*
X143165428Y-74998666D01*
X143117809Y-74903428D01*
X143070190Y-74855809D01*
X142974952Y-74808190D01*
X142784476Y-74760571D01*
X142689238Y-74712952D01*
X142641619Y-74665333D01*
X142594000Y-74570095D01*
X142594000Y-74474857D01*
X142641619Y-74379619D01*
X142689238Y-74332000D01*
X142784476Y-74284380D01*
X143022571Y-74284380D01*
X143165428Y-74332000D01*
X143594000Y-75284380D02*
X143594000Y-74284380D01*
X143974952Y-74284380D01*
X144070190Y-74332000D01*
X144117809Y-74379619D01*
X144165428Y-74474857D01*
X144165428Y-74617714D01*
X144117809Y-74712952D01*
X144070190Y-74760571D01*
X143974952Y-74808190D01*
X143594000Y-74808190D01*
X145070190Y-75284380D02*
X144594000Y-75284380D01*
X144594000Y-74284380D01*
X145355904Y-74998666D02*
X145832095Y-74998666D01*
X145260666Y-75284380D02*
X145594000Y-74284380D01*
X145927333Y-75284380D01*
X146451142Y-74808190D02*
X146451142Y-75284380D01*
X146117809Y-74284380D02*
X146451142Y-74808190D01*
X146784476Y-74284380D01*
X148070190Y-74284380D02*
X148260666Y-74284380D01*
X148355904Y-74332000D01*
X148451142Y-74427238D01*
X148498761Y-74617714D01*
X148498761Y-74951047D01*
X148451142Y-75141523D01*
X148355904Y-75236761D01*
X148260666Y-75284380D01*
X148070190Y-75284380D01*
X147974952Y-75236761D01*
X147879714Y-75141523D01*
X147832095Y-74951047D01*
X147832095Y-74617714D01*
X147879714Y-74427238D01*
X147974952Y-74332000D01*
X148070190Y-74284380D01*
X148927333Y-75284380D02*
X148927333Y-74284380D01*
X149498761Y-75284380D01*
X149498761Y-74284380D01*
X150736857Y-75284380D02*
X150736857Y-74284380D01*
X151117809Y-74284380D01*
X151213047Y-74332000D01*
X151260666Y-74379619D01*
X151308285Y-74474857D01*
X151308285Y-74617714D01*
X151260666Y-74712952D01*
X151213047Y-74760571D01*
X151117809Y-74808190D01*
X150736857Y-74808190D01*
X151736857Y-75284380D02*
X151736857Y-74284380D01*
X152213047Y-75284380D02*
X152213047Y-74284380D01*
X152784476Y-75284380D01*
X152784476Y-74284380D01*
X153213047Y-75236761D02*
X153355904Y-75284380D01*
X153594000Y-75284380D01*
X153689238Y-75236761D01*
X153736857Y-75189142D01*
X153784476Y-75093904D01*
X153784476Y-74998666D01*
X153736857Y-74903428D01*
X153689238Y-74855809D01*
X153594000Y-74808190D01*
X153403523Y-74760571D01*
X153308285Y-74712952D01*
X153260666Y-74665333D01*
X153213047Y-74570095D01*
X153213047Y-74474857D01*
X153260666Y-74379619D01*
X153308285Y-74332000D01*
X153403523Y-74284380D01*
X153641619Y-74284380D01*
X153784476Y-74332000D01*
X155403523Y-74617714D02*
X155403523Y-75284380D01*
X155165428Y-74236761D02*
X154927333Y-74951047D01*
X155546380Y-74951047D01*
X156641619Y-74236761D02*
X155784476Y-75522476D01*
X157451142Y-74284380D02*
X156974952Y-74284380D01*
X156927333Y-74760571D01*
X156974952Y-74712952D01*
X157070190Y-74665333D01*
X157308285Y-74665333D01*
X157403523Y-74712952D01*
X157451142Y-74760571D01*
X157498761Y-74855809D01*
X157498761Y-75093904D01*
X157451142Y-75189142D01*
X157403523Y-75236761D01*
X157308285Y-75284380D01*
X157070190Y-75284380D01*
X156974952Y-75236761D01*
X156927333Y-75189142D01*
%TO.C,U1*%
X173782380Y-110841904D02*
X174591904Y-110841904D01*
X174687142Y-110794285D01*
X174734761Y-110746666D01*
X174782380Y-110651428D01*
X174782380Y-110460952D01*
X174734761Y-110365714D01*
X174687142Y-110318095D01*
X174591904Y-110270476D01*
X173782380Y-110270476D01*
X174782380Y-109270476D02*
X174782380Y-109841904D01*
X174782380Y-109556190D02*
X173782380Y-109556190D01*
X173925238Y-109651428D01*
X174020476Y-109746666D01*
X174068095Y-109841904D01*
X160197380Y-109532380D02*
X160197380Y-110341904D01*
X160245000Y-110437142D01*
X160292619Y-110484761D01*
X160387857Y-110532380D01*
X160578333Y-110532380D01*
X160673571Y-110484761D01*
X160721190Y-110437142D01*
X160768809Y-110341904D01*
X160768809Y-109532380D01*
X161721190Y-110532380D02*
X161245000Y-110532380D01*
X161245000Y-109532380D01*
X162054523Y-110532380D02*
X162054523Y-109532380D01*
X162625952Y-110532380D01*
X162625952Y-109532380D01*
X163054523Y-109627619D02*
X163102142Y-109580000D01*
X163197380Y-109532380D01*
X163435476Y-109532380D01*
X163530714Y-109580000D01*
X163578333Y-109627619D01*
X163625952Y-109722857D01*
X163625952Y-109818095D01*
X163578333Y-109960952D01*
X163006904Y-110532380D01*
X163625952Y-110532380D01*
X164245000Y-109532380D02*
X164340238Y-109532380D01*
X164435476Y-109580000D01*
X164483095Y-109627619D01*
X164530714Y-109722857D01*
X164578333Y-109913333D01*
X164578333Y-110151428D01*
X164530714Y-110341904D01*
X164483095Y-110437142D01*
X164435476Y-110484761D01*
X164340238Y-110532380D01*
X164245000Y-110532380D01*
X164149761Y-110484761D01*
X164102142Y-110437142D01*
X164054523Y-110341904D01*
X164006904Y-110151428D01*
X164006904Y-109913333D01*
X164054523Y-109722857D01*
X164102142Y-109627619D01*
X164149761Y-109580000D01*
X164245000Y-109532380D01*
X165197380Y-109532380D02*
X165292619Y-109532380D01*
X165387857Y-109580000D01*
X165435476Y-109627619D01*
X165483095Y-109722857D01*
X165530714Y-109913333D01*
X165530714Y-110151428D01*
X165483095Y-110341904D01*
X165435476Y-110437142D01*
X165387857Y-110484761D01*
X165292619Y-110532380D01*
X165197380Y-110532380D01*
X165102142Y-110484761D01*
X165054523Y-110437142D01*
X165006904Y-110341904D01*
X164959285Y-110151428D01*
X164959285Y-109913333D01*
X165006904Y-109722857D01*
X165054523Y-109627619D01*
X165102142Y-109580000D01*
X165197380Y-109532380D01*
X165864047Y-109532380D02*
X166483095Y-109532380D01*
X166149761Y-109913333D01*
X166292619Y-109913333D01*
X166387857Y-109960952D01*
X166435476Y-110008571D01*
X166483095Y-110103809D01*
X166483095Y-110341904D01*
X166435476Y-110437142D01*
X166387857Y-110484761D01*
X166292619Y-110532380D01*
X166006904Y-110532380D01*
X165911666Y-110484761D01*
X165864047Y-110437142D01*
X166864047Y-110246666D02*
X167340238Y-110246666D01*
X166768809Y-110532380D02*
X167102142Y-109532380D01*
X167435476Y-110532380D01*
%TO.C,SW1*%
X120802666Y-128858380D02*
X120802666Y-127858380D01*
X121183619Y-127858380D01*
X121278857Y-127906000D01*
X121326476Y-127953619D01*
X121374095Y-128048857D01*
X121374095Y-128191714D01*
X121326476Y-128286952D01*
X121278857Y-128334571D01*
X121183619Y-128382190D01*
X120802666Y-128382190D01*
X122374095Y-128858380D02*
X122040761Y-128382190D01*
X121802666Y-128858380D02*
X121802666Y-127858380D01*
X122183619Y-127858380D01*
X122278857Y-127906000D01*
X122326476Y-127953619D01*
X122374095Y-128048857D01*
X122374095Y-128191714D01*
X122326476Y-128286952D01*
X122278857Y-128334571D01*
X122183619Y-128382190D01*
X121802666Y-128382190D01*
X123326476Y-127906000D02*
X123231238Y-127858380D01*
X123088380Y-127858380D01*
X122945523Y-127906000D01*
X122850285Y-128001238D01*
X122802666Y-128096476D01*
X122755047Y-128286952D01*
X122755047Y-128429809D01*
X122802666Y-128620285D01*
X122850285Y-128715523D01*
X122945523Y-128810761D01*
X123088380Y-128858380D01*
X123183619Y-128858380D01*
X123326476Y-128810761D01*
X123374095Y-128763142D01*
X123374095Y-128429809D01*
X123183619Y-128429809D01*
X124516952Y-128810761D02*
X124659809Y-128858380D01*
X124897904Y-128858380D01*
X124993142Y-128810761D01*
X125040761Y-128763142D01*
X125088380Y-128667904D01*
X125088380Y-128572666D01*
X125040761Y-128477428D01*
X124993142Y-128429809D01*
X124897904Y-128382190D01*
X124707428Y-128334571D01*
X124612190Y-128286952D01*
X124564571Y-128239333D01*
X124516952Y-128144095D01*
X124516952Y-128048857D01*
X124564571Y-127953619D01*
X124612190Y-127906000D01*
X124707428Y-127858380D01*
X124945523Y-127858380D01*
X125088380Y-127906000D01*
X125421714Y-127858380D02*
X125659809Y-128858380D01*
X125850285Y-128144095D01*
X126040761Y-128858380D01*
X126278857Y-127858380D01*
X126659809Y-128858380D02*
X126659809Y-127858380D01*
X126993142Y-127858380D02*
X127564571Y-127858380D01*
X127278857Y-128858380D02*
X127278857Y-127858380D01*
X128469333Y-128763142D02*
X128421714Y-128810761D01*
X128278857Y-128858380D01*
X128183619Y-128858380D01*
X128040761Y-128810761D01*
X127945523Y-128715523D01*
X127897904Y-128620285D01*
X127850285Y-128429809D01*
X127850285Y-128286952D01*
X127897904Y-128096476D01*
X127945523Y-128001238D01*
X128040761Y-127906000D01*
X128183619Y-127858380D01*
X128278857Y-127858380D01*
X128421714Y-127906000D01*
X128469333Y-127953619D01*
X128897904Y-128858380D02*
X128897904Y-127858380D01*
X128897904Y-128334571D02*
X129469333Y-128334571D01*
X129469333Y-128858380D02*
X129469333Y-127858380D01*
%TO.C,J4*%
X154126666Y-117952380D02*
X154126666Y-118666666D01*
X154079047Y-118809523D01*
X153983809Y-118904761D01*
X153840952Y-118952380D01*
X153745714Y-118952380D01*
X155031428Y-118285714D02*
X155031428Y-118952380D01*
X154793333Y-117904761D02*
X154555238Y-118619047D01*
X155174285Y-118619047D01*
X151721904Y-128952380D02*
X151721904Y-127952380D01*
X152055238Y-128666666D01*
X152388571Y-127952380D01*
X152388571Y-128952380D01*
X153055238Y-127952380D02*
X153245714Y-127952380D01*
X153340952Y-128000000D01*
X153436190Y-128095238D01*
X153483809Y-128285714D01*
X153483809Y-128619047D01*
X153436190Y-128809523D01*
X153340952Y-128904761D01*
X153245714Y-128952380D01*
X153055238Y-128952380D01*
X152960000Y-128904761D01*
X152864761Y-128809523D01*
X152817142Y-128619047D01*
X152817142Y-128285714D01*
X152864761Y-128095238D01*
X152960000Y-128000000D01*
X153055238Y-127952380D01*
X153769523Y-127952380D02*
X154340952Y-127952380D01*
X154055238Y-128952380D02*
X154055238Y-127952380D01*
X154864761Y-127952380D02*
X155055238Y-127952380D01*
X155150476Y-128000000D01*
X155245714Y-128095238D01*
X155293333Y-128285714D01*
X155293333Y-128619047D01*
X155245714Y-128809523D01*
X155150476Y-128904761D01*
X155055238Y-128952380D01*
X154864761Y-128952380D01*
X154769523Y-128904761D01*
X154674285Y-128809523D01*
X154626666Y-128619047D01*
X154626666Y-128285714D01*
X154674285Y-128095238D01*
X154769523Y-128000000D01*
X154864761Y-127952380D01*
X156293333Y-128952380D02*
X155960000Y-128476190D01*
X155721904Y-128952380D02*
X155721904Y-127952380D01*
X156102857Y-127952380D01*
X156198095Y-128000000D01*
X156245714Y-128047619D01*
X156293333Y-128142857D01*
X156293333Y-128285714D01*
X156245714Y-128380952D01*
X156198095Y-128428571D01*
X156102857Y-128476190D01*
X155721904Y-128476190D01*
X156626666Y-127952380D02*
X157245714Y-127952380D01*
X156912380Y-128333333D01*
X157055238Y-128333333D01*
X157150476Y-128380952D01*
X157198095Y-128428571D01*
X157245714Y-128523809D01*
X157245714Y-128761904D01*
X157198095Y-128857142D01*
X157150476Y-128904761D01*
X157055238Y-128952380D01*
X156769523Y-128952380D01*
X156674285Y-128904761D01*
X156626666Y-128857142D01*
X158651047Y-121793428D02*
X159412952Y-121793428D01*
X159032000Y-122174380D02*
X159032000Y-121412476D01*
%TO.C,J3*%
X166626666Y-117952380D02*
X166626666Y-118666666D01*
X166579047Y-118809523D01*
X166483809Y-118904761D01*
X166340952Y-118952380D01*
X166245714Y-118952380D01*
X167007619Y-117952380D02*
X167626666Y-117952380D01*
X167293333Y-118333333D01*
X167436190Y-118333333D01*
X167531428Y-118380952D01*
X167579047Y-118428571D01*
X167626666Y-118523809D01*
X167626666Y-118761904D01*
X167579047Y-118857142D01*
X167531428Y-118904761D01*
X167436190Y-118952380D01*
X167150476Y-118952380D01*
X167055238Y-118904761D01*
X167007619Y-118857142D01*
X164221904Y-128702380D02*
X164221904Y-127702380D01*
X164555238Y-128416666D01*
X164888571Y-127702380D01*
X164888571Y-128702380D01*
X165555238Y-127702380D02*
X165745714Y-127702380D01*
X165840952Y-127750000D01*
X165936190Y-127845238D01*
X165983809Y-128035714D01*
X165983809Y-128369047D01*
X165936190Y-128559523D01*
X165840952Y-128654761D01*
X165745714Y-128702380D01*
X165555238Y-128702380D01*
X165460000Y-128654761D01*
X165364761Y-128559523D01*
X165317142Y-128369047D01*
X165317142Y-128035714D01*
X165364761Y-127845238D01*
X165460000Y-127750000D01*
X165555238Y-127702380D01*
X166269523Y-127702380D02*
X166840952Y-127702380D01*
X166555238Y-128702380D02*
X166555238Y-127702380D01*
X167364761Y-127702380D02*
X167555238Y-127702380D01*
X167650476Y-127750000D01*
X167745714Y-127845238D01*
X167793333Y-128035714D01*
X167793333Y-128369047D01*
X167745714Y-128559523D01*
X167650476Y-128654761D01*
X167555238Y-128702380D01*
X167364761Y-128702380D01*
X167269523Y-128654761D01*
X167174285Y-128559523D01*
X167126666Y-128369047D01*
X167126666Y-128035714D01*
X167174285Y-127845238D01*
X167269523Y-127750000D01*
X167364761Y-127702380D01*
X168793333Y-128702380D02*
X168460000Y-128226190D01*
X168221904Y-128702380D02*
X168221904Y-127702380D01*
X168602857Y-127702380D01*
X168698095Y-127750000D01*
X168745714Y-127797619D01*
X168793333Y-127892857D01*
X168793333Y-128035714D01*
X168745714Y-128130952D01*
X168698095Y-128178571D01*
X168602857Y-128226190D01*
X168221904Y-128226190D01*
X169174285Y-127797619D02*
X169221904Y-127750000D01*
X169317142Y-127702380D01*
X169555238Y-127702380D01*
X169650476Y-127750000D01*
X169698095Y-127797619D01*
X169745714Y-127892857D01*
X169745714Y-127988095D01*
X169698095Y-128130952D01*
X169126666Y-128702380D01*
X169745714Y-128702380D01*
X170897047Y-121793428D02*
X171658952Y-121793428D01*
X171278000Y-122174380D02*
X171278000Y-121412476D01*
%TO.C,J2*%
X179626666Y-117952380D02*
X179626666Y-118666666D01*
X179579047Y-118809523D01*
X179483809Y-118904761D01*
X179340952Y-118952380D01*
X179245714Y-118952380D01*
X180055238Y-118047619D02*
X180102857Y-118000000D01*
X180198095Y-117952380D01*
X180436190Y-117952380D01*
X180531428Y-118000000D01*
X180579047Y-118047619D01*
X180626666Y-118142857D01*
X180626666Y-118238095D01*
X180579047Y-118380952D01*
X180007619Y-118952380D01*
X180626666Y-118952380D01*
X177221904Y-128702380D02*
X177221904Y-127702380D01*
X177555238Y-128416666D01*
X177888571Y-127702380D01*
X177888571Y-128702380D01*
X178555238Y-127702380D02*
X178745714Y-127702380D01*
X178840952Y-127750000D01*
X178936190Y-127845238D01*
X178983809Y-128035714D01*
X178983809Y-128369047D01*
X178936190Y-128559523D01*
X178840952Y-128654761D01*
X178745714Y-128702380D01*
X178555238Y-128702380D01*
X178460000Y-128654761D01*
X178364761Y-128559523D01*
X178317142Y-128369047D01*
X178317142Y-128035714D01*
X178364761Y-127845238D01*
X178460000Y-127750000D01*
X178555238Y-127702380D01*
X179269523Y-127702380D02*
X179840952Y-127702380D01*
X179555238Y-128702380D02*
X179555238Y-127702380D01*
X180364761Y-127702380D02*
X180555238Y-127702380D01*
X180650476Y-127750000D01*
X180745714Y-127845238D01*
X180793333Y-128035714D01*
X180793333Y-128369047D01*
X180745714Y-128559523D01*
X180650476Y-128654761D01*
X180555238Y-128702380D01*
X180364761Y-128702380D01*
X180269523Y-128654761D01*
X180174285Y-128559523D01*
X180126666Y-128369047D01*
X180126666Y-128035714D01*
X180174285Y-127845238D01*
X180269523Y-127750000D01*
X180364761Y-127702380D01*
X181793333Y-128702380D02*
X181460000Y-128226190D01*
X181221904Y-128702380D02*
X181221904Y-127702380D01*
X181602857Y-127702380D01*
X181698095Y-127750000D01*
X181745714Y-127797619D01*
X181793333Y-127892857D01*
X181793333Y-128035714D01*
X181745714Y-128130952D01*
X181698095Y-128178571D01*
X181602857Y-128226190D01*
X181221904Y-128226190D01*
X182745714Y-128702380D02*
X182174285Y-128702380D01*
X182460000Y-128702380D02*
X182460000Y-127702380D01*
X182364761Y-127845238D01*
X182269523Y-127940476D01*
X182174285Y-127988095D01*
X183389047Y-121793428D02*
X184150952Y-121793428D01*
X183770000Y-122174380D02*
X183770000Y-121412476D01*
%TO.C,D1*%
X137661904Y-109172380D02*
X137661904Y-108172380D01*
X137900000Y-108172380D01*
X138042857Y-108220000D01*
X138138095Y-108315238D01*
X138185714Y-108410476D01*
X138233333Y-108600952D01*
X138233333Y-108743809D01*
X138185714Y-108934285D01*
X138138095Y-109029523D01*
X138042857Y-109124761D01*
X137900000Y-109172380D01*
X137661904Y-109172380D01*
X139185714Y-109172380D02*
X138614285Y-109172380D01*
X138900000Y-109172380D02*
X138900000Y-108172380D01*
X138804761Y-108315238D01*
X138709523Y-108410476D01*
X138614285Y-108458095D01*
X144488095Y-108602380D02*
X144488095Y-107602380D01*
X145059523Y-108602380D02*
X144630952Y-108030952D01*
X145059523Y-107602380D02*
X144488095Y-108173809D01*
%TD*%
M02*
