%TF.GenerationSoftware,KiCad,Pcbnew,5.1.5+dfsg1-2build2*%
%TF.CreationDate,2020-08-25T19:56:10-04:00*%
%TF.ProjectId,esp-toy,6573702d-746f-4792-9e6b-696361645f70,rev?*%
%TF.SameCoordinates,Original*%
%TF.FileFunction,Soldermask,Top*%
%TF.FilePolarity,Negative*%
%FSLAX46Y46*%
G04 Gerber Fmt 4.6, Leading zero omitted, Abs format (unit mm)*
G04 Created by KiCad (PCBNEW 5.1.5+dfsg1-2build2) date 2020-08-25 19:56:10*
%MOMM*%
%LPD*%
G04 APERTURE LIST*
%ADD10C,1.000000*%
G04 APERTURE END LIST*
D10*
G36*
X139372352Y-122008796D02*
G01*
X139654579Y-122125699D01*
X139908578Y-122295415D01*
X140124585Y-122511422D01*
X140294301Y-122765421D01*
X140411204Y-123047648D01*
X140470800Y-123347259D01*
X140470800Y-123652741D01*
X140411204Y-123952352D01*
X140294301Y-124234579D01*
X140124585Y-124488578D01*
X139908578Y-124704585D01*
X139654579Y-124874301D01*
X139372352Y-124991204D01*
X139072741Y-125050800D01*
X138767259Y-125050800D01*
X138467648Y-124991204D01*
X138185421Y-124874301D01*
X137931422Y-124704585D01*
X137715415Y-124488578D01*
X137545699Y-124234579D01*
X137428796Y-123952352D01*
X137369200Y-123652741D01*
X137369200Y-123347259D01*
X137428796Y-123047648D01*
X137545699Y-122765421D01*
X137715415Y-122511422D01*
X137931422Y-122295415D01*
X138185421Y-122125699D01*
X138467648Y-122008796D01*
X138767259Y-121949200D01*
X139072741Y-121949200D01*
X139372352Y-122008796D01*
G37*
G36*
X184050800Y-125050800D02*
G01*
X180949200Y-125050800D01*
X180949200Y-121949200D01*
X184050800Y-121949200D01*
X184050800Y-125050800D01*
G37*
G36*
X177872352Y-122008796D02*
G01*
X178154579Y-122125699D01*
X178408578Y-122295415D01*
X178624585Y-122511422D01*
X178794301Y-122765421D01*
X178911204Y-123047648D01*
X178970800Y-123347259D01*
X178970800Y-123652741D01*
X178911204Y-123952352D01*
X178794301Y-124234579D01*
X178624585Y-124488578D01*
X178408578Y-124704585D01*
X178154579Y-124874301D01*
X177872352Y-124991204D01*
X177572741Y-125050800D01*
X177267259Y-125050800D01*
X176967648Y-124991204D01*
X176685421Y-124874301D01*
X176431422Y-124704585D01*
X176215415Y-124488578D01*
X176045699Y-124234579D01*
X175928796Y-123952352D01*
X175869200Y-123652741D01*
X175869200Y-123347259D01*
X175928796Y-123047648D01*
X176045699Y-122765421D01*
X176215415Y-122511422D01*
X176431422Y-122295415D01*
X176685421Y-122125699D01*
X176967648Y-122008796D01*
X177267259Y-121949200D01*
X177572741Y-121949200D01*
X177872352Y-122008796D01*
G37*
G36*
X171050800Y-125050800D02*
G01*
X167949200Y-125050800D01*
X167949200Y-121949200D01*
X171050800Y-121949200D01*
X171050800Y-125050800D01*
G37*
G36*
X164872352Y-122008796D02*
G01*
X165154579Y-122125699D01*
X165408578Y-122295415D01*
X165624585Y-122511422D01*
X165794301Y-122765421D01*
X165911204Y-123047648D01*
X165970800Y-123347259D01*
X165970800Y-123652741D01*
X165911204Y-123952352D01*
X165794301Y-124234579D01*
X165624585Y-124488578D01*
X165408578Y-124704585D01*
X165154579Y-124874301D01*
X164872352Y-124991204D01*
X164572741Y-125050800D01*
X164267259Y-125050800D01*
X163967648Y-124991204D01*
X163685421Y-124874301D01*
X163431422Y-124704585D01*
X163215415Y-124488578D01*
X163045699Y-124234579D01*
X162928796Y-123952352D01*
X162869200Y-123652741D01*
X162869200Y-123347259D01*
X162928796Y-123047648D01*
X163045699Y-122765421D01*
X163215415Y-122511422D01*
X163431422Y-122295415D01*
X163685421Y-122125699D01*
X163967648Y-122008796D01*
X164267259Y-121949200D01*
X164572741Y-121949200D01*
X164872352Y-122008796D01*
G37*
G36*
X158550800Y-125050800D02*
G01*
X155449200Y-125050800D01*
X155449200Y-121949200D01*
X158550800Y-121949200D01*
X158550800Y-125050800D01*
G37*
G36*
X152372352Y-122008796D02*
G01*
X152654579Y-122125699D01*
X152908578Y-122295415D01*
X153124585Y-122511422D01*
X153294301Y-122765421D01*
X153411204Y-123047648D01*
X153470800Y-123347259D01*
X153470800Y-123652741D01*
X153411204Y-123952352D01*
X153294301Y-124234579D01*
X153124585Y-124488578D01*
X152908578Y-124704585D01*
X152654579Y-124874301D01*
X152372352Y-124991204D01*
X152072741Y-125050800D01*
X151767259Y-125050800D01*
X151467648Y-124991204D01*
X151185421Y-124874301D01*
X150931422Y-124704585D01*
X150715415Y-124488578D01*
X150545699Y-124234579D01*
X150428796Y-123952352D01*
X150369200Y-123652741D01*
X150369200Y-123347259D01*
X150428796Y-123047648D01*
X150545699Y-122765421D01*
X150715415Y-122511422D01*
X150931422Y-122295415D01*
X151185421Y-122125699D01*
X151467648Y-122008796D01*
X151767259Y-121949200D01*
X152072741Y-121949200D01*
X152372352Y-122008796D01*
G37*
G36*
X145550800Y-125050800D02*
G01*
X142449200Y-125050800D01*
X142449200Y-121949200D01*
X145550800Y-121949200D01*
X145550800Y-125050800D01*
G37*
G36*
X119776287Y-122538318D02*
G01*
X119960228Y-122594116D01*
X120129749Y-122684727D01*
X120278333Y-122806667D01*
X120400273Y-122955251D01*
X120490884Y-123124772D01*
X120546682Y-123308713D01*
X120565522Y-123500000D01*
X120546682Y-123691287D01*
X120490884Y-123875228D01*
X120400273Y-124044749D01*
X120278333Y-124193333D01*
X120129749Y-124315273D01*
X119960228Y-124405884D01*
X119776287Y-124461682D01*
X119632941Y-124475800D01*
X118339059Y-124475800D01*
X118195713Y-124461682D01*
X118011772Y-124405884D01*
X117842251Y-124315273D01*
X117693667Y-124193333D01*
X117571727Y-124044749D01*
X117481116Y-123875228D01*
X117425318Y-123691287D01*
X117406478Y-123500000D01*
X117425318Y-123308713D01*
X117481116Y-123124772D01*
X117571727Y-122955251D01*
X117693667Y-122806667D01*
X117842251Y-122684727D01*
X118011772Y-122594116D01*
X118195713Y-122538318D01*
X118339059Y-122524200D01*
X119632941Y-122524200D01*
X119776287Y-122538318D01*
G37*
G36*
X132276287Y-122538318D02*
G01*
X132460228Y-122594116D01*
X132629749Y-122684727D01*
X132778333Y-122806667D01*
X132900273Y-122955251D01*
X132990884Y-123124772D01*
X133046682Y-123308713D01*
X133065522Y-123500000D01*
X133046682Y-123691287D01*
X132990884Y-123875228D01*
X132900273Y-124044749D01*
X132778333Y-124193333D01*
X132629749Y-124315273D01*
X132460228Y-124405884D01*
X132276287Y-124461682D01*
X132132941Y-124475800D01*
X130839059Y-124475800D01*
X130695713Y-124461682D01*
X130511772Y-124405884D01*
X130342251Y-124315273D01*
X130193667Y-124193333D01*
X130071727Y-124044749D01*
X129981116Y-123875228D01*
X129925318Y-123691287D01*
X129906478Y-123500000D01*
X129925318Y-123308713D01*
X129981116Y-123124772D01*
X130071727Y-122955251D01*
X130193667Y-122806667D01*
X130342251Y-122684727D01*
X130511772Y-122594116D01*
X130695713Y-122538318D01*
X130839059Y-122524200D01*
X132132941Y-122524200D01*
X132276287Y-122538318D01*
G37*
G36*
X132276287Y-117538318D02*
G01*
X132460228Y-117594116D01*
X132629749Y-117684727D01*
X132778333Y-117806667D01*
X132900273Y-117955251D01*
X132990884Y-118124772D01*
X133046682Y-118308713D01*
X133065522Y-118500000D01*
X133046682Y-118691287D01*
X132990884Y-118875228D01*
X132900273Y-119044749D01*
X132778333Y-119193333D01*
X132629749Y-119315273D01*
X132460228Y-119405884D01*
X132276287Y-119461682D01*
X132132941Y-119475800D01*
X130839059Y-119475800D01*
X130695713Y-119461682D01*
X130511772Y-119405884D01*
X130342251Y-119315273D01*
X130193667Y-119193333D01*
X130071727Y-119044749D01*
X129981116Y-118875228D01*
X129925318Y-118691287D01*
X129906478Y-118500000D01*
X129925318Y-118308713D01*
X129981116Y-118124772D01*
X130071727Y-117955251D01*
X130193667Y-117806667D01*
X130342251Y-117684727D01*
X130511772Y-117594116D01*
X130695713Y-117538318D01*
X130839059Y-117524200D01*
X132132941Y-117524200D01*
X132276287Y-117538318D01*
G37*
G36*
X119776287Y-117538318D02*
G01*
X119960228Y-117594116D01*
X120129749Y-117684727D01*
X120278333Y-117806667D01*
X120400273Y-117955251D01*
X120490884Y-118124772D01*
X120546682Y-118308713D01*
X120565522Y-118500000D01*
X120546682Y-118691287D01*
X120490884Y-118875228D01*
X120400273Y-119044749D01*
X120278333Y-119193333D01*
X120129749Y-119315273D01*
X119960228Y-119405884D01*
X119776287Y-119461682D01*
X119632941Y-119475800D01*
X118339059Y-119475800D01*
X118195713Y-119461682D01*
X118011772Y-119405884D01*
X117842251Y-119315273D01*
X117693667Y-119193333D01*
X117571727Y-119044749D01*
X117481116Y-118875228D01*
X117425318Y-118691287D01*
X117406478Y-118500000D01*
X117425318Y-118308713D01*
X117481116Y-118124772D01*
X117571727Y-117955251D01*
X117693667Y-117806667D01*
X117842251Y-117684727D01*
X118011772Y-117594116D01*
X118195713Y-117538318D01*
X118339059Y-117524200D01*
X119632941Y-117524200D01*
X119776287Y-117538318D01*
G37*
G36*
X157008169Y-114341895D02*
G01*
X157163005Y-114406031D01*
X157302354Y-114499140D01*
X157420860Y-114617646D01*
X157513969Y-114756995D01*
X157578105Y-114911831D01*
X157610800Y-115076203D01*
X157610800Y-115243797D01*
X157578105Y-115408169D01*
X157513969Y-115563005D01*
X157420860Y-115702354D01*
X157302354Y-115820860D01*
X157163005Y-115913969D01*
X157008169Y-115978105D01*
X156843797Y-116010800D01*
X156676203Y-116010800D01*
X156511831Y-115978105D01*
X156356995Y-115913969D01*
X156217646Y-115820860D01*
X156099140Y-115702354D01*
X156006031Y-115563005D01*
X155941895Y-115408169D01*
X155909200Y-115243797D01*
X155909200Y-115076203D01*
X155941895Y-114911831D01*
X156006031Y-114756995D01*
X156099140Y-114617646D01*
X156217646Y-114499140D01*
X156356995Y-114406031D01*
X156511831Y-114341895D01*
X156676203Y-114309200D01*
X156843797Y-114309200D01*
X157008169Y-114341895D01*
G37*
G36*
X162088169Y-114341895D02*
G01*
X162243005Y-114406031D01*
X162382354Y-114499140D01*
X162500860Y-114617646D01*
X162593969Y-114756995D01*
X162658105Y-114911831D01*
X162690800Y-115076203D01*
X162690800Y-115243797D01*
X162658105Y-115408169D01*
X162593969Y-115563005D01*
X162500860Y-115702354D01*
X162382354Y-115820860D01*
X162243005Y-115913969D01*
X162088169Y-115978105D01*
X161923797Y-116010800D01*
X161756203Y-116010800D01*
X161591831Y-115978105D01*
X161436995Y-115913969D01*
X161297646Y-115820860D01*
X161179140Y-115702354D01*
X161086031Y-115563005D01*
X161021895Y-115408169D01*
X160989200Y-115243797D01*
X160989200Y-115076203D01*
X161021895Y-114911831D01*
X161086031Y-114756995D01*
X161179140Y-114617646D01*
X161297646Y-114499140D01*
X161436995Y-114406031D01*
X161591831Y-114341895D01*
X161756203Y-114309200D01*
X161923797Y-114309200D01*
X162088169Y-114341895D01*
G37*
G36*
X159548169Y-114341895D02*
G01*
X159703005Y-114406031D01*
X159842354Y-114499140D01*
X159960860Y-114617646D01*
X160053969Y-114756995D01*
X160118105Y-114911831D01*
X160150800Y-115076203D01*
X160150800Y-115243797D01*
X160118105Y-115408169D01*
X160053969Y-115563005D01*
X159960860Y-115702354D01*
X159842354Y-115820860D01*
X159703005Y-115913969D01*
X159548169Y-115978105D01*
X159383797Y-116010800D01*
X159216203Y-116010800D01*
X159051831Y-115978105D01*
X158896995Y-115913969D01*
X158757646Y-115820860D01*
X158639140Y-115702354D01*
X158546031Y-115563005D01*
X158481895Y-115408169D01*
X158449200Y-115243797D01*
X158449200Y-115076203D01*
X158481895Y-114911831D01*
X158546031Y-114756995D01*
X158639140Y-114617646D01*
X158757646Y-114499140D01*
X158896995Y-114406031D01*
X159051831Y-114341895D01*
X159216203Y-114309200D01*
X159383797Y-114309200D01*
X159548169Y-114341895D01*
G37*
G36*
X172248169Y-114341895D02*
G01*
X172403005Y-114406031D01*
X172542354Y-114499140D01*
X172660860Y-114617646D01*
X172753969Y-114756995D01*
X172818105Y-114911831D01*
X172850800Y-115076203D01*
X172850800Y-115243797D01*
X172818105Y-115408169D01*
X172753969Y-115563005D01*
X172660860Y-115702354D01*
X172542354Y-115820860D01*
X172403005Y-115913969D01*
X172248169Y-115978105D01*
X172083797Y-116010800D01*
X171916203Y-116010800D01*
X171751831Y-115978105D01*
X171596995Y-115913969D01*
X171457646Y-115820860D01*
X171339140Y-115702354D01*
X171246031Y-115563005D01*
X171181895Y-115408169D01*
X171149200Y-115243797D01*
X171149200Y-115076203D01*
X171181895Y-114911831D01*
X171246031Y-114756995D01*
X171339140Y-114617646D01*
X171457646Y-114499140D01*
X171596995Y-114406031D01*
X171751831Y-114341895D01*
X171916203Y-114309200D01*
X172083797Y-114309200D01*
X172248169Y-114341895D01*
G37*
G36*
X169708169Y-114341895D02*
G01*
X169863005Y-114406031D01*
X170002354Y-114499140D01*
X170120860Y-114617646D01*
X170213969Y-114756995D01*
X170278105Y-114911831D01*
X170310800Y-115076203D01*
X170310800Y-115243797D01*
X170278105Y-115408169D01*
X170213969Y-115563005D01*
X170120860Y-115702354D01*
X170002354Y-115820860D01*
X169863005Y-115913969D01*
X169708169Y-115978105D01*
X169543797Y-116010800D01*
X169376203Y-116010800D01*
X169211831Y-115978105D01*
X169056995Y-115913969D01*
X168917646Y-115820860D01*
X168799140Y-115702354D01*
X168706031Y-115563005D01*
X168641895Y-115408169D01*
X168609200Y-115243797D01*
X168609200Y-115076203D01*
X168641895Y-114911831D01*
X168706031Y-114756995D01*
X168799140Y-114617646D01*
X168917646Y-114499140D01*
X169056995Y-114406031D01*
X169211831Y-114341895D01*
X169376203Y-114309200D01*
X169543797Y-114309200D01*
X169708169Y-114341895D01*
G37*
G36*
X167168169Y-114341895D02*
G01*
X167323005Y-114406031D01*
X167462354Y-114499140D01*
X167580860Y-114617646D01*
X167673969Y-114756995D01*
X167738105Y-114911831D01*
X167770800Y-115076203D01*
X167770800Y-115243797D01*
X167738105Y-115408169D01*
X167673969Y-115563005D01*
X167580860Y-115702354D01*
X167462354Y-115820860D01*
X167323005Y-115913969D01*
X167168169Y-115978105D01*
X167003797Y-116010800D01*
X166836203Y-116010800D01*
X166671831Y-115978105D01*
X166516995Y-115913969D01*
X166377646Y-115820860D01*
X166259140Y-115702354D01*
X166166031Y-115563005D01*
X166101895Y-115408169D01*
X166069200Y-115243797D01*
X166069200Y-115076203D01*
X166101895Y-114911831D01*
X166166031Y-114756995D01*
X166259140Y-114617646D01*
X166377646Y-114499140D01*
X166516995Y-114406031D01*
X166671831Y-114341895D01*
X166836203Y-114309200D01*
X167003797Y-114309200D01*
X167168169Y-114341895D01*
G37*
G36*
X164628169Y-114341895D02*
G01*
X164783005Y-114406031D01*
X164922354Y-114499140D01*
X165040860Y-114617646D01*
X165133969Y-114756995D01*
X165198105Y-114911831D01*
X165230800Y-115076203D01*
X165230800Y-115243797D01*
X165198105Y-115408169D01*
X165133969Y-115563005D01*
X165040860Y-115702354D01*
X164922354Y-115820860D01*
X164783005Y-115913969D01*
X164628169Y-115978105D01*
X164463797Y-116010800D01*
X164296203Y-116010800D01*
X164131831Y-115978105D01*
X163976995Y-115913969D01*
X163837646Y-115820860D01*
X163719140Y-115702354D01*
X163626031Y-115563005D01*
X163561895Y-115408169D01*
X163529200Y-115243797D01*
X163529200Y-115076203D01*
X163561895Y-114911831D01*
X163626031Y-114756995D01*
X163719140Y-114617646D01*
X163837646Y-114499140D01*
X163976995Y-114406031D01*
X164131831Y-114341895D01*
X164296203Y-114309200D01*
X164463797Y-114309200D01*
X164628169Y-114341895D01*
G37*
G36*
X154468169Y-114341895D02*
G01*
X154623005Y-114406031D01*
X154762354Y-114499140D01*
X154880860Y-114617646D01*
X154973969Y-114756995D01*
X155038105Y-114911831D01*
X155070800Y-115076203D01*
X155070800Y-115243797D01*
X155038105Y-115408169D01*
X154973969Y-115563005D01*
X154880860Y-115702354D01*
X154762354Y-115820860D01*
X154623005Y-115913969D01*
X154468169Y-115978105D01*
X154303797Y-116010800D01*
X154136203Y-116010800D01*
X153971831Y-115978105D01*
X153816995Y-115913969D01*
X153677646Y-115820860D01*
X153559140Y-115702354D01*
X153466031Y-115563005D01*
X153401895Y-115408169D01*
X153369200Y-115243797D01*
X153369200Y-115076203D01*
X153401895Y-114911831D01*
X153466031Y-114756995D01*
X153559140Y-114617646D01*
X153677646Y-114499140D01*
X153816995Y-114406031D01*
X153971831Y-114341895D01*
X154136203Y-114309200D01*
X154303797Y-114309200D01*
X154468169Y-114341895D01*
G37*
G36*
X145569028Y-111624168D02*
G01*
X145924051Y-111771223D01*
X146243564Y-111984715D01*
X146515285Y-112256436D01*
X146728777Y-112575949D01*
X146875832Y-112930972D01*
X146950800Y-113307863D01*
X146950800Y-113692137D01*
X146875832Y-114069028D01*
X146728777Y-114424051D01*
X146515285Y-114743564D01*
X146243564Y-115015285D01*
X145924051Y-115228777D01*
X145569028Y-115375832D01*
X145192137Y-115450800D01*
X144807863Y-115450800D01*
X144430972Y-115375832D01*
X144075949Y-115228777D01*
X143756436Y-115015285D01*
X143484715Y-114743564D01*
X143271223Y-114424051D01*
X143124168Y-114069028D01*
X143049200Y-113692137D01*
X143049200Y-113307863D01*
X143124168Y-112930972D01*
X143271223Y-112575949D01*
X143484715Y-112256436D01*
X143756436Y-111984715D01*
X144075949Y-111771223D01*
X144430972Y-111624168D01*
X144807863Y-111549200D01*
X145192137Y-111549200D01*
X145569028Y-111624168D01*
G37*
G36*
X179569028Y-111124168D02*
G01*
X179924051Y-111271223D01*
X180243564Y-111484715D01*
X180515285Y-111756436D01*
X180728777Y-112075949D01*
X180875832Y-112430972D01*
X180950800Y-112807863D01*
X180950800Y-113192137D01*
X180875832Y-113569028D01*
X180728777Y-113924051D01*
X180515285Y-114243564D01*
X180243564Y-114515285D01*
X179924051Y-114728777D01*
X179569028Y-114875832D01*
X179192137Y-114950800D01*
X178807863Y-114950800D01*
X178430972Y-114875832D01*
X178075949Y-114728777D01*
X177756436Y-114515285D01*
X177484715Y-114243564D01*
X177271223Y-113924051D01*
X177124168Y-113569028D01*
X177049200Y-113192137D01*
X177049200Y-112807863D01*
X177124168Y-112430972D01*
X177271223Y-112075949D01*
X177484715Y-111756436D01*
X177756436Y-111484715D01*
X178075949Y-111271223D01*
X178430972Y-111124168D01*
X178807863Y-111049200D01*
X179192137Y-111049200D01*
X179569028Y-111124168D01*
G37*
G36*
X128150800Y-111900800D02*
G01*
X126349200Y-111900800D01*
X126349200Y-110099200D01*
X128150800Y-110099200D01*
X128150800Y-111900800D01*
G37*
G36*
X127512754Y-107593817D02*
G01*
X127676689Y-107661721D01*
X127824227Y-107760303D01*
X127949697Y-107885773D01*
X128048279Y-108033311D01*
X128116183Y-108197246D01*
X128150800Y-108371279D01*
X128150800Y-108548721D01*
X128116183Y-108722754D01*
X128048279Y-108886689D01*
X127949697Y-109034227D01*
X127824227Y-109159697D01*
X127676689Y-109258279D01*
X127512754Y-109326183D01*
X127338721Y-109360800D01*
X127161279Y-109360800D01*
X126987246Y-109326183D01*
X126823311Y-109258279D01*
X126675773Y-109159697D01*
X126550303Y-109034227D01*
X126451721Y-108886689D01*
X126383817Y-108722754D01*
X126349200Y-108548721D01*
X126349200Y-108371279D01*
X126383817Y-108197246D01*
X126451721Y-108033311D01*
X126550303Y-107885773D01*
X126675773Y-107760303D01*
X126823311Y-107661721D01*
X126987246Y-107593817D01*
X127161279Y-107559200D01*
X127338721Y-107559200D01*
X127512754Y-107593817D01*
G37*
G36*
X132473183Y-104354953D02*
G01*
X132737212Y-104464317D01*
X132974833Y-104623091D01*
X133176909Y-104825167D01*
X133335683Y-105062788D01*
X133445047Y-105326817D01*
X133500800Y-105607108D01*
X133500800Y-105892892D01*
X133445047Y-106173183D01*
X133335683Y-106437212D01*
X133176909Y-106674833D01*
X132974833Y-106876909D01*
X132737212Y-107035683D01*
X132473183Y-107145047D01*
X132192892Y-107200800D01*
X131907108Y-107200800D01*
X131626817Y-107145047D01*
X131362788Y-107035683D01*
X131125167Y-106876909D01*
X130923091Y-106674833D01*
X130764317Y-106437212D01*
X130654953Y-106173183D01*
X130599200Y-105892892D01*
X130599200Y-105607108D01*
X130654953Y-105326817D01*
X130764317Y-105062788D01*
X130923091Y-104825167D01*
X131125167Y-104623091D01*
X131362788Y-104464317D01*
X131626817Y-104354953D01*
X131907108Y-104299200D01*
X132192892Y-104299200D01*
X132473183Y-104354953D01*
G37*
G36*
X146200800Y-107200800D02*
G01*
X143299200Y-107200800D01*
X143299200Y-104299200D01*
X146200800Y-104299200D01*
X146200800Y-107200800D01*
G37*
G36*
X127512754Y-105053817D02*
G01*
X127676689Y-105121721D01*
X127824227Y-105220303D01*
X127949697Y-105345773D01*
X128048279Y-105493311D01*
X128116183Y-105657246D01*
X128150800Y-105831279D01*
X128150800Y-106008721D01*
X128116183Y-106182754D01*
X128048279Y-106346689D01*
X127949697Y-106494227D01*
X127824227Y-106619697D01*
X127676689Y-106718279D01*
X127512754Y-106786183D01*
X127338721Y-106820800D01*
X127161279Y-106820800D01*
X126987246Y-106786183D01*
X126823311Y-106718279D01*
X126675773Y-106619697D01*
X126550303Y-106494227D01*
X126451721Y-106346689D01*
X126383817Y-106182754D01*
X126349200Y-106008721D01*
X126349200Y-105831279D01*
X126383817Y-105657246D01*
X126451721Y-105493311D01*
X126550303Y-105345773D01*
X126675773Y-105220303D01*
X126823311Y-105121721D01*
X126987246Y-105053817D01*
X127161279Y-105019200D01*
X127338721Y-105019200D01*
X127512754Y-105053817D01*
G37*
G36*
X162088169Y-104181895D02*
G01*
X162243005Y-104246031D01*
X162382354Y-104339140D01*
X162500860Y-104457646D01*
X162593969Y-104596995D01*
X162658105Y-104751831D01*
X162690800Y-104916203D01*
X162690800Y-105083797D01*
X162658105Y-105248169D01*
X162593969Y-105403005D01*
X162500860Y-105542354D01*
X162382354Y-105660860D01*
X162243005Y-105753969D01*
X162088169Y-105818105D01*
X161923797Y-105850800D01*
X161756203Y-105850800D01*
X161591831Y-105818105D01*
X161436995Y-105753969D01*
X161297646Y-105660860D01*
X161179140Y-105542354D01*
X161086031Y-105403005D01*
X161021895Y-105248169D01*
X160989200Y-105083797D01*
X160989200Y-104916203D01*
X161021895Y-104751831D01*
X161086031Y-104596995D01*
X161179140Y-104457646D01*
X161297646Y-104339140D01*
X161436995Y-104246031D01*
X161591831Y-104181895D01*
X161756203Y-104149200D01*
X161923797Y-104149200D01*
X162088169Y-104181895D01*
G37*
G36*
X172850800Y-105850800D02*
G01*
X171149200Y-105850800D01*
X171149200Y-104149200D01*
X172850800Y-104149200D01*
X172850800Y-105850800D01*
G37*
G36*
X169708169Y-104181895D02*
G01*
X169863005Y-104246031D01*
X170002354Y-104339140D01*
X170120860Y-104457646D01*
X170213969Y-104596995D01*
X170278105Y-104751831D01*
X170310800Y-104916203D01*
X170310800Y-105083797D01*
X170278105Y-105248169D01*
X170213969Y-105403005D01*
X170120860Y-105542354D01*
X170002354Y-105660860D01*
X169863005Y-105753969D01*
X169708169Y-105818105D01*
X169543797Y-105850800D01*
X169376203Y-105850800D01*
X169211831Y-105818105D01*
X169056995Y-105753969D01*
X168917646Y-105660860D01*
X168799140Y-105542354D01*
X168706031Y-105403005D01*
X168641895Y-105248169D01*
X168609200Y-105083797D01*
X168609200Y-104916203D01*
X168641895Y-104751831D01*
X168706031Y-104596995D01*
X168799140Y-104457646D01*
X168917646Y-104339140D01*
X169056995Y-104246031D01*
X169211831Y-104181895D01*
X169376203Y-104149200D01*
X169543797Y-104149200D01*
X169708169Y-104181895D01*
G37*
G36*
X167168169Y-104181895D02*
G01*
X167323005Y-104246031D01*
X167462354Y-104339140D01*
X167580860Y-104457646D01*
X167673969Y-104596995D01*
X167738105Y-104751831D01*
X167770800Y-104916203D01*
X167770800Y-105083797D01*
X167738105Y-105248169D01*
X167673969Y-105403005D01*
X167580860Y-105542354D01*
X167462354Y-105660860D01*
X167323005Y-105753969D01*
X167168169Y-105818105D01*
X167003797Y-105850800D01*
X166836203Y-105850800D01*
X166671831Y-105818105D01*
X166516995Y-105753969D01*
X166377646Y-105660860D01*
X166259140Y-105542354D01*
X166166031Y-105403005D01*
X166101895Y-105248169D01*
X166069200Y-105083797D01*
X166069200Y-104916203D01*
X166101895Y-104751831D01*
X166166031Y-104596995D01*
X166259140Y-104457646D01*
X166377646Y-104339140D01*
X166516995Y-104246031D01*
X166671831Y-104181895D01*
X166836203Y-104149200D01*
X167003797Y-104149200D01*
X167168169Y-104181895D01*
G37*
G36*
X164628169Y-104181895D02*
G01*
X164783005Y-104246031D01*
X164922354Y-104339140D01*
X165040860Y-104457646D01*
X165133969Y-104596995D01*
X165198105Y-104751831D01*
X165230800Y-104916203D01*
X165230800Y-105083797D01*
X165198105Y-105248169D01*
X165133969Y-105403005D01*
X165040860Y-105542354D01*
X164922354Y-105660860D01*
X164783005Y-105753969D01*
X164628169Y-105818105D01*
X164463797Y-105850800D01*
X164296203Y-105850800D01*
X164131831Y-105818105D01*
X163976995Y-105753969D01*
X163837646Y-105660860D01*
X163719140Y-105542354D01*
X163626031Y-105403005D01*
X163561895Y-105248169D01*
X163529200Y-105083797D01*
X163529200Y-104916203D01*
X163561895Y-104751831D01*
X163626031Y-104596995D01*
X163719140Y-104457646D01*
X163837646Y-104339140D01*
X163976995Y-104246031D01*
X164131831Y-104181895D01*
X164296203Y-104149200D01*
X164463797Y-104149200D01*
X164628169Y-104181895D01*
G37*
G36*
X159548169Y-104181895D02*
G01*
X159703005Y-104246031D01*
X159842354Y-104339140D01*
X159960860Y-104457646D01*
X160053969Y-104596995D01*
X160118105Y-104751831D01*
X160150800Y-104916203D01*
X160150800Y-105083797D01*
X160118105Y-105248169D01*
X160053969Y-105403005D01*
X159960860Y-105542354D01*
X159842354Y-105660860D01*
X159703005Y-105753969D01*
X159548169Y-105818105D01*
X159383797Y-105850800D01*
X159216203Y-105850800D01*
X159051831Y-105818105D01*
X158896995Y-105753969D01*
X158757646Y-105660860D01*
X158639140Y-105542354D01*
X158546031Y-105403005D01*
X158481895Y-105248169D01*
X158449200Y-105083797D01*
X158449200Y-104916203D01*
X158481895Y-104751831D01*
X158546031Y-104596995D01*
X158639140Y-104457646D01*
X158757646Y-104339140D01*
X158896995Y-104246031D01*
X159051831Y-104181895D01*
X159216203Y-104149200D01*
X159383797Y-104149200D01*
X159548169Y-104181895D01*
G37*
G36*
X154468169Y-104181895D02*
G01*
X154623005Y-104246031D01*
X154762354Y-104339140D01*
X154880860Y-104457646D01*
X154973969Y-104596995D01*
X155038105Y-104751831D01*
X155070800Y-104916203D01*
X155070800Y-105083797D01*
X155038105Y-105248169D01*
X154973969Y-105403005D01*
X154880860Y-105542354D01*
X154762354Y-105660860D01*
X154623005Y-105753969D01*
X154468169Y-105818105D01*
X154303797Y-105850800D01*
X154136203Y-105850800D01*
X153971831Y-105818105D01*
X153816995Y-105753969D01*
X153677646Y-105660860D01*
X153559140Y-105542354D01*
X153466031Y-105403005D01*
X153401895Y-105248169D01*
X153369200Y-105083797D01*
X153369200Y-104916203D01*
X153401895Y-104751831D01*
X153466031Y-104596995D01*
X153559140Y-104457646D01*
X153677646Y-104339140D01*
X153816995Y-104246031D01*
X153971831Y-104181895D01*
X154136203Y-104149200D01*
X154303797Y-104149200D01*
X154468169Y-104181895D01*
G37*
G36*
X157008169Y-104181895D02*
G01*
X157163005Y-104246031D01*
X157302354Y-104339140D01*
X157420860Y-104457646D01*
X157513969Y-104596995D01*
X157578105Y-104751831D01*
X157610800Y-104916203D01*
X157610800Y-105083797D01*
X157578105Y-105248169D01*
X157513969Y-105403005D01*
X157420860Y-105542354D01*
X157302354Y-105660860D01*
X157163005Y-105753969D01*
X157008169Y-105818105D01*
X156843797Y-105850800D01*
X156676203Y-105850800D01*
X156511831Y-105818105D01*
X156356995Y-105753969D01*
X156217646Y-105660860D01*
X156099140Y-105542354D01*
X156006031Y-105403005D01*
X155941895Y-105248169D01*
X155909200Y-105083797D01*
X155909200Y-104916203D01*
X155941895Y-104751831D01*
X156006031Y-104596995D01*
X156099140Y-104457646D01*
X156217646Y-104339140D01*
X156356995Y-104246031D01*
X156511831Y-104181895D01*
X156676203Y-104149200D01*
X156843797Y-104149200D01*
X157008169Y-104181895D01*
G37*
G36*
X140517086Y-97448435D02*
G01*
X140665003Y-97509704D01*
X140798134Y-97598660D01*
X140911340Y-97711866D01*
X141000296Y-97844997D01*
X141061565Y-97992914D01*
X141092800Y-98149946D01*
X141092800Y-98310054D01*
X141061565Y-98467086D01*
X141000296Y-98615003D01*
X140911340Y-98748134D01*
X140798134Y-98861340D01*
X140665003Y-98950296D01*
X140517086Y-99011565D01*
X140360054Y-99042800D01*
X140199946Y-99042800D01*
X140042914Y-99011565D01*
X139894997Y-98950296D01*
X139761866Y-98861340D01*
X139648660Y-98748134D01*
X139559704Y-98615003D01*
X139498435Y-98467086D01*
X139467200Y-98310054D01*
X139467200Y-98149946D01*
X139498435Y-97992914D01*
X139559704Y-97844997D01*
X139648660Y-97711866D01*
X139761866Y-97598660D01*
X139894997Y-97509704D01*
X140042914Y-97448435D01*
X140199946Y-97417200D01*
X140360054Y-97417200D01*
X140517086Y-97448435D01*
G37*
G36*
X122797086Y-97448435D02*
G01*
X122945003Y-97509704D01*
X123078134Y-97598660D01*
X123191340Y-97711866D01*
X123280296Y-97844997D01*
X123341565Y-97992914D01*
X123372800Y-98149946D01*
X123372800Y-98310054D01*
X123341565Y-98467086D01*
X123280296Y-98615003D01*
X123191340Y-98748134D01*
X123078134Y-98861340D01*
X122945003Y-98950296D01*
X122797086Y-99011565D01*
X122640054Y-99042800D01*
X122479946Y-99042800D01*
X122322914Y-99011565D01*
X122174997Y-98950296D01*
X122041866Y-98861340D01*
X121928660Y-98748134D01*
X121839704Y-98615003D01*
X121778435Y-98467086D01*
X121747200Y-98310054D01*
X121747200Y-98149946D01*
X121778435Y-97992914D01*
X121839704Y-97844997D01*
X121928660Y-97711866D01*
X122041866Y-97598660D01*
X122174997Y-97509704D01*
X122322914Y-97448435D01*
X122479946Y-97417200D01*
X122640054Y-97417200D01*
X122797086Y-97448435D01*
G37*
G36*
X125277086Y-97448435D02*
G01*
X125425003Y-97509704D01*
X125558134Y-97598660D01*
X125671340Y-97711866D01*
X125760296Y-97844997D01*
X125821565Y-97992914D01*
X125852800Y-98149946D01*
X125852800Y-98310054D01*
X125821565Y-98467086D01*
X125760296Y-98615003D01*
X125671340Y-98748134D01*
X125558134Y-98861340D01*
X125425003Y-98950296D01*
X125277086Y-99011565D01*
X125120054Y-99042800D01*
X124959946Y-99042800D01*
X124802914Y-99011565D01*
X124654997Y-98950296D01*
X124521866Y-98861340D01*
X124408660Y-98748134D01*
X124319704Y-98615003D01*
X124258435Y-98467086D01*
X124227200Y-98310054D01*
X124227200Y-98149946D01*
X124258435Y-97992914D01*
X124319704Y-97844997D01*
X124408660Y-97711866D01*
X124521866Y-97598660D01*
X124654997Y-97509704D01*
X124802914Y-97448435D01*
X124959946Y-97417200D01*
X125120054Y-97417200D01*
X125277086Y-97448435D01*
G37*
G36*
X127817086Y-97448435D02*
G01*
X127965003Y-97509704D01*
X128098134Y-97598660D01*
X128211340Y-97711866D01*
X128300296Y-97844997D01*
X128361565Y-97992914D01*
X128392800Y-98149946D01*
X128392800Y-98310054D01*
X128361565Y-98467086D01*
X128300296Y-98615003D01*
X128211340Y-98748134D01*
X128098134Y-98861340D01*
X127965003Y-98950296D01*
X127817086Y-99011565D01*
X127660054Y-99042800D01*
X127499946Y-99042800D01*
X127342914Y-99011565D01*
X127194997Y-98950296D01*
X127061866Y-98861340D01*
X126948660Y-98748134D01*
X126859704Y-98615003D01*
X126798435Y-98467086D01*
X126767200Y-98310054D01*
X126767200Y-98149946D01*
X126798435Y-97992914D01*
X126859704Y-97844997D01*
X126948660Y-97711866D01*
X127061866Y-97598660D01*
X127194997Y-97509704D01*
X127342914Y-97448435D01*
X127499946Y-97417200D01*
X127660054Y-97417200D01*
X127817086Y-97448435D01*
G37*
G36*
X130357086Y-97448435D02*
G01*
X130505003Y-97509704D01*
X130638134Y-97598660D01*
X130751340Y-97711866D01*
X130840296Y-97844997D01*
X130901565Y-97992914D01*
X130932800Y-98149946D01*
X130932800Y-98310054D01*
X130901565Y-98467086D01*
X130840296Y-98615003D01*
X130751340Y-98748134D01*
X130638134Y-98861340D01*
X130505003Y-98950296D01*
X130357086Y-99011565D01*
X130200054Y-99042800D01*
X130039946Y-99042800D01*
X129882914Y-99011565D01*
X129734997Y-98950296D01*
X129601866Y-98861340D01*
X129488660Y-98748134D01*
X129399704Y-98615003D01*
X129338435Y-98467086D01*
X129307200Y-98310054D01*
X129307200Y-98149946D01*
X129338435Y-97992914D01*
X129399704Y-97844997D01*
X129488660Y-97711866D01*
X129601866Y-97598660D01*
X129734997Y-97509704D01*
X129882914Y-97448435D01*
X130039946Y-97417200D01*
X130200054Y-97417200D01*
X130357086Y-97448435D01*
G37*
G36*
X132897086Y-97448435D02*
G01*
X133045003Y-97509704D01*
X133178134Y-97598660D01*
X133291340Y-97711866D01*
X133380296Y-97844997D01*
X133441565Y-97992914D01*
X133472800Y-98149946D01*
X133472800Y-98310054D01*
X133441565Y-98467086D01*
X133380296Y-98615003D01*
X133291340Y-98748134D01*
X133178134Y-98861340D01*
X133045003Y-98950296D01*
X132897086Y-99011565D01*
X132740054Y-99042800D01*
X132579946Y-99042800D01*
X132422914Y-99011565D01*
X132274997Y-98950296D01*
X132141866Y-98861340D01*
X132028660Y-98748134D01*
X131939704Y-98615003D01*
X131878435Y-98467086D01*
X131847200Y-98310054D01*
X131847200Y-98149946D01*
X131878435Y-97992914D01*
X131939704Y-97844997D01*
X132028660Y-97711866D01*
X132141866Y-97598660D01*
X132274997Y-97509704D01*
X132422914Y-97448435D01*
X132579946Y-97417200D01*
X132740054Y-97417200D01*
X132897086Y-97448435D01*
G37*
G36*
X135437086Y-97448435D02*
G01*
X135585003Y-97509704D01*
X135718134Y-97598660D01*
X135831340Y-97711866D01*
X135920296Y-97844997D01*
X135981565Y-97992914D01*
X136012800Y-98149946D01*
X136012800Y-98310054D01*
X135981565Y-98467086D01*
X135920296Y-98615003D01*
X135831340Y-98748134D01*
X135718134Y-98861340D01*
X135585003Y-98950296D01*
X135437086Y-99011565D01*
X135280054Y-99042800D01*
X135119946Y-99042800D01*
X134962914Y-99011565D01*
X134814997Y-98950296D01*
X134681866Y-98861340D01*
X134568660Y-98748134D01*
X134479704Y-98615003D01*
X134418435Y-98467086D01*
X134387200Y-98310054D01*
X134387200Y-98149946D01*
X134418435Y-97992914D01*
X134479704Y-97844997D01*
X134568660Y-97711866D01*
X134681866Y-97598660D01*
X134814997Y-97509704D01*
X134962914Y-97448435D01*
X135119946Y-97417200D01*
X135280054Y-97417200D01*
X135437086Y-97448435D01*
G37*
G36*
X143057086Y-97448435D02*
G01*
X143205003Y-97509704D01*
X143338134Y-97598660D01*
X143451340Y-97711866D01*
X143540296Y-97844997D01*
X143601565Y-97992914D01*
X143632800Y-98149946D01*
X143632800Y-98310054D01*
X143601565Y-98467086D01*
X143540296Y-98615003D01*
X143451340Y-98748134D01*
X143338134Y-98861340D01*
X143205003Y-98950296D01*
X143057086Y-99011565D01*
X142900054Y-99042800D01*
X142739946Y-99042800D01*
X142582914Y-99011565D01*
X142434997Y-98950296D01*
X142301866Y-98861340D01*
X142188660Y-98748134D01*
X142099704Y-98615003D01*
X142038435Y-98467086D01*
X142007200Y-98310054D01*
X142007200Y-98149946D01*
X142038435Y-97992914D01*
X142099704Y-97844997D01*
X142188660Y-97711866D01*
X142301866Y-97598660D01*
X142434997Y-97509704D01*
X142582914Y-97448435D01*
X142739946Y-97417200D01*
X142900054Y-97417200D01*
X143057086Y-97448435D01*
G37*
G36*
X137977086Y-97448435D02*
G01*
X138125003Y-97509704D01*
X138258134Y-97598660D01*
X138371340Y-97711866D01*
X138460296Y-97844997D01*
X138521565Y-97992914D01*
X138552800Y-98149946D01*
X138552800Y-98310054D01*
X138521565Y-98467086D01*
X138460296Y-98615003D01*
X138371340Y-98748134D01*
X138258134Y-98861340D01*
X138125003Y-98950296D01*
X137977086Y-99011565D01*
X137820054Y-99042800D01*
X137659946Y-99042800D01*
X137502914Y-99011565D01*
X137354997Y-98950296D01*
X137221866Y-98861340D01*
X137108660Y-98748134D01*
X137019704Y-98615003D01*
X136958435Y-98467086D01*
X136927200Y-98310054D01*
X136927200Y-98149946D01*
X136958435Y-97992914D01*
X137019704Y-97844997D01*
X137108660Y-97711866D01*
X137221866Y-97598660D01*
X137354997Y-97509704D01*
X137502914Y-97448435D01*
X137659946Y-97417200D01*
X137820054Y-97417200D01*
X137977086Y-97448435D01*
G37*
G36*
X145597086Y-97448435D02*
G01*
X145745003Y-97509704D01*
X145878134Y-97598660D01*
X145991340Y-97711866D01*
X146080296Y-97844997D01*
X146141565Y-97992914D01*
X146172800Y-98149946D01*
X146172800Y-98310054D01*
X146141565Y-98467086D01*
X146080296Y-98615003D01*
X145991340Y-98748134D01*
X145878134Y-98861340D01*
X145745003Y-98950296D01*
X145597086Y-99011565D01*
X145440054Y-99042800D01*
X145279946Y-99042800D01*
X145122914Y-99011565D01*
X144974997Y-98950296D01*
X144841866Y-98861340D01*
X144728660Y-98748134D01*
X144639704Y-98615003D01*
X144578435Y-98467086D01*
X144547200Y-98310054D01*
X144547200Y-98149946D01*
X144578435Y-97992914D01*
X144639704Y-97844997D01*
X144728660Y-97711866D01*
X144841866Y-97598660D01*
X144974997Y-97509704D01*
X145122914Y-97448435D01*
X145279946Y-97417200D01*
X145440054Y-97417200D01*
X145597086Y-97448435D01*
G37*
G36*
X155446800Y-91638800D02*
G01*
X153821200Y-91638800D01*
X153821200Y-90013200D01*
X155446800Y-90013200D01*
X155446800Y-91638800D01*
G37*
G36*
X170111086Y-90044435D02*
G01*
X170259003Y-90105704D01*
X170392134Y-90194660D01*
X170505340Y-90307866D01*
X170594296Y-90440997D01*
X170655565Y-90588914D01*
X170686800Y-90745946D01*
X170686800Y-90906054D01*
X170655565Y-91063086D01*
X170594296Y-91211003D01*
X170505340Y-91344134D01*
X170392134Y-91457340D01*
X170259003Y-91546296D01*
X170111086Y-91607565D01*
X169954054Y-91638800D01*
X169793946Y-91638800D01*
X169636914Y-91607565D01*
X169488997Y-91546296D01*
X169355866Y-91457340D01*
X169242660Y-91344134D01*
X169153704Y-91211003D01*
X169092435Y-91063086D01*
X169061200Y-90906054D01*
X169061200Y-90745946D01*
X169092435Y-90588914D01*
X169153704Y-90440997D01*
X169242660Y-90307866D01*
X169355866Y-90194660D01*
X169488997Y-90105704D01*
X169636914Y-90044435D01*
X169793946Y-90013200D01*
X169954054Y-90013200D01*
X170111086Y-90044435D01*
G37*
G36*
X143611086Y-90044435D02*
G01*
X143759003Y-90105704D01*
X143892134Y-90194660D01*
X144005340Y-90307866D01*
X144094296Y-90440997D01*
X144155565Y-90588914D01*
X144186800Y-90745946D01*
X144186800Y-90906054D01*
X144155565Y-91063086D01*
X144094296Y-91211003D01*
X144005340Y-91344134D01*
X143892134Y-91457340D01*
X143759003Y-91546296D01*
X143611086Y-91607565D01*
X143454054Y-91638800D01*
X143293946Y-91638800D01*
X143136914Y-91607565D01*
X142988997Y-91546296D01*
X142855866Y-91457340D01*
X142742660Y-91344134D01*
X142653704Y-91211003D01*
X142592435Y-91063086D01*
X142561200Y-90906054D01*
X142561200Y-90745946D01*
X142592435Y-90588914D01*
X142653704Y-90440997D01*
X142742660Y-90307866D01*
X142855866Y-90194660D01*
X142988997Y-90105704D01*
X143136914Y-90044435D01*
X143293946Y-90013200D01*
X143454054Y-90013200D01*
X143611086Y-90044435D01*
G37*
G36*
X128946800Y-91638800D02*
G01*
X127321200Y-91638800D01*
X127321200Y-90013200D01*
X128946800Y-90013200D01*
X128946800Y-91638800D01*
G37*
G36*
X179569028Y-84624168D02*
G01*
X179924051Y-84771223D01*
X180243564Y-84984715D01*
X180515285Y-85256436D01*
X180728777Y-85575949D01*
X180875832Y-85930972D01*
X180950800Y-86307863D01*
X180950800Y-86692137D01*
X180875832Y-87069028D01*
X180728777Y-87424051D01*
X180515285Y-87743564D01*
X180243564Y-88015285D01*
X179924051Y-88228777D01*
X179569028Y-88375832D01*
X179192137Y-88450800D01*
X178807863Y-88450800D01*
X178430972Y-88375832D01*
X178075949Y-88228777D01*
X177756436Y-88015285D01*
X177484715Y-87743564D01*
X177271223Y-87424051D01*
X177124168Y-87069028D01*
X177049200Y-86692137D01*
X177049200Y-86307863D01*
X177124168Y-85930972D01*
X177271223Y-85575949D01*
X177484715Y-85256436D01*
X177756436Y-84984715D01*
X178075949Y-84771223D01*
X178430972Y-84624168D01*
X178807863Y-84549200D01*
X179192137Y-84549200D01*
X179569028Y-84624168D01*
G37*
G36*
X121569028Y-84624168D02*
G01*
X121924051Y-84771223D01*
X122243564Y-84984715D01*
X122515285Y-85256436D01*
X122728777Y-85575949D01*
X122875832Y-85930972D01*
X122950800Y-86307863D01*
X122950800Y-86692137D01*
X122875832Y-87069028D01*
X122728777Y-87424051D01*
X122515285Y-87743564D01*
X122243564Y-88015285D01*
X121924051Y-88228777D01*
X121569028Y-88375832D01*
X121192137Y-88450800D01*
X120807863Y-88450800D01*
X120430972Y-88375832D01*
X120075949Y-88228777D01*
X119756436Y-88015285D01*
X119484715Y-87743564D01*
X119271223Y-87424051D01*
X119124168Y-87069028D01*
X119049200Y-86692137D01*
X119049200Y-86307863D01*
X119124168Y-85930972D01*
X119271223Y-85575949D01*
X119484715Y-85256436D01*
X119756436Y-84984715D01*
X120075949Y-84771223D01*
X120430972Y-84624168D01*
X120807863Y-84549200D01*
X121192137Y-84549200D01*
X121569028Y-84624168D01*
G37*
G36*
X170111086Y-79884435D02*
G01*
X170259003Y-79945704D01*
X170392134Y-80034660D01*
X170505340Y-80147866D01*
X170594296Y-80280997D01*
X170655565Y-80428914D01*
X170686800Y-80585946D01*
X170686800Y-80746054D01*
X170655565Y-80903086D01*
X170594296Y-81051003D01*
X170505340Y-81184134D01*
X170392134Y-81297340D01*
X170259003Y-81386296D01*
X170111086Y-81447565D01*
X169954054Y-81478800D01*
X169793946Y-81478800D01*
X169636914Y-81447565D01*
X169488997Y-81386296D01*
X169355866Y-81297340D01*
X169242660Y-81184134D01*
X169153704Y-81051003D01*
X169092435Y-80903086D01*
X169061200Y-80746054D01*
X169061200Y-80585946D01*
X169092435Y-80428914D01*
X169153704Y-80280997D01*
X169242660Y-80147866D01*
X169355866Y-80034660D01*
X169488997Y-79945704D01*
X169636914Y-79884435D01*
X169793946Y-79853200D01*
X169954054Y-79853200D01*
X170111086Y-79884435D01*
G37*
G36*
X128371086Y-79884435D02*
G01*
X128519003Y-79945704D01*
X128652134Y-80034660D01*
X128765340Y-80147866D01*
X128854296Y-80280997D01*
X128915565Y-80428914D01*
X128946800Y-80585946D01*
X128946800Y-80746054D01*
X128915565Y-80903086D01*
X128854296Y-81051003D01*
X128765340Y-81184134D01*
X128652134Y-81297340D01*
X128519003Y-81386296D01*
X128371086Y-81447565D01*
X128214054Y-81478800D01*
X128053946Y-81478800D01*
X127896914Y-81447565D01*
X127748997Y-81386296D01*
X127615866Y-81297340D01*
X127502660Y-81184134D01*
X127413704Y-81051003D01*
X127352435Y-80903086D01*
X127321200Y-80746054D01*
X127321200Y-80585946D01*
X127352435Y-80428914D01*
X127413704Y-80280997D01*
X127502660Y-80147866D01*
X127615866Y-80034660D01*
X127748997Y-79945704D01*
X127896914Y-79884435D01*
X128053946Y-79853200D01*
X128214054Y-79853200D01*
X128371086Y-79884435D01*
G37*
G36*
X143611086Y-79884435D02*
G01*
X143759003Y-79945704D01*
X143892134Y-80034660D01*
X144005340Y-80147866D01*
X144094296Y-80280997D01*
X144155565Y-80428914D01*
X144186800Y-80585946D01*
X144186800Y-80746054D01*
X144155565Y-80903086D01*
X144094296Y-81051003D01*
X144005340Y-81184134D01*
X143892134Y-81297340D01*
X143759003Y-81386296D01*
X143611086Y-81447565D01*
X143454054Y-81478800D01*
X143293946Y-81478800D01*
X143136914Y-81447565D01*
X142988997Y-81386296D01*
X142855866Y-81297340D01*
X142742660Y-81184134D01*
X142653704Y-81051003D01*
X142592435Y-80903086D01*
X142561200Y-80746054D01*
X142561200Y-80585946D01*
X142592435Y-80428914D01*
X142653704Y-80280997D01*
X142742660Y-80147866D01*
X142855866Y-80034660D01*
X142988997Y-79945704D01*
X143136914Y-79884435D01*
X143293946Y-79853200D01*
X143454054Y-79853200D01*
X143611086Y-79884435D01*
G37*
G36*
X154871086Y-79884435D02*
G01*
X155019003Y-79945704D01*
X155152134Y-80034660D01*
X155265340Y-80147866D01*
X155354296Y-80280997D01*
X155415565Y-80428914D01*
X155446800Y-80585946D01*
X155446800Y-80746054D01*
X155415565Y-80903086D01*
X155354296Y-81051003D01*
X155265340Y-81184134D01*
X155152134Y-81297340D01*
X155019003Y-81386296D01*
X154871086Y-81447565D01*
X154714054Y-81478800D01*
X154553946Y-81478800D01*
X154396914Y-81447565D01*
X154248997Y-81386296D01*
X154115866Y-81297340D01*
X154002660Y-81184134D01*
X153913704Y-81051003D01*
X153852435Y-80903086D01*
X153821200Y-80746054D01*
X153821200Y-80585946D01*
X153852435Y-80428914D01*
X153913704Y-80280997D01*
X154002660Y-80147866D01*
X154115866Y-80034660D01*
X154248997Y-79945704D01*
X154396914Y-79884435D01*
X154553946Y-79853200D01*
X154714054Y-79853200D01*
X154871086Y-79884435D01*
G37*
G36*
X137977086Y-71988435D02*
G01*
X138125003Y-72049704D01*
X138258134Y-72138660D01*
X138371340Y-72251866D01*
X138460296Y-72384997D01*
X138521565Y-72532914D01*
X138552800Y-72689946D01*
X138552800Y-72850054D01*
X138521565Y-73007086D01*
X138460296Y-73155003D01*
X138371340Y-73288134D01*
X138258134Y-73401340D01*
X138125003Y-73490296D01*
X137977086Y-73551565D01*
X137820054Y-73582800D01*
X137659946Y-73582800D01*
X137502914Y-73551565D01*
X137354997Y-73490296D01*
X137221866Y-73401340D01*
X137108660Y-73288134D01*
X137019704Y-73155003D01*
X136958435Y-73007086D01*
X136927200Y-72850054D01*
X136927200Y-72689946D01*
X136958435Y-72532914D01*
X137019704Y-72384997D01*
X137108660Y-72251866D01*
X137221866Y-72138660D01*
X137354997Y-72049704D01*
X137502914Y-71988435D01*
X137659946Y-71957200D01*
X137820054Y-71957200D01*
X137977086Y-71988435D01*
G37*
G36*
X122737086Y-71988435D02*
G01*
X122885003Y-72049704D01*
X123018134Y-72138660D01*
X123131340Y-72251866D01*
X123220296Y-72384997D01*
X123281565Y-72532914D01*
X123312800Y-72689946D01*
X123312800Y-72850054D01*
X123281565Y-73007086D01*
X123220296Y-73155003D01*
X123131340Y-73288134D01*
X123018134Y-73401340D01*
X122885003Y-73490296D01*
X122737086Y-73551565D01*
X122580054Y-73582800D01*
X122419946Y-73582800D01*
X122262914Y-73551565D01*
X122114997Y-73490296D01*
X121981866Y-73401340D01*
X121868660Y-73288134D01*
X121779704Y-73155003D01*
X121718435Y-73007086D01*
X121687200Y-72850054D01*
X121687200Y-72689946D01*
X121718435Y-72532914D01*
X121779704Y-72384997D01*
X121868660Y-72251866D01*
X121981866Y-72138660D01*
X122114997Y-72049704D01*
X122262914Y-71988435D01*
X122419946Y-71957200D01*
X122580054Y-71957200D01*
X122737086Y-71988435D01*
G37*
G36*
X125277086Y-71988435D02*
G01*
X125425003Y-72049704D01*
X125558134Y-72138660D01*
X125671340Y-72251866D01*
X125760296Y-72384997D01*
X125821565Y-72532914D01*
X125852800Y-72689946D01*
X125852800Y-72850054D01*
X125821565Y-73007086D01*
X125760296Y-73155003D01*
X125671340Y-73288134D01*
X125558134Y-73401340D01*
X125425003Y-73490296D01*
X125277086Y-73551565D01*
X125120054Y-73582800D01*
X124959946Y-73582800D01*
X124802914Y-73551565D01*
X124654997Y-73490296D01*
X124521866Y-73401340D01*
X124408660Y-73288134D01*
X124319704Y-73155003D01*
X124258435Y-73007086D01*
X124227200Y-72850054D01*
X124227200Y-72689946D01*
X124258435Y-72532914D01*
X124319704Y-72384997D01*
X124408660Y-72251866D01*
X124521866Y-72138660D01*
X124654997Y-72049704D01*
X124802914Y-71988435D01*
X124959946Y-71957200D01*
X125120054Y-71957200D01*
X125277086Y-71988435D01*
G37*
G36*
X127817086Y-71988435D02*
G01*
X127965003Y-72049704D01*
X128098134Y-72138660D01*
X128211340Y-72251866D01*
X128300296Y-72384997D01*
X128361565Y-72532914D01*
X128392800Y-72689946D01*
X128392800Y-72850054D01*
X128361565Y-73007086D01*
X128300296Y-73155003D01*
X128211340Y-73288134D01*
X128098134Y-73401340D01*
X127965003Y-73490296D01*
X127817086Y-73551565D01*
X127660054Y-73582800D01*
X127499946Y-73582800D01*
X127342914Y-73551565D01*
X127194997Y-73490296D01*
X127061866Y-73401340D01*
X126948660Y-73288134D01*
X126859704Y-73155003D01*
X126798435Y-73007086D01*
X126767200Y-72850054D01*
X126767200Y-72689946D01*
X126798435Y-72532914D01*
X126859704Y-72384997D01*
X126948660Y-72251866D01*
X127061866Y-72138660D01*
X127194997Y-72049704D01*
X127342914Y-71988435D01*
X127499946Y-71957200D01*
X127660054Y-71957200D01*
X127817086Y-71988435D01*
G37*
G36*
X135437086Y-71988435D02*
G01*
X135585003Y-72049704D01*
X135718134Y-72138660D01*
X135831340Y-72251866D01*
X135920296Y-72384997D01*
X135981565Y-72532914D01*
X136012800Y-72689946D01*
X136012800Y-72850054D01*
X135981565Y-73007086D01*
X135920296Y-73155003D01*
X135831340Y-73288134D01*
X135718134Y-73401340D01*
X135585003Y-73490296D01*
X135437086Y-73551565D01*
X135280054Y-73582800D01*
X135119946Y-73582800D01*
X134962914Y-73551565D01*
X134814997Y-73490296D01*
X134681866Y-73401340D01*
X134568660Y-73288134D01*
X134479704Y-73155003D01*
X134418435Y-73007086D01*
X134387200Y-72850054D01*
X134387200Y-72689946D01*
X134418435Y-72532914D01*
X134479704Y-72384997D01*
X134568660Y-72251866D01*
X134681866Y-72138660D01*
X134814997Y-72049704D01*
X134962914Y-71988435D01*
X135119946Y-71957200D01*
X135280054Y-71957200D01*
X135437086Y-71988435D01*
G37*
G36*
X132897086Y-71988435D02*
G01*
X133045003Y-72049704D01*
X133178134Y-72138660D01*
X133291340Y-72251866D01*
X133380296Y-72384997D01*
X133441565Y-72532914D01*
X133472800Y-72689946D01*
X133472800Y-72850054D01*
X133441565Y-73007086D01*
X133380296Y-73155003D01*
X133291340Y-73288134D01*
X133178134Y-73401340D01*
X133045003Y-73490296D01*
X132897086Y-73551565D01*
X132740054Y-73582800D01*
X132579946Y-73582800D01*
X132422914Y-73551565D01*
X132274997Y-73490296D01*
X132141866Y-73401340D01*
X132028660Y-73288134D01*
X131939704Y-73155003D01*
X131878435Y-73007086D01*
X131847200Y-72850054D01*
X131847200Y-72689946D01*
X131878435Y-72532914D01*
X131939704Y-72384997D01*
X132028660Y-72251866D01*
X132141866Y-72138660D01*
X132274997Y-72049704D01*
X132422914Y-71988435D01*
X132579946Y-71957200D01*
X132740054Y-71957200D01*
X132897086Y-71988435D01*
G37*
G36*
X160837086Y-71988435D02*
G01*
X160985003Y-72049704D01*
X161118134Y-72138660D01*
X161231340Y-72251866D01*
X161320296Y-72384997D01*
X161381565Y-72532914D01*
X161412800Y-72689946D01*
X161412800Y-72850054D01*
X161381565Y-73007086D01*
X161320296Y-73155003D01*
X161231340Y-73288134D01*
X161118134Y-73401340D01*
X160985003Y-73490296D01*
X160837086Y-73551565D01*
X160680054Y-73582800D01*
X160519946Y-73582800D01*
X160362914Y-73551565D01*
X160214997Y-73490296D01*
X160081866Y-73401340D01*
X159968660Y-73288134D01*
X159879704Y-73155003D01*
X159818435Y-73007086D01*
X159787200Y-72850054D01*
X159787200Y-72689946D01*
X159818435Y-72532914D01*
X159879704Y-72384997D01*
X159968660Y-72251866D01*
X160081866Y-72138660D01*
X160214997Y-72049704D01*
X160362914Y-71988435D01*
X160519946Y-71957200D01*
X160680054Y-71957200D01*
X160837086Y-71988435D01*
G37*
G36*
X158297086Y-71988435D02*
G01*
X158445003Y-72049704D01*
X158578134Y-72138660D01*
X158691340Y-72251866D01*
X158780296Y-72384997D01*
X158841565Y-72532914D01*
X158872800Y-72689946D01*
X158872800Y-72850054D01*
X158841565Y-73007086D01*
X158780296Y-73155003D01*
X158691340Y-73288134D01*
X158578134Y-73401340D01*
X158445003Y-73490296D01*
X158297086Y-73551565D01*
X158140054Y-73582800D01*
X157979946Y-73582800D01*
X157822914Y-73551565D01*
X157674997Y-73490296D01*
X157541866Y-73401340D01*
X157428660Y-73288134D01*
X157339704Y-73155003D01*
X157278435Y-73007086D01*
X157247200Y-72850054D01*
X157247200Y-72689946D01*
X157278435Y-72532914D01*
X157339704Y-72384997D01*
X157428660Y-72251866D01*
X157541866Y-72138660D01*
X157674997Y-72049704D01*
X157822914Y-71988435D01*
X157979946Y-71957200D01*
X158140054Y-71957200D01*
X158297086Y-71988435D01*
G37*
G36*
X155757086Y-71988435D02*
G01*
X155905003Y-72049704D01*
X156038134Y-72138660D01*
X156151340Y-72251866D01*
X156240296Y-72384997D01*
X156301565Y-72532914D01*
X156332800Y-72689946D01*
X156332800Y-72850054D01*
X156301565Y-73007086D01*
X156240296Y-73155003D01*
X156151340Y-73288134D01*
X156038134Y-73401340D01*
X155905003Y-73490296D01*
X155757086Y-73551565D01*
X155600054Y-73582800D01*
X155439946Y-73582800D01*
X155282914Y-73551565D01*
X155134997Y-73490296D01*
X155001866Y-73401340D01*
X154888660Y-73288134D01*
X154799704Y-73155003D01*
X154738435Y-73007086D01*
X154707200Y-72850054D01*
X154707200Y-72689946D01*
X154738435Y-72532914D01*
X154799704Y-72384997D01*
X154888660Y-72251866D01*
X155001866Y-72138660D01*
X155134997Y-72049704D01*
X155282914Y-71988435D01*
X155439946Y-71957200D01*
X155600054Y-71957200D01*
X155757086Y-71988435D01*
G37*
G36*
X130357086Y-71988435D02*
G01*
X130505003Y-72049704D01*
X130638134Y-72138660D01*
X130751340Y-72251866D01*
X130840296Y-72384997D01*
X130901565Y-72532914D01*
X130932800Y-72689946D01*
X130932800Y-72850054D01*
X130901565Y-73007086D01*
X130840296Y-73155003D01*
X130751340Y-73288134D01*
X130638134Y-73401340D01*
X130505003Y-73490296D01*
X130357086Y-73551565D01*
X130200054Y-73582800D01*
X130039946Y-73582800D01*
X129882914Y-73551565D01*
X129734997Y-73490296D01*
X129601866Y-73401340D01*
X129488660Y-73288134D01*
X129399704Y-73155003D01*
X129338435Y-73007086D01*
X129307200Y-72850054D01*
X129307200Y-72689946D01*
X129338435Y-72532914D01*
X129399704Y-72384997D01*
X129488660Y-72251866D01*
X129601866Y-72138660D01*
X129734997Y-72049704D01*
X129882914Y-71988435D01*
X130039946Y-71957200D01*
X130200054Y-71957200D01*
X130357086Y-71988435D01*
G37*
G36*
X143057086Y-71988435D02*
G01*
X143205003Y-72049704D01*
X143338134Y-72138660D01*
X143451340Y-72251866D01*
X143540296Y-72384997D01*
X143601565Y-72532914D01*
X143632800Y-72689946D01*
X143632800Y-72850054D01*
X143601565Y-73007086D01*
X143540296Y-73155003D01*
X143451340Y-73288134D01*
X143338134Y-73401340D01*
X143205003Y-73490296D01*
X143057086Y-73551565D01*
X142900054Y-73582800D01*
X142739946Y-73582800D01*
X142582914Y-73551565D01*
X142434997Y-73490296D01*
X142301866Y-73401340D01*
X142188660Y-73288134D01*
X142099704Y-73155003D01*
X142038435Y-73007086D01*
X142007200Y-72850054D01*
X142007200Y-72689946D01*
X142038435Y-72532914D01*
X142099704Y-72384997D01*
X142188660Y-72251866D01*
X142301866Y-72138660D01*
X142434997Y-72049704D01*
X142582914Y-71988435D01*
X142739946Y-71957200D01*
X142900054Y-71957200D01*
X143057086Y-71988435D01*
G37*
G36*
X145597086Y-71988435D02*
G01*
X145745003Y-72049704D01*
X145878134Y-72138660D01*
X145991340Y-72251866D01*
X146080296Y-72384997D01*
X146141565Y-72532914D01*
X146172800Y-72689946D01*
X146172800Y-72850054D01*
X146141565Y-73007086D01*
X146080296Y-73155003D01*
X145991340Y-73288134D01*
X145878134Y-73401340D01*
X145745003Y-73490296D01*
X145597086Y-73551565D01*
X145440054Y-73582800D01*
X145279946Y-73582800D01*
X145122914Y-73551565D01*
X144974997Y-73490296D01*
X144841866Y-73401340D01*
X144728660Y-73288134D01*
X144639704Y-73155003D01*
X144578435Y-73007086D01*
X144547200Y-72850054D01*
X144547200Y-72689946D01*
X144578435Y-72532914D01*
X144639704Y-72384997D01*
X144728660Y-72251866D01*
X144841866Y-72138660D01*
X144974997Y-72049704D01*
X145122914Y-71988435D01*
X145279946Y-71957200D01*
X145440054Y-71957200D01*
X145597086Y-71988435D01*
G37*
G36*
X148137086Y-71988435D02*
G01*
X148285003Y-72049704D01*
X148418134Y-72138660D01*
X148531340Y-72251866D01*
X148620296Y-72384997D01*
X148681565Y-72532914D01*
X148712800Y-72689946D01*
X148712800Y-72850054D01*
X148681565Y-73007086D01*
X148620296Y-73155003D01*
X148531340Y-73288134D01*
X148418134Y-73401340D01*
X148285003Y-73490296D01*
X148137086Y-73551565D01*
X147980054Y-73582800D01*
X147819946Y-73582800D01*
X147662914Y-73551565D01*
X147514997Y-73490296D01*
X147381866Y-73401340D01*
X147268660Y-73288134D01*
X147179704Y-73155003D01*
X147118435Y-73007086D01*
X147087200Y-72850054D01*
X147087200Y-72689946D01*
X147118435Y-72532914D01*
X147179704Y-72384997D01*
X147268660Y-72251866D01*
X147381866Y-72138660D01*
X147514997Y-72049704D01*
X147662914Y-71988435D01*
X147819946Y-71957200D01*
X147980054Y-71957200D01*
X148137086Y-71988435D01*
G37*
G36*
X150677086Y-71988435D02*
G01*
X150825003Y-72049704D01*
X150958134Y-72138660D01*
X151071340Y-72251866D01*
X151160296Y-72384997D01*
X151221565Y-72532914D01*
X151252800Y-72689946D01*
X151252800Y-72850054D01*
X151221565Y-73007086D01*
X151160296Y-73155003D01*
X151071340Y-73288134D01*
X150958134Y-73401340D01*
X150825003Y-73490296D01*
X150677086Y-73551565D01*
X150520054Y-73582800D01*
X150359946Y-73582800D01*
X150202914Y-73551565D01*
X150054997Y-73490296D01*
X149921866Y-73401340D01*
X149808660Y-73288134D01*
X149719704Y-73155003D01*
X149658435Y-73007086D01*
X149627200Y-72850054D01*
X149627200Y-72689946D01*
X149658435Y-72532914D01*
X149719704Y-72384997D01*
X149808660Y-72251866D01*
X149921866Y-72138660D01*
X150054997Y-72049704D01*
X150202914Y-71988435D01*
X150359946Y-71957200D01*
X150520054Y-71957200D01*
X150677086Y-71988435D01*
G37*
G36*
X140517086Y-71988435D02*
G01*
X140665003Y-72049704D01*
X140798134Y-72138660D01*
X140911340Y-72251866D01*
X141000296Y-72384997D01*
X141061565Y-72532914D01*
X141092800Y-72689946D01*
X141092800Y-72850054D01*
X141061565Y-73007086D01*
X141000296Y-73155003D01*
X140911340Y-73288134D01*
X140798134Y-73401340D01*
X140665003Y-73490296D01*
X140517086Y-73551565D01*
X140360054Y-73582800D01*
X140199946Y-73582800D01*
X140042914Y-73551565D01*
X139894997Y-73490296D01*
X139761866Y-73401340D01*
X139648660Y-73288134D01*
X139559704Y-73155003D01*
X139498435Y-73007086D01*
X139467200Y-72850054D01*
X139467200Y-72689946D01*
X139498435Y-72532914D01*
X139559704Y-72384997D01*
X139648660Y-72251866D01*
X139761866Y-72138660D01*
X139894997Y-72049704D01*
X140042914Y-71988435D01*
X140199946Y-71957200D01*
X140360054Y-71957200D01*
X140517086Y-71988435D01*
G37*
G36*
X153217086Y-71988435D02*
G01*
X153365003Y-72049704D01*
X153498134Y-72138660D01*
X153611340Y-72251866D01*
X153700296Y-72384997D01*
X153761565Y-72532914D01*
X153792800Y-72689946D01*
X153792800Y-72850054D01*
X153761565Y-73007086D01*
X153700296Y-73155003D01*
X153611340Y-73288134D01*
X153498134Y-73401340D01*
X153365003Y-73490296D01*
X153217086Y-73551565D01*
X153060054Y-73582800D01*
X152899946Y-73582800D01*
X152742914Y-73551565D01*
X152594997Y-73490296D01*
X152461866Y-73401340D01*
X152348660Y-73288134D01*
X152259704Y-73155003D01*
X152198435Y-73007086D01*
X152167200Y-72850054D01*
X152167200Y-72689946D01*
X152198435Y-72532914D01*
X152259704Y-72384997D01*
X152348660Y-72251866D01*
X152461866Y-72138660D01*
X152594997Y-72049704D01*
X152742914Y-71988435D01*
X152899946Y-71957200D01*
X153060054Y-71957200D01*
X153217086Y-71988435D01*
G37*
M02*
