M48
; DRILL file {KiCad 5.1.5+dfsg1-2build2} date Tue 25 Aug 2020 07:56:15 PM EDT
; FORMAT={-:-/ absolute / inch / decimal}
; #@! TF.CreationDate,2020-08-25T19:56:15-04:00
; #@! TF.GenerationSoftware,Kicad,Pcbnew,5.1.5+dfsg1-2build2
; #@! TF.FileFunction,Plated,1,2,PTH
FMAT,2
INCH
T1C0.0130
T2C0.0300
T3C0.0315
T4C0.0394
T5C0.0512
T6C0.0551
T7C0.0598
T8C0.0866
%
G90
G05
T1
X4.6063Y-4.2126
X4.6063Y-4.4685
X4.685Y-4.9803
X4.7244Y-3.0512
X4.7244Y-3.5433
X4.7244Y-3.7992
X4.9016Y-4.4291
X5.0394Y-3.6811
X5.1181Y-4.4094
X5.1378Y-3.5236
X5.1969Y-3.6811
X5.1969Y-4.9803
X5.2756Y-3.5236
X5.3346Y-3.6811
X5.374Y-4.9606
X5.4134Y-3.5236
X5.4921Y-3.1693
X5.4921Y-3.3661
X5.4921Y-3.6811
X5.6299Y-3.6811
X5.748Y-3.6811
X5.8268Y-3.5236
X5.8858Y-3.6811
X5.9055Y-4.1339
X5.9449Y-3.5236
X6.0039Y-3.6811
X6.063Y-3.9961
X6.063Y-4.2323
X6.4567Y-4.626
X6.5551Y-3.5039
X6.5551Y-3.6614
X6.7717Y-3.5039
X6.7717Y-3.6614
X7.0236Y-2.8898
T2
X5.0446Y-3.1758
X5.0446Y-3.5758
X5.6446Y-3.1758
X5.6446Y-3.5758
X4.8228Y-2.865
X4.8252Y-3.8673
X4.9228Y-2.865
X4.9228Y-3.8673
X5.0228Y-2.865
X5.0228Y-3.8673
X5.1228Y-2.865
X5.1228Y-3.8673
X5.2228Y-2.865
X5.2228Y-3.8673
X5.3228Y-2.865
X5.3228Y-3.8673
X5.4228Y-2.865
X5.4228Y-3.8673
X5.5228Y-2.865
X5.5228Y-3.8673
X5.6228Y-2.865
X5.6228Y-3.8673
X5.7228Y-2.865
X5.7228Y-3.8673
X5.8228Y-2.865
X5.9228Y-2.865
X6.0228Y-2.865
X6.1228Y-2.865
X6.2228Y-2.865
X6.3228Y-2.865
X6.088Y-3.1758
X6.088Y-3.5758
X6.688Y-3.1758
X6.688Y-3.5758
T3
X6.0717Y-4.1339
X6.0717Y-4.5339
X6.1717Y-4.1339
X6.1717Y-4.5339
X6.2717Y-4.1339
X6.2717Y-4.5339
X6.3717Y-4.1339
X6.3717Y-4.5339
X6.4717Y-4.1339
X6.4717Y-4.5339
X6.5717Y-4.1339
X6.5717Y-4.5339
X6.6717Y-4.1339
X6.6717Y-4.5339
X6.7717Y-4.1339
X6.7717Y-4.5339
T4
X5.0098Y-4.1701
X5.0098Y-4.2701
X5.0098Y-4.3701
T5
X4.6845Y-4.6654
X4.6845Y-4.8622
X5.1766Y-4.6654
X5.1766Y-4.8622
T6
X5.1988Y-4.1634
X5.6988Y-4.1634
T7
X5.4693Y-4.8622
X5.6693Y-4.8622
X5.9811Y-4.8622
X6.1811Y-4.8622
X6.4732Y-4.8622
X6.6732Y-4.8622
X6.985Y-4.8622
X7.185Y-4.8622
T8
X5.7087Y-4.4685
X7.0472Y-4.4488
X4.7638Y-3.4055
X7.0472Y-3.4055
T0
M30
